<?xml version="1.0" encoding="UTF-8"?>
<svg width="663px" height="200px" viewBox="0 0 663 200" version="1.1" xmlns="http://www.w3.org/2000/svg" xmlns:xlink="http://www.w3.org/1999/xlink">
    <!-- Generator: Sketch 53.2 (72643) - https://sketchapp.com -->
    <title>amazon</title>
    <desc>Created with Sketch.</desc>
    <g id="Page-1" stroke="none" stroke-width="1" fill="none" fill-rule="evenodd">
        <g id="amazon" fill="#8599B7" fill-rule="nonzero">
            <path d="M410.996066,156.246198 C372.535099,184.594978 316.788275,199.720077 268.791297,199.720077 C201.491791,199.720077 140.904967,174.828484 95.0686923,133.428912 C91.4674835,130.173396 94.6941538,125.736714 99.0156264,128.271956 C148.481901,157.052879 209.644956,174.367527 272.82467,174.367527 C315.434219,174.367527 362.307637,165.551736 405.406978,147.257571 C411.917978,144.491824 417.363011,151.521407 410.996066,156.246198" id="path8"></path>
            <path d="M426.985473,137.952033 C422.087802,131.671516 394.488099,134.984637 382.099923,136.453934 C378.325835,136.91489 377.749659,133.630582 381.149187,131.268165 C403.131011,115.797352 439.200791,120.262857 443.407011,125.448604 C447.613209,130.663176 442.312242,166.819385 421.655659,184.076385 C418.486593,186.726879 415.461571,185.31522 416.873264,181.800418 C421.511615,170.218912 431.911934,144.261363 426.985473,137.952033" id="path10"></path>
            <path d="M382.96422,22.0505275 L382.96422,7.01185714 C382.96422,4.73589011 384.692802,3.20897802 386.767099,3.20897802 L454.095396,3.20897802 C456.256143,3.20897802 457.984725,4.7647033 457.984725,7.01185714 L457.984725,19.8898022 C457.955934,22.0505275 456.140901,24.8738791 452.914198,29.3393846 L418.025637,79.1513956 C430.990022,78.8345055 444.674637,80.7647363 456.429,87.390978 C459.079495,88.8890769 459.799736,91.0786154 460.001407,93.2393626 L460.001407,109.286374 C460.001407,111.475912 457.581385,114.039956 455.046132,112.714725 C434.331934,101.853451 406.818659,100.672253 383.914934,112.829967 C381.581352,114.097593 379.132527,111.562341 379.132527,109.372802 L379.132527,94.1324615 C379.132527,91.6836374 379.161319,87.5062088 381.610143,83.7897582 L422.030187,25.8246044 L386.853527,25.8246044 C384.692802,25.8246044 382.96422,24.2977033 382.96422,22.0505275" id="path12"></path>
            <path d="M137.361352,115.88378 L116.877648,115.88378 C114.918604,115.739747 113.362868,114.270451 113.218813,112.397802 L113.218813,7.27116484 C113.218813,5.16805495 114.976209,3.49707692 117.165747,3.49707692 L136.266582,3.49707692 C138.254473,3.58345055 139.838989,5.11041758 139.983055,7.01185714 L139.983055,20.7541099 L140.357582,20.7541099 C145.341659,7.47281319 154.704802,1.27872527 167.323473,1.27872527 C180.143791,1.27872527 188.15289,7.47281319 193.914835,20.7541099 C198.87011,7.47281319 210.134703,1.27872527 222.205989,1.27872527 C230.791286,1.27872527 240.183253,4.82231868 245.916385,12.7738022 C252.398571,21.6183846 251.073319,34.4675165 251.073319,45.7321319 L251.044527,112.080912 C251.044527,114.184022 249.287132,115.88378 247.097593,115.88378 L226.642681,115.88378 C224.597209,115.739747 222.955055,114.097593 222.955055,112.080912 L222.955055,56.3629121 C222.955055,51.9262198 223.358374,40.8632857 222.378857,36.6570549 C220.851945,29.5986923 216.271198,27.6108022 210.336385,27.6108022 C205.38111,27.6108022 200.195363,30.9239231 198.092253,36.2249231 C195.989143,41.5259121 196.190813,50.3992857 196.190813,56.3629121 L196.190813,112.080912 C196.190813,114.184022 194.433418,115.88378 192.243879,115.88378 L171.788989,115.88378 C169.714692,115.739747 168.101341,114.097593 168.101341,112.080912 L168.072527,56.3629121 C168.072527,44.6373626 170.002758,27.3803297 155.453868,27.3803297 C140.732088,27.3803297 141.308286,44.2051978 141.308286,56.3629121 L141.308286,112.080912 C141.308286,114.184022 139.55089,115.88378 137.361352,115.88378" id="path14"></path>
            <path d="M515.949879,1.27872527 C546.344132,1.27872527 562.794473,27.3803297 562.794473,60.5691319 C562.794473,92.6343407 544.615527,118.073319 515.949879,118.073319 C486.103,118.073319 469.854308,91.9717143 469.854308,59.4455495 C469.854308,26.7177033 486.30467,1.27872527 515.949879,1.27872527 M516.122725,22.741978 C501.026451,22.741978 500.075714,43.3120989 500.075714,56.1324396 C500.075714,68.9815714 499.874044,96.4084176 515.949879,96.4084176 C531.824033,96.4084176 532.573088,74.2825714 532.573088,60.7995934 C532.573088,51.9262198 532.19856,41.3242418 529.519242,32.9117912 C527.214462,25.5941429 522.633736,22.741978 516.122725,22.741978" id="path16"></path>
            <path d="M602.206176,115.88378 L581.808901,115.88378 C579.763396,115.739747 578.121242,114.097593 578.121242,112.080912 L578.092451,6.92542857 C578.265308,4.99517582 579.965088,3.49707692 582.039385,3.49707692 L601.025,3.49707692 C602.811187,3.58345055 604.280484,4.79351648 604.683835,6.43567033 L604.683835,22.5114835 L605.058341,22.5114835 C610.791495,8.13543956 618.829385,1.27872527 632.974956,1.27872527 C642.165253,1.27872527 651.125088,4.59184615 656.887033,13.6669011 C662.245637,22.0793407 662.245637,36.2249231 662.245637,46.3947363 L662.245637,112.570681 C662.015165,114.414484 660.315385,115.88378 658.298725,115.88378 L637.757385,115.88378 C635.884736,115.739747 634.329011,114.356879 634.127363,112.570681 L634.127363,55.4698132 C634.127363,43.9747363 635.452604,27.1498462 621.307022,27.1498462 C616.322956,27.1498462 611.742198,30.4917912 609.466231,35.5622857 C606.585275,41.9868681 606.210747,48.3826264 606.210747,55.4698132 L606.210747,112.080912 C606.181956,114.184022 604.395736,115.88378 602.206198,115.88378" id="path18"></path>
            <g id="use28" transform="translate(268.535374, 0.000000)">
                <path d="M60.7563308,65.6684505 L60.7563308,61.2317582 C45.9481209,61.2317582 30.3044505,64.4008242 30.3044505,81.8595055 C30.3044505,90.7040879 34.8851868,96.6965275 42.7502418,96.6965275 C48.5121868,96.6965275 53.6691209,93.1529341 56.9246374,87.390978 C60.9579791,80.3037802 60.7563308,73.6487363 60.7563308,65.6684505 M81.4128912,115.595681 C80.0588363,116.805692 78.0997593,116.892121 76.5728473,116.085462 C69.7737703,110.438758 68.5637484,107.817077 64.8184846,102.429659 C53.5826923,113.895923 45.6312308,117.324264 31.0534945,117.324264 C13.8252747,117.324264 0.399967033,106.693484 0.399967033,85.4031209 C0.399967033,68.7799011 9.41740659,57.4576813 22.2377253,51.9262198 C33.3582747,47.0285495 48.8867143,46.1642747 60.7563308,44.8102198 L60.7563308,42.1597253 C60.7563308,37.2908681 61.1308582,31.5289231 58.2786934,27.3227253 C55.7722308,23.5486374 50.9898352,21.9929121 46.7836044,21.9929121 C38.9761868,21.9929121 32.0042198,25.9974615 30.3044505,34.2946593 C29.9587253,36.1384945 28.6046703,37.9535055 26.7608571,38.0399341 L6.88215385,35.908 C5.21118681,35.5334945 3.36736264,34.1794176 3.82831868,31.6153736 C8.40906593,7.53045055 30.1603956,0.270384615 49.6357802,0.270384615 C59.6039242,0.270384615 72.6259132,2.92087912 80.4909681,10.469022 C90.459144,19.7745604 89.5084077,32.1915495 89.5084077,45.7033187 L89.5084077,77.6244835 C89.5084077,87.2181319 93.4841659,91.4243297 97.2294297,96.6100989 C98.5546714,98.4539011 98.8427703,100.672253 97.1718033,102.055121 C92.9943967,105.54111 85.5614956,112.023297 81.4704956,115.653319 L81.4128912,115.595626" id="path30"></path>
            </g>
            <path d="M60.7563308,65.6684505 L60.7563308,61.2317582 C45.9481209,61.2317582 30.3044505,64.4008242 30.3044505,81.8595055 C30.3044505,90.7040879 34.8851868,96.6965275 42.7502418,96.6965275 C48.5121868,96.6965275 53.6691209,93.1529341 56.9246374,87.390978 C60.9579791,80.3037802 60.7563308,73.6487363 60.7563308,65.6684505 M81.4128912,115.595681 C80.0588363,116.805692 78.0997593,116.892121 76.5728473,116.085462 C69.7737703,110.438758 68.5637484,107.817077 64.8184846,102.429659 C53.5826923,113.895923 45.6312308,117.324264 31.0534945,117.324264 C13.8252747,117.324264 0.399967033,106.693484 0.399967033,85.4031209 C0.399967033,68.7799011 9.41740659,57.4576813 22.2377253,51.9262198 C33.3582747,47.0285495 48.8867143,46.1642747 60.7563308,44.8102198 L60.7563308,42.1597253 C60.7563308,37.2908681 61.1308582,31.5289231 58.2786934,27.3227253 C55.7722308,23.5486374 50.9898352,21.9929121 46.7836044,21.9929121 C38.9761868,21.9929121 32.0042198,25.9974615 30.3044505,34.2946593 C29.9587253,36.1384945 28.6046703,37.9535055 26.7608571,38.0399341 L6.88215385,35.908 C5.21118681,35.5334945 3.36736264,34.1794176 3.82831868,31.6153736 C8.40906593,7.53045055 30.1603956,0.270384615 49.6357802,0.270384615 C59.6039242,0.270384615 72.6259132,2.92087912 80.4909681,10.469022 C90.459144,19.7745604 89.5084077,32.1915495 89.5084077,45.7033187 L89.5084077,77.6244835 C89.5084077,87.2181319 93.4841659,91.4243297 97.2294297,96.6100989 C98.5546714,98.4539011 98.8427703,100.672253 97.1718033,102.055121 C92.9943967,105.54111 85.5614956,112.023297 81.4704956,115.653319 L81.4128912,115.595626" id="path30"></path>
        </g>
    </g>
</svg>