<?xml version="1.0" encoding="UTF-8"?>
<svg width="303px" height="199px" viewBox="0 0 303 199" version="1.1" xmlns="http://www.w3.org/2000/svg" xmlns:xlink="http://www.w3.org/1999/xlink">
    <!-- Generator: Sketch 53.2 (72643) - https://sketchapp.com -->
    <title>asana</title>
    <desc>Created with Sketch.</desc>
    <g id="Page-1" stroke="none" stroke-width="1" fill="none" fill-rule="evenodd">
        <g id="asana" transform="translate(0.000000, 0.000000)" fill="#8599B7" fill-rule="nonzero">
            <path d="M28.450391,188.912568 C18.4667878,188.912568 10.3735301,180.641441 10.3735301,170.436259 C10.3735301,160.232808 18.4667878,151.960383 28.450391,151.960383 C38.4344269,151.960383 46.5259535,160.232808 46.5259535,170.436259 C46.5259535,180.641441 38.4344269,188.912568 28.450391,188.912568 L28.450391,188.912568 Z M46.5839449,191.256458 C46.5839449,192.947728 49.4826476,197.700857 53.0352679,197.700857 L55.3363134,197.700857 C56.2282551,197.700857 56.9583405,196.969905 56.9583405,196.078396 L56.9583405,145.517715 L56.9488195,145.517715 C56.902513,144.666454 56.1975284,143.983974 55.3363134,143.983974 L48.2068375,143.983974 C47.3447569,143.983974 46.6406379,144.666454 46.5921675,145.517715 L46.5839449,145.517715 L46.5839449,149.626447 C42.2155504,144.2458 35.3288594,142.013566 28.4222608,142.013566 C12.7243443,142.013566 0,154.73791 0,170.436259 C0,186.134608 12.7243443,198.861116 28.4222608,198.861116 C35.3288594,198.861116 42.8551866,196.181828 46.5830793,191.249101 L46.5839449,191.256458 Z M73.9913568,184.015327 C78.7505437,187.311314 83.9455315,188.912568 88.9371166,188.912568 C93.6937069,188.912568 98.6099898,186.446637 98.6099898,182.156141 C98.6099898,176.42668 87.8963014,175.534738 81.165408,173.247542 C74.4327836,170.959912 68.633647,166.229721 68.633647,158.570966 C68.633647,146.852382 79.0759878,142.011834 88.8215666,142.011834 C94.9972143,142.011834 101.368475,144.048457 105.499278,146.965768 C106.922663,148.042936 106.055389,149.281096 106.055389,149.281096 L102.112409,154.912749 C101.669251,155.54676 100.750477,156.053535 99.7823676,155.40784 C97.1260168,153.652086 94.1671588,151.95995 88.8215666,151.95995 C82.2044922,151.95995 79.2936718,154.70675 79.2936718,158.109632 C79.2936718,162.191964 83.9489936,163.475564 89.401913,164.867356 C98.90514,167.427632 109.270447,170.507233 109.270447,182.156141 C109.270447,192.481201 99.6118556,198.862847 88.9371166,198.862847 C80.8486194,198.862847 73.9610627,196.556176 68.1848631,192.317613 C66.9821914,191.113643 67.8222006,189.995362 67.8222006,189.995362 L71.7461388,184.393136 C72.5441692,183.344531 73.5507955,183.710656 73.9913568,184.015327 Z M162.736756,191.256458 C162.736756,192.947728 165.635458,197.700857 169.188079,197.700857 L171.488259,197.700857 C172.381066,197.700857 173.111585,196.969905 173.111585,196.078396 L173.111585,145.517715 L173.102063,145.517715 C173.054458,144.666454 172.35034,143.983974 171.488259,143.983974 L164.359215,143.983974 C163.496702,143.983974 162.792583,144.666454 162.745411,145.517715 L162.736756,145.517715 L162.736756,149.626447 C158.368794,144.2458 151.481238,142.013566 144.57637,142.013566 C128.87802,142.013566 116.151945,154.73791 116.151945,170.436259 C116.151945,186.134608 128.87802,198.861116 144.57637,198.861116 C151.481238,198.861116 159.007998,196.181828 162.73589,191.249101 L162.736756,191.256458 Z M144.603201,188.912568 C134.619166,188.912568 126.526341,180.641441 126.526341,170.436259 C126.526341,160.232808 134.619166,151.960383 144.603201,151.960383 C154.586372,151.960383 162.679198,160.232808 162.679198,170.436259 C162.679198,180.641441 154.586372,188.912568 144.603201,188.912568 Z M236.986044,192.994034 L236.983014,166.832138 L236.98388,166.832138 C236.98388,152.083723 227.679296,142.134741 212.841729,142.134741 C205.759858,142.134741 199.965049,146.230057 197.914578,149.747622 L197.914578,149.69872 L197.90246,149.738967 C197.898133,146.178557 195.010682,144.105582 191.451137,144.105582 L189.162209,144.105582 C188.268969,144.105582 187.539317,144.836534 187.539317,145.728908 L187.539317,191.382827 L187.539317,191.390617 L187.539317,196.292618 L187.548838,196.292618 C187.594711,197.143879 188.300561,197.827226 189.162209,197.827226 L196.291252,197.827226 C196.400311,197.827226 196.507638,197.814243 196.611503,197.794768 C196.659108,197.784814 196.701953,197.766205 196.747826,197.752789 C196.801923,197.737209 196.856884,197.724226 196.906653,197.70302 C196.971136,197.677054 197.028262,197.641134 197.087551,197.608244 C197.116115,197.590933 197.146841,197.578382 197.174972,197.561071 C197.244647,197.514764 197.310862,197.45937 197.374046,197.402677 C197.384433,197.391858 197.396983,197.384934 197.406937,197.37498 C197.478344,197.307034 197.542394,197.232598 197.599953,197.152968 L197.600819,197.152102 C197.779121,196.906721 197.887314,196.612004 197.905057,196.292618 L197.914578,196.292618 L197.914578,166.426199 C197.914578,158.505185 204.336039,152.083723 212.257488,152.083723 C220.178935,152.083723 226.60083,158.505185 226.60083,166.426199 L226.606456,191.391483 L226.608619,191.382827 C226.608619,191.404465 226.612514,191.427836 226.612514,191.450772 L226.612514,196.292618 L226.622036,196.292618 C226.669207,197.143879 227.373327,197.827226 228.235839,197.827226 L235.364883,197.827226 C235.474806,197.827226 235.580402,197.814243 235.684267,197.794768 C235.726679,197.785247 235.765628,197.768369 235.805877,197.758415 C235.865599,197.741104 235.925322,197.725957 235.981149,197.70302 C236.038708,197.678353 236.092372,197.645462 236.146901,197.614735 C236.180657,197.596125 236.216144,197.581844 236.248169,197.561071 C236.315249,197.516496 236.37497,197.464563 236.43426,197.413496 C236.449407,197.40008 236.466285,197.388395 236.480567,197.374547 C236.548512,197.309631 236.607369,197.239089 236.663196,197.165518 C236.666659,197.159026 236.671419,197.154699 236.67618,197.149505 C236.851885,196.906721 236.95878,196.614167 236.977821,196.296946 C236.977821,196.295215 236.978688,196.292618 236.978688,196.292618 L236.98691,196.292618 L236.98691,192.995333 L236.986044,192.994034 Z M292.58505,191.256458 C292.58505,192.947728 295.48029,197.700857 299.033343,197.700857 L301.335688,197.700857 C302.227196,197.700857 302.95858,196.969905 302.95858,196.078396 L302.95858,145.517715 L302.949924,145.517715 C302.90232,144.666454 302.196902,143.983974 301.335688,143.983974 L294.207942,143.983974 C293.3424,143.983974 292.64131,144.666454 292.593705,145.517715 L292.58505,145.517715 L292.58505,149.626447 C288.214059,144.2458 281.328666,142.013566 274.421634,142.013566 C258.725017,142.013566 245.998941,154.73791 245.998941,170.436259 C245.998941,186.134608 258.725017,198.861116 274.421634,198.861116 C281.328666,198.861116 288.854561,196.181828 292.580722,191.249101 L292.58505,191.256458 Z M274.451929,188.912568 C264.467892,188.912568 256.375067,180.641441 256.375067,170.436259 C256.375067,160.232808 264.467892,151.960383 274.451929,151.960383 C284.431637,151.960383 292.524462,160.232808 292.524462,170.436259 C292.524462,180.641441 284.431637,188.912568 274.451929,188.912568 Z" id="Shape"></path>
            <path d="M184.298866,56.0447441 C170.54083,56.0447441 159.389707,67.1962994 159.389707,80.9530392 C159.389707,94.7106433 170.54083,105.863063 184.298866,105.863063 C198.055174,105.863063 209.207161,94.7106433 209.207161,80.9530392 C209.207161,67.1962994 198.055174,56.0447441 184.298866,56.0447441 L184.298866,56.0447441 Z M119.583283,56.0464729 C105.826976,56.0464729 94.6745562,67.1962994 94.6745562,80.9543357 C94.6745562,94.7106433 105.826976,105.863063 119.583283,105.863063 C133.340456,105.863063 144.493308,94.7106433 144.493308,80.9543357 C144.493308,67.1962994 133.340456,56.0464729 119.583283,56.0464729 L119.583283,56.0464729 Z M176.848937,24.908295 C176.848937,38.6650348 165.697814,49.8191831 151.941507,49.8191831 C138.183903,49.8191831 127.032348,38.6650348 127.032348,24.908295 C127.032348,11.1524196 138.183903,0 151.941507,0 C165.697814,0 176.848937,11.1524196 176.848937,24.908295 L176.848937,24.908295 Z" id="Shape"></path>
        </g>
    </g>
</svg>