<?xml version="1.0" encoding="UTF-8"?>
<svg width="200px" height="200px" viewBox="0 0 200 200" version="1.1" xmlns="http://www.w3.org/2000/svg" xmlns:xlink="http://www.w3.org/1999/xlink">
    <!-- Generator: Sketch 53.2 (72643) - https://sketchapp.com -->
    <title>box</title>
    <desc>Created with Sketch.</desc>
    <g id="Page-1" stroke="none" stroke-width="1" fill="none" fill-rule="evenodd">
        <g id="box" fill="#8599B7" fill-rule="nonzero">
            <path d="M166.846875,200 L33.153125,200 C14.8429687,200 0,185.157031 0,166.846875 L0,33.153125 C0,14.8429687 14.8429687,0 33.153125,0 L166.846875,0 C185.157031,0 200,14.8429687 200,33.153125 L200,166.846875 C200,185.157031 185.157031,200 166.846875,200 Z M102.359375,84.2078125 C91.9539063,84.2078125 82.8992188,90.0609375 78.3390625,98.6539063 C73.7773438,90.0609375 64.7273438,84.2078125 54.3148438,84.2078125 C48.2007813,84.2078125 42.5523438,86.2304688 37.9945313,89.6460938 L37.9945313,66.7375 C37.940625,63.7773438 35.5265625,61.4078125 32.55625,61.4078125 C29.5859375,61.4078125 27.1953125,63.7773438 27.1273438,66.7375 L27.1273438,111.848438 L27.1328125,111.848438 C27.3726563,126.660156 39.4429688,138.592188 54.3148438,138.592188 C64.7273438,138.592188 73.7773438,132.733594 78.3390625,124.149219 C82.8992188,132.733594 91.9539063,138.592188 102.359375,138.592188 C117.371875,138.592188 129.55,126.41875 129.55,111.394531 C129.55,96.378125 117.371875,84.2078125 102.359375,84.2078125 Z M54.3148438,127.705469 C45.30625,127.705469 37.9945313,120.407813 37.9945313,111.398438 C37.9945313,102.392188 45.30625,95.09375 54.3148438,95.09375 C63.3226563,95.09375 70.61875,102.392188 70.61875,111.394531 C70.61875,120.405469 63.3226563,127.705469 54.3148438,127.705469 Z M102.359375,127.705469 C93.3484375,127.705469 86.0421875,120.405469 86.0421875,111.394531 C86.0421875,102.392188 93.3484375,95.09375 102.359375,95.09375 C111.366406,95.09375 118.66875,102.392188 118.66875,111.394531 C118.66875,120.405469 111.366406,127.705469 102.359375,127.705469 Z M171.742188,129.488281 L156.9625,111.359375 L171.760156,93.1953125 C173.63125,90.7992188 173.094531,87.453125 170.511719,85.6757813 C167.925781,83.8828125 164.297656,84.3421875 162.296875,86.6671875 L162.296875,86.6640625 L149.565625,102.267188 L136.846094,86.6640625 L136.846094,86.6671875 C134.865625,84.3421875 131.214844,83.8828125 128.636719,85.6757813 C126.058594,87.4546875 125.519531,90.7992188 127.4,93.1953125 L127.394531,93.1953125 L142.166406,111.359375 L127.394531,129.488281 L127.4,129.488281 C125.519531,131.892188 126.058594,135.227344 128.636719,137.0125 C131.214844,138.797656 134.865625,138.342969 136.846094,136.014844 L149.565625,120.433594 L162.278906,136.014844 C164.282031,138.342969 167.908594,138.797656 170.494531,137.0125 C173.078125,135.227344 173.617187,131.892188 171.742188,129.488281 Z" id="Combined-Shape"></path>
        </g>
    </g>
</svg>