<?xml version="1.0" encoding="UTF-8"?>
<svg width="250px" height="196px" viewBox="0 0 250 196" version="1.1" xmlns="http://www.w3.org/2000/svg" xmlns:xlink="http://www.w3.org/1999/xlink">
    <!-- Generator: Sketch 53.2 (72643) - https://sketchapp.com -->
    <title>cnbc</title>
    <desc>Created with Sketch.</desc>
    <g id="Page-1" stroke="none" stroke-width="1" fill="none" fill-rule="evenodd">
        <g id="cnbc" fill="#8599B7" fill-rule="nonzero">
            <path d="M32.9757576,39.7853832 C22.9925134,48.8228164 19.3590018,69.3005348 37.3557932,81.2713012 L109.152941,130.529412 L74.34082,50.7743316 C67.0459893,31.9540107 47.0894831,27.8499109 32.9757576,39.7853832" id="path3115"></path>
            <path d="M94.7796791,1.00855615 C83.1090909,1.24634581 65.5843137,15.1440285 73.3832442,36.3661319 L109.388592,121.280927 L122.040642,31.9668449 C124.968271,9.77433155 108.173619,-0.470231729 94.7796791,1.00855615" id="path3117"></path>
            <path d="M127.65918,28.5604278 L134.46738,28.5604278 C134.46738,28.5604278 138.10303,28.5604278 138.597861,30.2755793 C135.918717,32.4634581 128.626381,32.7376114 129.594652,44.4242424 L141.039572,121.268806 L176.79893,36.1311943 C184.113369,17.1215686 168.760428,1.2456328 155.141533,0.760427807 C154.505526,0.714795009 153.867023,0.67771836 153.206061,0.67771836 C140.982531,0.677361854 126.974688,9.56114082 127.65918,28.5604278" id="path3119"></path>
            <path d="M175.359358,51.4976827 L141.536898,130.2959 L213.313012,80.7778966 C229.858467,69.0424242 227.190018,50.2802139 217.928342,41.0060606 C214.045633,36.6409982 206.916578,33.2691622 199.364706,33.2691622 C190.442781,33.2673797 180.894474,37.9996435 175.359358,51.4976827" id="path3121"></path>
            <path d="M205.276649,91.9896613 L137.870232,139.072371 L220.867023,139.072371 C237.894831,139.072371 248.837433,121.515865 243.972906,105.404635 C240.714795,95.2777184 231.075579,87.3283422 219.887344,87.316934 C215.177897,87.3187166 210.183601,88.7372549 205.276649,91.9896613" id="path3123"></path>
            <path d="M31.0417112,139.072371 L112.813904,139.072371 L45.3903743,91.9896613 C29.8139037,81.9818182 12.2994652,87.8377897 5.97647059,104.445633 C0.616755793,123.457041 13.9989305,139.072371 31.0417112,139.072371" id="path3125"></path>
            <path d="M0.331907308,173.147237 C0.331907308,181.165775 6.88698752,195.761497 31.9165775,195.761497 C54.9932264,195.761497 62.2816399,185.172549 62.2816399,180.317291 L44.4160428,180.317291 C44.4160428,180.317291 43.5675579,186.731907 33.4894831,186.731907 C23.4049911,186.731907 20.6777184,178.314439 20.6777184,173.447059 C20.6777184,168.598217 23.4049911,160.635294 33.4894831,160.635294 C43.5675579,160.635294 44.4160428,166.219964 44.4160428,166.219964 L62.2816399,166.219964 C62.2816399,161.359002 56.9340463,150.91943 31.9165775,150.91943 C6.88698752,150.91943 0.331907308,166.463815 0.331907308,173.147237" id="Path"></path>
            <path d="M187.6959,173.147237 C187.6959,181.165775 194.257754,195.761497 219.28057,195.761497 C242.35508,195.761497 249.646346,185.172549 249.646346,180.317291 L231.793226,180.317291 C231.793226,180.317291 230.94082,186.731907 220.86025,186.731907 C210.774688,186.731907 208.044563,178.314439 208.044563,173.447059 C208.044563,168.598217 210.774688,160.635294 220.86025,160.635294 C230.94082,160.635294 231.793226,166.219964 231.793226,166.219964 L249.646346,166.219964 C249.646346,161.359002 244.304456,150.91943 219.28057,150.91943 C194.258111,150.91943 187.6959,166.463815 187.6959,173.147237" id="Path"></path>
            <polyline id="Path" points="111.108378 151.668093 111.108378 178.812834 90.3165775 151.668093 66.9276292 151.668093 66.9276292 194.663102 82.9622103 194.663102 82.9622103 167.206417 103.390018 194.663102 127.144029 194.663102 127.144029 151.668093 111.108378 151.668093"></polyline>
            <path d="M162.490553,184.391444 L162.490553,184.448128 L149.130125,184.448128 L149.130125,176.553654 L162.490553,176.553654 L162.490553,176.579323 C165.343316,176.579323 167.648841,178.33262 167.648841,180.491622 C167.648841,182.645276 165.343316,184.391444 162.490553,184.391444 L162.490553,184.391444 Z M149.252763,160.030303 L162.126203,160.030303 L162.126203,160.048485 C164.307308,160.048485 166.075936,161.483422 166.075936,163.249554 C166.075936,165.02246 164.307308,166.44492 162.126203,166.44492 L162.126203,166.464171 L149.252763,166.464171 L149.252763,160.030303 Z M175.612478,171.805348 C178.531551,171.805348 184.634938,168.416756 184.634938,161.85205 C184.634938,152.5041 167.227807,151.668093 164.557576,151.668093 L132.485561,151.668093 L132.485561,194.663102 L164.557576,194.663102 C179.982888,194.663102 186.179323,189.790018 186.179323,181.652406 C186.179323,173.514795 175.612478,171.805348 175.612478,171.805348 Z" id="Shape"></path>
        </g>
    </g>
</svg>