<?xml version="1.0" encoding="UTF-8"?>
<svg width="457px" height="175px" viewBox="0 0 457 175" version="1.1" xmlns="http://www.w3.org/2000/svg" xmlns:xlink="http://www.w3.org/1999/xlink">
    <!-- Generator: Sketch 53.2 (72643) - https://sketchapp.com -->
    <title>ember</title>
    <desc>Created with Sketch.</desc>
    <g id="Page-1" stroke="none" stroke-width="1" fill="none" fill-rule="evenodd">
        <g id="ember" fill="#8599B7" fill-rule="nonzero">
            <path d="M315.443491,130.410681 C315.443491,130.410681 313.327893,122.969615 321.206669,108.598146 C329.012492,94.2996291 335.140428,102.105453 335.140428,102.105453 C335.140428,102.105453 341.851977,109.400614 334.192056,120.270406 C326.532137,131.213148 315.443491,130.410681 315.443491,130.410681 M255.258404,140.76981 C246.285356,164.260232 224.472821,154.70357 224.472821,154.70357 C224.472821,154.70357 221.992466,146.314133 229.068774,122.750761 C236.14508,99.260339 252.778049,108.452243 252.778049,108.452243 C252.778049,108.452243 264.231454,117.279389 255.258404,140.76981 M238.990193,42.3580757 C238.990193,42.3580757 252.559194,6.97654009 255.842017,24.1931223 C259.124841,41.4097046 227.390886,92.6217418 227.390886,92.6217418 C227.682693,81.0953857 238.990193,42.3580757 238.990193,42.3580757 M44.9388851,130.410681 C45.522498,107.649776 60.4046284,97.7283549 65.5841934,102.689065 C70.7637585,107.649776 68.8670163,118.373663 59.0914993,125.085212 C49.3889339,131.796762 44.9388851,130.410681 44.9388851,130.410681 M456.094214,126.690148 C455.364697,119.030228 448.434293,121.875341 448.434293,121.875341 C448.434293,121.875341 437.345647,130.483632 427.57013,129.535261 C417.867564,128.513938 420.931532,106.774356 420.931532,106.774356 C420.931532,106.774356 423.047131,86.7856122 417.283951,85.1077249 C411.520774,83.4298376 404.444468,90.2872901 404.444468,90.2872901 C404.444468,90.2872901 395.61732,100.062807 391.459078,112.464582 L390.291854,112.82934 C390.291854,112.82934 391.604982,91.0168056 390.072997,86.0560958 C388.905773,83.5757408 378.400738,83.7945953 376.722851,88.171693 C374.972013,92.5487897 366.582577,123.115518 365.998963,135.955004 C365.998963,135.955004 349.584849,149.888763 335.21338,152.223215 C320.84191,154.484715 317.413185,145.511666 317.413185,145.511666 C317.413185,145.511666 356.4423,134.641874 355.05622,103.491533 C353.743091,72.3411914 323.614071,83.8675474 320.185346,86.4208535 C316.902524,88.9012094 299.321183,99.4791934 294.141619,128.878697 C293.995715,129.900019 293.630956,134.277116 293.630956,134.277116 C293.630956,134.277116 278.529972,144.417392 270.140535,147.116602 C270.140535,147.116602 293.630956,107.576823 264.960971,89.5577737 C251.975581,81.7519502 241.616453,98.1660648 241.616453,98.1660648 C241.616453,98.1660648 280.426714,54.9787057 271.818423,18.4299444 C267.733132,1.06745887 259.051889,-0.829283192 251.027211,2.01582995 C238.917241,6.83063681 234.32129,13.8339923 234.32129,13.8339923 C234.32129,13.8339923 218.636691,36.5948977 214.98911,70.4444492 C211.341529,104.294001 206.016062,145.146908 206.016062,145.146908 C206.016062,145.146908 198.574995,152.442069 191.717544,152.806828 C184.860092,153.171586 187.92406,132.380375 187.92406,132.380375 C187.92406,132.380375 193.249529,100.64642 192.88477,95.3209512 C192.520011,89.9954836 192.155254,87.0774188 185.808462,85.1806761 C179.534623,83.2839343 172.60422,91.3086122 172.60422,91.3086122 C172.60422,91.3086122 154.439267,118.811373 152.907283,123.042567 L151.958911,124.793406 L151.01054,123.62618 C151.01054,123.62618 163.850025,86.1290479 151.594153,85.6183859 C139.338281,85.0347728 131.313603,98.9685324 131.313603,98.9685324 C131.313603,98.9685324 117.379843,122.313051 116.79623,124.939309 L115.847859,123.772084 C115.847859,123.772084 121.611038,96.6340808 120.443811,89.9225315 C119.276586,83.2109831 113.002746,84.5970638 113.002746,84.5970638 C113.002746,84.5970638 104.978068,83.648692 102.862471,88.8282573 C100.746874,94.0078225 93.086954,128.222132 92.1385831,139.091923 C92.1385831,139.091923 72.0768875,153.463392 58.8726445,153.609296 C45.6684013,153.82815 47.0544821,145.219859 47.0544821,145.219859 C47.0544821,145.219859 95.4214056,128.659841 82.2171624,95.9775164 C76.3080815,87.5880798 69.3776777,84.9618216 59.6751123,85.1077249 C49.8995951,85.3265793 38.446191,91.235661 30.567416,108.817001 C26.8468834,117.206438 25.3148993,125.158164 25.3148993,131.213148 L25.3148993,131.213148 C25.3148993,131.213148 16.2688986,132.963987 11.6729465,129.097551 C7.07699437,125.304068 4.45073615,129.097551 4.45073615,129.097551 C4.45073615,129.097551 -3.57394203,140.550956 4.23188131,143.614924 C12.0377046,146.678892 24.1476734,149.524005 24.1476734,149.524005 L24.1476734,149.524005 C25.2419478,154.484715 28.5247707,162.582345 38.0814329,169.804555 C52.3799502,180.674347 79.9556625,168.126668 79.9556625,168.126668 L91.2631634,161.415119 C91.2631634,161.415119 91.6279221,171.555394 99.8714545,173.087378 C108.114988,174.619362 111.543714,172.941475 125.842231,138.216504 C134.231668,120.416309 134.815281,121.36468 134.815281,121.36468 L135.763652,121.145824 C135.763652,121.145824 129.270958,155.14128 131.751313,164.333184 C134.231668,173.525088 145.101459,172.576716 145.101459,172.576716 C145.101459,172.576716 151.01054,174.692314 155.825347,157.840489 C160.640154,140.988666 169.759106,123.407325 169.759106,123.407325 L170.926332,123.407325 C170.926332,123.407325 166.913993,157.256877 173.04193,168.345523 C179.169865,179.434169 195.000366,171.628346 195.000366,171.628346 C195.000366,171.628346 206.089012,165.792216 207.839852,164.041377 C207.839852,164.041377 220.971144,175.130023 239.573807,173.087378 C281.083279,164.916796 295.819504,153.82815 295.819504,153.82815 C295.819504,153.82815 302.968764,171.847201 325.000152,173.525088 C350.241414,175.42183 364.029269,159.518377 364.029269,159.518377 C364.029269,159.518377 363.810415,169.804555 372.637561,173.452136 C381.464706,177.099716 387.373788,157.840489 387.373788,157.840489 L402.110015,118.373663 L403.423144,118.373663 C403.423144,118.373663 404.152661,143.614924 418.742984,147.846117 C433.406259,152.00436 452.300729,137.414036 452.300729,137.414036 C452.300729,137.414036 456.896682,134.350068 456.094214,126.690148" id="Shape"></path>
        </g>
    </g>
</svg>