<?xml version="1.0" encoding="UTF-8"?>
<svg width="769px" height="200px" viewBox="0 0 769 200" version="1.1" xmlns="http://www.w3.org/2000/svg" xmlns:xlink="http://www.w3.org/1999/xlink">
    <!-- Generator: Sketch 53.2 (72643) - https://sketchapp.com -->
    <title>forbes</title>
    <desc>Created with Sketch.</desc>
    <g id="Page-1" stroke="none" stroke-width="1" fill="none" fill-rule="evenodd">
        <g id="forbes" transform="translate(0.000000, 0.000000)" fill="#8599B7" fill-rule="nonzero">
            <path d="M190.938856,199.39542 C177.542271,197.444564 165.825155,191.774033 156.877425,182.911298 C149.413884,175.518663 144.574812,167.388624 141.007674,156.248812 C135.438486,138.856796 135.43653,116.496088 141.002702,99.4587845 C146.396989,82.9475967 158.542646,68.5753591 173.407552,61.1133757 C193.993271,50.7796204 222.966956,51.4287475 242.032691,62.6508564 C259.191249,72.7503978 269.585105,90.695895 272.476669,115.213873 C273.359564,122.700077 272.786724,138.511829 271.396138,145.038895 C265.704691,171.753144 249.128751,190.414575 224.843757,197.448227 C222.226856,198.206155 218.168812,199.092906 215.825878,199.418773 C210.868028,200.108348 195.737044,200.094149 190.938851,199.395403 L190.938856,199.39542 Z M198.970519,189.481287 C202.627508,191.140271 209.320569,191.047834 213.104276,189.286077 C223.541613,184.426293 229.137182,170.442304 230.961348,144.659122 C233.503442,108.728685 227.611503,78.7398508 215.938099,68.1936298 C210.681939,63.4450055 202.507387,61.8905691 196.608812,64.5180552 C188.003354,68.3513094 182.476541,79.6989503 179.860182,98.9062983 C177.997072,112.583862 178.190166,140.49758 180.234724,153.049945 C183.459961,172.850989 189.895282,185.364326 198.970519,189.481287 Z M459.436011,198.071171 C445.987149,200.088221 424.483127,198.494088 402.90995,193.88079 L397.212624,192.662448 L397.63895,182.110337 C398.357945,164.314425 398.190901,43.7494934 397.437552,36.7516039 C396.492149,27.9697254 395.051199,23.7616094 391.861072,20.4662006 C389.256956,17.7761343 388.009917,17.2269575 381.006138,15.6858249 C378.968873,15.2375431 378.810486,15.0631619 378.689608,13.1354326 C378.581144,11.4056536 378.758602,11.0196149 379.771414,10.7821232 C380.437773,10.6258691 392.419436,8.3812116 406.397337,5.79399061 C420.375238,3.20676961 432.80916,0.890007182 434.028276,0.645631492 L436.244845,0.201316575 L436.037061,32.4267365 C435.855657,60.5609503 435.932785,64.6521547 436.644564,64.6521547 C437.092972,64.6521547 439.618514,63.6405746 442.256873,62.4041934 C452.843707,57.4430387 466.768033,55.6801657 477.590133,57.9308729 C492.017265,60.9313315 504.723552,71.1205138 512.152713,85.6466298 C517.636459,96.3689061 519.797398,105.011983 520.302525,118.243315 C521.283635,143.942481 514.025116,164.794569 498.955221,179.569282 C488.529707,189.79058 476.219232,195.554033 459.436011,198.071171 Z M450.363392,188.400829 C454.377083,187.639646 457.495193,186.042309 460.84295,183.032392 C469.23342,175.488635 475.541724,159.914762 478.022779,140.619006 C479.033304,132.759878 478.897204,114.851779 477.777094,108.291994 C474.747729,90.550895 468.237757,78.8907182 458.740862,74.1956961 C454.801354,72.2480994 454.193851,72.1107182 449.521171,72.1107182 C446.179276,72.1107182 443.304376,72.4685138 440.859912,73.1886575 L437.200934,74.2665912 L436.930713,94.4593757 C436.584564,120.325923 437.426105,185.08363 438.132541,186.941696 C438.583359,188.127448 439.079707,188.378851 441.316508,188.554403 C446.581685,188.967635 447.452586,188.952851 450.363392,188.400829 Z M611.630773,198.053133 C604.782486,199.163751 594.553978,199.068669 587.612818,197.829867 C560.22337,192.941641 541.159547,173.858608 534.717061,144.880707 C533.702807,140.31853 533.523912,137.774807 533.523912,127.911829 C533.523912,117.975315 533.699271,115.516431 534.745348,110.784757 C538.216122,95.085221 543.903138,83.9155691 553.488232,73.9725414 C565.510276,61.5016133 581.051271,55.259895 600.080055,55.259895 C608.11105,55.259895 614.204641,56.2497127 620.646077,58.6005304 C636.829669,64.5068177 648.179227,79.1891768 652.478011,99.7799061 C653.547127,104.900807 654.73989,114.668133 654.73989,118.301856 L654.73989,119.900779 L614.270276,119.909232 C591.879392,119.913912 573.457017,120.135287 573.031436,120.404785 C572.407017,120.800188 572.337072,122.124635 572.659724,127.440525 C573.428177,140.100646 576.004807,149.952177 580.753425,158.385845 C584.233149,164.565867 591.195414,171.436674 597.005083,174.423906 C605.762762,178.926961 615.240608,180.644287 625.515746,179.589851 C634.312431,178.687144 638.065414,177.419072 645.552541,172.819762 C650.255028,169.931028 650.175414,169.927602 652.017127,173.097901 C652.707238,174.285851 651.061326,176.553735 646.098453,181.253326 C637.038287,189.832785 624.432265,195.977072 611.630773,198.053127 Z M604.407624,109.059845 L614.020055,108.725436 L613.674033,101.897564 C612.453702,77.8203978 606.561768,64.6628398 597.005083,64.6733757 C586.618785,64.6848122 578.31884,78.0376796 574.867956,100.287514 C574.443757,103.02232 574.092265,106.265414 574.086796,107.494387 L574.076851,109.728884 L584.435967,109.561569 C590.133481,109.469547 599.120718,109.243773 604.407569,109.059845 L604.407624,109.059845 Z M697.557569,199.650652 C687.714309,198.59558 672.049116,195.165934 666.83326,192.924044 L664.285691,191.829061 L663.938287,179.207459 C663.747238,172.265575 663.526851,162.983934 663.448564,158.581586 L663.306188,150.57732 L664.833039,149.84553 C665.672762,149.443044 667.367624,149.067066 668.599282,149.010017 L670.838729,148.906298 L672.746685,153.602249 C680.190276,171.922818 688.92011,181.800961 700.322486,184.805331 C704.67221,185.951425 712.827624,185.961503 716.047735,184.824779 C725.067845,181.640591 730.014144,174.810851 730.057182,165.480906 C730.108011,154.431376 724.03453,149.122287 701.089337,140.159414 C686.873867,134.606558 681.915028,131.74842 676.010608,125.704751 C669.641271,119.185182 666.584199,111.763972 666.010276,101.428254 C665.31674,88.9385414 669.225856,78.409547 677.88768,69.4371215 C686.604475,60.407768 697.920663,55.5140276 713.335967,54.107311 C726.910829,52.8685431 747.747956,55.7476519 758.665304,60.370558 L760.657072,61.2139503 L761.012265,72.463453 C761.207624,78.650674 761.409669,86.9448011 761.461271,90.8948453 L761.555083,98.0767348 L758.880276,99.0698674 C754.651215,100.640094 754.373481,100.443304 752.020939,94.2101878 C745.42674,76.7384862 737.765249,68.4713923 725.827348,65.9460829 C718.551878,64.4070552 712.47453,66.0616133 708.057293,70.7840055 C704.61116,74.4681989 703.26663,77.7399061 702.940829,83.233895 C702.587901,89.1865414 703.651713,92.4040552 707.288729,96.3834807 C711.771436,101.288315 719.115635,105.522215 733.745414,111.635691 C751.664309,119.123624 760.214309,125.480646 764.86232,134.771575 C767.880994,140.805514 768.735635,145.624945 768.431989,154.901481 C768.204088,161.862403 767.981326,163.293276 766.39768,167.967094 C761.234475,183.205039 749.578564,193.236912 731.572265,197.940138 C725.473204,199.53321 724.602597,199.615641 712.474696,199.748425 C705.485746,199.824945 698.773039,199.780967 697.557569,199.650674 L697.557569,199.650652 Z M0.734353591,196.330453 C0.275002762,196.145099 0.0437458564,194.768199 0.0437458564,192.21858 C0.0437458564,187.640867 -0.248024862,187.845829 8.60728177,186.202856 C15.3990751,184.94274 17.828963,183.654133 20.828153,179.721928 C26.6432265,172.097856 27.9001105,157.418055 27.9131381,96.9725967 C27.9253757,40.2071453 26.8318122,28.2657199 20.8177061,19.4923718 C18.1494282,15.5999022 13.6527862,13.4863055 6.12109392,12.5843994 L0.31998895,11.8897254 L0.159994475,7.36085249 L0,2.83197956 L1.81745304,2.50811768 C2.81705193,2.32999613 37.9374199,2.25473094 79.8627182,2.34085801 L156.090536,2.49746022 L156.447945,4.70740497 C156.644519,5.92287459 156.967155,18.3902392 157.164912,32.4126591 L157.52447,57.9079613 L153.594182,59.1017514 C147.678017,60.8987348 147.713812,60.9206243 145.05242,53.8786757 C138.515238,36.581521 131.01916,26.6146204 120.761978,21.5817088 C113.687641,18.110532 110.416691,17.6908304 90.4382818,17.6908304 L73.0514309,17.6908304 L72.7517127,20.5913829 C72.1896575,26.0306315 71.3021823,61.019895 71.3083315,77.4974586 L71.3144641,93.9339227 L76.4249613,93.9046409 C79.2357348,93.8885083 84.778232,93.6816851 88.7416243,93.4449779 C94.699674,93.0891381 96.4699558,92.7728619 98.9626188,91.6189171 C105.087077,88.783674 109.253674,82.5435691 111.806304,72.3835746 L113.124133,67.1383425 L117.633663,66.9778785 L122.143193,66.8174144 L122.143193,100.011271 L122.143193,133.205127 L117.631934,133.044663 L113.120674,132.884199 L111.840166,127.63558 C109.434215,117.773939 104.803989,110.713912 99.082442,108.183 C96.440105,107.014171 89.9018895,106.349862 77.2536906,105.965127 L71.3144641,105.784464 L71.3144641,118.254818 C71.3144641,131.844138 72.0615249,150.228022 73.0191934,160.205254 C74.354232,174.114083 77.9085249,181.79995 84.2916906,184.581105 C85.5105691,185.112177 89.3669503,185.974796 92.8614254,186.498033 C96.3559006,187.021276 99.6500994,187.674055 100.181867,187.948657 C101.530459,188.645066 101.610044,195.848619 100.274801,196.361 C99.2298453,196.761989 1.72965635,196.732066 0.734353591,196.330448 L0.734353591,196.330453 Z M273.082779,196.226105 C272.578856,195.905028 272.414199,194.63084 272.530293,191.950762 L272.69568,188.132818 L274.629381,187.721044 C275.692917,187.494569 277.977304,187.045044 279.705801,186.722099 C285.055227,185.72263 288.129514,182.818923 289.85937,177.131923 C291.268669,172.498751 291.889923,157.676481 291.922354,127.911823 C291.962022,91.5085746 291.203663,82.9118343 287.522829,78.0385801 C285.527906,75.3973923 284.089851,74.6462818 279.24926,73.717221 C276.86026,73.2586961 274.346232,72.7670718 273.66253,72.6247238 C272.555365,72.3942099 272.419436,72.0334917 272.419436,69.3259171 C272.419436,66.693116 272.585945,66.217453 273.66253,65.7747459 C275.316094,65.094779 330.048166,54.1549171 331.796475,54.1549171 L333.16042,54.1549171 L332.892956,62.3040884 C332.745845,66.7861326 332.510663,73.3123757 332.370326,76.8068508 L332.115166,83.160442 L334.097967,79.5847403 C340.445398,68.1380663 347.563796,61.0324586 357.029414,56.6944917 C362.225558,54.3131713 365.692481,53.6024326 372.112193,53.6024326 C379.72558,53.6024326 387.336564,56.0865912 387.336564,58.5715359 C387.336564,60.2424144 373.92295,95.6851381 373.183149,95.9690221 C372.822254,96.1075138 370.203055,95.1056906 367.362707,93.7427624 C361.439171,90.9003646 355.881823,89.5104751 350.487166,89.5221989 C343.769238,89.5367845 336.264895,92.0112873 333.301989,95.1888619 C332.034624,96.5480442 332.028657,96.629768 331.713779,116.92863 C331.40195,137.030801 332.071878,161.551199 333.202359,171.41316 C334.165425,179.814685 336.397746,183.951006 341.008271,185.876923 C342.546392,186.519431 352.277945,187.852762 355.453724,187.85611 C355.694409,187.856365 355.818718,189.78337 355.729967,192.138343 L355.568608,196.42011 L314.68463,196.551807 C292.198442,196.624238 273.477608,196.477674 273.082779,196.226105 L273.082779,196.226105 Z" id="path2995"></path>
        </g>
    </g>
</svg>