<?xml version="1.0" encoding="UTF-8"?>
<svg width="737px" height="200px" viewBox="0 0 737 200" version="1.1" xmlns="http://www.w3.org/2000/svg" xmlns:xlink="http://www.w3.org/1999/xlink">
    <!-- Generator: Sketch 53.2 (72643) - https://sketchapp.com -->
    <title>github</title>
    <desc>Created with Sketch.</desc>
    <g id="Page-1" stroke="none" stroke-width="1" fill="none" fill-rule="evenodd">
        <g id="github" fill="#8599B7" fill-rule="nonzero">
            <path d="M142.008863,85.3416509 L80.0510737,85.3416509 C78.4528463,85.3416509 77.1555338,86.6404984 77.1555338,88.2387258 L77.1555338,118.53135 C77.1555338,120.129577 78.4528463,121.42996 80.0510737,121.42996 L104.220998,121.42996 L104.220998,159.065832 C104.220998,159.065832 98.7937806,160.915846 83.7894823,160.915846 C66.087695,160.915846 41.3589281,154.447708 41.3589281,100.071134 C41.3589281,45.6822784 67.1086568,38.5263351 91.2831876,38.5263351 C112.209064,38.5263351 121.224232,42.2110086 126.960041,43.9857934 C128.762461,44.5384945 130.429776,42.7437511 130.429776,41.1439888 L137.34161,11.8753966 C137.34161,11.1277148 137.088288,10.2265051 136.234672,9.61392804 C133.905652,7.95275427 119.693558,-1.42108547e-14 83.7894823,-1.42108547e-14 C42.4274835,-1.42108547e-14 0,17.5973879 0,102.191357 C0,186.788396 48.5762827,199.394587 89.5099378,199.394587 C123.402796,199.394587 143.963275,184.910748 143.963275,184.910748 C144.81075,184.442488 144.902868,183.258786 144.902868,182.715296 L144.902868,88.2387258 C144.902868,86.6404984 143.60709,85.3416509 142.008863,85.3416509 Z M461.1446,10.5888313 C461.1446,8.97678653 459.867247,7.67640373 458.26902,7.67640373 L423.382837,7.67640373 C421.789213,7.67640373 420.493439,8.97678653 420.493439,10.5888313 C420.493439,10.5965077 420.502647,78.0076144 420.502647,78.0076144 L366.124541,78.0076144 L366.124541,10.5888313 C366.124541,8.97678653 364.841045,7.67640373 363.245889,7.67640373 L328.361239,7.67640373 C326.773761,7.67640373 325.479518,8.97678653 325.479518,10.5888313 L325.479518,193.138318 C325.479518,194.748827 326.773761,196.059957 328.361239,196.059957 L363.245889,196.059957 C364.841045,196.059957 366.124541,194.748827 366.124541,193.138318 L366.124541,115.055474 L420.502647,115.055474 C420.502647,115.055474 420.407463,193.132177 420.407463,193.138318 C420.407463,194.748827 421.701704,196.059957 423.296859,196.059957 L458.26595,196.059957 C459.864178,196.059957 461.141531,194.748827 461.1446,193.138318 L461.1446,10.5888313 Z M207.728091,34.9951892 C207.728091,22.4335223 197.656649,12.282246 185.231622,12.282246 C172.818878,12.282246 162.73976,22.4335223 162.73976,34.9951892 C162.73976,47.5430388 172.818878,57.7219502 185.231622,57.7219502 C197.656649,57.7219502 207.728091,47.5430388 207.728091,34.9951892 Z M204.95998,154.725594 L204.95998,70.4601747 C204.95998,68.8604121 203.668809,67.5523528 202.073652,67.5523528 L167.298007,67.5523528 C165.70285,67.5523528 164.27504,69.198174 164.27504,70.7979363 L164.27504,191.524738 C164.27504,195.072771 166.485845,196.127509 169.347607,196.127509 L200.679617,196.127509 C204.117111,196.127509 204.95998,194.440236 204.95998,191.467932 L204.95998,154.725594 Z M594.477596,67.5523528 L559.858547,67.5523528 C558.271063,67.5523528 556.978364,68.8604121 556.978364,70.4709217 L556.978364,159.980859 C556.978364,159.980859 548.184271,166.415222 535.700904,166.415222 C523.219073,166.415222 519.905938,160.75157 519.905938,148.5292 L519.905938,70.4709217 C519.905938,68.8604121 518.616302,67.5523528 517.027283,67.5523528 L481.892383,67.5523528 C480.306443,67.5523528 479.007593,68.8604121 479.007593,70.4709217 L479.007593,154.440032 C479.007593,190.743279 499.24106,199.624879 527.075695,199.624879 C549.909928,199.624879 568.321016,187.009478 568.321016,187.009478 C568.321016,187.009478 569.19766,193.657243 569.593761,194.446377 C569.991401,195.23244 571.02464,196.026181 572.140791,196.026181 L594.492945,195.927922 C596.078891,195.927922 597.377738,194.616793 597.377738,193.01396 L597.366991,70.4709217 C597.366991,68.8604121 596.072748,67.5523528 594.477596,67.5523528 Z M674.240032,166.484309 C662.232606,166.118912 654.087937,160.6702 654.087937,160.6702 L654.087937,102.860739 C654.087937,102.860739 662.123594,97.9355588 671.981633,97.0543075 C684.448117,95.9381586 696.46015,99.7042019 696.46015,129.44259 C696.46015,160.802235 691.039073,166.990951 674.240032,166.484309 Z M687.894819,63.6312459 C668.232479,63.6312459 654.858647,72.4038401 654.858647,72.4038401 L654.858647,10.5888313 C654.858647,8.97678653 653.57055,7.67640373 651.979996,7.67640373 L616.995558,7.67640373 C615.405006,7.67640373 614.112299,8.97678653 614.112299,10.5888313 L614.112299,193.138318 C614.112299,194.748827 615.405006,196.059957 617.000161,196.059957 L641.272953,196.059957 C642.366068,196.059957 643.193586,195.496509 643.804626,194.509324 C644.407993,193.528279 645.278499,186.092914 645.278499,186.092914 C645.278499,186.092914 659.584245,199.649443 686.665059,199.649443 C718.457653,199.649443 736.690647,183.522855 736.690647,127.25328 C736.690647,70.9837053 707.570977,63.6312459 687.894819,63.6312459 Z M305.365806,67.2391554 L279.196944,67.2391554 C279.196944,67.2391554 279.157027,32.6753801 279.157027,32.6677036 C279.157027,31.3596445 278.483039,30.705615 276.970787,30.705615 L241.309286,30.705615 C239.922928,30.705615 239.178317,31.3151214 239.178317,32.6477452 L239.178317,68.3737278 C239.178317,68.3737278 221.307649,72.6878669 220.099383,73.0363755 C218.895722,73.3848845 218.009866,74.4948921 218.009866,75.8183043 L218.009866,98.2687147 C218.009866,99.8838301 219.299502,101.185748 220.894659,101.185748 L239.178317,101.185748 L239.178317,155.193855 C239.178317,195.309204 267.316942,199.250271 286.305295,199.250271 C294.981167,199.250271 305.359663,196.463735 307.073036,195.8312 C308.109351,195.45045 308.711181,194.377289 308.711181,193.213547 L308.740351,168.51702 C308.740351,166.906511 307.380094,165.603058 305.847883,165.603058 C304.32335,165.603058 300.422201,166.223311 296.405908,166.223311 C283.552537,166.223311 279.196944,160.246463 279.196944,152.510183 C279.196944,144.780045 279.19541,101.185748 279.19541,101.185748 L305.365806,101.185748 C306.960961,101.185748 308.252134,99.8838301 308.252134,98.2687147 L308.252134,70.1485125 C308.252134,68.5380029 306.960961,67.2391554 305.365806,67.2391554 Z" id="Shape"></path>
        </g>
    </g>
</svg>