<?xml version="1.0" encoding="UTF-8"?>
<svg width="178px" height="200px" viewBox="0 0 178 200" version="1.1" xmlns="http://www.w3.org/2000/svg" xmlns:xlink="http://www.w3.org/1999/xlink">
    <!-- Generator: Sketch 53.2 (72643) - https://sketchapp.com -->
    <title>nodejs-icon</title>
    <desc>Created with Sketch.</desc>
    <g id="Page-1" stroke="none" stroke-width="1" fill="none" fill-rule="evenodd">
        <g id="nodejs-icon" transform="translate(0.000000, 0.000000)" fill="#8599B7" fill-rule="nonzero">
            <path d="M88.5813142,199.628907 C85.8303419,199.628907 83.2627675,198.895313 80.878591,197.611527 L56.4866356,183.123071 C52.8186713,181.105691 54.6526543,180.372098 55.7530421,180.005302 C60.704793,178.35472 61.6217837,177.987922 66.7569334,175.053551 C67.3071266,174.686755 68.0407201,174.870154 68.5909147,175.236949 L87.2975273,186.424238 C88.0311211,186.791035 88.9481114,186.791035 89.4983066,186.424238 L162.674174,144.059262 C163.407768,143.692464 163.774564,142.958873 163.774564,142.041882 L163.774564,57.4953264 C163.774564,56.5783342 163.407768,55.8447423 162.674174,55.4779463 L89.4983066,13.2963672 C88.7647128,12.9295713 87.8477225,12.9295713 87.2975273,13.2963672 L14.1216577,55.4779463 C13.3880658,55.8447423 13.0212698,56.7617329 13.0212698,57.4953264 L13.0212698,142.041882 C13.0212698,142.775474 13.3880658,143.692464 14.1216577,144.059262 L34.1120586,155.613347 C44.9325511,161.115291 51.7182835,154.696356 51.7182835,148.277419 L51.7182835,64.8312519 C51.7182835,63.730864 52.6352741,62.6304746 53.9190608,62.6304746 L63.2723679,62.6304746 C64.3727573,62.6304746 65.4731452,63.5474653 65.4731452,64.8312519 L65.4731452,148.277419 C65.4731452,162.765875 57.5870251,171.20219 43.8321617,171.20219 C39.6140043,171.20219 36.3128375,171.20219 26.9595304,166.617236 L7.70272298,155.613347 C2.9343708,152.862373 5.68434189e-14,147.727225 5.68434189e-14,142.225279 L5.68434189e-14,57.6787237 C5.68434189e-14,52.1767796 2.9343708,47.0416299 7.70272298,44.2906579 L80.878591,1.92567994 C85.463546,-0.641893316 91.6990837,-0.641893316 96.2840388,1.92567994 L169.459907,44.2906579 C174.228259,47.0416299 177.16263,52.1767796 177.16263,57.6787237 L177.16263,142.225279 C177.16263,147.727225 174.228259,152.862373 169.459907,155.613347 L96.2840388,197.978322 C93.8998609,199.078712 91.1488893,199.628907 88.5813142,199.628907 L88.5813142,199.628907 Z M111.13929,141.491687 C79.0446097,141.491687 72.4422761,126.819833 72.4422761,114.348758 C72.4422761,113.248369 73.3592671,112.147981 74.6430533,112.147981 L84.1797592,112.147981 C85.2801474,112.147981 86.1971377,112.881572 86.1971377,113.981962 C87.6643232,123.702065 91.8824824,128.470417 111.322687,128.470417 C126.728134,128.470417 133.330468,124.985852 133.330468,116.732934 C133.330468,111.964582 131.496487,108.480017 107.471325,106.09584 C87.480926,104.07846 75.0098512,99.6769038 75.0098512,83.7212637 C75.0098512,68.8660121 87.480926,60.0628997 108.388318,60.0628997 C131.863282,60.0628997 143.417367,68.1324202 144.884552,85.7386436 C144.884552,86.2888381 144.701154,86.8390332 144.334358,87.3892277 C143.967562,87.7560235 143.417367,88.1228194 142.867172,88.1228194 L133.330468,88.1228194 C132.413478,88.1228194 131.496487,87.3892277 131.313088,86.4722367 C129.112311,76.3853377 123.426966,73.0841695 108.388318,73.0841695 C91.5156851,73.0841695 89.4983066,78.9529114 89.4983066,83.3544671 C89.4983066,88.6730145 91.8824824,90.3235986 114.623855,93.2579695 C137.18183,96.1923398 147.818923,100.410498 147.818923,116.182739 C147.635525,132.321779 134.430857,141.491687 111.13929,141.491687 L111.13929,141.491687 Z" id="Shape"></path>
        </g>
    </g>
</svg>