<?xml version="1.0" encoding="UTF-8"?>
<svg width="479px" height="200px" viewBox="0 0 479 200" version="1.1" xmlns="http://www.w3.org/2000/svg" xmlns:xlink="http://www.w3.org/1999/xlink">
    <!-- Generator: Sketch 53.2 (72643) - https://sketchapp.com -->
    <title>stripe</title>
    <desc>Created with Sketch.</desc>
    <g id="Page-1" stroke="none" stroke-width="1" fill="none" fill-rule="evenodd">
        <g id="stripe" fill="#8599B7" fill-rule="nonzero">
            <path d="M33.628245,78.0228452 C33.628245,72.8390447 37.8816199,70.8452751 44.9262721,70.8452751 C55.0280374,70.8452751 67.788162,73.9023884 77.8899273,79.352025 L77.8899273,48.1163032 C66.8577363,43.7300104 55.9584632,42.0020768 44.9262721,42.0020768 C17.9439252,42.0020768 0,56.0913811 0,79.6178608 C0,116.303219 50.5088265,110.454829 50.5088265,126.272066 C50.5088265,132.386293 45.192108,134.380063 37.748702,134.380063 C26.7165109,134.380063 12.6272066,129.860851 1.46209761,123.746625 L1.46209761,155.381101 C13.8234683,160.69782 26.317757,162.957424 37.748702,162.957424 C65.3956386,162.957424 84.4029076,149.266875 84.4029076,125.474559 C84.2699896,85.8650052 33.628245,92.9096573 33.628245,78.0228452 Z M123.480789,15.4184839 L91.0488058,22.330218 L90.9158879,128.797507 C90.9158879,148.469366 105.669782,162.957424 125.341641,162.957424 C136.240914,162.957424 144.215992,160.963655 148.602284,158.571132 L148.602284,131.588785 C144.348909,133.316719 123.347871,139.430945 123.347871,119.759086 L123.347871,72.5732087 L148.602284,72.5732087 L148.602284,44.2616822 L123.347871,44.2616822 L123.480789,15.4184839 Z M189.939772,54.0976116 L187.813084,44.2616822 L159.102804,44.2616822 L159.102804,160.564901 L192.332295,160.564901 L192.332295,81.7445483 C200.174455,71.509865 213.466251,73.3707165 217.586708,74.8328141 L217.586708,44.2616822 C213.333334,42.6666666 197.781932,39.7424714 189.939772,54.0976116 Z M225.694704,44.2616822 L259.057113,44.2616822 L259.057113,160.564901 L225.694704,160.564901 L225.694704,44.2616822 Z M225.694704,34.1599169 L259.057113,26.9823468 L259.057113,0 L225.694704,7.04465213 L225.694704,34.1599169 Z M328.440291,42.0020768 C315.41433,42.0020768 307.040498,48.1163032 302.38837,52.3696781 L300.660436,44.1287643 L271.418484,44.1287643 L271.418484,199.111111 L304.647975,192.066459 L304.780893,154.450675 C309.56594,157.906542 316.610592,162.824507 328.307373,162.824507 C352.099689,162.824507 373.765317,143.68432 373.765317,101.549325 C373.632399,63.0031152 351.700935,42.0020768 328.440291,42.0020768 Z M320.465213,133.582554 C312.623053,133.582554 307.970924,130.791278 304.780893,127.33541 L304.647975,78.0228452 C308.103842,74.1682243 312.888889,71.509865 320.465213,71.509865 C332.560748,71.509865 340.934579,85.0674974 340.934579,102.47975 C340.934579,120.290758 332.693665,133.582554 320.465213,133.582554 Z M478.504673,102.878505 C478.504673,68.8515057 462.022845,42.0020768 430.521288,42.0020768 C398.886812,42.0020768 379.746625,68.8515057 379.746625,102.612669 C379.746625,142.620976 402.342679,162.824507 434.774663,162.824507 C450.5919,162.824507 462.554517,159.235721 471.592938,154.184839 L471.592938,127.601246 C462.554517,132.120457 452.186916,134.911735 439.028037,134.911735 C426.134994,134.911735 414.70405,130.392523 413.241952,114.708204 L478.238837,114.708204 C478.238837,112.98027 478.504673,106.068536 478.504673,102.878505 Z M412.843198,90.251298 C412.843198,75.231568 422.014538,68.9844236 430.38837,68.9844236 C438.496365,68.9844236 447.136034,75.231568 447.136034,90.251298 L412.843198,90.251298 L412.843198,90.251298 Z" id="Shape"></path>
        </g>
    </g>
</svg>