<?xml version="1.0" encoding="UTF-8"?>
<svg width="702px" height="199px" viewBox="0 0 702 199" version="1.1" xmlns="http://www.w3.org/2000/svg" xmlns:xlink="http://www.w3.org/1999/xlink">
    <!-- Generator: Sketch 53.2 (72643) - https://sketchapp.com -->
    <title>vimeo</title>
    <desc>Created with Sketch.</desc>
    <g id="Page-1" stroke="none" stroke-width="1" fill="none" fill-rule="evenodd">
        <g id="vimeo" transform="translate(0.000000, 0.000000)" fill="#8599B7" fill-rule="nonzero">
            <path d="M156.790358,93.8070264 C156.090578,109.082894 145.426895,129.998348 124.799304,156.545436 C103.470345,184.275786 85.425577,198.142552 70.6650016,198.142552 C61.5249278,198.142552 53.7828223,189.700668 47.4641319,172.808947 C43.2431895,157.327916 39.0222471,141.845296 34.8028951,126.365856 C30.1080111,109.483677 25.0759605,101.032249 19.6908396,101.032249 C18.518709,101.032249 14.4106856,103.503743 7.38108285,108.424465 L0,98.9122356 C7.74051501,92.1084708 15.3776536,85.3031156 22.8939211,78.4898084 C33.2172584,69.5644395 40.9689063,64.8711459 46.1361414,64.3972044 C58.3441121,63.2250738 65.8587892,71.5731247 68.6785823,89.4413568 C71.7258037,108.721871 73.8346845,120.713546 75.0195384,125.40684 C78.539111,141.403162 82.4101637,149.391781 86.6406486,149.391781 C89.9248408,149.391781 94.8551052,144.20387 101.433032,133.82805 C107.999826,123.452229 111.520989,115.557444 111.99334,110.132563 C112.93009,101.176976 109.410518,96.6888453 101.433032,96.6888453 C97.6748982,96.6888453 93.8038456,97.5540273 89.8214642,99.2621253 C97.5317615,74.0016774 112.260529,61.7316808 134.001404,62.4314603 C150.120188,62.9054018 157.717566,73.3639238 156.790358,93.8070264" id="Path"></path>
            <path d="M222.967229,18.0256826 C222.731848,23.8720219 219.797547,29.4813904 214.15637,34.8553785 C207.815414,40.9275556 200.300736,43.9652347 191.613929,43.9652347 C178.232237,43.9652347 171.767229,38.1284378 172.24117,26.4453018 C172.467008,20.3731247 176.050197,14.5251949 182.978014,8.91582642 C189.90583,3.31600037 197.593862,0.505749697 206.056422,0.505749697 C210.986686,0.505749697 215.093119,2.44127605 218.386855,6.29165347 C221.671047,10.1499829 223.194658,14.0623863 222.967229,18.0256826 L222.967229,18.0256826 Z M253.611207,143.286205 C247.034871,155.721604 237.996584,166.983282 226.488392,177.07124 C210.749716,190.678768 195.022173,197.484123 179.293038,197.484123 C172.0042,197.484123 166.42664,195.136682 162.555586,190.441797 C158.684534,185.748504 156.863516,179.655652 157.100488,172.139385 C157.326326,164.40046 159.735793,152.42787 164.314578,136.235927 C168.896542,120.043985 171.191501,111.357177 171.191501,110.183456 C171.191501,104.089013 169.071488,101.032249 164.850545,101.032249 C163.441444,101.032249 159.44634,103.503743 152.870003,108.424465 L144.768466,98.9122356 C152.283142,92.1084708 159.796229,85.3031156 167.310905,78.4898084 C177.408405,69.5644395 184.923082,64.8711459 189.864479,64.3972044 C197.604995,63.6974249 203.297064,65.9732985 206.940689,71.2439101 C210.574771,76.5129314 211.923437,83.3485044 210.996229,91.7681236 C207.939466,106.045215 204.64573,124.172684 201.124567,146.158482 C200.889188,156.225763 204.532811,161.248271 212.047489,161.248271 C215.33009,161.248271 221.197105,157.781182 229.658075,150.823148 C236.700401,145.037244 242.452905,139.591688 246.920362,134.486478 L253.611207,143.286205 L253.611207,143.286205 Z" id="Shape"></path>
            <path d="M473.578927,143.286205 C467.00259,155.721604 457.964303,166.983282 446.456111,177.07124 C430.717436,190.678768 414.988301,197.484123 399.260759,197.484123 C383.984892,197.484123 376.594266,189.042238 377.066616,172.139385 C377.292455,164.624707 378.765173,155.599142 381.462504,145.037244 C384.159836,134.475346 385.632553,126.260889 385.867934,120.395465 C386.104904,111.479638 383.39644,107.013773 377.736178,107.013773 C371.611518,107.013773 364.313137,114.301022 355.831492,128.854844 C346.875904,144.12117 342.037884,158.913552 341.338104,173.230404 C340.865753,183.339037 341.853397,191.090685 344.302625,196.485348 C327.916652,196.957699 316.437089,194.250825 309.89097,188.38381 C304.023956,183.216575 301.336166,174.652229 301.810108,162.670096 C302.035945,155.155419 303.188992,147.642332 305.267655,140.127655 C307.338366,132.612978 308.489821,125.922132 308.726792,120.043985 C309.200733,111.357177 306.019918,107.013773 299.205019,107.013773 C293.31733,107.013773 286.966832,113.714162 280.151934,127.095853 C273.338626,140.477545 269.570951,154.45564 268.871171,169.011052 C268.397229,182.166905 269.241736,191.318112 271.393558,196.485348 C255.273184,196.957699 243.827018,193.560588 237.053471,186.292423 C231.43297,180.210704 228.870823,170.967253 229.343174,158.55253 C229.570603,152.469221 230.640947,143.976442 232.574882,133.085329 C234.51041,122.195807 235.591886,113.714162 235.817725,107.621309 C236.280533,103.409909 235.221322,101.299438 232.648041,101.299438 C231.237349,101.299438 227.243836,103.677098 220.665908,108.424465 L212.216071,98.9122356 C213.388203,97.9866182 220.778827,91.1717205 234.408623,78.4898084 C244.269152,69.3386015 250.959997,64.6453079 254.47957,64.4083373 C260.585145,63.9343956 265.51541,66.4567825 269.271953,71.9739074 C273.028497,77.4910322 274.91313,83.8940142 274.91313,91.1717205 C274.91313,93.5175722 274.676159,95.7520952 274.213351,97.8625664 C277.732923,92.467903 281.840947,87.7634766 286.543782,83.7699625 C297.342652,74.3833752 309.437704,69.0920884 322.819396,67.9183674 C334.327586,66.9816171 342.542044,69.6789489 347.483441,76.0199049 C351.467412,81.18714 353.340912,88.5873078 353.113485,98.2124562 C354.761147,96.8128973 356.521729,95.2781537 358.404771,93.6320815 C363.799434,87.2911253 369.079589,82.2479421 374.246823,78.4898084 C382.933632,72.1488522 391.983052,68.6292796 401.36964,67.9183674 C412.64086,66.9816171 420.742397,69.667816 425.672662,75.9880968 C429.893604,81.1346566 431.776647,88.506197 431.313838,98.0884042 C431.076867,104.645656 429.492822,114.178561 426.558519,126.69507 C423.613084,139.211581 422.153089,146.395452 422.153089,148.268953 C421.916118,153.189675 422.39006,156.577244 423.56219,158.450744 C424.737501,160.322653 427.546162,161.248271 432.015208,161.248271 C435.29781,161.248271 441.164825,157.781182 449.625795,150.823148 C456.668121,145.037244 462.420626,139.591688 466.888081,134.486478 L473.578927,143.286205" id="Path"></path>
            <path d="M525.706134,106.148591 C525.931973,99.8489858 523.358693,96.6888453 517.965619,96.6888453 C510.924885,96.6888453 503.780773,101.536408 496.512608,111.233125 C489.246034,120.929842 485.489492,130.214643 485.262063,139.087529 C485.128468,139.087529 485.128468,140.61114 485.262063,143.647227 C496.749579,139.44696 506.713485,133.024894 515.15537,124.377846 C521.949592,116.90611 525.467574,110.82121 525.706134,106.148591 L525.706134,106.148591 Z M605.665479,142.926773 C598.850582,154.188451 585.470481,165.438996 565.510863,176.689541 C540.620979,190.996851 515.371664,198.142552 489.782003,198.142552 C470.759134,198.142552 457.130929,191.800007 448.916473,179.129227 C443.047867,170.442419 440.228074,160.115901 440.465045,148.135359 C440.692474,129.123623 449.153444,111.048638 465.827279,93.89927 C484.140826,75.1245053 505.746516,65.7251949 530.636399,65.7251949 C553.652782,65.7251949 565.860752,75.1022396 567.271444,93.8372441 C568.206604,105.776436 561.630267,118.078241 547.548796,130.729935 C532.5099,144.55376 513.601541,153.334401 490.831671,157.079812 C495.051023,162.937285 501.391979,165.862045 509.852949,165.862045 C526.755804,165.862045 545.191812,161.567944 565.159382,152.962247 C579.477825,146.921878 590.750636,140.641356 598.974634,134.134998 L605.665479,142.926773 L605.665479,142.926773 Z" id="Shape"></path>
            <path d="M661.479253,117.985997 C661.716225,111.635498 660.831958,105.808244 658.834405,100.516957 C656.836852,95.2272605 653.956625,92.5712795 650.208033,92.5712795 C638.22749,92.5712795 628.365371,99.0458299 620.624856,111.985388 C614.037388,122.577504 610.516225,133.8694 610.053415,145.861075 C609.818036,151.748766 610.877247,156.927133 613.223099,161.392999 C615.796378,166.571367 619.440003,169.154189 624.144429,169.154189 C634.706327,169.154189 643.754158,162.927742 651.268834,150.450992 C657.6082,140.097437 661.006903,129.277893 661.479253,117.985997 L661.479253,117.985997 Z M701.283981,119.313988 C700.339278,140.88946 692.360203,159.530632 677.332438,175.237499 C662.304675,190.945958 643.630105,198.800982 621.324636,198.800982 C602.77571,198.800982 588.683105,192.819458 579.059547,180.858 C572.018811,171.954897 568.138216,160.817271 567.438437,147.456255 C566.255174,127.291473 573.531289,108.761631 589.279508,91.8810425 C606.182363,73.126953 627.428621,63.7499084 653.027826,63.7499084 C669.458329,63.7499084 681.903271,69.2670332 690.362651,80.2806075 C698.351268,90.3685647 701.985351,103.379691 701.283981,119.313988 L701.283981,119.313988 Z" id="Shape"></path>
        </g>
    </g>
</svg>