<svg width="300" height="300" viewBox="0 0 300 300" fill="none" xmlns="http://www.w3.org/2000/svg">
<path d="M77.8241 177.819C79.1909 179.186 79.1909 181.402 77.8241 182.769C76.4572 184.136 74.2412 184.136 72.8744 182.769C71.5075 181.402 71.5075 179.186 72.8744 177.819C74.2412 176.452 76.4572 176.452 77.8241 177.819ZM107.523 177.819C108.889 179.186 108.889 181.402 107.523 182.769C106.156 184.136 103.94 184.136 102.573 182.769C101.206 181.402 101.206 179.186 102.573 177.819C103.94 176.452 106.156 176.452 107.523 177.819ZM137.221 177.819C138.588 179.186 138.588 181.402 137.221 182.769C135.854 184.136 133.638 184.136 132.271 182.769C130.905 181.402 130.905 179.186 132.271 177.819C133.638 176.452 135.854 176.452 137.221 177.819ZM166.92 177.819C168.286 179.186 168.286 181.402 166.92 182.769C165.553 184.136 163.337 184.136 161.97 182.769C160.603 181.402 160.603 179.186 161.97 177.819C163.337 176.452 165.553 176.452 166.92 177.819ZM196.618 177.819C197.985 179.186 197.985 181.402 196.618 182.769C195.251 184.136 193.035 184.136 191.668 182.769C190.301 181.402 190.301 179.186 191.668 177.819C193.035 176.452 195.251 176.452 196.618 177.819ZM226.317 177.819C227.683 179.186 227.683 181.402 226.317 182.769C224.95 184.136 222.734 184.136 221.367 182.769C220 181.402 220 179.186 221.367 177.819C222.734 176.452 224.95 176.452 226.317 177.819ZM62.9748 162.97C64.3417 164.337 64.3417 166.553 62.9748 167.92C61.608 169.286 59.392 169.286 58.0251 167.92C56.6583 166.553 56.6583 164.337 58.0251 162.97C59.392 161.603 61.608 161.603 62.9748 162.97ZM92.6733 162.97C94.0401 164.337 94.0401 166.553 92.6733 167.92C91.3065 169.286 89.0904 169.286 87.7236 167.92C86.3568 166.553 86.3568 164.337 87.7236 162.97C89.0904 161.603 91.3065 161.603 92.6733 162.97ZM122.372 162.97C123.739 164.337 123.739 166.553 122.372 167.92C121.005 169.286 118.789 169.286 117.422 167.92C116.055 166.553 116.055 164.337 117.422 162.97C118.789 161.603 121.005 161.603 122.372 162.97ZM152.07 162.97C153.437 164.337 153.437 166.553 152.07 167.92C150.703 169.286 148.487 169.286 147.121 167.92C145.754 166.553 145.754 164.337 147.121 162.97C148.487 161.603 150.703 161.603 152.07 162.97ZM181.769 162.97C183.136 164.337 183.136 166.553 181.769 167.92C180.402 169.286 178.186 169.286 176.819 167.92C175.452 166.553 175.452 164.337 176.819 162.97C178.186 161.603 180.402 161.603 181.769 162.97ZM211.467 162.97C212.834 164.337 212.834 166.553 211.467 167.92C210.1 169.286 207.884 169.286 206.518 167.92C205.151 166.553 205.151 164.337 206.518 162.97C207.884 161.603 210.1 161.603 211.467 162.97ZM241.166 162.97C242.533 164.337 242.533 166.553 241.166 167.92C239.799 169.286 237.583 169.286 236.216 167.92C234.849 166.553 234.849 164.337 236.216 162.97C237.583 161.603 239.799 161.603 241.166 162.97ZM77.8241 148.121C79.1909 149.487 79.1909 151.704 77.8241 153.07C76.4572 154.437 74.2412 154.437 72.8744 153.07C71.5075 151.704 71.5075 149.487 72.8744 148.121C74.2412 146.754 76.4572 146.754 77.8241 148.121ZM107.523 148.121C108.889 149.487 108.889 151.704 107.523 153.07C106.156 154.437 103.94 154.437 102.573 153.07C101.206 151.704 101.206 149.487 102.573 148.121C103.94 146.754 106.156 146.754 107.523 148.121ZM137.221 148.121C138.588 149.487 138.588 151.704 137.221 153.07C135.854 154.437 133.638 154.437 132.271 153.07C130.905 151.704 130.905 149.487 132.271 148.121C133.638 146.754 135.854 146.754 137.221 148.121ZM166.92 148.121C168.286 149.487 168.286 151.704 166.92 153.07C165.553 154.437 163.337 154.437 161.97 153.07C160.603 151.704 160.603 149.487 161.97 148.121C163.337 146.754 165.553 146.754 166.92 148.121ZM196.618 148.121C197.985 149.487 197.985 151.704 196.618 153.07C195.251 154.437 193.035 154.437 191.668 153.07C190.301 151.704 190.301 149.487 191.668 148.121C193.035 146.754 195.251 146.754 196.618 148.121ZM226.317 148.121C227.683 149.487 227.683 151.704 226.317 153.07C224.95 154.437 222.734 154.437 221.367 153.07C220 151.704 220 149.487 221.367 148.121C222.734 146.754 224.95 146.754 226.317 148.121ZM62.9748 133.271C64.3417 134.638 64.3417 136.854 62.9748 138.221C61.608 139.588 59.392 139.588 58.0251 138.221C56.6583 136.854 56.6583 134.638 58.0251 133.271C59.392 131.905 61.608 131.905 62.9748 133.271ZM92.6733 133.271C94.0401 134.638 94.0401 136.854 92.6733 138.221C91.3065 139.588 89.0904 139.588 87.7236 138.221C86.3568 136.854 86.3568 134.638 87.7236 133.271C89.0904 131.905 91.3065 131.905 92.6733 133.271ZM122.372 133.271C123.739 134.638 123.739 136.854 122.372 138.221C121.005 139.588 118.789 139.588 117.422 138.221C116.055 136.854 116.055 134.638 117.422 133.271C118.789 131.905 121.005 131.905 122.372 133.271ZM152.07 133.271C153.437 134.638 153.437 136.854 152.07 138.221C150.703 139.588 148.487 139.588 147.121 138.221C145.754 136.854 145.754 134.638 147.121 133.271C148.487 131.905 150.703 131.905 152.07 133.271ZM181.769 133.271C183.136 134.638 183.136 136.854 181.769 138.221C180.402 139.588 178.186 139.588 176.819 138.221C175.452 136.854 175.452 134.638 176.819 133.271C178.186 131.905 180.402 131.905 181.769 133.271ZM211.467 133.271C212.834 134.638 212.834 136.854 211.467 138.221C210.1 139.588 207.884 139.588 206.518 138.221C205.151 136.854 205.151 134.638 206.518 133.271C207.884 131.905 210.1 131.905 211.467 133.271ZM241.166 133.271C242.533 134.638 242.533 136.854 241.166 138.221C239.799 139.588 237.583 139.588 236.216 138.221C234.849 136.854 234.849 134.638 236.216 133.271C237.583 131.905 239.799 131.905 241.166 133.271ZM77.8241 118.422C79.1909 119.789 79.1909 122.005 77.8241 123.372C76.4572 124.739 74.2412 124.739 72.8744 123.372C71.5075 122.005 71.5075 119.789 72.8744 118.422C74.2412 117.055 76.4572 117.055 77.8241 118.422ZM107.523 118.422C108.889 119.789 108.889 122.005 107.523 123.372C106.156 124.739 103.94 124.739 102.573 123.372C101.206 122.005 101.206 119.789 102.573 118.422C103.94 117.055 106.156 117.055 107.523 118.422ZM137.221 118.422C138.588 119.789 138.588 122.005 137.221 123.372C135.854 124.739 133.638 124.739 132.271 123.372C130.905 122.005 130.905 119.789 132.271 118.422C133.638 117.055 135.854 117.055 137.221 118.422ZM166.92 118.422C168.286 119.789 168.286 122.005 166.92 123.372C165.553 124.739 163.337 124.739 161.97 123.372C160.603 122.005 160.603 119.789 161.97 118.422C163.337 117.055 165.553 117.055 166.92 118.422ZM196.618 118.422C197.985 119.789 197.985 122.005 196.618 123.372C195.251 124.739 193.035 124.739 191.668 123.372C190.301 122.005 190.301 119.789 191.668 118.422C193.035 117.055 195.251 117.055 196.618 118.422ZM226.317 118.422C227.683 119.789 227.683 122.005 226.317 123.372C224.95 124.739 222.734 124.739 221.367 123.372C220 122.005 220 119.789 221.367 118.422C222.734 117.055 224.95 117.055 226.317 118.422Z" fill="#D6E1EF"/>
</svg>
