<svg width="300" height="300" viewBox="0 0 300 300" fill="none" xmlns="http://www.w3.org/2000/svg">
<path d="M107.471 236.031C108.836 237.397 108.836 239.611 107.471 240.976C106.105 242.341 103.891 242.341 102.526 240.976C101.16 239.611 101.16 237.397 102.526 236.031C103.891 234.666 106.105 234.666 107.471 236.031ZM92.6366 221.197C94.002 222.563 94.002 224.777 92.6366 226.142C91.2712 227.507 89.0574 227.507 87.692 226.142C86.3266 224.777 86.3266 222.563 87.692 221.197C89.0574 219.832 91.2712 219.832 92.6366 221.197ZM77.8027 206.363C79.1681 207.729 79.1681 209.943 77.8027 211.308C76.4373 212.673 74.2235 212.673 72.8581 211.308C71.4926 209.943 71.4926 207.729 72.8581 206.363C74.2235 204.998 76.4373 204.998 77.8027 206.363ZM62.9687 191.529C64.3341 192.895 64.3341 195.109 62.9687 196.474C61.6033 197.84 59.3895 197.84 58.0241 196.474C56.6586 195.109 56.6586 192.895 58.0241 191.529C59.3895 190.164 61.6033 190.164 62.9687 191.529ZM137.138 236.031C138.504 237.397 138.504 239.611 137.138 240.976C135.773 242.341 133.559 242.341 132.194 240.976C130.828 239.611 130.828 237.397 132.194 236.031C133.559 234.666 135.773 234.666 137.138 236.031ZM122.304 221.197C123.67 222.563 123.67 224.777 122.304 226.142C120.939 227.507 118.725 227.507 117.36 226.142C115.994 224.777 115.994 222.563 117.36 221.197C118.725 219.832 120.939 219.832 122.304 221.197ZM107.471 206.363C108.836 207.729 108.836 209.943 107.471 211.308C106.105 212.673 103.891 212.673 102.526 211.308C101.16 209.943 101.16 207.729 102.526 206.363C103.891 204.998 106.105 204.998 107.471 206.363ZM92.6366 191.529C94.002 192.895 94.002 195.109 92.6366 196.474C91.2712 197.84 89.0574 197.84 87.692 196.474C86.3266 195.109 86.3266 192.895 87.692 191.529C89.0574 190.164 91.2712 190.164 92.6366 191.529ZM77.8027 176.696C79.1681 178.061 79.1681 180.275 77.8027 181.64C76.4373 183.006 74.2235 183.006 72.8581 181.64C71.4926 180.275 71.4926 178.061 72.8581 176.696C74.2235 175.33 76.4373 175.33 77.8027 176.696ZM62.9687 161.862C64.3341 163.227 64.3341 165.441 62.9687 166.806C61.6033 168.172 59.3895 168.172 58.0241 166.806C56.6586 165.441 56.6586 163.227 58.0241 161.862C59.3895 160.496 61.6033 160.496 62.9687 161.862ZM166.806 236.031C168.172 237.397 168.172 239.611 166.806 240.976C165.441 242.341 163.227 242.341 161.862 240.976C160.496 239.611 160.496 237.397 161.862 236.031C163.227 234.666 165.441 234.666 166.806 236.031ZM151.972 221.197C153.338 222.563 153.338 224.777 151.972 226.142C150.607 227.507 148.393 227.507 147.028 226.142C145.662 224.777 145.662 222.563 147.028 221.197C148.393 219.832 150.607 219.832 151.972 221.197ZM137.138 206.363C138.504 207.729 138.504 209.943 137.138 211.308C135.773 212.673 133.559 212.673 132.194 211.308C130.828 209.943 130.828 207.729 132.194 206.363C133.559 204.998 135.773 204.998 137.138 206.363ZM122.304 191.529C123.67 192.895 123.67 195.109 122.304 196.474C120.939 197.84 118.725 197.84 117.36 196.474C115.994 195.109 115.994 192.895 117.36 191.529C118.725 190.164 120.939 190.164 122.304 191.529ZM107.471 176.696C108.836 178.061 108.836 180.275 107.471 181.64C106.105 183.006 103.891 183.006 102.526 181.64C101.16 180.275 101.16 178.061 102.526 176.696C103.891 175.33 106.105 175.33 107.471 176.696ZM92.6366 161.862C94.002 163.227 94.002 165.441 92.6366 166.806C91.2712 168.172 89.0574 168.172 87.692 166.806C86.3266 165.441 86.3266 163.227 87.692 161.862C89.0574 160.496 91.2712 160.496 92.6366 161.862ZM77.8027 147.028C79.1681 148.393 79.1681 150.607 77.8027 151.972C76.4373 153.338 74.2235 153.338 72.8581 151.972C71.4926 150.607 71.4926 148.393 72.8581 147.028C74.2235 145.662 76.4373 145.662 77.8027 147.028ZM62.9687 132.194C64.3341 133.559 64.3341 135.773 62.9687 137.138C61.6033 138.504 59.3895 138.504 58.0241 137.138C56.6586 135.773 56.6586 133.559 58.0241 132.194C59.3895 130.828 61.6033 130.828 62.9687 132.194ZM196.474 236.031C197.84 237.397 197.84 239.611 196.474 240.976C195.109 242.341 192.895 242.341 191.529 240.976C190.164 239.611 190.164 237.397 191.529 236.031C192.895 234.666 195.109 234.666 196.474 236.031ZM181.64 221.197C183.006 222.563 183.006 224.777 181.64 226.142C180.275 227.507 178.061 227.507 176.696 226.142C175.33 224.777 175.33 222.563 176.696 221.197C178.061 219.832 180.275 219.832 181.64 221.197ZM166.806 206.363C168.172 207.729 168.172 209.943 166.806 211.308C165.441 212.673 163.227 212.673 161.862 211.308C160.496 209.943 160.496 207.729 161.862 206.363C163.227 204.998 165.441 204.998 166.806 206.363ZM151.972 191.529C153.338 192.895 153.338 195.109 151.972 196.474C150.607 197.84 148.393 197.84 147.028 196.474C145.662 195.109 145.662 192.895 147.028 191.529C148.393 190.164 150.607 190.164 151.972 191.529ZM137.138 176.696C138.504 178.061 138.504 180.275 137.138 181.64C135.773 183.006 133.559 183.006 132.194 181.64C130.828 180.275 130.828 178.061 132.194 176.696C133.559 175.33 135.773 175.33 137.138 176.696ZM122.304 161.862C123.67 163.227 123.67 165.441 122.304 166.806C120.939 168.172 118.725 168.172 117.36 166.806C115.994 165.441 115.994 163.227 117.36 161.862C118.725 160.496 120.939 160.496 122.304 161.862ZM107.471 147.028C108.836 148.393 108.836 150.607 107.471 151.972C106.105 153.338 103.891 153.338 102.526 151.972C101.16 150.607 101.16 148.393 102.526 147.028C103.891 145.662 106.105 145.662 107.471 147.028ZM92.6366 132.194C94.002 133.559 94.002 135.773 92.6366 137.138C91.2712 138.504 89.0574 138.504 87.692 137.138C86.3266 135.773 86.3266 133.559 87.692 132.194C89.0574 130.828 91.2712 130.828 92.6366 132.194ZM77.8027 117.36C79.1681 118.725 79.1681 120.939 77.8027 122.304C76.4373 123.67 74.2235 123.67 72.8581 122.304C71.4926 120.939 71.4926 118.725 72.8581 117.36C74.2235 115.994 76.4373 115.994 77.8027 117.36ZM62.9687 102.526C64.3341 103.891 64.3341 106.105 62.9687 107.471C61.6033 108.836 59.3895 108.836 58.0241 107.471C56.6586 106.105 56.6586 103.891 58.0241 102.526C59.3895 101.16 61.6033 101.16 62.9687 102.526ZM211.308 221.197C212.673 222.563 212.673 224.777 211.308 226.142C209.943 227.507 207.729 227.507 206.363 226.142C204.998 224.777 204.998 222.563 206.363 221.197C207.729 219.832 209.943 219.832 211.308 221.197ZM196.474 206.363C197.84 207.729 197.84 209.943 196.474 211.308C195.109 212.673 192.895 212.673 191.529 211.308C190.164 209.943 190.164 207.729 191.529 206.363C192.895 204.998 195.109 204.998 196.474 206.363ZM181.64 191.529C183.006 192.895 183.006 195.109 181.64 196.474C180.275 197.84 178.061 197.84 176.696 196.474C175.33 195.109 175.33 192.895 176.696 191.529C178.061 190.164 180.275 190.164 181.64 191.529ZM166.806 176.696C168.172 178.061 168.172 180.275 166.806 181.64C165.441 183.006 163.227 183.006 161.862 181.64C160.496 180.275 160.496 178.061 161.862 176.696C163.227 175.33 165.441 175.33 166.806 176.696ZM122.304 132.194C123.67 133.559 123.67 135.773 122.304 137.138C120.939 138.504 118.725 138.504 117.36 137.138C115.994 135.773 115.994 133.559 117.36 132.194C118.725 130.828 120.939 130.828 122.304 132.194ZM107.471 117.36C108.836 118.725 108.836 120.939 107.471 122.304C106.105 123.67 103.891 123.67 102.526 122.304C101.16 120.939 101.16 118.725 102.526 117.36C103.891 115.994 106.105 115.994 107.471 117.36ZM92.6366 102.526C94.002 103.891 94.002 106.105 92.6366 107.471C91.2712 108.836 89.0574 108.836 87.692 107.471C86.3266 106.105 86.3266 103.891 87.692 102.526C89.0574 101.16 91.2712 101.16 92.6366 102.526ZM77.8027 87.692C79.1681 89.0574 79.1681 91.2712 77.8027 92.6366C76.4373 94.002 74.2235 94.002 72.8581 92.6366C71.4926 91.2712 71.4926 89.0574 72.8581 87.692C74.2235 86.3266 76.4373 86.3266 77.8027 87.692ZM226.142 206.363C227.507 207.729 227.507 209.943 226.142 211.308C224.777 212.673 222.563 212.673 221.197 211.308C219.832 209.943 219.832 207.729 221.197 206.363C222.563 204.998 224.777 204.998 226.142 206.363ZM211.308 191.529C212.673 192.895 212.673 195.109 211.308 196.474C209.943 197.84 207.729 197.84 206.363 196.474C204.998 195.109 204.998 192.895 206.363 191.529C207.729 190.164 209.943 190.164 211.308 191.529ZM196.474 176.696C197.84 178.061 197.84 180.275 196.474 181.64C195.109 183.006 192.895 183.006 191.529 181.64C190.164 180.275 190.164 178.061 191.529 176.696C192.895 175.33 195.109 175.33 196.474 176.696ZM181.64 161.862C183.006 163.227 183.006 165.441 181.64 166.806C180.275 168.172 178.061 168.172 176.696 166.806C175.33 165.441 175.33 163.227 176.696 161.862C178.061 160.496 180.275 160.496 181.64 161.862ZM137.138 117.36C138.504 118.725 138.504 120.939 137.138 122.304C135.773 123.67 133.559 123.67 132.194 122.304C130.828 120.939 130.828 118.725 132.194 117.36C133.559 115.994 135.773 115.994 137.138 117.36ZM122.304 102.526C123.67 103.891 123.67 106.105 122.304 107.471C120.939 108.836 118.725 108.836 117.36 107.471C115.994 106.105 115.994 103.891 117.36 102.526C118.725 101.16 120.939 101.16 122.304 102.526ZM107.471 87.692C108.836 89.0574 108.836 91.2712 107.471 92.6366C106.105 94.002 103.891 94.002 102.526 92.6366C101.16 91.2712 101.16 89.0574 102.526 87.692C103.891 86.3266 106.105 86.3266 107.471 87.692ZM92.6366 72.8581C94.002 74.2235 94.002 76.4373 92.6366 77.8027C91.2712 79.1681 89.0574 79.1681 87.692 77.8027C86.3266 76.4373 86.3266 74.2235 87.692 72.8581C89.0574 71.4926 91.2712 71.4926 92.6366 72.8581ZM240.976 191.529C242.341 192.895 242.341 195.109 240.976 196.474C239.611 197.84 237.397 197.84 236.031 196.474C234.666 195.109 234.666 192.895 236.031 191.529C237.397 190.164 239.611 190.164 240.976 191.529ZM226.142 176.696C227.507 178.061 227.507 180.275 226.142 181.64C224.777 183.006 222.563 183.006 221.197 181.64C219.832 180.275 219.832 178.061 221.197 176.696C222.563 175.33 224.777 175.33 226.142 176.696ZM211.308 161.862C212.673 163.227 212.673 165.441 211.308 166.806C209.943 168.172 207.729 168.172 206.363 166.806C204.998 165.441 204.998 163.227 206.363 161.862C207.729 160.496 209.943 160.496 211.308 161.862ZM196.474 147.028C197.84 148.393 197.84 150.607 196.474 151.972C195.109 153.338 192.895 153.338 191.529 151.972C190.164 150.607 190.164 148.393 191.529 147.028C192.895 145.662 195.109 145.662 196.474 147.028ZM181.64 132.194C183.006 133.559 183.006 135.773 181.64 137.138C180.275 138.504 178.061 138.504 176.696 137.138C175.33 135.773 175.33 133.559 176.696 132.194C178.061 130.828 180.275 130.828 181.64 132.194ZM166.806 117.36C168.172 118.725 168.172 120.939 166.806 122.304C165.441 123.67 163.227 123.67 161.862 122.304C160.496 120.939 160.496 118.725 161.862 117.36C163.227 115.994 165.441 115.994 166.806 117.36ZM151.972 102.526C153.338 103.891 153.338 106.105 151.972 107.471C150.607 108.836 148.393 108.836 147.028 107.471C145.662 106.105 145.662 103.891 147.028 102.526C148.393 101.16 150.607 101.16 151.972 102.526ZM137.138 87.692C138.504 89.0574 138.504 91.2712 137.138 92.6366C135.773 94.002 133.559 94.002 132.194 92.6366C130.828 91.2712 130.828 89.0574 132.194 87.692C133.559 86.3266 135.773 86.3266 137.138 87.692ZM122.304 72.8581C123.67 74.2235 123.67 76.4373 122.304 77.8027C120.939 79.1681 118.725 79.1681 117.36 77.8027C115.994 76.4373 115.994 74.2235 117.36 72.8581C118.725 71.4926 120.939 71.4926 122.304 72.8581ZM107.471 58.0241C108.836 59.3895 108.836 61.6033 107.471 62.9687C106.105 64.3341 103.891 64.3341 102.526 62.9687C101.16 61.6033 101.16 59.3895 102.526 58.0241C103.891 56.6586 106.105 56.6586 107.471 58.0241ZM240.976 161.862C242.341 163.227 242.341 165.441 240.976 166.806C239.611 168.172 237.397 168.172 236.031 166.806C234.666 165.441 234.666 163.227 236.031 161.862C237.397 160.496 239.611 160.496 240.976 161.862ZM226.142 147.028C227.507 148.393 227.507 150.607 226.142 151.972C224.777 153.338 222.563 153.338 221.197 151.972C219.832 150.607 219.832 148.393 221.197 147.028C222.563 145.662 224.777 145.662 226.142 147.028ZM211.308 132.194C212.673 133.559 212.673 135.773 211.308 137.138C209.943 138.504 207.729 138.504 206.363 137.138C204.998 135.773 204.998 133.559 206.363 132.194C207.729 130.828 209.943 130.828 211.308 132.194ZM196.474 117.36C197.84 118.725 197.84 120.939 196.474 122.304C195.109 123.67 192.895 123.67 191.529 122.304C190.164 120.939 190.164 118.725 191.529 117.36C192.895 115.994 195.109 115.994 196.474 117.36ZM181.64 102.526C183.006 103.891 183.006 106.105 181.64 107.471C180.275 108.836 178.061 108.836 176.696 107.471C175.33 106.105 175.33 103.891 176.696 102.526C178.061 101.16 180.275 101.16 181.64 102.526ZM166.806 87.692C168.172 89.0574 168.172 91.2712 166.806 92.6366C165.441 94.002 163.227 94.002 161.862 92.6366C160.496 91.2712 160.496 89.0574 161.862 87.692C163.227 86.3266 165.441 86.3266 166.806 87.692ZM151.972 72.8581C153.338 74.2235 153.338 76.4373 151.972 77.8027C150.607 79.1681 148.393 79.1681 147.028 77.8027C145.662 76.4373 145.662 74.2235 147.028 72.8581C148.393 71.4926 150.607 71.4926 151.972 72.8581ZM137.138 58.0241C138.504 59.3895 138.504 61.6033 137.138 62.9687C135.773 64.3341 133.559 64.3341 132.194 62.9687C130.828 61.6033 130.828 59.3895 132.194 58.0241C133.559 56.6586 135.773 56.6586 137.138 58.0241ZM240.976 132.194C242.341 133.559 242.341 135.773 240.976 137.138C239.611 138.504 237.397 138.504 236.031 137.138C234.666 135.773 234.666 133.559 236.031 132.194C237.397 130.828 239.611 130.828 240.976 132.194ZM226.142 117.36C227.507 118.725 227.507 120.939 226.142 122.304C224.777 123.67 222.563 123.67 221.197 122.304C219.832 120.939 219.832 118.725 221.197 117.36C222.563 115.994 224.777 115.994 226.142 117.36ZM211.308 102.526C212.673 103.891 212.673 106.105 211.308 107.471C209.943 108.836 207.729 108.836 206.363 107.471C204.998 106.105 204.998 103.891 206.363 102.526C207.729 101.16 209.943 101.16 211.308 102.526ZM196.474 87.692C197.84 89.0574 197.84 91.2712 196.474 92.6366C195.109 94.002 192.895 94.002 191.529 92.6366C190.164 91.2712 190.164 89.0574 191.529 87.692C192.895 86.3266 195.109 86.3266 196.474 87.692ZM181.64 72.8581C183.006 74.2235 183.006 76.4373 181.64 77.8027C180.275 79.1681 178.061 79.1681 176.696 77.8027C175.33 76.4373 175.33 74.2235 176.696 72.8581C178.061 71.4926 180.275 71.4926 181.64 72.8581ZM166.806 58.0241C168.172 59.3895 168.172 61.6033 166.806 62.9687C165.441 64.3341 163.227 64.3341 161.862 62.9687C160.496 61.6033 160.496 59.3895 161.862 58.0241C163.227 56.6586 165.441 56.6586 166.806 58.0241ZM240.976 102.526C242.341 103.891 242.341 106.105 240.976 107.471C239.611 108.836 237.397 108.836 236.031 107.471C234.666 106.105 234.666 103.891 236.031 102.526C237.397 101.16 239.611 101.16 240.976 102.526ZM226.142 87.692C227.507 89.0574 227.507 91.2712 226.142 92.6366C224.777 94.002 222.563 94.002 221.197 92.6366C219.832 91.2712 219.832 89.0574 221.197 87.692C222.563 86.3266 224.777 86.3266 226.142 87.692ZM211.308 72.8581C212.673 74.2235 212.673 76.4373 211.308 77.8027C209.943 79.1681 207.729 79.1681 206.363 77.8027C204.998 76.4373 204.998 74.2235 206.363 72.8581C207.729 71.4926 209.943 71.4926 211.308 72.8581ZM196.474 58.0241C197.84 59.3895 197.84 61.6033 196.474 62.9687C195.109 64.3341 192.895 64.3341 191.529 62.9687C190.164 61.6033 190.164 59.3895 191.529 58.0241C192.895 56.6586 195.109 56.6586 196.474 58.0241Z" fill="#D6E1EF"/>
</svg>
