<svg width="300" height="300" viewBox="0 0 300 300" fill="none" xmlns="http://www.w3.org/2000/svg">
<path d="M132.271 236.216C133.638 234.849 135.854 234.849 137.221 236.216C138.588 237.583 138.588 239.799 137.221 241.166C135.854 242.533 133.638 242.533 132.271 241.166C130.905 239.799 130.905 237.583 132.271 236.216ZM161.97 236.216C163.337 234.849 165.553 234.849 166.92 236.216C168.286 237.583 168.286 239.799 166.92 241.166C165.553 242.533 163.337 242.533 161.97 241.166C160.603 239.799 160.603 237.583 161.97 236.216ZM117.422 221.367C118.789 220 121.005 220 122.372 221.367C123.739 222.734 123.739 224.95 122.372 226.317C121.005 227.683 118.789 227.683 117.422 226.317C116.055 224.95 116.055 222.734 117.422 221.367ZM147.121 221.367C148.487 220 150.704 220 152.07 221.367C153.437 222.734 153.437 224.95 152.07 226.317C150.704 227.683 148.487 227.683 147.121 226.317C145.754 224.95 145.754 222.734 147.121 221.367ZM176.819 221.367C178.186 220 180.402 220 181.769 221.367C183.136 222.734 183.136 224.95 181.769 226.317C180.402 227.683 178.186 227.683 176.819 226.317C175.452 224.95 175.452 222.734 176.819 221.367ZM102.573 206.518C103.94 205.151 106.156 205.151 107.523 206.518C108.889 207.884 108.889 210.1 107.523 211.467C106.156 212.834 103.94 212.834 102.573 211.467C101.206 210.1 101.206 207.884 102.573 206.518ZM132.271 206.518C133.638 205.151 135.854 205.151 137.221 206.518C138.588 207.884 138.588 210.1 137.221 211.467C135.854 212.834 133.638 212.834 132.271 211.467C130.905 210.1 130.905 207.884 132.271 206.518ZM161.97 206.518C163.337 205.151 165.553 205.151 166.92 206.518C168.286 207.884 168.286 210.1 166.92 211.467C165.553 212.834 163.337 212.834 161.97 211.467C160.603 210.1 160.603 207.884 161.97 206.518ZM191.668 206.518C193.035 205.151 195.251 205.151 196.618 206.518C197.985 207.884 197.985 210.1 196.618 211.467C195.251 212.834 193.035 212.834 191.668 211.467C190.301 210.1 190.301 207.884 191.668 206.518ZM87.7236 191.668C89.0904 190.302 91.3065 190.302 92.6734 191.668C94.0402 193.035 94.0402 195.251 92.6734 196.618C91.3065 197.985 89.0904 197.985 87.7236 196.618C86.3568 195.251 86.3568 193.035 87.7236 191.668ZM117.422 191.668C118.789 190.302 121.005 190.302 122.372 191.668C123.739 193.035 123.739 195.251 122.372 196.618C121.005 197.985 118.789 197.985 117.422 196.618C116.055 195.251 116.055 193.035 117.422 191.668ZM176.819 191.668C178.186 190.302 180.402 190.302 181.769 191.668C183.136 193.035 183.136 195.251 181.769 196.618C180.402 197.985 178.186 197.985 176.819 196.618C175.452 195.251 175.452 193.035 176.819 191.668ZM206.518 191.668C207.884 190.302 210.1 190.302 211.467 191.668C212.834 193.035 212.834 195.251 211.467 196.618C210.1 197.985 207.884 197.985 206.518 196.618C205.151 195.251 205.151 193.035 206.518 191.668ZM72.8744 176.819C74.2412 175.452 76.4573 175.452 77.8241 176.819C79.191 178.186 79.191 180.402 77.8241 181.769C76.4573 183.136 74.2412 183.136 72.8744 181.769C71.5075 180.402 71.5075 178.186 72.8744 176.819ZM102.573 176.819C103.94 175.452 106.156 175.452 107.523 176.819C108.889 178.186 108.889 180.402 107.523 181.769C106.156 183.136 103.94 183.136 102.573 181.769C101.206 180.402 101.206 178.186 102.573 176.819ZM191.668 176.819C193.035 175.452 195.251 175.452 196.618 176.819C197.985 178.186 197.985 180.402 196.618 181.769C195.251 183.136 193.035 183.136 191.668 181.769C190.301 180.402 190.301 178.186 191.668 176.819ZM221.367 176.819C222.734 175.452 224.95 175.452 226.317 176.819C227.683 178.186 227.683 180.402 226.317 181.769C224.95 183.136 222.734 183.136 221.367 181.769C220 180.402 220 178.186 221.367 176.819ZM58.0251 161.97C59.392 160.603 61.6081 160.603 62.9749 161.97C64.3417 163.337 64.3417 165.553 62.9749 166.92C61.6081 168.286 59.392 168.286 58.0251 166.92C56.6583 165.553 56.6583 163.337 58.0251 161.97ZM87.7236 161.97C89.0904 160.603 91.3065 160.603 92.6734 161.97C94.0402 163.337 94.0402 165.553 92.6734 166.92C91.3065 168.286 89.0904 168.286 87.7236 166.92C86.3568 165.553 86.3568 163.337 87.7236 161.97ZM206.518 161.97C207.884 160.603 210.1 160.603 211.467 161.97C212.834 163.337 212.834 165.553 211.467 166.92C210.1 168.286 207.884 168.286 206.518 166.92C205.151 165.553 205.151 163.337 206.518 161.97ZM236.216 161.97C237.583 160.603 239.799 160.603 241.166 161.97C242.533 163.337 242.533 165.553 241.166 166.92C239.799 168.286 237.583 168.286 236.216 166.92C234.849 165.553 234.849 163.337 236.216 161.97ZM72.8744 147.121C74.2412 145.754 76.4573 145.754 77.8241 147.121C79.191 148.487 79.191 150.704 77.8241 152.07C76.4573 153.437 74.2412 153.437 72.8744 152.07C71.5075 150.704 71.5075 148.487 72.8744 147.121ZM221.367 147.121C222.734 145.754 224.95 145.754 226.317 147.121C227.683 148.487 227.683 150.704 226.317 152.07C224.95 153.437 222.734 153.437 221.367 152.07C220 150.704 220 148.487 221.367 147.121ZM58.0251 132.271C59.392 130.905 61.6081 130.905 62.9749 132.271C64.3417 133.638 64.3417 135.854 62.9749 137.221C61.6081 138.588 59.392 138.588 58.0251 137.221C56.6583 135.854 56.6583 133.638 58.0251 132.271ZM87.7236 132.271C89.0904 130.905 91.3065 130.905 92.6734 132.271C94.0402 133.638 94.0402 135.854 92.6734 137.221C91.3065 138.588 89.0904 138.588 87.7236 137.221C86.3568 135.854 86.3568 133.638 87.7236 132.271ZM206.518 132.271C207.884 130.905 210.1 130.905 211.467 132.271C212.834 133.638 212.834 135.854 211.467 137.221C210.1 138.588 207.884 138.588 206.518 137.221C205.151 135.854 205.151 133.638 206.518 132.271ZM236.216 132.271C237.583 130.905 239.799 130.905 241.166 132.271C242.533 133.638 242.533 135.854 241.166 137.221C239.799 138.588 237.583 138.588 236.216 137.221C234.849 135.854 234.849 133.638 236.216 132.271ZM72.8744 117.422C74.2412 116.055 76.4573 116.055 77.8241 117.422C79.191 118.789 79.191 121.005 77.8241 122.372C76.4573 123.739 74.2412 123.739 72.8744 122.372C71.5075 121.005 71.5075 118.789 72.8744 117.422ZM102.573 117.422C103.94 116.055 106.156 116.055 107.523 117.422C108.889 118.789 108.889 121.005 107.523 122.372C106.156 123.739 103.94 123.739 102.573 122.372C101.206 121.005 101.206 118.789 102.573 117.422ZM191.668 117.422C193.035 116.055 195.251 116.055 196.618 117.422C197.985 118.789 197.985 121.005 196.618 122.372C195.251 123.739 193.035 123.739 191.668 122.372C190.301 121.005 190.301 118.789 191.668 117.422ZM221.367 117.422C222.734 116.055 224.95 116.055 226.317 117.422C227.683 118.789 227.683 121.005 226.317 122.372C224.95 123.739 222.734 123.739 221.367 122.372C220 121.005 220 118.789 221.367 117.422ZM87.7236 102.573C89.0904 101.206 91.3065 101.206 92.6734 102.573C94.0402 103.94 94.0402 106.156 92.6734 107.523C91.3065 108.889 89.0904 108.889 87.7236 107.523C86.3568 106.156 86.3568 103.94 87.7236 102.573ZM117.422 102.573C118.789 101.206 121.005 101.206 122.372 102.573C123.739 103.94 123.739 106.156 122.372 107.523C121.005 108.889 118.789 108.889 117.422 107.523C116.055 106.156 116.055 103.94 117.422 102.573ZM176.819 102.573C178.186 101.206 180.402 101.206 181.769 102.573C183.136 103.94 183.136 106.156 181.769 107.523C180.402 108.889 178.186 108.889 176.819 107.523C175.452 106.156 175.452 103.94 176.819 102.573ZM206.518 102.573C207.884 101.206 210.1 101.206 211.467 102.573C212.834 103.94 212.834 106.156 211.467 107.523C210.1 108.889 207.884 108.889 206.518 107.523C205.151 106.156 205.151 103.94 206.518 102.573ZM102.573 87.7236C103.94 86.3568 106.156 86.3568 107.523 87.7236C108.889 89.0904 108.889 91.3065 107.523 92.6734C106.156 94.0402 103.94 94.0402 102.573 92.6734C101.206 91.3065 101.206 89.0904 102.573 87.7236ZM132.271 87.7236C133.638 86.3568 135.854 86.3568 137.221 87.7236C138.588 89.0904 138.588 91.3065 137.221 92.6734C135.854 94.0402 133.638 94.0402 132.271 92.6734C130.905 91.3065 130.905 89.0904 132.271 87.7236ZM161.97 87.7236C163.337 86.3568 165.553 86.3568 166.92 87.7236C168.286 89.0904 168.286 91.3065 166.92 92.6734C165.553 94.0402 163.337 94.0402 161.97 92.6734C160.603 91.3065 160.603 89.0904 161.97 87.7236ZM191.668 87.7236C193.035 86.3568 195.251 86.3568 196.618 87.7236C197.985 89.0904 197.985 91.3065 196.618 92.6734C195.251 94.0402 193.035 94.0402 191.668 92.6734C190.301 91.3065 190.301 89.0904 191.668 87.7236ZM117.422 72.8744C118.789 71.5075 121.005 71.5075 122.372 72.8744C123.739 74.2412 123.739 76.4573 122.372 77.8241C121.005 79.191 118.789 79.191 117.422 77.8241C116.055 76.4573 116.055 74.2412 117.422 72.8744ZM147.121 72.8744C148.487 71.5075 150.704 71.5075 152.07 72.8744C153.437 74.2412 153.437 76.4573 152.07 77.8241C150.704 79.191 148.487 79.191 147.121 77.8241C145.754 76.4573 145.754 74.2412 147.121 72.8744ZM176.819 72.8744C178.186 71.5075 180.402 71.5075 181.769 72.8744C183.136 74.2412 183.136 76.4573 181.769 77.8241C180.402 79.191 178.186 79.191 176.819 77.8241C175.452 76.4573 175.452 74.2412 176.819 72.8744ZM132.271 58.0251C133.638 56.6583 135.854 56.6583 137.221 58.0251C138.588 59.392 138.588 61.6081 137.221 62.9749C135.854 64.3417 133.638 64.3417 132.271 62.9749C130.905 61.6081 130.905 59.392 132.271 58.0251ZM161.97 58.0251C163.337 56.6583 165.553 56.6583 166.92 58.0251C168.286 59.392 168.286 61.6081 166.92 62.9749C165.553 64.3417 163.337 64.3417 161.97 62.9749C160.603 61.6081 160.603 59.392 161.97 58.0251Z" fill="#D6E1EF"/>
</svg>
