<svg width="300" height="300" viewBox="0 0 300 300" fill="none" xmlns="http://www.w3.org/2000/svg">
<path d="M92.6733 77.9748C91.3065 79.3418 89.0904 79.3418 87.7236 77.9748C86.3568 76.608 86.3568 74.3919 87.7236 73.0251C89.0904 71.6583 91.3065 71.6583 92.6733 73.0251C94.0401 74.3919 94.0401 76.608 92.6733 77.9748Z" fill="#D6E1EF"/>
<path d="M77.8242 92.8241C76.4574 94.191 74.2413 94.191 72.8745 92.8241C71.5077 91.4572 71.5077 89.2412 72.8745 87.8744C74.2413 86.5075 76.4574 86.5075 77.8242 87.8744C79.191 89.2412 79.191 91.4572 77.8242 92.8241Z" fill="#D6E1EF"/>
<path d="M62.9748 107.673C61.608 109.04 59.3919 109.04 58.0251 107.673C56.6583 106.306 56.6583 104.09 58.0251 102.724C59.3919 101.357 61.608 101.357 62.9748 102.724C64.3416 104.09 64.3416 106.306 62.9748 107.673Z" fill="#D6E1EF"/>
<path d="M72.8745 122.523C74.2413 123.889 76.4574 123.889 77.8242 122.523C79.191 121.156 79.191 118.94 77.8242 117.573C76.4574 116.206 74.2413 116.206 72.8745 117.573C71.5077 118.94 71.5077 121.156 72.8745 122.523Z" fill="#D6E1EF"/>
<path d="M62.9748 137.372C61.608 138.739 59.3919 138.739 58.0251 137.372C56.6583 136.005 56.6583 133.789 58.0251 132.422C59.3919 131.055 61.608 131.055 62.9748 132.422C64.3416 133.789 64.3416 136.005 62.9748 137.372Z" fill="#D6E1EF"/>
<path d="M72.8745 152.221C74.2413 153.588 76.4574 153.588 77.8242 152.221C79.191 150.854 79.191 148.638 77.8242 147.271C76.4574 145.905 74.2413 145.905 72.8745 147.271C71.5077 148.638 71.5077 150.854 72.8745 152.221Z" fill="#D6E1EF"/>
<path d="M92.6733 167.07C91.3065 168.437 89.0904 168.437 87.7236 167.07C86.3568 165.703 86.3568 163.487 87.7236 162.121C89.0904 160.754 91.3065 160.754 92.6733 162.121C94.0401 163.487 94.0401 165.703 92.6733 167.07Z" fill="#D6E1EF"/>
<path d="M102.573 181.92C103.94 183.286 106.156 183.286 107.522 181.92C108.889 180.553 108.889 178.337 107.522 176.97C106.156 175.603 103.94 175.603 102.573 176.97C101.206 178.337 101.206 180.553 102.573 181.92Z" fill="#D6E1EF"/>
<path d="M122.372 196.769C121.005 198.136 118.789 198.136 117.422 196.769C116.055 195.402 116.055 193.186 117.422 191.819C118.789 190.452 121.005 190.452 122.372 191.819C123.739 193.186 123.739 195.402 122.372 196.769Z" fill="#D6E1EF"/>
<path d="M132.271 211.618C133.638 212.985 135.854 212.985 137.221 211.618C138.588 210.251 138.588 208.035 137.221 206.668C135.854 205.301 133.638 205.301 132.271 206.668C130.905 208.035 130.905 210.251 132.271 211.618Z" fill="#D6E1EF"/>
<path d="M147.121 226.467C148.487 227.834 150.703 227.834 152.07 226.467C153.437 225.1 153.437 222.884 152.07 221.518C150.703 220.151 148.487 220.151 147.121 221.518C145.754 222.884 145.754 225.1 147.121 226.467Z" fill="#D6E1EF"/>
<path d="M161.97 211.618C163.337 212.985 165.553 212.985 166.919 211.618C168.286 210.251 168.286 208.035 166.919 206.668C165.553 205.301 163.337 205.301 161.97 206.668C160.603 208.035 160.603 210.251 161.97 211.618Z" fill="#D6E1EF"/>
<path d="M152.07 196.769C150.703 198.136 148.487 198.136 147.121 196.769C145.754 195.402 145.754 193.186 147.121 191.819C148.487 190.452 150.703 190.452 152.07 191.819C153.437 193.186 153.437 195.402 152.07 196.769Z" fill="#D6E1EF"/>
<path d="M132.271 181.92C133.638 183.286 135.854 183.286 137.221 181.92C138.588 180.553 138.588 178.337 137.221 176.97C135.854 175.603 133.638 175.603 132.271 176.97C130.905 178.337 130.905 180.553 132.271 181.92Z" fill="#D6E1EF"/>
<path d="M122.372 167.07C121.005 168.437 118.789 168.437 117.422 167.07C116.055 165.703 116.055 163.487 117.422 162.121C118.789 160.754 121.005 160.754 122.372 162.121C123.739 163.487 123.739 165.703 122.372 167.07Z" fill="#D6E1EF"/>
<path d="M102.573 152.221C103.94 153.588 106.156 153.588 107.522 152.221C108.889 150.854 108.889 148.638 107.522 147.271C106.156 145.905 103.94 145.905 102.573 147.271C101.206 148.638 101.206 150.854 102.573 152.221Z" fill="#D6E1EF"/>
<path d="M92.6733 137.372C91.3065 138.739 89.0904 138.739 87.7236 137.372C86.3568 136.005 86.3568 133.789 87.7236 132.422C89.0904 131.055 91.3065 131.055 92.6733 132.422C94.0401 133.789 94.0401 136.005 92.6733 137.372Z" fill="#D6E1EF"/>
<path d="M176.819 196.769C178.186 198.136 180.402 198.136 181.769 196.769C183.136 195.402 183.136 193.186 181.769 191.819C180.402 190.452 178.186 190.452 176.819 191.819C175.452 193.186 175.452 195.402 176.819 196.769Z" fill="#D6E1EF"/>
<path d="M166.919 181.92C165.553 183.286 163.337 183.286 161.97 181.92C160.603 180.553 160.603 178.337 161.97 176.97C163.337 175.603 165.553 175.603 166.919 176.97C168.286 178.337 168.286 180.553 166.919 181.92Z" fill="#D6E1EF"/>
<path d="M147.121 167.07C148.487 168.437 150.703 168.437 152.07 167.07C153.437 165.703 153.437 163.487 152.07 162.121C150.703 160.754 148.487 160.754 147.121 162.121C145.754 163.487 145.754 165.703 147.121 167.07Z" fill="#D6E1EF"/>
<path d="M137.221 152.221C135.854 153.588 133.638 153.588 132.271 152.221C130.905 150.854 130.905 148.638 132.271 147.271C133.638 145.905 135.854 145.905 137.221 147.271C138.588 148.638 138.588 150.854 137.221 152.221Z" fill="#D6E1EF"/>
<path d="M117.422 137.372C118.789 138.739 121.005 138.739 122.372 137.372C123.739 136.005 123.739 133.789 122.372 132.422C121.005 131.055 118.789 131.055 117.422 132.422C116.055 133.789 116.055 136.005 117.422 137.372Z" fill="#D6E1EF"/>
<path d="M107.522 122.523C106.156 123.889 103.94 123.889 102.573 122.523C101.206 121.156 101.206 118.94 102.573 117.573C103.94 116.206 106.156 116.206 107.522 117.573C108.889 118.94 108.889 121.156 107.522 122.523Z" fill="#D6E1EF"/>
<path d="M87.7236 107.673C89.0904 109.04 91.3065 109.04 92.6733 107.673C94.0401 106.306 94.0401 104.09 92.6733 102.724C91.3065 101.357 89.0904 101.357 87.7236 102.724C86.3568 104.09 86.3568 106.306 87.7236 107.673Z" fill="#D6E1EF"/>
<path d="M191.668 181.92C193.035 183.286 195.251 183.286 196.618 181.92C197.985 180.553 197.985 178.337 196.618 176.97C195.251 175.603 193.035 175.603 191.668 176.97C190.302 178.337 190.302 180.553 191.668 181.92Z" fill="#D6E1EF"/>
<path d="M181.769 167.07C180.402 168.437 178.186 168.437 176.819 167.07C175.452 165.703 175.452 163.487 176.819 162.121C178.186 160.754 180.402 160.754 181.769 162.121C183.136 163.487 183.136 165.703 181.769 167.07Z" fill="#D6E1EF"/>
<path d="M161.97 152.221C163.337 153.588 165.553 153.588 166.919 152.221C168.286 150.854 168.286 148.638 166.919 147.271C165.553 145.905 163.337 145.905 161.97 147.271C160.603 148.638 160.603 150.854 161.97 152.221Z" fill="#D6E1EF"/>
<path d="M152.07 137.372C150.703 138.739 148.487 138.739 147.121 137.372C145.754 136.005 145.754 133.789 147.121 132.422C148.487 131.055 150.703 131.055 152.07 132.422C153.437 133.789 153.437 136.005 152.07 137.372Z" fill="#D6E1EF"/>
<path d="M132.271 122.523C133.638 123.889 135.854 123.889 137.221 122.523C138.588 121.156 138.588 118.94 137.221 117.573C135.854 116.206 133.638 116.206 132.271 117.573C130.905 118.94 130.905 121.156 132.271 122.523Z" fill="#D6E1EF"/>
<path d="M122.372 107.673C121.005 109.04 118.789 109.04 117.422 107.673C116.055 106.306 116.055 104.09 117.422 102.724C118.789 101.357 121.005 101.357 122.372 102.724C123.739 104.09 123.739 106.306 122.372 107.673Z" fill="#D6E1EF"/>
<path d="M102.573 92.8241C103.94 94.191 106.156 94.191 107.522 92.8241C108.889 91.4572 108.889 89.2412 107.522 87.8744C106.156 86.5075 103.94 86.5075 102.573 87.8744C101.206 89.2412 101.206 91.4572 102.573 92.8241Z" fill="#D6E1EF"/>
<path d="M206.518 167.07C207.884 168.437 210.1 168.437 211.467 167.07C212.834 165.703 212.834 163.487 211.467 162.121C210.1 160.754 207.884 160.754 206.518 162.121C205.151 163.487 205.151 165.703 206.518 167.07Z" fill="#D6E1EF"/>
<path d="M196.618 152.221C195.251 153.588 193.035 153.588 191.668 152.221C190.302 150.854 190.302 148.638 191.668 147.271C193.035 145.905 195.251 145.905 196.618 147.271C197.985 148.638 197.985 150.854 196.618 152.221Z" fill="#D6E1EF"/>
<path d="M176.819 137.372C178.186 138.739 180.402 138.739 181.769 137.372C183.136 136.005 183.136 133.789 181.769 132.422C180.402 131.055 178.186 131.055 176.819 132.422C175.452 133.789 175.452 136.005 176.819 137.372Z" fill="#D6E1EF"/>
<path d="M166.919 122.523C165.553 123.889 163.337 123.889 161.97 122.523C160.603 121.156 160.603 118.94 161.97 117.573C163.337 116.206 165.553 116.206 166.919 117.573C168.286 118.94 168.286 121.156 166.919 122.523Z" fill="#D6E1EF"/>
<path d="M147.121 107.673C148.487 109.04 150.703 109.04 152.07 107.673C153.437 106.306 153.437 104.09 152.07 102.724C150.703 101.357 148.487 101.357 147.121 102.724C145.754 104.09 145.754 106.306 147.121 107.673Z" fill="#D6E1EF"/>
<path d="M137.221 92.8241C135.854 94.191 133.638 94.191 132.271 92.8241C130.905 91.4572 130.905 89.2412 132.271 87.8744C133.638 86.5075 135.854 86.5075 137.221 87.8744C138.588 89.2412 138.588 91.4572 137.221 92.8241Z" fill="#D6E1EF"/>
<path d="M117.422 77.9748C118.789 79.3418 121.005 79.3418 122.372 77.9748C123.739 76.608 123.739 74.3919 122.372 73.0251C121.005 71.6583 118.789 71.6583 117.422 73.0251C116.055 74.3919 116.055 76.608 117.422 77.9748Z" fill="#D6E1EF"/>
<path d="M226.316 152.221C224.95 153.588 222.733 153.588 221.367 152.221C220 150.854 220 148.638 221.367 147.271C222.733 145.905 224.95 145.905 226.316 147.271C227.683 148.638 227.683 150.854 226.316 152.221Z" fill="#D6E1EF"/>
<path d="M206.518 137.372C207.884 138.739 210.1 138.739 211.467 137.372C212.834 136.005 212.834 133.789 211.467 132.422C210.1 131.055 207.884 131.055 206.518 132.422C205.151 133.789 205.151 136.005 206.518 137.372Z" fill="#D6E1EF"/>
<path d="M196.618 122.523C195.251 123.889 193.035 123.889 191.668 122.523C190.302 121.156 190.302 118.94 191.668 117.573C193.035 116.206 195.251 116.206 196.618 117.573C197.985 118.94 197.985 121.156 196.618 122.523Z" fill="#D6E1EF"/>
<path d="M176.819 107.673C178.186 109.04 180.402 109.04 181.769 107.673C183.136 106.306 183.136 104.09 181.769 102.724C180.402 101.357 178.186 101.357 176.819 102.724C175.452 104.09 175.452 106.306 176.819 107.673Z" fill="#D6E1EF"/>
<path d="M166.919 92.8241C165.553 94.191 163.337 94.191 161.97 92.8241C160.603 91.4572 160.603 89.2412 161.97 87.8744C163.337 86.5075 165.553 86.5075 166.919 87.8744C168.286 89.2412 168.286 91.4572 166.919 92.8241Z" fill="#D6E1EF"/>
<path d="M236.216 137.372C237.583 138.739 239.799 138.739 241.166 137.372C242.533 136.005 242.533 133.789 241.166 132.422C239.799 131.055 237.583 131.055 236.216 132.422C234.849 133.789 234.849 136.005 236.216 137.372Z" fill="#D6E1EF"/>
<path d="M226.316 122.523C224.95 123.889 222.733 123.889 221.367 122.523C220 121.156 220 118.94 221.367 117.573C222.733 116.206 224.95 116.206 226.316 117.573C227.683 118.94 227.683 121.156 226.316 122.523Z" fill="#D6E1EF"/>
<path d="M206.518 107.673C207.884 109.04 210.1 109.04 211.467 107.673C212.834 106.306 212.834 104.09 211.467 102.724C210.1 101.357 207.884 101.357 206.518 102.724C205.151 104.09 205.151 106.306 206.518 107.673Z" fill="#D6E1EF"/>
<path d="M196.618 92.8241C195.251 94.191 193.035 94.191 191.668 92.8241C190.302 91.4572 190.302 89.2412 191.668 87.8744C193.035 86.5075 195.251 86.5075 196.618 87.8744C197.985 89.2412 197.985 91.4572 196.618 92.8241Z" fill="#D6E1EF"/>
<path d="M176.819 77.9748C178.186 79.3418 180.402 79.3418 181.769 77.9748C183.136 76.608 183.136 74.3919 181.769 73.0251C180.402 71.6583 178.186 71.6583 176.819 73.0251C175.452 74.3919 175.452 76.608 176.819 77.9748Z" fill="#D6E1EF"/>
<path d="M241.166 107.673C239.799 109.04 237.583 109.04 236.216 107.673C234.849 106.306 234.849 104.09 236.216 102.724C237.583 101.357 239.799 101.357 241.166 102.724C242.533 104.09 242.533 106.306 241.166 107.673Z" fill="#D6E1EF"/>
<path d="M221.367 92.8241C222.733 94.191 224.95 94.191 226.316 92.8241C227.683 91.4572 227.683 89.2412 226.316 87.8744C224.95 86.5075 222.733 86.5075 221.367 87.8744C220 89.2412 220 91.4572 221.367 92.8241Z" fill="#D6E1EF"/>
<path d="M211.467 77.9748C210.1 79.3418 207.884 79.3418 206.518 77.9748C205.151 76.608 205.151 74.3919 206.518 73.0251C207.884 71.6583 210.1 71.6583 211.467 73.0251C212.834 74.3919 212.834 76.608 211.467 77.9748Z" fill="#D6E1EF"/>
</svg>
