<svg width="300" height="300" viewBox="0 0 300 300" fill="none" xmlns="http://www.w3.org/2000/svg">
<path d="M107.52 236.214C108.887 237.58 108.887 239.796 107.52 241.163C106.153 242.53 103.937 242.53 102.57 241.163C101.203 239.796 101.203 237.58 102.57 236.214C103.937 234.847 106.153 234.847 107.52 236.214ZM92.6708 221.364C94.0376 222.731 94.0376 224.947 92.6708 226.314C91.304 227.681 89.0879 227.681 87.721 226.314C86.3542 224.947 86.3542 222.731 87.721 221.364C89.0879 219.997 91.304 219.997 92.6708 221.364ZM77.8216 206.515C79.1884 207.882 79.1884 210.098 77.8216 211.465C76.4547 212.832 74.2386 212.832 72.8718 211.465C71.505 210.098 71.505 207.882 72.8718 206.515C74.2386 205.148 76.4547 205.148 77.8216 206.515ZM62.9723 191.666C64.3391 193.033 64.3391 195.249 62.9723 196.616C61.6055 197.982 59.3894 197.982 58.0226 196.616C56.6557 195.249 56.6557 193.033 58.0226 191.666C59.3894 190.299 61.6055 190.299 62.9723 191.666ZM137.219 236.214C138.585 237.58 138.585 239.796 137.219 241.163C135.852 242.53 133.636 242.53 132.269 241.163C130.902 239.796 130.902 237.58 132.269 236.214C133.636 234.847 135.852 234.847 137.219 236.214ZM122.369 221.364C123.736 222.731 123.736 224.947 122.369 226.314C121.002 227.681 118.786 227.681 117.42 226.314C116.053 224.947 116.053 222.731 117.42 221.364C118.786 219.997 121.002 219.997 122.369 221.364ZM107.52 206.515C108.887 207.882 108.887 210.098 107.52 211.465C106.153 212.832 103.937 212.832 102.57 211.465C101.203 210.098 101.203 207.882 102.57 206.515C103.937 205.148 106.153 205.148 107.52 206.515ZM92.6708 191.666C94.0376 193.033 94.0376 195.249 92.6708 196.616C91.304 197.982 89.0879 197.982 87.721 196.616C86.3542 195.249 86.3542 193.033 87.721 191.666C89.0879 190.299 91.304 190.299 92.6708 191.666ZM77.8216 176.817C79.1884 178.183 79.1884 180.399 77.8216 181.766C76.4547 183.133 74.2386 183.133 72.8718 181.766C71.505 180.399 71.505 178.183 72.8718 176.817C74.2386 175.45 76.4547 175.45 77.8216 176.817ZM62.9723 161.967C64.3391 163.334 64.3391 165.55 62.9723 166.917C61.6055 168.284 59.3894 168.284 58.0226 166.917C56.6557 165.55 56.6557 163.334 58.0226 161.967C59.3894 160.6 61.6055 160.6 62.9723 161.967ZM166.917 236.214C168.284 237.58 168.284 239.796 166.917 241.163C165.55 242.53 163.334 242.53 161.967 241.163C160.6 239.796 160.6 237.58 161.967 236.214C163.334 234.847 165.55 234.847 166.917 236.214ZM152.068 221.364C153.435 222.731 153.435 224.947 152.068 226.314C150.701 227.681 148.485 227.681 147.118 226.314C145.751 224.947 145.751 222.731 147.118 221.364C148.485 219.997 150.701 219.997 152.068 221.364ZM137.219 206.515C138.585 207.882 138.585 210.098 137.219 211.465C135.852 212.832 133.636 212.832 132.269 211.465C130.902 210.098 130.902 207.882 132.269 206.515C133.636 205.148 135.852 205.148 137.219 206.515ZM122.369 191.666C123.736 193.033 123.736 195.249 122.369 196.616C121.002 197.982 118.786 197.982 117.42 196.616C116.053 195.249 116.053 193.033 117.42 191.666C118.786 190.299 121.002 190.299 122.369 191.666ZM107.52 176.817C108.887 178.183 108.887 180.399 107.52 181.766C106.153 183.133 103.937 183.133 102.57 181.766C101.203 180.399 101.203 178.183 102.57 176.817C103.937 175.45 106.153 175.45 107.52 176.817ZM92.6708 161.967C94.0376 163.334 94.0376 165.55 92.6708 166.917C91.304 168.284 89.0879 168.284 87.721 166.917C86.3542 165.55 86.3542 163.334 87.721 161.967C89.0879 160.6 91.304 160.6 92.6708 161.967ZM77.8216 147.118C79.1884 148.485 79.1884 150.701 77.8216 152.068C76.4547 153.435 74.2386 153.435 72.8718 152.068C71.505 150.701 71.505 148.485 72.8718 147.118C74.2386 145.751 76.4547 145.751 77.8216 147.118ZM62.9723 132.269C64.3391 133.636 64.3391 135.852 62.9723 137.219C61.6055 138.585 59.3894 138.585 58.0226 137.219C56.6557 135.852 56.6557 133.636 58.0226 132.269C59.3894 130.902 61.6055 130.902 62.9723 132.269ZM196.615 236.214C197.982 237.58 197.982 239.796 196.615 241.163C195.249 242.53 193.033 242.53 191.666 241.163C190.299 239.796 190.299 237.58 191.666 236.214C193.033 234.847 195.249 234.847 196.615 236.214ZM181.766 221.364C183.133 222.731 183.133 224.947 181.766 226.314C180.399 227.681 178.183 227.681 176.816 226.314C175.45 224.947 175.45 222.731 176.816 221.364C178.183 219.997 180.399 219.997 181.766 221.364ZM166.917 206.515C168.284 207.882 168.284 210.098 166.917 211.465C165.55 212.832 163.334 212.832 161.967 211.465C160.6 210.098 160.6 207.882 161.967 206.515C163.334 205.148 165.55 205.148 166.917 206.515ZM152.068 191.666C153.435 193.033 153.435 195.249 152.068 196.616C150.701 197.982 148.485 197.982 147.118 196.616C145.751 195.249 145.751 193.033 147.118 191.666C148.485 190.299 150.701 190.299 152.068 191.666ZM137.219 176.817C138.585 178.183 138.585 180.399 137.219 181.766C135.852 183.133 133.636 183.133 132.269 181.766C130.902 180.399 130.902 178.183 132.269 176.817C133.636 175.45 135.852 175.45 137.219 176.817ZM122.369 161.967C123.736 163.334 123.736 165.55 122.369 166.917C121.002 168.284 118.786 168.284 117.42 166.917C116.053 165.55 116.053 163.334 117.42 161.967C118.786 160.6 121.002 160.6 122.369 161.967ZM107.52 147.118C108.887 148.485 108.887 150.701 107.52 152.068C106.153 153.435 103.937 153.435 102.57 152.068C101.203 150.701 101.203 148.485 102.57 147.118C103.937 145.751 106.153 145.751 107.52 147.118ZM92.6708 132.269C94.0376 133.636 94.0376 135.852 92.6708 137.219C91.304 138.585 89.0879 138.585 87.721 137.219C86.3542 135.852 86.3542 133.636 87.721 132.269C89.0879 130.902 91.304 130.902 92.6708 132.269ZM77.8216 117.42C79.1884 118.786 79.1884 121.002 77.8216 122.369C76.4547 123.736 74.2386 123.736 72.8718 122.369C71.505 121.002 71.505 118.786 72.8718 117.42C74.2386 116.053 76.4547 116.053 77.8216 117.42ZM62.9723 102.57C64.3391 103.937 64.3391 106.153 62.9723 107.52C61.6055 108.887 59.3894 108.887 58.0226 107.52C56.6557 106.153 56.6557 103.937 58.0226 102.57C59.3894 101.203 61.6055 101.203 62.9723 102.57ZM211.465 221.364C212.832 222.731 212.832 224.947 211.465 226.314C210.098 227.681 207.882 227.681 206.515 226.314C205.148 224.947 205.148 222.731 206.515 221.364C207.882 219.997 210.098 219.997 211.465 221.364ZM196.615 206.515C197.982 207.882 197.982 210.098 196.615 211.465C195.249 212.832 193.033 212.832 191.666 211.465C190.299 210.098 190.299 207.882 191.666 206.515C193.033 205.148 195.249 205.148 196.615 206.515ZM181.766 191.666C183.133 193.033 183.133 195.249 181.766 196.616C180.399 197.982 178.183 197.982 176.816 196.616C175.45 195.249 175.45 193.033 176.816 191.666C178.183 190.299 180.399 190.299 181.766 191.666ZM166.917 176.817C168.284 178.183 168.284 180.399 166.917 181.766C165.55 183.133 163.334 183.133 161.967 181.766C160.6 180.399 160.6 178.183 161.967 176.817C163.334 175.45 165.55 175.45 166.917 176.817ZM152.068 161.967C153.435 163.334 153.435 165.55 152.068 166.917C150.701 168.284 148.485 168.284 147.118 166.917C145.751 165.55 145.751 163.334 147.118 161.967C148.485 160.6 150.701 160.6 152.068 161.967ZM137.219 147.118C138.585 148.485 138.585 150.701 137.219 152.068C135.852 153.435 133.636 153.435 132.269 152.068C130.902 150.701 130.902 148.485 132.269 147.118C133.636 145.751 135.852 145.751 137.219 147.118ZM122.369 132.269C123.736 133.636 123.736 135.852 122.369 137.219C121.002 138.585 118.786 138.585 117.42 137.219C116.053 135.852 116.053 133.636 117.42 132.269C118.786 130.902 121.002 130.902 122.369 132.269ZM107.52 117.42C108.887 118.786 108.887 121.002 107.52 122.369C106.153 123.736 103.937 123.736 102.57 122.369C101.203 121.002 101.203 118.786 102.57 117.42C103.937 116.053 106.153 116.053 107.52 117.42ZM92.6708 102.57C94.0376 103.937 94.0376 106.153 92.6708 107.52C91.304 108.887 89.0879 108.887 87.721 107.52C86.3542 106.153 86.3542 103.937 87.721 102.57C89.0879 101.203 91.304 101.203 92.6708 102.57ZM77.8216 87.7211C79.1884 89.0879 79.1884 91.304 77.8216 92.6708C76.4547 94.0377 74.2386 94.0377 72.8718 92.6708C71.505 91.304 71.505 89.0879 72.8718 87.7211C74.2386 86.3542 76.4547 86.3542 77.8216 87.7211ZM226.314 206.515C227.681 207.882 227.681 210.098 226.314 211.465C224.947 212.832 222.731 212.832 221.364 211.465C219.997 210.098 219.997 207.882 221.364 206.515C222.731 205.148 224.947 205.148 226.314 206.515ZM211.465 191.666C212.832 193.033 212.832 195.249 211.465 196.616C210.098 197.982 207.882 197.982 206.515 196.616C205.148 195.249 205.148 193.033 206.515 191.666C207.882 190.299 210.098 190.299 211.465 191.666ZM196.615 176.817C197.982 178.183 197.982 180.399 196.615 181.766C195.249 183.133 193.033 183.133 191.666 181.766C190.299 180.399 190.299 178.183 191.666 176.817C193.033 175.45 195.249 175.45 196.615 176.817ZM181.766 161.967C183.133 163.334 183.133 165.55 181.766 166.917C180.399 168.284 178.183 168.284 176.816 166.917C175.45 165.55 175.45 163.334 176.816 161.967C178.183 160.6 180.399 160.6 181.766 161.967ZM166.917 147.118C168.284 148.485 168.284 150.701 166.917 152.068C165.55 153.435 163.334 153.435 161.967 152.068C160.6 150.701 160.6 148.485 161.967 147.118C163.334 145.751 165.55 145.751 166.917 147.118ZM152.068 132.269C153.435 133.636 153.435 135.852 152.068 137.219C150.701 138.585 148.485 138.585 147.118 137.219C145.751 135.852 145.751 133.636 147.118 132.269C148.485 130.902 150.701 130.902 152.068 132.269ZM137.219 117.42C138.585 118.786 138.585 121.002 137.219 122.369C135.852 123.736 133.636 123.736 132.269 122.369C130.902 121.002 130.902 118.786 132.269 117.42C133.636 116.053 135.852 116.053 137.219 117.42ZM122.369 102.57C123.736 103.937 123.736 106.153 122.369 107.52C121.002 108.887 118.786 108.887 117.42 107.52C116.053 106.153 116.053 103.937 117.42 102.57C118.786 101.203 121.002 101.203 122.369 102.57ZM107.52 87.7211C108.887 89.0879 108.887 91.304 107.52 92.6708C106.153 94.0377 103.937 94.0377 102.57 92.6708C101.203 91.304 101.203 89.0879 102.57 87.7211C103.937 86.3542 106.153 86.3542 107.52 87.7211ZM92.6708 72.8718C94.0376 74.2387 94.0376 76.4547 92.6708 77.8216C91.304 79.1884 89.0879 79.1884 87.721 77.8216C86.3542 76.4547 86.3542 74.2387 87.721 72.8718C89.0879 71.505 91.304 71.505 92.6708 72.8718ZM241.163 191.666C242.53 193.033 242.53 195.249 241.163 196.616C239.796 197.982 237.58 197.982 236.213 196.616C234.847 195.249 234.847 193.033 236.213 191.666C237.58 190.299 239.796 190.299 241.163 191.666ZM226.314 176.817C227.681 178.183 227.681 180.399 226.314 181.766C224.947 183.133 222.731 183.133 221.364 181.766C219.997 180.399 219.997 178.183 221.364 176.817C222.731 175.45 224.947 175.45 226.314 176.817ZM211.465 161.967C212.832 163.334 212.832 165.55 211.465 166.917C210.098 168.284 207.882 168.284 206.515 166.917C205.148 165.55 205.148 163.334 206.515 161.967C207.882 160.6 210.098 160.6 211.465 161.967ZM196.615 147.118C197.982 148.485 197.982 150.701 196.615 152.068C195.249 153.435 193.033 153.435 191.666 152.068C190.299 150.701 190.299 148.485 191.666 147.118C193.033 145.751 195.249 145.751 196.615 147.118ZM181.766 132.269C183.133 133.636 183.133 135.852 181.766 137.219C180.399 138.585 178.183 138.585 176.816 137.219C175.45 135.852 175.45 133.636 176.816 132.269C178.183 130.902 180.399 130.902 181.766 132.269ZM166.917 117.42C168.284 118.786 168.284 121.002 166.917 122.369C165.55 123.736 163.334 123.736 161.967 122.369C160.6 121.002 160.6 118.786 161.967 117.42C163.334 116.053 165.55 116.053 166.917 117.42ZM152.068 102.57C153.435 103.937 153.435 106.153 152.068 107.52C150.701 108.887 148.485 108.887 147.118 107.52C145.751 106.153 145.751 103.937 147.118 102.57C148.485 101.203 150.701 101.203 152.068 102.57ZM137.219 87.7211C138.585 89.0879 138.585 91.304 137.219 92.6708C135.852 94.0377 133.636 94.0377 132.269 92.6708C130.902 91.304 130.902 89.0879 132.269 87.7211C133.636 86.3542 135.852 86.3542 137.219 87.7211ZM122.369 72.8718C123.736 74.2387 123.736 76.4547 122.369 77.8216C121.002 79.1884 118.786 79.1884 117.42 77.8216C116.053 76.4547 116.053 74.2387 117.42 72.8718C118.786 71.505 121.002 71.505 122.369 72.8718ZM107.52 58.0226C108.887 59.3894 108.887 61.6055 107.52 62.9723C106.153 64.3392 103.937 64.3392 102.57 62.9723C101.203 61.6055 101.203 59.3894 102.57 58.0226C103.937 56.6558 106.153 56.6558 107.52 58.0226ZM241.163 161.967C242.53 163.334 242.53 165.55 241.163 166.917C239.796 168.284 237.58 168.284 236.213 166.917C234.847 165.55 234.847 163.334 236.213 161.967C237.58 160.6 239.796 160.6 241.163 161.967ZM226.314 147.118C227.681 148.485 227.681 150.701 226.314 152.068C224.947 153.435 222.731 153.435 221.364 152.068C219.997 150.701 219.997 148.485 221.364 147.118C222.731 145.751 224.947 145.751 226.314 147.118ZM211.465 132.269C212.832 133.636 212.832 135.852 211.465 137.219C210.098 138.585 207.882 138.585 206.515 137.219C205.148 135.852 205.148 133.636 206.515 132.269C207.882 130.902 210.098 130.902 211.465 132.269ZM196.615 117.42C197.982 118.786 197.982 121.002 196.615 122.369C195.249 123.736 193.033 123.736 191.666 122.369C190.299 121.002 190.299 118.786 191.666 117.42C193.033 116.053 195.249 116.053 196.615 117.42ZM181.766 102.57C183.133 103.937 183.133 106.153 181.766 107.52C180.399 108.887 178.183 108.887 176.816 107.52C175.45 106.153 175.45 103.937 176.816 102.57C178.183 101.203 180.399 101.203 181.766 102.57ZM166.917 87.7211C168.284 89.0879 168.284 91.304 166.917 92.6708C165.55 94.0377 163.334 94.0377 161.967 92.6708C160.6 91.304 160.6 89.0879 161.967 87.7211C163.334 86.3542 165.55 86.3542 166.917 87.7211ZM152.068 72.8718C153.435 74.2387 153.435 76.4547 152.068 77.8216C150.701 79.1884 148.485 79.1884 147.118 77.8216C145.751 76.4547 145.751 74.2387 147.118 72.8718C148.485 71.505 150.701 71.505 152.068 72.8718ZM137.219 58.0226C138.585 59.3894 138.585 61.6055 137.219 62.9723C135.852 64.3392 133.636 64.3392 132.269 62.9723C130.902 61.6055 130.902 59.3894 132.269 58.0226C133.636 56.6558 135.852 56.6558 137.219 58.0226ZM241.163 132.269C242.53 133.636 242.53 135.852 241.163 137.219C239.796 138.585 237.58 138.585 236.213 137.219C234.847 135.852 234.847 133.636 236.213 132.269C237.58 130.902 239.796 130.902 241.163 132.269ZM226.314 117.42C227.681 118.786 227.681 121.002 226.314 122.369C224.947 123.736 222.731 123.736 221.364 122.369C219.997 121.002 219.997 118.786 221.364 117.42C222.731 116.053 224.947 116.053 226.314 117.42ZM211.465 102.57C212.832 103.937 212.832 106.153 211.465 107.52C210.098 108.887 207.882 108.887 206.515 107.52C205.148 106.153 205.148 103.937 206.515 102.57C207.882 101.203 210.098 101.203 211.465 102.57ZM196.615 87.7211C197.982 89.0879 197.982 91.304 196.615 92.6708C195.249 94.0377 193.033 94.0377 191.666 92.6708C190.299 91.304 190.299 89.0879 191.666 87.7211C193.033 86.3542 195.249 86.3542 196.615 87.7211ZM181.766 72.8718C183.133 74.2387 183.133 76.4547 181.766 77.8216C180.399 79.1884 178.183 79.1884 176.816 77.8216C175.45 76.4547 175.45 74.2387 176.816 72.8718C178.183 71.505 180.399 71.505 181.766 72.8718ZM166.917 58.0226C168.284 59.3894 168.284 61.6055 166.917 62.9723C165.55 64.3392 163.334 64.3392 161.967 62.9723C160.6 61.6055 160.6 59.3894 161.967 58.0226C163.334 56.6558 165.55 56.6558 166.917 58.0226ZM241.163 102.57C242.53 103.937 242.53 106.153 241.163 107.52C239.796 108.887 237.58 108.887 236.213 107.52C234.847 106.153 234.847 103.937 236.213 102.57C237.58 101.203 239.796 101.203 241.163 102.57ZM226.314 87.7211C227.681 89.0879 227.681 91.304 226.314 92.6708C224.947 94.0377 222.731 94.0377 221.364 92.6708C219.997 91.304 219.997 89.0879 221.364 87.7211C222.731 86.3542 224.947 86.3542 226.314 87.7211ZM211.465 72.8718C212.832 74.2387 212.832 76.4547 211.465 77.8216C210.098 79.1884 207.882 79.1884 206.515 77.8216C205.148 76.4547 205.148 74.2387 206.515 72.8718C207.882 71.505 210.098 71.505 211.465 72.8718ZM196.615 58.0226C197.982 59.3894 197.982 61.6055 196.615 62.9723C195.249 64.3392 193.033 64.3392 191.666 62.9723C190.299 61.6055 190.299 59.3894 191.666 58.0226C193.033 56.6558 195.249 56.6558 196.615 58.0226Z" fill="#D6E1EF"/>
</svg>
