<svg width="300" height="300" viewBox="0 0 300 300" fill="none" xmlns="http://www.w3.org/2000/svg">
<path d="M93.5302 221.817C94.897 223.183 94.897 225.399 93.5302 226.766C92.1633 228.133 89.9473 228.133 88.5804 226.766C87.2136 225.399 87.2136 223.183 88.5804 221.817C89.9473 220.45 92.1633 220.45 93.5302 221.817ZM78.6809 206.967C80.0478 208.334 80.0478 210.55 78.6809 211.917C77.3141 213.284 75.098 213.284 73.7312 211.917C72.3644 210.55 72.3644 208.334 73.7312 206.967C75.098 205.6 77.3141 205.6 78.6809 206.967ZM123.229 221.817C124.595 223.183 124.595 225.399 123.229 226.766C121.862 228.133 119.646 228.133 118.279 226.766C116.912 225.399 116.912 223.183 118.279 221.817C119.646 220.45 121.862 220.45 123.229 221.817ZM108.379 206.967C109.746 208.334 109.746 210.55 108.379 211.917C107.013 213.284 104.797 213.284 103.43 211.917C102.063 210.55 102.063 208.334 103.43 206.967C104.797 205.6 107.013 205.6 108.379 206.967ZM93.5302 192.118C94.897 193.485 94.897 195.701 93.5302 197.068C92.1633 198.435 89.9473 198.435 88.5804 197.068C87.2136 195.701 87.2136 193.485 88.5804 192.118C89.9473 190.751 92.1633 190.751 93.5302 192.118ZM78.6809 177.269C80.0478 178.636 80.0478 180.852 78.6809 182.219C77.3141 183.585 75.098 183.585 73.7312 182.219C72.3644 180.852 72.3644 178.636 73.7312 177.269C75.098 175.902 77.3141 175.902 78.6809 177.269ZM138.078 206.967C139.445 208.334 139.445 210.55 138.078 211.917C136.711 213.284 134.495 213.284 133.128 211.917C131.761 210.55 131.761 208.334 133.128 206.967C134.495 205.6 136.711 205.6 138.078 206.967ZM123.229 192.118C124.595 193.485 124.595 195.701 123.229 197.068C121.862 198.435 119.646 198.435 118.279 197.068C116.912 195.701 116.912 193.485 118.279 192.118C119.646 190.751 121.862 190.751 123.229 192.118ZM108.379 177.269C109.746 178.636 109.746 180.852 108.379 182.219C107.013 183.585 104.797 183.585 103.43 182.219C102.063 180.852 102.063 178.636 103.43 177.269C104.797 175.902 107.013 175.902 108.379 177.269ZM93.5302 162.42C94.897 163.786 94.897 166.002 93.5302 167.369C92.1633 168.736 89.9473 168.736 88.5804 167.369C87.2136 166.002 87.2136 163.786 88.5804 162.42C89.9473 161.053 92.1633 161.053 93.5302 162.42ZM152.927 192.118C154.294 193.485 154.294 195.701 152.927 197.068C151.56 198.435 149.344 198.435 147.977 197.068C146.611 195.701 146.611 193.485 147.977 192.118C149.344 190.751 151.56 190.751 152.927 192.118ZM138.078 177.269C139.445 178.636 139.445 180.852 138.078 182.219C136.711 183.585 134.495 183.585 133.128 182.219C131.761 180.852 131.761 178.636 133.128 177.269C134.495 175.902 136.711 175.902 138.078 177.269ZM123.229 162.42C124.595 163.786 124.595 166.002 123.229 167.369C121.862 168.736 119.646 168.736 118.279 167.369C116.912 166.002 116.912 163.786 118.279 162.42C119.646 161.053 121.862 161.053 123.229 162.42ZM108.379 147.57C109.746 148.937 109.746 151.153 108.379 152.52C107.013 153.887 104.797 153.887 103.43 152.52C102.063 151.153 102.063 148.937 103.43 147.57C104.797 146.203 107.013 146.203 108.379 147.57ZM167.776 177.269C169.143 178.636 169.143 180.852 167.776 182.219C166.41 183.585 164.193 183.585 162.827 182.219C161.46 180.852 161.46 178.636 162.827 177.269C164.193 175.902 166.41 175.902 167.776 177.269ZM152.927 162.42C154.294 163.786 154.294 166.002 152.927 167.369C151.56 168.736 149.344 168.736 147.977 167.369C146.611 166.002 146.611 163.786 147.977 162.42C149.344 161.053 151.56 161.053 152.927 162.42ZM138.078 147.57C139.445 148.937 139.445 151.153 138.078 152.52C136.711 153.887 134.495 153.887 133.128 152.52C131.761 151.153 131.761 148.937 133.128 147.57C134.495 146.203 136.711 146.203 138.078 147.57ZM123.229 132.721C124.595 134.088 124.595 136.304 123.229 137.671C121.862 139.038 119.646 139.038 118.279 137.671C116.912 136.304 116.912 134.088 118.279 132.721C119.646 131.354 121.862 131.354 123.229 132.721ZM182.626 162.42C183.992 163.786 183.992 166.002 182.626 167.369C181.259 168.736 179.043 168.736 177.676 167.369C176.309 166.002 176.309 163.786 177.676 162.42C179.043 161.053 181.259 161.053 182.626 162.42ZM167.776 147.57C169.143 148.937 169.143 151.153 167.776 152.52C166.41 153.887 164.193 153.887 162.827 152.52C161.46 151.153 161.46 148.937 162.827 147.57C164.193 146.203 166.41 146.203 167.776 147.57ZM152.927 132.721C154.294 134.088 154.294 136.304 152.927 137.671C151.56 139.038 149.344 139.038 147.977 137.671C146.611 136.304 146.611 134.088 147.977 132.721C149.344 131.354 151.56 131.354 152.927 132.721ZM138.078 117.872C139.445 119.239 139.445 121.455 138.078 122.822C136.711 124.188 134.495 124.188 133.128 122.822C131.761 121.455 131.761 119.239 133.128 117.872C134.495 116.505 136.711 116.505 138.078 117.872ZM197.475 147.57C198.842 148.937 198.842 151.153 197.475 152.52C196.108 153.887 193.892 153.887 192.525 152.52C191.158 151.153 191.158 148.937 192.525 147.57C193.892 146.203 196.108 146.203 197.475 147.57ZM182.626 132.721C183.992 134.088 183.992 136.304 182.626 137.671C181.259 139.038 179.043 139.038 177.676 137.671C176.309 136.304 176.309 134.088 177.676 132.721C179.043 131.354 181.259 131.354 182.626 132.721ZM167.776 117.872C169.143 119.239 169.143 121.455 167.776 122.822C166.41 124.188 164.193 124.188 162.827 122.822C161.46 121.455 161.46 119.239 162.827 117.872C164.193 116.505 166.41 116.505 167.776 117.872ZM152.927 103.023C154.294 104.389 154.294 106.606 152.927 107.972C151.56 109.339 149.344 109.339 147.977 107.972C146.611 106.606 146.611 104.389 147.977 103.023C149.344 101.656 151.56 101.656 152.927 103.023ZM212.324 132.721C213.691 134.088 213.691 136.304 212.324 137.671C210.957 139.038 208.741 139.038 207.374 137.671C206.008 136.304 206.008 134.088 207.374 132.721C208.741 131.354 210.957 131.354 212.324 132.721ZM197.475 117.872C198.842 119.239 198.842 121.455 197.475 122.822C196.108 124.188 193.892 124.188 192.525 122.822C191.158 121.455 191.158 119.239 192.525 117.872C193.892 116.505 196.108 116.505 197.475 117.872ZM182.626 103.023C183.992 104.389 183.992 106.606 182.626 107.972C181.259 109.339 179.043 109.339 177.676 107.972C176.309 106.606 176.309 104.389 177.676 103.023C179.043 101.656 181.259 101.656 182.626 103.023ZM167.776 88.1734C169.143 89.5402 169.143 91.7563 167.776 93.1231C166.41 94.4899 164.193 94.4899 162.827 93.1231C161.46 91.7563 161.46 89.5402 162.827 88.1734C164.193 86.8065 166.41 86.8065 167.776 88.1734ZM227.173 117.872C228.54 119.239 228.54 121.455 227.173 122.822C225.807 124.188 223.59 124.188 222.224 122.822C220.857 121.455 220.857 119.239 222.224 117.872C223.59 116.505 225.807 116.505 227.173 117.872ZM212.324 103.023C213.691 104.389 213.691 106.606 212.324 107.972C210.957 109.339 208.741 109.339 207.374 107.972C206.008 106.606 206.008 104.389 207.374 103.023C208.741 101.656 210.957 101.656 212.324 103.023ZM197.475 88.1734C198.842 89.5402 198.842 91.7563 197.475 93.1231C196.108 94.4899 193.892 94.4899 192.525 93.1231C191.158 91.7563 191.158 89.5402 192.525 88.1734C193.892 86.8065 196.108 86.8065 197.475 88.1734ZM182.626 73.3241C183.992 74.691 183.992 76.907 182.626 78.2739C181.259 79.6407 179.043 79.6407 177.676 78.2739C176.309 76.907 176.309 74.691 177.676 73.3241C179.043 71.9573 181.259 71.9573 182.626 73.3241ZM227.173 88.1734C228.54 89.5402 228.54 91.7563 227.173 93.1231C225.807 94.4899 223.59 94.4899 222.224 93.1231C220.857 91.7563 220.857 89.5402 222.224 88.1734C223.59 86.8065 225.807 86.8065 227.173 88.1734ZM212.324 73.3241C213.691 74.691 213.691 76.907 212.324 78.2739C210.957 79.6407 208.741 79.6407 207.374 78.2739C206.008 76.907 206.008 74.691 207.374 73.3241C208.741 71.9573 210.957 71.9573 212.324 73.3241Z" fill="#D6E1EF"/>
</svg>
