<svg width="300" height="300" viewBox="0 0 300 300" fill="none" xmlns="http://www.w3.org/2000/svg">
<path d="M93.3216 222.015C94.6884 223.382 94.6884 225.598 93.3216 226.965C91.9547 228.332 89.7386 228.332 88.3718 226.965C87.005 225.598 87.005 223.382 88.3718 222.015C89.7386 220.648 91.9547 220.648 93.3216 222.015ZM78.4723 207.166C79.8391 208.533 79.8391 210.749 78.4723 212.116C77.1055 213.482 74.8894 213.482 73.5226 212.116C72.1557 210.749 72.1557 208.533 73.5226 207.166C74.8894 205.799 77.1055 205.799 78.4723 207.166ZM123.02 222.015C124.387 223.382 124.387 225.598 123.02 226.965C121.653 228.332 119.437 228.332 118.07 226.965C116.703 225.598 116.703 223.382 118.07 222.015C119.437 220.648 121.653 220.648 123.02 222.015ZM108.171 207.166C109.538 208.533 109.538 210.749 108.171 212.116C106.804 213.482 104.588 213.482 103.221 212.116C101.854 210.749 101.854 208.533 103.221 207.166C104.588 205.799 106.804 205.799 108.171 207.166ZM93.3216 192.317C94.6884 193.683 94.6884 195.899 93.3216 197.266C91.9547 198.633 89.7386 198.633 88.3718 197.266C87.005 195.899 87.005 193.683 88.3718 192.317C89.7386 190.95 91.9547 190.95 93.3216 192.317ZM78.4723 177.467C79.8391 178.834 79.8391 181.05 78.4723 182.417C77.1055 183.784 74.8894 183.784 73.5226 182.417C72.1557 181.05 72.1557 178.834 73.5226 177.467C74.8894 176.1 77.1055 176.1 78.4723 177.467ZM137.869 207.166C139.236 208.533 139.236 210.749 137.869 212.116C136.502 213.482 134.286 213.482 132.92 212.116C131.553 210.749 131.553 208.533 132.92 207.166C134.286 205.799 136.502 205.799 137.869 207.166ZM123.02 192.317C124.387 193.683 124.387 195.899 123.02 197.266C121.653 198.633 119.437 198.633 118.07 197.266C116.703 195.899 116.703 193.683 118.07 192.317C119.437 190.95 121.653 190.95 123.02 192.317ZM108.171 177.467C109.538 178.834 109.538 181.05 108.171 182.417C106.804 183.784 104.588 183.784 103.221 182.417C101.854 181.05 101.854 178.834 103.221 177.467C104.588 176.1 106.804 176.1 108.171 177.467ZM93.3216 162.618C94.6884 163.985 94.6884 166.201 93.3216 167.568C91.9547 168.935 89.7386 168.935 88.3718 167.568C87.005 166.201 87.005 163.985 88.3718 162.618C89.7386 161.251 91.9547 161.251 93.3216 162.618ZM182.417 222.015C183.784 223.382 183.784 225.598 182.417 226.965C181.05 228.332 178.834 228.332 177.467 226.965C176.1 225.598 176.1 223.382 177.467 222.015C178.834 220.648 181.05 220.648 182.417 222.015ZM167.568 207.166C168.935 208.533 168.935 210.749 167.568 212.116C166.201 213.482 163.985 213.482 162.618 212.116C161.251 210.749 161.251 208.533 162.618 207.166C163.985 205.799 166.201 205.799 167.568 207.166ZM152.719 192.317C154.085 193.683 154.085 195.899 152.719 197.266C151.352 198.633 149.136 198.633 147.769 197.266C146.402 195.899 146.402 193.683 147.769 192.317C149.136 190.95 151.352 190.95 152.719 192.317ZM137.869 177.467C139.236 178.834 139.236 181.05 137.869 182.417C136.502 183.784 134.286 183.784 132.92 182.417C131.553 181.05 131.553 178.834 132.92 177.467C134.286 176.1 136.502 176.1 137.869 177.467ZM123.02 162.618C124.387 163.985 124.387 166.201 123.02 167.568C121.653 168.935 119.437 168.935 118.07 167.568C116.703 166.201 116.703 163.985 118.07 162.618C119.437 161.251 121.653 161.251 123.02 162.618ZM108.171 147.769C109.538 149.136 109.538 151.352 108.171 152.719C106.804 154.085 104.588 154.085 103.221 152.719C101.854 151.352 101.854 149.136 103.221 147.769C104.588 146.402 106.804 146.402 108.171 147.769ZM93.3216 132.92C94.6884 134.286 94.6884 136.502 93.3216 137.869C91.9547 139.236 89.7386 139.236 88.3718 137.869C87.005 136.502 87.005 134.286 88.3718 132.92C89.7386 131.553 91.9547 131.553 93.3216 132.92ZM78.4723 118.07C79.8391 119.437 79.8391 121.653 78.4723 123.02C77.1055 124.387 74.8894 124.387 73.5226 123.02C72.1557 121.653 72.1557 119.437 73.5226 118.07C74.8894 116.703 77.1055 116.703 78.4723 118.07ZM212.115 222.015C213.482 223.382 213.482 225.598 212.115 226.965C210.749 228.332 208.533 228.332 207.166 226.965C205.799 225.598 205.799 223.382 207.166 222.015C208.533 220.648 210.749 220.648 212.115 222.015ZM197.266 207.166C198.633 208.533 198.633 210.749 197.266 212.116C195.899 213.482 193.683 213.482 192.316 212.116C190.95 210.749 190.95 208.533 192.316 207.166C193.683 205.799 195.899 205.799 197.266 207.166ZM182.417 192.317C183.784 193.683 183.784 195.899 182.417 197.266C181.05 198.633 178.834 198.633 177.467 197.266C176.1 195.899 176.1 193.683 177.467 192.317C178.834 190.95 181.05 190.95 182.417 192.317ZM167.568 177.467C168.935 178.834 168.935 181.05 167.568 182.417C166.201 183.784 163.985 183.784 162.618 182.417C161.251 181.05 161.251 178.834 162.618 177.467C163.985 176.1 166.201 176.1 167.568 177.467ZM123.02 132.92C124.387 134.286 124.387 136.502 123.02 137.869C121.653 139.236 119.437 139.236 118.07 137.869C116.703 136.502 116.703 134.286 118.07 132.92C119.437 131.553 121.653 131.553 123.02 132.92ZM108.171 118.07C109.538 119.437 109.538 121.653 108.171 123.02C106.804 124.387 104.588 124.387 103.221 123.02C101.854 121.653 101.854 119.437 103.221 118.07C104.588 116.703 106.804 116.703 108.171 118.07ZM93.3216 103.221C94.6884 104.588 94.6884 106.804 93.3216 108.171C91.9547 109.538 89.7386 109.538 88.3718 108.171C87.005 106.804 87.005 104.588 88.3718 103.221C89.7386 101.854 91.9547 101.854 93.3216 103.221ZM78.4723 88.3718C79.8391 89.7387 79.8391 91.9547 78.4723 93.3216C77.1055 94.6884 74.8894 94.6884 73.5226 93.3216C72.1557 91.9547 72.1557 89.7387 73.5226 88.3718C74.8894 87.005 77.1055 87.005 78.4723 88.3718ZM226.965 207.166C228.332 208.533 228.332 210.749 226.965 212.116C225.598 213.482 223.382 213.482 222.015 212.116C220.648 210.749 220.648 208.533 222.015 207.166C223.382 205.799 225.598 205.799 226.965 207.166ZM212.115 192.317C213.482 193.683 213.482 195.899 212.115 197.266C210.749 198.633 208.533 198.633 207.166 197.266C205.799 195.899 205.799 193.683 207.166 192.317C208.533 190.95 210.749 190.95 212.115 192.317ZM197.266 177.467C198.633 178.834 198.633 181.05 197.266 182.417C195.899 183.784 193.683 183.784 192.316 182.417C190.95 181.05 190.95 178.834 192.316 177.467C193.683 176.1 195.899 176.1 197.266 177.467ZM182.417 162.618C183.784 163.985 183.784 166.201 182.417 167.568C181.05 168.935 178.834 168.935 177.467 167.568C176.1 166.201 176.1 163.985 177.467 162.618C178.834 161.251 181.05 161.251 182.417 162.618ZM137.869 118.07C139.236 119.437 139.236 121.653 137.869 123.02C136.502 124.387 134.286 124.387 132.92 123.02C131.553 121.653 131.553 119.437 132.92 118.07C134.286 116.703 136.502 116.703 137.869 118.07ZM123.02 103.221C124.387 104.588 124.387 106.804 123.02 108.171C121.653 109.538 119.437 109.538 118.07 108.171C116.703 106.804 116.703 104.588 118.07 103.221C119.437 101.854 121.653 101.854 123.02 103.221ZM108.171 88.3718C109.538 89.7387 109.538 91.9547 108.171 93.3216C106.804 94.6884 104.588 94.6884 103.221 93.3216C101.854 91.9547 101.854 89.7387 103.221 88.3718C104.588 87.005 106.804 87.005 108.171 88.3718ZM93.3216 73.5226C94.6884 74.8894 94.6884 77.1055 93.3216 78.4723C91.9547 79.8392 89.7386 79.8392 88.3718 78.4723C87.005 77.1055 87.005 74.8894 88.3718 73.5226C89.7386 72.1558 91.9547 72.1558 93.3216 73.5226ZM226.965 177.467C228.332 178.834 228.332 181.05 226.965 182.417C225.598 183.784 223.382 183.784 222.015 182.417C220.648 181.05 220.648 178.834 222.015 177.467C223.382 176.1 225.598 176.1 226.965 177.467ZM212.115 162.618C213.482 163.985 213.482 166.201 212.115 167.568C210.749 168.935 208.533 168.935 207.166 167.568C205.799 166.201 205.799 163.985 207.166 162.618C208.533 161.251 210.749 161.251 212.115 162.618ZM197.266 147.769C198.633 149.136 198.633 151.352 197.266 152.719C195.899 154.085 193.683 154.085 192.316 152.719C190.95 151.352 190.95 149.136 192.316 147.769C193.683 146.402 195.899 146.402 197.266 147.769ZM182.417 132.92C183.784 134.286 183.784 136.502 182.417 137.869C181.05 139.236 178.834 139.236 177.467 137.869C176.1 136.502 176.1 134.286 177.467 132.92C178.834 131.553 181.05 131.553 182.417 132.92ZM167.568 118.07C168.935 119.437 168.935 121.653 167.568 123.02C166.201 124.387 163.985 124.387 162.618 123.02C161.251 121.653 161.251 119.437 162.618 118.07C163.985 116.703 166.201 116.703 167.568 118.07ZM152.719 103.221C154.085 104.588 154.085 106.804 152.719 108.171C151.352 109.538 149.136 109.538 147.769 108.171C146.402 106.804 146.402 104.588 147.769 103.221C149.136 101.854 151.352 101.854 152.719 103.221ZM137.869 88.3718C139.236 89.7387 139.236 91.9547 137.869 93.3216C136.502 94.6884 134.286 94.6884 132.92 93.3216C131.553 91.9547 131.553 89.7387 132.92 88.3718C134.286 87.005 136.502 87.005 137.869 88.3718ZM123.02 73.5226C124.387 74.8894 124.387 77.1055 123.02 78.4723C121.653 79.8392 119.437 79.8392 118.07 78.4723C116.703 77.1055 116.703 74.8894 118.07 73.5226C119.437 72.1558 121.653 72.1558 123.02 73.5226ZM212.115 132.92C213.482 134.286 213.482 136.502 212.115 137.869C210.749 139.236 208.533 139.236 207.166 137.869C205.799 136.502 205.799 134.286 207.166 132.92C208.533 131.553 210.749 131.553 212.115 132.92ZM197.266 118.07C198.633 119.437 198.633 121.653 197.266 123.02C195.899 124.387 193.683 124.387 192.316 123.02C190.95 121.653 190.95 119.437 192.316 118.07C193.683 116.703 195.899 116.703 197.266 118.07ZM182.417 103.221C183.784 104.588 183.784 106.804 182.417 108.171C181.05 109.538 178.834 109.538 177.467 108.171C176.1 106.804 176.1 104.588 177.467 103.221C178.834 101.854 181.05 101.854 182.417 103.221ZM167.568 88.3718C168.935 89.7387 168.935 91.9547 167.568 93.3216C166.201 94.6884 163.985 94.6884 162.618 93.3216C161.251 91.9547 161.251 89.7387 162.618 88.3718C163.985 87.005 166.201 87.005 167.568 88.3718ZM226.965 118.07C228.332 119.437 228.332 121.653 226.965 123.02C225.598 124.387 223.382 124.387 222.015 123.02C220.648 121.653 220.648 119.437 222.015 118.07C223.382 116.703 225.598 116.703 226.965 118.07ZM212.115 103.221C213.482 104.588 213.482 106.804 212.115 108.171C210.749 109.538 208.533 109.538 207.166 108.171C205.799 106.804 205.799 104.588 207.166 103.221C208.533 101.854 210.749 101.854 212.115 103.221ZM197.266 88.3718C198.633 89.7387 198.633 91.9547 197.266 93.3216C195.899 94.6884 193.683 94.6884 192.316 93.3216C190.95 91.9547 190.95 89.7387 192.316 88.3718C193.683 87.005 195.899 87.005 197.266 88.3718ZM182.417 73.5226C183.784 74.8894 183.784 77.1055 182.417 78.4723C181.05 79.8392 178.834 79.8392 177.467 78.4723C176.1 77.1055 176.1 74.8894 177.467 73.5226C178.834 72.1558 181.05 72.1558 182.417 73.5226ZM226.965 88.3718C228.332 89.7387 228.332 91.9547 226.965 93.3216C225.598 94.6884 223.382 94.6884 222.015 93.3216C220.648 91.9547 220.648 89.7387 222.015 88.3718C223.382 87.005 225.598 87.005 226.965 88.3718ZM212.115 73.5226C213.482 74.8894 213.482 77.1055 212.115 78.4723C210.749 79.8392 208.533 79.8392 207.166 78.4723C205.799 77.1055 205.799 74.8894 207.166 73.5226C208.533 72.1558 210.749 72.1558 212.115 73.5226Z" fill="#D6E1EF"/>
</svg>
