<svg width="300" height="300" viewBox="0 0 300 300" fill="none" xmlns="http://www.w3.org/2000/svg">
<path d="M167.372 236.121C168.739 237.487 168.739 239.704 167.372 241.07C166.005 242.437 163.789 242.437 162.422 241.07C161.055 239.704 161.055 237.487 162.422 236.121C163.789 234.754 166.005 234.754 167.372 236.121ZM137.673 236.121C139.04 237.487 139.04 239.704 137.673 241.07C136.307 242.437 134.09 242.437 132.724 241.07C131.357 239.704 131.357 237.487 132.724 236.121C134.09 234.754 136.307 234.754 137.673 236.121ZM182.221 221.271C183.588 222.638 183.588 224.854 182.221 226.221C180.854 227.588 178.638 227.588 177.271 226.221C175.904 224.854 175.904 222.638 177.271 221.271C178.638 219.904 180.854 219.904 182.221 221.271ZM152.523 221.271C153.889 222.638 153.889 224.854 152.523 226.221C151.156 227.588 148.94 227.588 147.573 226.221C146.206 224.854 146.206 222.638 147.573 221.271C148.94 219.904 151.156 219.904 152.523 221.271ZM122.824 221.271C124.191 222.638 124.191 224.854 122.824 226.221C121.457 227.588 119.241 227.588 117.874 226.221C116.508 224.854 116.508 222.638 117.874 221.271C119.241 219.904 121.457 219.904 122.824 221.271ZM197.07 206.422C198.437 207.789 198.437 210.005 197.07 211.372C195.703 212.739 193.487 212.739 192.121 211.372C190.754 210.005 190.754 207.789 192.121 206.422C193.487 205.055 195.703 205.055 197.07 206.422ZM167.372 206.422C168.739 207.789 168.739 210.005 167.372 211.372C166.005 212.739 163.789 212.739 162.422 211.372C161.055 210.005 161.055 207.789 162.422 206.422C163.789 205.055 166.005 205.055 167.372 206.422ZM137.673 206.422C139.04 207.789 139.04 210.005 137.673 211.372C136.307 212.739 134.09 212.739 132.724 211.372C131.357 210.005 131.357 207.789 132.724 206.422C134.09 205.055 136.307 205.055 137.673 206.422ZM107.975 206.422C109.342 207.789 109.342 210.005 107.975 211.372C106.608 212.739 104.392 212.739 103.025 211.372C101.658 210.005 101.658 207.789 103.025 206.422C104.392 205.055 106.608 205.055 107.975 206.422ZM182.221 191.573C183.588 192.94 183.588 195.156 182.221 196.523C180.854 197.889 178.638 197.889 177.271 196.523C175.904 195.156 175.904 192.94 177.271 191.573C178.638 190.206 180.854 190.206 182.221 191.573ZM152.523 191.573C153.889 192.94 153.889 195.156 152.523 196.523C151.156 197.889 148.94 197.889 147.573 196.523C146.206 195.156 146.206 192.94 147.573 191.573C148.94 190.206 151.156 190.206 152.523 191.573ZM122.824 191.573C124.191 192.94 124.191 195.156 122.824 196.523C121.457 197.889 119.241 197.889 117.874 196.523C116.508 195.156 116.508 192.94 117.874 191.573C119.241 190.206 121.457 190.206 122.824 191.573ZM197.07 176.724C198.437 178.09 198.437 180.307 197.07 181.673C195.703 183.04 193.487 183.04 192.121 181.673C190.754 180.307 190.754 178.09 192.121 176.724C193.487 175.357 195.703 175.357 197.07 176.724ZM167.372 176.724C168.739 178.09 168.739 180.307 167.372 181.673C166.005 183.04 163.789 183.04 162.422 181.673C161.055 180.307 161.055 178.09 162.422 176.724C163.789 175.357 166.005 175.357 167.372 176.724ZM137.673 176.724C139.04 178.09 139.04 180.307 137.673 181.673C136.307 183.04 134.09 183.04 132.724 181.673C131.357 180.307 131.357 178.09 132.724 176.724C134.09 175.357 136.307 175.357 137.673 176.724ZM107.975 176.724C109.342 178.09 109.342 180.307 107.975 181.673C106.608 183.04 104.392 183.04 103.025 181.673C101.658 180.307 101.658 178.09 103.025 176.724C104.392 175.357 106.608 175.357 107.975 176.724ZM182.221 161.874C183.588 163.241 183.588 165.457 182.221 166.824C180.854 168.191 178.638 168.191 177.271 166.824C175.904 165.457 175.904 163.241 177.271 161.874C178.638 160.508 180.854 160.508 182.221 161.874ZM152.523 161.874C153.889 163.241 153.889 165.457 152.523 166.824C151.156 168.191 148.94 168.191 147.573 166.824C146.206 165.457 146.206 163.241 147.573 161.874C148.94 160.508 151.156 160.508 152.523 161.874ZM122.824 161.874C124.191 163.241 124.191 165.457 122.824 166.824C121.457 168.191 119.241 168.191 117.874 166.824C116.508 165.457 116.508 163.241 117.874 161.874C119.241 160.508 121.457 160.508 122.824 161.874ZM137.673 147.121C139.04 148.487 139.04 150.704 137.673 152.07C136.307 153.437 134.09 153.437 132.724 152.07C131.357 150.704 131.357 148.487 132.724 147.121C134.09 145.754 136.307 145.754 137.673 147.121ZM167.372 147.121C168.739 148.487 168.739 150.704 167.372 152.07C166.005 153.437 163.789 153.437 162.422 152.07C161.055 150.704 161.055 148.487 162.422 147.121C163.789 145.754 166.005 145.754 167.372 147.121ZM182.221 132.271C183.588 133.638 183.588 135.854 182.221 137.221C180.854 138.588 178.638 138.588 177.271 137.221C175.904 135.854 175.904 133.638 177.271 132.271C178.638 130.904 180.854 130.904 182.221 132.271ZM152.523 132.271C153.889 133.638 153.889 135.854 152.523 137.221C151.156 138.588 148.94 138.588 147.573 137.221C146.206 135.854 146.206 133.638 147.573 132.271C148.94 130.904 151.156 130.904 152.523 132.271ZM122.824 132.271C124.191 133.638 124.191 135.854 122.824 137.221C121.457 138.588 119.241 138.588 117.874 137.221C116.508 135.854 116.508 133.638 117.874 132.271C119.241 130.904 121.457 130.904 122.824 132.271ZM197.07 117.422C198.437 118.789 198.437 121.005 197.07 122.372C195.703 123.739 193.487 123.739 192.121 122.372C190.754 121.005 190.754 118.789 192.121 117.422C193.487 116.055 195.703 116.055 197.07 117.422ZM167.372 117.422C168.739 118.789 168.739 121.005 167.372 122.372C166.005 123.739 163.789 123.739 162.422 122.372C161.055 121.005 161.055 118.789 162.422 117.422C163.789 116.055 166.005 116.055 167.372 117.422ZM137.673 117.422C139.04 118.789 139.04 121.005 137.673 122.372C136.307 123.739 134.09 123.739 132.724 122.372C131.357 121.005 131.357 118.789 132.724 117.422C134.09 116.055 136.307 116.055 137.673 117.422ZM107.975 117.422C109.342 118.789 109.342 121.005 107.975 122.372C106.608 123.739 104.392 123.739 103.025 122.372C101.658 121.005 101.658 118.789 103.025 117.422C104.392 116.055 106.608 116.055 107.975 117.422ZM182.221 102.573C183.588 103.94 183.588 106.156 182.221 107.523C180.854 108.889 178.638 108.889 177.271 107.523C175.904 106.156 175.904 103.94 177.271 102.573C178.638 101.206 180.854 101.206 182.221 102.573ZM152.523 102.573C153.889 103.94 153.889 106.156 152.523 107.523C151.156 108.889 148.94 108.889 147.573 107.523C146.206 106.156 146.206 103.94 147.573 102.573C148.94 101.206 151.156 101.206 152.523 102.573ZM122.824 102.573C124.191 103.94 124.191 106.156 122.824 107.523C121.457 108.889 119.241 108.889 117.874 107.523C116.508 106.156 116.508 103.94 117.874 102.573C119.241 101.206 121.457 101.206 122.824 102.573ZM197.07 87.7236C198.437 89.0904 198.437 91.3065 197.07 92.6734C195.703 94.0402 193.487 94.0402 192.121 92.6734C190.754 91.3065 190.754 89.0904 192.121 87.7236C193.487 86.3568 195.703 86.3568 197.07 87.7236ZM167.372 87.7236C168.739 89.0904 168.739 91.3065 167.372 92.6734C166.005 94.0402 163.789 94.0402 162.422 92.6734C161.055 91.3065 161.055 89.0904 162.422 87.7236C163.789 86.3568 166.005 86.3568 167.372 87.7236ZM137.673 87.7236C139.04 89.0904 139.04 91.3065 137.673 92.6734C136.307 94.0402 134.09 94.0402 132.724 92.6734C131.357 91.3065 131.357 89.0904 132.724 87.7236C134.09 86.3568 136.307 86.3568 137.673 87.7236ZM107.975 87.7236C109.342 89.0904 109.342 91.3065 107.975 92.6734C106.608 94.0402 104.392 94.0402 103.025 92.6734C101.658 91.3065 101.658 89.0904 103.025 87.7236C104.392 86.3568 106.608 86.3568 107.975 87.7236ZM182.221 72.8744C183.588 74.2412 183.588 76.4573 182.221 77.8241C180.854 79.1909 178.638 79.1909 177.271 77.8241C175.904 76.4573 175.904 74.2412 177.271 72.8744C178.638 71.5075 180.854 71.5075 182.221 72.8744ZM152.523 72.8744C153.889 74.2412 153.889 76.4573 152.523 77.8241C151.156 79.1909 148.94 79.1909 147.573 77.8241C146.206 76.4573 146.206 74.2412 147.573 72.8744C148.94 71.5075 151.156 71.5075 152.523 72.8744ZM122.824 72.8744C124.191 74.2412 124.191 76.4573 122.824 77.8241C121.457 79.1909 119.241 79.1909 117.874 77.8241C116.508 76.4573 116.508 74.2412 117.874 72.8744C119.241 71.5075 121.457 71.5075 122.824 72.8744ZM137.673 58.0251C139.04 59.392 139.04 61.608 137.673 62.9749C136.307 64.3417 134.09 64.3417 132.724 62.9749C131.357 61.608 131.357 59.392 132.724 58.0251C134.09 56.6583 136.307 56.6583 137.673 58.0251ZM167.372 58.0251C168.739 59.392 168.739 61.608 167.372 62.9749C166.005 64.3417 163.789 64.3417 162.422 62.9749C161.055 61.608 161.055 59.392 162.422 58.0251C163.789 56.6583 166.005 56.6583 167.372 58.0251Z" fill="#D6E1EF"/>
</svg>
