<svg width="120" height="120" viewBox="0 0 120 120" fill="none" xmlns="http://www.w3.org/2000/svg">
<g id="apple-1">
<g id="apple-1_2">
<path id="Layer 1" fill-rule="evenodd" clip-rule="evenodd" d="M71.7839 111C78.3946 111 98.6322 95.8304 104.342 66.82C109.095 42.6699 97.3647 35.966 89.3811 32.4579C81.4127 28.9564 62.3085 32.8622 60.22 32.8622C58.1315 32.8622 39.0274 28.9564 31.059 32.4579C23.0753 35.966 11.3455 42.6699 16.0984 66.82C21.8078 95.8304 42.0455 111 48.6562 111C52.3689 111 56.5029 107.71 60.22 107.675C63.9372 107.71 68.0712 111 71.7839 111Z" stroke="#E83E8C" stroke-width="4" stroke-linecap="round" stroke-linejoin="round"/>
<path id="Layer 2" d="M79.2983 96.472C82.393 93.9084 85.648 90.2727 88.3169 85.5088" stroke="#E83E8C" stroke-width="4" stroke-linecap="round" stroke-linejoin="round"/>
<path id="Path" d="M23.0018 57.8057C22.9824 59.5595 23.1166 61.49 23.434 63.618C23.5422 64.3437 23.6718 65.0924 23.8238 65.8648" stroke="#E83E8C" stroke-width="3.5" stroke-linecap="round" stroke-linejoin="round"/>
<path id="Path_2" d="M40.2183 39.061C38.2242 39.1813 36.4147 39.4914 35.0443 40.0935C31.9036 41.4736 27.9898 43.5131 25.4925 47.7545C25.0831 48.4498 24.7118 49.2043 24.3882 50.0247" stroke="#E83E8C" stroke-width="3.5" stroke-linecap="round" stroke-linejoin="round"/>
<path id="Layer 4" d="M59.9795 31C59.9795 31 61.1836 23.2324 58.0918 17.1162C55 11 47.5488 11 47.5488 11" stroke="#E83E8C" stroke-width="4" stroke-linecap="round" stroke-linejoin="round"/>
<path id="Layer 5" fill-rule="evenodd" clip-rule="evenodd" d="M75.0564 23.6105C67.9916 25.5035 60.6322 20.9467 60.6322 20.9467C60.6322 20.9467 64.7272 13.3207 71.792 11.4276C78.8568 9.53464 86.2162 14.0915 86.2162 14.0915C86.2162 14.0915 82.1212 21.7175 75.0564 23.6105V23.6105Z" stroke="#E83E8C" stroke-width="4" stroke-linecap="round" stroke-linejoin="round"/>
</g>
</g>
</svg>
