<svg width="120" height="120" viewBox="0 0 120 120" fill="none" xmlns="http://www.w3.org/2000/svg">
<g id="baseball">
<g id="baseball_2">
<path id="Layer 1" fill-rule="evenodd" clip-rule="evenodd" d="M92.9806 109.621C101.626 109.621 108.634 102.542 108.634 93.8104C108.634 85.0786 101.626 78 92.9806 78C84.3352 78 77.3267 85.0786 77.3267 93.8104C77.3267 102.542 84.3352 109.621 92.9806 109.621Z" stroke="#E83E8C" stroke-width="4" stroke-linecap="round" stroke-linejoin="round"/>
<path id="Layer 2" d="M82.3194 82.5288C82.3194 82.5288 86.9404 85.9397 86.9404 94.0133C86.9404 102.087 82.3194 105.498 82.3194 105.498" stroke="#E83E8C" stroke-width="4" stroke-linecap="round" stroke-linejoin="round"/>
<path id="Layer 3" d="M103.642 82.5288C103.642 82.5288 99.0206 85.9397 99.0206 94.0133C99.0206 102.087 103.642 105.498 103.642 105.498" stroke="#E83E8C" stroke-width="4" stroke-linecap="round" stroke-linejoin="round"/>
<path id="Layer 4" fill-rule="evenodd" clip-rule="evenodd" d="M88.1694 14.1631C92.6954 8.98231 100.227 8.75894 105.034 13.6147L106.233 14.8253C111.037 19.6774 110.798 27.3073 105.69 31.8591L27.0756 101.919C27.9557 103.995 27.561 106.498 25.882 108.194C23.6644 110.434 20.1089 110.418 17.9064 108.194L12.5905 102.825C10.395 100.607 10.3877 96.9936 12.59 94.7693C14.2818 93.0606 16.7522 92.6646 18.8065 93.5605L88.1694 14.1631V14.1631V14.1631Z" stroke="#E83E8C" stroke-width="4" stroke-linecap="round" stroke-linejoin="round"/>
<path id="Layer 5" fill-rule="evenodd" clip-rule="evenodd" d="M56.4642 75.7281L35.636 94.2897L26.3569 84.9178L44.7347 63.8813L56.4642 75.7281V75.7281V75.7281Z" stroke="#E83E8C" stroke-width="4" stroke-linecap="round" stroke-linejoin="round"/>
</g>
</g>
</svg>
