<svg width="120" height="120" viewBox="0 0 120 120" fill="none" xmlns="http://www.w3.org/2000/svg">
<g id="bell-christmas">
<g id="bell-christmas_2">
<path id="Layer 1" fill-rule="evenodd" clip-rule="evenodd" d="M84.6806 61.5751V72.49C84.6806 82.3563 89.1414 91.2061 96.2026 97.2243V97.2243C89.0145 94.7098 75.2466 93.0091 59.4431 93.0091C43.6396 93.0091 29.8717 94.7098 22.6836 97.2243C29.7448 91.2061 34.2056 82.3563 34.2056 72.49V61.9115C34.3181 61.8746 34.431 61.836 34.5443 61.7959C43.9638 57.9208 51.4538 49.0348 55.2503 43.8001V43.8001C56.5222 44.5283 57.9948 44.9445 59.5644 44.9445C61.1816 44.9445 62.6959 44.5027 63.9938 43.7329C67.802 48.9322 75.2737 57.7062 84.6622 61.5685C84.6683 61.5707 84.6744 61.5729 84.6806 61.5751V61.5751Z" stroke="#E83E8C" stroke-width="4" stroke-linecap="round" stroke-linejoin="round"/>
<path id="Layer 2" fill-rule="evenodd" clip-rule="evenodd" d="M59.443 109.749C82.8207 109.749 101.772 106.074 101.772 101.541C101.772 97.0082 82.8207 93.3335 59.443 93.3335C36.0653 93.3335 17.1139 97.0082 17.1139 101.541C17.1139 106.074 36.0653 109.749 59.443 109.749V109.749Z" stroke="#E83E8C" stroke-width="4" stroke-linecap="round" stroke-linejoin="round"/>
<path id="Layer 3" fill-rule="evenodd" clip-rule="evenodd" d="M55.3219 43.7011C51.5485 48.9221 44.0234 57.8963 34.5442 61.796C23.0387 65.8695 15.9202 53.5395 16.0007 36.123C16.0812 18.7066 23.0381 6.72462 34.5442 10.7984C43.9594 14.6717 51.4466 23.3634 55.2447 28.4802C52.6201 29.9853 50.8515 32.82 50.8515 36.0688C50.8515 39.3493 52.6549 42.2076 55.3219 43.7011V43.7011Z" stroke="#E83E8C" stroke-width="4" stroke-linecap="round" stroke-linejoin="round"/>
<path id="Layer 4" fill-rule="evenodd" clip-rule="evenodd" d="M63.9208 43.6332C67.706 48.8192 75.2133 57.6814 84.6621 61.5686C96.1676 65.6421 103.286 53.374 103.206 36.0381C103.125 18.7023 96.1682 6.72504 84.6621 10.7988C75.2721 14.6618 67.7997 23.2778 63.9922 28.3746C66.6367 29.8744 68.4216 32.7201 68.4216 35.9839C68.4216 39.2769 66.6045 42.1443 63.9208 43.6332V43.6332Z" stroke="#E83E8C" stroke-width="4" stroke-linecap="round" stroke-linejoin="round"/>
<path id="Layer 5" fill-rule="evenodd" clip-rule="evenodd" d="M59.5643 44.9444C64.3763 44.9444 68.2772 41.0331 68.2772 36.2083C68.2772 31.3835 64.3763 27.4722 59.5643 27.4722C54.7523 27.4722 50.8514 31.3835 50.8514 36.2083C50.8514 41.0331 54.7523 44.9444 59.5643 44.9444Z" stroke="#E83E8C" stroke-width="4" stroke-linecap="round" stroke-linejoin="round"/>
<path id="Layer 6" d="M67.8416 33.1509C67.8416 33.1509 71.5082 31.1825 73.4054 30.6017C74.8527 30.1586 77.7992 29.9512 77.7992 29.9512" stroke="#E83E8C" stroke-width="4" stroke-linecap="round" stroke-linejoin="round"/>
<path id="Layer 7" d="M67.8416 39.5605C67.8416 39.5605 71.5082 41.5289 73.4054 42.1097C74.8527 42.5528 77.7992 42.7602 77.7992 42.7602" stroke="#E83E8C" stroke-width="4" stroke-linecap="round" stroke-linejoin="round"/>
<path id="Layer 8" d="M51.2872 33.1509C51.2872 33.1509 47.6205 31.1825 45.7233 30.6017C44.276 30.1586 41.3295 29.9512 41.3295 29.9512" stroke="#E83E8C" stroke-width="4" stroke-linecap="round" stroke-linejoin="round"/>
<path id="Layer 9" d="M51.2872 39.5605C51.2872 39.5605 47.6205 41.5289 45.7233 42.1097C44.276 42.5528 41.3295 42.7602 41.3295 42.7602" stroke="#E83E8C" stroke-width="4" stroke-linecap="round" stroke-linejoin="round"/>
</g>
</g>
</svg>
