<svg width="120" height="120" viewBox="0 0 120 120" fill="none" xmlns="http://www.w3.org/2000/svg">
<g id="book">
<g id="book_2">
<path id="Layer 1" fill-rule="evenodd" clip-rule="evenodd" d="M106.909 18.1597V98.4286H70.9265C64.8919 98.4286 60 103.313 60 109.364V102.503V101.006C60 95.4695 64.4763 91 69.9981 91H100V18.1597L106.909 18.1597Z" stroke="#E83E8C" stroke-width="4" stroke-linecap="round" stroke-linejoin="round"/>
<path id="Layer 2" fill-rule="evenodd" clip-rule="evenodd" d="M60 20.9968C60 15.4856 64.4729 11 69.9905 11H100V91H69.9981C64.4763 91 60 95.4695 60 101.006V102.503V20.9968Z" stroke="#E83E8C" stroke-width="4" stroke-linecap="round" stroke-linejoin="round"/>
<path id="Layer 3" fill-rule="evenodd" clip-rule="evenodd" d="M13.0908 18.1597V98.4286H49.0735C55.108 98.4286 60 103.313 60 109.364V102.503V101.006C60 95.4695 55.5237 91 50.0019 91H20V18.1597L13.0908 18.1597V18.1597Z" stroke="#E83E8C" stroke-width="4" stroke-linecap="round" stroke-linejoin="round"/>
<path id="Layer 4" fill-rule="evenodd" clip-rule="evenodd" d="M60 20.9968C60 15.4856 55.5271 11 50.0095 11H20V91H50.0019C55.5237 91 60 95.4695 60 101.006V102.503V20.9968V20.9968Z" stroke="#E83E8C" stroke-width="4" stroke-linecap="round" stroke-linejoin="round"/>
</g>
</g>
</svg>
