<svg width="120" height="120" viewBox="0 0 120 120" fill="none" xmlns="http://www.w3.org/2000/svg">
<g id="bow">
<g id="bow_2">
<path id="Layer 1" fill-rule="evenodd" clip-rule="evenodd" d="M55.1308 61.5767C50.8 67.5531 42.1632 77.8256 31.2837 82.2894C18.0786 86.9523 9.90835 72.8385 10.0008 52.9023C10.0932 32.9662 18.0778 19.2508 31.2837 23.9139C42.0898 28.3476 50.6831 38.2967 55.0422 44.1537C52.0299 45.8767 50 49.1214 50 52.8402C50 56.5954 52.0698 59.8671 55.1308 61.5767V61.5767Z" stroke="#E83E8C" stroke-width="4" stroke-linecap="round" stroke-linejoin="round"/>
<path id="Layer 2" fill-rule="evenodd" clip-rule="evenodd" d="M65 61.4989C69.3444 67.4353 77.9607 77.5796 88.8054 82.0291C102.011 86.692 110.181 72.649 110.088 52.8051C109.996 32.9613 102.011 19.2512 88.8054 23.9144C78.0282 28.3362 69.452 38.1987 65.0819 44.0329C68.1171 45.7497 70.1657 49.0071 70.1657 52.743C70.1657 56.5124 68.0802 59.7947 65 61.4989H65Z" stroke="#E83E8C" stroke-width="4" stroke-linecap="round" stroke-linejoin="round"/>
<path id="Layer 3" fill-rule="evenodd" clip-rule="evenodd" d="M60 63C65.5228 63 70 58.5228 70 53C70 47.4772 65.5228 43 60 43C54.4772 43 50 47.4772 50 53C50 58.5228 54.4772 63 60 63Z" stroke="#E83E8C" stroke-width="4" stroke-linecap="round" stroke-linejoin="round"/>
<path id="Layer 4" d="M69.5 49.5C69.5 49.5 73.7083 47.2469 75.8857 46.582C77.5469 46.0748 80.9287 45.8374 80.9287 45.8374" stroke="#E83E8C" stroke-width="4" stroke-linecap="round" stroke-linejoin="round"/>
<path id="Layer 5" d="M69.5 56.8374C69.5 56.8374 73.7083 59.0905 75.8857 59.7554C77.5469 60.2626 80.9287 60.5 80.9287 60.5" stroke="#E83E8C" stroke-width="4" stroke-linecap="round" stroke-linejoin="round"/>
<path id="Layer 6" d="M50.5 49.5C50.5 49.5 46.2917 47.2469 44.1143 46.582C42.4531 46.0748 39.0713 45.8374 39.0713 45.8374" stroke="#E83E8C" stroke-width="4" stroke-linecap="round" stroke-linejoin="round"/>
<path id="Layer 7" d="M50.5 56.8374C50.5 56.8374 46.2917 59.0905 44.1143 59.7554C42.4531 60.2626 39.0713 60.5 39.0713 60.5" stroke="#E83E8C" stroke-width="4" stroke-linecap="round" stroke-linejoin="round"/>
<path id="Layer 8" fill-rule="evenodd" clip-rule="evenodd" d="M41.6202 96.6231C43.1511 97.695 47.868 93.5999 52.1558 87.4763C56.4435 81.3528 57.1475 74.4478 57.1475 74.4478C57.1475 74.4478 50.8997 77.471 46.612 83.5945C42.3242 89.718 40.0893 95.5511 41.6202 96.6231V96.6231Z" stroke="#E83E8C" stroke-width="4" stroke-linecap="round" stroke-linejoin="round"/>
<path id="Layer 9" fill-rule="evenodd" clip-rule="evenodd" d="M78.1475 96.6231C76.6166 97.695 71.8997 93.5999 67.612 87.4763C63.3242 81.3528 62.6202 74.4478 62.6202 74.4478C62.6202 74.4478 68.868 77.471 73.1558 83.5945C77.4435 89.718 79.6784 95.5511 78.1475 96.6231V96.6231Z" stroke="#E83E8C" stroke-width="4" stroke-linecap="round" stroke-linejoin="round"/>
</g>
</g>
</svg>
