<svg width="120" height="120" viewBox="0 0 120 120" fill="none" xmlns="http://www.w3.org/2000/svg">
<g id="box-gift">
<g id="box-gift_2">
<path id="Layer 1" d="M10 34C10 32.3431 11.3431 31 13 31H107C108.657 31 110 32.3431 110 34V51H10V34Z" stroke="#E83E8C" stroke-width="4" stroke-linecap="round" stroke-linejoin="round"/>
<rect id="Layer 2" x="15" y="51" width="90" height="60" stroke="#E83E8C" stroke-width="4" stroke-linecap="round" stroke-linejoin="round"/>
<path id="Layer 3" fill-rule="evenodd" clip-rule="evenodd" d="M50.0606 12.7455C45.6084 9.15863 38.5107 10.9646 35.2385 16.6323C28.9829 31.9442 59.9638 30.9075 59.9638 30.9075C59.9638 30.9075 56.4881 17.9237 50.0606 12.7455V12.7455Z" stroke="#E83E8C" stroke-width="4" stroke-linecap="round" stroke-linejoin="round"/>
<path id="Layer 4" fill-rule="evenodd" clip-rule="evenodd" d="M70.3249 12.7455C74.7771 9.15863 81.8748 10.9646 85.147 16.6323C91.4026 31.9442 60.4217 30.9075 60.4217 30.9075C60.4217 30.9075 63.8974 17.9237 70.3249 12.7455V12.7455Z" stroke="#E83E8C" stroke-width="4" stroke-linecap="round" stroke-linejoin="round"/>
<path id="Layer 5" fill-rule="evenodd" clip-rule="evenodd" d="M39.0228 73.3113C39.0077 73.4139 39 73.5206 39 73.6316C39 92.5789 60.0526 101 60.0526 101C60.0526 101 81.1053 92.5789 81.1053 73.6316C81.1053 73.5204 81.0976 73.4134 81.0825 73.3106C81.0976 73.0687 81.1053 72.8247 81.1053 72.5789C81.1053 66.1841 75.9212 61 69.5263 61C65.6102 61 62.1481 62.9441 60.0526 65.9198C57.9571 62.9441 54.4951 61 50.5789 61C44.1841 61 39 66.1841 39 72.5789C39 72.8249 39.0077 73.0691 39.0228 73.3113V73.3113Z" stroke="#E83E8C" stroke-width="4" stroke-linecap="round" stroke-linejoin="round"/>
</g>
</g>
</svg>
