<svg width="120" height="120" viewBox="0 0 120 120" fill="none" xmlns="http://www.w3.org/2000/svg">
<g id="boy-smile">
<g id="boy-smile_2">
<path id="Layer 1" fill-rule="evenodd" clip-rule="evenodd" d="M99.2826 53.5345C96.1989 34.5175 79.7359 20 59.8896 20C40.0764 20 23.6352 34.4693 20.5121 53.4396C19.5862 53.0284 18.5614 52.8 17.4834 52.8C13.3505 52.8 10 56.1579 10 60.3C10 64.4421 13.3505 67.8 17.4834 67.8C18.5987 67.8 19.657 67.5555 20.6078 67.1171C23.9579 85.8131 40.2706 100 59.8896 100C79.5427 100 95.8781 85.7637 99.1888 67.0195C100.191 67.5191 101.321 67.8 102.517 67.8C106.65 67.8 110 64.4421 110 60.3C110 56.1579 106.65 52.8 102.517 52.8C101.358 52.8 100.261 53.0637 99.2826 53.5345V53.5345Z" stroke="#E83E8C" stroke-width="4" stroke-linecap="round" stroke-linejoin="round"/>
<path id="Layer 2" fill-rule="evenodd" clip-rule="evenodd" d="M58.1606 20.1923C66.284 45.719 90.6445 35.9767 90.6445 35.9767C83.3973 26.275 71.1062 19.1953 58.1606 20.1923Z" stroke="#E83E8C" stroke-width="4" stroke-linecap="round" stroke-linejoin="round"/>
<path id="Layer 3" fill-rule="evenodd" clip-rule="evenodd" d="M60.4449 20.0936C52.3215 45.6204 27.961 35.8781 27.961 35.8781C35.2082 26.1764 47.4993 19.0966 60.4449 20.0936V20.0936Z" stroke="#E83E8C" stroke-width="4" stroke-linecap="round" stroke-linejoin="round"/>
<path id="Layer 4" d="M49.7564 54.3508C49.7564 51.2624 47.2776 48.7588 44.2198 48.7588C41.162 48.7588 38.6832 51.2624 38.6832 54.3508" stroke="#E83E8C" stroke-width="4" stroke-linecap="round" stroke-linejoin="round"/>
<path id="Layer 5" d="M81.3944 54.3508C81.3944 51.2624 78.9155 48.7588 75.8577 48.7588C72.7999 48.7588 70.3211 51.2624 70.3211 54.3508" stroke="#E83E8C" stroke-width="4" stroke-linecap="round" stroke-linejoin="round"/>
<path id="Layer 6" d="M71.1121 67.9316C71.1121 74.1084 66.1544 79.1156 60.0388 79.1156C53.9232 79.1156 48.9655 74.1084 48.9655 67.9316" stroke="#E83E8C" stroke-width="4" stroke-linecap="round" stroke-linejoin="round"/>
</g>
</g>
</svg>
