<svg width="120" height="120" viewBox="0 0 120 120" fill="none" xmlns="http://www.w3.org/2000/svg">
<g id="branch">
<g id="branch_2">
<path id="Layer 1" d="M13.2393 109.505C65.3975 96.8203 83.1717 71.8057 83.1717 29.2593" stroke="#E83E8C" stroke-width="4" stroke-linecap="round" stroke-linejoin="round"/>
<path id="Layer 2" fill-rule="evenodd" clip-rule="evenodd" d="M82.2891 44.2832C82.2891 44.2832 92.7677 36.9063 92.7677 27.3333C92.7677 17.7604 83.6515 10 83.6515 10C83.6515 10 74.5354 17.7604 74.5354 27.3333C74.5354 36.9063 82.2891 44.2832 82.2891 44.2832Z" stroke="#E83E8C" stroke-width="4" stroke-linecap="round" stroke-linejoin="round"/>
<path id="Layer 3" fill-rule="evenodd" clip-rule="evenodd" d="M75.1941 69.5015C75.1941 69.5015 85.706 75.2311 94.6431 71.8005C103.58 68.3699 107.558 57.0781 107.558 57.0781C107.558 57.0781 97.0463 51.3485 88.1092 54.7791C79.1721 58.2098 75.1941 69.5015 75.1941 69.5015V69.5015Z" stroke="#E83E8C" stroke-width="4" stroke-linecap="round" stroke-linejoin="round"/>
<path id="Layer 4" d="M75.4949 69.7036C75.4949 69.7036 79.6653 66.5015 87.6895 64.834" stroke="#E83E8C" stroke-width="4" stroke-linecap="round" stroke-linejoin="round"/>
<path id="Layer 5" d="M49.5859 96.7213C49.5859 96.7213 57.0515 96.0973 63.2261 99.1983" stroke="#E83E8C" stroke-width="4" stroke-linecap="round" stroke-linejoin="round"/>
<path id="Layer 6" fill-rule="evenodd" clip-rule="evenodd" d="M49.3382 96.4381C49.3382 96.4381 54.849 107.066 64.1766 109.22C73.5041 111.373 83.1163 104.236 83.1163 104.236C83.1163 104.236 77.6055 93.6082 68.2779 91.4547C58.9504 89.3013 49.3382 96.4381 49.3382 96.4381V96.4381Z" stroke="#E83E8C" stroke-width="4" stroke-linecap="round" stroke-linejoin="round"/>
<path id="Layer 7" fill-rule="evenodd" clip-rule="evenodd" d="M63.7236 84.5865C63.7236 84.5865 53.5056 78.3478 52.0081 68.8927C50.5106 59.4376 58.3005 50.3467 58.3005 50.3467C58.3005 50.3467 68.5184 56.5855 70.016 66.0405C71.5135 75.4956 63.7236 84.5865 63.7236 84.5865V84.5865Z" stroke="#E83E8C" stroke-width="4" stroke-linecap="round" stroke-linejoin="round"/>
<path id="Layer 8" d="M64.111 83.4099C64.111 83.4099 64.6953 75.623 62.226 69.375" stroke="#E83E8C" stroke-width="4" stroke-linecap="round" stroke-linejoin="round"/>
</g>
</g>
</svg>
