<svg width="120" height="120" viewBox="0 0 120 120" fill="none" xmlns="http://www.w3.org/2000/svg">
<g id="bread">
<g id="bread_2">
<path id="Layer 1" fill-rule="evenodd" clip-rule="evenodd" d="M28.9236 95.9173C29.6009 102.096 34.5165 107 40.1827 107H89.8172C95.6889 107 100.757 101.733 101.133 95.2361L103.442 55.4292C107.401 52.7817 110 48.3239 110 43.271C110 36.8691 105.735 31.934 99.9451 29.7275C99.9814 30.1449 100 30.5691 100 30.9999C100 36.1536 97.4009 40.7002 93.4419 43.4006L91.1334 84.0014C90.7566 90.628 85.6889 95.9999 79.8172 95.9999H30.1827C29.7583 95.9999 29.3381 95.9718 28.9236 95.9173H28.9236Z" stroke="#E83E8C" stroke-width="4" stroke-linecap="round" stroke-linejoin="round"/>
<path id="Layer 2" fill-rule="evenodd" clip-rule="evenodd" d="M91.1334 84.0016C90.7566 90.6281 85.689 96 79.8172 96H30.1828C24.3098 96 19.2433 90.6267 18.8666 84.0016L16.558 43.4007C12.5991 40.7003 10 36.1537 10 31C10 22.7157 16.558 16.9805 25 16C25.3523 15.9591 40.3267 14.4043 55 14.4043C69.6733 14.4043 84.6472 15.9636 85 16C93.1353 16.8396 100 22.7157 100 31C100 36.1537 97.4009 40.7003 93.442 43.4007L91.1334 84.0016Z" stroke="#E83E8C" stroke-width="4" stroke-linecap="round" stroke-linejoin="round"/>
</g>
</g>
</svg>
