<svg width="120" height="120" viewBox="0 0 120 120" fill="none" xmlns="http://www.w3.org/2000/svg">
<g id="card-2">
<g id="card-2_2">
<path id="Layer 1" d="M100.909 33.0909V29.4531C100.909 26.4362 98.4698 24 95.4609 24H15.4482C12.4433 24 10 26.4414 10 29.4531V82.1833C10 85.2001 12.4393 87.6364 15.4482 87.6364H19.0909" stroke="#E83E8C" stroke-width="4" stroke-linecap="round" stroke-linejoin="round"/>
<rect id="Layer 2" x="19.0909" y="33.0909" width="90.9091" height="63.6364" rx="6" stroke="#E83E8C" stroke-width="4" stroke-linecap="round" stroke-linejoin="round"/>
<path id="Layer 3" fill-rule="evenodd" clip-rule="evenodd" d="M85.9091 71.4485C87.4894 70.2009 89.4954 69.4546 91.6783 69.4546C96.7763 69.4546 100.909 73.5247 100.909 78.5455C100.909 83.5663 96.7763 87.6364 91.6783 87.6364C89.4954 87.6364 87.4894 86.8901 85.9091 85.6425C84.3288 86.8901 82.3228 87.6364 80.1399 87.6364C75.0418 87.6364 70.9091 83.5663 70.9091 78.5455C70.9091 73.5247 75.0418 69.4546 80.1399 69.4546C82.3228 69.4546 84.3288 70.2009 85.9091 71.4485V71.4485Z" stroke="#E83E8C" stroke-width="4" stroke-linecap="round" stroke-linejoin="round"/>
<path id="Layer 4" d="M28.1818 58.5454H100.909" stroke="#E83E8C" stroke-width="4" stroke-linecap="round" stroke-linejoin="round"/>
<path id="Layer 5" d="M28.1818 85.8181H39.0909" stroke="#E83E8C" stroke-width="4" stroke-linecap="round" stroke-linejoin="round"/>
<path id="Layer 6" d="M44.5455 85.8181H55.4545" stroke="#E83E8C" stroke-width="4" stroke-linecap="round" stroke-linejoin="round"/>
<path id="Layer 7" d="M28.1818 76.7273H55.4545" stroke="#E83E8C" stroke-width="4" stroke-linecap="round" stroke-linejoin="round"/>
<path id="Layer 8" d="M28.1818 44H36.3636" stroke="#E83E8C" stroke-width="4" stroke-linecap="round" stroke-linejoin="round"/>
</g>
</g>
</svg>
