<svg width="120" height="120" viewBox="0 0 120 120" fill="none" xmlns="http://www.w3.org/2000/svg">
<g id="cash-income">
<g id="cash-income_2">
<rect id="Layer 1" x="10" y="10" width="100" height="60" stroke="#E83E8C" stroke-width="4" stroke-linecap="round" stroke-linejoin="round"/>
<path id="Layer 2" fill-rule="evenodd" clip-rule="evenodd" d="M30 60H90C90 54.4772 94.4772 50 100 50V30C94.4772 30 90 25.5228 90 20H30C30 25.5228 25.5228 30 20 30V50C25.5228 50 30 54.4772 30 60V60Z" stroke="#E83E8C" stroke-width="4" stroke-linecap="round" stroke-linejoin="round"/>
<path id="Layer 3" fill-rule="evenodd" clip-rule="evenodd" d="M60 60C68.2843 60 75 51.0457 75 40C75 28.9543 68.2843 20 60 20C51.7157 20 45 28.9543 45 40C45 51.0457 51.7157 60 60 60Z" stroke="#E83E8C" stroke-width="4" stroke-linecap="round" stroke-linejoin="round"/>
<path id="Layer 4" fill-rule="evenodd" clip-rule="evenodd" d="M54.1697 95.418H46L60 110L74 95.418H65.854V78H54.1697V95.418V95.418Z" stroke="#E83E8C" stroke-width="4" stroke-linecap="round" stroke-linejoin="round"/>
<path id="Layer 5" fill-rule="evenodd" clip-rule="evenodd" d="M35 43C36.6569 43 38 41.6569 38 40C38 38.3431 36.6569 37 35 37C33.3431 37 32 38.3431 32 40C32 41.6569 33.3431 43 35 43Z" stroke="#E83E8C" stroke-width="4" stroke-linecap="round" stroke-linejoin="round"/>
<path id="Layer 6" fill-rule="evenodd" clip-rule="evenodd" d="M85 43C86.6569 43 88 41.6569 88 40C88 38.3431 86.6569 37 85 37C83.3431 37 82 38.3431 82 40C82 41.6569 83.3431 43 85 43Z" stroke="#E83E8C" stroke-width="4" stroke-linecap="round" stroke-linejoin="round"/>
</g>
</g>
</svg>
