<svg width="120" height="120" viewBox="0 0 120 120" fill="none" xmlns="http://www.w3.org/2000/svg">
<g id="charts-up">
<g id="charts-up_2">
<rect id="Layer 1" x="10" y="87" width="16" height="24" stroke="#E83E8C" stroke-width="4" stroke-linecap="round" stroke-linejoin="round"/>
<rect id="Layer 2" x="38" y="76" width="16" height="35" stroke="#E83E8C" stroke-width="4" stroke-linecap="round" stroke-linejoin="round"/>
<rect id="Layer 3" x="66" y="60" width="16" height="51" stroke="#E83E8C" stroke-width="4" stroke-linecap="round" stroke-linejoin="round"/>
<rect id="Layer 4" x="94" y="43" width="16" height="68" stroke="#E83E8C" stroke-width="4" stroke-linecap="round" stroke-linejoin="round"/>
<path id="Layer 5" fill-rule="evenodd" clip-rule="evenodd" d="M18 76C21.3137 76 24 73.3137 24 70C24 66.6863 21.3137 64 18 64C14.6863 64 12 66.6863 12 70C12 73.3137 14.6863 76 18 76Z" stroke="#E83E8C" stroke-width="4" stroke-linecap="round" stroke-linejoin="round"/>
<path id="Layer 6" d="M52.6631 47.3678L67.719 43.7617" stroke="#E83E8C" stroke-width="4" stroke-linecap="round" stroke-linejoin="round"/>
<path id="Layer 7" d="M23.027 66.1424L40.3077 53.3828" stroke="#E83E8C" stroke-width="4" stroke-linecap="round" stroke-linejoin="round"/>
<path id="Layer 8" d="M78.9702 37.9779L97.8874 21.2285" stroke="#E83E8C" stroke-width="4" stroke-linecap="round" stroke-linejoin="round"/>
<path id="Layer 9" fill-rule="evenodd" clip-rule="evenodd" d="M46 55C49.3137 55 52 52.3137 52 49C52 45.6863 49.3137 43 46 43C42.6863 43 40 45.6863 40 49C40 52.3137 42.6863 55 46 55Z" stroke="#E83E8C" stroke-width="4" stroke-linecap="round" stroke-linejoin="round"/>
<path id="Layer 10" fill-rule="evenodd" clip-rule="evenodd" d="M74 48C77.3137 48 80 45.3137 80 42C80 38.6863 77.3137 36 74 36C70.6863 36 68 38.6863 68 42C68 45.3137 70.6863 48 74 48Z" stroke="#E83E8C" stroke-width="4" stroke-linecap="round" stroke-linejoin="round"/>
<path id="Layer 11" fill-rule="evenodd" clip-rule="evenodd" d="M102 22C105.314 22 108 19.3137 108 16C108 12.6863 105.314 10 102 10C98.6863 10 96 12.6863 96 16C96 19.3137 98.6863 22 102 22Z" stroke="#E83E8C" stroke-width="4" stroke-linecap="round" stroke-linejoin="round"/>
</g>
</g>
</svg>
