<svg width="120" height="120" viewBox="0 0 120 120" fill="none" xmlns="http://www.w3.org/2000/svg">
<g id="chart">
<g id="chart_2">
<path id="Layer 1" fill-rule="evenodd" clip-rule="evenodd" d="M35.1139 47.9959C35.1139 46.3413 33.7698 45 32.1231 45H13.1046C11.4529 45 10.1139 46.3373 10.1139 47.9959V105H35.1139V47.9959V47.9959Z" stroke="#E83E8C" stroke-width="4" stroke-linecap="round" stroke-linejoin="round"/>
<path id="Layer 2" fill-rule="evenodd" clip-rule="evenodd" d="M60.1139 17.9945C60.1139 16.3407 58.7698 15 57.1231 15H38.1046C36.4529 15 35.1139 16.3421 35.1139 17.9945V105H60.1139V17.9945V17.9945Z" stroke="#E83E8C" stroke-width="4" stroke-linecap="round" stroke-linejoin="round"/>
<path id="Layer 3" fill-rule="evenodd" clip-rule="evenodd" d="M85.1139 68.0065C85.1139 66.3461 83.7698 65 82.1231 65H63.1046C61.4529 65 60.1139 66.3423 60.1139 68.0065V105H85.1139V68.0065V68.0065Z" stroke="#E83E8C" stroke-width="4" stroke-linecap="round" stroke-linejoin="round"/>
<path id="Layer 4" fill-rule="evenodd" clip-rule="evenodd" d="M110.114 38.0078C110.114 36.3466 108.77 35 107.123 35H88.1046C86.4529 35 85.1139 36.3358 85.1139 38.0078V105H110.114V38.0078V38.0078Z" stroke="#E83E8C" stroke-width="4" stroke-linecap="round" stroke-linejoin="round"/>
</g>
</g>
</svg>
