<svg width="120" height="120" viewBox="0 0 120 120" fill="none" xmlns="http://www.w3.org/2000/svg">
<g id="cherry">
<g id="cherry_2">
<path id="Layer 1" fill-rule="evenodd" clip-rule="evenodd" d="M94.7583 23.3816C87.8854 25.8831 80.1569 21.985 80.1569 21.985C80.1569 21.985 83.5716 14.0312 90.4446 11.5296C97.3175 9.02806 105.046 12.9261 105.046 12.9261C105.046 12.9261 101.631 20.88 94.7583 23.3816V23.3816Z" stroke="#E83E8C" stroke-width="4" stroke-linecap="round" stroke-linejoin="round"/>
<path id="Layer 2" fill-rule="evenodd" clip-rule="evenodd" d="M65.4446 23.3816C72.3175 25.8831 80.046 21.985 80.046 21.985C80.046 21.985 76.6313 14.0312 69.7583 11.5296C62.8854 9.02806 55.1569 12.9261 55.1569 12.9261C55.1569 12.9261 58.5716 20.88 65.4446 23.3816V23.3816Z" stroke="#E83E8C" stroke-width="4" stroke-linecap="round" stroke-linejoin="round"/>
<path id="Layer 3" fill-rule="evenodd" clip-rule="evenodd" d="M35 101C48.8071 101 60 89.8071 60 76C60 62.1929 48.8071 51 35 51C21.1929 51 10 62.1929 10 76C10 89.8071 21.1929 101 35 101Z" stroke="#E83E8C" stroke-width="4" stroke-linecap="round" stroke-linejoin="round"/>
<path id="Path" d="M18 76C18 78.1726 18.4075 80.25 19.1504 82.1599" stroke="#E83E8C" stroke-width="3.5" stroke-linecap="round" stroke-linejoin="round"/>
<path id="Path_2" d="M25.6063 61.8291C22.809 63.687 20.5935 66.3511 19.2913 69.4897" stroke="#E83E8C" stroke-width="3.5" stroke-linecap="round" stroke-linejoin="round"/>
<path id="Layer 5" fill-rule="evenodd" clip-rule="evenodd" d="M85 111C98.8071 111 110 99.8071 110 86C110 72.1929 98.8071 61 85 61C71.1929 61 60 72.1929 60 86C60 99.8071 71.1929 111 85 111Z" stroke="#E83E8C" stroke-width="4" stroke-linecap="round" stroke-linejoin="round"/>
<path id="Layer 6" d="M80 21C80 21 78.4883 33.7705 68.29 46.9756C58.0918 60.1807 45.874 63.9961 45.874 63.9961" stroke="#E83E8C" stroke-width="4" stroke-linecap="round" stroke-linejoin="round"/>
<path id="Layer 7" d="M80.7383 21C80.7383 21 90.7402 34.5654 90.7402 49.3564C90.7402 64.1475 86.9268 69.0566 86.9268 69.0566" stroke="#E83E8C" stroke-width="4" stroke-linecap="round" stroke-linejoin="round"/>
<path id="Layer 8" d="M39.0251 62.2134C38.0245 65.9476 40.2406 69.786 43.9749 70.7866V70.7866" stroke="#E83E8C" stroke-width="4" stroke-linecap="round" stroke-linejoin="round"/>
<path id="Layer 9" d="M80 71.3945C81.3222 75.0274 85.3391 76.9005 88.972 75.5782V75.5782" stroke="#E83E8C" stroke-width="4" stroke-linecap="round" stroke-linejoin="round"/>
</g>
</g>
</svg>
