<svg width="120" height="120" viewBox="0 0 120 120" fill="none" xmlns="http://www.w3.org/2000/svg">
<g id="chess">
<g id="chess_2">
<path id="Layer 1" fill-rule="evenodd" clip-rule="evenodd" d="M94.3303 40.674C93.8493 38.6447 92.4103 36.9247 90.481 36.0728L62.5937 23.7544L66.499 12.9026C66.8106 12.0376 66.5374 11.0726 65.8168 10.4913C65.0962 9.91045 64.0835 9.83779 63.2848 10.3099L49.7261 18.3304C42.9958 22.312 37.7883 28.1358 34.6671 35.1722C31.6523 41.9675 30.084 48.883 30.005 55.7266C29.8687 67.5621 32.5261 76.1927 34.5347 80.9996H75.7067C75.7067 80.9996 76.7812 72.6332 74.885 69.3216L65.6001 53.1056L66.8445 53.5106C67.3798 53.6847 67.9363 53.773 68.4984 53.773C70.0372 53.773 71.4956 53.1138 72.4999 51.9647C73.3198 51.0262 74.5117 50.4876 75.7685 50.4876C76.2442 50.4876 76.715 50.565 77.1664 50.7178L83.8103 52.9642C84.5234 53.2056 85.2674 53.3275 86.0202 53.3275C87.9322 53.3275 89.7679 52.5291 91.0565 51.1359L93.2187 48.7977C94.7341 47.1608 95.3324 44.8953 94.8206 42.7372L94.3303 40.674Z" stroke="#E83E8C" stroke-width="4" stroke-linecap="round" stroke-linejoin="round"/>
<path id="Layer 2" fill-rule="evenodd" clip-rule="evenodd" d="M32.3604 88C31.2959 88 30.4326 88.9753 30.4326 90.178V96.822H27.9279C26.8633 96.822 26 97.7973 26 99V107.822C26 109.025 26.8633 110 27.9279 110H82.0721C83.1371 110 84 109.025 84 107.822V99C84 97.7973 83.1371 96.822 82.0721 96.822H79.5674V90.178C79.5674 88.9753 78.7045 88 77.6396 88H32.3604Z" stroke="#E83E8C" stroke-width="4" stroke-linecap="round" stroke-linejoin="round"/>
</g>
</g>
</svg>
