<svg width="120" height="120" viewBox="0 0 120 120" fill="none" xmlns="http://www.w3.org/2000/svg">
<g id="cinema">
<g id="cinema_2">
<rect id="Layer 1" x="20" y="10" width="80" height="50" stroke="#E83E8C" stroke-width="4" stroke-linecap="round" stroke-linejoin="round"/>
<path id="Layer 2" d="M10 110V100.2V100.2C10 97.8806 12.6828 96 16.0038 96H22.178C25.4938 96 28.1818 97.8736 28.1818 100.2V110" stroke="#E83E8C" stroke-width="4" stroke-linecap="round" stroke-linejoin="round"/>
<path id="Layer 3" d="M37.2727 110V100.2V100.2C37.2727 97.8806 39.9555 96 43.2765 96H49.4508C52.7666 96 55.4546 97.8736 55.4546 100.2V110" stroke="#E83E8C" stroke-width="4" stroke-linecap="round" stroke-linejoin="round"/>
<path id="Layer 4" d="M64.5455 110V100.2V100.2C64.5455 97.8806 67.2283 96 70.5493 96H76.7235C80.0393 96 82.7273 97.8736 82.7273 100.2V110" stroke="#E83E8C" stroke-width="4" stroke-linecap="round" stroke-linejoin="round"/>
<path id="Layer 5" d="M24 87V77.2005V77.2005C24 74.8806 26.6828 73 30.0038 73H36.178C39.4938 73 42.1818 74.8736 42.1818 77.2005V87" stroke="#E83E8C" stroke-width="4" stroke-linecap="round" stroke-linejoin="round"/>
<path id="Layer 6" d="M51 87V77.2005V77.2005C51 74.8806 53.6828 73 57.0038 73H63.178C66.4938 73 69.1818 74.8736 69.1818 77.2005V87" stroke="#E83E8C" stroke-width="4" stroke-linecap="round" stroke-linejoin="round"/>
<path id="Layer 7" d="M78 87V77.2005V77.2005C78 74.8806 80.6828 73 84.0038 73H90.178C93.4938 73 96.1818 74.8736 96.1818 77.2005V87" stroke="#E83E8C" stroke-width="4" stroke-linecap="round" stroke-linejoin="round"/>
<path id="Layer 8" d="M91.8182 110V100.2V100.2C91.8182 97.8806 94.501 96 97.822 96H103.996C107.312 96 110 97.8736 110 100.2V110" stroke="#E83E8C" stroke-width="4" stroke-linecap="round" stroke-linejoin="round"/>
</g>
</g>
</svg>
