<svg width="120" height="120" viewBox="0 0 120 120" fill="none" xmlns="http://www.w3.org/2000/svg">
<g id="cloud">
<g id="cloud_2">
<path id="Layer 1" fill-rule="evenodd" clip-rule="evenodd" d="M28.5185 50.5405C28.5185 37.5606 39.3185 27 52.5926 27C61.6222 27 69.7556 31.862 73.8944 39.5598C75.8519 38.457 78.0852 37.8649 80.3704 37.8649C87.5167 37.8649 93.3333 43.5526 93.3333 50.5405C93.3333 50.7669 93.3278 50.9932 93.3148 51.2196C103.083 53.6551 110 62.2492 110 72.2703C110 84.2524 100.031 94 87.7778 94C87.7778 94 29.8944 93.9511 29.6833 93.8606C18.4259 92.6147 10 83.4212 10 72.2703C10 61.6752 18.0019 52.5849 28.5204 50.8429C28.5185 50.7415 28.5185 50.6419 28.5185 50.5405Z" stroke="#E83E8C" stroke-width="4" stroke-linecap="round" stroke-linejoin="round"/>
</g>
</g>
</svg>
