<svg width="120" height="120" viewBox="0 0 120 120" fill="none" xmlns="http://www.w3.org/2000/svg">
<g id="coffee">
<g id="coffee_2">
<path id="Layer 1" fill-rule="evenodd" clip-rule="evenodd" d="M69.5467 50.0965C77.2798 57.8297 91.385 56.2624 101.051 46.596C110.718 36.9295 112.285 22.8244 104.552 15.0912C96.8188 7.35806 82.7136 8.9253 73.0472 18.5917C63.3808 28.2582 61.8135 42.3633 69.5467 50.0965V50.0965Z" stroke="#E83E8C" stroke-width="4" stroke-linecap="round" stroke-linejoin="round"/>
<path id="Layer 2" fill-rule="evenodd" clip-rule="evenodd" d="M73.0472 18.5917C63.3808 28.2582 61.8135 42.3633 69.5467 50.0965C69.5467 50.0965 72.343 36.2257 86.9218 32.7214C101.501 29.2171 104.552 15.0912 104.552 15.0912C96.8188 7.35806 82.7136 8.9253 73.0472 18.5917V18.5917Z" stroke="#E83E8C" stroke-width="4" stroke-linecap="round" stroke-linejoin="round"/>
<path id="Layer 3" fill-rule="evenodd" clip-rule="evenodd" d="M58.6556 104.552C66.3887 112.285 80.4939 110.718 90.1603 101.052C99.8268 91.3851 101.394 77.2799 93.6609 69.5468C85.9277 61.8136 71.8225 63.3809 62.1561 73.0473C52.4897 82.7138 50.9224 96.8189 58.6556 104.552V104.552Z" stroke="#E83E8C" stroke-width="4" stroke-linecap="round" stroke-linejoin="round"/>
<path id="Layer 4" fill-rule="evenodd" clip-rule="evenodd" d="M62.1561 73.0473C52.4897 82.7138 50.9224 96.8189 58.6556 104.552C58.6556 104.552 61.4519 90.6812 76.0307 87.1769C90.6095 83.6726 93.6609 69.5468 93.6609 69.5468C85.9277 61.8136 71.8225 63.3809 62.1561 73.0473V73.0473Z" stroke="#E83E8C" stroke-width="4" stroke-linecap="round" stroke-linejoin="round"/>
<path id="Layer 5" fill-rule="evenodd" clip-rule="evenodd" d="M41.9377 73.1363C51.8494 68.5144 55.2009 54.7238 49.4235 42.3342C43.6462 29.9446 30.9277 23.6477 21.016 28.2695C11.1043 32.8914 7.75278 46.682 13.5302 59.0716C19.3075 71.4612 32.026 77.7582 41.9377 73.1363V73.1363Z" stroke="#E83E8C" stroke-width="4" stroke-linecap="round" stroke-linejoin="round"/>
<path id="Layer 6" fill-rule="evenodd" clip-rule="evenodd" d="M13.5302 59.0716C19.3075 71.4612 32.026 77.7581 41.9377 73.1363C41.9377 73.1363 29.8598 65.7645 31.553 50.8663C33.2463 35.9682 21.016 28.2695 21.016 28.2695C11.1043 32.8914 7.75278 46.682 13.5302 59.0716V59.0716Z" stroke="#E83E8C" stroke-width="4" stroke-linecap="round" stroke-linejoin="round"/>
</g>
</g>
</svg>
