<svg width="120" height="120" viewBox="0 0 120 120" fill="none" xmlns="http://www.w3.org/2000/svg">
<g id="coins">
<g id="coins_2">
<path id="Layer 1" fill-rule="evenodd" clip-rule="evenodd" d="M65.5756 73.1555C69.8557 74.3313 74.7717 75 80 75C96.5685 75 110 68.2843 110 60V47.2793H109.892V47.2793C108.594 54.9648 95.7067 61 80 61C64.2933 61 51.4058 54.9648 50.1076 47.2793H50V60C50 62.8756 51.6183 65.5621 54.4244 67.8445C58.9998 69.1013 62.8486 70.9375 65.5756 73.1555V73.1555Z" stroke="#E83E8C" stroke-width="4" stroke-linecap="round" stroke-linejoin="round"/>
<path id="Layer 2" fill-rule="evenodd" clip-rule="evenodd" d="M80 61C96.5685 61 110 54.2843 110 46C110 37.7157 96.5685 31 80 31C63.4315 31 50 37.7157 50 46C50 54.2843 63.4315 61 80 61Z" stroke="#E83E8C" stroke-width="4" stroke-linecap="round" stroke-linejoin="round"/>
<path id="Layer 3" fill-rule="evenodd" clip-rule="evenodd" d="M69.8924 82.2793H70V95C70 103.284 56.5685 110 40 110C23.4315 110 10 103.284 10 95V82.2793H10.1076C11.4058 89.9648 24.2933 96 40 96C55.7067 96 68.5942 89.9648 69.8924 82.2793V82.2793Z" stroke="#E83E8C" stroke-width="4" stroke-linecap="round" stroke-linejoin="round"/>
<path id="Layer 4" fill-rule="evenodd" clip-rule="evenodd" d="M40 96C56.5685 96 70 89.2843 70 81C70 72.7157 56.5685 66 40 66C23.4315 66 10 72.7157 10 81C10 89.2843 23.4315 96 40 96Z" stroke="#E83E8C" stroke-width="4" stroke-linecap="round" stroke-linejoin="round"/>
<path id="Layer 5" fill-rule="evenodd" clip-rule="evenodd" d="M54.4244 38.1555C50.1443 39.3313 45.2283 40 40 40C23.4315 40 10 33.2843 10 25C10 16.7157 23.4315 10 40 10C56.5685 10 70 16.7157 70 25C70 27.8756 68.3817 30.5621 65.5756 32.8445C61.0002 34.1013 57.1514 35.9375 54.4244 38.1555V38.1555Z" stroke="#E83E8C" stroke-width="4" stroke-linecap="round" stroke-linejoin="round"/>
<path id="Layer 6" fill-rule="evenodd" clip-rule="evenodd" d="M70 31.8535V26.2793H69.8924V26.2793C69.4883 28.6717 67.9612 30.9041 65.5756 32.8445C66.9853 32.4572 68.4639 32.125 70 31.8535V31.8535Z" stroke="#E83E8C" stroke-width="4" stroke-linecap="round" stroke-linejoin="round"/>
<path id="Layer 7" fill-rule="evenodd" clip-rule="evenodd" d="M52.9813 52.5269C49.053 53.471 44.65 54 40 54C23.4315 54 10 47.2843 10 39V26.2793H10.1076C11.4058 33.9648 24.2933 40 40 40C45.2283 40 50.1443 39.3313 54.4244 38.1555C51.6183 40.4379 50 43.1244 50 46C50 48.3393 51.071 50.5536 52.9812 52.5269H52.9813Z" stroke="#E83E8C" stroke-width="4" stroke-linecap="round" stroke-linejoin="round"/>
<path id="Layer 8" fill-rule="evenodd" clip-rule="evenodd" d="M67.0187 87.5269C70.947 88.471 75.35 89 80 89C96.5685 89 110 82.2843 110 74V61.2793H109.892V61.2793C108.594 68.9648 95.7067 75 80 75C74.7717 75 69.8557 74.3313 65.5756 73.1555C68.3817 75.4379 70 78.1244 70 81C70 83.3393 68.929 85.5536 67.0187 87.5269H67.0187Z" stroke="#E83E8C" stroke-width="4" stroke-linecap="round" stroke-linejoin="round"/>
<path id="Layer 9" fill-rule="evenodd" clip-rule="evenodd" d="M50 66.8535V61.2793H50.1076C50.5117 63.6717 52.0388 65.9041 54.4244 67.8445C53.0147 67.4572 51.5361 67.125 50 66.8535H50Z" stroke="#E83E8C" stroke-width="4" stroke-linecap="round" stroke-linejoin="round"/>
<path id="Layer 10" fill-rule="evenodd" clip-rule="evenodd" d="M70 31.8535V26.2793H69.8924V26.2793C69.4883 28.6717 67.9612 30.9041 65.5756 32.8445C66.9853 32.4572 68.4639 32.125 70 31.8535V31.8535Z" stroke="#E83E8C" stroke-width="4" stroke-linecap="round" stroke-linejoin="round"/>
<path id="Layer 11" fill-rule="evenodd" clip-rule="evenodd" d="M50 66.8535V61.2793H50.1076C50.5117 63.6717 52.0388 65.9041 54.4244 67.8445C53.0147 67.4572 51.5361 67.125 50 66.8535H50Z" stroke="#E83E8C" stroke-width="4" stroke-linecap="round" stroke-linejoin="round"/>
</g>
</g>
</svg>
