<svg width="120" height="120" viewBox="0 0 120 120" fill="none" xmlns="http://www.w3.org/2000/svg">
<g id="condom">
<g id="condom_2">
<path id="Layer 1" fill-rule="evenodd" clip-rule="evenodd" d="M85.3826 103.423V47.3691C85.3826 34.38 77.3559 29.2354 70.0014 24.9379V21.4564C69.9983 14.5773 65.7149 11 60.6202 11C55.5254 11 51.242 14.5773 51.239 21.4564V24.9379C43.8845 29.2354 35.8577 33.7421 35.8577 47.3691V103.423H32.7624C31.0538 103.423 29.6671 104.818 29.6671 106.537C29.6671 108.256 31.0538 109.651 32.7624 109.651H88.4779C90.1866 109.651 91.5732 108.256 91.5732 106.537C91.5732 104.818 90.1866 103.423 88.4779 103.423H85.3826Z" stroke="#E83E8C" stroke-width="4" stroke-linecap="round" stroke-linejoin="round"/>
<path id="Layer 2" d="M77 54.2064C77 41.7806 76.9931 40.4256 65.8701 32.9312" stroke="#E83E8C" stroke-width="4" stroke-linecap="round" stroke-linejoin="round"/>
</g>
</g>
</svg>
