<svg width="120" height="120" viewBox="0 0 120 120" fill="none" xmlns="http://www.w3.org/2000/svg">
<g id="discount">
<g id="discount_2">
<path id="Layer 1" fill-rule="evenodd" clip-rule="evenodd" d="M49.9287 19.2282C50.3069 14.0682 54.5908 10 59.8198 10C65.0148 10 69.2769 14.0155 69.7031 19.1277C69.8664 19.1662 70.0294 19.2055 70.1921 19.2458C72.9247 14.8339 78.63 13.2445 83.2629 15.7211C87.8366 18.1661 89.7271 23.6984 87.7442 28.4046C87.8693 28.5137 87.9937 28.6235 88.1175 28.734C92.5323 26.1237 98.2727 27.3253 101.261 31.6159C104.253 35.9123 103.407 41.7567 99.4429 45.0322C99.5043 45.1893 99.5647 45.347 99.6242 45.5051C104.758 45.2617 109.288 49.0385 109.925 54.2514C110.559 59.442 107.105 64.1899 102.099 65.2301C102.081 65.3966 102.062 65.5627 102.042 65.7286C106.726 67.9198 108.988 73.4166 107.108 78.3391C105.251 83.2041 100.014 85.765 95.1236 84.354C95.0305 84.4927 94.9366 84.6307 94.8419 84.7681C97.9455 88.8548 97.4557 94.7206 93.5883 98.2215C89.7072 101.735 83.8258 101.598 80.1097 98.0308C79.9625 98.1108 79.8147 98.1898 79.6665 98.2681C80.5264 103.358 77.3508 108.333 72.2855 109.603C67.2328 110.869 62.1186 107.993 60.4877 103.115C60.3336 103.117 60.1792 103.118 60.0247 103.118C60.0135 103.118 60.0023 103.118 59.9912 103.118C58.3956 108.054 53.2476 110.976 48.1618 109.701C43.1297 108.44 39.9626 103.522 40.7644 98.4669C40.6153 98.3901 40.4667 98.3125 40.3186 98.2341C36.6069 101.869 30.6741 102.031 26.7678 98.4947C22.9257 95.0167 22.4171 89.2047 25.4538 85.1217C25.3578 84.9853 25.2626 84.8483 25.1681 84.7108C20.2501 86.184 14.9563 83.6215 13.0865 78.7243C11.2193 73.834 13.439 68.3769 18.061 66.1572C18.0393 65.9914 18.0186 65.8253 17.9989 65.6589C12.9406 64.6608 9.4369 59.8848 10.0749 54.6603C10.7074 49.4815 15.1827 45.7201 20.2752 45.9098C20.3331 45.7511 20.3919 45.5928 20.4517 45.435C16.4213 42.1721 15.5439 36.2794 18.5557 31.9549C21.5243 27.6924 27.2093 26.4786 31.6122 29.0223C31.7349 28.9105 31.8582 28.7995 31.9821 28.6892C29.9346 23.9631 31.8197 18.3737 36.4237 15.9125C41.0263 13.4521 46.6876 15.0048 49.4407 19.3514C49.603 19.3094 49.7656 19.2683 49.9287 19.2282V19.2282Z" stroke="#E83E8C" stroke-width="4" stroke-linecap="round" stroke-linejoin="round"/>
<path id="Layer 2" fill-rule="evenodd" clip-rule="evenodd" d="M47.5 55C51.6421 55 55 51.6421 55 47.5C55 43.3579 51.6421 40 47.5 40C43.3579 40 40 43.3579 40 47.5C40 51.6421 43.3579 55 47.5 55Z" stroke="#E83E8C" stroke-width="4" stroke-linecap="round" stroke-linejoin="round"/>
<path id="Layer 3" fill-rule="evenodd" clip-rule="evenodd" d="M72.5 80C76.6421 80 80 76.6421 80 72.5C80 68.3579 76.6421 65 72.5 65C68.3579 65 65 68.3579 65 72.5C65 76.6421 68.3579 80 72.5 80Z" stroke="#E83E8C" stroke-width="4" stroke-linecap="round" stroke-linejoin="round"/>
<path id="Layer 4" d="M79.5 40.5L40.5 79.5" stroke="#E83E8C" stroke-width="4" stroke-linecap="round" stroke-linejoin="round"/>
</g>
</g>
</svg>
