<svg width="120" height="120" viewBox="0 0 120 120" fill="none" xmlns="http://www.w3.org/2000/svg">
<g id="drop">
<g id="drop_2">
<path id="Layer 1" fill-rule="evenodd" clip-rule="evenodd" d="M60 10C62.5751 10 64.6955 11.9467 64.9699 14.4486C65.2242 15.942 67.0833 26.1878 71.7681 35.9414C76.1661 45.0981 83.789 56.7208 85.7273 59.6333C89.6666 64.8922 92 71.4236 92 78.5C92 95.897 77.897 110 60.5 110C60.333 110 60.1664 109.999 60 109.996C59.8336 109.999 59.667 110 59.5 110C42.103 110 28 95.897 28 78.5C28 71.4236 30.3334 64.8922 34.2727 59.6333C36.211 56.7208 43.8339 45.0981 48.2319 35.9414C52.9167 26.1878 54.7758 15.942 55.0301 14.4486C55.3045 11.9467 57.4249 10 60 10V10Z" stroke="#E83E8C" stroke-width="4" stroke-linecap="round" stroke-linejoin="round"/>
<path id="Layer 2" d="M56.0751 101C47.4497 98.3533 40.9014 92.2813 38.9568 84.832" stroke="#E83E8C" stroke-width="4" stroke-linecap="round" stroke-linejoin="round"/>
</g>
</g>
</svg>
