<svg width="120" height="120" viewBox="0 0 120 120" fill="none" xmlns="http://www.w3.org/2000/svg">
<g id="duck">
<g id="duck_2">
<path id="Layer 1" fill-rule="evenodd" clip-rule="evenodd" d="M47.351 36.5386C47.0864 25.9702 52.2744 10.7374 71.6225 10.0223C87.1675 9.44486 93.6561 20.1769 95.5468 29.8123C95.5468 29.8123 109.082 38.9489 109.515 39.3071C110.257 39.9132 110.893 46.4258 105.44 50.0015C101.652 52.4849 97.4167 51.3623 95.2278 51.3623C94.0546 51.3623 92.7831 51.2377 91.5769 50.9839C90.2234 53.1822 88.9954 54.8802 88.5959 56.0664C87.5817 59.1158 102.347 69.1411 102.347 84.7361C102.347 100.328 91.4771 110 74.3363 110H47.1767C32.0707 110 12.2106 94.4128 10 61.8019C24.0928 74.3476 30.8837 56.6063 61.229 58.5144C56.3461 55.1955 47.6912 49.9338 47.351 36.5386V36.5386Z" stroke="#E83E8C" stroke-width="4" stroke-linecap="round" stroke-linejoin="round"/>
<path id="Layer 2" fill-rule="evenodd" clip-rule="evenodd" d="M52.3539 97.1846C40.5257 95.1811 30.1964 82.9746 30.1964 76.3095C30.1964 73.0479 44.247 73.0479 56.2275 73.0479C72.5185 73.0479 77.9202 78.4509 77.9202 85.1164C77.9202 91.7818 65.8344 99.4677 52.3539 97.1846V97.1846Z" stroke="#E83E8C" stroke-width="4" stroke-linecap="round" stroke-linejoin="round"/>
<path id="Layer 3" d="M79 32C79 28.6863 76.3137 26 73 26C69.6863 26 67 28.6863 67 32" stroke="#E83E8C" stroke-width="4" stroke-linecap="round" stroke-linejoin="round"/>
</g>
</g>
</svg>
