<svg width="120" height="120" viewBox="0 0 120 120" fill="none" xmlns="http://www.w3.org/2000/svg">
<g id="ear">
<g id="ear_2">
<path id="Layer 1" fill-rule="evenodd" clip-rule="evenodd" d="M57.94 110C71.9352 110 81.194 97.482 84.217 78.8238C84.9763 74.1375 86.3714 71.1726 89.378 66.8677C89.6339 66.5013 90.6431 65.0747 90.8867 64.7263C95.1216 58.6696 96.9391 54.1339 96.9391 46.9696C96.9391 23.8764 81.7645 10 59.9696 10C39.5518 10 23 26.5518 23 46.9696C23 49.9282 25.3985 52.3267 28.3571 52.3267C31.3158 52.3267 33.7143 49.9282 33.7143 46.9696C33.7143 32.4692 45.4692 20.7143 59.9696 20.7143C76.0504 20.7143 86.2249 30.0182 86.2249 46.9696C86.2249 51.5972 85.1935 54.171 82.106 58.5867C81.8854 58.9021 80.874 60.3319 80.5939 60.7329C76.7439 66.2456 74.6958 70.5982 73.6407 77.1102C71.3554 91.2149 65.3859 99.2857 57.94 99.2857C49.558 99.2857 42.7464 92.4221 42.7464 83.9351C42.7464 80.9765 40.3479 78.578 37.3893 78.578C34.4306 78.578 32.0321 80.9765 32.0321 83.9351C32.0321 98.3213 43.6223 110 57.94 110Z" stroke="#E83E8C" stroke-width="4" stroke-linecap="round" stroke-linejoin="round"/>
<path id="Layer 2" d="M45 65.18C46.314 66.314 48.0257 66.9998 49.8976 66.9998C54.0397 66.9998 57.3976 63.6419 57.3976 59.4998C57.3976 55.3576 54.4747 52.4385 50.3325 52.4385" stroke="#E83E8C" stroke-width="4" stroke-linecap="round" stroke-linejoin="round"/>
<path id="Layer 3" d="M49.5 52.5C49.5 52.5 46.8137 48.356 48.2324 42.6855C49.5 37.6191 55.6102 32.7662 63.461 34.2266C72.8008 35.9639 74.0274 44.9229 74.0274 44.9229" stroke="#E83E8C" stroke-width="4" stroke-linecap="round" stroke-linejoin="round"/>
</g>
</g>
</svg>
