<svg width="120" height="120" viewBox="0 0 120 120" fill="none" xmlns="http://www.w3.org/2000/svg">
<g id="egg">
<g id="egg_2">
<path id="Layer 1" fill-rule="evenodd" clip-rule="evenodd" d="M98.9358 60C93.2825 32.3858 75.8504 10 60 10C44.1496 10 26.7175 32.3858 21.0642 60C15.411 87.6142 32.8431 110 60 110C87.1569 110 104.589 87.6142 98.9358 60Z" stroke="#E83E8C" stroke-width="4" stroke-linecap="round" stroke-linejoin="round"/>
<path id="Layer 2" d="M57.892 22.0703C58.9467 21.7422 59.5357 20.6212 59.2076 19.5665C58.8794 18.5118 57.7584 17.9228 56.7037 18.2509L57.892 22.0703ZM50.5336 21.9185C49.6572 22.5907 49.4916 23.8462 50.1638 24.7226C50.836 25.5991 52.0915 25.7647 52.9679 25.0925L50.5336 21.9185ZM47.7888 30.5453C48.5384 29.734 48.4884 28.4686 47.6771 27.719C46.8658 26.9694 45.6005 27.0194 44.8509 27.8307L47.7888 30.5453ZM30.3964 54.7753C30.128 55.8468 30.779 56.9329 31.8505 57.2013C32.922 57.4697 34.0081 56.8186 34.2765 55.7471L30.3964 54.7753ZM56.7037 18.2509C54.8686 18.8219 53.7092 19.4128 52.7479 20.1035C52.2895 20.4329 51.9025 20.7665 51.5638 21.0603C51.2153 21.3626 50.9086 21.6309 50.5336 21.9185L52.9679 25.0925C53.4557 24.7184 53.8549 24.3681 54.1847 24.082C54.5243 23.7875 54.788 23.5631 55.0819 23.352C55.6251 22.9617 56.3765 22.5419 57.892 22.0703L56.7037 18.2509ZM44.8509 27.8307C39.53 33.5894 35.926 40.3296 33.6578 45.5813C32.5199 48.216 31.709 50.4978 31.181 52.1267C30.9168 52.9416 30.723 53.5945 30.5941 54.0481C30.5296 54.2749 30.4814 54.452 30.4486 54.5747C30.4323 54.6361 30.4198 54.6839 30.4111 54.7175C30.4068 54.7343 30.4034 54.7476 30.4009 54.7572C30.3997 54.7621 30.3987 54.766 30.3979 54.769C30.3976 54.7705 30.3972 54.7718 30.397 54.7729C30.3968 54.7734 30.3967 54.774 30.3966 54.7743C30.3965 54.7748 30.3964 54.7753 32.3364 55.2612C34.2765 55.7471 34.2764 55.7475 34.2763 55.7479C34.2763 55.7479 34.2762 55.7482 34.2762 55.7482C34.2762 55.7484 34.2762 55.7483 34.2763 55.748C34.2765 55.7473 34.2768 55.7458 34.2775 55.7434C34.2787 55.7385 34.2808 55.7301 34.2839 55.7182C34.2901 55.6943 34.3 55.6565 34.3136 55.6052C34.341 55.5027 34.3834 55.3466 34.4417 55.1415C34.5584 54.7311 34.7381 54.1251 34.986 53.3602C35.4823 51.8294 36.2501 49.6677 37.33 47.1673C39.4973 42.1489 42.885 35.8525 47.7888 30.5453L44.8509 27.8307Z" fill="#E83E8C"/>
</g>
</g>
</svg>
