<svg width="120" height="120" viewBox="0 0 120 120" fill="none" xmlns="http://www.w3.org/2000/svg">
<g id="elixir">
<g id="elixir_2">
<path id="Layer 1" fill-rule="evenodd" clip-rule="evenodd" d="M75.0063 23.5088L69.1457 29.3694C64.3651 34.15 50.3778 22.3673 41.561 31.1841L14.778 57.9671C9.73925 63.0058 9.69974 71.1445 14.6952 76.14L28.2776 89.7224V89.7224L41.8599 103.305C46.8554 108.3 54.9941 108.261 60.0329 103.222L86.8158 76.4389C95.6326 67.6222 83.8499 53.6348 88.6305 48.8542L94.4911 42.9936L75.0063 23.5088V23.5088V23.5088Z" stroke="#E83E8C" stroke-width="4" stroke-linecap="round" stroke-linejoin="round"/>
<path id="Layer 2" fill-rule="evenodd" clip-rule="evenodd" d="M15.7452 57L14.778 57.9671C9.73925 63.0059 9.69974 71.1446 14.6952 76.1401L28.2776 89.7224V89.7224L41.8599 103.305C46.8554 108.3 54.9941 108.261 60.0329 103.222L86.8158 76.439C92.4358 70.819 89.6861 63.0981 88.1915 57L15.7452 57V57Z" stroke="#E83E8C" stroke-width="4" stroke-linecap="round" stroke-linejoin="round"/>
<path id="Layer 3" fill-rule="evenodd" clip-rule="evenodd" d="M76.2632 14.8668C77.4349 13.6951 79.3411 13.7016 80.5045 14.8649L103.135 37.4957C104.306 38.6663 104.301 40.569 103.133 41.7369L100.305 44.5648C99.1336 45.7365 97.2275 45.7301 96.0641 44.5667L73.4334 21.936C72.2627 20.7653 72.2674 18.8627 73.4353 17.6948L76.2632 14.8668V14.8668Z" stroke="#E83E8C" stroke-width="4" stroke-linecap="round" stroke-linejoin="round"/>
<path id="Layer 4" fill-rule="evenodd" clip-rule="evenodd" d="M102.5 80C103.184 80 103.747 80.5256 103.82 81.2011C103.888 81.6043 104.382 84.3707 105.626 87.0042C106.794 89.4765 108.819 92.6146 109.334 93.401C110.38 94.8209 111 96.5844 111 98.495C111 103.192 107.254 107 102.633 107C102.588 107 102.544 107 102.5 106.999C102.456 107 102.412 107 102.367 107C97.7461 107 94 103.192 94 98.495C94 96.5844 94.6198 94.8209 95.6662 93.401C96.181 92.6146 98.2059 89.4765 99.3741 87.0042C100.618 84.3707 101.112 81.6043 101.18 81.2011C101.253 80.5256 101.816 80 102.5 80V80Z" stroke="#E83E8C" stroke-width="4" stroke-linecap="round" stroke-linejoin="round"/>
</g>
</g>
</svg>
