<svg width="120" height="120" viewBox="0 0 120 120" fill="none" xmlns="http://www.w3.org/2000/svg">
<g id="email">
<g id="email_2">
<path id="Layer 1" d="M78.4062 35.9115L76.1927 44.6354L70.0729 74.7135C70.4635 83.8281 76.7135 86.6927 83.224 86.6927C95.5938 86.6927 107.833 75.4948 107.833 52.7083C107.833 27.4479 90.6458 10 65.5156 10C39.7344 10 12 30.4427 12 64.6875C12 95.2865 33.875 110 55.75 110C68.1198 110 78.6667 107.917 92.7292 98.4115" stroke="#E83E8C" stroke-width="4" stroke-linecap="round" stroke-linejoin="round"/>
<path id="Layer 2" fill-rule="evenodd" clip-rule="evenodd" d="M51.9336 85.6942C65.6621 86.4232 70.9278 69.1383 73.2085 57.6018C75.4893 46.0653 71.5176 34.4754 61.2256 33.828C50.9336 33.1805 40.9375 43.0438 38.1728 57.1375C35.4082 71.2313 38.2051 84.9652 51.9336 85.6942V85.6942Z" stroke="#E83E8C" stroke-width="4" stroke-linecap="round" stroke-linejoin="round"/>
</g>
</g>
</svg>
