<svg width="120" height="120" viewBox="0 0 120 120" fill="none" xmlns="http://www.w3.org/2000/svg">
<g id="energy">
<g id="energy_2">
<path id="Layer 1" d="M100 80C100 57.9086 82.0914 40 60 40C37.9086 40 20 57.9086 20 80" stroke="#E83E8C" stroke-width="4" stroke-linecap="round" stroke-linejoin="round"/>
<path id="Layer 2" fill-rule="evenodd" clip-rule="evenodd" d="M25 30C27.7614 30 30 27.7614 30 25C30 22.2386 27.7614 20 25 20C22.2386 20 20 22.2386 20 25C20 27.7614 22.2386 30 25 30Z" stroke="#E83E8C" stroke-width="4" stroke-linecap="round" stroke-linejoin="round"/>
<path id="Layer 3" fill-rule="evenodd" clip-rule="evenodd" d="M95 30C97.7614 30 100 27.7614 100 25C100 22.2386 97.7614 20 95 20C92.2386 20 90 22.2386 90 25C90 27.7614 92.2386 30 95 30Z" stroke="#E83E8C" stroke-width="4" stroke-linecap="round" stroke-linejoin="round"/>
<path id="Layer 4" d="M92.5 29.5L80.2075 45.3848" stroke="#E83E8C" stroke-width="4" stroke-linecap="round" stroke-linejoin="round"/>
<path id="Layer 5" d="M27.5 29.5L39.5 44.5" stroke="#E83E8C" stroke-width="4" stroke-linecap="round" stroke-linejoin="round"/>
<path id="Layer 6" fill-rule="evenodd" clip-rule="evenodd" d="M10 85.0044C10 82.2406 12.2288 80 14.9932 80H105.007C107.764 80 110 82.2304 110 85.0044V104.996C110 107.759 107.771 110 105.007 110H14.9932C12.2355 110 10 107.77 10 104.996V85.0044V85.0044Z" stroke="#E83E8C" stroke-width="4" stroke-linecap="round" stroke-linejoin="round"/>
<path id="Layer 7" fill-rule="evenodd" clip-rule="evenodd" d="M25 100C27.7614 100 30 97.7614 30 95C30 92.2386 27.7614 90 25 90C22.2386 90 20 92.2386 20 95C20 97.7614 22.2386 100 25 100Z" stroke="#E83E8C" stroke-width="4" stroke-linecap="round" stroke-linejoin="round"/>
<path id="Layer 8" fill-rule="evenodd" clip-rule="evenodd" d="M94 100C96.7614 100 99 97.7614 99 95C99 92.2386 96.7614 90 94 90C91.2386 90 89 92.2386 89 95C89 97.7614 91.2386 100 94 100Z" stroke="#E83E8C" stroke-width="4" stroke-linecap="round" stroke-linejoin="round"/>
<path id="Layer 9" d="M36 23L47.3848 10.5781L58.5 29.8184L67.3242 15.4648L83.3984 23" stroke="#E83E8C" stroke-width="4" stroke-linecap="round" stroke-linejoin="round"/>
</g>
</g>
</svg>
