<svg width="120" height="120" viewBox="0 0 120 120" fill="none" xmlns="http://www.w3.org/2000/svg">
<g id="euro">
<g id="euro_2">
<path id="Layer 1" fill-rule="evenodd" clip-rule="evenodd" d="M60.1139 110C87.7281 110 110.114 87.6142 110.114 60C110.114 32.3858 87.7281 10 60.1139 10C32.4997 10 10.1139 32.3858 10.1139 60C10.1139 87.6142 32.4997 110 60.1139 110Z" stroke="#E83E8C" stroke-width="4" stroke-linecap="round" stroke-linejoin="round"/>
<path id="Layer 2" d="M78.2624 40.1105C74.0589 36.9042 68.8088 35 63.1139 35C49.3068 35 38.1139 46.1929 38.1139 60C38.1139 73.8071 49.3068 85 63.1139 85V85C68.8091 85 74.0595 83.0956 78.263 79.8889" stroke="#E83E8C" stroke-width="4" stroke-linecap="round" stroke-linejoin="round"/>
<path id="Layer 3" d="M30.1139 55H78.1139" stroke="#E83E8C" stroke-width="4" stroke-linecap="round" stroke-linejoin="round"/>
<path id="Layer 4" d="M30.1139 65H73.1139" stroke="#E83E8C" stroke-width="4" stroke-linecap="round" stroke-linejoin="round"/>
</g>
</g>
</svg>
