<svg width="120" height="120" viewBox="0 0 120 120" fill="none" xmlns="http://www.w3.org/2000/svg">
<g id="file-picture">
<g id="file-picture_2">
<path id="Layer 1" d="M17 22V20C15.8954 20 15 20.8954 15 22H17ZM17 98H15C15 99.1046 15.8954 100 17 100V98ZM103 98V100C104.105 100 105 99.1046 105 98H103ZM12 19.9993C12 18.3388 13.3374 17 14.9932 17V13C11.1203 13 8 16.1377 8 19.9993H12ZM14.9932 17H105.007V13H14.9932V17ZM105.007 17C106.655 17 108 18.3471 108 19.9993H112C112 16.1472 108.874 13 105.007 13V17ZM108 19.9993V100.001H112V19.9993H108ZM108 100.001C108 101.661 106.663 103 105.007 103V107C108.88 107 112 103.862 112 100.001H108ZM105.007 103H14.9932V107H105.007V103ZM14.9932 103C13.3447 103 12 101.653 12 100.001H8C8 103.853 11.1264 107 14.9932 107V103ZM12 100.001V19.9993H8V100.001H12ZM103 20H17V24H103V20ZM15 22V98H19V22H15ZM17 100H103V96H17V100ZM105 98V22H101V98H105Z" fill="#E83E8C"/>
<path id="Layer 2" fill-rule="evenodd" clip-rule="evenodd" d="M56.0886 98L30 70.3529L71.253 33L103 66.6435V98H56.0886Z" stroke="#E83E8C" stroke-width="4" stroke-linecap="round" stroke-linejoin="round"/>
<path id="Layer 3" fill-rule="evenodd" clip-rule="evenodd" d="M56.1889 98L17 57L17 98H56.1889Z" stroke="#E83E8C" stroke-width="4" stroke-linecap="round" stroke-linejoin="round"/>
<path id="Layer 4" fill-rule="evenodd" clip-rule="evenodd" d="M35.45 47.0286C31.8878 47.0286 29 44.112 29 40.5143C29 36.9165 31.8878 34 35.45 34C39.0122 34 41.9 36.9165 41.9 40.5143C41.9 44.112 39.0122 47.0286 35.45 47.0286V47.0286Z" stroke="#E83E8C" stroke-width="4" stroke-linecap="round" stroke-linejoin="round"/>
</g>
</g>
</svg>
