<svg width="120" height="120" viewBox="0 0 120 120" fill="none" xmlns="http://www.w3.org/2000/svg">
<g id="fire">
<g id="fire_2">
<path id="Layer 1" fill-rule="evenodd" clip-rule="evenodd" d="M60.4159 109.997C60.5594 109.999 60.7031 110 60.847 110C80.0356 110 95.591 94.4446 95.591 75.256C95.591 22.8556 44.7923 10 44.7923 10C44.7923 10 50.8447 25.5064 42.917 39.9411C34.9893 54.3757 25 57.717 25 75.256C25 94.4445 40.5554 110 59.744 110C59.8327 110 59.9213 110 60.0099 109.999C51.1993 109.886 46.3974 100.09 46.3974 88.022C46.3974 75.8839 57.7229 66.044 60.1648 66.044C62.6068 66.044 74.4312 75.8839 74.4312 88.022C74.4312 100.046 69.1747 109.814 60.4159 109.997V109.997Z" stroke="#E83E8C" stroke-width="4" stroke-linecap="round" stroke-linejoin="round"/>
</g>
</g>
</svg>
