<svg width="120" height="120" viewBox="0 0 120 120" fill="none" xmlns="http://www.w3.org/2000/svg">
<g id="fish">
<g id="fish_2">
<path id="Layer 1" fill-rule="evenodd" clip-rule="evenodd" d="M60.1428 91.4489C48.4287 87.0742 37.5365 76.1576 31.1142 68.4049L12.6623 77.9372C11.192 78.6967 10.351 78.0259 10.7894 76.4191L15.3496 59.703L10.7894 42.9447C10.3534 41.3427 11.176 40.7029 12.6098 41.5063L31.0037 51.8127C37.4936 44.0386 48.6441 32.9653 60.5985 28.7324L60.122 17.0012C60.0546 15.3426 61.2934 14.3808 62.8375 14.9504C62.8375 14.9504 68.395 15.9614 73.6392 22.9727C74.838 24.5754 75.9097 26.3445 76.8499 28.1201C95.1865 33.1888 110 53.4573 110 60C110 66.8406 95.1948 88.8308 75.9017 92.7663C75.087 94.2279 74.183 95.6661 73.1923 96.9907C67.9481 104.002 62.3907 105.013 62.3907 105.013C60.8465 105.583 59.6077 104.621 59.6751 102.962L60.1428 91.4489V91.4489Z" stroke="#E83E8C" stroke-width="4" stroke-linecap="round" stroke-linejoin="round"/>
<path id="Layer 2" fill-rule="evenodd" clip-rule="evenodd" d="M90 53C91.6569 53 93 51.6569 93 50C93 48.3431 91.6569 47 90 47C88.3431 47 87 48.3431 87 50C87 51.6569 88.3431 53 90 53Z" stroke="#E83E8C" stroke-width="4" stroke-linecap="round" stroke-linejoin="round"/>
<path id="Layer 3" d="M58.9516 40.8753C59.9873 40.4914 60.5157 39.3406 60.1318 38.3049C59.7478 37.2692 58.597 36.7408 57.5613 37.1247L58.9516 40.8753ZM45.8722 44.5515C45.0663 45.3068 45.0252 46.5725 45.7805 47.3784C46.5359 48.1844 47.8015 48.2254 48.6075 47.4701L45.8722 44.5515ZM44.8777 51.6367C45.5333 50.7478 45.3442 49.4956 44.4552 48.84C43.5662 48.1844 42.3141 48.3736 41.6585 49.2626L44.8777 51.6367ZM39.213 53.2149C38.717 54.2018 39.115 55.404 40.1019 55.9C41.0889 56.396 42.291 55.998 42.787 55.0111L39.213 53.2149ZM57.5613 37.1247C53.5423 38.6144 49.3741 41.2696 45.8722 44.5515L48.6075 47.4701C51.7714 44.505 55.4928 42.1574 58.9516 40.8753L57.5613 37.1247ZM41.6585 49.2626C40.7268 50.526 39.8993 51.8492 39.213 53.2149L42.787 55.0111C43.3606 53.8697 44.065 52.7388 44.8777 51.6367L41.6585 49.2626Z" fill="#E83E8C"/>
</g>
</g>
</svg>
