<svg width="120" height="120" viewBox="0 0 120 120" fill="none" xmlns="http://www.w3.org/2000/svg">
<g id="flash">
<g id="flash_2">
<path id="Path" d="M60.2435 20.1229V10" stroke="#E83E8C" stroke-width="4" stroke-linecap="round" stroke-linejoin="round"/>
<path id="Path_2" d="M78.8822 24.7483L83.6346 15.8103" stroke="#E83E8C" stroke-width="4" stroke-linecap="round" stroke-linejoin="round"/>
<path id="Path_3" d="M93.3129 37.6405L101.605 31.8342" stroke="#E83E8C" stroke-width="4" stroke-linecap="round" stroke-linejoin="round"/>
<path id="Path_4" d="M100.11 55.7405L110.158 54.5068" stroke="#E83E8C" stroke-width="4" stroke-linecap="round" stroke-linejoin="round"/>
<path id="Path_5" d="M97.7999 74.9541L107.25 78.5818" stroke="#E83E8C" stroke-width="4" stroke-linecap="round" stroke-linejoin="round"/>
<path id="Path_6" d="M86.8433 90.9502L93.6168 98.473" stroke="#E83E8C" stroke-width="4" stroke-linecap="round" stroke-linejoin="round"/>
<path id="Path_7" d="M69.8409 99.9329L72.2899 109.755" stroke="#E83E8C" stroke-width="4" stroke-linecap="round" stroke-linejoin="round"/>
<path id="Path_8" d="M50.6461 99.9329L48.1971 109.755" stroke="#E83E8C" stroke-width="4" stroke-linecap="round" stroke-linejoin="round"/>
<path id="Path_9" d="M33.6437 90.9502L26.8702 98.473" stroke="#E83E8C" stroke-width="4" stroke-linecap="round" stroke-linejoin="round"/>
<path id="Path_10" d="M22.6871 74.9541L13.2366 78.5818" stroke="#E83E8C" stroke-width="4" stroke-linecap="round" stroke-linejoin="round"/>
<path id="Path_11" d="M20.3767 55.7405L10.3293 54.5068" stroke="#E83E8C" stroke-width="4" stroke-linecap="round" stroke-linejoin="round"/>
<path id="Path_12" d="M27.1741 37.6405L18.8819 31.8342" stroke="#E83E8C" stroke-width="4" stroke-linecap="round" stroke-linejoin="round"/>
<path id="Path_13" d="M41.6048 24.7483L36.8524 15.8103" stroke="#E83E8C" stroke-width="4" stroke-linecap="round" stroke-linejoin="round"/>
<path id="Layer 2" fill-rule="evenodd" clip-rule="evenodd" d="M86 61.5C72.469 61.5 61.5 50.531 61.5 37C61.5 50.531 50.531 61.5 37 61.5C50.531 61.5 61.5 72.469 61.5 86C61.5 72.469 72.469 61.5 86 61.5V61.5Z" stroke="#E83E8C" stroke-width="4" stroke-linecap="round" stroke-linejoin="round"/>
</g>
</g>
</svg>
