<svg width="120" height="120" viewBox="0 0 120 120" fill="none" xmlns="http://www.w3.org/2000/svg">
<g id="folders-copy">
<g id="folders-copy_2">
<path id="Layer 1" d="M20 35H110V97C110 98.6569 108.657 100 107 100H23C21.3431 100 20 98.6569 20 97V35Z" stroke="#E83E8C" stroke-width="4" stroke-linecap="round" stroke-linejoin="round"/>
<path id="Layer 2" fill-rule="evenodd" clip-rule="evenodd" d="M20 20H12.9945C11.3421 20 10 21.3407 10 22.9945V107.006C10 108.658 11.3407 110 12.9945 110H97.0055C98.6579 110 100 108.659 100 107.006V100H22.9945C21.3407 100 20 98.6579 20 97.0055V20V20Z" stroke="#E83E8C" stroke-width="4" stroke-linecap="round" stroke-linejoin="round"/>
<path id="Layer 3" fill-rule="evenodd" clip-rule="evenodd" d="M110 35V22.9901C110 21.3383 108.794 20 107.306 20H47L43.6046 12.6667C42.9192 11.1864 41.1618 10 39.6716 10H22.6983C21.2027 10 20 11.3433 20 13.0003V20V35H110V35Z" stroke="#E83E8C" stroke-width="4" stroke-linecap="round" stroke-linejoin="round"/>
</g>
</g>
</svg>
