<svg width="120" height="120" viewBox="0 0 120 120" fill="none" xmlns="http://www.w3.org/2000/svg">
<g id="gift">
<g id="gift_2">
<path id="Layer 1" d="M10 33.792C10 32.1351 11.3431 30.792 13 30.792H107C108.657 30.792 110 32.1351 110 33.792V50.594H10V33.792Z" stroke="#E83E8C" stroke-width="4" stroke-linecap="round" stroke-linejoin="round"/>
<rect id="Layer 2" x="15" y="50.5938" width="90" height="59.4059" stroke="#E83E8C" stroke-width="4" stroke-linecap="round" stroke-linejoin="round"/>
<path id="Layer 3" fill-rule="evenodd" clip-rule="evenodd" d="M50.0606 12.7184C45.6084 9.16704 38.5107 10.9551 35.2385 16.5667C28.9829 31.727 59.9638 30.7006 59.9638 30.7006C59.9638 30.7006 56.4881 17.8454 50.0606 12.7184V12.7184Z" stroke="#E83E8C" stroke-width="4" stroke-linecap="round" stroke-linejoin="round"/>
<path id="Layer 4" fill-rule="evenodd" clip-rule="evenodd" d="M70.3249 12.7184C74.7771 9.16704 81.8748 10.9551 85.1471 16.5667C91.4026 31.727 60.4217 30.7006 60.4217 30.7006C60.4217 30.7006 63.8974 17.8454 70.3249 12.7184V12.7184Z" stroke="#E83E8C" stroke-width="4" stroke-linecap="round" stroke-linejoin="round"/>
<rect id="Layer 5" x="50" y="30.792" width="20" height="79.2079" stroke="#E83E8C" stroke-width="4" stroke-linecap="round" stroke-linejoin="round"/>
</g>
</g>
</svg>
