<svg width="120" height="120" viewBox="0 0 120 120" fill="none" xmlns="http://www.w3.org/2000/svg">
<g id="gold">
<g id="gold_2">
<path id="Layer 1" fill-rule="evenodd" clip-rule="evenodd" d="M26.5569 33C26.5569 38.7675 21.8814 43.4431 16.1139 43.4431C21.8814 43.4431 26.5569 48.1186 26.5569 53.8861C26.5569 48.1186 31.2325 43.4431 37 43.4431C31.2325 43.4431 26.5569 38.7675 26.5569 33Z" stroke="#E83E8C" stroke-width="4" stroke-linecap="round" stroke-linejoin="round"/>
<path id="Layer 1_2" fill-rule="evenodd" clip-rule="evenodd" d="M64.4431 10C64.4431 15.7675 59.7675 20.4431 54 20.4431C59.7675 20.4431 64.4431 25.1186 64.4431 30.8861C64.4431 25.1186 69.1186 20.4431 74.8861 20.4431C69.1186 20.4431 64.4431 15.7675 64.4431 10Z" stroke="#E83E8C" stroke-width="4" stroke-linecap="round" stroke-linejoin="round"/>
<path id="Layer 2" fill-rule="evenodd" clip-rule="evenodd" d="M113.114 55C107.591 55 103.114 50.5228 103.114 45C103.114 50.5228 98.6367 55 93.1139 55C98.6367 55 103.114 59.4772 103.114 65C103.114 59.4772 107.591 55 113.114 55V55Z" stroke="#E83E8C" stroke-width="4" stroke-linecap="round" stroke-linejoin="round"/>
<path id="Layer 5" fill-rule="evenodd" clip-rule="evenodd" d="M21.5104 79.4305C22.0643 77.2013 24.0658 75.6362 26.3628 75.6362H51.9386C54.2397 75.6362 56.2437 77.2067 56.7937 79.4412L63.2218 105.556C63.6872 107.446 62.2559 109.273 60.3087 109.273H17.9317C15.9817 109.273 14.55 107.442 15.0202 105.549L21.5104 79.4305Z" stroke="#E83E8C" stroke-width="4" stroke-linecap="round" stroke-linejoin="round"/>
<path id="Layer 6" fill-rule="evenodd" clip-rule="evenodd" d="M71.5521 79.4305C72.106 77.2013 74.1075 75.6362 76.4045 75.6362H101.98C104.281 75.6362 106.285 77.2067 106.835 79.4412L113.263 105.556C113.729 107.446 112.298 109.273 110.35 109.273H67.9734C66.0234 109.273 64.5917 107.442 65.0619 105.549L71.5521 79.4305Z" stroke="#E83E8C" stroke-width="4" stroke-linecap="round" stroke-linejoin="round"/>
<path id="Layer 7" fill-rule="evenodd" clip-rule="evenodd" d="M46.5313 45.7942C47.0852 43.565 49.0867 42 51.3837 42H76.9595C79.2606 42 81.2646 43.5705 81.8146 45.8049L88.2426 71.9193C88.708 73.8101 87.2768 75.6364 85.3296 75.6364H42.9526C41.0026 75.6364 39.5709 73.8053 40.0411 71.9129L46.5313 45.7942Z" stroke="#E83E8C" stroke-width="4" stroke-linecap="round" stroke-linejoin="round"/>
</g>
</g>
</svg>
