<svg width="120" height="120" viewBox="0 0 120 120" fill="none" xmlns="http://www.w3.org/2000/svg">
<g id="grid-1">
<g id="grid-1_2">
<path id="Layer 1" fill-rule="evenodd" clip-rule="evenodd" d="M8 8C8 6.89543 8.89543 6 10 6H30C31.1046 6 32 6.89543 32 8V28C32 29.1046 31.1046 30 30 30H10C8.89543 30 8 29.1046 8 28V8ZM12 10V26H28V10H12ZM88 8C88 6.89543 88.8954 6 90 6H110C111.105 6 112 6.89543 112 8V28C112 29.1046 111.105 30 110 30H90C88.8954 30 88 29.1046 88 28V8ZM92 10V26H108V10H92ZM48 8C48 6.89543 48.8954 6 50 6H70C71.1046 6 72 6.89543 72 8V28C72 29.1046 71.1046 30 70 30H50C48.8954 30 48 29.1046 48 28V8ZM52 10V26H68V10H52ZM48 50C48 48.8954 48.8954 48 50 48H70C71.1046 48 72 48.8954 72 50V70C72 71.1046 71.1046 72 70 72H50C48.8954 72 48 71.1046 48 70V50ZM52 52V68H68V52H52ZM88 50C88 48.8954 88.8954 48 90 48H110C111.105 48 112 48.8954 112 50V70C112 71.1046 111.105 72 110 72H90C88.8954 72 88 71.1046 88 70V50ZM92 52V68H108V52H92ZM8 50C8 48.8954 8.89543 48 10 48H30C31.1046 48 32 48.8954 32 50V70C32 71.1046 31.1046 72 30 72H10C8.89543 72 8 71.1046 8 70V50ZM12 52V68H28V52H12ZM8 92C8 90.8954 8.89543 90 10 90H30C31.1046 90 32 90.8954 32 92V112C32 113.105 31.1046 114 30 114H10C8.89543 114 8 113.105 8 112V92ZM12 94V110H28V94H12ZM48 92C48 90.8954 48.8954 90 50 90H70C71.1046 90 72 90.8954 72 92V112C72 113.105 71.1046 114 70 114H50C48.8954 114 48 113.105 48 112V92ZM52 94V110H68V94H52ZM88 92C88 90.8954 88.8954 90 90 90H110C111.105 90 112 90.8954 112 92V112C112 113.105 111.105 114 110 114H90C88.8954 114 88 113.105 88 112V92ZM92 94V110H108V94H92Z" fill="#E83E8C"/>
</g>
</g>
</svg>
