<svg width="120" height="120" viewBox="0 0 120 120" fill="none" xmlns="http://www.w3.org/2000/svg">
<g id="growth">
<g id="growth_2">
<path id="Layer 1" d="M10 109H110" stroke="#E83E8C" stroke-width="4" stroke-linecap="round" stroke-linejoin="round"/>
<path id="Layer 2" fill-rule="evenodd" clip-rule="evenodd" d="M66.5656 37.4357C72.4335 43.3035 80.6095 44.687 88.0294 37.267C95.4494 29.847 93.4356 10.5656 93.4356 10.5656C93.4356 10.5656 74.2362 8.63383 66.8162 16.0538C59.3963 23.4737 60.6977 31.5678 66.5656 37.4357V37.4357Z" stroke="#E83E8C" stroke-width="4" stroke-linecap="round" stroke-linejoin="round"/>
<path id="Layer 3" fill-rule="evenodd" clip-rule="evenodd" d="M51.3826 37.4208C54.1073 34.6961 54.7496 30.8997 51.3043 27.4544C47.859 24.0091 38.9059 24.9441 38.9059 24.9441C38.9059 24.9441 38.009 33.8591 41.4543 37.3044C44.8996 40.7497 48.6579 40.1454 51.3826 37.4208V37.4208Z" stroke="#E83E8C" stroke-width="4" stroke-linecap="round" stroke-linejoin="round"/>
<path id="Layer 4" d="M60.0813 59.5448C60.0813 59.5448 58.9395 44.1797 51 38" stroke="#E83E8C" stroke-width="4" stroke-linecap="round" stroke-linejoin="round"/>
<path id="Layer 5" d="M60.1046 74.8311L60.1046 58.9991C60.1046 51.1299 62.9166 43.5198 68.0334 37.5414L81.5771 21.7168" stroke="#E83E8C" stroke-width="4" stroke-linecap="round" stroke-linejoin="round"/>
<path id="Layer 6" d="M15 109L20.205 91.3029V91.3029C22.8532 82.2991 32.6078 75 42.0009 75H77.9991C87.3884 75 97.1453 82.2939 99.795 91.3029L105 109" stroke="#E83E8C" stroke-width="4" stroke-linecap="round" stroke-linejoin="round"/>
</g>
</g>
</svg>
