<svg width="120" height="120" viewBox="0 0 120 120" fill="none" xmlns="http://www.w3.org/2000/svg">
<g id="headphones">
<g id="headphones_2">
<path id="Layer 1" fill-rule="evenodd" clip-rule="evenodd" d="M10 63.9906C10 59.0252 14.0232 55 19.0054 55H30V90H19.0054C14.0318 90 10 85.968 10 81.0094V63.9906V63.9906Z" stroke="#E83E8C" stroke-width="4" stroke-linecap="round" stroke-linejoin="round"/>
<rect id="Layer 2" x="30" y="52" width="8" height="40" rx="4" stroke="#E83E8C" stroke-width="4" stroke-linecap="round" stroke-linejoin="round"/>
<rect id="Layer 3" x="82" y="52" width="8" height="40" rx="4" stroke="#E83E8C" stroke-width="4" stroke-linecap="round" stroke-linejoin="round"/>
<path id="Layer 4" fill-rule="evenodd" clip-rule="evenodd" d="M90 66.8477V55H100.995C105.968 55 110 59.032 110 63.9906V81.0094C110 85.9748 105.977 90 100.995 90H90V73.2383V66.8477Z" stroke="#E83E8C" stroke-width="4" stroke-linecap="round" stroke-linejoin="round"/>
<path id="Layer 5" d="M100 50C100 27.9086 82.0914 10 60 10C37.9086 10 20 27.9086 20 50V54.063" stroke="#E83E8C" stroke-width="4" stroke-linecap="round" stroke-linejoin="round"/>
<path id="Layer 6" d="M100 50V53" stroke="#E83E8C" stroke-width="4" stroke-linecap="round" stroke-linejoin="round"/>
<path id="Layer 7" d="M99.8081 90V95C99.8081 97.7614 97.5718 100 94.8028 100H70" stroke="#E83E8C" stroke-width="4" stroke-linecap="round" stroke-linejoin="round"/>
<path id="Layer 8" d="M60 110V105C60 102.239 62.2363 100 65.0053 100H82.6313" stroke="#E83E8C" stroke-width="4" stroke-linecap="round" stroke-linejoin="round"/>
</g>
</g>
</svg>
