<svg width="120" height="120" viewBox="0 0 120 120" fill="none" xmlns="http://www.w3.org/2000/svg">
<g id="healthcare-1">
<g id="healthcare-1_2">
<path id="Layer 1" fill-rule="evenodd" clip-rule="evenodd" d="M80 40V12.9928C80 11.338 78.6539 10 76.9935 10H43.0065C41.3423 10 40 11.3399 40 12.9928V40H12.9928C11.338 40 10 41.3461 10 43.0065V76.9935C10 78.6577 11.3399 80 12.9928 80H40V107.007C40 108.662 41.3461 110 43.0065 110H76.9935C78.6577 110 80 108.66 80 107.007V80H107.007C108.662 80 110 78.6539 110 76.9935V43.0065C110 41.3423 108.66 40 107.007 40H80V40Z" stroke="#E83E8C" stroke-width="4" stroke-linecap="round" stroke-linejoin="round"/>
</g>
</g>
</svg>
