<svg width="120" height="120" viewBox="0 0 120 120" fill="none" xmlns="http://www.w3.org/2000/svg">
<g id="healthcare-2">
<g id="healthcare-2_2">
<rect id="Layer 1" x="10" y="30" width="100" height="80" rx="4" stroke="#E83E8C" stroke-width="4" stroke-linecap="round" stroke-linejoin="round"/>
<path id="Layer 2" fill-rule="evenodd" clip-rule="evenodd" d="M68 62V51.1971C68 50.5352 67.4616 50 66.7974 50H53.2026C52.5369 50 52 50.536 52 51.1971V62H41.1971C40.5352 62 40 62.5384 40 63.2026V76.7974C40 77.4631 40.536 78 41.1971 78H52V88.8029C52 89.4648 52.5384 90 53.2026 90H66.7974C67.4631 90 68 89.464 68 88.8029V78H78.8029C79.4648 78 80 77.4616 80 76.7974V63.2026C80 62.5369 79.464 62 78.8029 62H68V62Z" stroke="#E83E8C" stroke-width="4" stroke-linecap="round" stroke-linejoin="round"/>
<path id="Layer 3" fill-rule="evenodd" clip-rule="evenodd" d="M80 30C80 18.9543 71.0457 10 60 10C48.9543 10 40 18.9543 40 30H80Z" stroke="#E83E8C" stroke-width="4" stroke-linecap="round" stroke-linejoin="round"/>
</g>
</g>
</svg>
