<svg width="120" height="120" viewBox="0 0 120 120" fill="none" xmlns="http://www.w3.org/2000/svg">
<g id="heartbreak">
<g id="heartbreak_2">
<path id="Layer 1" fill-rule="evenodd" clip-rule="evenodd" d="M65.147 19.1653C69.88 15.3109 75.9202 13 82.5 13C97.6878 13 110 25.3122 110 40.5C110 41.0837 109.982 41.6631 109.946 42.2378C109.982 42.4819 110 42.7359 110 43C110 88 60 108 60 108C60 108 10 88 10 43C10 42.7365 10.0183 42.483 10.0541 42.2392C10.0182 41.6641 10 41.0842 10 40.5C10 25.3122 22.3122 13 37.5 13C42.0332 13 46.3103 14.0969 50.0802 16.0397V50.9732L61.8763 48.3672V78.0898L77.3065 31.1481L61.8763 36.1735L65.147 19.1653V19.1653Z" stroke="#E83E8C" stroke-width="4" stroke-linecap="round" stroke-linejoin="round"/>
</g>
</g>
</svg>
