<svg width="120" height="120" viewBox="0 0 120 120" fill="none" xmlns="http://www.w3.org/2000/svg">
<g id="home">
<g id="home_2">
<path id="Layer 1" fill-rule="evenodd" clip-rule="evenodd" d="M77.9944 26.979L61.4151 10.5799C60.634 9.80724 59.3647 9.80618 58.5826 10.5799L10.4506 58.1886C9.66951 58.9612 9.92926 59.5895 11.0332 59.5895H24.3237V107.993C24.3237 109.104 25.2198 110 26.3253 110H93.6724C94.7718 110 95.674 109.101 95.674 107.993V59.5895H108.964C110.075 59.5895 110.329 58.9623 109.547 58.1886L91.9912 40.8237V17.0083H77.9944V26.979V26.979Z" stroke="#E83E8C" stroke-width="4" stroke-linecap="round" stroke-linejoin="round"/>
<path id="Layer 2" fill-rule="evenodd" clip-rule="evenodd" d="M46 81.125C46 81.125 46 68 60.5 68C75 68 75 81.125 75 81.125V110H46V81.125Z" stroke="#E83E8C" stroke-width="4" stroke-linecap="round" stroke-linejoin="round"/>
</g>
</g>
</svg>
