<svg width="120" height="120" viewBox="0 0 120 120" fill="none" xmlns="http://www.w3.org/2000/svg">
<g id="icon-96">
<g id="33-multimeda-music-itunes">
<path id="Layer 1" fill-rule="evenodd" clip-rule="evenodd" d="M60 110C87.6142 110 110 87.6142 110 60C110 32.3858 87.6142 10 60 10C32.3858 10 10 32.3858 10 60C10 87.6142 32.3858 110 60 110Z" stroke="#E83E8C" stroke-width="4" stroke-linecap="round" stroke-linejoin="round"/>
<path id="Layer 2" fill-rule="evenodd" clip-rule="evenodd" d="M80.9656 29.2417V44.4893L44.9899 50.5108V35.2888L80.9656 29.2417Z" stroke="#E83E8C" stroke-width="4" stroke-linecap="round" stroke-linejoin="round"/>
<path id="Layer 3" fill-rule="evenodd" clip-rule="evenodd" d="M73.4707 82.37C77.61 82.37 80.9656 79.7151 80.9656 76.44C80.9656 73.165 77.61 70.51 73.4707 70.51C69.3313 70.51 65.9757 73.165 65.9757 76.44C65.9757 79.7151 69.3313 82.37 73.4707 82.37Z" stroke="#E83E8C" stroke-width="4" stroke-linecap="round" stroke-linejoin="round"/>
<path id="Layer 4" fill-rule="evenodd" clip-rule="evenodd" d="M37.4949 88.2999C41.6343 88.2999 44.9899 85.645 44.9899 82.3699C44.9899 79.0949 41.6343 76.4399 37.4949 76.4399C33.3556 76.4399 30 79.0949 30 82.3699C30 85.645 33.3556 88.2999 37.4949 88.2999Z" stroke="#E83E8C" stroke-width="4" stroke-linecap="round" stroke-linejoin="round"/>
<path id="Layer 5" d="M44.9899 50.643V82.3699" stroke="#E83E8C" stroke-width="4" stroke-linecap="round" stroke-linejoin="round"/>
<path id="Layer 6" d="M80.9656 45.011V76.445" stroke="#E83E8C" stroke-width="4" stroke-linecap="round" stroke-linejoin="round"/>
</g>
</g>
</svg>
