<svg width="120" height="120" viewBox="0 0 120 120" fill="none" xmlns="http://www.w3.org/2000/svg">
<g id="invader">
<g id="invader_2">
<path id="Layer 1" d="M80 33C78.8954 33 78 33.8954 78 35C78 36.1046 78.8954 37 80 37V33ZM90 35H92C92 33.8954 91.1046 33 90 33V35ZM90 45H88C88 46.1046 88.8954 47 90 47V45ZM100 45H102C102 43.8954 101.105 43 100 43V45ZM100 65H98C98 66.1046 98.8954 67 100 67V65ZM110 65H112C112 63.8954 111.105 63 110 63V65ZM110 95V97C111.105 97 112 96.1046 112 95H110ZM100 95H98C98 96.1046 98.8954 97 100 97V95ZM100 75H102C102 73.8954 101.105 73 100 73V75ZM90 75V73C88.8954 73 88 73.8954 88 75H90ZM90 95V97C91.1046 97 92 96.1046 92 95H90ZM80 95H78C78 96.1046 78.8954 97 80 97V95ZM80 85H82C82 83.8954 81.1046 83 80 83V85ZM40 85V83C38.8954 83 38 83.8954 38 85H40ZM40 95V97C41.1046 97 42 96.1046 42 95H40ZM30 95H28C28 96.1046 28.8954 97 30 97V95ZM30 75H32C32 73.8954 31.1046 73 30 73V75ZM20 75V73C18.8954 73 18 73.8954 18 75H20ZM20 95V97C21.1046 97 22 96.1046 22 95H20ZM10 95H8C8 96.1046 8.89543 97 10 97V95ZM10 65V63C8.89543 63 8 63.8954 8 65H10ZM20 65V67C21.1046 67 22 66.1046 22 65H20ZM20 45V43C18.8954 43 18 43.8954 18 45H20ZM30 45V47C31.1046 47 32 46.1046 32 45H30ZM30 35V33C28.8954 33 28 33.8954 28 35H30ZM40 35V37C41.1046 37 42 36.1046 42 35H40ZM40 25V23C38.8954 23 38 23.8954 38 25H40ZM50 25H52C52 23.8954 51.1046 23 50 23V25ZM50 35H48C48 36.1046 48.8954 37 50 37V35ZM70 35V37C71.1046 37 72 36.1046 72 35H70ZM70 25V23C68.8954 23 68 23.8954 68 25H70ZM80 25H82C82 23.8954 81.1046 23 80 23V25ZM40 93C38.8954 93 38 93.8954 38 95C38 96.1046 38.8954 97 40 97V93ZM55 95H57C57 93.8954 56.1046 93 55 93V95ZM55 105V107C56.1046 107 57 106.105 57 105H55ZM40 105H38C38 106.105 38.8954 107 40 107V105ZM65 93C63.8954 93 63 93.8954 63 95C63 96.1046 63.8954 97 65 97V93ZM80 95H82C82 93.8954 81.1046 93 80 93V95ZM80 105V107C81.1046 107 82 106.105 82 105H80ZM65 105H63C63 106.105 63.8954 107 65 107V105ZM30 13C28.8954 13 28 13.8954 28 15C28 16.1046 28.8954 17 30 17V13ZM40 15H42C42 13.8954 41.1046 13 40 13V15ZM40 25V27C41.1046 27 42 26.1046 42 25H40ZM30 25H28C28 26.1046 28.8954 27 30 27V25ZM80 15V13C78.8954 13 78 13.8954 78 15H80ZM80 25H78C78 26.1046 78.8954 27 80 27V25ZM90 25V27C91.1046 27 92 26.1046 92 25H90ZM80 37H90V33H80V37ZM88 35V45H92V35H88ZM90 47H100V43H90V47ZM98 45V65H102V45H98ZM100 67H102.5V63H100V67ZM102.5 67H110V63H102.5V67ZM108 65V95H112V65H108ZM110 93H100V97H110V93ZM102 95V75H98V95H102ZM100 73H90V77H100V73ZM88 75V95H92V75H88ZM90 93H80V97H90V93ZM82 95V85H78V95H82ZM80 83H40V87H80V83ZM38 85V95H42V85H38ZM40 93H30V97H40V93ZM32 95V75H28V95H32ZM30 73H20V77H30V73ZM18 75V95H22V75H18ZM20 93H10V97H20V93ZM12 95V65H8V95H12ZM10 67H17.5V63H10V67ZM17.5 67H20V63H17.5V67ZM22 65V45H18V65H22ZM20 47H30V43H20V47ZM32 45V35H28V45H32ZM30 37H40V33H30V37ZM42 35V25H38V35H42ZM40 27H50V23H40V27ZM48 25V35H52V25H48ZM50 37H70V33H50V37ZM72 35V25H68V35H72ZM70 27H80V23H70V27ZM78 25V35H82V25H78ZM40 97H55V93H40V97ZM53 95V105H57V95H53ZM55 103H40V107H55V103ZM42 105V95H38V105H42ZM65 97H80V93H65V97ZM78 95V105H82V95H78ZM80 103H65V107H80V103ZM67 105V95H63V105H67ZM30 17H40V13H30V17ZM38 15V25H42V15H38ZM40 23H30V27H40V23ZM32 25V15H28V25H32ZM90 13H80V17H90V13ZM78 15V25H82V15H78ZM80 27H90V23H80V27ZM92 25V15H88V25H92Z" fill="#E83E8C"/>
<rect id="Layer 2" x="40" y="45" width="10" height="10" stroke="#E83E8C" stroke-width="4" stroke-linecap="round" stroke-linejoin="round"/>
<rect id="Layer 3" x="70" y="45" width="10" height="10" stroke="#E83E8C" stroke-width="4" stroke-linecap="round" stroke-linejoin="round"/>
</g>
</g>
</svg>
