<svg width="120" height="120" viewBox="0 0 120 120" fill="none" xmlns="http://www.w3.org/2000/svg">
<g id="ipad-pro">
<g id="ipad-pro_2">
<rect id="Layer 1" x="10" y="10" width="80" height="100" rx="3" stroke="#E83E8C" stroke-width="4" stroke-linecap="round" stroke-linejoin="round"/>
<path id="Layer 2" fill-rule="evenodd" clip-rule="evenodd" d="M90 94V107.007C90 108.66 88.6617 110 87.0099 110H12.9901C11.3387 110 10 108.662 10 107.007V94H90V94Z" stroke="#E83E8C" stroke-width="4" stroke-linecap="round" stroke-linejoin="round"/>
<path id="Layer 3" fill-rule="evenodd" clip-rule="evenodd" d="M90 26V12.9981C90 11.343 88.6613 10 87.0099 10H12.9901C11.3383 10 10 11.3423 10 12.9981V26H90V26Z" stroke="#E83E8C" stroke-width="4" stroke-linecap="round" stroke-linejoin="round"/>
<path id="Layer 4" fill-rule="evenodd" clip-rule="evenodd" d="M50 105C51.6569 105 53 103.657 53 102C53 100.343 51.6569 99 50 99C48.3431 99 47 100.343 47 102C47 103.657 48.3431 105 50 105Z" fill="#E83E8C" stroke="#E83E8C" stroke-width="4" stroke-linecap="round" stroke-linejoin="round"/>
<path id="Layer 5" d="M47 18H53" stroke="#E83E8C" stroke-width="4" stroke-linecap="round" stroke-linejoin="round"/>
<path id="Layer 6" fill-rule="evenodd" clip-rule="evenodd" d="M102 14C102 11.7909 103.791 10 106 10V10C108.209 10 110 11.7909 110 14V102.762L106 109.95L102 102.762V14Z" stroke="#E83E8C" stroke-width="4" stroke-linecap="round" stroke-linejoin="round"/>
<path id="Layer 7" fill-rule="evenodd" clip-rule="evenodd" d="M110 20V13.9979C110 11.7978 108.209 10 106 10C103.795 10 102 11.7899 102 13.9979V20H110V20Z" fill="#E83E8C" stroke="#E83E8C" stroke-width="4" stroke-linecap="round" stroke-linejoin="round"/>
</g>
</g>
</svg>
