<svg width="120" height="120" viewBox="0 0 120 120" fill="none" xmlns="http://www.w3.org/2000/svg">
<g id="layers-3">
<g id="layers-3_2">
<path id="Layer 1" d="M32.4117 47.5L11.884 57.7638C9.40898 59.0013 9.41398 61.0012 11.884 62.2362L55.5277 84.058C58.0027 85.2955 62.0023 85.293 64.4723 84.058L108.116 62.2362C110.591 60.9987 110.586 58.9988 108.116 57.7638L87.5883 47.5" stroke="#E83E8C" stroke-width="4" stroke-linecap="round" stroke-linejoin="round"/>
<path id="Layer 2" fill-rule="evenodd" clip-rule="evenodd" d="M109.011 33.2111C110.485 33.9482 110.485 36.0518 109.011 36.7888L64.4722 59.0581C61.6569 60.4657 58.3432 60.4657 55.5279 59.0581L10.9894 36.7888C9.51529 36.0518 9.51529 33.9482 10.9894 33.2111L55.5279 10.9419C58.3432 9.53424 61.6569 9.53424 64.4722 10.9419L109.011 33.2111Z" stroke="#E83E8C" stroke-width="4" stroke-linecap="round" stroke-linejoin="round"/>
<path id="Layer 3" fill-rule="evenodd" clip-rule="evenodd" d="M32.4117 72.5L11.884 82.7638C9.40898 84.0013 9.41398 86.0012 11.884 87.2362L55.5277 109.058C58.0027 110.296 62.0023 110.293 64.4723 109.058L108.116 87.2362C110.591 85.9987 110.586 83.9988 108.116 82.7638L87.5883 72.5L64.4723 84.058C62.0023 85.293 58.0027 85.2955 55.5277 84.058L32.4117 72.5V72.5Z" stroke="#E83E8C" stroke-width="4" stroke-linecap="round" stroke-linejoin="round"/>
</g>
</g>
</svg>
