<svg width="120" height="120" viewBox="0 0 120 120" fill="none" xmlns="http://www.w3.org/2000/svg">
<g id="lemon">
<g id="lemon_2">
<path id="Layer 1" fill-rule="evenodd" clip-rule="evenodd" d="M76.5277 31.0236C60.4153 20.2123 42.3156 27.2937 27.1835 42.4259C12.0514 57.558 4.96998 75.6577 15.7812 91.7701C13.5772 94.8153 13.8867 99.1397 16.6819 101.935C19.4771 104.73 23.8015 105.04 26.8466 102.836C42.9591 113.647 61.0588 106.565 76.1909 91.4333C91.323 76.3011 98.4044 58.2014 87.5932 42.089C89.7972 39.0439 89.4877 34.7195 86.6925 31.9243C83.8973 29.1291 79.5729 28.8196 76.5277 31.0236L76.5277 31.0236Z" stroke="#E83E8C" stroke-width="4" stroke-linecap="round" stroke-linejoin="round"/>
<path id="Layer 2" d="M34.1721 50.1237C34.9532 49.3426 34.9532 48.0763 34.1721 47.2953C33.3911 46.5142 32.1247 46.5142 31.3437 47.2953L34.1721 50.1237ZM18.1353 67.6005C17.8078 68.6554 18.3976 69.776 19.4525 70.1034C20.5074 70.4308 21.6281 69.8411 21.9555 68.7862L18.1353 67.6005ZM20.7664 75.6226C20.8016 74.5186 19.9351 73.5951 18.8311 73.5599C17.7271 73.5248 16.8036 74.3912 16.7685 75.4952L20.7664 75.6226ZM17.683 81.6027C18.1368 82.6097 19.321 83.0582 20.3281 82.6044C21.3351 82.1507 21.7837 80.9664 21.3299 79.9594L17.683 81.6027ZM31.3437 47.2953C25.1215 53.5174 20.3602 60.4321 18.1353 67.6005L21.9555 68.7862C23.9277 62.4319 28.2396 56.0562 34.1721 50.1237L31.3437 47.2953ZM16.7685 75.4952C16.7202 77.0105 16.5392 79.0643 17.683 81.6027L21.3299 79.9594C20.6219 78.3883 20.7145 77.2531 20.7664 75.6226L16.7685 75.4952Z" fill="#E83E8C"/>
<path id="Layer 3" fill-rule="evenodd" clip-rule="evenodd" d="M95.2647 20.4046C101.536 16.7838 109.742 19.2559 109.742 19.2559C109.742 19.2559 107.78 27.5985 101.509 31.2193C95.2372 34.8401 87.0312 32.368 87.0312 32.368C87.0312 32.368 88.9933 24.0254 95.2647 20.4046V20.4046Z" stroke="#E83E8C" stroke-width="4" stroke-linecap="round" stroke-linejoin="round"/>
<path id="Layer 4" d="M85.9418 30.8687C85.9418 30.8687 88.3149 27.6711 88.1426 21.6627C87.9703 15.6544 84.0596 11.7437 84.0596 11.7437" stroke="#E83E8C" stroke-width="4" stroke-linecap="round" stroke-linejoin="round"/>
</g>
</g>
</svg>
