<svg width="120" height="120" viewBox="0 0 120 120" fill="none" xmlns="http://www.w3.org/2000/svg">
<g id="location">
<g id="location_2">
<path id="Path" d="M60.052 59.52C51.584 59.52 44.712 52.604 44.712 44.072C44.712 35.532 51.584 28.62 60.052 28.62C68.52 28.62 75.392 35.536 75.392 44.072C75.392 52.6 68.52 59.52 60.052 59.52" stroke="#E83E8C" stroke-width="4" stroke-linecap="round" stroke-linejoin="round"/>
<path id="Path_2" d="M60.052 10C41.3 10 26.1 25.308 26.1 44.196C26.1 62.036 41.476 85.048 51.744 96.252C55.58 100.432 60.048 106.068 60.048 106.068C60.048 106.068 64.848 100.4 68.964 96.096C79.224 85.36 94 63.804 94 44.196C94 25.308 78.8 10 60.052 10" stroke="#E83E8C" stroke-width="4" stroke-linecap="round" stroke-linejoin="round"/>
</g>
</g>
</svg>
