<svg width="120" height="120" viewBox="0 0 120 120" fill="none" xmlns="http://www.w3.org/2000/svg">
<g id="loupe-2">
<g id="loupe-2_2">
<path id="Layer 1" fill-rule="evenodd" clip-rule="evenodd" d="M43.6634 77.3267C62.2551 77.3267 77.3267 62.2551 77.3267 43.6634C77.3267 25.0716 62.2551 10 43.6634 10C25.0716 10 10 25.0716 10 43.6634C10 62.2551 25.0716 77.3267 43.6634 77.3267Z" stroke="#E83E8C" stroke-width="4" stroke-linecap="round" stroke-linejoin="round"/>
<path id="Layer 2" fill-rule="evenodd" clip-rule="evenodd" d="M43.6633 70.396C58.4274 70.396 70.396 58.4274 70.396 43.6633C70.396 28.8993 58.4274 16.9307 43.6633 16.9307C28.8993 16.9307 16.9307 28.8993 16.9307 43.6633C16.9307 58.4274 28.8993 70.396 43.6633 70.396Z" stroke="#E83E8C" stroke-width="4" stroke-linecap="round" stroke-linejoin="round"/>
<path id="Layer 3" fill-rule="evenodd" clip-rule="evenodd" d="M70.192 74.649L74.6652 70.1758C74.6652 70.1758 116.941 100.302 108.527 108.717C100.112 117.131 70.192 74.649 70.192 74.649V74.649Z" stroke="#E83E8C" stroke-width="4" stroke-linecap="round" stroke-linejoin="round"/>
<path id="Layer 4" fill-rule="evenodd" clip-rule="evenodd" d="M71.7961 63.0554L75.9728 68.8682L68.8682 75.9728L63.0553 71.7962L71.7961 63.0554V63.0554Z" stroke="#E83E8C" stroke-width="4" stroke-linecap="round" stroke-linejoin="round"/>
</g>
</g>
</svg>
