<svg width="120" height="120" viewBox="0 0 120 120" fill="none" xmlns="http://www.w3.org/2000/svg">
<g id="marker">
<g id="marker_2">
<path id="Layer 1" fill-rule="evenodd" clip-rule="evenodd" d="M39.4898 48.9824L73.0179 82.5105L66.3122 89.2161L32.7842 55.688L39.4898 48.9824V48.9824Z" stroke="#E83E8C" stroke-width="4" stroke-linecap="round" stroke-linejoin="round"/>
<path id="Layer 2" fill-rule="evenodd" clip-rule="evenodd" d="M39.7209 44.7725C38.3995 45.9037 38.3299 47.8224 39.5663 49.0588L72.9012 82.3936C74.1372 83.6297 76.0617 83.5651 77.1988 82.2503L108.322 46.2655C110.606 43.6242 110.458 39.4832 107.989 37.0144L85.1503 14.1754C82.6824 11.7075 78.5319 11.5474 75.8766 13.8205L39.7209 44.7725V44.7725Z" stroke="#E83E8C" stroke-width="4" stroke-linecap="round" stroke-linejoin="round"/>
<path id="Layer 3" fill-rule="evenodd" clip-rule="evenodd" d="M31.0562 57.416L32.7842 55.688L66.3122 89.216L64.5843 90.944C53.2458 88.6167 42.3196 90.806 34.8024 97.9399L24.0603 87.1978C31.1943 79.6806 33.3835 68.7544 31.0562 57.416V57.416V57.416Z" stroke="#E83E8C" stroke-width="4" stroke-linecap="round" stroke-linejoin="round"/>
<path id="Layer 4" fill-rule="evenodd" clip-rule="evenodd" d="M24.0669 87.2041L34.7958 97.9331L25.855 106.874L10.6556 100.615L24.0669 87.2041V87.2041Z" stroke="#E83E8C" stroke-width="4" stroke-linecap="round" stroke-linejoin="round"/>
</g>
</g>
</svg>
