<svg width="120" height="120" viewBox="0 0 120 120" fill="none" xmlns="http://www.w3.org/2000/svg">
<g id="medal">
<g id="medal_2">
<path id="Layer 1" fill-rule="evenodd" clip-rule="evenodd" d="M60 110C77.6731 110 92 95.6731 92 78C92 60.3269 77.6731 46 60 46C42.3269 46 28 60.3269 28 78C28 95.6731 42.3269 110 60 110V110Z" stroke="#E83E8C" stroke-width="4" stroke-linecap="round" stroke-linejoin="round"/>
<path id="Layer 2" fill-rule="evenodd" clip-rule="evenodd" d="M60.45 59L66.0399 70.7222L78.9 72.4233L69.4941 81.369L71.8528 94.1429L60.45 87.9494L49.0472 94.1429L51.4059 81.369L42 72.4233L54.8601 70.7222L60.45 59Z" stroke="#E83E8C" stroke-width="4" stroke-linecap="round" stroke-linejoin="round"/>
<path id="Layer 3" d="M21 10V8C20.3391 8 19.721 8.32645 19.3483 8.87221C18.9757 9.41798 18.8967 10.1126 19.1372 10.7281L21 10ZM44.9956 10L46.867 9.29441C46.5733 8.51555 45.8279 8 44.9956 8V10ZM58.5806 46.0309L58.6678 48.029C59.3083 48.0011 59.8967 47.6677 60.2498 47.1325C60.603 46.5973 60.6782 45.9253 60.452 45.3253L58.5806 46.0309ZM38.3635 54.423H36.3635C36.3635 55.2164 36.8326 55.9348 37.559 56.254C38.2854 56.5732 39.1317 56.4328 39.7162 55.8962L38.3635 54.423ZM99 10L100.863 10.7281C101.103 10.1126 101.024 9.41798 100.652 8.87221C100.279 8.32645 99.6609 8 99 8V10ZM75.0044 10V8C74.17 8 73.4233 8.51806 73.1311 9.29966L75.0044 10ZM61.5327 46.0361L59.6593 45.3357C59.4355 45.9342 59.5112 46.6036 59.863 47.1371C60.2147 47.6705 60.8002 48.0037 61.4385 48.0338L61.5327 46.0361ZM81.6365 54.423L80.2838 55.8962C80.8683 56.4328 81.7146 56.5732 82.441 56.254C83.1674 55.9348 83.6365 55.2164 83.6365 54.423H81.6365ZM40.2263 53.6949L22.8628 9.27191L19.1372 10.7281L36.5008 55.1511L40.2263 53.6949ZM21 12H44.9956V8H21V12ZM43.1242 10.7056L56.7091 46.7365L60.452 45.3253L46.867 9.29441L43.1242 10.7056ZM58.4933 44.0328C50.222 44.3939 42.7164 47.7111 37.0109 52.9498L39.7162 55.8962C44.7539 51.2707 51.372 48.3475 58.6678 48.029L58.4933 44.0328ZM40.3635 54.423V54.423H36.3635V54.423H40.3635ZM83.4992 55.1511L100.863 10.7281L97.1372 9.27191L79.7737 53.6949L83.4992 55.1511ZM99 8H75.0044V12H99V8ZM73.1311 9.29966L59.6593 45.3357L63.406 46.7364L76.8778 10.7003L73.1311 9.29966ZM61.4385 48.0338C68.6921 48.3759 75.2705 51.2931 80.2838 55.8962L82.9891 52.9498C77.3113 47.7366 69.8508 44.4261 61.6269 44.0383L61.4385 48.0338ZM83.6365 54.423V54.423H79.6365V54.423H83.6365Z" fill="#E83E8C"/>
</g>
</g>
</svg>
