<svg width="120" height="120" viewBox="0 0 120 120" fill="none" xmlns="http://www.w3.org/2000/svg">
<g id="megaphone">
<g id="megaphone_2">
<rect id="Layer 1" x="102" y="18" width="8" height="74" rx="4" stroke="#E83E8C" stroke-width="4" stroke-linecap="round" stroke-linejoin="round"/>
<path id="Path" d="M102 90C85.9352 69.9902 62 69.9902 62 69.9902" stroke="#E83E8C" stroke-width="4" stroke-linecap="round" stroke-linejoin="round"/>
<path id="Path_2" d="M62 40.2793C62 40.2793 86.1602 40.2793 102 20.0479" stroke="#E83E8C" stroke-width="4" stroke-linecap="round" stroke-linejoin="round"/>
<rect id="Layer 3" x="22" y="37" width="40" height="36" rx="3" stroke="#E83E8C" stroke-width="4" stroke-linecap="round" stroke-linejoin="round"/>
<path id="Layer 4" d="M20 67H15C12.2386 67 10 64.7637 10 61.998V48.002C10 45.2395 12.2442 43 15 43H20" stroke="#E83E8C" stroke-width="4" stroke-linecap="round" stroke-linejoin="round"/>
<path id="Layer 5" d="M28 73V99.0007C28 101.213 29.789 103 31.9958 103H42.4244C44.3527 103 46.5622 100.33 44.5479 98C44.5479 98 40 92.6191 40 90.8208C40 87.8348 40 73 40 73V73" stroke="#E83E8C" stroke-width="4" stroke-linecap="round" stroke-linejoin="round"/>
</g>
</g>
</svg>
