<svg width="120" height="120" viewBox="0 0 120 120" fill="none" xmlns="http://www.w3.org/2000/svg">
<g id="nipple">
<g id="nipple_2">
<path id="Layer 1" fill-rule="evenodd" clip-rule="evenodd" d="M44.1312 45.9531L44.7662 45.3181C50.6329 48.1206 57.8722 47.0923 62.7314 42.2331C66.0508 38.9137 66.7559 34.809 67.3266 30.1391C67.6479 25.2224 69.6874 20.397 73.4452 16.6392C81.6633 8.42106 94.9875 8.42106 103.206 16.6392C111.424 24.8573 111.424 38.1814 103.206 46.3995C99.4478 50.1574 94.6223 52.1969 89.7057 52.5181C85.2599 53.1735 80.931 53.7939 77.6116 57.1133C72.7524 61.9725 71.7241 69.2119 74.5266 75.0785L73.8916 75.7135L44.1312 45.9531V45.9531Z" stroke="#E83E8C" stroke-width="4" stroke-linecap="round" stroke-linejoin="round"/>
<path id="Layer 2" d="M77.6885 23.8413C80.5251 19.6284 83.9504 18.004 87.6428 17.7943C89.4546 17.6914 91.3308 17.9292 93.2332 18.3688" stroke="#E83E8C" stroke-width="4" stroke-linecap="round" stroke-linejoin="round"/>
<path id="Layer 3" fill-rule="evenodd" clip-rule="evenodd" d="M25.4524 34.716C27.5073 32.6611 30.8432 32.6653 32.8971 34.7192L84.9809 86.803C87.0376 88.8597 87.0349 92.197 84.9842 94.2477V94.2477C82.9293 96.3026 79.5934 96.2984 77.5395 94.2445L25.4557 42.1607C23.399 40.104 23.4017 36.7667 25.4524 34.716V34.716V34.716Z" stroke="#E83E8C" stroke-width="4" stroke-linecap="round" stroke-linejoin="round"/>
<path id="Layer 4" fill-rule="evenodd" clip-rule="evenodd" d="M47.0327 63.7373L55.9625 72.6671L48.5235 80.1061C46.0562 82.5733 42.0521 82.5694 39.5912 80.1085V80.1085C37.1253 77.6427 37.1192 73.6508 39.5937 71.1763L47.0327 63.7373V63.7373Z" stroke="#E83E8C" stroke-width="4" stroke-linecap="round" stroke-linejoin="round"/>
<path id="Layer 5" fill-rule="evenodd" clip-rule="evenodd" d="M50.0149 78.6145L50.1517 78.7491C54.2434 86.6711 52.9685 96.6473 46.3267 103.289C38.1071 111.509 24.7805 111.509 16.5608 103.289C8.34121 95.0694 8.34121 81.7427 16.5608 73.5231C23.1176 66.9664 32.9239 65.6399 40.7955 69.5437L41.0126 69.7573L39.5937 71.1762C37.1192 73.6507 37.1253 77.6426 39.5912 80.1084C42.0521 82.5693 46.0562 82.5732 48.5235 80.106L50.0149 78.6145V78.6145Z" stroke="#E83E8C" stroke-width="4" stroke-linecap="round" stroke-linejoin="round"/>
</g>
</g>
</svg>
