<svg width="120" height="120" viewBox="0 0 120 120" fill="none" xmlns="http://www.w3.org/2000/svg">
<g id="note-2">
<g id="note-2_2">
<path id="Layer 1" fill-rule="evenodd" clip-rule="evenodd" d="M96.9011 10H104.989V110H14V10H22.0879C22.0879 13.866 25.2564 17 29.1648 17C33.0733 17 36.2418 13.866 36.2418 10H42.3077C42.3077 13.866 45.4761 17 49.3846 17C53.2931 17 56.4615 13.866 56.4615 10H62.5275C62.5275 13.866 65.6959 17 69.6044 17C73.5129 17 76.6813 13.866 76.6813 10H82.7473C82.7473 13.866 85.9157 17 89.8242 17C93.7326 17 96.9011 13.866 96.9011 10V10Z" stroke="#E83E8C" stroke-width="4" stroke-linecap="round" stroke-linejoin="round"/>
<path id="Layer 2" fill-rule="evenodd" clip-rule="evenodd" d="M29.1648 110H104.989V10H96.9011V10C96.9011 13.866 93.7326 17 89.8242 17C85.9157 17 82.7472 13.866 82.7472 10H76.6813C76.6813 13.866 73.5129 17 69.6044 17C65.6959 17 62.5275 13.866 62.5275 10H56.4615C56.4615 13.866 53.2931 17 49.3846 17C45.4761 17 42.3077 13.866 42.3077 10H36.2417C36.2417 13.866 33.0733 17 29.1648 17V110H29.1648Z" stroke="#E83E8C" stroke-width="4" stroke-linecap="round" stroke-linejoin="round"/>
<path id="Layer 3" d="M29.1648 52.5H105.011" stroke="#E83E8C" stroke-width="4" stroke-linecap="round" stroke-linejoin="round"/>
<path id="Layer 4" d="M29.1648 66.5H105.011" stroke="#E83E8C" stroke-width="4" stroke-linecap="round" stroke-linejoin="round"/>
<path id="Layer 5" d="M29.1648 95.5H105.011" stroke="#E83E8C" stroke-width="4" stroke-linecap="round" stroke-linejoin="round"/>
<path id="Layer 6" d="M29.1648 80.5H105.011" stroke="#E83E8C" stroke-width="4" stroke-linecap="round" stroke-linejoin="round"/>
<path id="Layer 7" d="M29.1648 38.5H104.989" stroke="#E83E8C" stroke-width="4" stroke-linecap="round" stroke-linejoin="round"/>
</g>
</g>
</svg>
