<svg width="120" height="120" viewBox="0 0 120 120" fill="none" xmlns="http://www.w3.org/2000/svg">
<g id="number-6">
<g id="6-numbers-letters-alphabet">
<path id="Layer 1" fill-rule="evenodd" clip-rule="evenodd" d="M60 110C87.6142 110 110 87.6142 110 60C110 32.3858 87.6142 10 60 10C32.3858 10 10 32.3858 10 60C10 87.6142 32.3858 110 60 110Z" stroke="#E83E8C" stroke-width="4" stroke-linecap="round" stroke-linejoin="round"/>
<path id="Layer 2" d="M74.7103 47.9526L74.571 47.2563C73.039 39.7354 69.3482 35 60.8524 35C50.337 35 44 43.2869 44 63.2033C44 78.8022 50.0585 85 59.5292 85C69 85 75.4763 77.7577 75.4763 68.7744C75.4763 59.8607 70.1142 52.1309 60.156 52.1309C54.6546 52.1309 49.8496 54.6379 46.7855 59.3036C43.3261 63.7307 44.2193 66.7081 44.2193 66.7081" stroke="#E83E8C" stroke-width="4" stroke-linecap="round" stroke-linejoin="round"/>
</g>
</g>
</svg>
