<svg width="120" height="120" viewBox="0 0 120 120" fill="none" xmlns="http://www.w3.org/2000/svg">
<g id="number-8">
<g id="8-numbers-letters-alphabet">
<path id="Layer 1" fill-rule="evenodd" clip-rule="evenodd" d="M60 110C87.6142 110 110 87.6142 110 60C110 32.3858 87.6142 10 60 10C32.3858 10 10 32.3858 10 60C10 87.6142 32.3858 110 60 110Z" stroke="#E83E8C" stroke-width="4" stroke-linecap="round" stroke-linejoin="round"/>
<path id="Layer 2" fill-rule="evenodd" clip-rule="evenodd" d="M67.4849 58.6C73.186 56.768 76.72 51.6182 76.72 45.32C76.72 37.48 71.52 31 60.72 31C50.4 31 44.72 37.48 44.72 45.32C44.72 51.5845 47.6918 56.6698 53.219 58.6H62.6794C62.6794 58.6 53.6042 58.4818 53.219 58.6C46.1716 60.7623 42 66.3414 42 73.32C42 83.16 49.76 88.52 60.08 88.52C69.76 88.52 78.16 83.16 78.16 73.32C78.16 66.1433 74.7798 60.6187 67.4849 58.6C67.2483 58.5345 62.3516 58.6 62.3516 58.6H67.4849Z" stroke="#E83E8C" stroke-width="4" stroke-linecap="round" stroke-linejoin="round"/>
</g>
</g>
</svg>
