<svg width="120" height="120" viewBox="0 0 120 120" fill="none" xmlns="http://www.w3.org/2000/svg">
<g id="omelette">
<g id="omelette_2">
<path id="Layer 1" fill-rule="evenodd" clip-rule="evenodd" d="M34.5085 88.7581C43.7195 100.05 46.693 107.348 59.84 109.618C70.2611 111.417 84.1932 106.639 88.4234 100.097C93.6402 92.0289 91.5618 86.3298 93.6402 81.2657C98.5574 69.2846 109.409 71.0576 109.409 54.4152C109.409 31.625 86.9789 34.8334 80.3778 28.4156C73.7768 21.9979 72.5073 10 59.84 10C47.1726 10 45.0131 21.5241 34.5085 28.4156C24.0038 35.3071 10 37.1812 10 58.4403C10 79.6993 25.2975 77.4666 34.5085 88.7581Z" stroke="#E83E8C" stroke-width="4" stroke-linecap="round" stroke-linejoin="round"/>
<path id="Layer 2" d="M37.8894 37.8524C38.813 37.2465 39.0705 36.0067 38.4646 35.0831C37.8587 34.1595 36.6188 33.902 35.6952 34.5079L37.8894 37.8524ZM30.268 37.5552C29.2896 38.0677 28.9119 39.2764 29.4244 40.2549C29.9369 41.2333 31.1456 41.611 32.1241 41.0985L30.268 37.5552ZM25.6734 45.0701C26.5278 44.3699 26.6528 43.1098 25.9526 42.2554C25.2525 41.4011 23.9924 41.2761 23.138 41.9762L25.6734 45.0701ZM21.2696 46.8415L22.8995 48.0006L21.2696 46.8415ZM15.9208 59.2992C15.9208 60.4037 16.8162 61.2992 17.9208 61.2992C19.0253 61.2992 19.9208 60.4037 19.9208 59.2992H15.9208ZM35.6952 34.5079C34.0128 35.6117 32.1987 36.5438 30.268 37.5552L32.1241 41.0985C33.9936 40.1192 36.0065 39.0877 37.8894 37.8524L35.6952 34.5079ZM23.138 41.9762C21.8644 43.02 20.6732 44.2293 19.6398 45.6824L22.8995 48.0006C23.6952 46.8819 24.6286 45.9263 25.6734 45.0701L23.138 41.9762ZM19.6398 45.6824C17.3068 48.9627 15.9208 53.2809 15.9208 59.2992H19.9208C19.9208 53.9256 21.1458 50.4664 22.8995 48.0006L19.6398 45.6824Z" fill="#E83E8C"/>
<path id="Layer 3" fill-rule="evenodd" clip-rule="evenodd" d="M59.505 78C69.3477 78 77.3268 69.9411 77.3268 60C77.3268 50.0589 69.3477 42 59.505 42C49.6623 42 41.6832 50.0589 41.6832 60C41.6832 69.9411 49.6623 78 59.505 78Z" stroke="#E83E8C" stroke-width="4" stroke-linecap="round" stroke-linejoin="round"/>
<path id="Layer 4" d="M59.505 52C60.6095 52 61.505 51.1046 61.505 50C61.505 48.8954 60.6095 48 59.505 48V52ZM56.7443 50.3939L57.3061 52.3134L56.7443 50.3939ZM54.6708 51.2709L53.6855 49.5305L54.6708 51.2709ZM47.9559 57.0937C47.6912 58.1661 48.3459 59.2501 49.4183 59.5148C50.4907 59.7795 51.5746 59.1247 51.8393 58.0523L47.9559 57.0937ZM52.5915 63.8766C52.0604 62.9081 50.8447 62.5536 49.8762 63.0847C48.9077 63.6158 48.5532 64.8315 49.0843 65.8L52.5915 63.8766ZM50.8061 68.1895C51.5568 68.9998 52.8222 69.0482 53.6325 68.2976C54.4428 67.547 54.4913 66.2816 53.7407 65.4713L50.8061 68.1895ZM59.505 48C58.3547 48 57.2393 48.1651 56.1826 48.4744L57.3061 52.3134C58.0019 52.1097 58.7391 52 59.505 52V48ZM56.1826 48.4744C55.3034 48.7317 54.4668 49.0881 53.6855 49.5305L55.6562 53.0113C56.1738 52.7183 56.7265 52.483 57.3061 52.3134L56.1826 48.4744ZM53.6855 49.5305C50.8641 51.1278 48.7567 53.8493 47.9559 57.0937L51.8393 58.0523C52.3734 55.8888 53.7804 54.0732 55.6562 53.0113L53.6855 49.5305ZM49.0843 65.8C49.5605 66.6682 50.14 67.4703 50.8061 68.1895L53.7407 65.4713C53.296 64.9912 52.9092 64.4558 52.5915 63.8766L49.0843 65.8Z" fill="#E83E8C"/>
</g>
</g>
</svg>
