<svg width="120" height="120" viewBox="0 0 120 120" fill="none" xmlns="http://www.w3.org/2000/svg">
<g id="orange">
<g id="orange_2">
<path id="Layer 1" fill-rule="evenodd" clip-rule="evenodd" d="M41.6369 105.45C66.7384 115.592 95.3085 103.464 105.45 78.3629C115.592 53.2615 103.465 24.6913 78.3631 14.5497C53.2616 4.40805 24.6915 16.5354 14.5498 41.6368C4.40817 66.7383 16.5355 95.3084 41.6369 105.45V105.45Z" stroke="#E83E8C" stroke-width="4" stroke-linecap="round" stroke-linejoin="round"/>
<path id="Layer 2" fill-rule="evenodd" clip-rule="evenodd" d="M98.8144 60.1614C99.2171 54.5234 96.2149 50.1496 93.1829 45.9146L60 59.9999L93.4237 73.5039C96.1865 70.5727 98.4117 65.7993 98.8144 60.1614V60.1614Z" stroke="#E83E8C" stroke-width="4" stroke-linecap="round" stroke-linejoin="round"/>
<path id="Layer 3" fill-rule="evenodd" clip-rule="evenodd" d="M21.1826 59.8372C20.7799 65.4751 23.782 69.8489 26.8141 74.084L59.997 59.9987L26.5733 46.4946C23.8105 49.4258 21.5853 54.1992 21.1826 59.8372V59.8372V59.8372Z" stroke="#E83E8C" stroke-width="4" stroke-linecap="round" stroke-linejoin="round"/>
<path id="Layer 4" fill-rule="evenodd" clip-rule="evenodd" d="M87.3317 87.5601C91.6031 83.8583 92.573 78.6426 93.4237 73.504L60 60L74.0853 93.1829C78.1116 93.0638 83.0604 91.262 87.3317 87.5601V87.5601Z" stroke="#E83E8C" stroke-width="4" stroke-linecap="round" stroke-linejoin="round"/>
<path id="Layer 5" fill-rule="evenodd" clip-rule="evenodd" d="M32.667 32.4367C28.3956 36.1386 27.4257 41.3542 26.5751 46.4928L59.9987 59.9969L45.9134 26.814C41.8872 26.933 36.9384 28.7349 32.667 32.4367V32.4367V32.4367Z" stroke="#E83E8C" stroke-width="4" stroke-linecap="round" stroke-linejoin="round"/>
<path id="Layer 6" fill-rule="evenodd" clip-rule="evenodd" d="M59.8385 98.8144C65.4764 99.2171 69.8503 96.2149 74.0853 93.1829L60 60L46.496 93.4237C49.4272 96.1865 54.2006 98.4117 59.8385 98.8144V98.8144Z" stroke="#E83E8C" stroke-width="4" stroke-linecap="round" stroke-linejoin="round"/>
<path id="Layer 7" fill-rule="evenodd" clip-rule="evenodd" d="M60.1627 21.1824C54.5248 20.7797 50.151 23.7819 45.9159 26.814L60.0012 59.9968L73.5052 26.5732C70.574 23.8104 65.8006 21.5852 60.1627 21.1824V21.1824V21.1824Z" stroke="#E83E8C" stroke-width="4" stroke-linecap="round" stroke-linejoin="round"/>
<path id="Layer 8" fill-rule="evenodd" clip-rule="evenodd" d="M32.4399 87.3317C36.1418 91.6031 41.3574 92.573 46.496 93.4237L60 60L26.8171 74.0853C26.9362 78.1116 28.7381 83.0604 32.4399 87.3317V87.3317Z" stroke="#E83E8C" stroke-width="4" stroke-linecap="round" stroke-linejoin="round"/>
<path id="Layer 9" fill-rule="evenodd" clip-rule="evenodd" d="M87.5632 32.6666C83.8613 28.3953 78.6457 27.4254 73.5071 26.5747L60.0031 59.9984L93.1859 45.9131C93.0669 41.8868 91.265 36.938 87.5632 32.6666V32.6666V32.6666Z" stroke="#E83E8C" stroke-width="4" stroke-linecap="round" stroke-linejoin="round"/>
</g>
</g>
</svg>
