<svg width="120" height="120" viewBox="0 0 120 120" fill="none" xmlns="http://www.w3.org/2000/svg">
<g id="pearl">
<g id="pearl_2">
<path id="Path" d="M35 90L10 65C10 37.3858 32.3858 15 60 15V62C52.268 62 46 68.268 46 76C46 83.732 52.268 90 60 90V90V90" stroke="#E83E8C" stroke-width="4" stroke-linecap="round" stroke-linejoin="round"/>
<path id="Path_2" d="M46.2015 73.6196C36.7503 51.3235 26.0217 28.3181 25.8394 28.4887" stroke="#E83E8C" stroke-width="4" stroke-linecap="round" stroke-linejoin="round"/>
<path id="Path_3" d="M85 90L110 65C110 37.3858 87.6142 15 60 15V62C67.732 62 74 68.268 74 76C74 83.732 67.732 90 60 90V90V90" stroke="#E83E8C" stroke-width="4" stroke-linecap="round" stroke-linejoin="round"/>
<path id="Path_4" d="M73.7985 73.6196C83.2497 51.3235 93.9783 28.3181 94.1606 28.4887" stroke="#E83E8C" stroke-width="4" stroke-linecap="round" stroke-linejoin="round"/>
<path id="Layer 6" d="M10 90H110V90C110 98.2843 103.284 105 95 105H25C16.7157 105 10 98.2843 10 90V90Z" stroke="#E83E8C" stroke-width="4" stroke-linecap="round" stroke-linejoin="round"/>
</g>
</g>
</svg>
