<svg width="120" height="120" viewBox="0 0 120 120" fill="none" xmlns="http://www.w3.org/2000/svg">
<g id="pen-3">
<g id="pen-3_2">
<path id="Layer 1" d="M78.7363 21.7769L86.5067 14.0065V14.0065V14.0065V14.0065V14.0065C90.7982 9.71504 97.7043 9.66328 101.929 13.8884L106.828 18.7869C111.054 23.0131 111.002 29.9171 106.71 34.2096L98.9394 41.98" stroke="#E83E8C" stroke-width="4" stroke-linecap="round" stroke-linejoin="round"/>
<path id="Layer 2" fill-rule="evenodd" clip-rule="evenodd" d="M35.0055 95.1976C36.6778 98.3799 39.6737 101.246 39.6737 101.246L10.9877 109.729L19.5271 80.9861C19.5271 80.9861 22.3927 83.982 25.5751 85.6543C28.7575 87.3266 32.7448 87.9714 32.7448 87.9714C32.7246 88.2465 33.3791 92.1027 35.0055 95.1976V95.1976Z" stroke="#E83E8C" stroke-width="4" stroke-linecap="round" stroke-linejoin="round"/>
<path id="Layer 3" fill-rule="evenodd" clip-rule="evenodd" d="M26.0338 105.279L10.9877 109.729L15.4531 94.6985L26.0338 105.279V105.279V105.279Z" stroke="#E83E8C" stroke-width="4" stroke-linecap="round" stroke-linejoin="round"/>
<path id="Layer 4" fill-rule="evenodd" clip-rule="evenodd" d="M88.7005 32.0318L78.591 21.9222L19.5359 80.9773L20.3173 81.7587C21.3853 82.7608 23.4067 84.5148 25.5751 85.6543C28.7575 87.3266 32.7448 87.9714 32.7448 87.9714C32.7445 87.976 32.7443 87.9815 32.7444 87.9879L88.7005 32.0318V32.0318V32.0318Z" stroke="#E83E8C" stroke-width="4" stroke-linecap="round" stroke-linejoin="round"/>
<path id="Layer 5" d="M88.8377 31.8784L98.9473 41.988L39.8922 101.043L39.1108 100.262C38.1088 99.1937 36.3547 97.1723 35.2152 95.0038C33.5429 91.8214 32.8981 87.8341 32.8981 87.8341C32.8936 87.8344 32.888 87.8346 32.8816 87.8346" stroke="#E83E8C" stroke-width="4" stroke-linecap="round" stroke-linejoin="round"/>
</g>
</g>
</svg>
