<svg width="120" height="120" viewBox="0 0 120 120" fill="none" xmlns="http://www.w3.org/2000/svg">
<g id="pen">
<g id="pen_2">
<path id="Layer 1" d="M64.2717 88.8403L65.0701 90.674C65.6848 90.4064 66.1244 89.8487 66.2411 89.1886L64.2717 88.8403ZM17.7289 109.107L16.3283 110.534C16.9101 111.105 17.7801 111.266 18.5273 110.94L17.7289 109.107ZM10.5945 102.108L8.75678 101.319C8.43109 102.077 8.60472 102.958 9.19393 103.536L10.5945 102.108ZM30.5135 55.7251L30.178 53.7535C29.5091 53.8673 28.9435 54.3125 28.6758 54.9359L30.5135 55.7251ZM54.0922 51.7134L55.4928 50.2856C55.0348 49.8364 54.3892 49.6341 53.7568 49.7417L54.0922 51.7134ZM66.3919 65.3625L62.3022 88.4921L66.2411 89.1886L70.3308 66.0589L66.3919 65.3625ZM63.4732 87.0066L16.9304 107.273L18.5273 110.94L65.0701 90.674L63.4732 87.0066ZM19.1294 107.679L11.995 100.68L9.19393 103.536L16.3283 110.534L19.1294 107.679ZM12.4322 102.897L32.3512 56.5143L28.6758 54.9359L8.75678 101.319L12.4322 102.897ZM30.849 57.6968L54.4277 53.685L53.7568 49.7417L30.178 53.7535L30.849 57.6968ZM52.6917 53.1411L66.9608 67.1385L69.7619 64.283L55.4928 50.2856L52.6917 53.1411ZM42.6058 77.6933C45.4346 80.4682 50.0054 80.4677 52.8342 77.6928L50.0331 74.8373C48.7596 76.0865 46.6797 76.0864 45.4069 74.8378L42.6058 77.6933ZM52.8342 77.6928C55.6844 74.8968 55.685 70.3474 52.8347 67.5514L50.0336 70.4069C51.285 71.6345 51.2852 73.6091 50.0331 74.8373L52.8342 77.6928ZM52.8347 67.5514C50.0058 64.7765 45.4351 64.777 42.6063 67.5519L45.4074 70.4074C46.6809 69.1582 48.7607 69.1583 50.0336 70.4069L52.8347 67.5514ZM42.6063 67.5519C39.7561 70.3479 39.7555 74.8972 42.6058 77.6933L45.4069 74.8378C44.1555 73.6102 44.1553 71.6356 45.4074 70.4074L42.6063 67.5519Z" fill="#E83E8C"/>
<path id="Layer 2" d="M15.3104 104.417L43.9784 76.2954" stroke="#E83E8C" stroke-width="4" stroke-linecap="round" stroke-linejoin="round"/>
<path id="Layer 3" fill-rule="evenodd" clip-rule="evenodd" d="M57.8482 42.1533L78.1031 62.0224L71.3505 68.6464L51.0956 48.7773L57.8482 42.1533V42.1533Z" stroke="#E83E8C" stroke-width="4" stroke-linecap="round" stroke-linejoin="round"/>
<path id="Layer 4" fill-rule="evenodd" clip-rule="evenodd" d="M75.1558 11.872C76.7843 9.78753 79.6427 9.60669 81.5429 11.4706L108.424 37.8401C110.323 39.7028 110.187 42.5647 108.118 44.2335L86.1945 61.9176C83.7091 63.9224 79.8512 63.7395 77.5711 61.5029L58.3754 42.6728C56.0982 40.439 55.8357 36.6013 57.7974 34.0904L75.1558 11.872V11.872Z" stroke="#E83E8C" stroke-width="4" stroke-linecap="round" stroke-linejoin="round"/>
</g>
</g>
</svg>
