<svg width="120" height="120" viewBox="0 0 120 120" fill="none" xmlns="http://www.w3.org/2000/svg">
<g id="pin">
<g id="pin_2">
<path id="Layer 1" fill-rule="evenodd" clip-rule="evenodd" d="M79.6308 12.7281C80.8025 11.5564 82.7015 11.5557 83.8782 12.7325L107.911 36.7649C109.085 37.939 109.083 39.8445 107.915 41.0124L105.087 43.8403C103.915 45.012 102.016 45.0127 100.84 43.836L76.8072 19.8035C75.633 18.6294 75.6349 16.724 76.8028 15.5561L79.6308 12.7281V12.7281Z" stroke="#E83E8C" stroke-width="4" stroke-linecap="round" stroke-linejoin="round"/>
<path id="Layer 2" fill-rule="evenodd" clip-rule="evenodd" d="M76.4064 67.7711L97.4627 40.4589L80.2752 23.2715L52.8938 44.2432C58.2805 45.8494 63.3566 48.7792 67.6102 53.0329C71.8696 57.2923 74.8016 62.3763 76.4064 67.7711V67.7711V67.7711Z" stroke="#E83E8C" stroke-width="4" stroke-linecap="round" stroke-linejoin="round"/>
<path id="Layer 3" fill-rule="evenodd" clip-rule="evenodd" d="M67.6102 53.033C53.9418 39.3647 31.7811 39.3647 18.1127 53.033L67.6102 102.53C81.2785 88.8621 81.2785 66.7014 67.6102 53.033V53.033Z" stroke="#E83E8C" stroke-width="4" stroke-linecap="round" stroke-linejoin="round"/>
<path id="Layer 4" d="M42.8614 78.4888L12.4558 108.894" stroke="#E83E8C" stroke-width="4" stroke-linecap="round" stroke-linejoin="round"/>
</g>
</g>
</svg>
