<svg width="120" height="120" viewBox="0 0 120 120" fill="none" xmlns="http://www.w3.org/2000/svg">
<g id="pipette-2">
<g id="pipette-2_2">
<path id="Layer 1" fill-rule="evenodd" clip-rule="evenodd" d="M82.4582 46.878C72.2918 57.0444 52.1472 77.189 52.1472 77.189C48.8304 80.5057 43.1663 81.9271 38.1444 81.0226L34.6377 84.5294C32.9509 86.2161 30.2142 86.2142 28.5328 84.5328C26.8479 82.8479 26.8471 80.1169 28.5362 78.4279L32.0429 74.9211C31.1384 69.8992 32.5598 64.2351 35.8765 60.9184L66.1875 30.6074L82.4582 46.878V46.878Z" stroke="#E83E8C" stroke-width="4" stroke-linecap="round" stroke-linejoin="round"/>
<path id="Layer 2" fill-rule="evenodd" clip-rule="evenodd" d="M93.5654 34.7538C93.7273 35.3229 93.8336 35.8757 93.8693 36.38L93.9489 37.5063C94.0943 39.5604 93.0615 42.3761 91.6394 43.7983L88.0528 47.3849C86.6319 48.8057 84.2773 48.7547 82.7926 47.2701L74.294 38.7715L65.7954 30.2729C64.3108 28.7882 64.2597 26.4336 65.6806 25.0127L69.2672 21.4261C70.6894 20.004 73.5051 18.9712 75.5592 19.1166L76.6855 19.1962C77.1898 19.2319 77.7426 19.3381 78.3117 19.5001L84.4632 13.3485C88.6754 9.13634 95.5047 9.13634 99.7169 13.3485C103.929 17.5608 103.929 24.3901 99.7169 28.6023L93.5654 34.7538V34.7538Z" stroke="#E83E8C" stroke-width="4" stroke-linecap="round" stroke-linejoin="round"/>
<path id="Layer 3" d="M93.3657 34.4541L78.7839 19.8723" stroke="#E83E8C" stroke-width="4" stroke-linecap="round" stroke-linejoin="round"/>
<path id="Layer 4" fill-rule="evenodd" clip-rule="evenodd" d="M22 110C33.25 110 22 90 22 90C22 90 10.75 110 22 110Z" stroke="#E83E8C" stroke-width="4" stroke-linecap="round" stroke-linejoin="round"/>
</g>
</g>
</svg>
