<svg width="120" height="120" viewBox="0 0 120 120" fill="none" xmlns="http://www.w3.org/2000/svg">
<g id="pipette-1">
<g id="pipette-1_2">
<path id="Layer 1" d="M83.7278 58.9069C70.2318 72.4029 43.4897 99.145 43.4897 99.145C39.0868 103.548 31.5676 105.435 24.901 104.234L20.2458 108.889C18.0066 111.128 14.3736 111.126 12.1415 108.894C9.90476 106.657 9.90373 103.032 12.146 100.79L16.8013 96.1342C15.6005 89.4676 17.4873 81.9485 21.8903 77.5455L62.1283 37.3075" stroke="#E83E8C" stroke-width="4" stroke-linecap="round" stroke-linejoin="round"/>
<path id="Layer 2" fill-rule="evenodd" clip-rule="evenodd" d="M98.4728 42.8119C98.6877 43.5673 98.8288 44.3012 98.8761 44.9707L98.9819 46.4659C99.1748 49.1927 97.8038 52.9306 95.916 54.8185L91.1547 59.5798C89.2685 61.466 86.1427 61.3983 84.1718 59.4274L72.8899 48.1454L61.6079 36.8635C59.637 34.8926 59.5693 31.7668 61.4555 29.8806L66.2168 25.1193C68.1046 23.2314 71.8425 21.8605 74.5694 22.0534L76.0645 22.1591C76.7341 22.2065 77.4679 22.3475 78.2233 22.5625L86.3895 14.3963C91.9812 8.80458 101.047 8.80458 106.639 14.3963C112.231 19.988 112.231 29.054 106.639 34.6458L98.4728 42.8119V42.8119Z" stroke="#E83E8C" stroke-width="4" stroke-linecap="round" stroke-linejoin="round"/>
<path id="Layer 4" d="M98.2077 42.4141L79.3373 23.5436" stroke="#E83E8C" stroke-width="4" stroke-linecap="round" stroke-linejoin="round"/>
</g>
</g>
</svg>
