<svg width="120" height="120" viewBox="0 0 120 120" fill="none" xmlns="http://www.w3.org/2000/svg">
<g id="pocket-3">
<g id="pocket-3_2">
<path id="Layer 1" d="M83 40V14.3863C83 11.0889 81.1218 9.25861 78.8049 10.2854L13 39.4481" stroke="#E83E8C" stroke-width="4" stroke-linecap="round" stroke-linejoin="round"/>
<path id="Layer 2" d="M103 65V44.0022C103 41.8007 101.21 40 99.0021 40H13V110H99.0021C101.202 110 103 108.208 103 105.998V85" stroke="#E83E8C" stroke-width="4" stroke-linecap="round" stroke-linejoin="round"/>
<path id="Layer 3" d="M103 100H13" stroke="#E83E8C" stroke-width="4" stroke-linecap="round" stroke-linejoin="round"/>
<path id="Layer 4" d="M78 75C78 69.4772 82.4772 65 88 65H105C106.657 65 108 66.3431 108 68V82C108 83.6569 106.657 85 105 85H88C82.4772 85 78 80.5228 78 75V75Z" stroke="#E83E8C" stroke-width="4" stroke-linecap="round" stroke-linejoin="round"/>
<path id="Layer 5" d="M13 50H103" stroke="#E83E8C" stroke-width="4" stroke-linecap="round" stroke-linejoin="round"/>
</g>
</g>
</svg>
