<svg width="120" height="120" viewBox="0 0 120 120" fill="none" xmlns="http://www.w3.org/2000/svg">
<g id="popcorn">
<g id="popcorn_2">
<path id="Layer 1" fill-rule="evenodd" clip-rule="evenodd" d="M20.447 36C20.1526 35.0214 20 34.0196 20 33C20 31.3085 20.42 29.666 21.2107 28.0972C20.4525 27.2455 20 26.1696 20 25C20 22.2386 22.5223 20 25.6338 20C26.6724 20 27.6454 20.2494 28.4809 20.6845C29.0282 20.3348 29.5983 19.9944 30.1901 19.664C30.1576 19.4467 30.1408 19.2251 30.1408 19C30.1408 16.2386 32.6632 14 35.7746 14C36.3596 14 36.9238 14.0791 37.4543 14.226C38.4291 12.3231 40.5898 11 43.0986 11C45.1274 11 46.9285 11.8652 48.059 13.2026C49.4975 11.8466 51.5387 11 53.8028 11C55.9535 11 57.9031 11.764 59.326 13.0028C59.5188 13.0012 59.7119 13.0003 59.9054 13.0001C60.7747 11.2341 62.7602 10 65.0704 10C67.6743 10 69.8656 11.5678 70.5112 13.6977C71.3083 13.8059 72.0954 13.9262 72.8718 14.0581C73.8277 13.3951 75.0309 13 76.338 13C78.7158 13 80.7495 14.3073 81.5764 16.1562C81.8868 16.2558 82.1943 16.3575 82.4988 16.4613C83.518 15.5583 84.925 15 86.4789 15C89.5903 15 92.1127 17.2386 92.1127 20C92.1127 20.3419 92.074 20.6757 92.0004 20.9983C92.1498 21.0978 92.2975 21.1979 92.4433 21.2988C93.0433 21.1055 93.6909 21 94.3662 21C97.4777 21 100 23.2386 100 26C100 27.0075 99.6642 27.9455 99.0865 28.7305C99.6848 30.1062 100 31.5347 100 33C100 34.0196 99.8474 35.0214 99.553 36H20.447V36Z" stroke="#E83E8C" stroke-width="4" stroke-linecap="round" stroke-linejoin="round"/>
<path id="Layer 2" d="M68.6259 18.4429C69.4775 17.5463 70 16.3342 70 15C70 12.2386 67.7614 10 65 10C62.2386 10 60 12.2386 60 15" stroke="#E83E8C" stroke-width="4" stroke-linecap="round" stroke-linejoin="round"/>
<path id="Layer 3" d="M47.5597 21.4888C46.653 20.5697 45.393 20 44 20C41.2386 20 39 22.2386 39 25" stroke="#E83E8C" stroke-width="4" stroke-linecap="round" stroke-linejoin="round"/>
<path id="Layer 4" d="M63.3584 25.4174C63.0602 24.5806 62.4402 23.859 61.5716 23.454C59.8497 22.6511 57.8029 23.396 57 25.1179" stroke="#E83E8C" stroke-width="4" stroke-linecap="round" stroke-linejoin="round"/>
<path id="Layer 5" d="M76 24.1409C76.6948 23.4366 77.6604 23 78.728 23C80.8442 23 82.5597 24.7155 82.5597 26.8317" stroke="#E83E8C" stroke-width="4" stroke-linecap="round" stroke-linejoin="round"/>
<path id="Path" d="M100 36L91.9374 110H28.0626L20 36" stroke="#E83E8C" stroke-width="4" stroke-linecap="round" stroke-linejoin="round"/>
<path id="Path_2" d="M84.5 36V36V36V36L79.5617 110" stroke="#E83E8C" stroke-width="4" stroke-linecap="round" stroke-linejoin="round"/>
<path id="Path_3" d="M40.4383 110L35.5 36" stroke="#E83E8C" stroke-width="4" stroke-linecap="round" stroke-linejoin="round"/>
<path id="Path_4" d="M67.1859 110L67.7041 87.3198" stroke="#E83E8C" stroke-width="4" stroke-linecap="round" stroke-linejoin="round"/>
<path id="Path_5" d="M52.2812 86.7046L52.8141 110" stroke="#E83E8C" stroke-width="4" stroke-linecap="round" stroke-linejoin="round"/>
<path id="Path_6" d="M69 36L68.445 58.6385" stroke="#E83E8C" stroke-width="4" stroke-linecap="round" stroke-linejoin="round"/>
<path id="Path_7" d="M51.5711 59.2952V59.2952V59.2952L51 36" stroke="#E83E8C" stroke-width="4" stroke-linecap="round" stroke-linejoin="round"/>
<path id="Layer 8" fill-rule="evenodd" clip-rule="evenodd" d="M60.5 89C69.3366 89 76.5 81.8366 76.5 73C76.5 64.1634 69.3366 57 60.5 57C51.6634 57 44.5 64.1634 44.5 73C44.5 81.8366 51.6634 89 60.5 89Z" stroke="#E83E8C" stroke-width="4" stroke-linecap="round" stroke-linejoin="round"/>
</g>
</g>
</svg>
