<svg width="120" height="120" viewBox="0 0 120 120" fill="none" xmlns="http://www.w3.org/2000/svg">
<g id="quote-1">
<g id="quote-1_2">
<path id="Path" fill-rule="evenodd" clip-rule="evenodd" d="M76.814 100.724C75.8023 100.963 76.2254 100.731 76.2254 100.731C74.1221 100.076 73.6736 98.2663 75.1902 96.6575C75.1902 96.6575 92.3696 79.9832 94.7625 64.2422C94.8643 63.5723 95.1009 62.9788 95.2595 62.3127C90.3282 64.7585 84.4453 65.3244 79.1181 63.8373C67.0999 60.4672 60.0595 47.9282 63.4191 35.8854C66.1423 26.1274 75.0989 19.3102 85.1999 19.3102C87.2575 19.3102 89.312 19.5947 91.307 20.1545C99.2322 22.3746 105.191 28.969 108.086 38.7189C110.699 47.5152 110.633 58.16 107.91 67.9251C101.608 86.9289 89.5282 97.7241 76.814 100.724V100.724Z" stroke="#E83E8C" stroke-width="4" stroke-linecap="round" stroke-linejoin="round"/>
<path id="Path_2" fill-rule="evenodd" clip-rule="evenodd" d="M24.4059 101.032C23.3943 101.271 23.8174 101.039 23.8174 101.039C21.714 100.385 21.2656 98.5745 22.7821 96.9657C22.7821 96.9657 39.9615 80.2914 42.3544 64.5504C42.4563 63.8805 42.6928 63.287 42.8514 62.6209C37.9201 65.0667 32.0373 65.6326 26.71 64.1455C14.6918 60.7754 7.6514 48.2364 11.011 36.1936C13.7342 26.4356 22.6908 19.6184 32.7918 19.6184C34.8494 19.6184 36.9039 19.9029 38.8989 20.4627C46.8241 22.6828 52.7827 29.2772 55.6777 39.0271C58.2908 47.8234 58.2251 58.4682 55.5019 68.2333C49.1999 87.2371 37.1201 98.0323 24.4059 101.032V101.032Z" stroke="#E83E8C" stroke-width="4" stroke-linecap="round" stroke-linejoin="round"/>
</g>
</g>
</svg>
