<svg width="120" height="120" viewBox="0 0 120 120" fill="none" xmlns="http://www.w3.org/2000/svg">
<g id="quote-2">
<g id="quote-2_2">
<path id="Path" fill-rule="evenodd" clip-rule="evenodd" d="M43.186 19.4161C44.1977 19.1774 43.7746 19.4092 43.7746 19.4092C45.8779 20.0638 46.3264 21.8739 44.8098 23.4827C44.8098 23.4827 27.6304 40.157 25.2375 55.898C25.1357 56.5679 24.8991 57.1614 24.7405 57.8275C29.6718 55.3817 35.5547 54.8158 40.8819 56.3029C52.9001 59.673 59.9405 72.212 56.5809 84.2548C53.8577 94.0128 44.9011 100.83 34.8001 100.83C32.7425 100.83 30.688 100.545 28.693 99.9857C20.7678 97.7656 14.8092 91.1712 11.9143 81.4213C9.30113 72.625 9.36679 61.9802 12.09 52.2151C18.392 33.2113 30.4718 22.4161 43.186 19.4161V19.4161Z" stroke="#E83E8C" stroke-width="4" stroke-linecap="round" stroke-linejoin="round"/>
<path id="Path_2" fill-rule="evenodd" clip-rule="evenodd" d="M95.5941 19.1079C96.6057 18.8692 96.1826 19.101 96.1826 19.101C98.286 19.7556 98.7344 21.5657 97.2179 23.1745C97.2179 23.1745 80.0385 39.8489 77.6456 55.5898C77.5437 56.2597 77.3072 56.8532 77.1486 57.5194C82.0799 55.0735 87.9627 54.5076 93.29 55.9948C105.308 59.3649 112.349 71.9038 108.989 83.9467C106.266 93.7047 97.3092 100.522 87.2082 100.522C85.1506 100.522 83.0961 100.237 81.1011 99.6775C73.1759 97.4574 67.2173 90.863 64.3223 81.1131C61.7092 72.3168 61.7749 61.672 64.4981 51.9069C70.8001 32.9032 82.8799 22.1079 95.5941 19.1079V19.1079Z" stroke="#E83E8C" stroke-width="4" stroke-linecap="round" stroke-linejoin="round"/>
</g>
</g>
</svg>
