<svg width="120" height="120" viewBox="0 0 120 120" fill="none" xmlns="http://www.w3.org/2000/svg">
<g id="rugby">
<g id="rugby_2">
<path id="Layer 1" fill-rule="evenodd" clip-rule="evenodd" d="M86.9817 86.9818C117.63 56.3336 108.017 18.6481 106.666 13.9649C106.577 13.6566 106.343 13.4231 106.035 13.3341C101.352 11.983 63.6665 2.37023 33.0183 33.0184C2.37014 63.6665 11.9829 101.352 13.3341 106.035C13.423 106.344 13.6565 106.577 13.9648 106.666C18.648 108.017 56.3335 117.63 86.9817 86.9818Z" stroke="#E83E8C" stroke-width="4" stroke-linecap="round" stroke-linejoin="round"/>
<path id="Layer 2" d="M79.3297 11.6191L108.915 41.2045" stroke="#E83E8C" stroke-width="4" stroke-linecap="round" stroke-linejoin="round"/>
<path id="Layer 3" d="M69.4636 40.3022L79.6981 50.5367" stroke="#E83E8C" stroke-width="4" stroke-linecap="round" stroke-linejoin="round"/>
<path id="Layer 4" d="M59.8 49.9658L70.0345 60.2003" stroke="#E83E8C" stroke-width="4" stroke-linecap="round" stroke-linejoin="round"/>
<path id="Layer 5" d="M49.9655 59.8003L60.2 70.0347" stroke="#E83E8C" stroke-width="4" stroke-linecap="round" stroke-linejoin="round"/>
<path id="Layer 6" d="M40.302 69.4639L50.5364 79.6983" stroke="#E83E8C" stroke-width="4" stroke-linecap="round" stroke-linejoin="round"/>
<path id="Layer 7" d="M11.619 79.3296L41.2044 108.915" stroke="#E83E8C" stroke-width="4" stroke-linecap="round" stroke-linejoin="round"/>
<path id="Layer 8" d="M39.7218 80.7038L80.473 39.9526" stroke="#E83E8C" stroke-width="4" stroke-linecap="round" stroke-linejoin="round"/>
</g>
</g>
</svg>
