<svg width="120" height="120" viewBox="0 0 120 120" fill="none" xmlns="http://www.w3.org/2000/svg">
<g id="scissors">
<g id="scissors_2">
<path id="Path" d="M42.8652 59.8506C39.4452 57.0602 36.9457 54.9417 36.0198 54.0638C32.2463 50.4859 30.3239 50.1903 28.1523 50.5899C23.7975 51.4648 20.3434 51.0387 16.8294 48.8429C10.0269 44.5923 7.95821 35.6319 12.2089 28.8294C16.4596 22.0269 25.4199 19.9582 32.2224 24.2089C38.966 28.4227 41.0574 37.265 36.955 44.0431L51.3663 53.0482" stroke="#E83E8C" stroke-width="4" stroke-linecap="round" stroke-linejoin="round"/>
<path id="Path_2" d="M51.3663 66.653C62.6736 75.5422 76.9745 86.1847 83.1945 88.94C95.8844 94.5615 109.408 89.3168 109.408 89.3168L62.2524 59.8506" stroke="#E83E8C" stroke-width="4" stroke-linecap="round" stroke-linejoin="round"/>
<path id="Path_3" fill-rule="evenodd" clip-rule="evenodd" d="M28.0123 30.9952C31.0772 32.9104 32.0092 36.9475 30.0941 40.0123C28.1789 43.0772 24.1418 44.0092 21.077 42.0941C18.0121 40.1789 17.0801 36.1418 18.9952 33.077C20.9104 30.0121 24.9475 29.0801 28.0123 30.9952Z" stroke="#E83E8C" stroke-width="4" stroke-linecap="round" stroke-linejoin="round"/>
<path id="Path_4" fill-rule="evenodd" clip-rule="evenodd" d="M36.0198 65.4762C39.9856 61.716 72.8234 35.1942 83.1945 30.6C95.8843 24.9785 109.408 30.2232 109.408 30.2232L36.955 75.4969C41.0574 82.2751 38.966 91.1173 32.2224 95.3311C25.4199 99.5818 16.4596 97.5131 12.2089 90.7106C7.95821 83.9081 10.0269 74.9477 16.8294 70.6971C20.3434 68.5013 23.7975 68.0752 28.1523 68.9501C30.3239 69.3497 32.2463 69.0541 36.0198 65.4762V65.4762V65.4762V65.4762Z" stroke="#E83E8C" stroke-width="4" stroke-linecap="round" stroke-linejoin="round"/>
<path id="Path_5" fill-rule="evenodd" clip-rule="evenodd" d="M27.9936 88.5635C31.0585 86.6484 31.9905 82.6113 30.0754 79.5464C28.1602 76.4815 24.1231 75.5495 21.0582 77.4646C17.9934 79.3798 17.0613 83.4169 18.9765 86.4817C20.8916 89.5466 24.9287 90.4787 27.9936 88.5635V88.5635V88.5635V88.5635Z" stroke="#E83E8C" stroke-width="4" stroke-linecap="round" stroke-linejoin="round"/>
</g>
</g>
</svg>
