<svg width="120" height="120" viewBox="0 0 120 120" fill="none" xmlns="http://www.w3.org/2000/svg">
<g id="settings-1">
<g id="settings-1_2">
<path id="Layer 1" fill-rule="evenodd" clip-rule="evenodd" d="M30.8041 89.613C47.0437 105.853 73.3734 105.853 89.613 89.613C105.853 73.3734 105.853 47.0438 89.613 30.8042C73.3734 14.5645 47.0437 14.5645 30.8041 30.8042C14.5645 47.0438 14.5645 73.3734 30.8041 89.613V89.613Z" stroke="#E83E8C" stroke-width="4" stroke-linecap="round" stroke-linejoin="round"/>
<path id="Layer 2" fill-rule="evenodd" clip-rule="evenodd" d="M60.2086 8.70364C61.3131 8.70364 62.2086 9.59907 62.2086 10.7036V18.6244C62.2086 19.729 61.3131 20.6244 60.2086 20.6244C59.104 20.6244 58.2086 19.729 58.2086 18.6244V10.7036C58.2086 9.59907 59.104 8.70364 60.2086 8.70364ZM52.5308 11.2699C52.3201 10.1856 51.2702 9.47752 50.186 9.68828C49.1017 9.89904 48.3936 10.9489 48.6043 12.0332L50.1157 19.8084C50.3264 20.8927 51.3763 21.6008 52.4606 21.3901C53.5448 21.1793 54.253 20.1295 54.0422 19.0452L52.5308 11.2699ZM40.5466 12.6045C41.5708 12.1908 42.7364 12.6855 43.1502 13.7097L46.1174 21.0537C46.5312 22.0779 46.0364 23.2435 45.0122 23.6573C43.9881 24.0711 42.8224 23.5763 42.4086 22.5521L39.4415 15.2081C39.0277 14.184 39.5225 13.0183 40.5466 12.6045ZM34.3488 17.938C33.7311 17.0222 32.4881 16.7806 31.5724 17.3983C30.6566 18.016 30.415 19.259 31.0327 20.1747L35.4619 26.7414C36.0796 27.6571 37.3226 27.8987 38.2384 27.2811C39.1541 26.6634 39.3957 25.4203 38.7781 24.5046L34.3488 17.938ZM96.6281 26.6175C97.4091 25.8365 97.4091 24.5701 96.6281 23.7891C95.847 23.008 94.5807 23.008 93.7996 23.7891L88.1988 29.3899C87.4177 30.171 87.4177 31.4373 88.1988 32.2184C88.9798 32.9994 90.2462 32.9994 91.0272 32.2184L96.6281 26.6175ZM102.479 34.3488C103.395 33.7312 103.637 32.4881 103.019 31.5724C102.401 30.6567 101.158 30.415 100.242 31.0327L93.6758 35.4619C92.76 36.0796 92.5184 37.3227 93.1361 38.2384C93.7538 39.1541 94.9968 39.3958 95.9125 38.7781L102.479 34.3488ZM107.813 40.5466C108.226 41.5708 107.732 42.7364 106.707 43.1502L99.3634 46.1174C98.3393 46.5312 97.1736 46.0364 96.7599 45.0122C96.3461 43.9881 96.8409 42.8224 97.865 42.4087L105.209 39.4415C106.233 39.0277 107.399 39.5225 107.813 40.5466ZM109.147 52.5309C110.232 52.3201 110.94 51.2703 110.729 50.186C110.518 49.1017 109.468 48.3936 108.384 48.6044L100.609 50.1157C99.5245 50.3265 98.8163 51.3763 99.0271 52.4606C99.2379 53.5449 100.288 54.253 101.372 54.0422L109.147 52.5309ZM99.7927 60.2086C99.7927 59.104 100.688 58.2086 101.793 58.2086H109.714C110.818 58.2086 111.714 59.104 111.714 60.2086C111.714 61.3132 110.818 62.2086 109.714 62.2086H101.793C100.688 62.2086 99.7927 61.3132 99.7927 60.2086ZM101.372 66.375C100.288 66.1642 99.2379 66.8723 99.0271 67.9566C98.8163 69.0409 99.5245 70.0907 100.609 70.3015L108.384 71.8128C109.468 72.0236 110.518 71.3155 110.729 70.2312C110.94 69.1469 110.232 68.0971 109.147 67.8863L101.372 66.375ZM96.7997 75.3088C97.2313 74.2921 98.4054 73.8177 99.4221 74.2493L106.713 77.3442C107.73 77.7758 108.204 78.9499 107.773 79.9667C107.341 80.9834 106.167 81.4578 105.15 81.0262L97.8592 77.9313C96.8425 77.4997 96.3681 76.3256 96.7997 75.3088ZM95.9125 81.6391C94.9968 81.0214 93.7538 81.263 93.1361 82.1788C92.5184 83.0945 92.76 84.3376 93.6758 84.9552L100.242 89.3845C101.158 90.0022 102.401 89.7605 103.019 88.8448C103.637 87.9291 103.395 86.686 102.479 86.0683L95.9125 81.6391ZM88.1988 88.1988C88.9798 87.4178 90.2462 87.4178 91.0272 88.1988L96.6281 93.7997C97.4091 94.5807 97.4091 95.847 96.6281 96.6281C95.847 97.4091 94.5807 97.4091 93.7996 96.6281L88.1988 91.0273C87.4177 90.2462 87.4177 88.9799 88.1988 88.1988ZM84.9552 93.6758C84.3375 92.7601 83.0945 92.5184 82.1787 93.1361C81.263 93.7538 81.0214 94.9968 81.6391 95.9126L86.0683 102.479C86.686 103.395 87.929 103.637 88.8448 103.019C89.7605 102.401 90.0021 101.158 89.3845 100.242L84.9552 93.6758ZM75.4049 96.7599C76.429 96.3461 77.5947 96.8409 78.0085 97.865L80.9757 105.209C81.3895 106.233 80.8947 107.399 79.8705 107.813C78.8464 108.226 77.6807 107.732 77.2669 106.708L74.2998 99.3635C73.886 98.3393 74.3808 97.1737 75.4049 96.7599ZM70.3014 100.609C70.0907 99.5245 69.0408 98.8164 67.9566 99.0271C66.8723 99.2379 66.1642 100.288 66.3749 101.372L67.8863 109.147C68.0971 110.232 69.1469 110.94 70.2312 110.729C71.3154 110.518 72.0236 109.468 71.8128 108.384L70.3014 100.609ZM60.2086 99.7928C61.3131 99.7928 62.2086 100.688 62.2086 101.793V109.714C62.2086 110.818 61.3131 111.714 60.2086 111.714C59.104 111.714 58.2086 110.818 58.2086 109.714V101.793C58.2086 100.688 59.104 99.7928 60.2086 99.7928ZM54.0422 101.372C54.253 100.288 53.5448 99.2379 52.4606 99.0271C51.3763 98.8164 50.3264 99.5245 50.1157 100.609L48.6043 108.384C48.3936 109.468 49.1017 110.518 50.186 110.729C51.2702 110.94 52.3201 110.232 52.5308 109.147L54.0422 101.372ZM45.1083 96.7997C46.1251 97.2313 46.5995 98.4054 46.1679 99.4222L43.073 106.713C42.6414 107.73 41.4673 108.204 40.4505 107.773C39.4337 107.341 38.9594 106.167 39.391 105.15L42.4859 97.8592C42.9174 96.8425 44.0916 96.3681 45.1083 96.7997ZM38.7781 95.9126C39.3957 94.9968 39.1541 93.7538 38.2384 93.1361C37.3226 92.5184 36.0796 92.7601 35.4619 93.6758L31.0327 100.242C30.415 101.158 30.6566 102.401 31.5724 103.019C32.4881 103.637 33.7311 103.395 34.3488 102.479L38.7781 95.9126ZM32.2183 88.1988C32.9994 88.9799 32.9994 90.2462 32.2183 91.0273L26.6175 96.6281C25.8364 97.4091 24.5701 97.4091 23.7891 96.6281C23.008 95.847 23.008 94.5807 23.7891 93.7997L29.3899 88.1988C30.171 87.4178 31.4373 87.4178 32.2183 88.1988ZM26.7414 84.9552C27.6571 84.3376 27.8987 83.0945 27.281 82.1788C26.6634 81.263 25.4203 81.0214 24.5046 81.6391L17.9379 86.0683C17.0222 86.686 16.7806 87.9291 17.3983 88.8448C18.0159 89.7605 19.259 90.0022 20.1747 89.3845L26.7414 84.9552ZM23.6573 75.4049C24.071 76.4291 23.5763 77.5947 22.5521 78.0085L15.2081 80.9757C14.1839 81.3895 13.0183 80.8947 12.6045 79.8705C12.1907 78.8464 12.6855 77.6807 13.7097 77.267L21.0537 74.2998C22.0778 73.886 23.2435 74.3808 23.6573 75.4049ZM19.8084 70.3015C20.8927 70.0907 21.6008 69.0409 21.39 67.9566C21.1793 66.8723 20.1294 66.1642 19.0451 66.375L11.2699 67.8863C10.1856 68.0971 9.47749 69.1469 9.68825 70.2312C9.89901 71.3155 10.9488 72.0236 12.0331 71.8128L19.8084 70.3015ZM8.70361 60.2086C8.70361 59.104 9.59904 58.2086 10.7036 58.2086H18.6244C19.729 58.2086 20.6244 59.104 20.6244 60.2086C20.6244 61.3132 19.729 62.2086 18.6244 62.2086H10.7036C9.59904 62.2086 8.70361 61.3132 8.70361 60.2086ZM12.0331 48.6044C10.9488 48.3936 9.89901 49.1017 9.68825 50.186C9.47749 51.2703 10.1856 52.3201 11.2699 52.5309L19.0451 54.0422C20.1294 54.253 21.1793 53.5449 21.39 52.4606C21.6008 51.3763 20.8927 50.3265 19.8084 50.1157L12.0331 48.6044ZM12.6045 40.5466C13.0183 39.5225 14.1839 39.0277 15.2081 39.4415L22.5521 42.4087C23.5763 42.8224 24.071 43.9881 23.6573 45.0122C23.2435 46.0364 22.0778 46.5312 21.0537 46.1174L13.7097 43.1502C12.6855 42.7364 12.1907 41.5708 12.6045 40.5466ZM20.1747 31.0327C19.259 30.415 18.0159 30.6567 17.3983 31.5724C16.7806 32.4881 17.0222 33.7312 17.9379 34.3488L24.5046 38.7781C25.4203 39.3958 26.6634 39.1541 27.281 38.2384C27.8987 37.3227 27.6571 36.0796 26.7414 35.4619L20.1747 31.0327ZM23.7891 23.7891C24.5701 23.008 25.8364 23.008 26.6175 23.7891L32.2183 29.3899C32.9994 30.171 32.9994 31.4373 32.2183 32.2184C31.4373 32.9994 30.171 32.9994 29.3899 32.2184L23.7891 26.6175C23.008 25.8365 23.008 24.5701 23.7891 23.7891ZM71.8128 12.0332C72.0236 10.9489 71.3154 9.89904 70.2312 9.68828C69.1469 9.47752 68.0971 10.1856 67.8863 11.2699L66.3749 19.0452C66.1642 20.1295 66.8723 21.1793 67.9566 21.3901C69.0408 21.6008 70.0907 20.8927 70.3014 19.8084L71.8128 12.0332ZM79.9666 12.6443C80.9834 13.0759 81.4578 14.2501 81.0262 15.2668L77.9313 22.5579C77.4997 23.5747 76.3256 24.0491 75.3088 23.6175C74.292 23.1859 73.8177 22.0118 74.2493 20.995L77.3442 13.7039C77.7757 12.6871 78.9499 12.2127 79.9666 12.6443ZM89.3845 20.1747C90.0021 19.259 89.7605 18.016 88.8448 17.3983C87.929 16.7806 86.686 17.0222 86.0683 17.938L81.6391 24.5046C81.0214 25.4203 81.263 26.6634 82.1787 27.2811C83.0945 27.8987 84.3375 27.6571 84.9552 26.7414L89.3845 20.1747Z" fill="#E83E8C"/>
<path id="Layer 3" fill-rule="evenodd" clip-rule="evenodd" d="M53.2076 67.2097C57.0741 71.0762 63.3431 71.0762 67.2097 67.2097C71.0762 63.3431 71.0762 57.0741 67.2097 53.2075C63.3431 49.341 57.0741 49.341 53.2076 53.2075C49.341 57.0741 49.341 63.3431 53.2076 67.2097V67.2097Z" stroke="#E83E8C" stroke-width="4" stroke-linecap="round" stroke-linejoin="round"/>
<path id="Layer 4" fill-rule="evenodd" clip-rule="evenodd" d="M91.0272 29.3899C91.8083 30.171 91.8083 31.4373 91.0272 32.2184L68.6239 54.6218C67.8428 55.4028 66.5765 55.4028 65.7954 54.6218C65.0144 53.8407 65.0144 52.5744 65.7954 51.7933L88.1988 29.3899C88.9799 28.6089 90.2462 28.6089 91.0272 29.3899ZM67.2484 63.7956C67.7499 62.8114 68.9542 62.4201 69.9384 62.9215L98.1683 77.3054C99.1525 77.8069 99.5438 79.0112 99.0424 79.9954C98.5409 80.9796 97.3365 81.3709 96.3524 80.8694L68.1225 66.4856C67.1383 65.9841 66.747 64.7798 67.2484 63.7956ZM58.9726 68.0123C60.0636 68.1851 60.8079 69.2096 60.6351 70.3006L55.6788 101.594C55.506 102.685 54.4815 103.429 53.3905 103.256C52.2996 103.083 51.5552 102.059 51.728 100.968L56.6844 69.6748C56.8572 68.5839 57.8816 67.8395 58.9726 68.0123ZM52.4049 61.4446C52.5777 62.5356 51.8333 63.56 50.7424 63.7328L19.4493 68.6892C18.3583 68.862 17.3338 68.1176 17.161 67.0267C16.9882 65.9357 17.7326 64.9112 18.8235 64.7384L50.1166 59.7821C51.2076 59.6093 52.2321 60.3536 52.4049 61.4446ZM40.4218 21.3748C41.406 20.8734 42.6103 21.2647 43.1118 22.2489L57.4956 50.4788C57.9971 51.463 57.6058 52.6673 56.6216 53.1688C55.6374 53.6702 54.4331 53.2789 53.9316 52.2947L39.5478 24.0648C39.0463 23.0806 39.4376 21.8763 40.4218 21.3748Z" fill="#E83E8C"/>
</g>
</g>
</svg>
