<svg width="120" height="120" viewBox="0 0 120 120" fill="none" xmlns="http://www.w3.org/2000/svg">
<g id="signal">
<g id="signal_2">
<path id="Layer 1" d="M82.3656 107.731V107.731C98.7514 99.5223 110 82.5748 110 63C110 35.3858 87.6142 13 60 13C32.3858 13 10 35.3858 10 63C10 82.5748 21.2486 99.5223 37.6344 107.731" stroke="#E83E8C" stroke-width="4" stroke-linecap="round" stroke-linejoin="round"/>
<path id="Layer 2" d="M77.8925 98.7849V98.7849C91.0011 92.2178 100 78.6598 100 63C100 40.9086 82.0914 23 60 23C37.9086 23 20 40.9086 20 63C20 78.6598 28.9989 92.2178 42.1075 98.7849" stroke="#E83E8C" stroke-width="4" stroke-linecap="round" stroke-linejoin="round"/>
<path id="Layer 3" d="M73.4193 89.8387V89.8387C83.2508 84.9134 90 74.7449 90 63C90 46.4315 76.5685 33 60 33C43.4315 33 30 46.4315 30 63C30 74.7449 36.7492 84.9134 46.5807 89.8387" stroke="#E83E8C" stroke-width="4" stroke-linecap="round" stroke-linejoin="round"/>
<path id="Layer 4" d="M68.9462 80.8925C75.5006 77.6089 80 70.8299 80 63C80 51.9543 71.0457 43 60 43C48.9543 43 40 51.9543 40 63C40 70.8299 44.4994 77.6089 51.0538 80.8925" stroke="#E83E8C" stroke-width="4" stroke-linecap="round" stroke-linejoin="round"/>
<path id="Layer 5" fill-rule="evenodd" clip-rule="evenodd" d="M60 68C62.7614 68 65 65.7614 65 63C65 60.2386 62.7614 58 60 58C57.2386 58 55 60.2386 55 63C55 65.7614 57.2386 68 60 68Z" stroke="#E83E8C" stroke-width="4" stroke-linecap="round" stroke-linejoin="round"/>
</g>
</g>
</svg>
