<svg width="120" height="120" viewBox="0 0 120 120" fill="none" xmlns="http://www.w3.org/2000/svg">
<g id="skull">
<g id="skull_2">
<path id="Layer 1" fill-rule="evenodd" clip-rule="evenodd" d="M38.3917 82.1882C38.2175 82.071 38.0443 81.9526 37.872 81.8327C36.1272 82.8266 34.1071 83.3945 31.954 83.3945C25.352 83.3945 20 78.0548 20 71.4679C20 68.2395 21.2857 65.3106 23.3741 63.1633C21.7868 58.892 20.9195 54.2718 20.9195 49.4495C20.9195 27.6622 38.6223 10 60.4598 10C82.2972 10 100 27.6622 100 49.4495C100 54.8444 98.9146 59.9863 96.9498 64.6698C98.2931 66.5984 99.0805 68.9414 99.0805 71.4679C99.0805 78.0548 93.7285 83.3945 87.1264 83.3945C85.3941 83.3945 83.7478 83.0268 82.2617 82.3655C82.1877 82.4144 82.1135 82.4631 82.0391 82.5115C82.9013 83.2447 83.4483 84.3363 83.4483 85.5521V101.42C83.4483 103.625 81.8307 106.198 79.7547 106.92L63.9775 109.092C61.7808 109.128 58.2051 109.144 55.999 109.091L40.2274 106.914C38.1974 106.085 36.5517 103.62 36.5517 101.42V85.5521C36.5517 84.1393 37.283 82.8978 38.3917 82.1882V82.1882Z" stroke="#E83E8C" stroke-width="4" stroke-linecap="round" stroke-linejoin="round"/>
<path id="Layer 2" fill-rule="evenodd" clip-rule="evenodd" d="M43.908 71.1705C48.9865 71.1705 53.1035 67.4737 53.1035 62.9136C53.1035 58.3534 48.9865 55.8716 43.908 55.8716C38.8296 55.8716 34.7126 57.1366 34.7126 62.9136C34.7126 68.6905 38.8296 71.1705 43.908 71.1705Z" stroke="#E83E8C" stroke-width="4" stroke-linecap="round" stroke-linejoin="round"/>
<path id="Layer 3" fill-rule="evenodd" clip-rule="evenodd" d="M75.1725 71.1705C70.094 71.1705 65.9771 67.4737 65.9771 62.9136C65.9771 58.3534 70.094 55.8716 75.1725 55.8716C80.2509 55.8716 84.3679 57.1366 84.3679 62.9136C84.3679 68.6905 80.2509 71.1705 75.1725 71.1705V71.1705Z" stroke="#E83E8C" stroke-width="4" stroke-linecap="round" stroke-linejoin="round"/>
<path id="Layer 4" fill-rule="evenodd" clip-rule="evenodd" d="M56.034 79.5106C57.3688 76.4487 61.7117 76.4487 63.0466 79.5106L64.1634 82.0723C65.1457 84.3255 62.8676 86.6203 60.6072 85.6545V85.6545C59.9257 85.3634 59.1548 85.3634 58.4733 85.6545V85.6545C56.213 86.6203 53.9349 84.3255 54.9172 82.0723L56.034 79.5106Z" stroke="#E83E8C" stroke-width="4" stroke-linecap="round" stroke-linejoin="round"/>
<path id="Layer 5" d="M59.5403 109.541V98.0732" stroke="#E83E8C" stroke-width="4" stroke-linecap="round" stroke-linejoin="round"/>
<path id="Layer 6" d="M71.4942 107.707V96.2388" stroke="#E83E8C" stroke-width="4" stroke-linecap="round" stroke-linejoin="round"/>
<path id="Layer 7" d="M48.5057 107.707V96.2388" stroke="#E83E8C" stroke-width="4" stroke-linecap="round" stroke-linejoin="round"/>
</g>
</g>
</svg>
