<svg width="120" height="120" viewBox="0 0 120 120" fill="none" xmlns="http://www.w3.org/2000/svg">
<g id="snowflakes">
<g id="snowflakes_2">
<path id="Layer 1" d="M59.8 10V55" stroke="#E83E8C" stroke-width="4" stroke-linecap="round" stroke-linejoin="round"/>
<path id="Layer 2" d="M65.2 13.6001L59.8 19.0001L54.4 13.6001" stroke="#E83E8C" stroke-width="4" stroke-linecap="round" stroke-linejoin="round"/>
<path id="Layer 3" d="M65.2 51.8502L59.8 46.4502L54.4 51.8502" stroke="#E83E8C" stroke-width="4" stroke-linecap="round" stroke-linejoin="round"/>
<path id="Layer 4" d="M79.2856 43.75L40.3145 21.25" stroke="#E83E8C" stroke-width="4" stroke-linecap="round" stroke-linejoin="round"/>
<path id="Layer 5" d="M73.4679 46.6265L71.4913 39.25L78.8679 37.2734" stroke="#E83E8C" stroke-width="4" stroke-linecap="round" stroke-linejoin="round"/>
<path id="Layer 6" d="M40.3424 27.5015L47.7189 25.525L45.7424 18.1484" stroke="#E83E8C" stroke-width="4" stroke-linecap="round" stroke-linejoin="round"/>
<path id="Layer 7" d="M40.3145 43.75L79.2856 21.25" stroke="#E83E8C" stroke-width="4" stroke-linecap="round" stroke-linejoin="round"/>
<path id="Layer 8" d="M40.7321 37.2734L48.1087 39.25L46.1321 46.6265" stroke="#E83E8C" stroke-width="4" stroke-linecap="round" stroke-linejoin="round"/>
<path id="Layer 9" d="M73.8576 18.1484L71.881 25.525L79.2576 27.5015" stroke="#E83E8C" stroke-width="4" stroke-linecap="round" stroke-linejoin="round"/>
<path id="Layer 10" d="M29.8 65V110" stroke="#E83E8C" stroke-width="4" stroke-linecap="round" stroke-linejoin="round"/>
<path id="Layer 11" d="M35.2 68.5996L29.8 73.9996L24.4 68.5996" stroke="#E83E8C" stroke-width="4" stroke-linecap="round" stroke-linejoin="round"/>
<path id="Layer 12" d="M35.2 106.85L29.8 101.45L24.4 106.85" stroke="#E83E8C" stroke-width="4" stroke-linecap="round" stroke-linejoin="round"/>
<path id="Layer 13" d="M49.2856 98.75L10.3144 76.25" stroke="#E83E8C" stroke-width="4" stroke-linecap="round" stroke-linejoin="round"/>
<path id="Layer 14" d="M43.4679 101.627L41.4913 94.25L48.8679 92.2734" stroke="#E83E8C" stroke-width="4" stroke-linecap="round" stroke-linejoin="round"/>
<path id="Layer 15" d="M10.3424 82.5015L17.7189 80.525L15.7424 73.1484" stroke="#E83E8C" stroke-width="4" stroke-linecap="round" stroke-linejoin="round"/>
<path id="Layer 16" d="M10.3144 98.75L49.2856 76.25" stroke="#E83E8C" stroke-width="4" stroke-linecap="round" stroke-linejoin="round"/>
<path id="Layer 17" d="M10.7321 92.2734L18.1087 94.25L16.1321 101.627" stroke="#E83E8C" stroke-width="4" stroke-linecap="round" stroke-linejoin="round"/>
<path id="Layer 18" d="M43.8576 73.1484L41.881 80.525L49.2576 82.5015" stroke="#E83E8C" stroke-width="4" stroke-linecap="round" stroke-linejoin="round"/>
<path id="Layer 19" d="M89.8 65V110" stroke="#E83E8C" stroke-width="4" stroke-linecap="round" stroke-linejoin="round"/>
<path id="Layer 20" d="M95.2 68.5996L89.8 73.9996L84.4 68.5996" stroke="#E83E8C" stroke-width="4" stroke-linecap="round" stroke-linejoin="round"/>
<path id="Layer 21" d="M95.2 106.85L89.8 101.45L84.4 106.85" stroke="#E83E8C" stroke-width="4" stroke-linecap="round" stroke-linejoin="round"/>
<path id="Layer 22" d="M109.286 98.75L70.3145 76.25" stroke="#E83E8C" stroke-width="4" stroke-linecap="round" stroke-linejoin="round"/>
<path id="Layer 23" d="M103.468 101.627L101.491 94.25L108.868 92.2734" stroke="#E83E8C" stroke-width="4" stroke-linecap="round" stroke-linejoin="round"/>
<path id="Layer 24" d="M70.3424 82.5015L77.7189 80.525L75.7424 73.1484" stroke="#E83E8C" stroke-width="4" stroke-linecap="round" stroke-linejoin="round"/>
<path id="Layer 25" d="M70.3145 98.75L109.286 76.25" stroke="#E83E8C" stroke-width="4" stroke-linecap="round" stroke-linejoin="round"/>
<path id="Layer 26" d="M70.7321 92.2734L78.1087 94.25L76.1321 101.627" stroke="#E83E8C" stroke-width="4" stroke-linecap="round" stroke-linejoin="round"/>
<path id="Layer 27" d="M103.858 73.1484L101.881 80.525L109.258 82.5015" stroke="#E83E8C" stroke-width="4" stroke-linecap="round" stroke-linejoin="round"/>
</g>
</g>
</svg>
