<svg width="120" height="120" viewBox="0 0 120 120" fill="none" xmlns="http://www.w3.org/2000/svg">
<g id="socket">
<g id="socket_2">
<rect id="Layer 1" x="10" y="10" width="100" height="100" rx="6" stroke="#E83E8C" stroke-width="4" stroke-linecap="round" stroke-linejoin="round"/>
<path id="Layer 2" fill-rule="evenodd" clip-rule="evenodd" d="M42 90C30.9543 90 22 76.5685 22 60C22 43.4315 30.9543 30 42 30H78C89.0457 30 98 43.4315 98 60C98 76.5685 89.0457 90 78 90H42V90Z" stroke="#E83E8C" stroke-width="4" stroke-linecap="round" stroke-linejoin="round"/>
<rect id="Layer 3" x="42" y="43" width="8" height="15" stroke="#E83E8C" stroke-width="4" stroke-linecap="round" stroke-linejoin="round"/>
<rect id="Layer 4" x="70" y="43" width="8" height="15" stroke="#E83E8C" stroke-width="4" stroke-linecap="round" stroke-linejoin="round"/>
<path id="Layer 5" d="M55 73C55 70.2386 57.2386 68 60 68V68C62.7614 68 65 70.2386 65 73V80H55V73Z" stroke="#E83E8C" stroke-width="4" stroke-linecap="round" stroke-linejoin="round"/>
</g>
</g>
</svg>
