<svg width="120" height="120" viewBox="0 0 120 120" fill="none" xmlns="http://www.w3.org/2000/svg">
<g id="tv-2">
<g id="tv-2_2">
<rect id="Layer 1" x="10" y="16" width="100" height="70" stroke="#E83E8C" stroke-width="4" stroke-linecap="round" stroke-linejoin="round"/>
<rect id="Layer 2" x="35" y="97" width="50" height="7" stroke="#E83E8C" stroke-width="4" stroke-linecap="round" stroke-linejoin="round"/>
<path id="Layer 3" d="M60 86V97" stroke="#E83E8C" stroke-width="4" stroke-linecap="round" stroke-linejoin="round"/>
<path id="Layer 4" d="M47 39.0003C47 38.4502 47.4509 38 48.0003 38V34C45.2464 34 43 36.2364 43 39.0003H47ZM48.0003 38H51.9997V34H48.0003V38ZM51.9997 38C52.5498 38 53 38.4509 53 39.0003H57C57 36.2464 54.7636 34 51.9997 34V38ZM53 39.0003V42.9997H57V39.0003H53ZM53 42.9997C53 43.5498 52.5491 44 51.9997 44V48C54.7536 48 57 45.7636 57 42.9997H53ZM51.9997 44H48.0003V48H51.9997V44ZM48.0003 44C47.4502 44 47 43.5491 47 42.9997H43C43 45.7536 45.2364 48 48.0003 48V44ZM47 42.9997V39.0003H43V42.9997H47ZM27 39.0003C27 38.4502 27.4509 38 28.0003 38V34C25.2464 34 23 36.2364 23 39.0003H27ZM28.0003 38H31.9997V34H28.0003V38ZM31.9997 38C32.5498 38 33 38.4509 33 39.0003H37C37 36.2464 34.7636 34 31.9997 34V38ZM33 39.0003V42.9997H37V39.0003H33ZM33 42.9997C33 43.5498 32.5491 44 31.9997 44V48C34.7536 48 37 45.7636 37 42.9997H33ZM31.9997 44H28.0003V48H31.9997V44ZM28.0003 44C27.4502 44 27 43.5491 27 42.9997H23C23 45.7536 25.2364 48 28.0003 48V44ZM27 42.9997V39.0003H23V42.9997H27ZM67 39.0003C67 38.4502 67.4509 38 68.0003 38V34C65.2464 34 63 36.2364 63 39.0003H67ZM68.0003 38H71.9997V34H68.0003V38ZM71.9997 38C72.5498 38 73 38.4509 73 39.0003H77C77 36.2464 74.7636 34 71.9997 34V38ZM73 39.0003V42.9997H77V39.0003H73ZM73 42.9997C73 43.5498 72.5491 44 71.9997 44V48C74.7536 48 77 45.7636 77 42.9997H73ZM71.9997 44H68.0003V48H71.9997V44ZM68.0003 44C67.4502 44 67 43.5491 67 42.9997H63C63 45.7536 65.2364 48 68.0003 48V44ZM67 42.9997V39.0003H63V42.9997H67ZM87 39.0003C87 38.4502 87.4509 38 88.0003 38V34C85.2464 34 83 36.2364 83 39.0003H87ZM88.0003 38H91.9997V34H88.0003V38ZM91.9997 38C92.5498 38 93 38.4509 93 39.0003H97C97 36.2464 94.7636 34 91.9997 34V38ZM93 39.0003V42.9997H97V39.0003H93ZM93 42.9997C93 43.5498 92.5491 44 91.9997 44V48C94.7536 48 97 45.7636 97 42.9997H93ZM91.9997 44H88.0003V48H91.9997V44ZM88.0003 44C87.4502 44 87 43.5491 87 42.9997H83C83 45.7536 85.2364 48 88.0003 48V44ZM87 42.9997V39.0003H83V42.9997H87ZM47 59.0003C47 58.4502 47.4509 58 48.0003 58V54C45.2464 54 43 56.2364 43 59.0003H47ZM48.0003 58H51.9997V54H48.0003V58ZM51.9997 58C52.5498 58 53 58.4509 53 59.0003H57C57 56.2464 54.7636 54 51.9997 54V58ZM53 59.0003V62.9997H57V59.0003H53ZM53 62.9997C53 63.5498 52.5491 64 51.9997 64V68C54.7536 68 57 65.7636 57 62.9997H53ZM51.9997 64H48.0003V68H51.9997V64ZM48.0003 64C47.4502 64 47 63.5491 47 62.9997H43C43 65.7536 45.2364 68 48.0003 68V64ZM47 62.9997V59.0003H43V62.9997H47ZM27 59.0003C27 58.4502 27.4509 58 28.0003 58V54C25.2464 54 23 56.2364 23 59.0003H27ZM28.0003 58H31.9997V54H28.0003V58ZM31.9997 58C32.5498 58 33 58.4509 33 59.0003H37C37 56.2464 34.7636 54 31.9997 54V58ZM33 59.0003V62.9997H37V59.0003H33ZM33 62.9997C33 63.5498 32.5491 64 31.9997 64V68C34.7536 68 37 65.7636 37 62.9997H33ZM31.9997 64H28.0003V68H31.9997V64ZM28.0003 64C27.4502 64 27 63.5491 27 62.9997H23C23 65.7536 25.2364 68 28.0003 68V64ZM27 62.9997V59.0003H23V62.9997H27ZM67 59.0003C67 58.4502 67.4509 58 68.0003 58V54C65.2464 54 63 56.2364 63 59.0003H67ZM68.0003 58H71.9997V54H68.0003V58ZM71.9997 58C72.5498 58 73 58.4509 73 59.0003H77C77 56.2464 74.7636 54 71.9997 54V58ZM73 59.0003V62.9997H77V59.0003H73ZM73 62.9997C73 63.5498 72.5491 64 71.9997 64V68C74.7536 68 77 65.7636 77 62.9997H73ZM71.9997 64H68.0003V68H71.9997V64ZM68.0003 64C67.4502 64 67 63.5491 67 62.9997H63C63 65.7536 65.2364 68 68.0003 68V64ZM67 62.9997V59.0003H63V62.9997H67ZM87 59.0003C87 58.4502 87.4509 58 88.0003 58V54C85.2464 54 83 56.2364 83 59.0003H87ZM88.0003 58H91.9997V54H88.0003V58ZM91.9997 58C92.5498 58 93 58.4509 93 59.0003H97C97 56.2464 94.7636 54 91.9997 54V58ZM93 59.0003V62.9997H97V59.0003H93ZM93 62.9997C93 63.5498 92.5491 64 91.9997 64V68C94.7536 68 97 65.7636 97 62.9997H93ZM91.9997 64H88.0003V68H91.9997V64ZM88.0003 64C87.4502 64 87 63.5491 87 62.9997H83C83 65.7536 85.2364 68 88.0003 68V64ZM87 62.9997V59.0003H83V62.9997H87Z" fill="#E83E8C"/>
</g>
</g>
</svg>
