<svg width="120" height="120" viewBox="0 0 120 120" fill="none" xmlns="http://www.w3.org/2000/svg">
<g id="ufo-2">
<g id="ufo-2_2">
<rect id="Layer 1" x="15" y="55" width="90" height="22" rx="11" stroke="#E83E8C" stroke-width="4" stroke-linecap="round" stroke-linejoin="round"/>
<path id="Layer 2" fill-rule="evenodd" clip-rule="evenodd" d="M90 55C90 38.4315 76.5685 25 60 25C43.4315 25 30 38.4315 30 55H90Z" stroke="#E83E8C" stroke-width="4" stroke-linecap="round" stroke-linejoin="round"/>
<path id="Layer 3" d="M56.3867 33.4841C57.467 33.2537 58.156 32.1912 57.9256 31.1109C57.6952 30.0306 56.6327 29.3417 55.5524 29.5721L56.3867 33.4841ZM44.3107 35.0627C43.4641 35.7721 43.3528 37.0336 44.0622 37.8802C44.7716 38.7268 46.0331 38.8381 46.8797 38.1287L44.3107 35.0627ZM44.1047 40.9083C44.8127 40.0605 44.6994 38.7992 43.8515 38.0913C43.0037 37.3833 41.7424 37.4966 41.0344 38.3445L44.1047 40.9083ZM38.9216 41.2627C38.3372 42.2001 38.6234 43.4336 39.5607 44.018C40.4981 44.6024 41.7316 44.3162 42.316 43.3789L38.9216 41.2627ZM55.5524 29.5721C51.3341 30.4718 47.4963 32.3935 44.3107 35.0627L46.8797 38.1287C49.5779 35.8679 52.8235 34.2441 56.3867 33.4841L55.5524 29.5721ZM41.0344 38.3445C40.2656 39.2652 39.5591 40.2401 38.9216 41.2627L42.316 43.3789C42.8555 42.5135 43.4536 41.6881 44.1047 40.9083L41.0344 38.3445Z" fill="#E83E8C"/>
<path id="Layer 4" d="M60 24V18.4773" stroke="#E83E8C" stroke-width="4" stroke-linecap="round" stroke-linejoin="round"/>
<path id="Layer 5" fill-rule="evenodd" clip-rule="evenodd" d="M60 18C62.2091 18 64 16.2091 64 14C64 11.7909 62.2091 10 60 10C57.7909 10 56 11.7909 56 14C56 16.2091 57.7909 18 60 18Z" fill="#E83E8C" stroke="#E83E8C" stroke-width="4" stroke-linecap="round" stroke-linejoin="round"/>
<path id="Layer 6" fill-rule="evenodd" clip-rule="evenodd" d="M70.281 77L79 106.987C79 106.987 72.6195 110 60 110C47.3805 110 41 106.987 41 106.987L49.7458 77H70.281Z" stroke="#E83E8C" stroke-width="4" stroke-linecap="round" stroke-linejoin="round"/>
</g>
</g>
</svg>
