<svg width="120" height="120" viewBox="0 0 120 120" fill="none" xmlns="http://www.w3.org/2000/svg">
<g id="ufo-1">
<g id="ufo-1_2">
<rect id="Layer 1" x="10" y="70" width="100" height="30" rx="15" stroke="#E83E8C" stroke-width="4" stroke-linecap="round" stroke-linejoin="round"/>
<path id="Shape" d="M95 70C95 50.67 79.33 35 60 35C40.67 35 25 50.67 25 70" stroke="#E83E8C" stroke-width="4" stroke-linecap="round" stroke-linejoin="round"/>
<path id="Layer 3" d="M54.5483 44.572C55.6286 44.3416 56.3176 43.2791 56.0872 42.1988C55.8568 41.1185 54.7943 40.4296 53.714 40.66L54.5483 44.572ZM40.7432 46.9952C39.8966 47.7046 39.7853 48.966 40.4948 49.8127C41.2042 50.6593 42.4656 50.7706 43.3122 50.0612L40.7432 46.9952ZM40.033 53.3459C40.741 52.4981 40.6276 51.2369 39.7798 50.5289C38.9319 49.8209 37.6707 49.9343 36.9627 50.7821L40.033 53.3459ZM34.5247 54.1494C33.9404 55.0867 34.2265 56.3203 35.1639 56.9047C36.1012 57.489 37.3348 57.2029 37.9191 56.2656L34.5247 54.1494ZM53.714 40.66C48.8472 41.6979 44.4192 43.9151 40.7432 46.9952L43.3122 50.0612C46.5007 47.3895 50.3366 45.4703 54.5483 44.572L53.714 40.66ZM36.9627 50.7821C36.0755 51.8445 35.2603 52.9695 34.5247 54.1494L37.9191 56.2656C38.5567 55.2428 39.2635 54.2674 40.033 53.3459L36.9627 50.7821Z" fill="#E83E8C"/>
<path id="Layer 4" d="M60 34V26" stroke="#E83E8C" stroke-width="4" stroke-linecap="round" stroke-linejoin="round"/>
<path id="Layer 5" fill-rule="evenodd" clip-rule="evenodd" d="M60 26C61.6569 26 63 24.6569 63 23C63 21.3431 61.6569 20 60 20C58.3431 20 57 21.3431 57 23C57 24.6569 58.3431 26 60 26Z" fill="#E83E8C" stroke="#E83E8C" stroke-width="4" stroke-linecap="round" stroke-linejoin="round"/>
<path id="Layer 6" fill-rule="evenodd" clip-rule="evenodd" d="M30 90C32.7614 90 35 87.7614 35 85C35 82.2386 32.7614 80 30 80C27.2386 80 25 82.2386 25 85C25 87.7614 27.2386 90 30 90Z" stroke="#E83E8C" stroke-width="4" stroke-linecap="round" stroke-linejoin="round"/>
<path id="Layer 7" fill-rule="evenodd" clip-rule="evenodd" d="M60 90C62.7614 90 65 87.7614 65 85C65 82.2386 62.7614 80 60 80C57.2386 80 55 82.2386 55 85C55 87.7614 57.2386 90 60 90Z" stroke="#E83E8C" stroke-width="4" stroke-linecap="round" stroke-linejoin="round"/>
<path id="Layer 8" fill-rule="evenodd" clip-rule="evenodd" d="M90 90C92.7614 90 95 87.7614 95 85C95 82.2386 92.7614 80 90 80C87.2386 80 85 82.2386 85 85C85 87.7614 87.2386 90 90 90Z" stroke="#E83E8C" stroke-width="4" stroke-linecap="round" stroke-linejoin="round"/>
</g>
</g>
</svg>
