<svg width="120" height="120" viewBox="0 0 120 120" fill="none" xmlns="http://www.w3.org/2000/svg">
<g id="umbrella">
<g id="umbrella_2">
<path id="Layer 1" d="M60 61.8147V104.259C60 107.43 57.4224 110 54.2572 110V110C51.0855 110 48.5144 107.435 48.5144 104.258V102.667" stroke="#E83E8C" stroke-width="4" stroke-linecap="round" stroke-linejoin="round"/>
<path id="Layer 2" fill-rule="evenodd" clip-rule="evenodd" d="M99.3443 57.4615C94.4962 57.4615 89.9191 59.4146 86.2295 62.9912C82.5399 59.4146 77.9628 57.4615 73.1148 57.4615C68.2667 57.4615 63.6896 59.4146 60 62.9912C56.3104 59.4146 51.7333 57.4615 46.8852 57.4615C42.0372 57.4615 37.4601 59.4146 33.7705 62.9912C30.0809 59.4146 25.5038 57.4615 20.6557 57.4615C16.8306 57.4615 13.1847 58.6966 10 60.9639C12.6273 35.7357 34.0481 16 60 16C85.9519 16 107.373 35.7357 110 60.9639C106.815 58.6966 103.169 57.4615 99.3443 57.4615V57.4615Z" stroke="#E83E8C" stroke-width="4" stroke-linecap="round" stroke-linejoin="round"/>
<path id="Layer 3" d="M60 10L60 15.8574" stroke="#E83E8C" stroke-width="4" stroke-linecap="round" stroke-linejoin="round"/>
</g>
</g>
</svg>
