<svg width="120" height="120" viewBox="0 0 120 120" fill="none" xmlns="http://www.w3.org/2000/svg">
<g id="university">
<g id="university_2">
<rect id="Layer 1" x="10" y="57" width="100" height="53" stroke="#E83E8C" stroke-width="4" stroke-linecap="round" stroke-linejoin="round"/>
<path id="Layer 2" d="M44 110V74C44 71.2386 46.2442 69 49 69C51.7614 69 54 71.2455 54 74V110" stroke="#E83E8C" stroke-width="4" stroke-linecap="round" stroke-linejoin="round"/>
<path id="Layer 3" d="M22 110V74C22 71.2386 24.2442 69 27 69C29.7614 69 32 71.2455 32 74V110" stroke="#E83E8C" stroke-width="4" stroke-linecap="round" stroke-linejoin="round"/>
<path id="Layer 4" d="M66 110V74C66 71.2386 68.2442 69 71 69C73.7614 69 76 71.2455 76 74V110" stroke="#E83E8C" stroke-width="4" stroke-linecap="round" stroke-linejoin="round"/>
<path id="Layer 5" d="M88 110V74C88 71.2386 90.2442 69 93 69C95.7614 69 98 71.2455 98 74V110" stroke="#E83E8C" stroke-width="4" stroke-linecap="round" stroke-linejoin="round"/>
<path id="Layer 6" d="M16 57V49H104V57" stroke="#E83E8C" stroke-width="4" stroke-linecap="round" stroke-linejoin="round"/>
<path id="Layer 7" fill-rule="evenodd" clip-rule="evenodd" d="M90 49C90 32.4315 76.5685 19 60 19C43.4315 19 30 32.4315 30 49H90Z" stroke="#E83E8C" stroke-width="4" stroke-linecap="round" stroke-linejoin="round"/>
<path id="Layer 8" d="M60.5 18.5V10.5" stroke="#E83E8C" stroke-width="4" stroke-linecap="round" stroke-linejoin="round"/>
</g>
</g>
</svg>
