<svg width="120" height="120" viewBox="0 0 120 120" fill="none" xmlns="http://www.w3.org/2000/svg">
<g id="user">
<g id="user_2">
<path id="Layer 1" fill-rule="evenodd" clip-rule="evenodd" d="M47.6401 78.626C47.9996 74.6564 47.8617 71.8861 47.8617 68.2588C46.0641 67.3157 42.8431 61.3022 42.2989 56.2221C40.8854 56.1063 39.0748 54.4867 37.5088 49.2827C36.3433 45.4097 38.8369 42.6709 39.689 42.1538C37.389 35.2366 32.5912 16.4994 48.5039 14.2881C50.1415 11.4119 54.3381 10 59.7877 10C81.5907 10.4014 84.6777 23.7589 79.898 42.1538C80.7475 42.6709 83.3921 45.6001 82.3169 49.2827C80.7928 54.5028 78.6899 56.1063 77.2764 56.2221C76.7346 61.2998 73.3856 67.3157 71.5831 68.2588C71.5831 71.8861 71.4476 74.6564 71.8072 78.626C76.1215 90.2244 105.231 86.969 106.575 109.338C106.575 109.338 13 109.338 13 109.338C14.3421 86.969 43.3258 90.2244 47.6401 78.626Z" stroke="#E83E8C" stroke-width="4" stroke-linecap="round" stroke-linejoin="round"/>
</g>
</g>
</svg>
