<svg width="120" height="120" viewBox="0 0 120 120" fill="none" xmlns="http://www.w3.org/2000/svg">
<g id="wine">
<g id="wine_2">
<path id="Layer 1" fill-rule="evenodd" clip-rule="evenodd" d="M66.0728 69C64.0696 71.287 63.0968 74.4313 63.0968 77.9806V96.8612C63.0968 104.004 68.8737 109.781 76 109.781L60 109.781L44 109.781C51.1263 109.781 56.9032 104.004 56.9032 96.8612V77.9806C56.9032 74.6481 56.0456 71.6726 54.2828 69.4285C56.2595 70.1309 58.215 70.4665 60.0693 70.3801C61.9733 70.2915 64.0058 69.8163 66.0728 69V69Z" stroke="#E83E8C" stroke-width="4" stroke-linecap="round" stroke-linejoin="round"/>
<path id="Layer 2" fill-rule="evenodd" clip-rule="evenodd" d="M80.7883 10C84.9334 16.2584 87 25.0102 87 34.8219C87 54.2427 70.9743 69.4334 59.6069 69.9863C48.2395 70.5393 33 54.2427 33 34.8219C33 25.6729 35.0071 16.5797 38.6924 10H80.7883V10Z" stroke="#E83E8C" stroke-width="4" stroke-linecap="round" stroke-linejoin="round"/>
<path id="Layer 3" fill-rule="evenodd" clip-rule="evenodd" d="M86.6191 40C84.128 56.8808 69.9421 69.4836 59.607 69.9863C49.2668 70.4893 35.7226 57.0503 33.3593 40H86.6191V40Z" stroke="#E83E8C" stroke-width="4" stroke-linecap="round" stroke-linejoin="round"/>
</g>
</g>
</svg>
