<svg width="120" height="120" viewBox="0 0 120 120" fill="none" xmlns="http://www.w3.org/2000/svg">
<g id="yuan">
<g id="yuan_2">
<path id="Layer 1" fill-rule="evenodd" clip-rule="evenodd" d="M60 110C87.6142 110 110 87.6142 110 60C110 32.3858 87.6142 10 60 10C32.3858 10 10 32.3858 10 60C10 87.6142 32.3858 110 60 110Z" stroke="#E83E8C" stroke-width="4" stroke-linecap="round" stroke-linejoin="round"/>
<path id="Layer 2" d="M42.7692 37.1538H77.3846" stroke="#E83E8C" stroke-width="4" stroke-linecap="round" stroke-linejoin="round"/>
<path id="Layer 3" d="M37 48.6924H83.1538" stroke="#E83E8C" stroke-width="4" stroke-linecap="round" stroke-linejoin="round"/>
<path id="Layer 4" d="M83.1538 69.9834V78.1162C83.1538 80.9834 80.8286 83.3078 77.961 83.3078H71.039C68.1711 83.3078 65.8462 80.9828 65.8462 78.1162V49.1206V53.8841" stroke="#E83E8C" stroke-width="4" stroke-linecap="round" stroke-linejoin="round"/>
<path id="Layer 5" d="M54.3077 48.6924C54.3077 48.6924 54.5083 61.3126 49.2912 69.2836C44.0741 77.2546 37.5769 82.7308 37.5769 82.7308" stroke="#E83E8C" stroke-width="4" stroke-linecap="round" stroke-linejoin="round"/>
</g>
</g>
</svg>
