<svg width="1200" height="900" viewBox="0 0 1200 900" fill="none" xmlns="http://www.w3.org/2000/svg">
<path d="M77.8241 177.819C79.1909 179.186 79.1909 181.402 77.8241 182.769C76.4572 184.136 74.2412 184.136 72.8744 182.769C71.5075 181.402 71.5075 179.186 72.8744 177.819C74.2412 176.452 76.4572 176.452 77.8241 177.819ZM107.523 177.819C108.889 179.186 108.889 181.402 107.523 182.769C106.156 184.136 103.94 184.136 102.573 182.769C101.206 181.402 101.206 179.186 102.573 177.819C103.94 176.452 106.156 176.452 107.523 177.819ZM137.221 177.819C138.588 179.186 138.588 181.402 137.221 182.769C135.854 184.136 133.638 184.136 132.271 182.769C130.904 181.402 130.904 179.186 132.271 177.819C133.638 176.452 135.854 176.452 137.221 177.819ZM166.92 177.819C168.286 179.186 168.286 181.402 166.92 182.769C165.553 184.136 163.337 184.136 161.97 182.769C160.603 181.402 160.603 179.186 161.97 177.819C163.337 176.452 165.553 176.452 166.92 177.819ZM196.618 177.819C197.985 179.186 197.985 181.402 196.618 182.769C195.251 184.136 193.035 184.136 191.668 182.769C190.301 181.402 190.301 179.186 191.668 177.819C193.035 176.452 195.251 176.452 196.618 177.819ZM226.317 177.819C227.683 179.186 227.683 181.402 226.317 182.769C224.95 184.136 222.734 184.136 221.367 182.769C220 181.402 220 179.186 221.367 177.819C222.734 176.452 224.95 176.452 226.317 177.819ZM62.9748 162.97C64.3417 164.337 64.3417 166.553 62.9748 167.92C61.608 169.286 59.392 169.286 58.0251 167.92C56.6583 166.553 56.6583 164.337 58.0251 162.97C59.392 161.603 61.608 161.603 62.9748 162.97ZM92.6733 162.97C94.0402 164.337 94.0402 166.553 92.6733 167.92C91.3065 169.286 89.0904 169.286 87.7236 167.92C86.3568 166.553 86.3568 164.337 87.7236 162.97C89.0904 161.603 91.3065 161.603 92.6733 162.97ZM122.372 162.97C123.739 164.337 123.739 166.553 122.372 167.92C121.005 169.286 118.789 169.286 117.422 167.92C116.055 166.553 116.055 164.337 117.422 162.97C118.789 161.603 121.005 161.603 122.372 162.97ZM152.07 162.97C153.437 164.337 153.437 166.553 152.07 167.92C150.703 169.286 148.487 169.286 147.121 167.92C145.754 166.553 145.754 164.337 147.121 162.97C148.487 161.603 150.703 161.603 152.07 162.97ZM181.769 162.97C183.136 164.337 183.136 166.553 181.769 167.92C180.402 169.286 178.186 169.286 176.819 167.92C175.452 166.553 175.452 164.337 176.819 162.97C178.186 161.603 180.402 161.603 181.769 162.97ZM211.467 162.97C212.834 164.337 212.834 166.553 211.467 167.92C210.1 169.286 207.884 169.286 206.518 167.92C205.151 166.553 205.151 164.337 206.518 162.97C207.884 161.603 210.1 161.603 211.467 162.97ZM241.166 162.97C242.533 164.337 242.533 166.553 241.166 167.92C239.799 169.286 237.583 169.286 236.216 167.92C234.849 166.553 234.849 164.337 236.216 162.97C237.583 161.603 239.799 161.603 241.166 162.97ZM77.8241 148.121C79.1909 149.487 79.1909 151.704 77.8241 153.07C76.4572 154.437 74.2412 154.437 72.8744 153.07C71.5075 151.704 71.5075 149.487 72.8744 148.121C74.2412 146.754 76.4572 146.754 77.8241 148.121ZM107.523 148.121C108.889 149.487 108.889 151.704 107.523 153.07C106.156 154.437 103.94 154.437 102.573 153.07C101.206 151.704 101.206 149.487 102.573 148.121C103.94 146.754 106.156 146.754 107.523 148.121ZM137.221 148.121C138.588 149.487 138.588 151.704 137.221 153.07C135.854 154.437 133.638 154.437 132.271 153.07C130.904 151.704 130.904 149.487 132.271 148.121C133.638 146.754 135.854 146.754 137.221 148.121ZM166.92 148.121C168.286 149.487 168.286 151.704 166.92 153.07C165.553 154.437 163.337 154.437 161.97 153.07C160.603 151.704 160.603 149.487 161.97 148.121C163.337 146.754 165.553 146.754 166.92 148.121ZM196.618 148.121C197.985 149.487 197.985 151.704 196.618 153.07C195.251 154.437 193.035 154.437 191.668 153.07C190.301 151.704 190.301 149.487 191.668 148.121C193.035 146.754 195.251 146.754 196.618 148.121ZM226.317 148.121C227.683 149.487 227.683 151.704 226.317 153.07C224.95 154.437 222.734 154.437 221.367 153.07C220 151.704 220 149.487 221.367 148.121C222.734 146.754 224.95 146.754 226.317 148.121ZM62.9748 133.271C64.3417 134.638 64.3417 136.854 62.9748 138.221C61.608 139.588 59.392 139.588 58.0251 138.221C56.6583 136.854 56.6583 134.638 58.0251 133.271C59.392 131.905 61.608 131.905 62.9748 133.271ZM92.6733 133.271C94.0402 134.638 94.0402 136.854 92.6733 138.221C91.3065 139.588 89.0904 139.588 87.7236 138.221C86.3568 136.854 86.3568 134.638 87.7236 133.271C89.0904 131.905 91.3065 131.905 92.6733 133.271ZM122.372 133.271C123.739 134.638 123.739 136.854 122.372 138.221C121.005 139.588 118.789 139.588 117.422 138.221C116.055 136.854 116.055 134.638 117.422 133.271C118.789 131.905 121.005 131.905 122.372 133.271ZM152.07 133.271C153.437 134.638 153.437 136.854 152.07 138.221C150.703 139.588 148.487 139.588 147.121 138.221C145.754 136.854 145.754 134.638 147.121 133.271C148.487 131.905 150.703 131.905 152.07 133.271ZM181.769 133.271C183.136 134.638 183.136 136.854 181.769 138.221C180.402 139.588 178.186 139.588 176.819 138.221C175.452 136.854 175.452 134.638 176.819 133.271C178.186 131.905 180.402 131.905 181.769 133.271ZM211.467 133.271C212.834 134.638 212.834 136.854 211.467 138.221C210.1 139.588 207.884 139.588 206.518 138.221C205.151 136.854 205.151 134.638 206.518 133.271C207.884 131.905 210.1 131.905 211.467 133.271ZM241.166 133.271C242.533 134.638 242.533 136.854 241.166 138.221C239.799 139.588 237.583 139.588 236.216 138.221C234.849 136.854 234.849 134.638 236.216 133.271C237.583 131.905 239.799 131.905 241.166 133.271ZM77.8241 118.422C79.1909 119.789 79.1909 122.005 77.8241 123.372C76.4572 124.739 74.2412 124.739 72.8744 123.372C71.5075 122.005 71.5075 119.789 72.8744 118.422C74.2412 117.055 76.4572 117.055 77.8241 118.422ZM107.523 118.422C108.889 119.789 108.889 122.005 107.523 123.372C106.156 124.739 103.94 124.739 102.573 123.372C101.206 122.005 101.206 119.789 102.573 118.422C103.94 117.055 106.156 117.055 107.523 118.422ZM137.221 118.422C138.588 119.789 138.588 122.005 137.221 123.372C135.854 124.739 133.638 124.739 132.271 123.372C130.904 122.005 130.904 119.789 132.271 118.422C133.638 117.055 135.854 117.055 137.221 118.422ZM166.92 118.422C168.286 119.789 168.286 122.005 166.92 123.372C165.553 124.739 163.337 124.739 161.97 123.372C160.603 122.005 160.603 119.789 161.97 118.422C163.337 117.055 165.553 117.055 166.92 118.422ZM196.618 118.422C197.985 119.789 197.985 122.005 196.618 123.372C195.251 124.739 193.035 124.739 191.668 123.372C190.301 122.005 190.301 119.789 191.668 118.422C193.035 117.055 195.251 117.055 196.618 118.422ZM226.317 118.422C227.683 119.789 227.683 122.005 226.317 123.372C224.95 124.739 222.734 124.739 221.367 123.372C220 122.005 220 119.789 221.367 118.422C222.734 117.055 224.95 117.055 226.317 118.422Z" fill="#27AE60"/>
<path d="M393.322 522.015C394.688 523.382 394.688 525.598 393.322 526.965C391.955 528.332 389.739 528.332 388.372 526.965C387.005 525.598 387.005 523.382 388.372 522.015C389.739 520.648 391.955 520.648 393.322 522.015ZM378.472 507.166C379.839 508.533 379.839 510.749 378.472 512.116C377.105 513.482 374.889 513.482 373.523 512.116C372.156 510.749 372.156 508.533 373.523 507.166C374.889 505.799 377.105 505.799 378.472 507.166ZM423.02 522.015C424.387 523.382 424.387 525.598 423.02 526.965C421.653 528.332 419.437 528.332 418.07 526.965C416.703 525.598 416.703 523.382 418.07 522.015C419.437 520.648 421.653 520.648 423.02 522.015ZM408.171 507.166C409.538 508.533 409.538 510.749 408.171 512.116C406.804 513.482 404.588 513.482 403.221 512.116C401.854 510.749 401.854 508.533 403.221 507.166C404.588 505.799 406.804 505.799 408.171 507.166ZM393.322 492.317C394.688 493.683 394.688 495.899 393.322 497.266C391.955 498.633 389.739 498.633 388.372 497.266C387.005 495.899 387.005 493.683 388.372 492.317C389.739 490.95 391.955 490.95 393.322 492.317ZM378.472 477.467C379.839 478.834 379.839 481.05 378.472 482.417C377.105 483.784 374.889 483.784 373.523 482.417C372.156 481.05 372.156 478.834 373.523 477.467C374.889 476.1 377.105 476.1 378.472 477.467ZM437.869 507.166C439.236 508.533 439.236 510.749 437.869 512.116C436.502 513.482 434.286 513.482 432.92 512.116C431.553 510.749 431.553 508.533 432.92 507.166C434.286 505.799 436.502 505.799 437.869 507.166ZM423.02 492.317C424.387 493.683 424.387 495.899 423.02 497.266C421.653 498.633 419.437 498.633 418.07 497.266C416.703 495.899 416.703 493.683 418.07 492.317C419.437 490.95 421.653 490.95 423.02 492.317ZM408.171 477.467C409.538 478.834 409.538 481.05 408.171 482.417C406.804 483.784 404.588 483.784 403.221 482.417C401.854 481.05 401.854 478.834 403.221 477.467C404.588 476.1 406.804 476.1 408.171 477.467ZM393.322 462.618C394.688 463.985 394.688 466.201 393.322 467.568C391.955 468.935 389.739 468.935 388.372 467.568C387.005 466.201 387.005 463.985 388.372 462.618C389.739 461.251 391.955 461.251 393.322 462.618ZM482.417 522.015C483.784 523.382 483.784 525.598 482.417 526.965C481.05 528.332 478.834 528.332 477.467 526.965C476.1 525.598 476.1 523.382 477.467 522.015C478.834 520.648 481.05 520.648 482.417 522.015ZM467.568 507.166C468.935 508.533 468.935 510.749 467.568 512.116C466.201 513.482 463.985 513.482 462.618 512.116C461.251 510.749 461.251 508.533 462.618 507.166C463.985 505.799 466.201 505.799 467.568 507.166ZM452.719 492.317C454.085 493.683 454.085 495.899 452.719 497.266C451.352 498.633 449.136 498.633 447.769 497.266C446.402 495.899 446.402 493.683 447.769 492.317C449.136 490.95 451.352 490.95 452.719 492.317ZM437.869 477.467C439.236 478.834 439.236 481.05 437.869 482.417C436.502 483.784 434.286 483.784 432.92 482.417C431.553 481.05 431.553 478.834 432.92 477.467C434.286 476.1 436.502 476.1 437.869 477.467ZM423.02 462.618C424.387 463.985 424.387 466.201 423.02 467.568C421.653 468.935 419.437 468.935 418.07 467.568C416.703 466.201 416.703 463.985 418.07 462.618C419.437 461.251 421.653 461.251 423.02 462.618ZM408.171 447.769C409.538 449.136 409.538 451.352 408.171 452.719C406.804 454.085 404.588 454.085 403.221 452.719C401.854 451.352 401.854 449.136 403.221 447.769C404.588 446.402 406.804 446.402 408.171 447.769ZM393.322 432.92C394.688 434.286 394.688 436.502 393.322 437.869C391.955 439.236 389.739 439.236 388.372 437.869C387.005 436.502 387.005 434.286 388.372 432.92C389.739 431.553 391.955 431.553 393.322 432.92ZM378.472 418.07C379.839 419.437 379.839 421.653 378.472 423.02C377.105 424.387 374.889 424.387 373.523 423.02C372.156 421.653 372.156 419.437 373.523 418.07C374.889 416.703 377.105 416.703 378.472 418.07ZM512.115 522.015C513.482 523.382 513.482 525.598 512.115 526.965C510.749 528.332 508.533 528.332 507.166 526.965C505.799 525.598 505.799 523.382 507.166 522.015C508.533 520.648 510.749 520.648 512.115 522.015ZM497.266 507.166C498.633 508.533 498.633 510.749 497.266 512.116C495.899 513.482 493.683 513.482 492.316 512.116C490.95 510.749 490.95 508.533 492.316 507.166C493.683 505.799 495.899 505.799 497.266 507.166ZM482.417 492.317C483.784 493.683 483.784 495.899 482.417 497.266C481.05 498.633 478.834 498.633 477.467 497.266C476.1 495.899 476.1 493.683 477.467 492.317C478.834 490.95 481.05 490.95 482.417 492.317ZM467.568 477.467C468.935 478.834 468.935 481.05 467.568 482.417C466.201 483.784 463.985 483.784 462.618 482.417C461.251 481.05 461.251 478.834 462.618 477.467C463.985 476.1 466.201 476.1 467.568 477.467ZM452.719 462.618C454.085 463.985 454.085 466.201 452.719 467.568C451.352 468.935 449.136 468.935 447.769 467.568C446.402 466.201 446.402 463.985 447.769 462.618C449.136 461.251 451.352 461.251 452.719 462.618ZM437.869 447.769C439.236 449.136 439.236 451.352 437.869 452.719C436.502 454.085 434.286 454.085 432.92 452.719C431.553 451.352 431.553 449.136 432.92 447.769C434.286 446.402 436.502 446.402 437.869 447.769ZM423.02 432.92C424.387 434.286 424.387 436.502 423.02 437.869C421.653 439.236 419.437 439.236 418.07 437.869C416.703 436.502 416.703 434.286 418.07 432.92C419.437 431.553 421.653 431.553 423.02 432.92ZM408.171 418.07C409.538 419.437 409.538 421.653 408.171 423.02C406.804 424.387 404.588 424.387 403.221 423.02C401.854 421.653 401.854 419.437 403.221 418.07C404.588 416.703 406.804 416.703 408.171 418.07ZM393.322 403.221C394.688 404.588 394.688 406.804 393.322 408.171C391.955 409.538 389.739 409.538 388.372 408.171C387.005 406.804 387.005 404.588 388.372 403.221C389.739 401.854 391.955 401.854 393.322 403.221ZM378.472 388.372C379.839 389.739 379.839 391.955 378.472 393.322C377.105 394.688 374.889 394.688 373.523 393.322C372.156 391.955 372.156 389.739 373.523 388.372C374.889 387.005 377.105 387.005 378.472 388.372ZM526.965 507.166C528.332 508.533 528.332 510.749 526.965 512.116C525.598 513.482 523.382 513.482 522.015 512.116C520.648 510.749 520.648 508.533 522.015 507.166C523.382 505.799 525.598 505.799 526.965 507.166ZM512.115 492.317C513.482 493.683 513.482 495.899 512.115 497.266C510.749 498.633 508.533 498.633 507.166 497.266C505.799 495.899 505.799 493.683 507.166 492.317C508.533 490.95 510.749 490.95 512.115 492.317ZM497.266 477.467C498.633 478.834 498.633 481.05 497.266 482.417C495.899 483.784 493.683 483.784 492.316 482.417C490.95 481.05 490.95 478.834 492.316 477.467C493.683 476.1 495.899 476.1 497.266 477.467ZM482.417 462.618C483.784 463.985 483.784 466.201 482.417 467.568C481.05 468.935 478.834 468.935 477.467 467.568C476.1 466.201 476.1 463.985 477.467 462.618C478.834 461.251 481.05 461.251 482.417 462.618ZM467.568 447.769C468.935 449.136 468.935 451.352 467.568 452.719C466.201 454.085 463.985 454.085 462.618 452.719C461.251 451.352 461.251 449.136 462.618 447.769C463.985 446.402 466.201 446.402 467.568 447.769ZM452.719 432.92C454.085 434.286 454.085 436.502 452.719 437.869C451.352 439.236 449.136 439.236 447.769 437.869C446.402 436.502 446.402 434.286 447.769 432.92C449.136 431.553 451.352 431.553 452.719 432.92ZM437.869 418.07C439.236 419.437 439.236 421.653 437.869 423.02C436.502 424.387 434.286 424.387 432.92 423.02C431.553 421.653 431.553 419.437 432.92 418.07C434.286 416.703 436.502 416.703 437.869 418.07ZM423.02 403.221C424.387 404.588 424.387 406.804 423.02 408.171C421.653 409.538 419.437 409.538 418.07 408.171C416.703 406.804 416.703 404.588 418.07 403.221C419.437 401.854 421.653 401.854 423.02 403.221ZM408.171 388.372C409.538 389.739 409.538 391.955 408.171 393.322C406.804 394.688 404.588 394.688 403.221 393.322C401.854 391.955 401.854 389.739 403.221 388.372C404.588 387.005 406.804 387.005 408.171 388.372ZM393.322 373.523C394.688 374.889 394.688 377.106 393.322 378.472C391.955 379.839 389.739 379.839 388.372 378.472C387.005 377.106 387.005 374.889 388.372 373.523C389.739 372.156 391.955 372.156 393.322 373.523ZM526.965 477.467C528.332 478.834 528.332 481.05 526.965 482.417C525.598 483.784 523.382 483.784 522.015 482.417C520.648 481.05 520.648 478.834 522.015 477.467C523.382 476.1 525.598 476.1 526.965 477.467ZM512.115 462.618C513.482 463.985 513.482 466.201 512.115 467.568C510.749 468.935 508.533 468.935 507.166 467.568C505.799 466.201 505.799 463.985 507.166 462.618C508.533 461.251 510.749 461.251 512.115 462.618ZM497.266 447.769C498.633 449.136 498.633 451.352 497.266 452.719C495.899 454.085 493.683 454.085 492.316 452.719C490.95 451.352 490.95 449.136 492.316 447.769C493.683 446.402 495.899 446.402 497.266 447.769ZM482.417 432.92C483.784 434.286 483.784 436.502 482.417 437.869C481.05 439.236 478.834 439.236 477.467 437.869C476.1 436.502 476.1 434.286 477.467 432.92C478.834 431.553 481.05 431.553 482.417 432.92ZM467.568 418.07C468.935 419.437 468.935 421.653 467.568 423.02C466.201 424.387 463.985 424.387 462.618 423.02C461.251 421.653 461.251 419.437 462.618 418.07C463.985 416.703 466.201 416.703 467.568 418.07ZM452.719 403.221C454.085 404.588 454.085 406.804 452.719 408.171C451.352 409.538 449.136 409.538 447.769 408.171C446.402 406.804 446.402 404.588 447.769 403.221C449.136 401.854 451.352 401.854 452.719 403.221ZM437.869 388.372C439.236 389.739 439.236 391.955 437.869 393.322C436.502 394.688 434.286 394.688 432.92 393.322C431.553 391.955 431.553 389.739 432.92 388.372C434.286 387.005 436.502 387.005 437.869 388.372ZM423.02 373.523C424.387 374.889 424.387 377.106 423.02 378.472C421.653 379.839 419.437 379.839 418.07 378.472C416.703 377.106 416.703 374.889 418.07 373.523C419.437 372.156 421.653 372.156 423.02 373.523ZM512.115 432.92C513.482 434.286 513.482 436.502 512.115 437.869C510.749 439.236 508.533 439.236 507.166 437.869C505.799 436.502 505.799 434.286 507.166 432.92C508.533 431.553 510.749 431.553 512.115 432.92ZM497.266 418.07C498.633 419.437 498.633 421.653 497.266 423.02C495.899 424.387 493.683 424.387 492.316 423.02C490.95 421.653 490.95 419.437 492.316 418.07C493.683 416.703 495.899 416.703 497.266 418.07ZM482.417 403.221C483.784 404.588 483.784 406.804 482.417 408.171C481.05 409.538 478.834 409.538 477.467 408.171C476.1 406.804 476.1 404.588 477.467 403.221C478.834 401.854 481.05 401.854 482.417 403.221ZM467.568 388.372C468.935 389.739 468.935 391.955 467.568 393.322C466.201 394.688 463.985 394.688 462.618 393.322C461.251 391.955 461.251 389.739 462.618 388.372C463.985 387.005 466.201 387.005 467.568 388.372ZM526.965 418.07C528.332 419.437 528.332 421.653 526.965 423.02C525.598 424.387 523.382 424.387 522.015 423.02C520.648 421.653 520.648 419.437 522.015 418.07C523.382 416.703 525.598 416.703 526.965 418.07ZM512.115 403.221C513.482 404.588 513.482 406.804 512.115 408.171C510.749 409.538 508.533 409.538 507.166 408.171C505.799 406.804 505.799 404.588 507.166 403.221C508.533 401.854 510.749 401.854 512.115 403.221ZM497.266 388.372C498.633 389.739 498.633 391.955 497.266 393.322C495.899 394.688 493.683 394.688 492.316 393.322C490.95 391.955 490.95 389.739 492.316 388.372C493.683 387.005 495.899 387.005 497.266 388.372ZM482.417 373.523C483.784 374.889 483.784 377.106 482.417 378.472C481.05 379.839 478.834 379.839 477.467 378.472C476.1 377.106 476.1 374.889 477.467 373.523C478.834 372.156 481.05 372.156 482.417 373.523ZM526.965 388.372C528.332 389.739 528.332 391.955 526.965 393.322C525.598 394.688 523.382 394.688 522.015 393.322C520.648 391.955 520.648 389.739 522.015 388.372C523.382 387.005 525.598 387.005 526.965 388.372ZM512.115 373.523C513.482 374.889 513.482 377.106 512.115 378.472C510.749 379.839 508.533 379.839 507.166 378.472C505.799 377.106 505.799 374.889 507.166 373.523C508.533 372.156 510.749 372.156 512.115 373.523Z" fill="#D6E1EF"/>
<path d="M1067.37 536.121C1068.74 537.487 1068.74 539.704 1067.37 541.07C1066 542.437 1063.79 542.437 1062.42 541.07C1061.06 539.704 1061.06 537.487 1062.42 536.121C1063.79 534.754 1066 534.754 1067.37 536.121ZM1037.67 536.121C1039.04 537.487 1039.04 539.704 1037.67 541.07C1036.31 542.437 1034.09 542.437 1032.72 541.07C1031.36 539.704 1031.36 537.487 1032.72 536.121C1034.09 534.754 1036.31 534.754 1037.67 536.121ZM1082.22 521.271C1083.59 522.638 1083.59 524.854 1082.22 526.221C1080.85 527.588 1078.64 527.588 1077.27 526.221C1075.9 524.854 1075.9 522.638 1077.27 521.271C1078.64 519.904 1080.85 519.904 1082.22 521.271ZM1052.52 521.271C1053.89 522.638 1053.89 524.854 1052.52 526.221C1051.16 527.588 1048.94 527.588 1047.57 526.221C1046.21 524.854 1046.21 522.638 1047.57 521.271C1048.94 519.904 1051.16 519.904 1052.52 521.271ZM1022.82 521.271C1024.19 522.638 1024.19 524.854 1022.82 526.221C1021.46 527.588 1019.24 527.588 1017.87 526.221C1016.51 524.854 1016.51 522.638 1017.87 521.271C1019.24 519.904 1021.46 519.904 1022.82 521.271ZM1097.07 506.422C1098.44 507.789 1098.44 510.005 1097.07 511.372C1095.7 512.739 1093.49 512.739 1092.12 511.372C1090.75 510.005 1090.75 507.789 1092.12 506.422C1093.49 505.055 1095.7 505.055 1097.07 506.422ZM1067.37 506.422C1068.74 507.789 1068.74 510.005 1067.37 511.372C1066 512.739 1063.79 512.739 1062.42 511.372C1061.06 510.005 1061.06 507.789 1062.42 506.422C1063.79 505.055 1066 505.055 1067.37 506.422ZM1037.67 506.422C1039.04 507.789 1039.04 510.005 1037.67 511.372C1036.31 512.739 1034.09 512.739 1032.72 511.372C1031.36 510.005 1031.36 507.789 1032.72 506.422C1034.09 505.055 1036.31 505.055 1037.67 506.422ZM1007.97 506.422C1009.34 507.789 1009.34 510.005 1007.97 511.372C1006.61 512.739 1004.39 512.739 1003.03 511.372C1001.66 510.005 1001.66 507.789 1003.03 506.422C1004.39 505.055 1006.61 505.055 1007.97 506.422ZM1082.22 491.573C1083.59 492.94 1083.59 495.156 1082.22 496.523C1080.85 497.889 1078.64 497.889 1077.27 496.523C1075.9 495.156 1075.9 492.94 1077.27 491.573C1078.64 490.206 1080.85 490.206 1082.22 491.573ZM1052.52 491.573C1053.89 492.94 1053.89 495.156 1052.52 496.523C1051.16 497.889 1048.94 497.889 1047.57 496.523C1046.21 495.156 1046.21 492.94 1047.57 491.573C1048.94 490.206 1051.16 490.206 1052.52 491.573ZM1022.82 491.573C1024.19 492.94 1024.19 495.156 1022.82 496.523C1021.46 497.889 1019.24 497.889 1017.87 496.523C1016.51 495.156 1016.51 492.94 1017.87 491.573C1019.24 490.206 1021.46 490.206 1022.82 491.573ZM1097.07 476.724C1098.44 478.09 1098.44 480.307 1097.07 481.673C1095.7 483.04 1093.49 483.04 1092.12 481.673C1090.75 480.307 1090.75 478.09 1092.12 476.724C1093.49 475.357 1095.7 475.357 1097.07 476.724ZM1067.37 476.724C1068.74 478.09 1068.74 480.307 1067.37 481.673C1066 483.04 1063.79 483.04 1062.42 481.673C1061.06 480.307 1061.06 478.09 1062.42 476.724C1063.79 475.357 1066 475.357 1067.37 476.724ZM1037.67 476.724C1039.04 478.09 1039.04 480.307 1037.67 481.673C1036.31 483.04 1034.09 483.04 1032.72 481.673C1031.36 480.307 1031.36 478.09 1032.72 476.724C1034.09 475.357 1036.31 475.357 1037.67 476.724ZM1007.97 476.724C1009.34 478.09 1009.34 480.307 1007.97 481.673C1006.61 483.04 1004.39 483.04 1003.03 481.673C1001.66 480.307 1001.66 478.09 1003.03 476.724C1004.39 475.357 1006.61 475.357 1007.97 476.724ZM1082.22 461.874C1083.59 463.241 1083.59 465.457 1082.22 466.824C1080.85 468.191 1078.64 468.191 1077.27 466.824C1075.9 465.457 1075.9 463.241 1077.27 461.874C1078.64 460.508 1080.85 460.508 1082.22 461.874ZM1052.52 461.874C1053.89 463.241 1053.89 465.457 1052.52 466.824C1051.16 468.191 1048.94 468.191 1047.57 466.824C1046.21 465.457 1046.21 463.241 1047.57 461.874C1048.94 460.508 1051.16 460.508 1052.52 461.874ZM1022.82 461.874C1024.19 463.241 1024.19 465.457 1022.82 466.824C1021.46 468.191 1019.24 468.191 1017.87 466.824C1016.51 465.457 1016.51 463.241 1017.87 461.874C1019.24 460.508 1021.46 460.508 1022.82 461.874ZM1037.67 447.121C1039.04 448.487 1039.04 450.704 1037.67 452.07C1036.31 453.437 1034.09 453.437 1032.72 452.07C1031.36 450.704 1031.36 448.487 1032.72 447.121C1034.09 445.754 1036.31 445.754 1037.67 447.121ZM1067.37 447.121C1068.74 448.487 1068.74 450.704 1067.37 452.07C1066 453.437 1063.79 453.437 1062.42 452.07C1061.06 450.704 1061.06 448.487 1062.42 447.121C1063.79 445.754 1066 445.754 1067.37 447.121ZM1082.22 432.271C1083.59 433.638 1083.59 435.854 1082.22 437.221C1080.85 438.588 1078.64 438.588 1077.27 437.221C1075.9 435.854 1075.9 433.638 1077.27 432.271C1078.64 430.904 1080.85 430.904 1082.22 432.271ZM1052.52 432.271C1053.89 433.638 1053.89 435.854 1052.52 437.221C1051.16 438.588 1048.94 438.588 1047.57 437.221C1046.21 435.854 1046.21 433.638 1047.57 432.271C1048.94 430.904 1051.16 430.904 1052.52 432.271ZM1022.82 432.271C1024.19 433.638 1024.19 435.854 1022.82 437.221C1021.46 438.588 1019.24 438.588 1017.87 437.221C1016.51 435.854 1016.51 433.638 1017.87 432.271C1019.24 430.904 1021.46 430.904 1022.82 432.271ZM1097.07 417.422C1098.44 418.789 1098.44 421.005 1097.07 422.372C1095.7 423.739 1093.49 423.739 1092.12 422.372C1090.75 421.005 1090.75 418.789 1092.12 417.422C1093.49 416.055 1095.7 416.055 1097.07 417.422ZM1067.37 417.422C1068.74 418.789 1068.74 421.005 1067.37 422.372C1066 423.739 1063.79 423.739 1062.42 422.372C1061.06 421.005 1061.06 418.789 1062.42 417.422C1063.79 416.055 1066 416.055 1067.37 417.422ZM1037.67 417.422C1039.04 418.789 1039.04 421.005 1037.67 422.372C1036.31 423.739 1034.09 423.739 1032.72 422.372C1031.36 421.005 1031.36 418.789 1032.72 417.422C1034.09 416.055 1036.31 416.055 1037.67 417.422ZM1007.97 417.422C1009.34 418.789 1009.34 421.005 1007.97 422.372C1006.61 423.739 1004.39 423.739 1003.03 422.372C1001.66 421.005 1001.66 418.789 1003.03 417.422C1004.39 416.055 1006.61 416.055 1007.97 417.422ZM1082.22 402.573C1083.59 403.94 1083.59 406.156 1082.22 407.523C1080.85 408.889 1078.64 408.889 1077.27 407.523C1075.9 406.156 1075.9 403.94 1077.27 402.573C1078.64 401.206 1080.85 401.206 1082.22 402.573ZM1052.52 402.573C1053.89 403.94 1053.89 406.156 1052.52 407.523C1051.16 408.889 1048.94 408.889 1047.57 407.523C1046.21 406.156 1046.21 403.94 1047.57 402.573C1048.94 401.206 1051.16 401.206 1052.52 402.573ZM1022.82 402.573C1024.19 403.94 1024.19 406.156 1022.82 407.523C1021.46 408.889 1019.24 408.889 1017.87 407.523C1016.51 406.156 1016.51 403.94 1017.87 402.573C1019.24 401.206 1021.46 401.206 1022.82 402.573ZM1097.07 387.724C1098.44 389.09 1098.44 391.307 1097.07 392.673C1095.7 394.04 1093.49 394.04 1092.12 392.673C1090.75 391.307 1090.75 389.09 1092.12 387.724C1093.49 386.357 1095.7 386.357 1097.07 387.724ZM1067.37 387.724C1068.74 389.09 1068.74 391.307 1067.37 392.673C1066 394.04 1063.79 394.04 1062.42 392.673C1061.06 391.307 1061.06 389.09 1062.42 387.724C1063.79 386.357 1066 386.357 1067.37 387.724ZM1037.67 387.724C1039.04 389.09 1039.04 391.307 1037.67 392.673C1036.31 394.04 1034.09 394.04 1032.72 392.673C1031.36 391.307 1031.36 389.09 1032.72 387.724C1034.09 386.357 1036.31 386.357 1037.67 387.724ZM1007.97 387.724C1009.34 389.09 1009.34 391.307 1007.97 392.673C1006.61 394.04 1004.39 394.04 1003.03 392.673C1001.66 391.307 1001.66 389.09 1003.03 387.724C1004.39 386.357 1006.61 386.357 1007.97 387.724ZM1082.22 372.874C1083.59 374.241 1083.59 376.457 1082.22 377.824C1080.85 379.191 1078.64 379.191 1077.27 377.824C1075.9 376.457 1075.9 374.241 1077.27 372.874C1078.64 371.508 1080.85 371.508 1082.22 372.874ZM1052.52 372.874C1053.89 374.241 1053.89 376.457 1052.52 377.824C1051.16 379.191 1048.94 379.191 1047.57 377.824C1046.21 376.457 1046.21 374.241 1047.57 372.874C1048.94 371.508 1051.16 371.508 1052.52 372.874ZM1022.82 372.874C1024.19 374.241 1024.19 376.457 1022.82 377.824C1021.46 379.191 1019.24 379.191 1017.87 377.824C1016.51 376.457 1016.51 374.241 1017.87 372.874C1019.24 371.508 1021.46 371.508 1022.82 372.874ZM1037.67 358.025C1039.04 359.392 1039.04 361.608 1037.67 362.975C1036.31 364.342 1034.09 364.342 1032.72 362.975C1031.36 361.608 1031.36 359.392 1032.72 358.025C1034.09 356.658 1036.31 356.658 1037.67 358.025ZM1067.37 358.025C1068.74 359.392 1068.74 361.608 1067.37 362.975C1066 364.342 1063.79 364.342 1062.42 362.975C1061.06 361.608 1061.06 359.392 1062.42 358.025C1063.79 356.658 1066 356.658 1067.37 358.025Z" fill="#F2994A"/>
<path d="M692.673 677.975C691.306 679.342 689.09 679.342 687.724 677.975C686.357 676.608 686.357 674.392 687.724 673.025C689.09 671.658 691.306 671.658 692.673 673.025C694.04 674.392 694.04 676.608 692.673 677.975Z" fill="#56CCF2"/>
<path d="M677.824 692.824C676.457 694.191 674.241 694.191 672.874 692.824C671.508 691.457 671.508 689.241 672.874 687.874C674.241 686.508 676.457 686.508 677.824 687.874C679.191 689.241 679.191 691.457 677.824 692.824Z" fill="#56CCF2"/>
<path d="M662.975 707.673C661.608 709.04 659.392 709.04 658.025 707.673C656.658 706.306 656.658 704.09 658.025 702.724C659.392 701.357 661.608 701.357 662.975 702.724C664.342 704.09 664.342 706.306 662.975 707.673Z" fill="#56CCF2"/>
<path d="M672.874 722.523C674.241 723.889 676.457 723.889 677.824 722.523C679.191 721.156 679.191 718.94 677.824 717.573C676.457 716.206 674.241 716.206 672.874 717.573C671.508 718.94 671.508 721.156 672.874 722.523Z" fill="#56CCF2"/>
<path d="M662.975 737.372C661.608 738.739 659.392 738.739 658.025 737.372C656.658 736.005 656.658 733.789 658.025 732.422C659.392 731.055 661.608 731.055 662.975 732.422C664.342 733.789 664.342 736.005 662.975 737.372Z" fill="#56CCF2"/>
<path d="M672.874 752.221C674.241 753.588 676.457 753.588 677.824 752.221C679.191 750.854 679.191 748.638 677.824 747.271C676.457 745.905 674.241 745.905 672.874 747.271C671.508 748.638 671.508 750.854 672.874 752.221Z" fill="#56CCF2"/>
<path d="M692.673 767.07C691.306 768.437 689.09 768.437 687.724 767.07C686.357 765.703 686.357 763.487 687.724 762.121C689.09 760.754 691.306 760.754 692.673 762.121C694.04 763.487 694.04 765.703 692.673 767.07Z" fill="#56CCF2"/>
<path d="M702.573 781.92C703.94 783.286 706.156 783.286 707.522 781.92C708.889 780.553 708.889 778.337 707.522 776.97C706.156 775.603 703.94 775.603 702.573 776.97C701.206 778.337 701.206 780.553 702.573 781.92Z" fill="#56CCF2"/>
<path d="M722.372 796.769C721.005 798.136 718.789 798.136 717.422 796.769C716.055 795.402 716.055 793.186 717.422 791.819C718.789 790.452 721.005 790.452 722.372 791.819C723.739 793.186 723.739 795.402 722.372 796.769Z" fill="#56CCF2"/>
<path d="M732.271 811.618C733.638 812.985 735.854 812.985 737.221 811.618C738.588 810.251 738.588 808.035 737.221 806.668C735.854 805.301 733.638 805.301 732.271 806.668C730.905 808.035 730.905 810.251 732.271 811.618Z" fill="#56CCF2"/>
<path d="M747.121 826.467C748.487 827.834 750.703 827.834 752.07 826.467C753.437 825.1 753.437 822.884 752.07 821.518C750.703 820.151 748.487 820.151 747.121 821.518C745.754 822.884 745.754 825.1 747.121 826.467Z" fill="#56CCF2"/>
<path d="M761.97 811.618C763.337 812.985 765.553 812.985 766.919 811.618C768.286 810.251 768.286 808.035 766.919 806.668C765.553 805.301 763.337 805.301 761.97 806.668C760.603 808.035 760.603 810.251 761.97 811.618Z" fill="#56CCF2"/>
<path d="M752.07 796.769C750.703 798.136 748.487 798.136 747.121 796.769C745.754 795.402 745.754 793.186 747.121 791.819C748.487 790.452 750.703 790.452 752.07 791.819C753.437 793.186 753.437 795.402 752.07 796.769Z" fill="#56CCF2"/>
<path d="M732.271 781.92C733.638 783.286 735.854 783.286 737.221 781.92C738.588 780.553 738.588 778.337 737.221 776.97C735.854 775.603 733.638 775.603 732.271 776.97C730.905 778.337 730.905 780.553 732.271 781.92Z" fill="#56CCF2"/>
<path d="M722.372 767.07C721.005 768.437 718.789 768.437 717.422 767.07C716.055 765.703 716.055 763.487 717.422 762.121C718.789 760.754 721.005 760.754 722.372 762.121C723.739 763.487 723.739 765.703 722.372 767.07Z" fill="#56CCF2"/>
<path d="M702.573 752.221C703.94 753.588 706.156 753.588 707.522 752.221C708.889 750.854 708.889 748.638 707.522 747.271C706.156 745.905 703.94 745.905 702.573 747.271C701.206 748.638 701.206 750.854 702.573 752.221Z" fill="#56CCF2"/>
<path d="M692.673 737.372C691.306 738.739 689.09 738.739 687.724 737.372C686.357 736.005 686.357 733.789 687.724 732.422C689.09 731.055 691.306 731.055 692.673 732.422C694.04 733.789 694.04 736.005 692.673 737.372Z" fill="#56CCF2"/>
<path d="M776.819 796.769C778.186 798.136 780.402 798.136 781.769 796.769C783.136 795.402 783.136 793.186 781.769 791.819C780.402 790.452 778.186 790.452 776.819 791.819C775.452 793.186 775.452 795.402 776.819 796.769Z" fill="#56CCF2"/>
<path d="M766.919 781.92C765.553 783.286 763.337 783.286 761.97 781.92C760.603 780.553 760.603 778.337 761.97 776.97C763.337 775.603 765.553 775.603 766.919 776.97C768.286 778.337 768.286 780.553 766.919 781.92Z" fill="#56CCF2"/>
<path d="M747.121 767.07C748.487 768.437 750.703 768.437 752.07 767.07C753.437 765.703 753.437 763.487 752.07 762.121C750.703 760.754 748.487 760.754 747.121 762.121C745.754 763.487 745.754 765.703 747.121 767.07Z" fill="#56CCF2"/>
<path d="M737.221 752.221C735.854 753.588 733.638 753.588 732.271 752.221C730.905 750.854 730.905 748.638 732.271 747.271C733.638 745.905 735.854 745.905 737.221 747.271C738.588 748.638 738.588 750.854 737.221 752.221Z" fill="#56CCF2"/>
<path d="M717.422 737.372C718.789 738.739 721.005 738.739 722.372 737.372C723.739 736.005 723.739 733.789 722.372 732.422C721.005 731.055 718.789 731.055 717.422 732.422C716.055 733.789 716.055 736.005 717.422 737.372Z" fill="#56CCF2"/>
<path d="M707.522 722.523C706.156 723.889 703.94 723.889 702.573 722.523C701.206 721.156 701.206 718.94 702.573 717.573C703.94 716.206 706.156 716.206 707.522 717.573C708.889 718.94 708.889 721.156 707.522 722.523Z" fill="#56CCF2"/>
<path d="M687.724 707.673C689.09 709.04 691.306 709.04 692.673 707.673C694.04 706.306 694.04 704.09 692.673 702.724C691.306 701.357 689.09 701.357 687.724 702.724C686.357 704.09 686.357 706.306 687.724 707.673Z" fill="#56CCF2"/>
<path d="M791.668 781.92C793.035 783.286 795.251 783.286 796.618 781.92C797.985 780.553 797.985 778.337 796.618 776.97C795.251 775.603 793.035 775.603 791.668 776.97C790.302 778.337 790.302 780.553 791.668 781.92Z" fill="#56CCF2"/>
<path d="M781.769 767.07C780.402 768.437 778.186 768.437 776.819 767.07C775.452 765.703 775.452 763.487 776.819 762.121C778.186 760.754 780.402 760.754 781.769 762.121C783.136 763.487 783.136 765.703 781.769 767.07Z" fill="#56CCF2"/>
<path d="M761.97 752.221C763.337 753.588 765.553 753.588 766.919 752.221C768.286 750.854 768.286 748.638 766.919 747.271C765.553 745.905 763.337 745.905 761.97 747.271C760.603 748.638 760.603 750.854 761.97 752.221Z" fill="#56CCF2"/>
<path d="M752.07 737.372C750.703 738.739 748.487 738.739 747.121 737.372C745.754 736.005 745.754 733.789 747.121 732.422C748.487 731.055 750.703 731.055 752.07 732.422C753.437 733.789 753.437 736.005 752.07 737.372Z" fill="#56CCF2"/>
<path d="M732.271 722.523C733.638 723.889 735.854 723.889 737.221 722.523C738.588 721.156 738.588 718.94 737.221 717.573C735.854 716.206 733.638 716.206 732.271 717.573C730.905 718.94 730.905 721.156 732.271 722.523Z" fill="#56CCF2"/>
<path d="M722.372 707.673C721.005 709.04 718.789 709.04 717.422 707.673C716.055 706.306 716.055 704.09 717.422 702.724C718.789 701.357 721.005 701.357 722.372 702.724C723.739 704.09 723.739 706.306 722.372 707.673Z" fill="#56CCF2"/>
<path d="M702.573 692.824C703.94 694.191 706.156 694.191 707.522 692.824C708.889 691.457 708.889 689.241 707.522 687.874C706.156 686.508 703.94 686.508 702.573 687.874C701.206 689.241 701.206 691.457 702.573 692.824Z" fill="#56CCF2"/>
<path d="M806.518 767.07C807.884 768.437 810.1 768.437 811.467 767.07C812.834 765.703 812.834 763.487 811.467 762.121C810.1 760.754 807.884 760.754 806.518 762.121C805.151 763.487 805.151 765.703 806.518 767.07Z" fill="#56CCF2"/>
<path d="M796.618 752.221C795.251 753.588 793.035 753.588 791.668 752.221C790.302 750.854 790.302 748.638 791.668 747.271C793.035 745.905 795.251 745.905 796.618 747.271C797.985 748.638 797.985 750.854 796.618 752.221Z" fill="#56CCF2"/>
<path d="M776.819 737.372C778.186 738.739 780.402 738.739 781.769 737.372C783.136 736.005 783.136 733.789 781.769 732.422C780.402 731.055 778.186 731.055 776.819 732.422C775.452 733.789 775.452 736.005 776.819 737.372Z" fill="#56CCF2"/>
<path d="M766.919 722.523C765.553 723.889 763.337 723.889 761.97 722.523C760.603 721.156 760.603 718.94 761.97 717.573C763.337 716.206 765.553 716.206 766.919 717.573C768.286 718.94 768.286 721.156 766.919 722.523Z" fill="#56CCF2"/>
<path d="M747.121 707.673C748.487 709.04 750.703 709.04 752.07 707.673C753.437 706.306 753.437 704.09 752.07 702.724C750.703 701.357 748.487 701.357 747.121 702.724C745.754 704.09 745.754 706.306 747.121 707.673Z" fill="#56CCF2"/>
<path d="M737.221 692.824C735.854 694.191 733.638 694.191 732.271 692.824C730.905 691.457 730.905 689.241 732.271 687.874C733.638 686.508 735.854 686.508 737.221 687.874C738.588 689.241 738.588 691.457 737.221 692.824Z" fill="#56CCF2"/>
<path d="M717.422 677.975C718.789 679.342 721.005 679.342 722.372 677.975C723.739 676.608 723.739 674.392 722.372 673.025C721.005 671.658 718.789 671.658 717.422 673.025C716.055 674.392 716.055 676.608 717.422 677.975Z" fill="#56CCF2"/>
<path d="M826.316 752.221C824.95 753.588 822.733 753.588 821.367 752.221C820 750.854 820 748.638 821.367 747.271C822.733 745.905 824.95 745.905 826.316 747.271C827.683 748.638 827.683 750.854 826.316 752.221Z" fill="#56CCF2"/>
<path d="M806.518 737.372C807.884 738.739 810.1 738.739 811.467 737.372C812.834 736.005 812.834 733.789 811.467 732.422C810.1 731.055 807.884 731.055 806.518 732.422C805.151 733.789 805.151 736.005 806.518 737.372Z" fill="#56CCF2"/>
<path d="M796.618 722.523C795.251 723.889 793.035 723.889 791.668 722.523C790.302 721.156 790.302 718.94 791.668 717.573C793.035 716.206 795.251 716.206 796.618 717.573C797.985 718.94 797.985 721.156 796.618 722.523Z" fill="#56CCF2"/>
<path d="M776.819 707.673C778.186 709.04 780.402 709.04 781.769 707.673C783.136 706.306 783.136 704.09 781.769 702.724C780.402 701.357 778.186 701.357 776.819 702.724C775.452 704.09 775.452 706.306 776.819 707.673Z" fill="#56CCF2"/>
<path d="M766.919 692.824C765.553 694.191 763.337 694.191 761.97 692.824C760.603 691.457 760.603 689.241 761.97 687.874C763.337 686.508 765.553 686.508 766.919 687.874C768.286 689.241 768.286 691.457 766.919 692.824Z" fill="#56CCF2"/>
<path d="M836.216 737.372C837.583 738.739 839.799 738.739 841.166 737.372C842.533 736.005 842.533 733.789 841.166 732.422C839.799 731.055 837.583 731.055 836.216 732.422C834.849 733.789 834.849 736.005 836.216 737.372Z" fill="#56CCF2"/>
<path d="M826.316 722.523C824.95 723.889 822.733 723.889 821.367 722.523C820 721.156 820 718.94 821.367 717.573C822.733 716.206 824.95 716.206 826.316 717.573C827.683 718.94 827.683 721.156 826.316 722.523Z" fill="#56CCF2"/>
<path d="M806.518 707.673C807.884 709.04 810.1 709.04 811.467 707.673C812.834 706.306 812.834 704.09 811.467 702.724C810.1 701.357 807.884 701.357 806.518 702.724C805.151 704.09 805.151 706.306 806.518 707.673Z" fill="#56CCF2"/>
<path d="M796.618 692.824C795.251 694.191 793.035 694.191 791.668 692.824C790.302 691.457 790.302 689.241 791.668 687.874C793.035 686.508 795.251 686.508 796.618 687.874C797.985 689.241 797.985 691.457 796.618 692.824Z" fill="#56CCF2"/>
<path d="M776.819 677.975C778.186 679.342 780.402 679.342 781.769 677.975C783.136 676.608 783.136 674.392 781.769 673.025C780.402 671.658 778.186 671.658 776.819 673.025C775.452 674.392 775.452 676.608 776.819 677.975Z" fill="#56CCF2"/>
<path d="M841.166 707.673C839.799 709.04 837.583 709.04 836.216 707.673C834.849 706.306 834.849 704.09 836.216 702.724C837.583 701.357 839.799 701.357 841.166 702.724C842.533 704.09 842.533 706.306 841.166 707.673Z" fill="#56CCF2"/>
<path d="M821.367 692.824C822.733 694.191 824.95 694.191 826.316 692.824C827.683 691.457 827.683 689.241 826.316 687.874C824.95 686.508 822.733 686.508 821.367 687.874C820 689.241 820 691.457 821.367 692.824Z" fill="#56CCF2"/>
<path d="M811.467 677.975C810.1 679.342 807.884 679.342 806.518 677.975C805.151 676.608 805.151 674.392 806.518 673.025C807.884 671.658 810.1 671.658 811.467 673.025C812.834 674.392 812.834 676.608 811.467 677.975Z" fill="#56CCF2"/>
</svg>
