<svg width="120" height="120" viewBox="0 0 120 120" fill="none" xmlns="http://www.w3.org/2000/svg">
<g id="aperture">
<g id="aperture_2">
<path id="Layer 1" d="M45.5153 107.838C28.7956 102.897 15.7352 89.4283 11.3702 72.4692H67.1991" stroke="#1BB4BF" stroke-width="4" stroke-linecap="round" stroke-linejoin="round"/>
<path id="Layer 2" d="M94.9513 95.5991V95.5991C95.0604 95.4921 95.169 95.3847 95.2769 95.2769V95.2769V95.2769C82.6109 107.959 63.933 112.884 46.646 108.068L74.3982 60" stroke="#1BB4BF" stroke-width="4" stroke-linecap="round" stroke-linejoin="round"/>
<path id="Layer 3" d="M108.305 47.531V47.531C108.267 47.383 108.229 47.2353 108.189 47.0879V47.0879V47.0879C112.839 64.398 107.765 83.0361 94.9513 95.5992V95.5992L67.1991 47.531" stroke="#1BB4BF" stroke-width="4" stroke-linecap="round" stroke-linejoin="round"/>
<path id="Layer 4" d="M73.354 11.9319C73.2069 11.8909 73.0596 11.8506 72.9122 11.811V11.811V11.811C90.2282 16.4391 103.832 30.1522 108.305 47.531V47.531H52.8009" stroke="#1BB4BF" stroke-width="4" stroke-linecap="round" stroke-linejoin="round"/>
<path id="Layer 5" d="M25.0487 24.4012C24.9396 24.5081 24.8311 24.6155 24.7231 24.7234H24.7231V24.7234V24.7234C37.3892 12.0413 56.0671 7.11633 73.3541 11.932L45.6019 60.0002" stroke="#1BB4BF" stroke-width="4" stroke-linecap="round" stroke-linejoin="round"/>
<path id="Layer 6" d="M11.6941 72.4696V72.4696V72.4696C7.248 55.2852 12.344 36.8574 25.0487 24.4014L52.8009 72.4696" stroke="#1BB4BF" stroke-width="4" stroke-linecap="round" stroke-linejoin="round"/>
</g>
</g>
</svg>
