<svg width="120" height="120" viewBox="0 0 120 120" fill="none" xmlns="http://www.w3.org/2000/svg">
<g id="bag">
<g id="bag_2">
<path id="Path" fill-rule="evenodd" clip-rule="evenodd" d="M110 110H10L13.4179 20H106.582L110 110V110V110V110V110Z" stroke="#1BB4BF" stroke-width="4" stroke-linecap="round" stroke-linejoin="round"/>
<path id="Path_2" fill-rule="evenodd" clip-rule="evenodd" d="M75 40C77.7614 40 80 37.7614 80 35C80 32.2386 77.7614 30 75 30C72.2386 30 70 32.2386 70 35C70 37.7614 72.2386 40 75 40V40V40V40V40Z" stroke="#1BB4BF" stroke-width="4" stroke-linecap="round" stroke-linejoin="round"/>
<path id="Path_3" fill-rule="evenodd" clip-rule="evenodd" d="M45 40C47.7614 40 50 37.7614 50 35C50 32.2386 47.7614 30 45 30C42.2386 30 40 32.2386 40 35C40 37.7614 42.2386 40 45 40V40V40V40V40Z" stroke="#1BB4BF" stroke-width="4" stroke-linecap="round" stroke-linejoin="round"/>
<path id="Path_4" d="M13.8837 20L21.5215 10H98.4785L106.252 20" stroke="#1BB4BF" stroke-width="4" stroke-linecap="round" stroke-linejoin="round"/>
<path id="Layer 3" d="M75 40V55C75 63.2843 68.2861 70 60 70V70C51.7157 70 45 63.2861 45 55V40V40" stroke="#1BB4BF" stroke-width="4" stroke-linecap="round" stroke-linejoin="round"/>
</g>
</g>
</svg>
