<svg width="120" height="120" viewBox="0 0 120 120" fill="none" xmlns="http://www.w3.org/2000/svg">
<g id="bank">
<g id="bank_2">
<path id="Layer 1" d="M60 10L60.9372 8.23319C60.3511 7.92227 59.6489 7.92227 59.0628 8.23319L60 10ZM10.0053 36.8693L12.0053 36.8693C12.0053 35.8037 11.1697 34.9252 10.1054 34.8718L10.0053 36.8693ZM10.0053 44L8.00532 44C8.00532 45.1046 8.90075 46 10.0053 46V44ZM109.995 44V46C111.099 46 111.995 45.1046 111.995 44H109.995ZM109.995 36.8692L109.895 34.8717C108.83 34.925 107.995 35.8035 107.995 36.8692H109.995ZM60 10C59.0628 8.23319 59.0626 8.2333 59.0622 8.2335C59.0618 8.23371 59.0612 8.23402 59.0604 8.23443C59.0589 8.23525 59.0566 8.23647 59.0535 8.2381C59.0474 8.24136 59.0382 8.24623 59.026 8.25268C59.0017 8.2656 58.9654 8.28486 58.9175 8.31027C58.8217 8.36108 58.6797 8.43646 58.4944 8.53478C58.1238 8.73143 57.5805 9.01982 56.8892 9.38686C55.5067 10.1209 53.5323 11.1696 51.165 12.4281C46.4304 14.9451 40.1235 18.3015 33.8351 21.6591C27.5475 25.0162 21.2755 28.3761 16.6116 30.8992C14.2809 32.1601 12.3457 33.2154 11.0094 33.9579C10.344 34.3277 9.81402 34.6271 9.45486 34.838C9.28208 34.9395 9.11796 35.0385 8.99231 35.1216C8.9511 35.1489 8.82214 35.2337 8.69475 35.3455C8.65709 35.3786 8.59081 35.4389 8.51692 35.5212C8.46713 35.5766 8.29399 35.7707 8.16427 36.0712C8.04648 36.3442 7.74041 37.2968 8.4767 38.163C9.04828 38.8355 9.80256 38.8617 9.90521 38.8668L10.1054 34.8718C10.2034 34.8768 10.9545 34.9019 11.5245 35.5725C12.2592 36.4369 11.9531 37.3868 11.8368 37.6563C11.7086 37.9533 11.5385 38.1431 11.4933 38.1935C11.424 38.2707 11.3638 38.3251 11.3337 38.3515C11.2368 38.4366 11.1625 38.482 11.1993 38.4576C11.2299 38.4374 11.3157 38.384 11.4805 38.2872C11.7964 38.1017 12.2918 37.8214 12.9523 37.4544C14.2679 36.7233 16.1869 35.6769 18.5149 34.4174C23.1687 31.8997 29.4329 28.5441 35.7191 25.1876C42.0046 21.8316 48.3092 18.4764 53.0426 15.9601C55.4092 14.7019 57.383 13.6536 58.765 12.9198C59.4561 12.5529 59.9992 12.2646 60.3695 12.0681C60.5546 11.9698 60.6966 11.8945 60.7923 11.8437C60.8401 11.8183 60.8763 11.7991 60.9006 11.7862C60.9128 11.7798 60.9219 11.7749 60.928 11.7717C60.9311 11.7701 60.9334 11.7688 60.9349 11.768C60.9357 11.7676 60.9363 11.7673 60.9367 11.7671C60.937 11.7669 60.9372 11.7668 60 10ZM8.00532 36.8693L8.00532 44L12.0053 44L12.0053 36.8693L8.00532 36.8693ZM10.0053 46H109.995V42H10.0053V46ZM111.995 44V36.8692H107.995V44H111.995ZM110.095 38.8667C110.197 38.8616 110.952 38.8356 111.523 38.1631C112.26 37.2966 111.953 36.3438 111.836 36.071C111.706 35.7705 111.533 35.5764 111.483 35.521C111.409 35.4387 111.343 35.3784 111.305 35.3454C111.178 35.2336 111.049 35.1488 111.008 35.1215C110.882 35.0384 110.718 34.9394 110.545 34.8379C110.186 34.627 109.656 34.3276 108.991 33.9578C107.654 33.2154 105.719 32.1601 103.388 30.8992C98.7245 28.376 92.4524 25.0162 86.1648 21.6591C79.8765 18.3015 73.5696 14.9451 68.835 12.4281C66.4677 11.1696 64.4933 10.1209 63.1108 9.38686C62.4195 9.01982 61.8762 8.73143 61.5056 8.53478C61.3203 8.43646 61.1783 8.36108 61.0825 8.31027C61.0346 8.28486 60.9983 8.2656 60.974 8.25268C60.9618 8.24623 60.9526 8.24136 60.9465 8.2381C60.9434 8.23647 60.9411 8.23525 60.9396 8.23443C60.9388 8.23402 60.9382 8.23371 60.9378 8.2335C60.9374 8.2333 60.9372 8.23319 60 10C59.0628 11.7668 59.063 11.7669 59.0633 11.7671C59.0637 11.7673 59.0643 11.7676 59.0651 11.768C59.0666 11.7688 59.0689 11.7701 59.072 11.7717C59.0781 11.7749 59.0872 11.7798 59.0994 11.7862C59.1237 11.7991 59.1599 11.8183 59.2077 11.8437C59.3034 11.8945 59.4454 11.9698 59.6305 12.0681C60.0008 12.2646 60.5439 12.5529 61.235 12.9198C62.617 13.6536 64.5908 14.7019 66.9574 15.9601C71.6908 18.4764 77.9954 21.8316 84.2809 25.1876C90.5671 28.544 96.8313 31.8996 101.485 34.4173C103.813 35.6768 105.732 36.7233 107.048 37.4543C107.708 37.8213 108.204 38.1016 108.52 38.2871C108.684 38.3839 108.77 38.4373 108.801 38.4576C108.838 38.4819 108.763 38.4365 108.666 38.3514C108.636 38.3251 108.576 38.2707 108.507 38.1935C108.462 38.1431 108.291 37.9534 108.163 37.6563C108.047 37.387 107.741 36.4368 108.476 35.5723C109.046 34.9016 109.797 34.8766 109.895 34.8717L110.095 38.8667ZM60 33.8182C63.615 33.8182 66.5455 30.8877 66.5455 27.2727H62.5455C62.5455 28.6785 61.4058 29.8182 60 29.8182V33.8182ZM66.5455 27.2727C66.5455 23.6578 63.615 20.7273 60 20.7273V24.7273C61.4058 24.7273 62.5455 25.8669 62.5455 27.2727H66.5455ZM60 20.7273C56.385 20.7273 53.4545 23.6578 53.4545 27.2727H57.4545C57.4545 25.8669 58.5942 24.7273 60 24.7273V20.7273ZM53.4545 27.2727C53.4545 30.8877 56.385 33.8182 60 33.8182V29.8182C58.5942 29.8182 57.4545 28.6785 57.4545 27.2727H53.4545Z" fill="#1BB4BF"/>
<rect id="Layer 2" x="51" y="44" width="18" height="47.9057" stroke="#1BB4BF" stroke-width="4" stroke-linecap="round" stroke-linejoin="round"/>
<rect id="Layer 3" x="21" y="44" width="18" height="47.9057" stroke="#1BB4BF" stroke-width="4" stroke-linecap="round" stroke-linejoin="round"/>
<rect id="Layer 4" x="81" y="44" width="18" height="47.9057" stroke="#1BB4BF" stroke-width="4" stroke-linecap="round" stroke-linejoin="round"/>
<path id="Layer 5" fill-rule="evenodd" clip-rule="evenodd" d="M101.4 100.149V92H18.6V100.149H15V110H105V100.149H101.4V100.149Z" stroke="#1BB4BF" stroke-width="4" stroke-linecap="round" stroke-linejoin="round"/>
<path id="Layer 6" fill-rule="evenodd" clip-rule="evenodd" d="M60 31.818C62.5104 31.818 64.5455 29.7829 64.5455 27.2725C64.5455 24.7621 62.5104 22.7271 60 22.7271C57.4896 22.7271 55.4545 24.7621 55.4545 27.2725C55.4545 29.7829 57.4896 31.818 60 31.818Z" stroke="#1BB4BF" stroke-width="4" stroke-linecap="round" stroke-linejoin="round"/>
<path id="Layer 7" fill-rule="evenodd" clip-rule="evenodd" d="M60 31.818C62.5104 31.818 64.5455 29.7829 64.5455 27.2725C64.5455 24.7621 62.5104 22.7271 60 22.7271C57.4896 22.7271 55.4545 24.7621 55.4545 27.2725C55.4545 29.7829 57.4896 31.818 60 31.818Z" stroke="#1BB4BF" stroke-width="4" stroke-linecap="round" stroke-linejoin="round"/>
</g>
</g>
</svg>
