<svg width="120" height="120" viewBox="0 0 120 120" fill="none" xmlns="http://www.w3.org/2000/svg">
<g id="calendar-1">
<g id="calendar-1_2">
<rect id="Layer 1" x="10" y="10" width="100" height="100" rx="3" stroke="#1BB4BF" stroke-width="4" stroke-linecap="round" stroke-linejoin="round"/>
<rect id="Layer 2" x="20" y="40" width="20" height="20" stroke="#1BB4BF" stroke-width="4" stroke-linecap="round" stroke-linejoin="round"/>
<rect id="Layer 3" x="40" y="40" width="20" height="20" stroke="#1BB4BF" stroke-width="4" stroke-linecap="round" stroke-linejoin="round"/>
<rect id="Layer 4" x="60" y="40" width="20" height="20" stroke="#1BB4BF" stroke-width="4" stroke-linecap="round" stroke-linejoin="round"/>
<rect id="Layer 5" x="80" y="40" width="20" height="20" stroke="#1BB4BF" stroke-width="4" stroke-linecap="round" stroke-linejoin="round"/>
<rect id="Layer 6" x="80" y="60" width="20" height="20" stroke="#1BB4BF" stroke-width="4" stroke-linecap="round" stroke-linejoin="round"/>
<rect id="Layer 7" x="60" y="60" width="20" height="20" stroke="#1BB4BF" stroke-width="4" stroke-linecap="round" stroke-linejoin="round"/>
<rect id="Layer 8" x="40" y="60" width="20" height="20" stroke="#1BB4BF" stroke-width="4" stroke-linecap="round" stroke-linejoin="round"/>
<rect id="Layer 9" x="20" y="60" width="20" height="20" stroke="#1BB4BF" stroke-width="4" stroke-linecap="round" stroke-linejoin="round"/>
<rect id="Layer 10" x="20" y="80" width="20" height="20" stroke="#1BB4BF" stroke-width="4" stroke-linecap="round" stroke-linejoin="round"/>
<rect id="Layer 11" x="40" y="80" width="20" height="20" stroke="#1BB4BF" stroke-width="4" stroke-linecap="round" stroke-linejoin="round"/>
<rect id="Layer 12" x="60" y="80" width="20" height="20" stroke="#1BB4BF" stroke-width="4" stroke-linecap="round" stroke-linejoin="round"/>
<rect id="Layer 13" x="80" y="80" width="20" height="20" stroke="#1BB4BF" stroke-width="4" stroke-linecap="round" stroke-linejoin="round"/>
<path id="Layer 14" d="M30 10H40V15C40 17.7614 37.7614 20 35 20V20C32.2386 20 30 17.7614 30 15V10Z" stroke="#1BB4BF" stroke-width="4" stroke-linecap="round" stroke-linejoin="round"/>
<path id="Layer 15" d="M80 10H90V15C90 17.7614 87.7614 20 85 20V20C82.2386 20 80 17.7614 80 15V10Z" stroke="#1BB4BF" stroke-width="4" stroke-linecap="round" stroke-linejoin="round"/>
</g>
</g>
</svg>
