<svg width="120" height="120" viewBox="0 0 120 120" fill="none" xmlns="http://www.w3.org/2000/svg">
<g id="call-reject">
<g id="call-reject_2">
<path id="Layer 1" fill-rule="evenodd" clip-rule="evenodd" d="M75.1816 84.1082C78.4978 84.1082 80.9875 92.7747 80.9875 92.7747C82.1842 95.8653 85.8265 98.5769 89.1456 98.8329L104.009 99.9795C107.318 100.235 110 97.7521 110 94.4497V85.0007C110 79.188 103.339 74.7217 98.0444 72.4412C98.0444 72.4412 89.7842 68 60 68C30.2158 68 21.9556 72.4412 21.9556 72.4412C16.6614 74.7217 10 79.188 10 85.0007V94.4497C10 97.7521 12.6824 100.235 15.9913 99.9795L30.8544 98.8329C34.1735 98.5769 37.8158 95.8653 39.0125 92.7747C39.0125 92.7747 41.99 84.1082 45.3062 84.1082H60H75.1816Z" stroke="#1BB4BF" stroke-width="4" stroke-linecap="round" stroke-linejoin="round"/>
<path id="Layer 2" d="M100.22 20L60.1099 60L20 20" stroke="#1BB4BF" stroke-width="4" stroke-linecap="round" stroke-linejoin="round"/>
<path id="Layer 3" d="M85 20H100V35" stroke="#1BB4BF" stroke-width="4" stroke-linecap="round" stroke-linejoin="round"/>
</g>
</g>
</svg>
