<svg width="120" height="120" viewBox="0 0 120 120" fill="none" xmlns="http://www.w3.org/2000/svg">
<g id="call-output">
<g id="call-output_2">
<path id="Layer 1" fill-rule="evenodd" clip-rule="evenodd" d="M37.0105 61.8559C34.6656 59.511 39.0333 51.6224 39.0333 51.6224C40.3725 48.5908 39.7144 44.098 37.5485 41.57L27.8494 30.2494C25.6902 27.7291 22.0379 27.5879 19.7028 29.9231L13.0213 36.6045C8.91111 40.7147 10.4633 48.5832 12.5942 53.9393C12.5942 53.9393 15.2947 62.9206 36.3553 83.9812C57.4159 105.042 66.3972 107.742 66.3972 107.742C71.7533 109.873 79.6218 111.425 83.732 107.315L90.4135 100.634C92.7486 98.2986 92.6074 94.6463 90.0871 92.4871L78.7665 82.788C76.2386 80.6222 71.7457 79.964 68.7142 81.3032C68.7142 81.3032 60.4806 85.3259 58.1357 82.981L47.7456 72.5909L37.0105 61.8559V61.8559Z" stroke="#1BB4BF" stroke-width="4" stroke-linecap="round" stroke-linejoin="round"/>
<path id="Layer 2" d="M110 10L59.9775 60.0225" stroke="#1BB4BF" stroke-width="4" stroke-linecap="round" stroke-linejoin="round"/>
<path id="Layer 3" d="M90 10H110V30" stroke="#1BB4BF" stroke-width="4" stroke-linecap="round" stroke-linejoin="round"/>
</g>
</g>
</svg>
