<svg width="120" height="120" viewBox="0 0 120 120" fill="none" xmlns="http://www.w3.org/2000/svg">
<g id="camera-3">
<g id="camera-3_2">
<path id="Layer 1" fill-rule="evenodd" clip-rule="evenodd" d="M44.9528 19.8303H32.9959C31.3373 19.8303 30 21.1776 30 22.8395V56.425C30 58.0938 31.3413 59.4342 32.9959 59.4342H87.0041C88.6627 59.4342 90 58.0869 90 56.425V22.8395C90 21.1707 88.6587 19.8303 87.0041 19.8303H75.0697L70.7389 12.5833C69.886 11.1561 67.8497 10 66.19 10H53.8776C52.2199 10 50.1806 11.149 49.3271 12.5664L44.9528 19.8303V19.8303Z" stroke="#1BB4BF" stroke-width="4" stroke-linecap="round" stroke-linejoin="round"/>
<path id="Layer 2" fill-rule="evenodd" clip-rule="evenodd" d="M60 53.5645C68.0523 53.5645 74.58 47.1528 74.58 39.2434C74.58 31.3341 68.0523 24.9224 60 24.9224C51.9477 24.9224 45.42 31.3341 45.42 39.2434C45.42 47.1528 51.9477 53.5645 60 53.5645Z" stroke="#1BB4BF" stroke-width="4" stroke-linecap="round" stroke-linejoin="round"/>
<path id="Layer 3" d="M57.5657 32.1123C55.5684 32.1123 52.2857 35.1845 52.2857 37.2985" stroke="#1BB4BF" stroke-width="4" stroke-linecap="round" stroke-linejoin="round"/>
<path id="Layer 4" d="M56 17.9208H64" stroke="#1BB4BF" stroke-width="4" stroke-linecap="round" stroke-linejoin="round"/>
<rect id="Layer 5" x="55" y="59.5049" width="10" height="7.92079" rx="1" fill="#1BB4BF" stroke="#1BB4BF" stroke-width="4" stroke-linecap="round" stroke-linejoin="round"/>
<path id="Layer 6" d="M60 67.4258L40 109.01" stroke="#1BB4BF" stroke-width="4" stroke-linecap="round" stroke-linejoin="round"/>
<path id="Layer 7" d="M60 67.4258L80 109.01" stroke="#1BB4BF" stroke-width="4" stroke-linecap="round" stroke-linejoin="round"/>
<path id="Layer 8" d="M60 69.4062V109.023" stroke="#1BB4BF" stroke-width="4" stroke-linecap="round" stroke-linejoin="round"/>
</g>
</g>
</svg>
