<svg width="120" height="120" viewBox="0 0 120 120" fill="none" xmlns="http://www.w3.org/2000/svg">
<g id="candy">
<g id="candy_2">
<path id="Layer 1" fill-rule="evenodd" clip-rule="evenodd" d="M25.8981 95.2354L76.1717 43.9563C79.6435 40.4151 85.2694 40.4148 88.7409 43.9558C92.2139 47.4982 92.2147 53.2326 88.7404 56.7764L82.4149 63.2284C78.9441 66.7686 78.9441 72.5083 82.4149 76.0485C85.8856 79.5886 91.5128 79.5886 94.9835 76.0485L101.309 69.5964C111.726 58.9716 111.723 41.7578 101.31 31.1357C90.8962 20.514 74.0159 20.5151 63.603 31.1363L13.3294 82.4154C9.85863 85.9555 9.85863 91.6953 13.3294 95.2354C16.8001 98.7756 22.4273 98.7756 25.8981 95.2354V95.2354V95.2354Z" stroke="#1BB4BF" stroke-width="4" stroke-linecap="round" stroke-linejoin="round"/>
<path id="Layer 2" fill-rule="evenodd" clip-rule="evenodd" d="M26.1655 94.9625L45.0185 75.7324V50.0923L26.1655 69.3224V94.9625V94.9625Z" stroke="#1BB4BF" stroke-width="4" stroke-linecap="round" stroke-linejoin="round"/>
<path id="Layer 3" fill-rule="evenodd" clip-rule="evenodd" d="M91.3459 50.3657C91.3459 52.685 90.4775 55.0045 88.7404 56.7763L82.4148 63.2283C78.9441 66.7685 78.9441 72.5082 82.4148 76.0484C85.8856 79.5886 91.5128 79.5886 94.9835 76.0484L101.309 69.5964C106.517 64.2841 109.121 57.3248 109.121 50.3657L91.3459 50.3657V50.3657V50.3657Z" stroke="#1BB4BF" stroke-width="4" stroke-linecap="round" stroke-linejoin="round"/>
<path id="Layer 4" fill-rule="evenodd" clip-rule="evenodd" d="M63.8715 56.5025L76.1717 43.9563C77.9758 42.1161 80.3616 41.2321 82.7246 41.3043V23.1713C75.9287 23.1021 69.1118 25.6672 63.8715 30.8661L63.8715 56.5025V56.5025Z" stroke="#1BB4BF" stroke-width="4" stroke-linecap="round" stroke-linejoin="round"/>
</g>
</g>
</svg>
