<svg width="120" height="120" viewBox="0 0 120 120" fill="none" xmlns="http://www.w3.org/2000/svg">
<g id="card-2">
<g id="card-2_2">
<path id="Layer 1" d="M100.909 33.0909V29.4531C100.909 26.4362 98.4698 24 95.4609 24H15.4482C12.4433 24 10 26.4414 10 29.4531V82.1833C10 85.2001 12.4393 87.6364 15.4482 87.6364H19.0909" stroke="#1BB4BF" stroke-width="4" stroke-linecap="round" stroke-linejoin="round"/>
<rect id="Layer 2" x="19.0908" y="33.0908" width="90.9091" height="63.6364" rx="6" stroke="#1BB4BF" stroke-width="4" stroke-linecap="round" stroke-linejoin="round"/>
<path id="Layer 3" fill-rule="evenodd" clip-rule="evenodd" d="M85.9092 71.4485C87.4895 70.2009 89.4955 69.4546 91.6784 69.4546C96.7764 69.4546 100.909 73.5247 100.909 78.5455C100.909 83.5663 96.7764 87.6364 91.6784 87.6364C89.4955 87.6364 87.4895 86.8901 85.9092 85.6425C84.3289 86.8901 82.3229 87.6364 80.1399 87.6364C75.0419 87.6364 70.9092 83.5663 70.9092 78.5455C70.9092 73.5247 75.0419 69.4546 80.1399 69.4546C82.3229 69.4546 84.3289 70.2009 85.9092 71.4485V71.4485Z" stroke="#1BB4BF" stroke-width="4" stroke-linecap="round" stroke-linejoin="round"/>
<path id="Layer 4" d="M28.1819 58.5453H100.909" stroke="#1BB4BF" stroke-width="4" stroke-linecap="round" stroke-linejoin="round"/>
<path id="Layer 5" d="M28.1819 85.8183H39.091" stroke="#1BB4BF" stroke-width="4" stroke-linecap="round" stroke-linejoin="round"/>
<path id="Layer 6" d="M44.5454 85.8183H55.4545" stroke="#1BB4BF" stroke-width="4" stroke-linecap="round" stroke-linejoin="round"/>
<path id="Layer 7" d="M28.1819 76.7275H55.4546" stroke="#1BB4BF" stroke-width="4" stroke-linecap="round" stroke-linejoin="round"/>
<path id="Layer 8" d="M28.1819 43.9999H36.3637" stroke="#1BB4BF" stroke-width="4" stroke-linecap="round" stroke-linejoin="round"/>
</g>
</g>
</svg>
