<svg width="120" height="120" viewBox="0 0 120 120" fill="none" xmlns="http://www.w3.org/2000/svg">
<g id="card-3">
<g id="card-3_2">
<path id="Layer 1" d="M90 30V65V65V65H107.007C108.662 65 110 63.6586 110 62.0039V12.9961C110 11.3459 108.66 10 107.007 10L12.9928 10C11.338 10 10 11.3414 10 12.9961V62.0039C10 63.6541 11.3399 65 12.9928 65H30V30" stroke="#1BB4BF" stroke-width="4" stroke-linecap="round" stroke-linejoin="round"/>
<path id="Path" d="M90 45H92.5098C96.639 45 100 41.6421 100 37.5C100 33.3663 96.6465 30 92.5098 30H27.4903C23.361 30 20 33.3579 20 37.5C20 41.6337 23.3535 45 27.4903 45H30" stroke="#1BB4BF" stroke-width="4" stroke-linecap="round" stroke-linejoin="round"/>
<path id="Path_2" d="M30 30H90" stroke="#1BB4BF" stroke-width="4" stroke-linecap="round" stroke-linejoin="round"/>
<path id="Layer 3" d="M20 20H35" stroke="#1BB4BF" stroke-width="4" stroke-linecap="round" stroke-linejoin="round"/>
<path id="Layer 4" d="M95 20H100" stroke="#1BB4BF" stroke-width="4" stroke-linecap="round" stroke-linejoin="round"/>
<path id="Layer 5" d="M30 30L30 104.003C30 107.315 32.6946 110 36 110H84C87.3137 110 90 107.315 90 104.003V30" stroke="#1BB4BF" stroke-width="4" stroke-linecap="round" stroke-linejoin="round"/>
<path id="Layer 6" fill-rule="evenodd" clip-rule="evenodd" d="M54.2454 87C55.3433 88.3696 56 90.1081 56 92C56 96.4183 52.4183 100 48 100C43.5817 100 40 96.4183 40 92C40 90.1081 40.6567 88.3696 41.7546 87C40.6567 85.6304 40 83.8919 40 82C40 77.5817 43.5817 74 48 74C52.4183 74 56 77.5817 56 82C56 83.8919 55.3433 85.6304 54.2454 87V87V87Z" stroke="#1BB4BF" stroke-width="4" stroke-linecap="round" stroke-linejoin="round"/>
<path id="Layer 7" d="M67 30L67 100" stroke="#1BB4BF" stroke-width="4" stroke-linecap="round" stroke-linejoin="round"/>
<path id="Layer 8" d="M42 30V38" stroke="#1BB4BF" stroke-width="4" stroke-linecap="round" stroke-linejoin="round"/>
<path id="Layer 9" d="M42 47V60" stroke="#1BB4BF" stroke-width="4" stroke-linecap="round" stroke-linejoin="round"/>
<path id="Layer 10" d="M51 30L51 60" stroke="#1BB4BF" stroke-width="4" stroke-linecap="round" stroke-linejoin="round"/>
<path id="Layer 11" d="M78 30V39" stroke="#1BB4BF" stroke-width="4" stroke-linecap="round" stroke-linejoin="round"/>
</g>
</g>
</svg>
