<svg width="120" height="120" viewBox="0 0 120 120" fill="none" xmlns="http://www.w3.org/2000/svg">
<g id="cash-1">
<g id="cash-1_2">
<rect id="Layer 1" x="10" y="30" width="100" height="60" stroke="#1BB4BF" stroke-width="4" stroke-linecap="round" stroke-linejoin="round"/>
<path id="Layer 2" fill-rule="evenodd" clip-rule="evenodd" d="M30 80H90C90 74.4772 94.4772 70 100 70V50C94.4772 50 90 45.5228 90 40H30C30 45.5228 25.5228 50 20 50V70C25.5228 70 30 74.4772 30 80V80Z" stroke="#1BB4BF" stroke-width="4" stroke-linecap="round" stroke-linejoin="round"/>
<path id="Layer 3" fill-rule="evenodd" clip-rule="evenodd" d="M60 80C68.2843 80 75 71.0457 75 60C75 48.9543 68.2843 40 60 40C51.7157 40 45 48.9543 45 60C45 71.0457 51.7157 80 60 80Z" stroke="#1BB4BF" stroke-width="4" stroke-linecap="round" stroke-linejoin="round"/>
<path id="Layer 4" fill-rule="evenodd" clip-rule="evenodd" d="M35 63C36.6569 63 38 61.6569 38 60C38 58.3431 36.6569 57 35 57C33.3431 57 32 58.3431 32 60C32 61.6569 33.3431 63 35 63Z" stroke="#1BB4BF" stroke-width="4" stroke-linecap="round" stroke-linejoin="round"/>
<path id="Layer 5" fill-rule="evenodd" clip-rule="evenodd" d="M85 63C86.6569 63 88 61.6569 88 60C88 58.3431 86.6569 57 85 57C83.3431 57 82 58.3431 82 60C82 61.6569 83.3431 63 85 63Z" stroke="#1BB4BF" stroke-width="4" stroke-linecap="round" stroke-linejoin="round"/>
</g>
</g>
</svg>
