<svg width="120" height="120" viewBox="0 0 120 120" fill="none" xmlns="http://www.w3.org/2000/svg">
<g id="cell">
<g id="cell_2">
<path id="Layer 1" fill-rule="evenodd" clip-rule="evenodd" d="M60 97.6193C84.8751 92.2333 98.4615 80.5635 98.4615 59.524C98.4615 38.4846 90.6847 17.0231 60 21.4288C29.3153 25.8345 21.5385 38.4846 21.5385 59.524C21.5385 80.5635 35.1249 103.005 60 97.6193Z" stroke="#1BB4BF" stroke-width="4" stroke-linecap="round" stroke-linejoin="round"/>
<path id="Layer 2" fill-rule="evenodd" clip-rule="evenodd" d="M46.4916 66.5847C54.7227 66.5847 62.8847 58.6288 62.8847 50.4761C62.8847 42.3233 58.4308 34.1089 50.1997 34.1089C41.9685 34.1089 33.077 42.3233 33.077 50.4761C33.077 58.6288 38.2604 66.5847 46.4916 66.5847Z" stroke="#1BB4BF" stroke-width="4" stroke-linecap="round" stroke-linejoin="round"/>
<path id="Layer 3" fill-rule="evenodd" clip-rule="evenodd" d="M53.2215 87.2378C56.1421 87.2378 59.0383 84.4148 59.0383 81.5219C59.0383 78.6291 57.4579 75.7144 54.5372 75.7144C51.6165 75.7144 48.4615 78.6291 48.4615 81.5219C48.4615 84.4148 50.3008 87.2378 53.2215 87.2378Z" stroke="#1BB4BF" stroke-width="4" stroke-linecap="round" stroke-linejoin="round"/>
<path id="Layer 4" fill-rule="evenodd" clip-rule="evenodd" d="M76.5168 73.9046C78.2305 73.9046 79.9298 72.2482 79.9298 70.5507C79.9298 68.8533 79.0025 67.1431 77.2888 67.1431C75.5751 67.1431 73.7238 68.8533 73.7238 70.5507C73.7238 72.2482 74.803 73.9046 76.5168 73.9046Z" stroke="#1BB4BF" stroke-width="4" stroke-linecap="round" stroke-linejoin="round"/>
<path id="Path" d="M60 10V20.9864" stroke="#1BB4BF" stroke-width="3.5" stroke-linecap="round" stroke-linejoin="round"/>
<path id="Path_2" d="M84.1993 12.8301L79.0415 22.5304" stroke="#1BB4BF" stroke-width="3.5" stroke-linecap="round" stroke-linejoin="round"/>
<path id="Path_3" d="M103.967 31.3594L94.9672 37.6609" stroke="#1BB4BF" stroke-width="3.5" stroke-linecap="round" stroke-linejoin="round"/>
<path id="Path_4" d="M109.58 53.5469L98.6755 54.8858" stroke="#1BB4BF" stroke-width="3.5" stroke-linecap="round" stroke-linejoin="round"/>
<path id="Path_5" d="M106.691 77.1066L96.4346 73.1694" stroke="#1BB4BF" stroke-width="3.5" stroke-linecap="round" stroke-linejoin="round"/>
<path id="Path_6" d="M93.154 96.5624L85.8027 88.3979" stroke="#1BB4BF" stroke-width="3.5" stroke-linecap="round" stroke-linejoin="round"/>
<path id="Path_7" d="M71.9675 107.605L69.3097 96.9448" stroke="#1BB4BF" stroke-width="3.5" stroke-linecap="round" stroke-linejoin="round"/>
<path id="Path_8" d="M47.0709 109.51L49.7288 98.8496" stroke="#1BB4BF" stroke-width="3.5" stroke-linecap="round" stroke-linejoin="round"/>
<path id="Path_9" d="M24.9229 97.5145L32.2742 89.3501" stroke="#1BB4BF" stroke-width="3.5" stroke-linecap="round" stroke-linejoin="round"/>
<path id="Path_10" d="M13.3088 77.1066L23.5654 73.1694" stroke="#1BB4BF" stroke-width="3.5" stroke-linecap="round" stroke-linejoin="round"/>
<path id="Path_11" d="M10.42 53.5469L21.3245 54.8858" stroke="#1BB4BF" stroke-width="3.5" stroke-linecap="round" stroke-linejoin="round"/>
<path id="Path_12" d="M17.9547 30.4072L26.9541 36.7087" stroke="#1BB4BF" stroke-width="3.5" stroke-linecap="round" stroke-linejoin="round"/>
<path id="Path_13" d="M36.7623 15.687L41.92 25.3874" stroke="#1BB4BF" stroke-width="3.5" stroke-linecap="round" stroke-linejoin="round"/>
<path id="Layer 6" d="M80.7228 39.562C80.7228 39.562 76.4998 41.3933 77.9091 46.7111C79.3183 52.0289 74.9504 54.2284 74.9504 54.2284" stroke="#1BB4BF" stroke-width="4" stroke-linecap="round" stroke-linejoin="round"/>
</g>
</g>
</svg>
