<svg width="120" height="120" viewBox="0 0 120 120" fill="none" xmlns="http://www.w3.org/2000/svg">
<g id="chart-down">
<g id="chart-down_2">
<path id="Layer 1" fill-rule="evenodd" clip-rule="evenodd" d="M35 32.9901C35 31.3387 33.6559 30 32.0092 30H12.9908C11.339 30 10 31.3383 10 32.9901V110H35V32.9901V32.9901Z" stroke="#1BB4BF" stroke-width="4" stroke-linecap="round" stroke-linejoin="round"/>
<path id="Layer 2" fill-rule="evenodd" clip-rule="evenodd" d="M60 52.9959C60 51.3413 58.6559 50 57.0092 50H37.9908C36.339 50 35 51.3373 35 52.9959V110H60V52.9959V52.9959Z" stroke="#1BB4BF" stroke-width="4" stroke-linecap="round" stroke-linejoin="round"/>
<path id="Layer 3" fill-rule="evenodd" clip-rule="evenodd" d="M85 73.0065C85 71.3461 83.6559 70 82.0092 70H62.9908C61.339 70 60 71.3423 60 73.0065V110H85V73.0065V73.0065Z" stroke="#1BB4BF" stroke-width="4" stroke-linecap="round" stroke-linejoin="round"/>
<path id="Layer 4" fill-rule="evenodd" clip-rule="evenodd" d="M110 92.9942C110 91.3405 108.656 90 107.009 90H87.9908C86.339 90 85 91.3433 85 92.9942V110H110V92.9942V92.9942Z" stroke="#1BB4BF" stroke-width="4" stroke-linecap="round" stroke-linejoin="round"/>
<path id="Layer 5" fill-rule="evenodd" clip-rule="evenodd" d="M85.3247 26.8803L90.5201 21.6849C90.9105 21.2945 91.2288 21.4264 91.2294 21.9812L91.2494 40.2281C91.2501 40.7907 90.8008 41.2321 90.246 41.2315L71.9991 41.2115C71.4365 41.2108 71.3117 40.8933 71.7029 40.5021L76.8812 35.3238L60.8755 19.3182C59.7074 18.1501 59.7079 16.2525 60.8786 15.0818L65.0826 10.8778C66.2502 9.71018 68.15 9.70568 69.319 10.8747L85.3247 26.8803V26.8803V26.8803Z" stroke="#1BB4BF" stroke-width="4" stroke-linecap="round" stroke-linejoin="round"/>
</g>
</g>
</svg>
