<svg width="120" height="120" viewBox="0 0 120 120" fill="none" xmlns="http://www.w3.org/2000/svg">
<g id="cheese">
<g id="cheese_2">
<path id="Layer 1" d="M92.8427 10L94.2569 8.58579C93.8819 8.21071 93.3731 8 92.8427 8C92.3123 8 91.8036 8.21071 91.4285 8.58579L92.8427 10ZM10 92.8427L8.58579 91.4285C8.21071 91.8036 8 92.3123 8 92.8427C8 93.3731 8.21071 93.8819 8.58579 94.2569L10 92.8427ZM21.9102 80.9325L23.1293 79.347C22.333 78.7348 21.2062 78.8081 20.496 79.5183L21.9102 80.9325ZM35.9325 66.9102L34.5183 65.496C33.8081 66.2062 33.7348 67.333 34.347 68.1293L35.9325 66.9102ZM74.7794 28.0633L75.8544 26.3768C75.0635 25.8726 74.0284 25.9858 73.3652 26.6491L74.7794 28.0633ZM83.0633 19.7794L81.6491 18.3652C80.9859 19.0284 80.8726 20.0635 81.3768 20.8544L83.0633 19.7794ZM94.2569 94.2569C117.914 70.5995 117.914 32.2432 94.2569 8.58579L91.4285 11.4142C113.524 33.5095 113.524 69.3332 91.4285 91.4285L94.2569 94.2569ZM8.58579 94.2569C32.2432 117.914 70.5995 117.914 94.2569 94.2569L91.4285 91.4285C69.3332 113.524 33.5095 113.524 11.4142 91.4285L8.58579 94.2569ZM20.496 79.5183L8.58579 91.4285L11.4142 94.2569L23.3244 82.3467L20.496 79.5183ZM28 81C26.1645 81 24.4784 80.3843 23.1293 79.347L20.6912 82.518C22.7149 84.074 25.2521 85 28 85V81ZM36 73C36 77.4183 32.4183 81 28 81V85C34.6274 85 40 79.6274 40 73H36ZM34.347 68.1293C35.3843 69.4784 36 71.1645 36 73H40C40 70.2521 39.074 67.7149 37.518 65.6912L34.347 68.1293ZM73.3652 26.6491L34.5183 65.496L37.3467 68.3244L76.1936 29.4775L73.3652 26.6491ZM78 27C77.2069 27 76.4733 26.7712 75.8544 26.3768L73.7044 29.7498C74.9465 30.5415 76.4228 31 78 31V27ZM82 23C82 25.2091 80.2091 27 78 27V31C82.4183 31 86 27.4183 86 23H82ZM81.3768 20.8544C81.7712 21.4733 82 22.2069 82 23H86C86 21.4228 85.5415 19.9465 84.7498 18.7044L81.3768 20.8544ZM91.4285 8.58579L81.6491 18.3652L84.4775 21.1936L94.2569 11.4142L91.4285 8.58579ZM49 102C53.4183 102 57 98.4183 57 94H53C53 96.2091 51.2091 98 49 98V102ZM41 94C41 98.4183 44.5817 102 49 102V98C46.7909 98 45 96.2091 45 94H41ZM49 86C44.5817 86 41 89.5817 41 94H45C45 91.7909 46.7909 90 49 90V86ZM57 94C57 89.5817 53.4183 86 49 86V90C51.2091 90 53 91.7909 53 94H57ZM68 56C68 58.2091 66.2091 60 64 60V64C68.4183 64 72 60.4183 72 56H68ZM64 52C66.2091 52 68 53.7909 68 56H72C72 51.5817 68.4183 48 64 48V52ZM60 56C60 53.7909 61.7909 52 64 52V48C59.5817 48 56 51.5817 56 56H60ZM64 60C61.7909 60 60 58.2091 60 56H56C56 60.4183 59.5817 64 64 64V60ZM88 65C91.3137 65 94 62.3137 94 59H90C90 60.1046 89.1046 61 88 61V65ZM82 59C82 62.3137 84.6863 65 88 65V61C86.8954 61 86 60.1046 86 59H82ZM88 53C84.6863 53 82 55.6863 82 59H86C86 57.8954 86.8954 57 88 57V53ZM94 59C94 55.6863 91.3137 53 88 53V57C89.1046 57 90 57.8954 90 59H94ZM92 40C92 41.1046 91.1046 42 90 42V46C93.3137 46 96 43.3137 96 40H92ZM90 38C91.1046 38 92 38.8954 92 40H96C96 36.6863 93.3137 34 90 34V38ZM88 40C88 38.8954 88.8954 38 90 38V34C86.6863 34 84 36.6863 84 40H88ZM90 42C88.8954 42 88 41.1046 88 40H84C84 43.3137 86.6863 46 90 46V42ZM74 93C80.6274 93 86 87.6274 86 81H82C82 85.4183 78.4183 89 74 89V93ZM62 81C62 87.6274 67.3726 93 74 93V89C69.5817 89 66 85.4183 66 81H62ZM74 69C67.3726 69 62 74.3726 62 81H66C66 76.5817 69.5817 73 74 73V69ZM86 81C86 74.3726 80.6274 69 74 69V73C78.4183 73 82 76.5817 82 81H86Z" fill="#1BB4BF"/>
</g>
</g>
</svg>
