<svg width="120" height="120" viewBox="0 0 120 120" fill="none" xmlns="http://www.w3.org/2000/svg">
<g id="chemistry">
<g id="chemistry_2">
<path id="Layer 1" fill-rule="evenodd" clip-rule="evenodd" d="M35 10L60 24.1616V52.4849L35 66.6465L10 52.4849V24.1616L35 10Z" stroke="#1BB4BF" stroke-width="4" stroke-linecap="round" stroke-linejoin="round"/>
<path id="Layer 2" d="M18.168 29.5L34.9387 20V20L51.7094 29.5" stroke="#1BB4BF" stroke-width="4" stroke-linecap="round" stroke-linejoin="round"/>
<path id="Layer 3" d="M85 10L110 24.1616V52.4849L85 66.6465L60 52.4849" stroke="#1BB4BF" stroke-width="4" stroke-linecap="round" stroke-linejoin="round"/>
<path id="Layer 4" d="M85 95.4849L60 109.647L35 95.4849V67.1616" stroke="#1BB4BF" stroke-width="4" stroke-linecap="round" stroke-linejoin="round"/>
<path id="Layer 5" fill-rule="evenodd" clip-rule="evenodd" d="M91 98C94.866 98 98 94.866 98 91C98 87.134 94.866 84 91 84C87.134 84 84 87.134 84 91C84 94.866 87.134 98 91 98Z" stroke="#1BB4BF" stroke-width="4" stroke-linecap="round" stroke-linejoin="round"/>
</g>
</g>
</svg>
