<svg width="120" height="120" viewBox="0 0 120 120" fill="none" xmlns="http://www.w3.org/2000/svg">
<g id="clover">
<g id="clover_2">
<path id="Layer 1" fill-rule="evenodd" clip-rule="evenodd" d="M60 34.0049C60.5798 25.9155 61.9296 17.2578 64.623 14.5615L65.3935 13.7902C70.0745 9.1044 76.9418 8.3817 82.3447 13.7902C87.7475 19.1987 85.678 24.337 85.678 24.337C85.678 24.337 91.0267 22.4813 96.2137 27.6738C101.401 32.8662 100.895 39.9567 96.2137 44.6425C96.0339 44.8226 95.5246 45.3324 95.4432 45.4139C92.7498 48.1101 84.1011 49.4613 76.0201 50.0417C84.1011 50.6221 92.7498 51.9733 95.4432 54.6696L96.2137 55.4409C100.895 60.1267 101.617 67.0012 96.2137 72.4097C90.8109 77.8182 85.678 75.7465 85.678 75.7465C85.678 75.7465 87.5317 81.1007 82.3447 86.2932C77.1576 91.4857 70.0745 90.979 65.3935 86.2932C65.2136 86.1131 64.7044 85.6034 64.623 85.5219C61.9296 82.8257 60.5798 74.1679 60 66.0785C59.4202 74.1679 58.0704 82.8257 55.377 85.5219C55.2956 85.6034 54.7864 86.1131 54.6065 86.2932C49.9255 90.979 42.8424 91.4857 37.6553 86.2932C32.4683 81.1007 34.322 75.7465 34.322 75.7465C34.322 75.7465 29.1891 77.8182 23.7863 72.4097C18.3834 67.0012 19.1053 60.1267 23.7863 55.4409L24.5568 54.6696C27.2502 51.9733 35.8989 50.6221 43.9799 50.0417C35.8989 49.4613 27.2502 48.1101 24.5568 45.4139C24.4754 45.3324 23.9661 44.8226 23.7863 44.6425C19.1053 39.9567 18.5992 32.8662 23.7863 27.6738C28.9733 22.4813 34.322 24.337 34.322 24.337C34.322 24.337 32.2525 19.1987 37.6553 13.7902C43.0582 8.3817 49.9255 9.1044 54.6065 13.7902L55.377 14.5615C58.0704 17.2578 59.4202 25.9155 60 34.0049V34.0049Z" stroke="#1BB4BF" stroke-width="4" stroke-linecap="round" stroke-linejoin="round"/>
<path id="Layer 2" d="M60 60V99.9823C60 105.51 55.5241 109.991 50 109.991V109.991C44.4772 109.991 40 105.506 40 99.9823" stroke="#1BB4BF" stroke-width="4" stroke-linecap="round" stroke-linejoin="round"/>
</g>
</g>
</svg>
