<svg width="120" height="120" viewBox="0 0 120 120" fill="none" xmlns="http://www.w3.org/2000/svg">
<g id="coin">
<g id="coin_2">
<path id="Layer 1" fill-rule="evenodd" clip-rule="evenodd" d="M110.114 53.3555V68.1048C110.114 81.8492 87.7281 92.9912 60.1139 92.9912C32.4997 92.9912 10.1139 81.8492 10.1139 68.1048V53.3555C10.625 66.8834 32.8145 77.7727 60.1139 77.7727C87.4133 77.7727 109.603 66.8834 110.105 53.3555H110.114Z" stroke="#1BB4BF" stroke-width="4" stroke-linecap="round" stroke-linejoin="round"/>
<path id="Layer 2" fill-rule="evenodd" clip-rule="evenodd" d="M60.1139 77.7727C87.7281 77.7727 110.114 66.6307 110.114 52.8864C110.114 39.142 87.7281 28 60.1139 28C32.4997 28 10.1139 39.142 10.1139 52.8864C10.1139 66.6307 32.4997 77.7727 60.1139 77.7727Z" stroke="#1BB4BF" stroke-width="4" stroke-linecap="round" stroke-linejoin="round"/>
<path id="Layer 3" fill-rule="evenodd" clip-rule="evenodd" d="M60.1139 69C82.2053 69 100.114 61.8366 100.114 53C100.114 44.1634 82.2053 37 60.1139 37C38.0225 37 20.1139 44.1634 20.1139 53C20.1139 61.8366 38.0225 69 60.1139 69Z" stroke="#1BB4BF" stroke-width="4" stroke-linecap="round" stroke-linejoin="round"/>
<path id="Layer 4" d="M20.1139 68.5V82.5357" stroke="#1BB4BF" stroke-width="4" stroke-linecap="round" stroke-linejoin="round"/>
<path id="Layer 5" d="M30.1139 73.5V87.5357" stroke="#1BB4BF" stroke-width="4" stroke-linecap="round" stroke-linejoin="round"/>
<path id="Layer 6" d="M40.1139 76.5V90.5357" stroke="#1BB4BF" stroke-width="4" stroke-linecap="round" stroke-linejoin="round"/>
<path id="Layer 7" d="M50.1139 78.5V92.5357" stroke="#1BB4BF" stroke-width="4" stroke-linecap="round" stroke-linejoin="round"/>
<path id="Layer 8" d="M60.1139 78.5V92.5357" stroke="#1BB4BF" stroke-width="4" stroke-linecap="round" stroke-linejoin="round"/>
<path id="Layer 9" d="M70.1139 78.5V92.5357" stroke="#1BB4BF" stroke-width="4" stroke-linecap="round" stroke-linejoin="round"/>
<path id="Layer 10" d="M80.1139 76.5V90.5357" stroke="#1BB4BF" stroke-width="4" stroke-linecap="round" stroke-linejoin="round"/>
<path id="Layer 11" d="M90.1139 73.5V87.5357" stroke="#1BB4BF" stroke-width="4" stroke-linecap="round" stroke-linejoin="round"/>
<path id="Layer 12" d="M100.114 68.5V82.5357" stroke="#1BB4BF" stroke-width="4" stroke-linecap="round" stroke-linejoin="round"/>
</g>
</g>
</svg>
