<svg width="120" height="120" viewBox="0 0 120 120" fill="none" xmlns="http://www.w3.org/2000/svg">
<g id="comet-2">
<g id="comet-2_2">
<path id="Layer 1" d="M110 16C84.2213 16 62.4803 27.4336 48.9806 44.8471" stroke="#1BB4BF" stroke-width="4" stroke-linecap="round" stroke-linejoin="round"/>
<path id="Layer 2" d="M106.379 31.4258C84.6264 31.4258 64.1215 41.2056 52.5997 56.1659" stroke="#1BB4BF" stroke-width="4" stroke-linecap="round" stroke-linejoin="round"/>
<path id="Layer 3" d="M101.01 45.957C85.9478 45.957 70.8858 52.3959 60.8766 61.5884" stroke="#1BB4BF" stroke-width="4" stroke-linecap="round" stroke-linejoin="round"/>
<path id="Layer 4" fill-rule="evenodd" clip-rule="evenodd" d="M54.0521 61.2333L45.8948 35.2073C45.4007 33.6308 44.5986 33.6295 44.104 35.2073L35.9468 61.2333L11.4445 62.7704C9.79787 62.8737 9.54644 63.7383 10.8942 64.7008L30.4767 78.6858L23.0538 102.369C22.5597 103.945 23.2528 104.45 24.6028 103.492L42.555 90.7641C43.8978 89.8121 46.0938 89.807 47.4438 90.7641L65.396 103.492C66.7388 104.444 67.4395 103.946 66.945 102.369L59.5222 78.6858L79.1046 64.7008C80.4513 63.7391 80.206 62.874 78.5543 62.7704L54.0521 61.2333V61.2333Z" stroke="#1BB4BF" stroke-width="4" stroke-linecap="round" stroke-linejoin="round"/>
</g>
</g>
</svg>
