<svg width="120" height="120" viewBox="0 0 120 120" fill="none" xmlns="http://www.w3.org/2000/svg">
<g id="crown">
<g id="crown_2">
<path id="Layer 1" d="M25.441 95L17 42.6065L35.3568 56.4999V56.4999C37.9967 58.4979 41.4554 57.7862 43.089 54.898L60 25L77.1742 54.917C78.823 57.7892 82.2879 58.4859 84.9199 56.468L103 42.6065L94.9391 95" stroke="#1BB4BF" stroke-width="4" stroke-linecap="round" stroke-linejoin="round"/>
<path id="Layer 2" fill-rule="evenodd" clip-rule="evenodd" d="M25.4411 95L23.3467 82H96.9392L94.9391 95H25.4411Z" stroke="#1BB4BF" stroke-width="4" stroke-linecap="round" stroke-linejoin="round"/>
<path id="Layer 3" fill-rule="evenodd" clip-rule="evenodd" d="M60 25C62.7614 25 65 22.7614 65 20C65 17.2386 62.7614 15 60 15C57.2386 15 55 17.2386 55 20C55 22.7614 57.2386 25 60 25Z" stroke="#1BB4BF" stroke-width="4" stroke-linecap="round" stroke-linejoin="round"/>
<path id="Layer 4" fill-rule="evenodd" clip-rule="evenodd" d="M15 43C17.7614 43 20 40.7614 20 38C20 35.2386 17.7614 33 15 33C12.2386 33 10 35.2386 10 38C10 40.7614 12.2386 43 15 43Z" stroke="#1BB4BF" stroke-width="4" stroke-linecap="round" stroke-linejoin="round"/>
<path id="Layer 5" fill-rule="evenodd" clip-rule="evenodd" d="M105 43C107.761 43 110 40.7614 110 38C110 35.2386 107.761 33 105 33C102.239 33 100 35.2386 100 38C100 40.7614 102.239 43 105 43Z" stroke="#1BB4BF" stroke-width="4" stroke-linecap="round" stroke-linejoin="round"/>
<rect id="Layer 6" x="21" y="95" width="78" height="10" rx="3" stroke="#1BB4BF" stroke-width="4" stroke-linecap="round" stroke-linejoin="round"/>
<path id="Layer 7" fill-rule="evenodd" clip-rule="evenodd" d="M60 91C61.1046 91 62 90.1046 62 89C62 87.8954 61.1046 87 60 87C58.8954 87 58 87.8954 58 89C58 90.1046 58.8954 91 60 91Z" stroke="#1BB4BF" stroke-width="4" stroke-linecap="round" stroke-linejoin="round"/>
<path id="Layer 8" fill-rule="evenodd" clip-rule="evenodd" d="M80 91C81.1046 91 82 90.1046 82 89C82 87.8954 81.1046 87 80 87C78.8954 87 78 87.8954 78 89C78 90.1046 78.8954 91 80 91Z" stroke="#1BB4BF" stroke-width="4" stroke-linecap="round" stroke-linejoin="round"/>
<path id="Layer 9" fill-rule="evenodd" clip-rule="evenodd" d="M40 91C41.1046 91 42 90.1046 42 89C42 87.8954 41.1046 87 40 87C38.8954 87 38 87.8954 38 89C38 90.1046 38.8954 91 40 91Z" stroke="#1BB4BF" stroke-width="4" stroke-linecap="round" stroke-linejoin="round"/>
<path id="Layer 10" fill-rule="evenodd" clip-rule="evenodd" d="M66 61.8594L60 70.8594L54 61.8594L60 52.8594L66 61.8594Z" stroke="#1BB4BF" stroke-width="4" stroke-linecap="round" stroke-linejoin="round"/>
</g>
</g>
</svg>
