<svg width="120" height="120" viewBox="0 0 120 120" fill="none" xmlns="http://www.w3.org/2000/svg">
<g id="death-star">
<g id="death-star_2">
<path id="Layer 1" fill-rule="evenodd" clip-rule="evenodd" d="M60 110C87.6142 110 110 87.6142 110 60C110 32.3858 87.6142 10 60 10C32.3858 10 10 32.3858 10 60C10 87.6142 32.3858 110 60 110Z" stroke="#1BB4BF" stroke-width="4" stroke-linecap="round" stroke-linejoin="round"/>
<path id="Path" d="M10.1599 55.9717C20.9309 64.8787 39.2334 70.7399 60 70.7399C80.7665 70.7399 99.069 64.8787 109.84 55.9717" stroke="#1BB4BF" stroke-width="4" stroke-linecap="round" stroke-linejoin="round"/>
<path id="Layer 3" fill-rule="evenodd" clip-rule="evenodd" d="M88.0711 46.0711C91.1953 42.9469 90.5621 37.2484 86.6568 33.3432C82.7516 29.438 77.0531 28.8048 73.9289 31.929C70.8047 35.0532 71.4379 40.7517 75.3431 44.6569C79.2484 48.5622 84.9469 49.1953 88.0711 46.0711V46.0711Z" stroke="#1BB4BF" stroke-width="4" stroke-linecap="round" stroke-linejoin="round"/>
</g>
</g>
</svg>
