<svg width="120" height="120" viewBox="0 0 120 120" fill="none" xmlns="http://www.w3.org/2000/svg">
<g id="dollar">
<g id="dollar_2">
<path id="Layer 1" fill-rule="evenodd" clip-rule="evenodd" d="M60.1139 110C87.7281 110 110.114 87.6142 110.114 60C110.114 32.3858 87.7281 10 60.1139 10C32.4997 10 10.1139 32.3858 10.1139 60C10.1139 87.6142 32.4997 110 60.1139 110Z" stroke="#1BB4BF" stroke-width="4" stroke-linecap="round" stroke-linejoin="round"/>
<path id="Layer 2" d="M70.7467 60.0001H49.6629C43.8369 60.0001 39.1139 55.28 39.1139 49.4546V49.4546V49.4546C39.1139 43.6305 43.8401 38.9092 49.6629 38.9092H70.7467C76.5727 38.9092 81.2957 43.6293 81.2957 49.4546V49.4546" stroke="#1BB4BF" stroke-width="4" stroke-linecap="round" stroke-linejoin="round"/>
<path id="Layer 3" d="M49.6629 60H70.7467C76.5727 60 81.2957 64.7201 81.2957 70.5455V70.5455C81.2957 76.3695 76.5695 81.0909 70.7467 81.0909H49.6629C43.8369 81.0909 39.1139 76.3708 39.1139 70.5455V70.5455V70.5455" stroke="#1BB4BF" stroke-width="4" stroke-linecap="round" stroke-linejoin="round"/>
<path id="Layer 4" d="M60.4685 31V89" stroke="#1BB4BF" stroke-width="4" stroke-linecap="round" stroke-linejoin="round"/>
</g>
</g>
</svg>
