<svg width="120" height="120" viewBox="0 0 120 120" fill="none" xmlns="http://www.w3.org/2000/svg">
<g id="earth-1">
<g id="earth-1_2">
<path id="Layer 1" fill-rule="evenodd" clip-rule="evenodd" d="M60 110C87.6142 110 110 87.6142 110 60C110 32.3858 87.6142 10 60 10C32.3858 10 10 32.3858 10 60C10 87.6142 32.3858 110 60 110Z" stroke="#1BB4BF" stroke-width="4" stroke-linecap="round" stroke-linejoin="round"/>
<path id="Layer 2" d="M60 10V110" stroke="#1BB4BF" stroke-width="4" stroke-linecap="round" stroke-linejoin="round"/>
<path id="Layer 3" d="M110 60L10 60" stroke="#1BB4BF" stroke-width="4" stroke-linecap="round" stroke-linejoin="round"/>
<path id="Layer 4" d="M60 10C60 10 85.1494 29.3149 85.1494 60C85.1494 90.6851 60 110 60 110" stroke="#1BB4BF" stroke-width="4" stroke-linecap="round" stroke-linejoin="round"/>
<path id="Layer 5" d="M60.1494 10C60.1494 10 35 29.3149 35 60C35 90.6851 60.1494 110 60.1494 110" stroke="#1BB4BF" stroke-width="4" stroke-linecap="round" stroke-linejoin="round"/>
<path id="Layer 6" d="M25 94.4041C32.7633 87.5704 44.7623 80 59.8232 80C75.1146 80 87.2498 87.804 95 94.7176" stroke="#1BB4BF" stroke-width="4" stroke-linecap="round" stroke-linejoin="round"/>
<path id="Layer 7" d="M25 25.3134C32.7633 32.1472 44.7623 39.7176 59.8232 39.7176C75.1146 39.7176 87.2498 31.9135 95 25" stroke="#1BB4BF" stroke-width="4" stroke-linecap="round" stroke-linejoin="round"/>
</g>
</g>
</svg>
