<svg width="120" height="120" viewBox="0 0 120 120" fill="none" xmlns="http://www.w3.org/2000/svg">
<g id="film-2">
<g id="film-2_2">
<path id="Path" fill-rule="evenodd" clip-rule="evenodd" d="M60 110C87.6142 110 110 87.6142 110 60C110 32.3858 87.6142 10 60 10C32.3858 10 10 32.3858 10 60C10 87.6142 32.3858 110 60 110V110V110Z" stroke="#1BB4BF" stroke-width="3.5" stroke-linecap="round" stroke-linejoin="round"/>
<path id="Path_2" fill-rule="evenodd" clip-rule="evenodd" d="M76 87C82.0751 87 87 82.0751 87 76C87 69.9249 82.0751 65 76 65C69.9249 65 65 69.9249 65 76C65 82.0751 69.9249 87 76 87V87V87Z" stroke="#1BB4BF" stroke-width="3.5" stroke-linecap="round" stroke-linejoin="round"/>
<path id="Path_3" fill-rule="evenodd" clip-rule="evenodd" d="M76 55C82.0751 55 87 50.0751 87 44C87 37.9249 82.0751 33 76 33C69.9249 33 65 37.9249 65 44C65 50.0751 69.9249 55 76 55V55V55Z" stroke="#1BB4BF" stroke-width="3.5" stroke-linecap="round" stroke-linejoin="round"/>
<path id="Path_4" fill-rule="evenodd" clip-rule="evenodd" d="M60 64C62.2091 64 64 62.2091 64 60C64 57.7909 62.2091 56 60 56C57.7909 56 56 57.7909 56 60C56 62.2091 57.7909 64 60 64V64V64Z" stroke="#1BB4BF" stroke-width="3.5" stroke-linecap="round" stroke-linejoin="round"/>
<path id="Path_5" fill-rule="evenodd" clip-rule="evenodd" d="M44 87C50.0751 87 55 82.0751 55 76C55 69.9249 50.0751 65 44 65C37.9249 65 33 69.9249 33 76C33 82.0751 37.9249 87 44 87V87V87Z" stroke="#1BB4BF" stroke-width="3.5" stroke-linecap="round" stroke-linejoin="round"/>
<path id="Path_6" fill-rule="evenodd" clip-rule="evenodd" d="M44 55C50.0751 55 55 50.0751 55 44C55 37.9249 50.0751 33 44 33C37.9249 33 33 37.9249 33 44C33 50.0751 37.9249 55 44 55V55V55Z" stroke="#1BB4BF" stroke-width="3.5" stroke-linecap="round" stroke-linejoin="round"/>
<path id="Layer 2" d="M60 110C60 110 85.0138 109.547 98.0338 106.653C111.054 103.759 109.978 90 109.978 90" stroke="#1BB4BF" stroke-width="4" stroke-linecap="round" stroke-linejoin="round"/>
</g>
</g>
</svg>
