<svg width="120" height="120" viewBox="0 0 120 120" fill="none" xmlns="http://www.w3.org/2000/svg">
<g id="film-1">
<g id="film-1_2">
<path id="Layer 1" fill-rule="evenodd" clip-rule="evenodd" d="M108.276 20H91.0345H28.9655H11.7241C10.7724 20 10 20.7774 10 21.7391V40.8696V60V79.1304V98.2609C10 99.2226 10.7724 100 11.7241 100H28.9655H91.0345H108.276C109.228 100 110 99.2226 110 98.2609V79.1304V60V40.8696V21.7391C110 20.7774 109.228 20 108.276 20V20Z" stroke="#1BB4BF" stroke-width="4" stroke-linecap="round" stroke-linejoin="round"/>
<path id="Layer 2" fill-rule="evenodd" clip-rule="evenodd" d="M73.2168 61L52 76V46L73.2168 61V61Z" stroke="#1BB4BF" stroke-width="4" stroke-linecap="round" stroke-linejoin="round"/>
<path id="Layer 3" d="M110 40H90V20" stroke="#1BB4BF" stroke-width="4" stroke-linecap="round" stroke-linejoin="round"/>
<path id="Layer 4" d="M30 20V40H10" stroke="#1BB4BF" stroke-width="4" stroke-linecap="round" stroke-linejoin="round"/>
<path id="Layer 5" d="M110 60H90V40" stroke="#1BB4BF" stroke-width="4" stroke-linecap="round" stroke-linejoin="round"/>
<path id="Layer 6" d="M30 40V60H10" stroke="#1BB4BF" stroke-width="4" stroke-linecap="round" stroke-linejoin="round"/>
<path id="Layer 7" d="M110 80H90V60" stroke="#1BB4BF" stroke-width="4" stroke-linecap="round" stroke-linejoin="round"/>
<path id="Layer 8" d="M30 60V80H10" stroke="#1BB4BF" stroke-width="4" stroke-linecap="round" stroke-linejoin="round"/>
<path id="Layer 9" d="M90 100V80" stroke="#1BB4BF" stroke-width="4" stroke-linecap="round" stroke-linejoin="round"/>
<path id="Layer 10" d="M30 80V100" stroke="#1BB4BF" stroke-width="4" stroke-linecap="round" stroke-linejoin="round"/>
</g>
</g>
</svg>
