<svg width="120" height="120" viewBox="0 0 120 120" fill="none" xmlns="http://www.w3.org/2000/svg">
<g id="firework">
<g id="firework_2">
<path id="Layer 1" d="M37.0176 82.1095L11.2158 107.911" stroke="#1BB4BF" stroke-width="4" stroke-linecap="round" stroke-linejoin="round"/>
<rect id="Layer 2" x="77.7107" y="33" width="12" height="62" rx="6" transform="rotate(45 77.7107 33)" stroke="#1BB4BF" stroke-width="4" stroke-linecap="round" stroke-linejoin="round"/>
<path id="Layer 3" fill-rule="evenodd" clip-rule="evenodd" d="M58.4706 69.2106L81.9525 45.7287C84.2981 43.3831 84.2965 39.5858 81.9533 37.2426C79.615 34.9043 75.8108 34.8999 73.4672 37.2435L49.9854 60.7253C50.9734 62.4424 52.2013 64.0592 53.6691 65.5269C55.1368 66.9947 56.7536 68.2226 58.4706 69.2106V69.2106Z" stroke="#1BB4BF" stroke-width="4" stroke-linecap="round" stroke-linejoin="round"/>
<path id="Combined Shape" d="M57.4336 52.275C52.4665 48.8253 46.6955 46.45 40.4554 45.4841C39.8488 45.3908 39.8488 44.6092 40.4554 44.5159C46.6957 43.5499 52.4669 41.1746 57.4341 37.7247C56.3612 31.7729 53.96 26.0124 50.2305 20.9168C49.8676 20.4219 50.4202 19.8693 50.9151 20.2322C56.0105 23.9616 61.7708 26.3628 67.7224 27.4357C71.1714 22.469 73.5462 16.6986 74.512 10.4593C74.6112 9.84689 75.3869 9.84689 75.4802 10.4593C76.446 16.6987 78.8209 22.4692 82.27 27.4359C88.222 26.3631 93.9827 23.9618 99.0784 20.2322C99.5816 19.8693 100.13 20.4178 99.763 20.9168C96.0333 26.0126 93.6321 31.7734 92.5592 37.7255C97.5262 41.1749 103.297 43.55 109.537 44.5159C110.149 44.615 110.149 45.3908 109.537 45.4841C103.297 46.45 97.5266 48.8249 92.5597 52.2742C93.6328 58.2253 96.0339 63.9851 99.763 69.0801C100.126 69.5833 99.5774 70.1318 99.0784 69.7647C93.9832 66.0355 88.2232 63.6344 82.2719 62.5613C78.8218 67.5287 76.4462 73.3001 75.4802 79.5407C75.3811 80.1531 74.6053 80.1531 74.512 79.5407C73.546 73.3002 71.1705 67.5288 67.7205 62.5615" stroke="#1BB4BF" stroke-width="3.5" stroke-linecap="round" stroke-linejoin="round"/>
<path id="Layer 5" fill-rule="evenodd" clip-rule="evenodd" d="M10.156 22.166C16.1632 23.0959 20.9026 27.8353 21.8325 33.8425C21.8645 34.0525 22.1305 34.0525 22.1645 33.8425C23.0944 27.8353 27.8338 23.0959 33.841 22.166C34.051 22.134 34.051 21.868 33.841 21.834C27.8338 20.9041 23.0944 16.1647 22.1645 10.1575C22.1325 9.94751 21.8665 9.94751 21.8325 10.1575C20.9026 16.1647 16.1632 20.9041 10.156 21.834C9.94801 21.866 9.94801 22.134 10.156 22.166V22.166Z" stroke="#1BB4BF" stroke-width="4" stroke-linecap="round" stroke-linejoin="round"/>
<path id="Layer 6" fill-rule="evenodd" clip-rule="evenodd" d="M77.143 98.1528C82.65 99.0053 86.9947 103.35 87.8472 108.857C87.8765 109.049 88.1203 109.049 88.1515 108.857C89.0039 103.35 93.3486 99.0053 98.8556 98.1528C99.0481 98.1235 99.0481 97.8797 98.8556 97.8485C93.3486 96.9961 89.0039 92.6514 88.1515 87.1444C88.1221 86.9519 87.8783 86.9519 87.8472 87.1444C86.9947 92.6514 82.65 96.9961 77.143 97.8485C76.9523 97.8779 76.9523 98.1235 77.143 98.1528V98.1528Z" stroke="#1BB4BF" stroke-width="4" stroke-linecap="round" stroke-linejoin="round"/>
<path id="Layer 7" fill-rule="evenodd" clip-rule="evenodd" d="M10.1105 64.6181C14.3659 65.2768 17.7232 68.6341 18.3819 72.8895C18.4046 73.0382 18.593 73.0382 18.617 72.8895C19.2758 68.6341 22.633 65.2768 26.8884 64.6181C27.0372 64.5954 27.0372 64.407 26.8884 64.383C22.633 63.7242 19.2758 60.367 18.617 56.1116C18.5944 55.9628 18.406 55.9628 18.3819 56.1116C17.7232 60.367 14.3659 63.7242 10.1105 64.383C9.96317 64.4056 9.96317 64.5954 10.1105 64.6181V64.6181Z" stroke="#1BB4BF" stroke-width="4" stroke-linecap="round" stroke-linejoin="round"/>
</g>
</g>
</svg>
