<svg width="120" height="120" viewBox="0 0 120 120" fill="none" xmlns="http://www.w3.org/2000/svg">
<g id="fish">
<g id="fish_2">
<path id="Layer 1" fill-rule="evenodd" clip-rule="evenodd" d="M60.1428 91.4489C48.4287 87.0742 37.5365 76.1576 31.1142 68.4049L12.6623 77.9372C11.192 78.6967 10.351 78.0259 10.7894 76.4191L15.3496 59.703L10.7894 42.9447C10.3534 41.3427 11.176 40.7029 12.6098 41.5063L31.0037 51.8127C37.4936 44.0386 48.6441 32.9653 60.5985 28.7324L60.122 17.0012C60.0546 15.3426 61.2934 14.3808 62.8375 14.9504C62.8375 14.9504 68.395 15.9614 73.6392 22.9727C74.838 24.5754 75.9097 26.3445 76.8499 28.1201C95.1865 33.1888 110 53.4573 110 60C110 66.8406 95.1948 88.8308 75.9017 92.7663C75.087 94.2279 74.183 95.6661 73.1923 96.9907C67.9481 104.002 62.3907 105.013 62.3907 105.013C60.8465 105.583 59.6077 104.621 59.6751 102.962L60.1428 91.4489V91.4489Z" stroke="#1BB4BF" stroke-width="4" stroke-linecap="round" stroke-linejoin="round"/>
<path id="Layer 2" fill-rule="evenodd" clip-rule="evenodd" d="M90 53C91.6569 53 93 51.6569 93 50C93 48.3431 91.6569 47 90 47C88.3431 47 87 48.3431 87 50C87 51.6569 88.3431 53 90 53Z" stroke="#1BB4BF" stroke-width="4" stroke-linecap="round" stroke-linejoin="round"/>
<path id="Layer 3" d="M58.2564 39L59.3302 40.6873C60.1931 40.1382 60.5026 39.0266 60.0478 38.1106C59.593 37.1945 58.5203 36.7692 57.5613 37.1247L58.2564 39ZM47.2399 46.0108L45.8722 44.5515C45.1188 45.2576 45.0268 46.421 45.6597 47.2368C46.2926 48.0526 47.4425 48.2525 48.3136 47.6981L47.2399 46.0108ZM43.2681 50.4497L44.9686 51.5025C45.5334 50.5902 45.2777 49.3946 44.389 48.7933C43.5003 48.1919 42.2954 48.399 41.6585 49.2626L43.2681 50.4497ZM41 54.113L39.213 53.2149C38.7325 54.171 39.0897 55.336 40.0236 55.8584C40.9575 56.3808 42.1371 56.0756 42.7005 55.1658L41 54.113ZM57.5613 37.1247C53.5423 38.6144 49.3741 41.2696 45.8722 44.5515L48.6075 47.4701C51.7714 44.505 55.4928 42.1574 58.9516 40.8753L57.5613 37.1247ZM48.3136 47.6981L59.3302 40.6873L57.1827 37.3127L46.1661 44.3235L48.3136 47.6981ZM41.6585 49.2626C40.7268 50.526 39.8993 51.8492 39.213 53.2149L42.787 55.0111C43.3606 53.8697 44.065 52.7388 44.8777 51.6367L41.6585 49.2626ZM42.7005 55.1658L44.9686 51.5025L41.5677 49.3968L39.2995 53.0601L42.7005 55.1658Z" fill="#1BB4BF"/>
</g>
</g>
</svg>
