<svg width="120" height="120" viewBox="0 0 120 120" fill="none" xmlns="http://www.w3.org/2000/svg">
<g id="flag-2">
<g id="flag-2_2">
<path id="Layer 1" d="M25.5031 22.7412V109.741" stroke="#1BB4BF" stroke-width="4" stroke-linecap="round" stroke-linejoin="round"/>
<path id="Layer 2" d="M25.5031 29.6857C25.5031 29.6857 45.1466 39.6857 65.5031 29.6857C85.8595 19.6857 105.503 29.6857 105.503 29.6857V79.6857C105.503 79.6857 86.1876 69.6857 66.0197 79.6857C45.8517 89.6857 25.5031 79.6857 25.5031 79.6857" stroke="#1BB4BF" stroke-width="4" stroke-linecap="round" stroke-linejoin="round"/>
<path id="Layer 3" fill-rule="evenodd" clip-rule="evenodd" d="M25.5031 22.2412C29.369 22.2412 32.5031 19.1072 32.5031 15.2412C32.5031 11.3752 29.369 8.24121 25.5031 8.24121C21.6371 8.24121 18.5031 11.3752 18.5031 15.2412C18.5031 19.1072 21.6371 22.2412 25.5031 22.2412Z" stroke="#1BB4BF" stroke-width="4" stroke-linecap="round" stroke-linejoin="round"/>
<path id="Layer 4" d="M15.5031 110.241H35.5031" stroke="#1BB4BF" stroke-width="4" stroke-linecap="round" stroke-linejoin="round"/>
</g>
</g>
</svg>
