<svg width="120" height="120" viewBox="0 0 120 120" fill="none" xmlns="http://www.w3.org/2000/svg">
<g id="flash">
<g id="flash_2">
<path id="Path" d="M60.2437 20.1229V10" stroke="#1BB4BF" stroke-width="4" stroke-linecap="round" stroke-linejoin="round"/>
<path id="Path_2" d="M78.8823 24.7481L83.6347 15.8101" stroke="#1BB4BF" stroke-width="4" stroke-linecap="round" stroke-linejoin="round"/>
<path id="Path_3" d="M93.313 37.6407L101.605 31.8345" stroke="#1BB4BF" stroke-width="4" stroke-linecap="round" stroke-linejoin="round"/>
<path id="Path_4" d="M100.11 55.7405L110.158 54.5068" stroke="#1BB4BF" stroke-width="4" stroke-linecap="round" stroke-linejoin="round"/>
<path id="Path_5" d="M97.8 74.9541L107.251 78.5818" stroke="#1BB4BF" stroke-width="4" stroke-linecap="round" stroke-linejoin="round"/>
<path id="Path_6" d="M86.8433 90.9502L93.6168 98.473" stroke="#1BB4BF" stroke-width="4" stroke-linecap="round" stroke-linejoin="round"/>
<path id="Path_7" d="M69.8411 99.9331L72.29 109.755" stroke="#1BB4BF" stroke-width="4" stroke-linecap="round" stroke-linejoin="round"/>
<path id="Path_8" d="M50.6462 99.9331L48.1973 109.755" stroke="#1BB4BF" stroke-width="4" stroke-linecap="round" stroke-linejoin="round"/>
<path id="Path_9" d="M33.6439 90.9502L26.8704 98.473" stroke="#1BB4BF" stroke-width="4" stroke-linecap="round" stroke-linejoin="round"/>
<path id="Path_10" d="M22.6871 74.9541L13.2366 78.5818" stroke="#1BB4BF" stroke-width="4" stroke-linecap="round" stroke-linejoin="round"/>
<path id="Path_11" d="M20.3768 55.7405L10.3293 54.5068" stroke="#1BB4BF" stroke-width="4" stroke-linecap="round" stroke-linejoin="round"/>
<path id="Path_12" d="M27.1743 37.6407L18.8821 31.8345" stroke="#1BB4BF" stroke-width="4" stroke-linecap="round" stroke-linejoin="round"/>
<path id="Path_13" d="M41.605 24.7481L36.8525 15.8101" stroke="#1BB4BF" stroke-width="4" stroke-linecap="round" stroke-linejoin="round"/>
<path id="Layer 2" fill-rule="evenodd" clip-rule="evenodd" d="M86 61.5C72.469 61.5 61.5 50.531 61.5 37C61.5 50.531 50.531 61.5 37 61.5C50.531 61.5 61.5 72.469 61.5 86C61.5 72.469 72.469 61.5 86 61.5V61.5Z" stroke="#1BB4BF" stroke-width="4" stroke-linecap="round" stroke-linejoin="round"/>
</g>
</g>
</svg>
