<svg width="120" height="120" viewBox="0 0 120 120" fill="none" xmlns="http://www.w3.org/2000/svg">
<g id="folder-open">
<g id="folder-open_2">
<path id="Layer 1" d="M10.1526 101.16L19.4006 60.5316C20.1557 56.6461 22.9155 55 25.6852 55H100V55V55V27.9901C100 26.3383 98.6593 25 97.0055 25H40L36.2274 17.6667C35.4658 16.1864 33.5132 15 31.8573 15H12.9982C11.3363 15 10 16.3433 10 18.0003V25V102.01" stroke="#1BB4BF" stroke-width="4" stroke-linecap="round" stroke-linejoin="round"/>
<path id="Layer 2" fill-rule="evenodd" clip-rule="evenodd" d="M106.122 55C108.9 55 110.566 57.1988 109.823 61.1691L100.652 101.16C100.169 103.281 97.5164 105 94.7468 105H14.2336C11.4549 105 9.5939 103.279 10.076 101.16L19.324 60.5316C20.0791 56.6461 22.8389 55 25.6086 55H106.122Z" stroke="#1BB4BF" stroke-width="4" stroke-linecap="round" stroke-linejoin="round"/>
</g>
</g>
</svg>
