<svg width="120" height="120" viewBox="0 0 120 120" fill="none" xmlns="http://www.w3.org/2000/svg">
<g id="giftcard">
<g id="giftcard_2">
<path id="Layer 1" d="M17.4073 62.8616L17.4073 91.5216C17.4073 94.5883 19.8918 97.0741 22.9565 97.0741H104.451C107.511 97.0741 110 94.5882 110 91.5216V28.5524C110 25.4858 107.516 23 104.451 23H22.9565C19.8959 23 17.4073 25.4859 17.4073 28.5524V37.7681" stroke="#1BB4BF" stroke-width="4" stroke-linecap="round" stroke-linejoin="round"/>
<path id="Layer 2" d="M72.963 85.963H85" stroke="#1BB4BF" stroke-width="4" stroke-linecap="round" stroke-linejoin="round"/>
<path id="Layer 3" d="M72.963 76.7038H100.741" stroke="#1BB4BF" stroke-width="4" stroke-linecap="round" stroke-linejoin="round"/>
<path id="Layer 4" d="M62.3125 50.778H109.542" stroke="#1BB4BF" stroke-width="4" stroke-linecap="round" stroke-linejoin="round"/>
<path id="Layer 5" d="M35.9259 42.1221V23" stroke="#1BB4BF" stroke-width="4" stroke-linecap="round" stroke-linejoin="round"/>
<path id="Layer 6" d="M35.9259 96.6375V60.0371" stroke="#1BB4BF" stroke-width="4" stroke-linecap="round" stroke-linejoin="round"/>
<path id="Layer 7" d="M29.7501 44.673C22.1446 38.2192 10 30.9562 10 50.3889C10 69.4391 21.6712 62.8341 29.2958 56.4866" stroke="#1BB4BF" stroke-width="4" stroke-linecap="round" stroke-linejoin="round"/>
<path id="Layer 8" d="M42.4073 44.5518C50.0211 38.1294 62.0142 31.0777 62.0142 50.3889C62.0142 69.3789 50.4167 62.8756 42.7908 56.5468" stroke="#1BB4BF" stroke-width="4" stroke-linecap="round" stroke-linejoin="round"/>
<path id="Layer 9" fill-rule="evenodd" clip-rule="evenodd" d="M35.982 59.4097C40.7859 59.4097 44.6801 55.5317 44.6801 50.7478C44.6801 45.964 40.7859 42.0859 35.982 42.0859C31.1782 42.0859 27.2839 45.964 27.2839 50.7478C27.2839 55.5317 31.1782 59.4097 35.982 59.4097Z" stroke="#1BB4BF" stroke-width="4" stroke-linecap="round" stroke-linejoin="round"/>
</g>
</g>
</svg>
