<svg width="120" height="120" viewBox="0 0 120 120" fill="none" xmlns="http://www.w3.org/2000/svg">
<g id="gopro">
<g id="gopro_2">
<path id="Layer 1" fill-rule="evenodd" clip-rule="evenodd" d="M62.3493 16.25H26.314C22.9918 16.25 20.3077 18.9354 20.3077 22.2481V83.1686C20.3077 86.4851 22.9968 89.1667 26.314 89.1667H97.8179C101.14 89.1667 103.824 86.4812 103.824 83.1686V57.634C103.248 57.8176 102.633 57.9167 101.995 57.9167H68.071C64.7545 57.9167 62.0659 55.2207 62.0659 51.9248V18.0752C62.0659 17.4388 62.1652 16.8255 62.3493 16.25V16.25Z" stroke="#1BB4BF" stroke-width="4" stroke-linecap="round" stroke-linejoin="round"/>
<rect id="Layer 2" x="28.6594" y="24.5835" width="25.0549" height="25" rx="1" stroke="#1BB4BF" stroke-width="4" stroke-linecap="round" stroke-linejoin="round"/>
<path id="Layer 3" fill-rule="evenodd" clip-rule="evenodd" d="M62.0659 18.0835C62.0659 14.7698 64.7522 12.0835 68.0659 12.0835H102C105.314 12.0835 108 14.7698 108 18.0835V51.9168C108 55.2305 105.314 57.9168 102 57.9168H68.0659C64.7522 57.9168 62.0659 55.2305 62.0659 51.9168V18.0835Z" stroke="#1BB4BF" stroke-width="4" stroke-linecap="round" stroke-linejoin="round"/>
<path id="Layer 4" fill-rule="evenodd" clip-rule="evenodd" d="M85.3297 50.3335C93.6139 50.3335 100.33 43.6178 100.33 35.3335C100.33 27.0492 93.6139 20.3335 85.3297 20.3335C77.0454 20.3335 70.3297 27.0492 70.3297 35.3335C70.3297 43.6178 77.0454 50.3335 85.3297 50.3335Z" stroke="#1BB4BF" stroke-width="4" stroke-linecap="round" stroke-linejoin="round"/>
<path id="Layer 5" fill-rule="evenodd" clip-rule="evenodd" d="M28.6594 13C28.6594 11.3431 30.0025 10 31.6594 10H36.0989C37.7558 10 39.0989 11.3431 39.0989 13V16.25H28.6594V13Z" fill="#1BB4BF" stroke="#1BB4BF" stroke-width="4" stroke-linecap="round" stroke-linejoin="round"/>
<path id="Layer 6" fill-rule="evenodd" clip-rule="evenodd" d="M41.2637 75.5C44.7231 75.5 47.5275 72.7018 47.5275 69.25C47.5275 65.7982 44.7231 63 41.2637 63C37.8044 63 35 65.7982 35 69.25C35 72.7018 37.8044 75.5 41.2637 75.5Z" stroke="#1BB4BF" stroke-width="4" stroke-linecap="round" stroke-linejoin="round"/>
<rect id="Layer 7" x="51.6263" y="89.167" width="20.8791" height="10.4167" stroke="#1BB4BF" stroke-width="4" stroke-linecap="round" stroke-linejoin="round"/>
<rect id="Layer 8" x="46.4066" y="99.583" width="31.3187" height="10.4167" stroke="#1BB4BF" stroke-width="4" stroke-linecap="round" stroke-linejoin="round"/>
<path id="Layer 9" d="M51.1044 99.5837H21.3516" stroke="#1BB4BF" stroke-width="4" stroke-linecap="round" stroke-linejoin="round"/>
<rect id="Layer 10" x="13" y="93.333" width="7.30769" height="12.5" rx="3.65385" fill="#1BB4BF" stroke="#1BB4BF" stroke-width="4" stroke-linecap="round" stroke-linejoin="round"/>
<path id="Layer 11" d="M77 74H93" stroke="#1BB4BF" stroke-width="4" stroke-linecap="round" stroke-linejoin="round"/>
</g>
</g>
</svg>
