<svg width="120" height="120" viewBox="0 0 120 120" fill="none" xmlns="http://www.w3.org/2000/svg">
<g id="grapes">
<g id="grapes_2">
<path id="Layer 1" fill-rule="evenodd" clip-rule="evenodd" d="M84.25 57.5C90.4632 57.5 95.5 52.4632 95.5 46.25C95.5 40.0368 90.4632 35 84.25 35C78.0368 35 73 40.0368 73 46.25C73 52.4632 78.0368 57.5 84.25 57.5Z" stroke="#1BB4BF" stroke-width="4" stroke-linecap="round" stroke-linejoin="round"/>
<path id="Layer 2" fill-rule="evenodd" clip-rule="evenodd" d="M89.5 95C95.8513 95 101 89.8513 101 83.5C101 77.1487 95.8513 72 89.5 72C83.1487 72 78 77.1487 78 83.5C78 89.8513 83.1487 95 89.5 95Z" stroke="#1BB4BF" stroke-width="4" stroke-linecap="round" stroke-linejoin="round"/>
<path id="Layer 3" fill-rule="evenodd" clip-rule="evenodd" d="M99.25 74.5C105.463 74.5 110.5 69.4632 110.5 63.25C110.5 57.0368 105.463 52 99.25 52C93.0368 52 88 57.0368 88 63.25C88 69.4632 93.0368 74.5 99.25 74.5Z" stroke="#1BB4BF" stroke-width="4" stroke-linecap="round" stroke-linejoin="round"/>
<path id="Layer 4" fill-rule="evenodd" clip-rule="evenodd" d="M66.25 42.5C72.4632 42.5 77.5 37.4632 77.5 31.25C77.5 25.0368 72.4632 20 66.25 20C60.0368 20 55 25.0368 55 31.25C55 37.4632 60.0368 42.5 66.25 42.5Z" stroke="#1BB4BF" stroke-width="4" stroke-linecap="round" stroke-linejoin="round"/>
<path id="Layer 5" fill-rule="evenodd" clip-rule="evenodd" d="M55.25 62.5C61.4632 62.5 66.5 57.4632 66.5 51.25C66.5 45.0368 61.4632 40 55.25 40C49.0368 40 44 45.0368 44 51.25C44 57.4632 49.0368 62.5 55.25 62.5Z" stroke="#1BB4BF" stroke-width="4" stroke-linecap="round" stroke-linejoin="round"/>
<path id="Layer 6" fill-rule="evenodd" clip-rule="evenodd" d="M46.25 83.5C52.4632 83.5 57.5 78.4632 57.5 72.25C57.5 66.0368 52.4632 61 46.25 61C40.0368 61 35 66.0368 35 72.25C35 78.4632 40.0368 83.5 46.25 83.5Z" stroke="#1BB4BF" stroke-width="4" stroke-linecap="round" stroke-linejoin="round"/>
<path id="Layer 7" fill-rule="evenodd" clip-rule="evenodd" d="M43.75 42.5C49.9632 42.5 55 37.4632 55 31.25C55 25.0368 49.9632 20 43.75 20C37.5368 20 32.5 25.0368 32.5 31.25C32.5 37.4632 37.5368 42.5 43.75 42.5Z" stroke="#1BB4BF" stroke-width="4" stroke-linecap="round" stroke-linejoin="round"/>
<path id="Layer 8" fill-rule="evenodd" clip-rule="evenodd" d="M73.25 77.5C79.4632 77.5 84.5 72.4632 84.5 66.25C84.5 60.0368 79.4632 55 73.25 55C67.0368 55 62 60.0368 62 66.25C62 72.4632 67.0368 77.5 73.25 77.5Z" stroke="#1BB4BF" stroke-width="4" stroke-linecap="round" stroke-linejoin="round"/>
<path id="Layer 9" fill-rule="evenodd" clip-rule="evenodd" d="M66.25 98.75C72.4632 98.75 77.5 93.7132 77.5 87.5C77.5 81.2868 72.4632 76.25 66.25 76.25C60.0368 76.25 55 81.2868 55 87.5C55 93.7132 60.0368 98.75 66.25 98.75Z" stroke="#1BB4BF" stroke-width="4" stroke-linecap="round" stroke-linejoin="round"/>
<path id="Layer 10" fill-rule="evenodd" clip-rule="evenodd" d="M32.5 65C38.7132 65 43.75 59.9632 43.75 53.75C43.75 47.5368 38.7132 42.5 32.5 42.5C26.2868 42.5 21.25 47.5368 21.25 53.75C21.25 59.9632 26.2868 65 32.5 65Z" stroke="#1BB4BF" stroke-width="4" stroke-linecap="round" stroke-linejoin="round"/>
<path id="Layer 11" fill-rule="evenodd" clip-rule="evenodd" d="M21.25 87.5C27.4632 87.5 32.5 82.4632 32.5 76.25C32.5 70.0368 27.4632 65 21.25 65C15.0368 65 10 70.0368 10 76.25C10 82.4632 15.0368 87.5 21.25 87.5Z" stroke="#1BB4BF" stroke-width="4" stroke-linecap="round" stroke-linejoin="round"/>
<path id="Layer 12" fill-rule="evenodd" clip-rule="evenodd" d="M44.875 107.75C51.0882 107.75 56.125 102.713 56.125 96.5C56.125 90.2868 51.0882 85.25 44.875 85.25C38.6618 85.25 33.625 90.2868 33.625 96.5C33.625 102.713 38.6618 107.75 44.875 107.75Z" stroke="#1BB4BF" stroke-width="4" stroke-linecap="round" stroke-linejoin="round"/>
<path id="Layer 13" fill-rule="evenodd" clip-rule="evenodd" d="M21.25 110C27.4632 110 32.5 104.963 32.5 98.75C32.5 92.5368 27.4632 87.5 21.25 87.5C15.0368 87.5 10 92.5368 10 98.75C10 104.963 15.0368 110 21.25 110Z" stroke="#1BB4BF" stroke-width="4" stroke-linecap="round" stroke-linejoin="round"/>
<path id="Layer 14" d="M109.851 10C109.851 10 108.874 18.1826 102.118 26.9805C98.8903 31.1839 93.8975 34.3427 89.5629 36.4956" stroke="#1BB4BF" stroke-width="4" stroke-linecap="round" stroke-linejoin="round"/>
<path id="Layer 15" fill-rule="evenodd" clip-rule="evenodd" d="M96.7605 19.1469C94.7512 13.3112 88.0906 10.313 88.0906 10.313C88.0906 10.313 84.6879 16.7763 86.6973 22.6119C88.7067 28.4476 95.3672 31.4458 95.3672 31.4458C95.3672 31.4458 98.7699 24.9825 96.7605 19.1469V19.1469Z" stroke="#1BB4BF" stroke-width="4" stroke-linecap="round" stroke-linejoin="round"/>
</g>
</g>
</svg>
