<svg width="120" height="120" viewBox="0 0 120 120" fill="none" xmlns="http://www.w3.org/2000/svg">
<g id="grave">
<g id="grave_2">
<path id="Layer 1" fill-rule="evenodd" clip-rule="evenodd" d="M90 94.4058V59.5047C90 43.1002 76.5685 29.8018 60 29.8018C43.4315 29.8018 30 43.1002 30 59.5047V109.01H70H50C50 103.542 54.4772 99.1087 60 99.1087C60.2833 99.1087 60.5639 99.1204 60.8412 99.1432C62.8905 93.3569 68.4559 89.2077 75 89.2077C79.4728 89.2077 83.4884 91.146 86.2366 94.2206C86.6521 94.1793 87.0736 94.1582 87.5 94.1582C88.3562 94.1582 89.1922 94.2434 90 94.4058V94.4058Z" stroke="#1BB4BF" stroke-width="4" stroke-linecap="round" stroke-linejoin="round"/>
<path id="Layer 2" d="M60 28.8119V10" stroke="#1BB4BF" stroke-width="4" stroke-linecap="round" stroke-linejoin="round"/>
<path id="Layer 3" d="M68.0312 17.9208H52" stroke="#1BB4BF" stroke-width="4" stroke-linecap="round" stroke-linejoin="round"/>
<path id="Layer 4" d="M42 59.5047H78" stroke="#1BB4BF" stroke-width="4" stroke-linecap="round" stroke-linejoin="round"/>
<path id="Layer 5" d="M12 109.01H108" stroke="#1BB4BF" stroke-width="4" stroke-linecap="round" stroke-linejoin="round"/>
<path id="Layer 6" d="M52 69.4061H68" stroke="#1BB4BF" stroke-width="4" stroke-linecap="round" stroke-linejoin="round"/>
<path id="Layer 7" fill-rule="evenodd" clip-rule="evenodd" d="M50 109.01C50 103.542 54.4772 99.109 60 99.109C60.2833 99.109 60.5639 99.1207 60.8412 99.1435C62.8905 93.3572 68.4559 89.208 75 89.208C79.4728 89.208 83.4884 91.1464 86.2366 94.2209C86.6521 94.1796 87.0736 94.1585 87.5 94.1585C94.4036 94.1585 100 99.6995 100 106.535C100 107.382 99.9139 108.21 99.75 109.01H50V109.01Z" stroke="#1BB4BF" stroke-width="4" stroke-linecap="round" stroke-linejoin="round"/>
</g>
</g>
</svg>
