<svg width="120" height="120" viewBox="0 0 120 120" fill="none" xmlns="http://www.w3.org/2000/svg">
<g id="growth">
<g id="growth_2">
<path id="Layer 1" d="M10 109H110" stroke="#1BB4BF" stroke-width="4" stroke-linecap="round" stroke-linejoin="round"/>
<path id="Layer 2" fill-rule="evenodd" clip-rule="evenodd" d="M66.5656 37.4359C72.4335 43.3038 80.6095 44.6872 88.0294 37.2672C95.4494 29.8473 93.4357 10.5658 93.4357 10.5658C93.4357 10.5658 74.2362 8.63407 66.8162 16.054C59.3963 23.474 60.6977 31.568 66.5656 37.4359V37.4359Z" stroke="#1BB4BF" stroke-width="4" stroke-linecap="round" stroke-linejoin="round"/>
<path id="Layer 3" fill-rule="evenodd" clip-rule="evenodd" d="M51.3826 37.421C54.1073 34.6964 54.7497 30.9 51.3043 27.4546C47.859 24.0093 38.906 24.9444 38.906 24.9444C38.906 24.9444 38.009 33.8593 41.4543 37.3046C44.8997 40.75 48.658 40.1457 51.3826 37.421V37.421Z" stroke="#1BB4BF" stroke-width="4" stroke-linecap="round" stroke-linejoin="round"/>
<path id="Layer 4" d="M60.0813 59.5448C60.0813 59.5448 58.9395 44.1797 51 38" stroke="#1BB4BF" stroke-width="4" stroke-linecap="round" stroke-linejoin="round"/>
<path id="Layer 5" d="M60.1046 74.8311L60.1046 58.9991C60.1046 51.1299 62.9166 43.5198 68.0334 37.5414L81.5771 21.7168" stroke="#1BB4BF" stroke-width="4" stroke-linecap="round" stroke-linejoin="round"/>
<path id="Layer 6" d="M15 109L20.205 91.3029V91.3029C22.8532 82.2991 32.6078 75 42.0009 75H77.9991C87.3884 75 97.1453 82.2939 99.795 91.3029L105 109" stroke="#1BB4BF" stroke-width="4" stroke-linecap="round" stroke-linejoin="round"/>
</g>
</g>
</svg>
