<svg width="120" height="120" viewBox="0 0 120 120" fill="none" xmlns="http://www.w3.org/2000/svg">
<g id="heart-cupid">
<g id="heart-cupid_2">
<path id="Layer 1" fill-rule="evenodd" clip-rule="evenodd" d="M30.1978 53.5447C30.1714 53.7243 30.1579 53.9111 30.1579 54.1053C30.1579 87.2632 67 102 67 102C67 102 103.842 87.2632 103.842 54.1053C103.842 53.9107 103.829 53.7235 103.802 53.5436C103.829 53.1202 103.842 52.6932 103.842 52.2632C103.842 41.0721 94.77 32 83.5789 32C76.7257 32 70.6671 35.4022 67 40.6097C63.3329 35.4022 57.2743 32 50.4211 32C39.23 32 30.1579 41.0721 30.1579 52.2632C30.1579 52.6936 30.1713 53.1209 30.1978 53.5447V53.5447Z" stroke="#1BB4BF" stroke-width="4" stroke-linecap="round" stroke-linejoin="round"/>
<path id="Layer 2" fill-rule="evenodd" clip-rule="evenodd" d="M106.586 91.3395C106.629 91.3712 106.67 91.4071 106.71 91.4473C113.579 98.3158 109 109 109 109C109 109 98.3158 113.579 91.4473 106.71C91.407 106.67 91.371 106.629 91.3392 106.586C91.2461 106.504 91.1548 106.418 91.0658 106.329C88.7476 104.011 88.7476 100.252 91.0658 97.9342C92.4853 96.5146 94.4451 95.9643 96.2834 96.2834C95.9643 94.4451 96.5146 92.4853 97.9342 91.0658C100.252 88.7476 104.011 88.7476 106.329 91.0658C106.418 91.1549 106.504 91.2462 106.586 91.3395V91.3395Z" stroke="#1BB4BF" stroke-width="4" stroke-linecap="round" stroke-linejoin="round"/>
<path id="Layer 3" d="M67.0747 67.0747L97.0376 97.0376" stroke="#1BB4BF" stroke-width="4" stroke-linecap="round" stroke-linejoin="round"/>
<path id="Layer 4" d="M17.5 17.5L36.5 36.5" stroke="#1BB4BF" stroke-width="4" stroke-linecap="round" stroke-linejoin="round"/>
<path id="Layer 5" fill-rule="evenodd" clip-rule="evenodd" d="M10 18.4853L17.0683 17.0683L18.4853 10L32.6274 24.1421L31.2646 31.2646L24.1421 32.6274L10 18.4853V18.4853Z" stroke="#1BB4BF" stroke-width="4" stroke-linecap="round" stroke-linejoin="round"/>
</g>
</g>
</svg>
