<svg width="120" height="120" viewBox="0 0 120 120" fill="none" xmlns="http://www.w3.org/2000/svg">
<g id="heart">
<g id="heart_2">
<path id="Layer 1" fill-rule="evenodd" clip-rule="evenodd" d="M10.0541 42.2392C10.0183 42.483 10 42.7365 10 43C10 88 60 108 60 108C60 108 110 88 110 43C110 42.7359 109.982 42.4819 109.946 42.2378C109.982 41.6631 110 41.0837 110 40.5C110 25.3122 97.6878 13 82.5 13C73.1992 13 64.9768 17.6172 60 24.6846C55.0232 17.6172 46.8008 13 37.5 13C22.3122 13 10 25.3122 10 40.5C10 41.0842 10.0182 41.6641 10.0541 42.2392V42.2392Z" stroke="#1BB4BF" stroke-width="4" stroke-linecap="round" stroke-linejoin="round"/>
</g>
</g>
</svg>
