<svg width="120" height="120" viewBox="0 0 120 120" fill="none" xmlns="http://www.w3.org/2000/svg">
<g id="law">
<g id="law_2">
<path id="Layer 1" fill-rule="evenodd" clip-rule="evenodd" d="M99.6436 44.4169C98.4861 41.98 95.2474 35.3109 92.9421 32.0185C90.6131 28.6924 85.4742 23.3945 83.5841 21.4802L85.7368 19.9729C86.6383 19.3417 86.8046 18.023 86.1078 17.0279L82.3217 11.6208C81.62 10.6186 80.3267 10.3325 79.4221 10.966C79.4221 10.966 69.9968 16.3782 65.7575 19.3466C61.259 22.4965 53.2087 29.3208 53.2087 29.3208C52.2996 29.9573 52.1355 31.2744 52.8323 32.2695L56.6184 37.6766C57.3201 38.6788 58.6129 38.9653 59.5169 38.3322L61.5367 36.918C62.3235 38.5016 64.0352 41.8933 65.7548 44.9514L12.2558 82.4118C9.98846 83.9994 9.44298 87.1142 11.0269 89.3762C12.6075 91.6336 15.729 92.1876 17.9915 90.6033L71.4799 53.1504C73.7861 55.8463 76.3764 58.5871 77.5934 59.8566L75.5771 61.2685C74.673 61.9015 74.5 63.2143 75.2018 64.2165L78.9878 69.6236C79.6846 70.6187 80.9784 70.9149 81.8875 70.2784C81.8875 70.2784 91.199 65.0114 95.5829 61.9417C99.9367 58.8932 108.101 51.9236 108.101 51.9236C109.006 51.2901 109.179 49.977 108.477 48.9748L104.691 43.5677C103.994 42.5726 102.698 42.2779 101.797 42.9091L99.6436 44.4169V44.4169V44.4169Z" stroke="#1BB4BF" stroke-width="4" stroke-linecap="round" stroke-linejoin="round"/>
<path id="Path" d="M66.1139 100V93.0003V93.0003C66.1139 91.3433 67.4594 90 69.1213 90H99.1065C100.767 90 102.114 91.3486 102.114 93.0003V100" stroke="#1BB4BF" stroke-width="4" stroke-linecap="round" stroke-linejoin="round"/>
<rect id="Layer 3" x="59.1139" y="100" width="50" height="10" rx="3" stroke="#1BB4BF" stroke-width="4" stroke-linecap="round" stroke-linejoin="round"/>
</g>
</g>
</svg>
