<svg width="120" height="120" viewBox="0 0 120 120" fill="none" xmlns="http://www.w3.org/2000/svg">
<g id="layers-3">
<g id="layers-3_2">
<path id="Layer 1" d="M32.4116 47.5L11.8839 57.7638C9.40891 59.0013 9.41392 61.0012 11.8839 62.2362L55.5276 84.058C58.0026 85.2955 62.0023 85.293 64.4722 84.058L108.116 62.2362C110.591 60.9987 110.586 58.9988 108.116 57.7638L87.5883 47.5" stroke="#1BB4BF" stroke-width="4" stroke-linecap="round" stroke-linejoin="round"/>
<path id="Layer 2" fill-rule="evenodd" clip-rule="evenodd" d="M109.011 33.2114C110.485 33.9484 110.485 36.052 109.011 36.7891L64.4721 59.0583C61.6568 60.466 58.3431 60.466 55.5278 59.0583L10.9893 36.7891C9.51523 36.052 9.51523 33.9484 10.9893 33.2114L55.5278 10.9421C58.3431 9.53449 61.6568 9.53449 64.4721 10.9421L109.011 33.2114Z" stroke="#1BB4BF" stroke-width="4" stroke-linecap="round" stroke-linejoin="round"/>
<path id="Layer 3" fill-rule="evenodd" clip-rule="evenodd" d="M32.4116 72.5L11.8839 82.7638C9.40891 84.0013 9.41392 86.0012 11.8839 87.2362L55.5276 109.058C58.0026 110.296 62.0023 110.293 64.4722 109.058L108.116 87.2362C110.591 85.9987 110.586 83.9988 108.116 82.7638L87.5883 72.5L64.4722 84.058C62.0023 85.293 58.0026 85.2955 55.5276 84.058L32.4116 72.5V72.5Z" stroke="#1BB4BF" stroke-width="4" stroke-linecap="round" stroke-linejoin="round"/>
</g>
</g>
</svg>
