<svg width="120" height="120" viewBox="0 0 120 120" fill="none" xmlns="http://www.w3.org/2000/svg">
<g id="leaf">
<g id="leaf_2">
<path id="Layer 1" fill-rule="evenodd" clip-rule="evenodd" d="M79 81.0934C95.0249 52.5638 81.5313 35.4119 108.02 13.9903C113.809 9.30827 51.326 3.78779 24.7539 30.0001C5.15338 49.3335 15 81.0934 23.2426 90.0001C31.4853 98.9068 62.975 109.623 79 81.0934Z" stroke="#1BB4BF" stroke-width="4" stroke-linecap="round" stroke-linejoin="round"/>
<path id="Layer 2" d="M45.363 61.6206C37.8062 69.479 29.5579 79.2223 22.7748 90.0846C18.1667 97.464 14.4826 103.905 11.5556 109.391" stroke="#1BB4BF" stroke-width="4" stroke-linecap="round" stroke-linejoin="round"/>
<path id="Layer 3" d="M32.1937 77.2081C32.1937 77.2081 34.9745 75.4053 40.6984 75.4053C46.4223 75.4053 48.4966 76.3067 48.4966 76.3067" stroke="#1BB4BF" stroke-width="4" stroke-linecap="round" stroke-linejoin="round"/>
<path id="Layer 4" d="M32.25 77.0529C32.25 77.0529 34.0528 74.2721 34.0528 68.5482C34.0528 62.8242 33.1514 60.75 33.1514 60.75" stroke="#1BB4BF" stroke-width="4" stroke-linecap="round" stroke-linejoin="round"/>
<path id="Layer 5" d="M45 62.5804C45 62.5804 47.8013 61.8988 51.0611 61.6299C54.3209 61.361 56.5754 61.9897 56.5754 61.9897" stroke="#1BB4BF" stroke-width="4" stroke-linecap="round" stroke-linejoin="round"/>
<path id="Layer 6" d="M45.4807 61.0612C45.4807 61.0612 46.1624 58.2599 46.4313 55.0001C46.7002 51.7403 46.0715 49.4858 46.0715 49.4858" stroke="#1BB4BF" stroke-width="4" stroke-linecap="round" stroke-linejoin="round"/>
</g>
</g>
</svg>
