<svg width="120" height="120" viewBox="0 0 120 120" fill="none" xmlns="http://www.w3.org/2000/svg">
<g id="lemon">
<g id="lemon_2">
<path id="Layer 1" fill-rule="evenodd" clip-rule="evenodd" d="M76.5277 31.0236C60.4153 20.2123 42.3156 27.2937 27.1835 42.4259C12.0514 57.558 4.96998 75.6577 15.7812 91.7701C13.5772 94.8153 13.8867 99.1397 16.6819 101.935C19.4771 104.73 23.8015 105.04 26.8466 102.836C42.9591 113.647 61.0588 106.565 76.1909 91.4333C91.323 76.3011 98.4044 58.2014 87.5932 42.089C89.7972 39.0439 89.4877 34.7195 86.6925 31.9243C83.8973 29.1291 79.5729 28.8196 76.5277 31.0236L76.5277 31.0236Z" stroke="#1BB4BF" stroke-width="4" stroke-linecap="round" stroke-linejoin="round"/>
<path id="Layer 2" d="M32.7579 48.7095L34.4329 49.8024C34.9927 48.9444 34.8137 47.8021 34.0182 47.1565C33.2228 46.511 32.0681 46.5709 31.3437 47.2953L32.7579 48.7095ZM20.0454 68.1933L18.1353 67.6005C17.8395 68.5534 18.2914 69.5786 19.1943 70.0032C20.0973 70.4278 21.1751 70.1219 21.7204 69.2862L20.0454 68.1933ZM18.7674 75.5589L20.7477 75.2787C20.6023 74.2511 19.695 73.5055 18.6588 73.5619C17.6225 73.6183 16.8015 74.4579 16.7685 75.4952L18.7674 75.5589ZM19.5064 80.781L17.683 81.6027C18.0921 82.5104 19.1066 82.9791 20.0629 82.702C21.0193 82.425 21.6262 81.4866 21.4867 80.5008L19.5064 80.781ZM31.3437 47.2953C25.1215 53.5174 20.3602 60.4321 18.1353 67.6005L21.9555 68.7862C23.9277 62.4319 28.2396 56.0562 34.1721 50.1237L31.3437 47.2953ZM21.7204 69.2862L34.4329 49.8024L31.0829 47.6166L18.3704 67.1004L21.7204 69.2862ZM16.7685 75.4952C16.7202 77.0105 16.5392 79.0643 17.683 81.6027L21.3299 79.9594C20.6219 78.3883 20.7145 77.2531 20.7664 75.6226L16.7685 75.4952ZM21.4867 80.5008L20.7477 75.2787L16.7872 75.8392L17.5262 81.0612L21.4867 80.5008Z" fill="#1BB4BF"/>
<path id="Layer 3" fill-rule="evenodd" clip-rule="evenodd" d="M95.2647 20.4046C101.536 16.7838 109.742 19.2559 109.742 19.2559C109.742 19.2559 107.78 27.5985 101.509 31.2193C95.2372 34.8401 87.0312 32.368 87.0312 32.368C87.0312 32.368 88.9933 24.0254 95.2647 20.4046V20.4046Z" stroke="#1BB4BF" stroke-width="4" stroke-linecap="round" stroke-linejoin="round"/>
<path id="Layer 4" d="M85.9418 30.8687C85.9418 30.8687 88.3149 27.6711 88.1426 21.6627C87.9703 15.6544 84.0596 11.7437 84.0596 11.7437" stroke="#1BB4BF" stroke-width="4" stroke-linecap="round" stroke-linejoin="round"/>
</g>
</g>
</svg>
