<svg width="120" height="120" viewBox="0 0 120 120" fill="none" xmlns="http://www.w3.org/2000/svg">
<g id="libra">
<g id="libra_2">
<path id="Layer 1" fill-rule="evenodd" clip-rule="evenodd" d="M50 66C50 77.0457 41.0457 86 30 86C18.9543 86 10 77.0457 10 66H50V66Z" stroke="#1BB4BF" stroke-width="4" stroke-linecap="round" stroke-linejoin="round"/>
<path id="Layer 2" fill-rule="evenodd" clip-rule="evenodd" d="M110 66C110 77.0457 101.046 86 90 86C78.9543 86 70 77.0457 70 66H110V66Z" stroke="#1BB4BF" stroke-width="4" stroke-linecap="round" stroke-linejoin="round"/>
<path id="Layer 3" d="M60.1139 16.4892V105.5" stroke="#1BB4BF" stroke-width="4" stroke-linecap="round" stroke-linejoin="round"/>
<path id="Layer 4" d="M85.1139 16H35.1139" stroke="#1BB4BF" stroke-width="4" stroke-linecap="round" stroke-linejoin="round"/>
<path id="Layer 5" d="M79.1139 106H39.1139" stroke="#1BB4BF" stroke-width="4" stroke-linecap="round" stroke-linejoin="round"/>
<path id="Layer 6" fill-rule="evenodd" clip-rule="evenodd" d="M30.1139 20C32.323 20 34.1139 18.2091 34.1139 16C34.1139 13.7909 32.323 12 30.1139 12C27.9048 12 26.1139 13.7909 26.1139 16C26.1139 18.2091 27.9048 20 30.1139 20Z" stroke="#1BB4BF" stroke-width="4" stroke-linecap="round" stroke-linejoin="round"/>
<path id="Layer 7" fill-rule="evenodd" clip-rule="evenodd" d="M90.1139 20C92.323 20 94.1139 18.2091 94.1139 16C94.1139 13.7909 92.323 12 90.1139 12C87.9048 12 86.1139 13.7909 86.1139 16C86.1139 18.2091 87.9048 20 90.1139 20Z" stroke="#1BB4BF" stroke-width="4" stroke-linecap="round" stroke-linejoin="round"/>
<path id="Layer 8" d="M31.5012 19.7529L33.3581 19.0101C32.9555 18.0036 31.8243 17.5011 30.8075 17.8771L31.5012 19.7529ZM28.5303 19.6743L29.3228 17.838C28.8272 17.6241 28.2662 17.6197 27.7673 17.8256C27.2683 18.0315 26.8738 18.4304 26.6733 18.9315L28.5303 19.6743ZM10 66L8.14305 65.2573C7.89657 65.8734 7.97181 66.5717 8.34387 67.1213C8.71593 67.6708 9.33635 68 10 68V66ZM50 66V68C50.6636 68 51.2841 67.6708 51.6561 67.1213C52.0282 66.5717 52.1034 65.8734 51.857 65.2573L50 66ZM30.1139 22C30.8419 22 31.5439 21.8695 32.1948 21.6288L30.8075 17.8771C30.5941 17.956 30.3614 18 30.1139 18V22ZM27.7378 21.5106C28.469 21.8262 29.2738 22 30.1139 22V18C29.8289 18 29.5628 17.9416 29.3228 17.838L27.7378 21.5106ZM11.857 66.7428L30.3872 20.4171L26.6733 18.9315L8.14305 65.2573L11.857 66.7428ZM50 64H10V68H50V64ZM29.6442 20.4957L48.143 66.7428L51.857 65.2573L33.3581 19.0101L29.6442 20.4957Z" fill="#1BB4BF"/>
<path id="Layer 9" d="M91.5012 19.7529L93.3581 19.0101C92.9555 18.0036 91.8243 17.5011 90.8075 17.8771L91.5012 19.7529ZM88.5303 19.6743L89.3228 17.838C88.8272 17.6241 88.2662 17.6197 87.7673 17.8256C87.2683 18.0315 86.8738 18.4304 86.6733 18.9315L88.5303 19.6743ZM70 66L68.143 65.2573C67.8966 65.8734 67.9718 66.5717 68.3439 67.1213C68.7159 67.6708 69.3364 68 70 68V66ZM110 66V68C110.664 68 111.284 67.6708 111.656 67.1213C112.028 66.5717 112.103 65.8734 111.857 65.2573L110 66ZM90.1139 22C90.8419 22 91.5439 21.8695 92.1948 21.6288L90.8075 17.8771C90.5941 17.956 90.3614 18 90.1139 18V22ZM87.7378 21.5106C88.469 21.8262 89.2738 22 90.1139 22V18C89.8289 18 89.5628 17.9416 89.3228 17.838L87.7378 21.5106ZM71.857 66.7428L90.3872 20.4171L86.6733 18.9315L68.143 65.2573L71.857 66.7428ZM110 64H70V68H110V64ZM89.6442 20.4957L108.143 66.7428L111.857 65.2573L93.3581 19.0101L89.6442 20.4957Z" fill="#1BB4BF"/>
</g>
</g>
</svg>
