<svg width="120" height="120" viewBox="0 0 120 120" fill="none" xmlns="http://www.w3.org/2000/svg">
<g id="libra">
<g id="libra_2">
<path id="Layer 1" d="M60.1139 21.5V110.5" stroke="#1BB4BF" stroke-width="4" stroke-linecap="round" stroke-linejoin="round"/>
<path id="Layer 2" d="M85.1139 12L35.5452 28.5229" stroke="#1BB4BF" stroke-width="4" stroke-linecap="round" stroke-linejoin="round"/>
<path id="Layer 3" d="M79.1139 111H39.1139" stroke="#1BB4BF" stroke-width="4" stroke-linecap="round" stroke-linejoin="round"/>
<path id="Layer 4" fill-rule="evenodd" clip-rule="evenodd" d="M50.1139 81C50.1139 92.0457 41.1596 101 30.1139 101C19.0682 101 10.1139 92.0457 10.1139 81H50.1139V81Z" stroke="#1BB4BF" stroke-width="4" stroke-linecap="round" stroke-linejoin="round"/>
<path id="Layer 5" fill-rule="evenodd" clip-rule="evenodd" d="M110.114 61C110.114 72.0457 101.16 81 90.1139 81C79.0682 81 70.1139 72.0457 70.1139 61H110.114V61Z" stroke="#1BB4BF" stroke-width="4" stroke-linecap="round" stroke-linejoin="round"/>
<path id="Layer 6" fill-rule="evenodd" clip-rule="evenodd" d="M30.1139 35C32.323 35 34.1139 33.2091 34.1139 31C34.1139 28.7909 32.323 27 30.1139 27C27.9048 27 26.1139 28.7909 26.1139 31C26.1139 33.2091 27.9048 35 30.1139 35Z" stroke="#1BB4BF" stroke-width="4" stroke-linecap="round" stroke-linejoin="round"/>
<path id="Layer 7" fill-rule="evenodd" clip-rule="evenodd" d="M90.1139 15C92.323 15 94.1139 13.2091 94.1139 11C94.1139 8.79086 92.323 7 90.1139 7C87.9048 7 86.1139 8.79086 86.1139 11C86.1139 13.2091 87.9048 15 90.1139 15Z" stroke="#1BB4BF" stroke-width="4" stroke-linecap="round" stroke-linejoin="round"/>
<path id="Layer 8" d="M31.5998 34.7148L33.4568 33.9721C33.2598 33.4795 32.8751 33.0853 32.3874 32.8764C31.8997 32.6675 31.349 32.6609 30.8565 32.8581L31.5998 34.7148ZM28.6279 34.7148L29.3713 32.8581C28.8788 32.6609 28.3281 32.6675 27.8404 32.8764C27.3527 33.0853 26.968 33.4795 26.771 33.9721L28.6279 34.7148ZM10.1139 81L8.25694 80.2572C8.01047 80.8734 8.0857 81.5717 8.45776 82.1212C8.82982 82.6708 9.45024 83 10.1139 83V81ZM50.1139 81V83C50.7775 83 51.398 82.6708 51.77 82.1212C52.1421 81.5717 52.2173 80.8734 51.9708 80.2572L50.1139 81ZM30.1139 36.9999C30.8979 36.9999 31.6514 36.8486 32.3432 36.5716L30.8565 32.8581C30.6295 32.949 30.3801 32.9999 30.1139 32.9999V36.9999ZM27.8846 36.5716C28.5764 36.8486 29.3299 36.9999 30.1139 36.9999V32.9999C29.8477 32.9999 29.5982 32.949 29.3713 32.8581L27.8846 36.5716ZM11.9708 81.7427L30.4849 35.4576L26.771 33.9721L8.25694 80.2572L11.9708 81.7427ZM50.1139 79H10.1139V83H50.1139V79ZM29.7429 35.4576L48.2569 81.7427L51.9708 80.2572L33.4568 33.9721L29.7429 35.4576Z" fill="#1BB4BF"/>
<path id="Layer 9" d="M91.5998 14.7148L93.4568 13.9721C93.2598 13.4795 92.8751 13.0853 92.3874 12.8764C91.8997 12.6675 91.349 12.6609 90.8565 12.8581L91.5998 14.7148ZM88.6279 14.7148L89.3713 12.8581C88.8788 12.6609 88.3281 12.6675 87.8404 12.8764C87.3527 13.0853 86.968 13.4795 86.771 13.9721L88.6279 14.7148ZM70.1139 61L68.2569 60.2572C68.0105 60.8734 68.0857 61.5717 68.4578 62.1212C68.8298 62.6708 69.4502 63 70.1139 63V61ZM110.114 61V63C110.778 63 111.398 62.6708 111.77 62.1212C112.142 61.5717 112.217 60.8734 111.971 60.2572L110.114 61ZM90.1139 16.9999C90.8979 16.9999 91.6514 16.8486 92.3432 16.5716L90.8565 12.8581C90.6295 12.949 90.3801 12.9999 90.1139 12.9999V16.9999ZM87.8846 16.5716C88.5764 16.8486 89.3299 16.9999 90.1139 16.9999V12.9999C89.8477 12.9999 89.5982 12.949 89.3713 12.8581L87.8846 16.5716ZM71.9708 61.7427L90.4849 15.4576L86.771 13.9721L68.2569 60.2572L71.9708 61.7427ZM110.114 59H70.1139V63H110.114V59ZM89.7429 15.4576L108.257 61.7427L111.971 60.2572L93.4568 13.9721L89.7429 15.4576Z" fill="#1BB4BF"/>
</g>
</g>
</svg>
