<svg width="120" height="120" viewBox="0 0 120 120" fill="none" xmlns="http://www.w3.org/2000/svg">
<g id="location">
<g id="location_2">
<path id="Path" d="M60.0522 59.5201C51.5842 59.5201 44.7122 52.6041 44.7122 44.0721C44.7122 35.5321 51.5842 28.6201 60.0522 28.6201C68.5202 28.6201 75.3922 35.5361 75.3922 44.0721C75.3922 52.6001 68.5202 59.5201 60.0522 59.5201" stroke="#1BB4BF" stroke-width="4" stroke-linecap="round" stroke-linejoin="round"/>
<path id="Path_2" d="M60.0521 10C41.3001 10 26.1001 25.308 26.1001 44.196C26.1001 62.036 41.4761 85.048 51.7441 96.252C55.5801 100.432 60.0481 106.068 60.0481 106.068C60.0481 106.068 64.8481 100.4 68.9641 96.096C79.2241 85.36 94.0001 63.804 94.0001 44.196C94.0001 25.308 78.8001 10 60.0521 10" stroke="#1BB4BF" stroke-width="4" stroke-linecap="round" stroke-linejoin="round"/>
</g>
</g>
</svg>
