<svg width="120" height="120" viewBox="0 0 120 120" fill="none" xmlns="http://www.w3.org/2000/svg">
<g id="lolipop">
<g id="lolipop_2">
<path id="Layer 1" fill-rule="evenodd" clip-rule="evenodd" d="M96.4045 65.806C84.5681 74.3487 68.014 73.2529 57.3881 62.5185C46.7621 51.7841 45.6774 35.0611 54.1337 23.104C54.2559 23.2604 54.3884 23.4113 54.5312 23.5556L95.9574 65.4045C96.1003 65.5488 96.2496 65.6826 96.4045 65.806V65.806V65.806Z" stroke="#1BB4BF" stroke-width="4" stroke-linecap="round" stroke-linejoin="round"/>
<path id="Layer 2" fill-rule="evenodd" clip-rule="evenodd" d="M103.497 58.6408C111.954 46.6837 110.869 29.9607 100.243 19.2264C89.6171 8.49199 73.063 7.39614 61.2267 15.9388C59.2466 14.3611 56.3604 14.4923 54.5311 16.3402C52.5628 18.3286 52.5588 21.5632 54.5313 23.5557L95.9574 65.4046C97.9267 67.394 101.128 67.3972 103.1 65.4048C104.926 63.5604 105.061 60.6439 103.497 58.6408V58.6408V58.6408Z" stroke="#1BB4BF" stroke-width="4" stroke-linecap="round" stroke-linejoin="round"/>
<path id="Layer 3" d="M93.8148 24.2772L93.0434 26.1225C93.9231 26.4902 94.9401 26.1859 95.4731 25.3953C96.0061 24.6047 95.907 23.5478 95.2362 22.8702L93.8148 24.2772ZM79.5169 18.2998L79.5157 16.2998C78.563 16.3004 77.743 16.9729 77.5559 17.907C77.3688 18.8412 77.8666 19.7776 78.7455 20.145L79.5169 18.2998ZM72.1604 19.7006L73.0748 21.4793C74.0231 20.9918 74.4222 19.8461 73.982 18.8749C73.5418 17.9038 72.4172 17.4487 71.4255 17.8405L72.1604 19.7006ZM68.664 21.498L67.5791 19.8178C66.6833 20.3962 66.3988 21.5757 66.9324 22.4989C67.466 23.4221 68.6301 23.7643 69.5784 23.2767L68.664 21.498ZM95.2362 22.8702C90.8993 18.489 85.2057 16.2962 79.5157 16.2998L79.5182 20.2998C84.177 20.2968 88.8344 22.0889 92.3934 25.6842L95.2362 22.8702ZM78.7455 20.145L93.0434 26.1225L94.5862 22.432L80.2884 16.4546L78.7455 20.145ZM71.4255 17.8405C70.0964 18.3655 68.8074 19.0247 67.5791 19.8178L69.7489 23.1782C70.7541 22.5292 71.8084 21.9901 72.8952 21.5607L71.4255 17.8405ZM69.5784 23.2767L73.0748 21.4793L71.2459 17.9219L67.7496 19.7193L69.5784 23.2767Z" fill="#1BB4BF"/>
<path id="Layer 4" fill-rule="evenodd" clip-rule="evenodd" d="M54.5311 59.6323L60.2451 65.4046L17.3926 108.694C15.8134 110.29 13.2508 110.288 11.6761 108.697V108.697C10.0983 107.103 10.1015 104.515 11.6786 102.922L54.5311 59.6323V59.6323Z" stroke="#1BB4BF" stroke-width="4" stroke-linecap="round" stroke-linejoin="round"/>
</g>
</g>
</svg>
