<svg width="120" height="120" viewBox="0 0 120 120" fill="none" xmlns="http://www.w3.org/2000/svg">
<g id="magic-2">
<g id="magic-2_2">
<path id="Layer 1" fill-rule="evenodd" clip-rule="evenodd" d="M69.3969 63.7698L24.1421 109.025C22.58 110.587 18.781 109.32 15.6568 106.196C12.5326 103.072 11.2663 99.273 12.8284 97.7109L58.0832 52.4561C56.5211 54.0182 57.7875 57.8171 60.9116 60.9413C64.0358 64.0655 67.8348 65.3319 69.3969 63.7698V63.7698Z" stroke="#1BB4BF" stroke-width="4" stroke-linecap="round" stroke-linejoin="round"/>
<path id="Layer 2" fill-rule="evenodd" clip-rule="evenodd" d="M92.0244 41.1423L69.397 63.7697C67.8349 65.3318 64.0359 64.0655 60.9117 60.9413C57.7875 57.8171 56.5212 54.0181 58.0833 52.456L80.7107 29.8286C79.1486 31.3907 80.4149 35.1897 83.5391 38.3139C86.6633 41.4381 90.4623 42.7044 92.0244 41.1423V41.1423Z" stroke="#1BB4BF" stroke-width="4" stroke-linecap="round" stroke-linejoin="round"/>
<path id="Layer 3" fill-rule="evenodd" clip-rule="evenodd" d="M83.5391 38.3135C86.6633 41.4377 90.4623 42.7041 92.0244 41.142C93.5865 39.5799 92.3201 35.7809 89.1959 32.6567C86.0717 29.5325 82.2727 28.2662 80.7107 29.8283C79.1486 31.3904 80.4149 35.1894 83.5391 38.3135V38.3135Z" stroke="#1BB4BF" stroke-width="4" stroke-linecap="round" stroke-linejoin="round"/>
<path id="Layer 4" fill-rule="evenodd" clip-rule="evenodd" d="M110 83.5C101.992 83.5 95.5 77.0081 95.5 69C95.5 77.0081 89.0081 83.5 81 83.5C89.0081 83.5 95.5 89.9919 95.5 98C95.5 89.9919 101.992 83.5 110 83.5V83.5Z" stroke="#1BB4BF" stroke-width="4" stroke-linecap="round" stroke-linejoin="round"/>
<path id="Layer 5" fill-rule="evenodd" clip-rule="evenodd" d="M68 21C62.4772 21 58 16.5228 58 11C58 16.5228 53.5228 21 48 21C53.5228 21 58 25.4772 58 31C58 25.4772 62.4772 21 68 21V21Z" stroke="#1BB4BF" stroke-width="4" stroke-linecap="round" stroke-linejoin="round"/>
<path id="Layer 6" fill-rule="evenodd" clip-rule="evenodd" d="M35 44.5C28.0964 44.5 22.5 38.9036 22.5 32C22.5 38.9036 16.9036 44.5 10 44.5C16.9036 44.5 22.5 50.0964 22.5 57C22.5 50.0964 28.0964 44.5 35 44.5V44.5Z" stroke="#1BB4BF" stroke-width="4" stroke-linecap="round" stroke-linejoin="round"/>
</g>
</g>
</svg>
