<svg width="120" height="120" viewBox="0 0 120 120" fill="none" xmlns="http://www.w3.org/2000/svg">
<g id="maracas">
<g id="maracas_2">
<path id="Layer 1" d="M56.5454 56.1099L21.9453 90.3741C18.6652 90.6044 15.1069 92.1761 13.0545 94.2086C9.58989 97.6396 9.58989 103.202 13.0545 106.633C16.5192 110.064 22.1365 110.064 25.6011 106.633C27.6535 104.601 29.2406 101.077 29.4732 97.8289L64.2158 63.4237" stroke="#1BB4BF" stroke-width="4" stroke-linecap="round" stroke-linejoin="round"/>
<path id="Layer 2" fill-rule="evenodd" clip-rule="evenodd" d="M59.6475 59.7216C71.1335 71.0961 89.756 71.0961 101.242 59.7216C112.728 48.3471 112.728 29.9054 101.242 18.5309C89.756 7.15638 71.1335 7.15638 59.6475 18.5309C48.1615 29.9054 48.1615 48.3471 59.6475 59.7216V59.7216Z" stroke="#1BB4BF" stroke-width="4" stroke-linecap="round" stroke-linejoin="round"/>
<path id="Layer 3" d="M58.5396 19.6885L71.3879 20.5459L72.1716 33.2412L85.2974 34.3204L86.1966 47.13L99.1555 48.0439L100.073 60.8187" stroke="#1BB4BF" stroke-width="4" stroke-linecap="round" stroke-linejoin="round"/>
</g>
</g>
</svg>
