<svg width="120" height="120" viewBox="0 0 120 120" fill="none" xmlns="http://www.w3.org/2000/svg">
<g id="meat">
<g id="meat_2">
<path id="Layer 1" fill-rule="evenodd" clip-rule="evenodd" d="M38.5173 74.7031L23.3286 89.8918C23.1208 89.6146 22.8909 89.3488 22.6388 89.0967C19.7685 86.2265 15.1149 86.2265 12.2446 89.0967C9.37435 91.967 9.37435 96.6206 12.2446 99.4909C14.1351 101.381 16.7993 102.027 19.218 101.427C18.6181 103.846 19.2634 106.51 21.1539 108.4C24.0242 111.271 28.6778 111.271 31.5481 108.4C34.4184 105.53 34.4184 100.876 31.5481 98.006C31.2961 97.754 31.0302 97.524 30.7531 97.3162L45.9417 82.1275C44.5361 81.101 43.1995 79.9597 41.9423 78.7025C40.6851 77.4454 39.5439 76.1088 38.5173 74.7031V74.7031Z" stroke="#1BB4BF" stroke-width="4" stroke-linecap="round" stroke-linejoin="round"/>
<path id="Layer 2" fill-rule="evenodd" clip-rule="evenodd" d="M108.762 71.2777C88.2601 91.7797 58.3439 95.1037 41.9423 78.7021C25.5407 62.3006 28.8648 32.3843 49.3667 11.8823V11.8823C43.2161 18.0329 51.5262 36.3151 67.9278 52.7166C84.3294 69.1182 102.612 77.4283 108.762 71.2777V71.2777Z" stroke="#1BB4BF" stroke-width="4" stroke-linecap="round" stroke-linejoin="round"/>
<path id="Layer 3" fill-rule="evenodd" clip-rule="evenodd" d="M90.2011 30.4436C73.7995 14.042 55.5173 5.73195 49.3667 11.8825C43.2161 18.0331 51.5262 36.3153 67.9278 52.7169C84.3294 69.1185 102.612 77.4285 108.762 71.2779C114.913 65.1273 106.603 46.8452 90.2011 30.4436V30.4436Z" stroke="#1BB4BF" stroke-width="4" stroke-linecap="round" stroke-linejoin="round"/>
<path id="Layer 4" fill-rule="evenodd" clip-rule="evenodd" d="M82.7766 37.8681C79.4963 34.5878 75.1751 33.5906 73.1249 35.6408C71.0747 37.691 72.0719 42.0122 75.3522 45.2925C78.6325 48.5728 82.9538 49.5701 85.004 47.5199C87.0542 45.4697 86.057 41.1484 82.7766 37.8681V37.8681Z" stroke="#1BB4BF" stroke-width="4" stroke-linecap="round" stroke-linejoin="round"/>
<path id="Path" d="M42.631 35.7529C41.489 38.436 40.6539 41.1826 40.13 43.9343" stroke="#1BB4BF" stroke-width="3.5" stroke-linecap="round" stroke-linejoin="round"/>
<path id="Path_2" d="M39.6563 54.3896C39.9481 57.1782 40.5858 59.8909 41.5746 62.4612C43.0081 66.1873 45.1794 69.6141 48.1041 72.5388" stroke="#1BB4BF" stroke-width="3.5" stroke-linecap="round" stroke-linejoin="round"/>
</g>
</g>
</svg>
