<svg width="120" height="120" viewBox="0 0 120 120" fill="none" xmlns="http://www.w3.org/2000/svg">
<g id="microphone-1">
<g id="microphone-1_2">
<path id="Path" d="M78.0596 58.5436L23.1095 109.158C23.1095 109.158 18.1481 110.753 13.4174 105.976C8.68679 101.198 10.2658 96.1875 10.2658 96.1875L60.3843 40.6934" stroke="#1BB4BF" stroke-width="4" stroke-linecap="round" stroke-linejoin="round"/>
<path id="Layer 2" fill-rule="evenodd" clip-rule="evenodd" d="M55.7109 61.2636L51.9644 65.0472C51.3901 65.6272 51.3901 66.5675 51.9644 67.1475C52.5387 67.7275 53.4698 67.7275 54.0441 67.1475L57.7906 63.3639C58.3649 62.7839 58.3649 61.8436 57.7906 61.2636C57.2163 60.6836 56.2852 60.6836 55.7109 61.2636V61.2636Z" stroke="#1BB4BF" stroke-width="4" stroke-linecap="round" stroke-linejoin="round"/>
<path id="Layer 3" fill-rule="evenodd" clip-rule="evenodd" d="M84.5099 59.505C98.0463 59.505 109.02 48.4229 109.02 34.7525C109.02 21.0821 98.0463 10.0001 84.5099 10.0001C70.9735 10.0001 60.0001 21.0821 60.0001 34.7525C60.0001 48.4229 70.9735 59.505 84.5099 59.505Z" stroke="#1BB4BF" stroke-width="4" stroke-linecap="round" stroke-linejoin="round"/>
<path id="Path_2" d="M70.8027 14.418C71.3666 14.659 71.8951 15.0119 72.3555 15.4768L104.253 47.6897C104.483 47.9225 104.686 48.1727 104.86 48.4362" stroke="#1BB4BF" stroke-width="4" stroke-linecap="round" stroke-linejoin="round"/>
<path id="Path_3" d="M64.3365 20.8115C64.575 21.4184 64.9371 21.9871 65.423 22.4779L97.3202 54.6908C97.5265 54.8992 97.7465 55.085 97.9773 55.2484" stroke="#1BB4BF" stroke-width="4" stroke-linecap="round" stroke-linejoin="round"/>
</g>
</g>
</svg>
