<svg width="120" height="120" viewBox="0 0 120 120" fill="none" xmlns="http://www.w3.org/2000/svg">
<g id="number-9">
<g id="9-numbers-letters-alphabet">
<path id="Layer 1" fill-rule="evenodd" clip-rule="evenodd" d="M60 110C87.6142 110 110 87.6142 110 60C110 32.3858 87.6142 10 60 10C32.3858 10 10 32.3858 10 60C10 87.6142 32.3858 110 60 110Z" stroke="#1BB4BF" stroke-width="4" stroke-linecap="round" stroke-linejoin="round"/>
<path id="Layer 2" d="M44.766 72.0474L44.9053 72.7437C46.4373 80.2646 50.1281 85 58.624 85C69.1393 85 75.4763 76.7131 75.4763 56.7967C75.4763 41.1978 69.4178 35 59.9471 35C50.4763 35 44 42.2423 44 51.2256C44 60.1393 49.3621 67.8691 59.3203 67.8691C64.8217 67.8691 69.6267 65.3621 72.6908 60.6964C76.1502 56.2693 75.257 53.2919 75.257 53.2919" stroke="#1BB4BF" stroke-width="4" stroke-linecap="round" stroke-linejoin="round"/>
</g>
</g>
</svg>
