<svg width="120" height="120" viewBox="0 0 120 120" fill="none" xmlns="http://www.w3.org/2000/svg">
<g id="palette">
<g id="palette_2">
<path id="Layer 1" fill-rule="evenodd" clip-rule="evenodd" d="M88.7336 67.708C88.4719 68.9911 88.6358 70.27 88.7336 70.6737C89.8856 75.4295 98.3788 78.0769 97.5664 90.5938C97.5664 104.951 76.2189 110 61.5464 110C33.0781 110 10 87.6142 10 60C10 32.3858 33.0781 10 61.5464 10C82.0986 10 99.8415 21.6672 108.12 38.5459C110.66 42.9302 109.487 51.8547 105.025 55.8042C96.386 63.4502 93.1739 61.6827 90.7053 64.3052C90.2057 64.8359 88.9651 66.5728 88.7336 67.708Z" stroke="#1BB4BF" stroke-width="4" stroke-linecap="round" stroke-linejoin="round"/>
<path id="Path" fill-rule="evenodd" clip-rule="evenodd" d="M61.5464 38C66.6707 38 70.8248 33.9706 70.8248 29C70.8248 24.0294 66.6707 20 61.5464 20C56.4221 20 52.2681 24.0294 52.2681 29C52.2681 33.9706 56.4221 38 61.5464 38V38Z" stroke="#1BB4BF" stroke-width="4" stroke-linecap="round" stroke-linejoin="round"/>
<path id="Path_2" fill-rule="evenodd" clip-rule="evenodd" d="M79.5384 46.3358C82.7633 50.3182 88.5089 51.0107 92.3718 47.8826C96.2347 44.7545 96.7519 38.9904 93.5271 35.0081C90.3022 31.0257 84.5565 30.3332 80.6937 33.4613C76.8308 36.5894 76.3136 42.3535 79.5384 46.3358V46.3358Z" stroke="#1BB4BF" stroke-width="4" stroke-linecap="round" stroke-linejoin="round"/>
<path id="Path_3" fill-rule="evenodd" clip-rule="evenodd" d="M71.4675 79.841C66.8618 82.0873 64.8945 87.53 67.0735 91.9975C69.2524 96.465 74.7525 98.2656 79.3581 96.0193C83.9638 93.773 85.9311 88.3303 83.7521 83.8628C81.5732 79.3953 76.0731 77.5947 71.4675 79.841V79.841Z" stroke="#1BB4BF" stroke-width="4" stroke-linecap="round" stroke-linejoin="round"/>
<path id="Path_4" fill-rule="evenodd" clip-rule="evenodd" d="M51.6254 79.841C47.0197 77.5947 41.5196 79.3953 39.3407 83.8628C37.1617 88.3303 39.129 93.773 43.7347 96.0193C48.3404 98.2656 53.8404 96.465 56.0193 91.9975C58.1983 87.53 56.231 82.0873 51.6254 79.841V79.841Z" stroke="#1BB4BF" stroke-width="4" stroke-linecap="round" stroke-linejoin="round"/>
<path id="Path_5" fill-rule="evenodd" clip-rule="evenodd" d="M38.1582 65.8737C37.0055 60.8808 32.1449 57.7396 27.3017 58.8578C22.4586 59.9759 19.4669 64.9299 20.6196 69.9229C21.7723 74.9158 26.6329 78.057 31.4761 76.9388C36.3192 75.8207 39.3109 70.8667 38.1582 65.8737V65.8737Z" stroke="#1BB4BF" stroke-width="4" stroke-linecap="round" stroke-linejoin="round"/>
<path id="Path_6" fill-rule="evenodd" clip-rule="evenodd" d="M42.5543 45.3358C45.7792 41.3535 45.2619 35.5894 41.3991 32.4613C37.5362 29.3332 31.7905 30.0257 28.5657 34.0081C25.3409 37.9904 25.8581 43.7545 29.721 46.8826C33.5838 50.0107 39.3295 49.3182 42.5543 45.3358V45.3358Z" stroke="#1BB4BF" stroke-width="4" stroke-linecap="round" stroke-linejoin="round"/>
</g>
</g>
</svg>
