<svg width="120" height="120" viewBox="0 0 120 120" fill="none" xmlns="http://www.w3.org/2000/svg">
<g id="pear">
<g id="pear_2">
<path id="Layer 1" fill-rule="evenodd" clip-rule="evenodd" d="M74.5811 23.4451C67.7081 25.9466 59.9796 22.0485 59.9796 22.0485C59.9796 22.0485 63.3943 14.0946 70.2673 11.5931C77.1402 9.09154 84.8687 12.9896 84.8687 12.9896C84.8687 12.9896 81.454 20.9435 74.5811 23.4451V23.4451Z" stroke="#1BB4BF" stroke-width="4" stroke-linecap="round" stroke-linejoin="round"/>
<path id="Layer 2" fill-rule="evenodd" clip-rule="evenodd" d="M50.097 19.3437C53.6761 21.8497 58.7382 20.7954 58.7382 20.7954C58.7382 20.7954 57.9976 15.6779 54.4186 13.1719C50.8396 10.6658 45.7774 11.7201 45.7774 11.7201C45.7774 11.7201 46.518 16.8376 50.097 19.3437V19.3437Z" stroke="#1BB4BF" stroke-width="4" stroke-linecap="round" stroke-linejoin="round"/>
<path id="Layer 3" d="M60 21V31.198" stroke="#1BB4BF" stroke-width="4" stroke-linecap="round" stroke-linejoin="round"/>
<path id="Layer 4" fill-rule="evenodd" clip-rule="evenodd" d="M84.9969 55.6009C93.6197 60.9534 100 68.9239 100 78.5C100 94.3512 87.3774 111 66.2612 111C63.7017 111 60 109.441 60 109.441C60 109.441 56.9323 111 54.6631 111C32.5717 111 20 96.4493 20 78.5C20 68.9239 26.3803 60.9534 35.0031 55.6009C35.2163 41.9778 46.3262 31 60 31C73.6738 31 84.7837 41.9778 84.9969 55.6009V55.6009Z" stroke="#1BB4BF" stroke-width="4" stroke-linecap="round" stroke-linejoin="round"/>
<path id="Layer 5" d="M90.4009 85.3818C88.1648 91.291 83.737 96.2741 78 99.9072" stroke="#1BB4BF" stroke-width="4" stroke-linecap="round" stroke-linejoin="round"/>
<path id="Path" d="M43.4172 55.063C44.8016 49.0098 48.224 43.9395 53.2815 41.3857" stroke="#1BB4BF" stroke-width="3.5" stroke-linecap="round" stroke-linejoin="round"/>
<path id="Path_2" d="M33.1189 68.9919C35.1978 66.3025 37.814 64.1494 40.5577 62.2705" stroke="#1BB4BF" stroke-width="3.5" stroke-linecap="round" stroke-linejoin="round"/>
</g>
</g>
</svg>
