<svg width="120" height="120" viewBox="0 0 120 120" fill="none" xmlns="http://www.w3.org/2000/svg">
<g id="pen-2">
<g id="pen-2_2">
<path id="Layer 1" fill-rule="evenodd" clip-rule="evenodd" d="M39.8866 66.5853L82.7837 23.6392L96.2576 37.1285L53.3605 80.0746L34.9758 84.991L39.8866 66.5853V66.5853Z" stroke="#1BB4BF" stroke-width="4" stroke-linecap="round" stroke-linejoin="round"/>
<path id="Layer 2" fill-rule="evenodd" clip-rule="evenodd" d="M53.9194 79.5152L34.9758 84.9912L35.0129 84.954L40.4826 65.9888L53.9194 79.5152V79.5152Z" stroke="#1BB4BF" stroke-width="4" stroke-linecap="round" stroke-linejoin="round"/>
<path id="Layer 3" d="M83.1716 23.2511L88.6673 17.749V17.749V17.749L102.141 31.2383L96.6455 36.7404" stroke="#1BB4BF" stroke-width="4" stroke-linecap="round" stroke-linejoin="round"/>
<path id="Layer 4" d="M88.6674 17.7488L93.7711 12.6392V12.6392V12.6392C96.5898 9.81725 101.161 9.81789 103.978 12.639L107.245 15.9096C110.064 18.7314 110.058 23.3123 107.245 26.1285L102.141 31.2381" stroke="#1BB4BF" stroke-width="4" stroke-linecap="round" stroke-linejoin="round"/>
<path id="Layer 5" d="M110 48.6364V110H10V10V10H71.3636" stroke="#1BB4BF" stroke-width="4" stroke-linecap="round" stroke-linejoin="round"/>
</g>
</g>
</svg>
