<svg width="120" height="120" viewBox="0 0 120 120" fill="none" xmlns="http://www.w3.org/2000/svg">
<g id="pictures">
<g id="pictures_2">
<path id="Layer 1" fill-rule="evenodd" clip-rule="evenodd" d="M90 35H10V105H90V35V35Z" stroke="#1BB4BF" stroke-width="4" stroke-linecap="round" stroke-linejoin="round"/>
<path id="Layer 2" d="M21.5758 78.9659L60.243 44.4863L90 75.5419" stroke="#1BB4BF" stroke-width="4" stroke-linecap="round" stroke-linejoin="round"/>
<path id="Layer 3" d="M46.4548 104.908L10 66.8862" stroke="#1BB4BF" stroke-width="4" stroke-linecap="round" stroke-linejoin="round"/>
<path id="Layer 4" fill-rule="evenodd" clip-rule="evenodd" d="M27 58C23.6863 58 21 55.3137 21 52C21 48.6863 23.6863 46 27 46C30.3137 46 33 48.6863 33 52C33 55.3137 30.3137 58 27 58V58Z" stroke="#1BB4BF" stroke-width="4" stroke-linecap="round" stroke-linejoin="round"/>
<path id="Layer 5" d="M90 95H100V30V25H20V35" stroke="#1BB4BF" stroke-width="4" stroke-linecap="round" stroke-linejoin="round"/>
<path id="Layer 6" d="M100 85H110V20V15H30V25" stroke="#1BB4BF" stroke-width="4" stroke-linecap="round" stroke-linejoin="round"/>
</g>
</g>
</svg>
