<svg width="120" height="120" viewBox="0 0 120 120" fill="none" xmlns="http://www.w3.org/2000/svg">
<g id="pipette-2">
<g id="pipette-2_2">
<path id="Layer 1" fill-rule="evenodd" clip-rule="evenodd" d="M82.4582 46.8781C72.2918 57.0445 52.1472 77.1891 52.1472 77.1891C48.8305 80.5058 43.1664 81.9272 38.1445 81.0226L34.6377 84.5294C32.951 86.2162 30.2143 86.2143 28.5328 84.5328C26.8479 82.8479 26.8472 80.117 28.5362 78.4279L32.043 74.9211C31.1385 69.8992 32.5598 64.2351 35.8765 60.9184L66.1875 30.6074L82.4582 46.8781V46.8781Z" stroke="#1BB4BF" stroke-width="4" stroke-linecap="round" stroke-linejoin="round"/>
<path id="Layer 2" fill-rule="evenodd" clip-rule="evenodd" d="M93.5653 34.7539C93.7273 35.3229 93.8335 35.8757 93.8692 36.3801L93.9488 37.5063C94.0942 39.5605 93.0614 42.3762 91.6393 43.7983L88.0527 47.385C86.6318 48.8058 84.2772 48.7548 82.7925 47.2701L74.2939 38.7715L65.7953 30.2729C64.3107 28.7883 64.2597 26.4336 65.6805 25.0128L69.2671 21.4261C70.6893 20.004 73.505 18.9713 75.5591 19.1166L76.6854 19.1963C77.1898 19.232 77.7426 19.3382 78.3116 19.5001L84.4631 13.3486C88.6753 9.1364 95.5046 9.1364 99.7169 13.3486C103.929 17.5608 103.929 24.3902 99.7169 28.6024L93.5653 34.7539V34.7539Z" stroke="#1BB4BF" stroke-width="4" stroke-linecap="round" stroke-linejoin="round"/>
<path id="Layer 3" d="M93.3657 34.4543L78.7839 19.8725" stroke="#1BB4BF" stroke-width="4" stroke-linecap="round" stroke-linejoin="round"/>
<path id="Layer 4" fill-rule="evenodd" clip-rule="evenodd" d="M22 110C33.25 110 22 90 22 90C22 90 10.75 110 22 110Z" stroke="#1BB4BF" stroke-width="4" stroke-linecap="round" stroke-linejoin="round"/>
</g>
</g>
</svg>
