<svg width="120" height="120" viewBox="0 0 120 120" fill="none" xmlns="http://www.w3.org/2000/svg">
<g id="pipette-1">
<g id="pipette-1_2">
<path id="Layer 1" d="M83.7278 58.907C70.2318 72.403 43.4897 99.1451 43.4897 99.1451C39.0868 103.548 31.5677 105.435 24.9011 104.234L20.2458 108.889C18.0066 111.129 14.3736 111.126 12.1415 108.894C9.90479 106.657 9.90376 103.032 12.146 100.79L16.8013 96.1344C15.6005 89.4678 17.4874 81.9486 21.8903 77.5457L62.1284 37.3076" stroke="#1BB4BF" stroke-width="4" stroke-linecap="round" stroke-linejoin="round"/>
<path id="Layer 2" fill-rule="evenodd" clip-rule="evenodd" d="M98.4728 42.8121C98.6877 43.5675 98.8288 44.3013 98.8761 44.9709L98.9819 46.466C99.1748 49.1928 97.8038 52.9308 95.916 54.8186L91.1547 59.5799C89.2685 61.4661 86.1427 61.3984 84.1718 59.4275L72.8899 48.1455L61.6079 36.8636C59.637 34.8927 59.5693 31.7669 61.4555 29.8807L66.2168 25.1194C68.1046 23.2315 71.8425 21.8606 74.5694 22.0535L76.0645 22.1593C76.7341 22.2066 77.4679 22.3477 78.2233 22.5626L86.3895 14.3964C91.9812 8.8047 101.047 8.8047 106.639 14.3964C112.231 19.9882 112.231 29.0542 106.639 34.6459L98.4728 42.8121V42.8121Z" stroke="#1BB4BF" stroke-width="4" stroke-linecap="round" stroke-linejoin="round"/>
<path id="Layer 4" d="M98.2077 42.414L79.3373 23.5436" stroke="#1BB4BF" stroke-width="4" stroke-linecap="round" stroke-linejoin="round"/>
</g>
</g>
</svg>
