<svg width="120" height="120" viewBox="0 0 120 120" fill="none" xmlns="http://www.w3.org/2000/svg">
<g id="potatos">
<g id="potatos_2">
<path id="Layer 1" d="M22.3379 13.7326L24.1593 12.9066C24.1255 12.832 24.0872 12.7597 24.0445 12.6898L22.3379 13.7326ZM37.6947 58.5143L39.4867 57.6262C39.483 57.6187 39.4792 57.6112 39.4754 57.6038L37.6947 58.5143ZM37.1019 59.4807L37.0168 57.4825L37.0168 57.4825L37.1019 59.4807ZM31.2402 59.7302L31.1895 61.7295C31.2348 61.7307 31.28 61.7303 31.3253 61.7283L31.2402 59.7302ZM26.1523 54.8783L24.3283 55.6987C24.3547 55.7573 24.3838 55.8146 24.4157 55.8704L26.1523 54.8783ZM19.5126 33.5908L17.5637 34.0403L17.5637 34.0403L19.5126 33.5908ZM11.8316 11.8567L10.0559 12.7771C10.0636 12.7919 10.0715 12.8066 10.0795 12.8212L11.8316 11.8567ZM12.4075 10.9086L12.4933 12.9067L12.4075 10.9086ZM15.9648 10.7559L16.0155 8.7565C15.97 8.75535 15.9245 8.75575 15.879 8.7577L15.9648 10.7559ZM61.4956 55.9906L63.4954 56.0144L61.4956 55.9906ZM64.666 82.1215L66.6138 81.6677C66.6119 81.6595 66.6099 81.6513 66.6079 81.6432L64.666 82.1215ZM63.8656 82.9331L63.5095 84.9011L63.5095 84.9011L63.8656 82.9331ZM58.0971 81.8895L57.608 83.8287C57.652 83.8398 57.6964 83.8494 57.741 83.8575L58.0971 81.8895ZM54.2583 76.0448L52.2948 76.4248C52.3071 76.4883 52.3224 76.5512 52.3408 76.6133L54.2583 76.0448ZM52.6964 53.8438L54.6964 53.8551L52.6964 53.8438ZM50.2229 30.9792L48.2837 31.4683C48.2878 31.4846 48.2921 31.5009 48.2966 31.5171L50.2229 30.9792ZM51.0026 30.1817L51.358 28.2135L51.0026 30.1817ZM54.5037 30.8138L54.9927 28.8745C54.9485 28.8633 54.9039 28.8537 54.859 28.8456L54.5037 30.8138ZM60.0268 35.1134L61.9892 34.7272C61.9732 34.6464 61.9523 34.5665 61.9266 34.4882L60.0268 35.1134ZM84.1706 104.362L86.1399 104.013C86.1384 104.005 86.1369 103.997 86.1353 103.988L84.1706 104.362ZM83.328 105.132L82.8713 107.079L82.8713 107.079L83.328 105.132ZM77.6232 103.794L77.035 105.705C77.0784 105.719 77.1222 105.731 77.1664 105.741L77.6232 103.794ZM74.1017 97.7601L72.1207 98.0349C72.1296 98.099 72.1416 98.1627 72.1567 98.2257L74.1017 97.7601ZM73.7273 75.5095L71.7308 75.3914L73.7273 75.5095ZM72.4781 52.5493L70.5155 52.9344C70.5187 52.9509 70.5222 52.9674 70.5258 52.9838L72.4781 52.5493ZM73.2993 51.7929L73.7553 49.8456L73.2993 51.7929ZM76.7618 52.6037L77.35 50.6921C77.3063 50.6787 77.2622 50.6668 77.2178 50.6564L76.7618 52.6037ZM82.0477 57.1808L84.0279 56.8998C84.0163 56.8181 83.9997 56.7372 83.9781 56.6576L82.0477 57.1808ZM59.4435 13.7827L59.2839 15.7763L59.4435 13.7827ZM86.2585 12.5055L85.9564 10.5284C85.9483 10.5297 85.9403 10.5309 85.9323 10.5323L86.2585 12.5055ZM87.0287 13.3447L88.9629 13.8535L88.9629 13.8535L87.0287 13.3447ZM85.5642 18.9124L87.4578 19.5561C87.4729 19.5116 87.4864 19.4666 87.4984 19.4212L85.5642 18.9124ZM79.3482 22.2583L79.5784 24.245C79.6403 24.2378 79.7019 24.2277 79.7629 24.2148L79.3482 22.2583ZM56.6449 22.2369L56.7926 20.2424L56.6449 22.2369ZM33.2027 23.0605L33.5395 25.032C33.5555 25.0292 33.5714 25.0263 33.5874 25.0232L33.2027 23.0605ZM32.4455 22.2425L30.5111 21.7345L30.5111 21.7345L32.4455 22.2425ZM33.3329 18.8632L31.4393 18.2195C31.4241 18.2643 31.4105 18.3095 31.3985 18.3552L33.3329 18.8632ZM38.094 13.7626L37.8578 11.7766C37.7789 11.786 37.7006 11.8001 37.6233 11.8188L38.094 13.7626ZM109.498 67.2053L110.85 65.7323C110.844 65.7267 110.838 65.7211 110.832 65.7156L109.498 67.2053ZM109.297 68.3168L108.511 66.4775L108.511 66.4775L109.297 68.3168ZM103.919 70.6134L104.577 72.502C104.62 72.4871 104.663 72.4706 104.705 72.4527L103.919 70.6134ZM97.4025 67.8721L95.9961 69.294C96.0412 69.3386 96.0884 69.3811 96.1376 69.4212L97.4025 67.8721ZM83.4422 50.3228L81.7883 51.4473L83.4422 50.3228ZM68.3476 32.7229L67.0212 34.2198C67.0335 34.2307 67.046 34.2415 67.0586 34.2521L68.3476 32.7229ZM68.539 31.6344L67.7528 29.7954L67.7528 29.7954L68.539 31.6344ZM71.8021 30.2394L71.144 28.3508C71.1007 28.3658 71.058 28.3824 71.0159 28.4004L71.8021 30.2394ZM78.8339 30.7766L80.2359 29.3504C80.1783 29.2937 80.1173 29.2406 80.0532 29.1913L78.8339 30.7766ZM26.9349 81.3108L24.9828 81.7461L24.9828 81.7461L26.9349 81.3108ZM36.0209 106.073L37.8136 105.186C37.8099 105.179 37.8062 105.171 37.8024 105.164L36.0209 106.073ZM35.4273 107.04L35.5142 109.038L35.5142 109.038L35.4273 107.04ZM29.5671 107.295L29.5183 109.295C29.5636 109.296 29.6089 109.295 29.6541 109.293L29.5671 107.295ZM24.4855 102.447L22.6607 103.266C22.6871 103.324 22.7162 103.382 22.7481 103.438L24.4855 102.447ZM17.8685 81.1592L15.9192 81.6067L17.8685 81.1592ZM10.2111 59.426L8.43472 60.3449C8.4424 60.3597 8.45027 60.3745 8.45832 60.3892L10.2111 59.426ZM10.7878 58.477L10.8755 60.4751L10.7878 58.477ZM14.3442 58.3209L14.3931 56.3215C14.3475 56.3204 14.302 56.3208 14.2565 56.3228L14.3442 58.3209ZM20.7125 61.2925L22.5347 60.4681C22.5009 60.3934 22.4625 60.3209 22.4199 60.2509L20.7125 61.2925ZM52.1066 85.1333L53.859 84.1695L53.859 84.1695L52.1066 85.1333ZM67.8039 106.481L69.2801 105.132C69.2745 105.126 69.2689 105.12 69.2632 105.114L67.8039 106.481ZM67.5053 107.572L66.8806 105.672L66.8806 105.672L67.5053 107.572ZM61.9439 109.4L62.4377 111.338C62.4818 111.327 62.5254 111.314 62.5686 111.3L61.9439 109.4ZM55.6957 106.112L54.1704 107.406C54.2116 107.455 54.2551 107.501 54.3007 107.546L55.6957 106.112ZM43.3489 87.4372L45.0953 86.4625L45.0953 86.4625L43.3489 87.4372ZM29.8766 68.6148L28.4249 69.9904C28.4362 70.0024 28.4478 70.0143 28.4594 70.026L29.8766 68.6148ZM30.1641 67.5467L29.5387 65.647L30.1641 67.5467ZM33.5388 66.4358L33.045 64.4977C33.0007 64.509 32.9568 64.5218 32.9134 64.5361L33.5388 66.4358ZM40.496 67.5717L42.0173 66.2733C41.9646 66.2116 41.9083 66.1532 41.8485 66.0984L40.496 67.5717ZM22.3379 13.7326C20.5164 14.5587 20.5163 14.5584 20.5162 14.5582C20.5162 14.5582 20.5161 14.558 20.5161 14.5579C20.516 14.5578 20.516 14.5578 20.5161 14.5579C20.5162 14.5581 20.5165 14.5587 20.517 14.5599C20.518 14.5621 20.5199 14.5662 20.5225 14.5722C20.5279 14.5841 20.5365 14.6034 20.5482 14.6299C20.5717 14.6831 20.6077 14.7653 20.6552 14.8758C20.7502 15.097 20.8914 15.4315 21.0704 15.8738C21.4286 16.7583 21.9383 18.0729 22.5347 19.7714C23.7276 23.1691 25.2655 28.098 26.6301 34.1882L30.5333 33.3136C29.1297 27.0492 27.5456 21.969 26.3088 18.4462C25.6902 16.6845 25.158 15.311 24.778 14.3725C24.588 13.9032 24.4359 13.5425 24.3301 13.2963C24.2772 13.1732 24.2358 13.0786 24.207 13.0135C24.1926 12.9809 24.1813 12.9556 24.1734 12.9377C24.1694 12.9288 24.1662 12.9218 24.1638 12.9166C24.1627 12.914 24.1617 12.9118 24.161 12.9102C24.1606 12.9093 24.1603 12.9086 24.16 12.908C24.1599 12.9077 24.1597 12.9074 24.1596 12.9072C24.1595 12.9069 24.1593 12.9066 22.3379 13.7326ZM26.6301 34.1882C28.0498 40.5243 30.3756 46.8345 32.3296 51.5334C33.3093 53.8895 34.2017 55.8548 34.8503 57.2337C35.1748 57.9234 35.4386 58.467 35.6223 58.8402C35.7141 59.0268 35.786 59.1708 35.8354 59.2693C35.8601 59.3185 35.8792 59.3563 35.8924 59.3823C35.899 59.3954 35.9041 59.4054 35.9077 59.4125C35.9095 59.4161 35.911 59.4189 35.912 59.4209C35.9125 59.4219 35.9129 59.4227 35.9133 59.4234C35.9134 59.4237 35.9136 59.4241 35.9137 59.4242C35.9138 59.4245 35.914 59.4247 37.6947 58.5143C39.4754 57.6038 39.4755 57.6039 39.4756 57.604C39.4755 57.604 39.4756 57.604 39.4755 57.604C39.4755 57.6039 39.4753 57.6036 39.4751 57.6031C39.4746 57.6021 39.4737 57.6004 39.4724 57.5979C39.4699 57.593 39.4659 57.5851 39.4604 57.5742C39.4494 57.5525 39.4326 57.5192 39.4101 57.4745C39.3653 57.3851 39.2981 57.2505 39.2111 57.0737C39.037 56.72 38.7835 56.1977 38.4698 55.531C37.8423 54.1971 36.9755 52.288 36.023 49.9976C34.1126 45.4034 31.8818 39.3319 30.5333 33.3136L26.6301 34.1882ZM35.9027 59.4023C35.8027 59.2007 35.6661 58.6805 36.0063 58.1291C36.3362 57.5943 36.8318 57.4904 37.0168 57.4825L37.1869 61.4789C37.9465 61.4466 38.8647 61.114 39.4105 60.2294C39.9665 59.3281 39.839 58.3369 39.4867 57.6262L35.9027 59.4023ZM37.0168 57.4825L31.1552 57.732L31.3253 61.7283L37.1869 61.4789L37.0168 57.4825ZM31.291 57.7308C30.7168 57.7162 30.4114 57.627 30.2404 57.5492C30.0873 57.4796 29.943 57.3752 29.7601 57.1526C29.552 56.8994 29.3303 56.5398 29.0152 55.9604C28.7282 55.4329 28.3362 54.6692 27.8889 53.8863L24.4157 55.8704C24.8421 56.6168 25.144 57.2147 25.5013 57.8716C25.8304 58.4767 26.2032 59.1245 26.6697 59.6922C27.1615 60.2906 27.7722 60.8209 28.5842 61.1903C29.3783 61.5515 30.2482 61.7056 31.1895 61.7295L31.291 57.7308ZM26.1523 54.8783C27.9763 54.058 27.9764 54.0582 27.9765 54.0584C27.9765 54.0585 27.9766 54.0586 27.9766 54.0587C27.9767 54.0588 27.9767 54.0588 27.9767 54.0587C27.9765 54.0585 27.9762 54.0578 27.9757 54.0566C27.9746 54.0543 27.9727 54.05 27.97 54.0438C27.9645 54.0314 27.9557 54.0115 27.9436 53.9839C27.9195 53.9289 27.8825 53.8437 27.8336 53.729C27.7358 53.4994 27.5904 53.1517 27.4052 52.6903C27.0348 51.7676 26.5052 50.3907 25.8789 48.5973C24.6262 45.0099 22.9875 39.7583 21.4614 33.1413L17.5637 34.0403C19.1263 40.8155 20.8076 46.2077 22.1025 49.916C22.7501 51.7704 23.3013 53.2044 23.6932 54.1806C23.8891 54.6686 24.0453 55.0423 24.1537 55.2969C24.208 55.4242 24.2503 55.5217 24.2797 55.5889C24.2944 55.6224 24.3059 55.6484 24.314 55.6668C24.3181 55.6759 24.3213 55.6832 24.3237 55.6885C24.3249 55.6912 24.3259 55.6933 24.3267 55.695C24.327 55.6959 24.3274 55.6966 24.3276 55.6972C24.3278 55.6975 24.3279 55.6979 24.328 55.6981C24.3282 55.6984 24.3283 55.6987 26.1523 54.8783ZM21.4614 33.1413C19.8891 26.3239 17.9332 20.7875 16.3656 16.946C15.5815 15.0246 14.8937 13.5253 14.3983 12.4996C14.1506 11.9866 13.9509 11.592 13.8111 11.322C13.7413 11.187 13.6864 11.0831 13.648 11.0112C13.6288 10.9753 13.6137 10.9473 13.6029 10.9275C13.5975 10.9175 13.5932 10.9096 13.59 10.9037C13.5884 10.9008 13.587 10.8984 13.586 10.8964C13.5855 10.8955 13.585 10.8946 13.5846 10.8939C13.5844 10.8936 13.5842 10.8932 13.5841 10.893C13.5839 10.8926 13.5837 10.8922 11.8316 11.8567C10.0795 12.8212 10.0794 12.8209 10.0792 12.8207C10.0792 12.8206 10.0791 12.8204 10.079 12.8203C10.0789 12.8201 10.0789 12.82 10.0789 12.8201C10.079 12.8202 10.0793 12.8208 10.0799 12.8219C10.0811 12.8242 10.0835 12.8284 10.0869 12.8347C10.0936 12.8472 10.1047 12.8677 10.1199 12.8961C10.1503 12.953 10.1971 13.0414 10.2588 13.1607C10.3822 13.3992 10.5654 13.7608 10.7965 14.2392C11.2586 15.1961 11.912 16.6192 12.6621 18.4573C14.1627 22.1348 16.0473 27.4654 17.5637 34.0403L21.4614 33.1413ZM13.6073 10.9364C13.698 11.1115 13.8707 11.6466 13.5173 12.2349C13.1715 12.8104 12.6436 12.9003 12.4933 12.9067L12.3218 8.91042C11.5854 8.94203 10.6402 9.25653 10.0884 10.1751C9.52887 11.1065 9.70662 12.1031 10.0559 12.7771L13.6073 10.9364ZM12.4933 12.9067L16.0506 12.754L15.879 8.7577L12.3218 8.91042L12.4933 12.9067ZM15.9141 12.7552C17.6367 12.7989 18.3161 12.7867 18.9089 12.9976C19.2931 13.1342 19.8165 13.4419 20.6313 14.7754L24.0445 12.6898C22.9695 10.9304 21.8217 9.78817 20.2496 9.22891C18.8861 8.74388 17.3238 8.78969 16.0155 8.7565L15.9141 12.7552ZM59.4957 55.9667C59.4184 62.4533 60.2298 69.1134 61.0505 74.1218C61.462 76.633 61.8784 78.7443 62.1926 80.2305C62.3498 80.9739 62.4815 81.5617 62.5745 81.9658C62.621 82.1679 62.6578 82.324 62.6832 82.4309C62.696 82.4843 62.7059 82.5253 62.7127 82.5536C62.7162 82.5678 62.7188 82.5787 62.7207 82.5864C62.7217 82.5903 62.7224 82.5933 62.723 82.5955C62.7232 82.5967 62.7234 82.5976 62.7236 82.5983C62.7237 82.5986 62.7238 82.599 62.7238 82.5992C62.7239 82.5995 62.724 82.5998 64.666 82.1215C66.6079 81.6432 66.608 81.6433 66.608 81.6434C66.608 81.6434 66.608 81.6435 66.608 81.6434C66.608 81.6433 66.6079 81.643 66.6077 81.6424C66.6075 81.6414 66.607 81.6395 66.6064 81.6368C66.6051 81.6315 66.603 81.6229 66.6001 81.6111C66.5944 81.5876 66.5857 81.5514 66.5741 81.503C66.551 81.4061 66.5166 81.2602 66.4726 81.0689C66.3845 80.6861 66.258 80.1216 66.1061 79.4033C65.8023 77.966 65.3978 75.9157 64.9979 73.475C64.1957 68.5795 63.422 62.1743 63.4954 56.0144L59.4957 55.9667ZM62.7181 82.5752C62.6653 82.3485 62.6569 81.8171 63.1055 81.3645C63.5396 80.9265 64.0367 80.9316 64.2216 80.965L63.5095 84.9011C64.2599 85.0369 65.2214 84.9118 65.9464 84.1804C66.686 83.4342 66.7951 82.4459 66.6138 81.6677L62.7181 82.5752ZM64.2216 80.965L58.4531 79.9214L57.741 83.8575L63.5095 84.9011L64.2216 80.965ZM58.5861 79.9502C58.0305 79.81 57.7565 79.6569 57.6116 79.5464C57.483 79.4484 57.3695 79.3193 57.2443 79.0657C57.1012 78.7758 56.9686 78.3789 56.7952 77.7451C56.6374 77.1689 56.4312 76.3376 56.1758 75.4763L52.3408 76.6133C52.5841 77.434 52.7402 78.0818 52.9371 78.8011C53.1182 79.463 53.3326 80.1782 53.6576 80.8365C54.0005 81.5309 54.4762 82.186 55.1867 82.7276C55.881 83.2568 56.696 83.5987 57.608 83.8287L58.5861 79.9502ZM54.2583 76.0448C56.2219 75.6648 56.222 75.6651 56.222 75.6653C56.222 75.6653 56.222 75.6655 56.2221 75.6656C56.2221 75.6657 56.2221 75.6657 56.2221 75.6656C56.222 75.6654 56.2219 75.6646 56.2216 75.6634C56.2212 75.6609 56.2203 75.6563 56.219 75.6497C56.2165 75.6365 56.2126 75.6151 56.2072 75.5856C56.1964 75.5268 56.18 75.4357 56.1588 75.3132C56.1164 75.0682 56.055 74.6975 55.9809 74.2074C55.8327 73.2272 55.6341 71.7695 55.4374 69.8846C55.0439 66.1144 54.6579 60.6377 54.6964 53.8551L50.6964 53.8325C50.6571 60.7778 51.0521 66.4016 51.459 70.2999C51.6625 72.2493 51.869 73.7679 52.0258 74.8053C52.1042 75.3241 52.1702 75.7226 52.2173 75.9946C52.2408 76.1306 52.2595 76.2349 52.2727 76.3069C52.2793 76.3429 52.2845 76.3708 52.2882 76.3904C52.2901 76.4003 52.2916 76.4081 52.2927 76.4138C52.2932 76.4167 52.2937 76.419 52.294 76.4208C52.2942 76.4218 52.2943 76.4225 52.2945 76.4232C52.2945 76.4235 52.2946 76.4239 52.2946 76.4241C52.2947 76.4244 52.2948 76.4248 54.2583 76.0448ZM54.6964 53.8551C54.736 46.8664 54.1065 41.0415 53.4646 36.9533C53.1436 34.9085 52.8191 33.2962 52.5727 32.1875C52.4496 31.6332 52.3459 31.2045 52.272 30.9106C52.235 30.7636 52.2054 30.6503 52.1845 30.5717C52.1741 30.5324 52.1658 30.5018 52.1599 30.48C52.1569 30.4691 52.1545 30.4605 52.1528 30.454C52.1519 30.4508 52.1511 30.4481 52.1505 30.446C52.1503 30.4449 52.15 30.444 52.1498 30.4432C52.1497 30.4428 52.1495 30.4424 52.1495 30.4422C52.1494 30.4417 52.1492 30.4413 50.2229 30.9792C48.2966 31.5171 48.2965 31.5168 48.2964 31.5164C48.2964 31.5164 48.2964 31.5161 48.2963 31.516C48.2963 31.5158 48.2962 31.5157 48.2963 31.5158C48.2963 31.5159 48.2965 31.5165 48.2968 31.5178C48.2975 31.5202 48.2988 31.5248 48.3006 31.5316C48.3043 31.5453 48.3104 31.5677 48.3186 31.5986C48.3351 31.6606 48.3602 31.757 48.3929 31.8866C48.4581 32.146 48.5532 32.5384 48.668 33.0551C48.8976 34.0886 49.206 35.6184 49.513 37.5738C50.1273 41.4859 50.7346 47.0933 50.6964 53.8325L54.6964 53.8551ZM52.1622 30.4901C52.2124 30.6893 52.2521 31.2434 51.782 31.729C51.3234 32.2027 50.7984 32.1772 50.6473 32.1499L51.358 28.2135C50.63 28.0821 49.6467 28.1839 48.9083 28.9466C48.1582 29.7213 48.0965 30.7262 48.2837 31.4683L52.1622 30.4901ZM50.6473 32.1499L54.1484 32.7819L54.859 28.8456L51.358 28.2135L50.6473 32.1499ZM54.0146 32.753C55.685 33.1743 56.3461 33.3109 56.8714 33.6442C57.206 33.8565 57.6415 34.2632 58.127 35.7386L61.9266 34.4882C61.2837 32.5348 60.4254 31.1619 59.0144 30.2666C57.794 29.4924 56.2577 29.1935 54.9927 28.8745L54.0146 32.753ZM60.0268 35.1134C58.0644 35.4995 58.0644 35.4993 58.0643 35.499C58.0643 35.499 58.0643 35.4988 58.0643 35.4987C58.0642 35.4986 58.0642 35.4986 58.0643 35.4987C58.0643 35.4989 58.0644 35.4996 58.0647 35.5008C58.0651 35.5032 58.066 35.5076 58.0672 35.514C58.0697 35.5267 58.0736 35.5474 58.0789 35.5758C58.0895 35.6326 58.1056 35.7206 58.1264 35.8387C58.168 36.0749 58.2284 36.4318 58.3009 36.9019C58.4459 37.8422 58.6394 39.2349 58.8289 41.0206C59.2079 44.5929 59.5701 49.733 59.4957 55.9667L63.4954 56.0144C63.5719 49.6018 63.1997 44.3033 62.8066 40.5986C62.61 38.7458 62.4081 37.2904 62.2541 36.2922C62.1771 35.7931 62.1121 35.4081 62.0658 35.1448C62.0426 35.0132 62.024 34.9119 62.011 34.842C62.0045 34.8071 61.9993 34.78 61.9957 34.7608C61.9938 34.7512 61.9923 34.7436 61.9913 34.738C61.9907 34.7352 61.9903 34.7329 61.9899 34.7311C61.9897 34.7302 61.9896 34.7295 61.9895 34.7288C61.9894 34.7285 61.9893 34.7281 61.9893 34.7279C61.9892 34.7276 61.9892 34.7272 60.0268 35.1134ZM80.4041 77.9741C79.9805 84.4478 80.4353 91.1405 80.9874 96.1842C81.2643 98.7131 81.5674 100.843 81.8018 102.343C81.919 103.094 82.0192 103.687 82.0905 104.096C82.1261 104.3 82.1545 104.458 82.1743 104.566C82.1841 104.62 82.1918 104.661 82.1972 104.69C82.1998 104.704 82.2019 104.715 82.2034 104.723C82.2041 104.727 82.2047 104.73 82.2051 104.732C82.2053 104.733 82.2055 104.734 82.2057 104.735C82.2057 104.735 82.2058 104.736 82.2058 104.736C82.2059 104.736 82.2059 104.737 84.1706 104.362C86.1353 103.988 86.1354 103.988 86.1354 103.989C86.1354 103.989 86.1354 103.989 86.1354 103.989C86.1354 103.988 86.1353 103.988 86.1352 103.988C86.135 103.986 86.1346 103.985 86.1341 103.982C86.1331 103.976 86.1315 103.968 86.1293 103.956C86.1248 103.932 86.118 103.896 86.1091 103.847C86.0912 103.749 86.0646 103.601 86.0309 103.408C85.9634 103.021 85.8671 102.451 85.7538 101.726C85.5272 100.275 85.2327 98.2067 84.9637 95.7489C84.424 90.819 83.9933 84.3829 84.3956 78.2353L80.4041 77.9741ZM82.2014 104.712C82.1606 104.482 82.1812 103.952 82.6512 103.525C83.1061 103.112 83.6008 103.142 83.7847 103.185L82.8713 107.079C83.6144 107.253 84.5799 107.177 85.341 106.486C86.1172 105.78 86.2796 104.801 86.1399 104.013L82.2014 104.712ZM83.7847 103.185L78.0799 101.847L77.1664 105.741L82.8713 107.079L83.7847 103.185ZM78.2114 101.882C77.6642 101.714 77.3995 101.547 77.2615 101.43C77.1392 101.326 77.0332 101.192 76.9219 100.933C76.7947 100.637 76.6835 100.234 76.5441 99.5921C76.4174 99.0087 76.2558 98.1679 76.0468 97.2946L72.1567 98.2257C72.3558 99.0577 72.477 99.7125 72.6353 100.441C72.7808 101.111 72.9568 101.837 73.2464 102.511C73.5519 103.223 73.9925 103.902 74.674 104.48C75.3399 105.045 76.1362 105.429 77.035 105.705L78.2114 101.882ZM74.1017 97.7601C76.0828 97.4854 76.0828 97.4857 76.0828 97.4859C76.0829 97.486 76.0829 97.4862 76.0829 97.4862C76.0829 97.4864 76.0829 97.4864 76.0829 97.4863C76.0829 97.486 76.0828 97.4853 76.0826 97.484C76.0822 97.4815 76.0816 97.4769 76.0807 97.4702C76.0789 97.4569 76.0761 97.4353 76.0723 97.4057C76.0647 97.3463 76.0531 97.2546 76.0385 97.1311C76.0093 96.8843 75.9677 96.511 75.9199 96.0178C75.8243 95.0313 75.7038 93.5655 75.608 91.6731C75.4163 87.8879 75.3233 82.3989 75.7238 75.6276L71.7308 75.3914C71.3207 82.3252 71.4149 87.9615 71.6131 91.8754C71.7122 93.8325 71.8373 95.3597 71.9386 96.4038C71.9892 96.9258 72.0338 97.3272 72.0663 97.6012C72.0825 97.7383 72.0956 97.8435 72.105 97.916C72.1096 97.9523 72.1133 97.9804 72.116 98.0002C72.1173 98.0102 72.1184 98.018 72.1192 98.0238C72.1196 98.0267 72.1199 98.029 72.1201 98.0309C72.1203 98.0318 72.1204 98.0326 72.1205 98.0333C72.1205 98.0336 72.1206 98.034 72.1206 98.0342C72.1207 98.0345 72.1207 98.0349 74.1017 97.7601ZM75.7238 75.6276C76.1365 68.6505 75.819 62.8012 75.3962 58.6856C75.1848 56.6271 74.9468 55.0003 74.76 53.8805C74.6666 53.3205 74.586 52.8872 74.5278 52.5898C74.4987 52.4411 74.4752 52.3264 74.4586 52.2468C74.4503 52.2071 74.4436 52.1761 74.4389 52.154C74.4365 52.143 74.4346 52.1342 74.4331 52.1277C74.4324 52.1244 74.4318 52.1217 74.4313 52.1195C74.4311 52.1185 74.4309 52.1175 74.4307 52.1167C74.4306 52.1164 74.4305 52.1159 74.4305 52.1157C74.4304 52.1152 74.4303 52.1148 72.4781 52.5493C70.5258 52.9838 70.5258 52.9835 70.5257 52.9832C70.5257 52.9831 70.5256 52.9829 70.5256 52.9827C70.5255 52.9825 70.5255 52.9824 70.5255 52.9825C70.5256 52.9826 70.5257 52.9833 70.526 52.9845C70.5265 52.987 70.5275 52.9916 70.529 52.9986C70.532 53.0124 70.5369 53.035 70.5434 53.0664C70.5566 53.1291 70.5765 53.2266 70.6022 53.3577C70.6535 53.62 70.7275 54.0168 70.8145 54.5386C70.9886 55.5824 71.215 57.1259 71.4172 59.0943C71.8217 63.0326 72.1288 68.6634 71.7308 75.3914L75.7238 75.6276ZM74.4407 52.1643C74.4804 52.3669 74.4897 52.9208 73.9964 53.3796C73.5152 53.8271 72.9938 53.7755 72.8433 53.7402L73.7553 49.8456C73.0343 49.6768 72.0484 49.7287 71.2722 50.4506C70.484 51.1837 70.368 52.1825 70.5155 52.9344L74.4407 52.1643ZM72.8433 53.7402L76.3058 54.551L77.2178 50.6564L73.7553 49.8456L72.8433 53.7402ZM76.1736 54.5153C77.8197 55.0218 78.4716 55.1919 78.9775 55.551C79.2987 55.779 79.7114 56.2061 80.1174 57.704L83.9781 56.6576C83.4404 54.6736 82.656 53.257 81.2931 52.2894C80.1149 51.4529 78.5957 51.0754 77.35 50.6921L76.1736 54.5153ZM82.0477 57.1808C80.0676 57.4617 80.0675 57.4614 80.0675 57.4612C80.0675 57.4612 80.0675 57.461 80.0675 57.4609C80.0674 57.4607 80.0674 57.4607 80.0675 57.4608C80.0675 57.461 80.0676 57.4618 80.0678 57.463C80.0681 57.4654 80.0687 57.4698 80.0696 57.4763C80.0713 57.4891 80.0742 57.5099 80.0779 57.5386C80.0855 57.5959 80.0969 57.6845 80.1114 57.8035C80.1403 58.0416 80.1815 58.4011 80.2288 58.8742C80.3234 59.8206 80.4424 61.2213 80.5362 63.0143C80.724 66.6011 80.8112 71.7528 80.4041 77.9741L84.3956 78.2353C84.8143 71.8354 84.7255 66.525 84.5308 62.8052C84.4334 60.9449 84.3094 59.4811 84.209 58.4763C84.1588 57.9739 84.1144 57.5861 84.0821 57.3208C84.066 57.1882 84.0529 57.0861 84.0436 57.0156C84.039 56.9804 84.0353 56.953 84.0326 56.9337C84.0313 56.924 84.0302 56.9163 84.0294 56.9107C84.0291 56.9079 84.0287 56.9056 84.0285 56.9038C84.0283 56.9028 84.0282 56.9021 84.0281 56.9014C84.0281 56.9011 84.028 56.9007 84.028 56.9005C84.028 56.9002 84.0279 56.8998 82.0477 57.1808ZM59.2839 15.7763C65.8703 16.3037 72.6975 15.9754 77.8486 15.5225C80.431 15.2955 82.6069 15.0358 84.1401 14.8325C84.9069 14.7308 85.5136 14.6431 85.9307 14.5804C86.1393 14.5491 86.3006 14.5241 86.4108 14.5066C86.4659 14.4979 86.5082 14.4911 86.5374 14.4864C86.5519 14.4841 86.5632 14.4822 86.5711 14.4809C86.5751 14.4803 86.5782 14.4798 86.5804 14.4794C86.5816 14.4792 86.5825 14.4791 86.5832 14.479C86.5836 14.4789 86.5839 14.4788 86.5841 14.4788C86.5844 14.4788 86.5847 14.4787 86.2585 12.5055C85.9323 10.5323 85.9325 10.5322 85.9326 10.5322C85.9326 10.5322 85.9326 10.5322 85.9325 10.5322C85.9324 10.5323 85.932 10.5323 85.9315 10.5324C85.9304 10.5326 85.9284 10.5329 85.9256 10.5334C85.92 10.5343 85.911 10.5358 85.8988 10.5377C85.8744 10.5417 85.8368 10.5477 85.7865 10.5557C85.686 10.5715 85.5349 10.595 85.3368 10.6248C84.9405 10.6843 84.3565 10.7687 83.6141 10.8672C82.1288 11.0642 80.0122 11.3169 77.4983 11.5379C72.4569 11.9811 65.8767 12.2914 59.6032 11.7891L59.2839 15.7763ZM86.5607 14.4825C86.3652 14.5124 85.8562 14.4984 85.4343 14.0363C85.0086 13.57 85.0383 13.0496 85.0945 12.836L88.9629 13.8535C89.1626 13.0941 89.0924 12.1104 88.3883 11.3393C87.6879 10.5721 86.7221 10.4114 85.9564 10.5284L86.5607 14.4825ZM85.0945 12.836L83.63 18.4037L87.4984 19.4212L88.9629 13.8535L85.0945 12.836ZM83.6706 18.2687C83.4928 18.7917 83.3227 19.0407 83.204 19.1705C83.0967 19.2878 82.9539 19.3938 82.6761 19.5029C82.3628 19.6259 81.9419 19.7292 81.2835 19.8549C80.6821 19.9697 79.8267 20.1124 78.9334 20.3018L79.7629 24.2148C80.6162 24.0339 81.2914 23.9256 82.0334 23.784C82.7183 23.6533 83.4533 23.4949 84.1376 23.2263C84.8574 22.9438 85.5537 22.5284 86.1559 21.8698C86.7468 21.2237 87.1565 20.4424 87.4578 19.5561L83.6706 18.2687ZM79.3482 22.2583C79.118 20.2716 79.1183 20.2715 79.1185 20.2715C79.1185 20.2715 79.1187 20.2715 79.1188 20.2715C79.1189 20.2715 79.1189 20.2715 79.1187 20.2715C79.1185 20.2715 79.1176 20.2716 79.1163 20.2718C79.1136 20.2721 79.1088 20.2726 79.1019 20.2734C79.0881 20.2749 79.0659 20.2774 79.0353 20.2806C78.9743 20.2871 78.8801 20.2968 78.7536 20.309C78.5005 20.3334 78.1181 20.3677 77.6133 20.406C76.6037 20.4827 75.1046 20.5753 73.1707 20.6362C69.3024 20.7581 63.6974 20.7534 56.7926 20.2424L56.4973 24.2314C63.5582 24.7541 69.3048 24.76 73.2967 24.6342C75.2929 24.5713 76.851 24.4754 77.9161 24.3946C78.4487 24.3541 78.8581 24.3175 79.1374 24.2905C79.277 24.2771 79.3842 24.266 79.458 24.2582C79.4949 24.2543 79.5234 24.2512 79.5435 24.2489C79.5536 24.2478 79.5615 24.2469 79.5673 24.2463C79.5702 24.2459 79.5726 24.2457 79.5744 24.2454C79.5754 24.2453 79.5761 24.2453 79.5768 24.2452C79.5771 24.2451 79.5775 24.2451 79.5777 24.2451C79.578 24.245 79.5784 24.245 79.3482 22.2583ZM56.7926 20.2424C49.6901 19.7167 43.7246 19.9256 39.5243 20.2677C37.4235 20.4388 35.7623 20.6433 34.619 20.8065C34.0472 20.8882 33.6048 20.9595 33.3014 21.0111C33.1498 21.0369 33.0328 21.0579 32.9518 21.0727C32.9114 21.0801 32.8799 21.086 32.8575 21.0903C32.8463 21.0924 32.8374 21.0941 32.8309 21.0954C32.8276 21.096 32.8248 21.0965 32.8227 21.0969C32.8216 21.0972 32.8207 21.0973 32.8199 21.0975C32.8195 21.0976 32.8191 21.0977 32.8189 21.0977C32.8184 21.0978 32.818 21.0979 33.2027 23.0605C33.5874 25.0232 33.587 25.0232 33.5867 25.0233C33.5867 25.0233 33.5864 25.0234 33.5863 25.0234C33.5861 25.0234 33.5861 25.0234 33.5861 25.0234C33.5863 25.0234 33.5871 25.0232 33.5884 25.023C33.591 25.0225 33.5959 25.0215 33.6031 25.0202C33.6175 25.0174 33.6409 25.0131 33.6732 25.0071C33.7379 24.9953 33.8382 24.9773 33.9729 24.9544C34.2423 24.9085 34.6493 24.8428 35.1842 24.7664C36.2542 24.6137 37.835 24.4185 39.849 24.2545C43.8785 23.9263 49.634 23.7234 56.4973 24.2314L56.7926 20.2424ZM32.8659 21.0891C33.0354 21.0601 33.5676 21.0471 34.0195 21.5306C34.4804 22.0236 34.4271 22.5706 34.3799 22.7505L30.5111 21.7345C30.3176 22.4711 30.3619 23.4752 31.0974 24.262C31.824 25.0393 32.8079 25.1569 33.5395 25.032L32.8659 21.0891ZM34.3799 22.7505L35.2673 19.3712L31.3985 18.3552L30.5111 21.7345L34.3799 22.7505ZM35.2265 19.5069C35.774 17.8962 35.9541 17.2767 36.3221 16.7966C36.5583 16.4885 37.0095 16.0831 38.5647 15.7064L37.6233 11.8188C35.6104 12.3063 34.1601 13.0419 33.1473 14.3634C32.2663 15.5129 31.8499 17.0117 31.4393 18.2195L35.2265 19.5069ZM38.094 13.7626C38.3302 15.7486 38.3299 15.7486 38.3297 15.7487C38.3297 15.7487 38.3295 15.7487 38.3294 15.7487C38.3293 15.7487 38.3293 15.7487 38.3294 15.7487C38.3297 15.7487 38.3305 15.7486 38.3317 15.7484C38.3343 15.7481 38.339 15.7476 38.3456 15.7468C38.3589 15.7453 38.3804 15.7429 38.4099 15.7397C38.4689 15.7332 38.5599 15.7235 38.6819 15.7114C38.926 15.6871 39.2942 15.6529 39.7786 15.6148C40.7473 15.5384 42.18 15.4462 44.0126 15.3854C47.6785 15.2639 52.9397 15.2684 59.2839 15.7763L59.6032 11.7891C53.0875 11.2674 47.6739 11.2618 43.88 11.3876C41.9827 11.4505 40.4893 11.5464 39.4643 11.6271C38.9518 11.6675 38.5563 11.7042 38.2859 11.7311C38.1507 11.7445 38.0468 11.7555 37.9751 11.7634C37.9392 11.7673 37.9115 11.7704 37.8919 11.7726C37.8821 11.7738 37.8744 11.7747 37.8687 11.7753C37.8658 11.7756 37.8635 11.7759 37.8617 11.7761C37.8608 11.7762 37.86 11.7763 37.8594 11.7764C37.8591 11.7764 37.8587 11.7765 37.8585 11.7765C37.8582 11.7766 37.8578 11.7766 38.094 13.7626ZM90.3009 48.3938C93.9355 53.8111 98.4058 58.8857 101.942 62.5867C103.715 64.4423 105.264 65.9638 106.372 67.0233C106.926 67.5532 107.371 67.968 107.678 68.2519C107.832 68.3938 107.951 68.503 108.033 68.5775C108.074 68.6147 108.106 68.6433 108.127 68.6629C108.138 68.6728 108.147 68.6804 108.153 68.6857C108.156 68.6884 108.158 68.6905 108.16 68.692C108.161 68.6928 108.161 68.6934 108.162 68.6939C108.162 68.6941 108.162 68.6944 108.163 68.6945C108.163 68.6947 108.163 68.6949 109.498 67.2053C110.832 65.7156 110.832 65.7157 110.832 65.7158C110.832 65.7158 110.832 65.7158 110.832 65.7158C110.832 65.7157 110.832 65.7155 110.831 65.7151C110.831 65.7144 110.829 65.713 110.827 65.7112C110.823 65.7074 110.816 65.7014 110.807 65.6932C110.789 65.6768 110.761 65.6515 110.724 65.6177C110.649 65.5499 110.537 65.4477 110.392 65.3131C110.1 65.0438 109.673 64.645 109.137 64.1324C108.064 63.1069 106.559 61.6282 104.834 59.8233C101.375 56.2032 97.0776 51.3149 93.6226 46.1652L90.3009 48.3938ZM108.145 68.6782C107.988 68.5346 107.668 68.1032 107.786 67.4615C107.901 66.8322 108.337 66.5522 108.511 66.4775L110.082 70.1561C110.785 69.8563 111.531 69.2139 111.72 68.1818C111.911 67.1373 111.428 66.2626 110.85 65.7323L108.145 68.6782ZM108.511 66.4775L103.134 68.7742L104.705 72.4527L110.082 70.1561L108.511 66.4775ZM103.261 68.7248C102.722 68.9127 102.405 68.9373 102.215 68.9247C102.043 68.9133 101.866 68.8653 101.61 68.7192C101.32 68.554 100.98 68.2941 100.474 67.8636C100.013 67.4709 99.3701 66.8966 98.6675 66.3229L96.1376 69.4212C96.808 69.9687 97.3091 70.4221 97.881 70.9091C98.4086 71.3583 98.9903 71.8302 99.6294 72.1944C100.302 72.5779 101.061 72.8569 101.95 72.9159C102.821 72.9736 103.689 72.8118 104.577 72.502L103.261 68.7248ZM97.4025 67.8721C98.809 66.4501 98.8092 66.4503 98.8093 66.4505C98.8094 66.4505 98.8095 66.4507 98.8096 66.4507C98.8096 66.4508 98.8096 66.4508 98.8096 66.4507C98.8094 66.4505 98.8088 66.45 98.8079 66.449C98.806 66.4472 98.8026 66.4438 98.7978 66.439C98.7881 66.4293 98.7726 66.4137 98.7512 66.3922C98.7086 66.3492 98.6429 66.2826 98.5553 66.1925C98.3802 66.0123 98.1175 65.7384 97.7762 65.3725C97.0936 64.6405 96.0969 63.5403 94.858 62.0849C92.3798 59.1737 88.9345 54.8436 85.0961 49.1982L81.7883 51.4473C85.7171 57.2256 89.2519 61.6701 91.8121 64.6777C93.0924 66.1817 94.1294 67.3269 94.8508 68.1004C95.2115 68.4872 95.4933 68.7812 95.6872 68.9806C95.7841 69.0804 95.8591 69.1565 95.911 69.2088C95.9369 69.2349 95.957 69.2551 95.9713 69.2693C95.9784 69.2764 95.984 69.2821 95.9882 69.2862C95.9902 69.2882 95.9919 69.2899 95.9933 69.2912C95.9939 69.2919 95.9945 69.2924 95.995 69.2929C95.9952 69.2931 95.9955 69.2934 95.9956 69.2935C95.9959 69.2938 95.9961 69.294 97.4025 67.8721ZM85.0961 49.1982C81.1433 43.3846 77.3 38.9024 74.4373 35.8668C73.0054 34.3485 71.8173 33.1904 70.9815 32.4071C70.5635 32.0154 70.2335 31.7173 70.0048 31.5144C69.8905 31.413 69.8015 31.3355 69.7396 31.2819C69.7086 31.2552 69.6844 31.2344 69.6672 31.2197C69.6586 31.2123 69.6517 31.2065 69.6466 31.2021C69.644 31.2 69.6419 31.1982 69.6402 31.1968C69.6394 31.1961 69.6387 31.1955 69.6381 31.1949C69.6378 31.1947 69.6374 31.1944 69.6372 31.1942C69.6369 31.1939 69.6366 31.1937 68.3476 32.7229C67.0586 34.2521 67.0584 34.2519 67.0581 34.2517C67.0581 34.2517 67.0579 34.2515 67.0578 34.2514C67.0576 34.2513 67.0576 34.2513 67.0576 34.2513C67.0577 34.2514 67.0583 34.2519 67.0593 34.2527C67.0613 34.2544 67.065 34.2576 67.0705 34.2623C67.0815 34.2716 67.0994 34.2869 67.124 34.3082C67.1731 34.3507 67.2492 34.417 67.3504 34.5068C67.5528 34.6863 67.8559 34.96 68.2463 35.3258C69.027 36.0575 70.1563 37.1575 71.5272 38.6112C74.27 41.5196 77.974 45.8373 81.7883 51.4473L85.0961 49.1982ZM69.674 31.226C69.812 31.3483 70.1706 31.7806 70.0544 32.4609C69.9395 33.1343 69.4678 33.4125 69.3252 33.4734L67.7528 29.7954C67.0727 30.0862 66.2936 30.7211 66.1115 31.7875C65.9282 32.8608 66.46 33.7225 67.0212 34.2198L69.674 31.226ZM69.3252 33.4734L72.5883 32.0784L71.0159 28.4004L67.7528 29.7954L69.3252 33.4734ZM72.4603 32.128C74.0834 31.5623 74.7114 31.3121 75.3417 31.3004C75.7553 31.2928 76.3627 31.3991 77.6145 32.3619L80.0532 29.1913C78.4135 27.9301 76.933 27.2702 75.2675 27.3011C73.8187 27.328 72.3766 27.9212 71.144 28.3508L72.4603 32.128ZM78.8339 30.7766C77.4318 32.2029 77.4316 32.2027 77.4315 32.2025C77.4314 32.2025 77.4313 32.2024 77.4312 32.2023C77.4311 32.2022 77.4311 32.2022 77.4312 32.2023C77.4314 32.2025 77.4319 32.203 77.4328 32.2039C77.4346 32.2057 77.4379 32.2089 77.4425 32.2135C77.4519 32.2228 77.467 32.2378 77.4877 32.2586C77.529 32.3 77.5927 32.3642 77.6775 32.4509C77.847 32.6242 78.1009 32.8872 78.4294 33.2375C79.0866 33.9381 80.0421 34.9872 81.2185 36.3644C83.5718 39.1195 86.8054 43.1837 90.3009 48.3938L93.6226 46.1652C90.0286 40.8084 86.6983 36.6211 84.26 33.7665C83.0406 32.3389 82.0434 31.2435 81.3468 30.5009C80.9985 30.1296 80.7253 29.8464 80.5369 29.6538C80.4427 29.5575 80.3697 29.4838 80.3191 29.4332C80.2939 29.4078 80.2742 29.3882 80.2603 29.3744C80.2533 29.3675 80.2478 29.3621 80.2437 29.358C80.2417 29.356 80.24 29.3544 80.2387 29.3531C80.2381 29.3525 80.2375 29.3519 80.2371 29.3515C80.2368 29.3512 80.2365 29.351 80.2364 29.3508C80.2362 29.3506 80.2359 29.3504 78.8339 30.7766ZM24.9828 81.7461C26.3959 88.0828 28.7149 94.3928 30.6637 99.0914C31.6409 101.447 32.5311 103.412 33.1782 104.791C33.5019 105.481 33.7651 106.024 33.9484 106.397C34.04 106.584 34.1117 106.728 34.161 106.826C34.1857 106.876 34.2047 106.913 34.2179 106.939C34.2245 106.952 34.2296 106.963 34.2332 106.97C34.235 106.973 34.2364 106.976 34.2375 106.978C34.238 106.979 34.2384 106.98 34.2387 106.981C34.2389 106.981 34.2391 106.981 34.2391 106.981C34.2393 106.982 34.2394 106.982 36.0209 106.073C37.8024 105.164 37.8024 105.164 37.8025 105.164C37.8025 105.164 37.8025 105.164 37.8025 105.164C37.8024 105.164 37.8023 105.164 37.802 105.163C37.8015 105.162 37.8006 105.16 37.7994 105.158C37.7969 105.153 37.7929 105.145 37.7874 105.134C37.7764 105.113 37.7596 105.079 37.7372 105.035C37.6925 104.945 37.6255 104.811 37.5386 104.634C37.3649 104.28 37.112 103.758 36.7992 103.091C36.1732 101.758 35.3084 99.8491 34.3585 97.5589C32.4532 92.9653 30.2291 86.8942 28.8869 80.8754L24.9828 81.7461ZM34.2281 106.959C34.1278 106.756 33.9927 106.237 34.332 105.688C34.6609 105.155 35.1547 105.05 35.3403 105.042L35.5142 109.038C36.2743 109.005 37.1908 108.672 37.7358 107.788C38.2912 106.889 38.1657 105.898 37.8136 105.186L34.2281 106.959ZM35.3403 105.042L29.4802 105.297L29.6541 109.293L35.5142 109.038L35.3403 105.042ZM29.616 105.296C29.0421 105.282 28.7375 105.193 28.5674 105.116C28.4154 105.046 28.272 104.943 28.0898 104.721C27.8823 104.468 27.6612 104.109 27.3467 103.53C27.0605 103.002 26.6692 102.239 26.2228 101.456L22.7481 103.438C23.1736 104.184 23.4747 104.781 23.8313 105.438C24.1598 106.043 24.532 106.691 24.9982 107.259C25.4896 107.858 26.1003 108.388 26.9127 108.757C27.707 109.118 28.5772 109.272 29.5183 109.295L29.616 105.296ZM24.4855 102.447C26.3102 101.628 26.3103 101.628 26.3104 101.628C26.3104 101.628 26.3105 101.629 26.3105 101.629C26.3106 101.629 26.3106 101.629 26.3105 101.629C26.3104 101.629 26.3101 101.628 26.3096 101.627C26.3085 101.624 26.3066 101.62 26.3039 101.614C26.2984 101.601 26.2896 101.582 26.2776 101.554C26.2535 101.499 26.2167 101.414 26.1679 101.299C26.0704 101.07 25.9253 100.722 25.7406 100.261C25.3712 99.3379 24.8431 97.9613 24.2188 96.1679C22.97 92.5807 21.337 87.3292 19.8178 80.7117L15.9192 81.6067C17.4748 88.3825 19.1502 93.7747 20.4412 97.483C21.0868 99.3374 21.6364 100.771 22.0272 101.747C22.2227 102.235 22.3784 102.609 22.4866 102.864C22.5407 102.991 22.5829 103.089 22.6123 103.156C22.6269 103.189 22.6384 103.215 22.6465 103.234C22.6506 103.243 22.6538 103.25 22.6562 103.255C22.6574 103.258 22.6583 103.26 22.6591 103.262C22.6595 103.263 22.6598 103.263 22.6601 103.264C22.6602 103.264 22.6604 103.265 22.6604 103.265C22.6606 103.265 22.6607 103.266 24.4855 102.447ZM19.8178 80.7117C18.2526 73.8937 16.3027 68.3574 14.7393 64.5162C13.9573 62.5949 13.2712 61.0957 12.7769 60.0701C12.5297 59.5572 12.3304 59.1626 12.191 58.8926C12.1212 58.7576 12.0665 58.6538 12.0281 58.5819C12.009 58.546 11.9939 58.518 11.9831 58.4981C11.9778 58.4882 11.9735 58.4803 11.9703 58.4744C11.9687 58.4714 11.9673 58.469 11.9663 58.4671C11.9657 58.4661 11.9653 58.4653 11.9649 58.4646C11.9647 58.4642 11.9645 58.4638 11.9644 58.4636C11.9641 58.4632 11.9639 58.4629 10.2111 59.426C8.45832 60.3892 8.45815 60.3888 8.458 60.3886C8.45798 60.3885 8.45784 60.3883 8.45779 60.3882C8.45768 60.388 8.45764 60.3879 8.45767 60.388C8.45773 60.3881 8.45807 60.3887 8.45868 60.3898C8.4599 60.3921 8.46222 60.3963 8.4656 60.4026C8.47237 60.4151 8.48342 60.4356 8.49857 60.464C8.52887 60.5208 8.57555 60.6092 8.63713 60.7284C8.7603 60.9669 8.94304 61.3284 9.17354 61.8067C9.6346 62.7634 10.2863 64.1862 11.0344 66.0241C12.531 69.7012 14.4097 75.0314 15.9192 81.6067L19.8178 80.7117ZM11.9875 58.5071C12.0788 58.6836 12.2497 59.2178 11.8972 59.8044C11.5525 60.3779 11.0265 60.4685 10.8755 60.4751L10.7001 56.479C9.96324 56.5113 9.01985 56.8269 8.46877 57.7439C7.90988 58.6738 8.08545 59.6697 8.43472 60.3449L11.9875 58.5071ZM10.8755 60.4751L14.4319 60.319L14.2565 56.3228L10.7001 56.479L10.8755 60.4751ZM14.2953 60.3203C16.0179 60.3624 16.6963 60.3495 17.288 60.5597C17.6702 60.6954 18.1921 61.0014 19.0051 62.3341L22.4199 60.2509C21.3466 58.4916 20.1994 57.3488 18.6265 56.7903C17.2631 56.3061 15.7005 56.3535 14.3931 56.3215L14.2953 60.3203ZM20.7125 61.2925C18.8903 62.117 18.8902 62.1167 18.8901 62.1165C18.8901 62.1165 18.89 62.1163 18.89 62.1162C18.8899 62.1161 18.8899 62.1161 18.89 62.1162C18.8901 62.1164 18.8904 62.117 18.8909 62.1182C18.8919 62.1204 18.8937 62.1245 18.8964 62.1305C18.9017 62.1424 18.9103 62.1617 18.922 62.1882C18.9454 62.2413 18.9813 62.3235 19.0287 62.434C19.1235 62.6551 19.2642 62.9897 19.4428 63.4318C19.8 64.3162 20.3082 65.6307 20.9027 67.3291C22.092 70.7267 23.6246 75.6555 24.9828 81.7461L28.8869 80.8754C27.4898 74.6105 25.9112 69.5303 24.6781 66.0076C24.0614 64.2458 23.5308 62.8724 23.1518 61.9339C22.9622 61.4647 22.8106 61.104 22.705 60.8578C22.6522 60.7347 22.611 60.6402 22.5822 60.575C22.5679 60.5424 22.5566 60.5171 22.5487 60.4993C22.5447 60.4903 22.5415 60.4833 22.5392 60.4781C22.538 60.4755 22.537 60.4733 22.5363 60.4717C22.5359 60.4708 22.5356 60.4701 22.5353 60.4695C22.5352 60.4692 22.535 60.4689 22.5349 60.4687C22.5348 60.4684 22.5347 60.4681 20.7125 61.2925ZM50.3542 86.0972C53.4936 91.805 57.4961 97.2427 60.6902 101.232C62.2916 103.232 63.6996 104.88 64.7091 106.031C65.2141 106.606 65.6198 107.057 65.9008 107.366C66.0413 107.521 66.1507 107.64 66.2257 107.721C66.2632 107.762 66.2922 107.793 66.3121 107.814C66.3221 107.825 66.3298 107.833 66.3353 107.839C66.338 107.842 66.3401 107.844 66.3417 107.846C66.3425 107.847 66.3431 107.847 66.3436 107.848C66.3438 107.848 66.3441 107.848 66.3442 107.849C66.3445 107.849 66.3446 107.849 67.8039 106.481C69.2632 105.114 69.2633 105.114 69.2634 105.114C69.2634 105.114 69.2634 105.114 69.2634 105.114C69.2633 105.114 69.263 105.113 69.2626 105.113C69.2619 105.112 69.2606 105.111 69.2586 105.109C69.2548 105.105 69.2487 105.098 69.2404 105.089C69.2238 105.071 69.1982 105.044 69.1641 105.007C69.0959 104.933 68.9936 104.822 68.8603 104.675C68.5938 104.382 68.2037 103.948 67.7154 103.392C66.7384 102.279 65.3701 100.677 63.8126 98.732C60.6888 94.8304 56.8427 89.594 53.859 84.1695L50.3542 86.0972ZM66.3278 107.831C66.1822 107.671 65.9021 107.212 66.0759 106.584C66.2458 105.97 66.7018 105.73 66.8806 105.672L68.13 109.471C68.854 109.233 69.6519 108.659 69.9311 107.651C70.2142 106.627 69.8108 105.712 69.2801 105.132L66.3278 107.831ZM66.8806 105.672L61.3192 107.5L62.5686 111.3L68.13 109.471L66.8806 105.672ZM61.4501 107.462C60.8956 107.603 60.5771 107.6 60.3892 107.572C60.2199 107.546 60.0488 107.483 59.8076 107.317C59.5343 107.128 59.2189 106.84 58.7537 106.368C58.3294 105.938 57.7395 105.311 57.0906 104.679L54.3007 107.546C54.9199 108.148 55.3784 108.642 55.9051 109.177C56.3908 109.669 56.9289 110.19 57.534 110.608C58.1712 111.048 58.9033 111.391 59.7843 111.526C60.6466 111.658 61.5255 111.571 62.4377 111.338L61.4501 107.462ZM55.6957 106.112C57.2209 104.819 57.221 104.819 57.2212 104.819C57.2212 104.819 57.2214 104.819 57.2214 104.819C57.2215 104.819 57.2215 104.819 57.2214 104.819C57.2212 104.819 57.2207 104.818 57.2199 104.817C57.2182 104.815 57.2151 104.812 57.2108 104.807C57.202 104.796 57.1879 104.779 57.1686 104.756C57.1299 104.71 57.0704 104.638 56.9912 104.54C56.8328 104.346 56.5955 104.051 56.2881 103.657C55.6733 102.87 54.7783 101.689 53.6736 100.133C51.4639 97.0216 48.4169 92.4139 45.0953 86.4625L41.6025 88.4119C45.0027 94.5041 48.1291 99.234 50.4123 102.449C51.5541 104.057 52.4854 105.286 53.1353 106.119C53.4603 106.535 53.715 106.852 53.8904 107.067C53.9782 107.175 54.0461 107.257 54.0931 107.314C54.1167 107.342 54.1349 107.364 54.1479 107.379C54.1543 107.387 54.1595 107.393 54.1632 107.398C54.1651 107.4 54.1667 107.402 54.1679 107.403C54.1685 107.404 54.169 107.404 54.1694 107.405C54.1696 107.405 54.1699 107.405 54.17 107.406C54.1702 107.406 54.1704 107.406 55.6957 106.112ZM45.0953 86.4625C41.6742 80.3328 38.2437 75.5389 35.6615 72.2699C34.3699 70.6348 33.2892 69.3795 32.5261 68.5276C32.1445 68.1016 31.8421 67.7763 31.6323 67.5547C31.5274 67.4439 31.4457 67.359 31.3887 67.3003C31.3602 67.271 31.3379 67.2482 31.322 67.2321C31.3141 67.224 31.3077 67.2176 31.303 67.2128C31.3007 67.2104 31.2987 67.2085 31.2972 67.2069C31.2964 67.2061 31.2957 67.2055 31.2952 67.2049C31.2949 67.2046 31.2945 67.2043 31.2944 67.2041C31.2941 67.2038 31.2938 67.2035 29.8766 68.6148C28.4594 70.026 28.4592 70.0258 28.459 70.0255C28.4589 70.0255 28.4588 70.0253 28.4587 70.0252C28.4585 70.0251 28.4585 70.025 28.4585 70.0251C28.4586 70.0252 28.4591 70.0257 28.46 70.0266C28.4619 70.0285 28.4653 70.0319 28.4704 70.0371C28.4804 70.0473 28.4969 70.0641 28.5195 70.0873C28.5646 70.1339 28.6345 70.2063 28.7273 70.3044C28.9129 70.5005 29.1905 70.7989 29.5467 71.1966C30.2593 71.9921 31.2863 73.1842 32.5226 74.7493C34.9961 77.8806 38.3018 82.4979 41.6025 88.4119L45.0953 86.4625ZM31.3284 67.2391C31.4576 67.3754 31.7761 67.839 31.6001 68.506C31.4264 69.1639 30.935 69.3985 30.7895 69.4464L29.5387 65.647C28.8372 65.878 28.0079 66.4417 27.7325 67.4854C27.4546 68.5382 27.9074 69.4443 28.4249 69.9904L31.3284 67.2391ZM30.7895 69.4464L34.1642 68.3355L32.9134 64.5361L29.5387 65.647L30.7895 69.4464ZM34.0327 68.3739C35.6997 67.9491 36.3483 67.7533 36.9776 67.7955C37.3894 67.8231 37.9835 67.9802 39.1436 69.0451L41.8485 66.0984C40.3259 64.7006 38.9081 63.916 37.2453 63.8045C35.8 63.7075 34.3113 64.175 33.045 64.4977L34.0327 68.3739ZM40.496 67.5717C38.9748 68.8701 38.9747 68.8699 38.9745 68.8698C38.9745 68.8697 38.9744 68.8696 38.9743 68.8695C38.9742 68.8694 38.9742 68.8694 38.9743 68.8695C38.9744 68.8697 38.9749 68.8702 38.9757 68.8712C38.9774 68.8731 38.9803 68.8766 38.9846 68.8816C38.993 68.8917 39.0067 68.9079 39.0255 68.9303C39.063 68.9751 39.1206 69.0445 39.1974 69.138C39.3508 69.3251 39.5803 69.6088 39.8764 69.9857C40.4687 70.7397 41.3272 71.8663 42.3765 73.3386C44.4757 76.284 47.3354 80.6086 50.3542 86.0972L53.859 84.1695C50.7548 78.5256 47.8093 74.0694 45.6339 71.0171C44.546 69.4906 43.6499 68.3141 43.0219 67.5147C42.7079 67.115 42.4608 66.8094 42.2902 66.6014C42.2049 66.4974 42.1387 66.4178 42.0929 66.363C42.0699 66.3356 42.052 66.3143 42.0394 66.2994C42.0331 66.2919 42.0281 66.286 42.0244 66.2816C42.0225 66.2795 42.021 66.2777 42.0198 66.2763C42.0192 66.2756 42.0187 66.275 42.0183 66.2745C42.0181 66.2742 42.0178 66.2739 42.0177 66.2738C42.0175 66.2735 42.0173 66.2733 40.496 67.5717Z" fill="#1BB4BF"/>
</g>
</g>
</svg>
