<svg width="120" height="120" viewBox="0 0 120 120" fill="none" xmlns="http://www.w3.org/2000/svg">
<g id="pound">
<g id="pound_2">
<path id="Layer 1" fill-rule="evenodd" clip-rule="evenodd" d="M60.1139 110C87.7281 110 110.114 87.6142 110.114 60C110.114 32.3858 87.7281 10 60.1139 10C32.4997 10 10.1139 32.3858 10.1139 60C10.1139 87.6142 32.4997 110 60.1139 110Z" stroke="#1BB4BF" stroke-width="4" stroke-linecap="round" stroke-linejoin="round"/>
<path id="Layer 2" d="M76.67 47.793C76.67 39.2676 73.191 33.2134 62.3673 33.2134C51.5436 33.2134 45.809 39.3257 45.809 47.1318C45.809 51.4362 47.2681 54.938 49.2379 58.148L50.1863 59.68C52.6668 63.6925 53.9799 66.7566 53.9799 70.4044C53.9799 77.9917 46.9484 82.296 41.3309 83.901C41.3309 83.901 50.8164 80.7334 56.3849 81.2749C60.3286 81.6584 63.5592 83.901 69.5787 83.901C75.5982 83.901 79.6124 81.2749 79.6124 81.2749" stroke="#1BB4BF" stroke-width="4" stroke-linecap="round" stroke-linejoin="round"/>
<path id="Layer 3" d="M42.104 62.2176H61.906" stroke="#1BB4BF" stroke-width="4" stroke-linecap="round" stroke-linejoin="round"/>
</g>
</g>
</svg>
