<svg width="120" height="120" viewBox="0 0 120 120" fill="none" xmlns="http://www.w3.org/2000/svg">
<g id="quote-1">
<g id="quote-1_2">
<path id="Path" fill-rule="evenodd" clip-rule="evenodd" d="M76.814 100.724C75.8023 100.963 76.2254 100.731 76.2254 100.731C74.1221 100.076 73.6736 98.2662 75.1902 96.6573C75.1902 96.6573 92.3696 79.983 94.7625 64.242C94.8643 63.5721 95.1009 62.9786 95.2595 62.3125C90.3282 64.7583 84.4453 65.3242 79.1181 63.8371C67.0999 60.467 60.0595 47.9281 63.4191 35.8852C66.1423 26.1272 75.0989 19.3101 85.1999 19.3101C87.2575 19.3101 89.312 19.5945 91.307 20.1544C99.2322 22.3744 105.191 28.9688 108.086 38.7188C110.699 47.515 110.633 58.1598 107.91 67.9249C101.608 86.9287 89.5282 97.7239 76.814 100.724V100.724Z" stroke="#1BB4BF" stroke-width="4" stroke-linecap="round" stroke-linejoin="round"/>
<path id="Path_2" fill-rule="evenodd" clip-rule="evenodd" d="M24.4059 101.032C23.3943 101.271 23.8174 101.039 23.8174 101.039C21.714 100.384 21.2656 98.5743 22.7821 96.9655C22.7821 96.9655 39.9615 80.2911 42.3544 64.5501C42.4563 63.8803 42.6928 63.2867 42.8514 62.6206C37.9201 65.0664 32.0373 65.6323 26.71 64.1452C14.6918 60.7751 7.6514 48.2362 11.011 36.1933C13.7342 26.4353 22.6908 19.6182 32.7918 19.6182C34.8494 19.6182 36.9039 19.9026 38.8989 20.4625C46.8241 22.6825 52.7827 29.277 55.6777 39.0269C58.2908 47.8231 58.2251 58.4679 55.5019 68.233C49.1999 87.2368 37.1201 98.032 24.4059 101.032V101.032Z" stroke="#1BB4BF" stroke-width="4" stroke-linecap="round" stroke-linejoin="round"/>
</g>
</g>
</svg>
