<svg width="120" height="120" viewBox="0 0 120 120" fill="none" xmlns="http://www.w3.org/2000/svg">
<g id="quote-2">
<g id="quote-2_2">
<path id="Path" fill-rule="evenodd" clip-rule="evenodd" d="M43.186 19.4162C44.1977 19.1775 43.7746 19.4093 43.7746 19.4093C45.8779 20.0639 46.3264 21.874 44.8098 23.4828C44.8098 23.4828 27.6304 40.1572 25.2375 55.8981C25.1357 56.568 24.8991 57.1615 24.7405 57.8277C29.6718 55.3818 35.5547 54.8159 40.8819 56.3031C52.9001 59.6732 59.9405 72.2121 56.5809 84.2549C53.8577 94.0129 44.9011 100.83 34.8001 100.83C32.7425 100.83 30.688 100.546 28.693 99.9858C20.7678 97.7657 14.8092 91.1713 11.9143 81.4214C9.30113 72.6251 9.36679 61.9803 12.09 52.2152C18.392 33.2115 30.4718 22.4162 43.186 19.4162V19.4162Z" stroke="#1BB4BF" stroke-width="4" stroke-linecap="round" stroke-linejoin="round"/>
<path id="Path_2" fill-rule="evenodd" clip-rule="evenodd" d="M95.5941 19.1081C96.6057 18.8694 96.1826 19.1012 96.1826 19.1012C98.286 19.7558 98.7344 21.5659 97.2179 23.1747C97.2179 23.1747 80.0385 39.8491 77.6456 55.59C77.5437 56.2599 77.3072 56.8534 77.1486 57.5196C82.0799 55.0737 87.9627 54.5078 93.29 55.995C105.308 59.3651 112.349 71.904 108.989 83.9468C106.266 93.7048 97.3092 100.522 87.2082 100.522C85.1506 100.522 83.0961 100.238 81.1011 99.6777C73.1759 97.4576 67.2173 90.8632 64.3223 81.1133C61.7092 72.317 61.7749 61.6722 64.4981 51.9071C70.8001 32.9034 82.8799 22.1081 95.5941 19.1081V19.1081Z" stroke="#1BB4BF" stroke-width="4" stroke-linecap="round" stroke-linejoin="round"/>
</g>
</g>
</svg>
