<svg width="120" height="120" viewBox="0 0 120 120" fill="none" xmlns="http://www.w3.org/2000/svg">
<g id="receipt-1">
<g id="receipt-1_2">
<path id="Layer 1" d="M90 30V65V65V65H107.007C108.662 65 110 63.6586 110 62.0039V12.9961C110 11.3459 108.66 10 107.007 10L12.9928 10C11.338 10 10 11.3414 10 12.9961V62.0039C10 63.6541 11.3399 65 12.9928 65H30V30" stroke="#1BB4BF" stroke-width="4" stroke-linecap="round" stroke-linejoin="round"/>
<path id="Path" d="M90 45H92.5098C96.639 45 100 41.6421 100 37.5C100 33.3663 96.6465 30 92.5098 30H27.4903C23.361 30 20 33.3579 20 37.5C20 41.6337 23.3535 45 27.4903 45H30" stroke="#1BB4BF" stroke-width="4" stroke-linecap="round" stroke-linejoin="round"/>
<path id="Path_2" d="M30 30H90" stroke="#1BB4BF" stroke-width="4" stroke-linecap="round" stroke-linejoin="round"/>
<path id="Layer 3" d="M20 20H35" stroke="#1BB4BF" stroke-width="4" stroke-linecap="round" stroke-linejoin="round"/>
<path id="Layer 4" d="M95 20H100" stroke="#1BB4BF" stroke-width="4" stroke-linecap="round" stroke-linejoin="round"/>
<path id="Layer 5" d="M90 30V110L80.0649 100.187L69.9048 110L60 100.187L49.874 110L40.0952 100.187L30 110L30 30" stroke="#1BB4BF" stroke-width="4" stroke-linecap="round" stroke-linejoin="round"/>
<path id="Layer 6" d="M40 45H67" stroke="#1BB4BF" stroke-width="4" stroke-linecap="round" stroke-linejoin="round"/>
<path id="Layer 7" d="M40 55H62" stroke="#1BB4BF" stroke-width="4" stroke-linecap="round" stroke-linejoin="round"/>
<path id="Layer 8" d="M40 65H67" stroke="#1BB4BF" stroke-width="4" stroke-linecap="round" stroke-linejoin="round"/>
<path id="Layer 9" d="M40 75H62" stroke="#1BB4BF" stroke-width="4" stroke-linecap="round" stroke-linejoin="round"/>
</g>
</g>
</svg>
