<svg width="120" height="120" viewBox="0 0 120 120" fill="none" xmlns="http://www.w3.org/2000/svg">
<g id="recycling">
<g id="recycling_2">
<path id="Layer 1" fill-rule="evenodd" clip-rule="evenodd" d="M47.0118 48.5195L59.4411 27.0266V27.0266C57.1423 23.0605 55.4189 20.0881 55.4189 20.0881C53.6626 17.0465 49.7496 14.1229 45.3933 14.084C42.4317 14.3949 38.6408 15.4236 36.6048 18.7798L26.3207 36.5594L47.0118 48.5195V48.5195Z" stroke="#1BB4BF" stroke-width="4" stroke-linecap="round" stroke-linejoin="round"/>
<path id="Layer 2" fill-rule="evenodd" clip-rule="evenodd" d="M82.2676 18.7799C79.9857 15.0183 75.4994 14.1805 72.4468 14C60.4411 14.0408 49.8002 14.1912 45.2623 14.0838C49.671 14.0644 53.645 17.0162 55.4188 20.0882C55.4188 20.0882 65.0616 36.719 69.1522 43.7925C69.1666 43.8174 67.5759 44.7998 67.5759 44.7998L85.107 47.623L91.4226 31.0604L89.6708 32.0697C87.5517 28.3857 82.2676 18.7799 82.2676 18.7799Z" stroke="#1BB4BF" stroke-width="4" stroke-linecap="round" stroke-linejoin="round"/>
<path id="Layer 3" fill-rule="evenodd" clip-rule="evenodd" d="M77.3162 58.4889L89.6931 80.012V80.012C94.2731 80.0019 97.706 79.9938 97.706 79.9938C101.215 79.9918 105.701 78.061 107.912 74.3032C109.124 71.5799 110.13 67.7788 108.245 64.3354L98.0073 46.5288L77.3162 58.4889V58.4889Z" stroke="#1BB4BF" stroke-width="4" stroke-linecap="round" stroke-linejoin="round"/>
<path id="Layer 4" fill-rule="evenodd" clip-rule="evenodd" d="M85.4133 103.927C89.8081 103.829 92.7759 100.359 94.4583 97.8021C100.426 87.3722 105.616 78.0708 107.978 74.1899C105.79 78.0222 101.25 79.9919 97.706 79.9939C97.706 79.9939 78.4781 80.4981 70.3142 80.5081C70.2854 80.5081 70.2518 78.1788 70.2518 78.1788L59.0441 91.9675L70.2131 105.725L70.2911 103.945C74.5372 103.95 85.4133 103.927 85.4133 103.927V103.927Z" stroke="#1BB4BF" stroke-width="4" stroke-linecap="round" stroke-linejoin="round"/>
<path id="Layer 5" fill-rule="evenodd" clip-rule="evenodd" d="M54.8659 80.0552L30.0597 80.0249V80.0249C27.7785 84.0011 26.069 86.9816 26.069 86.9816C24.3162 90.0252 23.7437 94.8797 25.8882 98.6763C27.6379 101.089 30.4232 103.861 34.3443 103.948L54.8659 103.975V80.0552V80.0552Z" stroke="#1BB4BF" stroke-width="4" stroke-linecap="round" stroke-linejoin="round"/>
<path id="Layer 6" fill-rule="evenodd" clip-rule="evenodd" d="M11.5129 64.3571C9.40006 68.2164 10.9185 72.5251 12.2887 75.2621C18.3268 85.6512 23.7774 94.8021 25.9534 98.7904C23.7323 94.9775 24.2986 90.056 26.069 86.982C26.069 86.982 35.2468 70.0585 39.3201 62.975C39.3345 62.9501 41.3662 64.0855 41.3662 64.0855L35.0427 47.4736L17.5582 50.2791L19.0586 51.2366C16.9315 54.9159 11.5129 64.3571 11.5129 64.3571V64.3571Z" stroke="#1BB4BF" stroke-width="4" stroke-linecap="round" stroke-linejoin="round"/>
</g>
</g>
</svg>
