<svg width="120" height="120" viewBox="0 0 120 120" fill="none" xmlns="http://www.w3.org/2000/svg">
<g id="rocket">
<g id="rocket_2">
<path id="Layer 1" fill-rule="evenodd" clip-rule="evenodd" d="M43.8778 90.607L35.5422 95.3442L24.5122 84.4267L29.2982 76.1763L43.8778 90.607V90.607Z" stroke="#1BB4BF" stroke-width="4" stroke-linecap="round" stroke-linejoin="round"/>
<path id="Layer 2" fill-rule="evenodd" clip-rule="evenodd" d="M32.5641 94.0871C31.4453 98.12 28.7548 102.69 26.9862 104.44C24.0742 107.322 10.2198 109.491 10.2198 109.491C10.2198 109.491 12.5569 95.6329 15.3226 92.8954C17.0111 91.2242 21.6866 88.5228 25.8055 87.3975L32.5641 94.0871Z" stroke="#1BB4BF" stroke-width="4" stroke-linecap="round" stroke-linejoin="round"/>
<path id="Layer 3" fill-rule="evenodd" clip-rule="evenodd" d="M67.1441 80.437L69.7562 90.1047C70.1977 91.7385 69.5694 94.0389 68.3709 95.2252L62.2582 101.276C61.0517 102.47 59.2572 102.336 58.2403 100.963L51.7793 92.2424C54.0466 90.6951 59.4952 86.8285 67.1441 80.437V80.437Z" stroke="#1BB4BF" stroke-width="4" stroke-linecap="round" stroke-linejoin="round"/>
<path id="Layer 4" fill-rule="evenodd" clip-rule="evenodd" d="M39.4937 53.1263L29.8056 50.5618C28.155 50.1249 25.8308 50.7467 24.6323 51.933L18.5196 57.9833C17.3131 59.1775 17.4484 60.9537 18.8352 61.9603L27.5943 68.3178C29.1173 66.0974 32.9292 60.7853 39.4937 53.1263V53.1263Z" stroke="#1BB4BF" stroke-width="4" stroke-linecap="round" stroke-linejoin="round"/>
<path id="Layer 5" fill-rule="evenodd" clip-rule="evenodd" d="M58.0444 33.2926C80.2191 11.3442 107.768 9.53749 109.486 11.2378C111.203 12.9381 109.314 40.2695 87.6163 61.7454C65.919 83.2214 50.6085 93.0244 50.6085 93.0244C49.2038 93.9783 47.0809 93.7774 45.8713 92.5801L33.4115 80.2474L27.2771 74.1757C26.0697 72.9806 25.8533 70.8709 26.8161 69.4814C26.8161 69.4814 35.8697 55.241 58.0444 33.2926V33.2926Z" stroke="#1BB4BF" stroke-width="4" stroke-linecap="round" stroke-linejoin="round"/>
<path id="Layer 6" fill-rule="evenodd" clip-rule="evenodd" d="M73.9964 46.3996C77.1931 49.5716 82.3759 49.5716 85.5726 46.3996C88.7692 43.2276 88.7692 38.0847 85.5726 34.9127C82.3759 31.7407 77.1931 31.7407 73.9964 34.9127C70.7998 38.0847 70.7998 43.2276 73.9964 46.3996V46.3996Z" stroke="#1BB4BF" stroke-width="4" stroke-linecap="round" stroke-linejoin="round"/>
</g>
</g>
</svg>
