<svg width="120" height="120" viewBox="0 0 120 120" fill="none" xmlns="http://www.w3.org/2000/svg">
<g id="satellite">
<g id="satellite_2">
<path id="Layer 1" fill-rule="evenodd" clip-rule="evenodd" d="M78.681 31.4053L88.5805 41.3048L75.8526 54.0327L65.9531 44.1332L78.681 31.4053V31.4053Z" stroke="#1BB4BF" stroke-width="4" stroke-linecap="round" stroke-linejoin="round"/>
<path id="Layer 2" fill-rule="evenodd" clip-rule="evenodd" d="M63.832 42.0122L77.9741 56.1543L55.3467 78.7818L41.2046 64.6396L63.832 42.0122V42.0122Z" stroke="#1BB4BF" stroke-width="4" stroke-linecap="round" stroke-linejoin="round"/>
<path id="Layer 3" fill-rule="evenodd" clip-rule="evenodd" d="M87.8736 60.397L98.4802 71.0036L84.338 85.1457L73.7314 74.5391L87.8736 60.397V60.397Z" stroke="#1BB4BF" stroke-width="4" stroke-linecap="round" stroke-linejoin="round"/>
<path id="Layer 4" fill-rule="evenodd" clip-rule="evenodd" d="M98.48 71.0034L109.087 81.61L94.9445 95.7522L84.3379 85.1456L98.48 71.0034V71.0034Z" stroke="#1BB4BF" stroke-width="4" stroke-linecap="round" stroke-linejoin="round"/>
<path id="Layer 5" fill-rule="evenodd" clip-rule="evenodd" d="M84.3379 85.1455L94.9445 95.7521L80.8024 109.894L70.1958 99.2876L84.3379 85.1455V85.1455Z" stroke="#1BB4BF" stroke-width="4" stroke-linecap="round" stroke-linejoin="round"/>
<path id="Layer 6" fill-rule="evenodd" clip-rule="evenodd" d="M73.7315 74.5391L84.3381 85.1457L70.196 99.2878L59.5894 88.6812L73.7315 74.5391V74.5391Z" stroke="#1BB4BF" stroke-width="4" stroke-linecap="round" stroke-linejoin="round"/>
<path id="Layer 7" fill-rule="evenodd" clip-rule="evenodd" d="M38.376 10.8994L48.9826 21.506L34.8405 35.6482L24.2339 25.0415L38.376 10.8994V10.8994Z" stroke="#1BB4BF" stroke-width="4" stroke-linecap="round" stroke-linejoin="round"/>
<path id="Layer 8" fill-rule="evenodd" clip-rule="evenodd" d="M48.9827 21.5059L59.5893 32.1125L45.4472 46.2546L34.8406 35.648L48.9827 21.5059V21.5059Z" stroke="#1BB4BF" stroke-width="4" stroke-linecap="round" stroke-linejoin="round"/>
<path id="Layer 9" fill-rule="evenodd" clip-rule="evenodd" d="M34.8406 35.6479L45.4472 46.2546L31.3051 60.3967L20.6985 49.7901L34.8406 35.6479V35.6479Z" stroke="#1BB4BF" stroke-width="4" stroke-linecap="round" stroke-linejoin="round"/>
<path id="Layer 10" fill-rule="evenodd" clip-rule="evenodd" d="M24.2339 25.0415L34.8405 35.6481L20.6984 49.7902L10.0918 39.1836L24.2339 25.0415V25.0415Z" stroke="#1BB4BF" stroke-width="4" stroke-linecap="round" stroke-linejoin="round"/>
<path id="Layer 11" d="M45.447 46.2549L52.5181 53.326" stroke="#1BB4BF" stroke-width="4" stroke-linecap="round" stroke-linejoin="round"/>
<path id="Layer 12" d="M66.6604 67.4678L73.7315 74.5388" stroke="#1BB4BF" stroke-width="4" stroke-linecap="round" stroke-linejoin="round"/>
<path id="Layer 13" d="M28.4766 70.2964L49.6898 91.5096" stroke="#1BB4BF" stroke-width="4" stroke-linecap="round" stroke-linejoin="round"/>
<path id="Layer 14" d="M26.3552 93.6308L48.2755 71.7104" stroke="#1BB4BF" stroke-width="4" stroke-linecap="round" stroke-linejoin="round"/>
</g>
</g>
</svg>
