<svg width="120" height="120" viewBox="0 0 120 120" fill="none" xmlns="http://www.w3.org/2000/svg">
<g id="save">
<g id="save_2">
<path id="Layer 1" fill-rule="evenodd" clip-rule="evenodd" d="M10 13C10 11.3431 11.3431 10 13 10H94.5216C95.3296 10 96.1034 10.3259 96.6679 10.904L109.146 23.6815C109.694 24.2419 110 24.9942 110 25.7775V107C110 108.657 108.657 110 107 110H13C11.3431 110 10 108.657 10 107V13Z" stroke="#1BB4BF" stroke-width="4" stroke-linecap="round" stroke-linejoin="round"/>
<rect id="Layer 2" x="30" y="60" width="60" height="50" stroke="#1BB4BF" stroke-width="4" stroke-linecap="round" stroke-linejoin="round"/>
<path id="Layer 3" fill-rule="evenodd" clip-rule="evenodd" d="M35 10H85V40H35V10Z" stroke="#1BB4BF" stroke-width="4" stroke-linecap="round" stroke-linejoin="round"/>
<path id="Layer 4" d="M40 95H80" stroke="#1BB4BF" stroke-width="4" stroke-linecap="round" stroke-linejoin="round"/>
<path id="Layer 5" d="M40 85H80" stroke="#1BB4BF" stroke-width="4" stroke-linecap="round" stroke-linejoin="round"/>
<path id="Layer 6" d="M40 75H80" stroke="#1BB4BF" stroke-width="4" stroke-linecap="round" stroke-linejoin="round"/>
<rect id="Layer 7" x="70" y="17" width="8" height="16" stroke="#1BB4BF" stroke-width="4" stroke-linecap="round" stroke-linejoin="round"/>
<path id="Layer 8" d="M20 20V30" stroke="#1BB4BF" stroke-width="4" stroke-linecap="round" stroke-linejoin="round"/>
</g>
</g>
</svg>
