<svg width="120" height="120" viewBox="0 0 120 120" fill="none" xmlns="http://www.w3.org/2000/svg">
<g id="school-bell">
<g id="school-bell_2">
<path id="Layer 1" fill-rule="evenodd" clip-rule="evenodd" d="M78.1319 73V107.009C78.1319 108.661 76.781 110 75.1281 110H21.7951C20.1361 110 18.7913 108.657 18.7913 107.009V73C25.8457 81.5506 36.5179 87.0002 48.4616 87.0002C60.4053 87.0002 71.0774 81.5506 78.1319 73V73Z" stroke="#1BB4BF" stroke-width="4" stroke-linecap="round" stroke-linejoin="round"/>
<path id="Layer 2" fill-rule="evenodd" clip-rule="evenodd" d="M48.4615 87C69.7033 87 86.9231 69.763 86.9231 48.5C86.9231 27.237 69.7033 10 48.4615 10C27.2198 10 10 27.237 10 48.5C10 69.763 27.2198 87 48.4615 87Z" stroke="#1BB4BF" stroke-width="4" stroke-linecap="round" stroke-linejoin="round"/>
<path id="Layer 3" d="M19.9452 41.2151L21.9023 41.6271C22.1245 40.5719 21.4701 39.5305 20.423 39.2729C19.3758 39.0154 18.313 39.6343 18.0203 40.6722L19.9452 41.2151ZM19.0959 45.2486L17.1156 44.9689C16.9648 46.0367 17.6877 47.0318 18.7498 47.2185C19.812 47.4051 20.8308 46.716 21.053 45.6607L19.0959 45.2486ZM40.38 20.1943L41.6167 21.7661C42.3751 21.1694 42.5993 20.1162 42.1495 19.2623C41.6998 18.4085 40.7045 17.9975 39.7834 18.2854L40.38 20.1943ZM23.1915 33.719L21.4783 32.687C20.98 33.5142 21.144 34.5794 21.868 35.2184C22.592 35.8575 23.6693 35.8879 24.4282 35.2907L23.1915 33.719ZM18.0203 40.6722C17.6264 42.0691 17.3226 43.5036 17.1156 44.9689L21.0763 45.5284C21.258 44.242 21.5246 42.9832 21.8702 41.7579L18.0203 40.6722ZM21.053 45.6607L21.9023 41.6271L17.9882 40.803L17.1389 44.8366L21.053 45.6607ZM39.7834 18.2854C32.0618 20.6984 25.5726 25.8898 21.4783 32.687L24.9047 34.7509C28.5029 28.7773 34.2049 24.2194 40.9765 22.1033L39.7834 18.2854ZM24.4282 35.2907L41.6167 21.7661L39.1432 18.6226L21.9548 32.1472L24.4282 35.2907Z" fill="#1BB4BF"/>
<path id="Layer 4" fill-rule="evenodd" clip-rule="evenodd" d="M48.4615 57.3002C53.3167 57.3002 57.2527 53.3603 57.2527 48.5002C57.2527 43.6401 53.3167 39.7002 48.4615 39.7002C43.6062 39.7002 39.6703 43.6401 39.6703 48.5002C39.6703 53.3603 43.6062 57.3002 48.4615 57.3002Z" stroke="#1BB4BF" stroke-width="4" stroke-linecap="round" stroke-linejoin="round"/>
<path id="Layer 5" d="M37.4725 97.9999H59.4506" stroke="#1BB4BF" stroke-width="4" stroke-linecap="round" stroke-linejoin="round"/>
<path id="Layer 7" d="M103.407 43.2168C103.407 49.8676 103.407 62.9999 103.407 62.9999C103.407 77.4144 92.3304 89.2386 78.2286 90.4054" stroke="#1BB4BF" stroke-width="4" stroke-linecap="round" stroke-linejoin="round"/>
<path id="Layer 8" fill-rule="evenodd" clip-rule="evenodd" d="M103.407 43.2C107.048 43.2 110 40.2451 110 36.6C110 32.9549 107.048 30 103.407 30C99.7652 30 96.8132 32.9549 96.8132 36.6C96.8132 40.2451 99.7652 43.2 103.407 43.2Z" stroke="#1BB4BF" stroke-width="4" stroke-linecap="round" stroke-linejoin="round"/>
</g>
</g>
</svg>
