<svg width="120" height="120" viewBox="0 0 120 120" fill="none" xmlns="http://www.w3.org/2000/svg">
<g id="settings-5">
<g id="settings-5_2">
<path id="Layer 1" fill-rule="evenodd" clip-rule="evenodd" d="M106.159 87.3987L93.8641 75.104L87.3309 74.7273L86.9326 68.1726L82.4968 63.7367C81.3041 62.544 79.3683 62.546 78.1708 63.7435L64.2435 77.6708C63.0471 78.8672 63.0503 80.8103 64.2367 81.9967L68.6726 86.4326L75.3035 86.9449L75.6041 93.3641L87.8987 105.659C92.9521 110.712 101.121 110.706 106.163 105.663C111.206 100.621 111.212 92.452 106.159 87.3987V87.3987Z" stroke="#1BB4BF" stroke-width="4" stroke-linecap="round" stroke-linejoin="round"/>
<path id="Layer 2" d="M70.404 70.6652L24.7539 25.0151" stroke="#1BB4BF" stroke-width="4" stroke-linecap="round" stroke-linejoin="round"/>
<path id="Layer 3" fill-rule="evenodd" clip-rule="evenodd" d="M24.3735 24.6345C26.6846 22.3234 26.6861 18.5779 24.3778 16.2697L18.6673 10.5591L10.2981 18.9283L16.0087 24.6388C18.3174 26.9475 22.0672 26.9409 24.3735 24.6345V24.6345V24.6345Z" stroke="#1BB4BF" stroke-width="4" stroke-linecap="round" stroke-linejoin="round"/>
</g>
</g>
</svg>
