<svg width="120" height="120" viewBox="0 0 120 120" fill="none" xmlns="http://www.w3.org/2000/svg">
<g id="settings-3">
<g id="settings-3_2">
<path id="Layer 1" fill-rule="evenodd" clip-rule="evenodd" d="M106.274 98.1587C110.29 90.5428 109.067 80.9245 102.605 74.5282C96.4121 68.3977 87.2292 67.0309 79.703 70.4278L49.0243 40.0591C52.4559 32.6089 51.0751 23.5187 44.8821 17.3882C38.4206 10.9919 28.7041 9.78141 21.0105 13.7567L33.3375 25.9592L24.6791 34.5302L12.352 22.3277C8.33619 29.9435 9.55905 39.5619 16.0206 45.9582C22.2136 52.0886 31.3966 53.4554 38.9228 50.0585L69.6014 80.4273C66.1699 87.8775 67.5506 96.9677 73.7436 103.098C80.2052 109.494 89.9217 110.705 97.6153 106.73L85.2882 94.5271L93.9467 85.9562L106.274 98.1587V98.1587Z" stroke="#1BB4BF" stroke-width="4" stroke-linecap="round" stroke-linejoin="round"/>
<path id="Layer 2" fill-rule="evenodd" clip-rule="evenodd" d="M13.9234 86.9783L26.218 74.8078L32.7513 74.4349L33.1495 67.9464L37.5854 63.5553C38.7781 62.3747 40.7138 62.3766 41.9113 63.562L55.8386 77.3486C57.0351 78.533 57.0318 80.4565 55.8454 81.6309L51.4095 86.0219L44.7786 86.5291L44.4781 92.8834L32.1834 105.054C27.13 110.056 18.9613 110.05 13.9189 105.058C8.87656 100.067 8.87001 91.9806 13.9234 86.9783V86.9783Z" stroke="#1BB4BF" stroke-width="4" stroke-linecap="round" stroke-linejoin="round"/>
<path id="Layer 5" d="M49.6782 70.4136L95.3283 25.2246" stroke="#1BB4BF" stroke-width="4" stroke-linecap="round" stroke-linejoin="round"/>
<path id="Layer 6" fill-rule="evenodd" clip-rule="evenodd" d="M95.7085 24.8478C93.3974 22.5601 93.396 18.8524 95.7042 16.5674L101.415 10.9146L109.784 19.1992L104.073 24.8521C101.765 27.1375 98.0149 27.1309 95.7085 24.8478V24.8478V24.8478Z" stroke="#1BB4BF" stroke-width="4" stroke-linecap="round" stroke-linejoin="round"/>
</g>
</g>
</svg>
