<svg width="120" height="120" viewBox="0 0 120 120" fill="none" xmlns="http://www.w3.org/2000/svg">
<g id="sock">
<g id="sock_2">
<path id="Layer 1" fill-rule="evenodd" clip-rule="evenodd" d="M50.2119 34.6376L50.2119 66.3041C50.2119 66.3041 24.0772 77.7116 19.6416 86.8796C15.2061 96.0477 19.6416 108.863 34.3799 109.306C49.1182 109.749 86.675 90.7899 86.675 90.7899C91.1473 88.6529 94.7647 82.8942 94.7647 77.978V32.7725L51.2105 34.6555C50.8723 34.6701 50.5391 34.6637 50.2119 34.6376V34.6376Z" stroke="#1BB4BF" stroke-width="4" stroke-linecap="round" stroke-linejoin="round"/>
<path id="Path" d="M50 41.6831L57.3405 47.9066L64.6828 41.6831L72 47.9066L79.5188 41.6831L86.7139 47.9066L94 41.6831" stroke="#1BB4BF" stroke-width="3.5" stroke-linecap="round" stroke-linejoin="round"/>
<path id="Path_2" d="M94 50.1699L86.7139 56.3162L79.5188 50.1699L72 56.3162L64.6828 50.1699L57.3405 56.3162L50 50.1699" stroke="#1BB4BF" stroke-width="3.5" stroke-linecap="round" stroke-linejoin="round"/>
<path id="Layer 3" fill-rule="evenodd" clip-rule="evenodd" d="M25.4225 80.2969C22.7552 82.4403 20.6441 84.6269 19.6416 86.6991C15.2061 95.8671 19.6416 108.682 34.3799 109.125C35.5039 109.159 36.7605 109.08 38.1232 108.905C38.8307 106.664 39.2119 104.28 39.2119 101.808C39.2119 92.2993 33.5714 84.0953 25.4225 80.2969V80.2969Z" stroke="#1BB4BF" stroke-width="4" stroke-linecap="round" stroke-linejoin="round"/>
<path id="Layer 4" fill-rule="evenodd" clip-rule="evenodd" d="M79.7723 94.1151C83.8671 92.1913 86.4631 90.8808 86.4631 90.8808C90.9354 88.7438 94.5527 82.9852 94.5527 78.0689V67.4259C94.5352 67.4258 94.5176 67.4258 94.5 67.4258C84.835 67.4258 77 75.1832 77 84.7525C77 88.2015 78.0178 91.4152 79.7723 94.1151V94.1151Z" stroke="#1BB4BF" stroke-width="4" stroke-linecap="round" stroke-linejoin="round"/>
<path id="Layer 5" fill-rule="evenodd" clip-rule="evenodd" d="M43 18C43 13.5817 46.5817 10 51 10H95C99.4183 10 103 13.5817 103 18V24.8365C103 29.1204 99.6254 32.644 95.3455 32.8291L51.3456 34.7314C46.7959 34.9281 43 31.2927 43 26.7388V18Z" stroke="#1BB4BF" stroke-width="4" stroke-linecap="round" stroke-linejoin="round"/>
</g>
</g>
</svg>
