<svg width="120" height="120" viewBox="0 0 120 120" fill="none" xmlns="http://www.w3.org/2000/svg">
<g id="sound">
<g id="sound_2">
<path id="Layer 1" d="M25 75H12.9994C11.3429 75 10 73.6527 10 72V48V48C10 46.3432 11.3444 45 12.9994 45H25" stroke="#1BB4BF" stroke-width="4" stroke-linecap="round" stroke-linejoin="round"/>
<path id="Layer 2" fill-rule="evenodd" clip-rule="evenodd" d="M46.7992 26.5709C50.0559 23.8573 55 26.1731 55 30.4122V89.332C55 93.5711 50.0559 95.8869 46.7992 93.1733L25 75.0088V44.7354L46.7992 26.5709Z" stroke="#1BB4BF" stroke-width="4" stroke-linecap="round" stroke-linejoin="round"/>
<path id="Layer 3" d="M83 97.137C98.5904 92.0308 109.851 77.3636 109.851 60.0664C109.851 42.7739 98.5965 28.11 83.0127 23" stroke="#1BB4BF" stroke-width="4" stroke-linecap="round" stroke-linejoin="round"/>
<path id="Layer 4" d="M77 83.4634C87.3362 80.7888 94.9701 71.3995 94.9701 60.2272C94.9701 49.0674 87.3532 39.6866 77.0345 37" stroke="#1BB4BF" stroke-width="4" stroke-linecap="round" stroke-linejoin="round"/>
<path id="Layer 5" d="M70 70V70C70.7092 70 71.4012 69.9262 72.0687 69.7858C76.5989 68.8329 80 64.8136 80 60C80 55.1154 76.4979 51.0488 71.8676 50.1741C71.2625 50.0598 70.6383 50 70 50" stroke="#1BB4BF" stroke-width="4" stroke-linecap="round" stroke-linejoin="round"/>
</g>
</g>
</svg>
