<svg width="120" height="120" viewBox="0 0 120 120" fill="none" xmlns="http://www.w3.org/2000/svg">
<g id="spaceship">
<g id="spaceship_2">
<path id="Layer 1" d="M75.157 42.9293C74.3855 42.1387 73.1193 42.1232 72.3287 42.8946C71.5382 43.666 71.5226 44.9322 72.294 45.7228L75.157 42.9293ZM105.53 76.921L106.962 75.5242L106.962 75.5242L105.53 76.921ZM73.7255 88.3939C72.6209 88.3939 71.7255 89.2893 71.7255 90.3939C71.7255 91.4984 72.6209 92.3939 73.7255 92.3939V88.3939ZM46.2745 92.3939C47.3791 92.3939 48.2745 91.4984 48.2745 90.3939C48.2745 89.2893 47.3791 88.3939 46.2745 88.3939V92.3939ZM14.1755 76.921L12.7441 75.5242L12.7441 75.5242L14.1755 76.921ZM47.706 45.4212C48.4774 44.6306 48.4618 43.3644 47.6713 42.593C46.8807 41.8215 45.6145 41.8371 44.843 42.6277L47.706 45.4212ZM72.294 45.7228L104.099 78.3177L106.962 75.5242L75.157 42.9293L72.294 45.7228ZM104.099 78.3177C107.625 81.9314 108.024 84.4468 107.517 85.694C107.02 86.9153 105.035 88.3939 100.051 88.3939V92.3939C105.35 92.3939 109.735 90.8564 111.222 87.2015C112.698 83.5725 110.696 79.3515 106.962 75.5242L104.099 78.3177ZM100.051 88.3939H73.7255V92.3939H100.051V88.3939ZM46.2745 88.3939H19.6546V92.3939H46.2745V88.3939ZM19.6546 88.3939C14.6679 88.3939 12.6828 86.9157 12.1862 85.6952C11.6791 84.449 12.0786 81.9338 15.607 78.3177L12.7441 75.5242C9.00861 79.3525 7.00445 83.5737 8.4812 87.2029C9.96846 90.8578 14.3548 92.3939 19.6546 92.3939V88.3939ZM15.607 78.3177L47.706 45.4212L44.843 42.6277L12.7441 75.5242L15.607 78.3177Z" fill="#1BB4BF"/>
<path id="Layer 2" fill-rule="evenodd" clip-rule="evenodd" d="M46.2745 29.9631C46.2745 19.5749 56.4863 10.0652 60 9.99984C63.5137 9.93443 73.7255 19.7612 73.7255 29.7012C73.7255 56.4539 73.7255 97.6717 73.7255 97.6717H46.2745C46.2745 97.6717 46.2745 56.6285 46.2745 29.9631Z" stroke="#1BB4BF" stroke-width="4" stroke-linecap="round" stroke-linejoin="round"/>
<path id="Layer 3" fill-rule="evenodd" clip-rule="evenodd" d="M60 23C56.275 23 52 27.4395 52 33.9576H68C68 27.5762 63.725 23 60 23Z" stroke="#1BB4BF" stroke-width="4" stroke-linecap="round" stroke-linejoin="round"/>
<path id="Layer 4" d="M60 70V100" stroke="#1BB4BF" stroke-width="4" stroke-linecap="round" stroke-linejoin="round"/>
<path id="Layer 5" fill-rule="evenodd" clip-rule="evenodd" d="M52.1569 110C52.1569 110 56.0784 107.761 56.0784 105C56.0784 102.239 54.3227 100 52.1569 100C49.991 100 48.2353 102.239 48.2353 105C48.2353 107.761 52.1569 110 52.1569 110Z" fill="#1BB4BF" stroke="#1BB4BF" stroke-width="4" stroke-linecap="round" stroke-linejoin="round"/>
<path id="Layer 6" fill-rule="evenodd" clip-rule="evenodd" d="M67.8431 110C67.8431 110 71.7647 107.761 71.7647 105C71.7647 102.239 70.009 100 67.8431 100C65.6773 100 63.9216 102.239 63.9216 105C63.9216 107.761 67.8431 110 67.8431 110Z" fill="#1BB4BF" stroke="#1BB4BF" stroke-width="4" stroke-linecap="round" stroke-linejoin="round"/>
</g>
</g>
</svg>
