<svg width="120" height="120" viewBox="0 0 120 120" fill="none" xmlns="http://www.w3.org/2000/svg">
<g id="structure-1">
<g id="structure-1_2">
<path id="Layer 1" fill-rule="evenodd" clip-rule="evenodd" d="M11.9975 10H108.002C109.106 10 110 10.8978 110 11.9916V38.0084C110 39.1083 109.105 40 108.002 40H11.9975C10.8943 40 10 39.1022 10 38.0084V11.9916C10 11.9916 10.8951 10 11.9975 10Z" stroke="#1BB4BF" stroke-width="4" stroke-linecap="round" stroke-linejoin="round"/>
<path id="Layer 2" d="M60 43V94" stroke="#1BB4BF" stroke-width="4" stroke-linecap="round" stroke-linejoin="round"/>
<path id="Layer 3" d="M78 95H42" stroke="#1BB4BF" stroke-width="4" stroke-linecap="round" stroke-linejoin="round"/>
<path id="Layer 4" fill-rule="evenodd" clip-rule="evenodd" d="M10 81.9916C10 80.8917 10.8978 80 11.9916 80H38.0084C39.1083 80 40 80.8978 40 81.9916V108.008C40 109.108 39.1022 110 38.0084 110H11.9916C10.8917 110 10 109.102 10 108.008V81.9916V81.9916Z" stroke="#1BB4BF" stroke-width="4" stroke-linecap="round" stroke-linejoin="round"/>
<path id="Layer 5" fill-rule="evenodd" clip-rule="evenodd" d="M80 81.9916C80 80.8917 80.8978 80 81.9916 80H108.008C109.108 80 110 80.8978 110 81.9916V108.008C110 109.108 109.102 110 108.008 110H81.9916C80.8917 110 80 109.102 80 108.008V81.9916V81.9916Z" stroke="#1BB4BF" stroke-width="4" stroke-linecap="round" stroke-linejoin="round"/>
</g>
</g>
</svg>
