<svg width="120" height="120" viewBox="0 0 120 120" fill="none" xmlns="http://www.w3.org/2000/svg">
<g id="sweep">
<g id="sweep_2">
<path id="Layer 1" fill-rule="evenodd" clip-rule="evenodd" d="M108.93 56.5266C109.098 58.0926 111.898 69.6243 98.576 87.7092C85.2541 105.794 64.198 108.963 64.198 108.963C64.198 108.963 57.6087 100.613 53.8388 89.1724C50.0688 77.7314 50.16 62.9075 51.3125 61.7315L59.2327 53.5705C60.3915 52.388 85.6555 60.199 108.93 56.5266Z" stroke="#1BB4BF" stroke-width="4" stroke-linecap="round" stroke-linejoin="round"/>
<path id="Layer 2" d="M89.7518 95.5155C82.9028 91.8862 79.3069 86.7734 79.3069 86.7734" stroke="#1BB4BF" stroke-width="4" stroke-linecap="round" stroke-linejoin="round"/>
<path id="Layer 3" d="M100.512 84.4173C92.529 83.2513 87.2277 78.6909 87.2277 78.6909" stroke="#1BB4BF" stroke-width="4" stroke-linecap="round" stroke-linejoin="round"/>
<path id="Layer 4" d="M107.809 70.0092C100.212 70.432 94.1584 67.5771 94.1584 67.5771" stroke="#1BB4BF" stroke-width="4" stroke-linecap="round" stroke-linejoin="round"/>
<path id="Layer 5" d="M77.7478 103.501C72.3758 99.176 69.4059 93.8452 69.4059 93.8452" stroke="#1BB4BF" stroke-width="4" stroke-linecap="round" stroke-linejoin="round"/>
<path id="Layer 6" fill-rule="evenodd" clip-rule="evenodd" d="M11.5169 20.031C9.49216 17.9649 9.49644 14.6107 11.5173 12.5486V12.5486C13.5422 10.4824 16.8283 10.4853 18.8499 12.5483L59.1819 53.7035L51.8489 61.1862L11.5169 20.031V20.031Z" stroke="#1BB4BF" stroke-width="4" stroke-linecap="round" stroke-linejoin="round"/>
</g>
</g>
</svg>
