<svg width="120" height="120" viewBox="0 0 120 120" fill="none" xmlns="http://www.w3.org/2000/svg">
<g id="tablet-1">
<g id="tablet-1_2">
<rect id="Layer 1" x="19" y="19.0908" width="81.8182" height="90.9091" stroke="#1BB4BF" stroke-width="4" stroke-linecap="round" stroke-linejoin="round"/>
<path id="Layer 2" fill-rule="evenodd" clip-rule="evenodd" d="M41.7273 26.3638H26.2727V102.727H93.5454V26.3638H78.0909V27.2754C78.0909 28.7803 76.8706 30.0001 75.3577 30.0001H44.4604C42.9509 30.0001 41.7273 28.7805 41.7273 27.2754V26.3638V26.3638Z" stroke="#1BB4BF" stroke-width="4" stroke-linecap="round" stroke-linejoin="round"/>
<path id="Layer 3" fill-rule="evenodd" clip-rule="evenodd" d="M69 19.0909C69 14.0701 64.9299 10 59.9091 10C54.8883 10 50.8182 14.0701 50.8182 19.0909H69V19.0909Z" stroke="#1BB4BF" stroke-width="4" stroke-linecap="round" stroke-linejoin="round"/>
<path id="Layer 4" d="M41.7273 19.0908H78.0909V26.9999C78.0909 28.6568 76.7478 29.9999 75.0909 29.9999H44.7273C43.0704 29.9999 41.7273 28.6568 41.7273 26.9999V19.0908Z" stroke="#1BB4BF" stroke-width="4" stroke-linecap="round" stroke-linejoin="round"/>
</g>
</g>
</svg>
