<svg width="120" height="120" viewBox="0 0 120 120" fill="none" xmlns="http://www.w3.org/2000/svg">
<g id="teeth">
<g id="teeth_2">
<path id="Layer 1" fill-rule="evenodd" clip-rule="evenodd" d="M59.8627 12.1422C52.4955 12.1649 39.6718 10.1833 39.6718 10.1833C28.7315 8.73204 21.4009 16.3706 23.2993 27.2493L26.9661 48.2621C27.5785 51.7716 29.0781 54.9546 31.1974 57.6142C31.1375 61.4052 31.0639 72.0195 31.8588 82.1301C32.7006 92.8378 34.6941 102.931 35.2767 104.666C36.6342 108.709 42.7289 112.521 45.2592 106.764C47.5407 101.573 46.6014 92.2725 47.9149 82.8908C49.2284 73.5091 55.4903 66.8466 59.8627 66.8466L60.8627 66.8401C65.2351 66.8401 71.4969 73.5027 72.8104 82.8844C74.1239 92.2661 73.1847 101.567 75.4662 106.758C77.9965 112.515 84.0912 108.702 85.4486 104.66C86.0312 102.925 88.0248 92.8313 88.8666 82.1236C89.6614 72.0131 89.5878 61.3987 89.528 57.6077C91.6472 54.9482 93.1468 51.7652 93.7592 48.2557L97.426 27.2428C99.3244 16.3641 91.9938 8.72559 81.0536 10.1769C81.0536 10.1769 68.2299 12.1584 60.8627 12.1584C60.7585 12.1518 60.6561 12.1544 60.5554 12.1567C60.334 12.1543 60.1028 12.1494 59.8627 12.1422Z" stroke="#1BB4BF" stroke-width="4" stroke-linecap="round" stroke-linejoin="round"/>
</g>
</g>
</svg>
