<svg width="120" height="120" viewBox="0 0 120 120" fill="none" xmlns="http://www.w3.org/2000/svg">
<g id="telescope">
<g id="telescope_2">
<path id="Layer 1" fill-rule="evenodd" clip-rule="evenodd" d="M57.0181 56.3851C56.0554 57.2955 55.4546 58.5785 55.4546 60.0001C55.4546 62.7559 57.7158 65.0001 60.5051 65.0001C63.2887 65.0001 65.5556 62.7615 65.5556 60.0001C65.5556 59.6966 65.5282 59.3993 65.4756 59.1105C63.8723 59.5148 62.2319 58.5601 61.8038 56.9784L61.3089 55.1499L61.3334 55.2404L57.0181 56.3851V56.3851Z" fill="#1BB4BF" stroke="#1BB4BF" stroke-width="4" stroke-linecap="round" stroke-linejoin="round"/>
<path id="Layer 2" fill-rule="evenodd" clip-rule="evenodd" d="M97.7102 15.7761C99.3257 15.3476 100.987 16.2985 101.419 17.8951L109.89 49.1953C110.323 50.7941 109.372 52.4357 107.749 52.8661L104.233 53.7989C102.617 54.2274 100.956 53.2765 100.524 51.6798L92.0526 20.3797C91.6199 18.7809 92.5714 17.1393 94.1941 16.7089L97.7102 15.7761V15.7761V15.7761Z" stroke="#1BB4BF" stroke-width="4" stroke-linecap="round" stroke-linejoin="round"/>
<path id="Layer 3" d="M100.053 49.9386L65.5125 59.1011C63.8975 59.5295 62.2352 58.5724 61.8039 56.9786L55.8437 34.9576C55.4105 33.3569 56.3707 31.7114 57.9835 31.2836L92.524 22.1211V22.1211V22.1211V22.1211" stroke="#1BB4BF" stroke-width="4" stroke-linecap="round" stroke-linejoin="round"/>
<path id="Layer 4" d="M61.3334 55.2403L23.8688 65.1785L18.8495 46.6335L56.3141 36.6953V36.6953V36.6953V36.6953" stroke="#1BB4BF" stroke-width="4" stroke-linecap="round" stroke-linejoin="round"/>
<path id="Layer 5" d="M22.614 60.5425L13.2478 63.0271L10.7382 53.7546L20.1043 51.27V51.27V51.27V51.27" stroke="#1BB4BF" stroke-width="4" stroke-linecap="round" stroke-linejoin="round"/>
<path id="Layer 6" d="M60.5051 65V105" stroke="#1BB4BF" stroke-width="4" stroke-linecap="round" stroke-linejoin="round"/>
<path id="Layer 7" d="M60.5051 65L80.2021 104.5" stroke="#1BB4BF" stroke-width="4" stroke-linecap="round" stroke-linejoin="round"/>
<path id="Layer 8" d="M60.5051 65L40.8081 104.5" stroke="#1BB4BF" stroke-width="4" stroke-linecap="round" stroke-linejoin="round"/>
</g>
</g>
</svg>
