<svg width="120" height="120" viewBox="0 0 120 120" fill="none" xmlns="http://www.w3.org/2000/svg">
<g id="trumpet">
<g id="trumpet_2">
<path id="Layer 1" fill-rule="evenodd" clip-rule="evenodd" d="M17.0889 97.1821L68.3946 45.8764C68.3946 45.8764 72.8701 40.3925 74.9201 31.308C76.9701 22.2234 75.3421 10.6362 75.3421 10.6362L92.2171 27.5113L109.092 44.3863C109.092 44.3863 97.5051 42.7583 88.4204 44.8084C79.336 46.8583 74.1434 51.0916 74.1434 51.0916L22.5652 102.67L23.2257 103.733C24.0493 105.129 23.7807 107.198 22.6323 108.346L22.5828 108.396C21.4315 109.547 19.568 109.55 18.4216 108.404L11.3247 101.307C10.1778 100.16 10.1844 98.294 11.3328 97.1456L11.3822 97.0962C12.5336 95.9448 14.6001 95.6705 15.9953 96.5025L17.0889 97.1821V97.1821Z" stroke="#1BB4BF" stroke-width="4" stroke-linecap="round" stroke-linejoin="round"/>
<path id="Layer 2" fill-rule="evenodd" clip-rule="evenodd" d="M38.7795 100.636C34.8962 96.7532 34.899 90.4543 38.7781 86.5752L59.8746 65.4787C63.7572 61.5962 70.0517 61.5959 73.9358 65.4801V65.4801C77.8191 69.3633 77.8163 75.6622 73.9372 79.5413L52.8407 100.638C48.9582 104.52 42.6636 104.521 38.7795 100.636V100.636V100.636Z" stroke="#1BB4BF" stroke-width="4" stroke-linecap="round" stroke-linejoin="round"/>
<path id="Layer 3" d="M47.9202 74.6206L39.4827 66.1831" stroke="#1BB4BF" stroke-width="4" stroke-linecap="round" stroke-linejoin="round"/>
<path id="Layer 4" d="M40.3563 83.9319L31.045 74.6206" stroke="#1BB4BF" stroke-width="4" stroke-linecap="round" stroke-linejoin="round"/>
<path id="Layer 5" d="M57.2314 67.0569L47.9202 57.7456" stroke="#1BB4BF" stroke-width="4" stroke-linecap="round" stroke-linejoin="round"/>
<path id="Layer 6" fill-rule="evenodd" clip-rule="evenodd" d="M31.0451 74.6208C32.2101 73.4558 32.2101 71.567 31.0451 70.4021C29.8802 69.2371 27.9914 69.2371 26.8264 70.4021C25.6614 71.567 25.6614 73.4558 26.8264 74.6208C27.9914 75.7858 29.8802 75.7858 31.0451 74.6208V74.6208Z" fill="#1BB4BF" stroke="#1BB4BF" stroke-width="4" stroke-linecap="round" stroke-linejoin="round"/>
<path id="Layer 7" fill-rule="evenodd" clip-rule="evenodd" d="M39.4826 66.1833C40.6476 65.0183 40.6476 63.1295 39.4826 61.9646C38.3177 60.7996 36.4289 60.7996 35.2639 61.9646C34.0989 63.1295 34.0989 65.0183 35.2639 66.1833C36.4289 67.3483 38.3177 67.3483 39.4826 66.1833V66.1833Z" fill="#1BB4BF" stroke="#1BB4BF" stroke-width="4" stroke-linecap="round" stroke-linejoin="round"/>
<path id="Layer 8" fill-rule="evenodd" clip-rule="evenodd" d="M47.9201 57.7458C49.0851 56.5808 49.0851 54.692 47.9201 53.5271C46.7552 52.3621 44.8664 52.3621 43.7014 53.5271C42.5364 54.692 42.5364 56.5808 43.7014 57.7458C44.8664 58.9108 46.7552 58.9108 47.9201 57.7458V57.7458Z" fill="#1BB4BF" stroke="#1BB4BF" stroke-width="4" stroke-linecap="round" stroke-linejoin="round"/>
</g>
</g>
</svg>
