<svg width="120" height="120" viewBox="0 0 120 120" fill="none" xmlns="http://www.w3.org/2000/svg">
<g id="ufo-1">
<g id="ufo-1_2">
<rect id="Layer 1" x="10" y="70" width="100" height="30" rx="15" stroke="#1BB4BF" stroke-width="4" stroke-linecap="round" stroke-linejoin="round"/>
<path id="Shape" d="M95 70C95 50.67 79.33 35 60 35C40.67 35 25 50.67 25 70" stroke="#1BB4BF" stroke-width="4" stroke-linecap="round" stroke-linejoin="round"/>
<path id="Layer 3" d="M54.1312 42.6162L55.009 44.4133C55.9168 43.9698 56.3513 42.9189 56.0218 41.9639C55.6922 41.0088 54.7021 40.4495 53.714 40.6602L54.1312 42.6162ZM42.0277 48.5284L40.7432 46.9954C39.9684 47.6446 39.7998 48.7699 40.3503 49.6176C40.9008 50.4654 41.9973 50.7691 42.9055 50.3255L42.0277 48.5284ZM38.4978 52.0643L40.1178 53.2371C40.7498 52.3642 40.5765 51.1475 39.726 50.4858C38.8754 49.824 37.6534 49.9551 36.9627 50.7823L38.4978 52.0643ZM36.2219 55.2077L34.5247 54.1497C33.9546 55.0641 34.2116 56.2659 35.1058 56.8673C36 57.4687 37.2099 57.2535 37.8419 56.3806L36.2219 55.2077ZM53.714 40.6602C48.8472 41.6982 44.4191 43.9154 40.7432 46.9954L43.3122 50.0614C46.5007 47.3898 50.3366 45.4705 54.5483 44.5722L53.714 40.6602ZM42.9055 50.3255L55.009 44.4133L53.2533 40.8191L41.1499 46.7314L42.9055 50.3255ZM36.9627 50.7823C36.0755 51.8448 35.2603 52.9697 34.5247 54.1497L37.9191 56.2658C38.5567 55.2431 39.2635 54.2677 40.033 53.3462L36.9627 50.7823ZM37.8419 56.3806L40.1178 53.2371L36.8779 50.8914L34.6019 54.0348L37.8419 56.3806Z" fill="#1BB4BF"/>
<path id="Layer 4" d="M60 34V26" stroke="#1BB4BF" stroke-width="4" stroke-linecap="round" stroke-linejoin="round"/>
<path id="Layer 5" fill-rule="evenodd" clip-rule="evenodd" d="M60 26C61.6569 26 63 24.6569 63 23C63 21.3431 61.6569 20 60 20C58.3431 20 57 21.3431 57 23C57 24.6569 58.3431 26 60 26Z" fill="#1BB4BF" stroke="#1BB4BF" stroke-width="4" stroke-linecap="round" stroke-linejoin="round"/>
<path id="Layer 6" fill-rule="evenodd" clip-rule="evenodd" d="M30 90C32.7614 90 35 87.7614 35 85C35 82.2386 32.7614 80 30 80C27.2386 80 25 82.2386 25 85C25 87.7614 27.2386 90 30 90Z" stroke="#1BB4BF" stroke-width="4" stroke-linecap="round" stroke-linejoin="round"/>
<path id="Layer 7" fill-rule="evenodd" clip-rule="evenodd" d="M60 90C62.7614 90 65 87.7614 65 85C65 82.2386 62.7614 80 60 80C57.2386 80 55 82.2386 55 85C55 87.7614 57.2386 90 60 90Z" stroke="#1BB4BF" stroke-width="4" stroke-linecap="round" stroke-linejoin="round"/>
<path id="Layer 8" fill-rule="evenodd" clip-rule="evenodd" d="M90 90C92.7614 90 95 87.7614 95 85C95 82.2386 92.7614 80 90 80C87.2386 80 85 82.2386 85 85C85 87.7614 87.2386 90 90 90Z" stroke="#1BB4BF" stroke-width="4" stroke-linecap="round" stroke-linejoin="round"/>
</g>
</g>
</svg>
