<svg width="120" height="120" viewBox="0 0 120 120" fill="none" xmlns="http://www.w3.org/2000/svg">
<g id="ufo-2">
<g id="ufo-2_2">
<rect id="Layer 1" x="15" y="55" width="90" height="22" rx="11" stroke="#1BB4BF" stroke-width="4" stroke-linecap="round" stroke-linejoin="round"/>
<path id="Layer 2" fill-rule="evenodd" clip-rule="evenodd" d="M90 55C90 38.4315 76.5685 25 60 25C43.4315 25 30 38.4315 30 55H90Z" stroke="#1BB4BF" stroke-width="4" stroke-linecap="round" stroke-linejoin="round"/>
<path id="Layer 3" d="M55.9697 31.5278L56.8475 33.3249C57.7553 32.8814 58.1898 31.8306 57.8603 30.8755C57.5307 29.9204 56.5406 29.3611 55.5525 29.5718L55.9697 31.5278ZM45.5953 36.5954L44.3108 35.0625C43.536 35.7117 43.3674 36.8369 43.9179 37.6846C44.4684 38.5324 45.5649 38.8362 46.4731 38.3925L45.5953 36.5954ZM42.5697 39.6262L44.1897 40.799C44.8217 39.9261 44.6484 38.7094 43.7978 38.0477C42.9473 37.3859 41.7253 37.517 41.0345 38.3442L42.5697 39.6262ZM40.6189 42.3206L38.9217 41.2625C38.3516 42.177 38.6085 43.3787 39.5027 43.9801C40.397 44.5815 41.6069 44.3663 42.2389 43.4934L40.6189 42.3206ZM55.5525 29.5718C51.3342 30.4715 47.4964 32.3932 44.3108 35.0625L46.8798 38.1284C49.578 35.8676 52.8236 34.2438 56.3868 33.4838L55.5525 29.5718ZM46.4731 38.3925L56.8475 33.3249L55.0918 29.7308L44.7175 34.7984L46.4731 38.3925ZM41.0345 38.3442C40.2657 39.265 39.5592 40.2399 38.9217 41.2625L42.3161 43.3786C42.8556 42.5132 43.4537 41.6879 44.1048 40.9081L41.0345 38.3442ZM42.2389 43.4934L44.1897 40.799L40.9497 38.4533L38.9989 41.1477L42.2389 43.4934Z" fill="#1BB4BF"/>
<path id="Layer 4" d="M60 24V18.4773" stroke="#1BB4BF" stroke-width="4" stroke-linecap="round" stroke-linejoin="round"/>
<path id="Layer 5" fill-rule="evenodd" clip-rule="evenodd" d="M60 18C62.2091 18 64 16.2091 64 14C64 11.7909 62.2091 10 60 10C57.7909 10 56 11.7909 56 14C56 16.2091 57.7909 18 60 18Z" fill="#1BB4BF" stroke="#1BB4BF" stroke-width="4" stroke-linecap="round" stroke-linejoin="round"/>
<path id="Layer 6" fill-rule="evenodd" clip-rule="evenodd" d="M70.281 77L79 106.987C79 106.987 72.6195 110 60 110C47.3805 110 41 106.987 41 106.987L49.7458 77H70.281Z" stroke="#1BB4BF" stroke-width="4" stroke-linecap="round" stroke-linejoin="round"/>
</g>
</g>
</svg>
