<svg width="120" height="120" viewBox="0 0 120 120" fill="none" xmlns="http://www.w3.org/2000/svg">
<g id="user-rating">
<g id="user-rating_2">
<path id="Layer 1" fill-rule="evenodd" clip-rule="evenodd" d="M22.5456 86L26.3465 94.0054L35.0911 95.1671L28.6954 101.276L30.2992 110L22.5456 105.77L14.7919 110L16.3958 101.276L10 95.1671L18.7446 94.0054L22.5456 86Z" stroke="#1BB4BF" stroke-width="4" stroke-linecap="round" stroke-linejoin="round"/>
<path id="Layer 2" fill-rule="evenodd" clip-rule="evenodd" d="M59.5456 86L63.3465 94.0054L72.0911 95.1671L65.6954 101.276L67.2992 110L59.5456 105.77L51.7919 110L53.3958 101.276L47 95.1671L55.7446 94.0054L59.5456 86Z" stroke="#1BB4BF" stroke-width="4" stroke-linecap="round" stroke-linejoin="round"/>
<path id="Layer 3" fill-rule="evenodd" clip-rule="evenodd" d="M96.5456 86L100.347 94.0054L109.091 95.1671L102.695 101.276L104.299 110L96.5456 105.77L88.7919 110L90.3958 101.276L84 95.1671L92.7446 94.0054L96.5456 86Z" stroke="#1BB4BF" stroke-width="4" stroke-linecap="round" stroke-linejoin="round"/>
<path id="Layer 4" fill-rule="evenodd" clip-rule="evenodd" d="M81.9841 73.7092C89.9362 67.1057 95 57.1442 95 46C95 26.1177 78.8823 10 59 10C39.1177 10 23 26.1177 23 46C23 57.1433 28.063 67.1042 36.014 73.7076C42.1995 68.508 51.0023 66.6752 51.6664 65.0544C52.6758 62.5905 52.6758 61.4431 52.6758 58.4898C52.6758 55.5365 48.9089 50.4581 48.9089 50.4581C48.9089 50.4581 46.5011 49.3848 45.8241 46.6346C45.3689 44.7854 46.3751 42.6778 46.9091 42.342C45.4815 37.8944 42.6303 22.5615 58.9433 22.0056C59.0146 22.0034 59.0863 22.0016 59.1583 22.012C75.3697 22.5647 72.5185 37.8976 71.0909 42.3452C71.6249 42.681 72.6311 44.7886 72.1759 46.6378C71.499 49.3879 69.0911 50.4613 69.0911 50.4613C69.0911 50.4613 65.3242 55.5396 65.3242 58.493C65.3242 61.4463 65.3242 62.5937 66.3336 65.0575C66.9977 66.6782 75.7987 68.5108 81.9841 73.7092V73.7092Z" stroke="#1BB4BF" stroke-width="4" stroke-linecap="round" stroke-linejoin="round"/>
</g>
</g>
</svg>
