<svg width="120" height="120" viewBox="0 0 120 120" fill="none" xmlns="http://www.w3.org/2000/svg">
<g id="user">
<g id="user_2">
<path id="Layer 1" fill-rule="evenodd" clip-rule="evenodd" d="M47.64 78.626C47.9995 74.6564 47.8616 71.8861 47.8616 68.2588C46.064 67.3157 42.843 61.3022 42.2988 56.2221C40.8853 56.1063 39.0747 54.4867 37.5087 49.2827C36.3431 45.4097 38.8368 42.6709 39.6888 42.1538C37.3889 35.2366 32.5911 16.4994 48.5038 14.2881C50.1414 11.4119 54.338 10 59.7875 10C81.5906 10.4014 84.6776 23.7589 79.8978 42.1538C80.7474 42.6709 83.392 45.6001 82.3168 49.2827C80.7927 54.5028 78.6898 56.1063 77.2763 56.2221C76.7345 61.2998 73.3855 67.3157 71.583 68.2588C71.583 71.8861 71.4475 74.6564 71.807 78.626C76.1214 90.2244 105.231 86.969 106.575 109.338C106.575 109.338 12.9999 109.338 12.9999 109.338C14.3419 86.969 43.3257 90.2244 47.64 78.626Z" stroke="#1BB4BF" stroke-width="4" stroke-linecap="round" stroke-linejoin="round"/>
</g>
</g>
</svg>
