<svg width="120" height="120" viewBox="0 0 120 120" fill="none" xmlns="http://www.w3.org/2000/svg">
<g id="vinyl">
<g id="vinyl_2">
<rect id="Layer 1" x="10" y="15" width="100" height="90" rx="3" stroke="#1BB4BF" stroke-width="4" stroke-linecap="round" stroke-linejoin="round"/>
<path id="Layer 2" fill-rule="evenodd" clip-rule="evenodd" d="M52 94C70.7777 94 86 78.7777 86 60C86 41.2223 70.7777 26 52 26C33.2223 26 18 41.2223 18 60C18 78.7777 33.2223 94 52 94Z" stroke="#1BB4BF" stroke-width="4" stroke-linecap="round" stroke-linejoin="round"/>
<rect id="Layer 3" x="93" y="25" width="10" height="10" rx="5" fill="#1BB4BF" stroke="#1BB4BF" stroke-width="4" stroke-linecap="round" stroke-linejoin="round"/>
<path id="Layer 4" fill-rule="evenodd" clip-rule="evenodd" d="M87.7758 84.1235C88.9486 82.9506 90.8463 82.9466 92.022 84.1223L93.4338 85.5342C94.606 86.7064 94.6071 88.6059 93.4326 89.7803L87.7805 95.4325C86.6076 96.6053 84.71 96.6093 83.5343 95.4337L82.1225 94.0218C80.9502 92.8496 80.9492 90.9501 82.1237 89.7756L87.7758 84.1235V84.1235Z" stroke="#1BB4BF" stroke-width="4" stroke-linecap="round" stroke-linejoin="round"/>
<path id="Layer 5" d="M98 37V79.5632L92.8401 84.7185" stroke="#1BB4BF" stroke-width="4" stroke-linecap="round" stroke-linejoin="round"/>
<path id="Layer 6" fill-rule="evenodd" clip-rule="evenodd" d="M52 70C57.5228 70 62 65.5228 62 60C62 54.4772 57.5228 50 52 50C46.4772 50 42 54.4772 42 60C42 65.5228 46.4772 70 52 70Z" stroke="#1BB4BF" stroke-width="4" stroke-linecap="round" stroke-linejoin="round"/>
<path id="Layer 7" fill-rule="evenodd" clip-rule="evenodd" d="M52 63C53.6569 63 55 61.6569 55 60C55 58.3431 53.6569 57 52 57C50.3431 57 49 58.3431 49 60C49 61.6569 50.3431 63 52 63Z" fill="#1BB4BF" stroke="#1BB4BF" stroke-width="4" stroke-linecap="round" stroke-linejoin="round"/>
</g>
</g>
</svg>
