<svg width="120" height="120" viewBox="0 0 120 120" fill="none" xmlns="http://www.w3.org/2000/svg">
<g id="violin">
<g id="violin_2">
<path id="Path" d="M42.1215 50.598L13.7809 22.2574L19.2117 16.8267L48.6021 46.217" stroke="#1BB4BF" stroke-width="4" stroke-linecap="round" stroke-linejoin="round"/>
<path id="Path_2" d="M69.2608 77.7374L88.454 96.9306L93.8848 91.4998L73.6154 71.2305" stroke="#1BB4BF" stroke-width="4" stroke-linecap="round" stroke-linejoin="round"/>
<path id="Layer 2" d="M84.3809 92.8574L100.673 109.15" stroke="#1BB4BF" stroke-width="4" stroke-linecap="round" stroke-linejoin="round"/>
<path id="Layer 3" d="M64.6666 50.1824C54.1664 41.1745 47.7502 45.5116 40.1896 52.2883C39.4603 55.3317 37.908 58.2181 35.5328 60.5933C31.3415 64.7846 25.5581 66.4135 20.1293 65.4799L18.8189 66.2201C7.84791 75.8142 7.2872 91.931 17.5706 102.214C27.8563 112.5 43.9692 111.939 53.5649 100.966L54.2613 99.7517C53.264 94.274 54.8828 88.4134 59.1179 84.1784C61.5875 81.7087 64.6099 80.1288 67.7867 79.4384C74.4307 71.9495 78.5368 65.4981 69.5633 55.0725" stroke="#1BB4BF" stroke-width="4" stroke-linecap="round" stroke-linejoin="round"/>
<path id="Layer 4" d="M97.7268 17.0192L95.8648 15.1572" stroke="#1BB4BF" stroke-width="4" stroke-linecap="round" stroke-linejoin="round"/>
<path id="Layer 5" d="M104.554 23.8464L102.692 21.9844" stroke="#1BB4BF" stroke-width="4" stroke-linecap="round" stroke-linejoin="round"/>
<path id="Layer 6" d="M94.0571 20.6886L92.1951 18.8267" stroke="#1BB4BF" stroke-width="4" stroke-linecap="round" stroke-linejoin="round"/>
<path id="Layer 7" d="M100.884 27.5158L99.0224 25.6538" stroke="#1BB4BF" stroke-width="4" stroke-linecap="round" stroke-linejoin="round"/>
<path id="Layer 8" fill-rule="evenodd" clip-rule="evenodd" d="M104.367 18.3209L51.5336 74.1114C51.5336 74.1114 49.9868 74.1393 47.7793 71.9318C45.5719 69.7244 45.5997 68.1776 45.5997 68.1776L101.565 15.358V10.6206H109.265V18.3209H104.367V18.3209V18.3209Z" stroke="#1BB4BF" stroke-width="4" stroke-linecap="round" stroke-linejoin="round"/>
<path id="Layer 9" d="M23.6084 84.283L31.8802 76.0112V76.0112C33.0238 74.8676 34.8537 74.8433 35.9623 75.9519V75.9519" stroke="#1BB4BF" stroke-width="4" stroke-linecap="round" stroke-linejoin="round"/>
<path id="Layer 10" d="M31.8802 76.0112L23.6084 84.283V84.283C22.4648 85.4266 20.6349 85.4509 19.5263 84.3423V84.3423" stroke="#1BB4BF" stroke-width="4" stroke-linecap="round" stroke-linejoin="round"/>
<path id="Layer 11" d="M35.7227 96.3973L43.9945 88.1256V88.1256C45.1381 86.9819 45.1624 85.1521 44.0538 84.0435V84.0435" stroke="#1BB4BF" stroke-width="4" stroke-linecap="round" stroke-linejoin="round"/>
<path id="Layer 12" d="M43.9945 88.1255L35.7227 96.3973V96.3973C34.5791 97.5409 34.5548 99.3708 35.6634 100.479V100.479" stroke="#1BB4BF" stroke-width="4" stroke-linecap="round" stroke-linejoin="round"/>
</g>
</g>
</svg>
