<svg width="120" height="120" viewBox="0 0 120 120" fill="none" xmlns="http://www.w3.org/2000/svg">
<g id="volume-1">
<g id="volume-1_2">
<path id="Layer 1" d="M78.0217 42.257C74.383 40.3056 70.3441 38.9518 66.0169 38.3436C46.3282 35.5765 28.1241 49.2943 25.357 68.983C22.59 88.6718 36.3077 106.876 55.9964 109.643V109.643C75.6852 112.41 93.8893 98.6922 96.6563 79.0035C97.8421 70.5662 96.0006 62.4015 91.9592 55.6075" stroke="#1BB4BF" stroke-width="4" stroke-linecap="round" stroke-linejoin="round"/>
<path id="Layer 2" d="M61 10V22" stroke="#1BB4BF" stroke-width="4" stroke-linecap="round" stroke-linejoin="round"/>
<path id="Layer 3" d="M77.1058 12L74 23.5911" stroke="#1BB4BF" stroke-width="4" stroke-linecap="round" stroke-linejoin="round"/>
<path id="Layer 4" d="M93 17L87 27.3923" stroke="#1BB4BF" stroke-width="4" stroke-linecap="round" stroke-linejoin="round"/>
<path id="Layer 5" d="M106.243 26.9536L97.7573 35.4389" stroke="#1BB4BF" stroke-width="4" stroke-linecap="round" stroke-linejoin="round"/>
<path id="Layer 6" d="M43.8942 12L47 23.5911" stroke="#1BB4BF" stroke-width="4" stroke-linecap="round" stroke-linejoin="round"/>
<path id="Layer 7" d="M28 17L34 27.3923" stroke="#1BB4BF" stroke-width="4" stroke-linecap="round" stroke-linejoin="round"/>
<path id="Layer 8" d="M14.7573 26.9536L23.2426 35.4389" stroke="#1BB4BF" stroke-width="4" stroke-linecap="round" stroke-linejoin="round"/>
<path id="Layer 9" d="M58.0388 75.3627L85.0471 48.3545" stroke="#1BB4BF" stroke-width="4" stroke-linecap="round" stroke-linejoin="round"/>
</g>
</g>
</svg>
