<svg width="120" height="120" viewBox="0 0 120 120" fill="none" xmlns="http://www.w3.org/2000/svg">
<g id="volume-2">
<g id="volume-2_2">
<path id="Path" fill-rule="evenodd" clip-rule="evenodd" d="M10 103.055C10 102.498 10.4553 102.047 10.9955 102.047H34.0045C34.5543 102.047 35 102.498 35 103.055V108.993C35 109.549 34.5447 110 34.0045 110H10.9955C10.4457 110 10 109.55 10 108.993V103.055V103.055Z" stroke="#1BB4BF" stroke-width="4" stroke-linecap="round" stroke-linejoin="round"/>
<path id="Path_2" fill-rule="evenodd" clip-rule="evenodd" d="M10 84.6449C10 84.0887 10.4553 83.6377 10.9955 83.6377H34.0045C34.5543 83.6377 35 84.0881 35 84.6449V90.5833C35 91.1396 34.5447 91.5906 34.0045 91.5906H10.9955C10.4457 91.5906 10 91.1402 10 90.5833V84.6449V84.6449Z" stroke="#1BB4BF" stroke-width="4" stroke-linecap="round" stroke-linejoin="round"/>
<path id="Path_3" fill-rule="evenodd" clip-rule="evenodd" d="M10 66.2358C10 65.6795 10.4553 65.2285 10.9955 65.2285H34.0045C34.5543 65.2285 35 65.6789 35 66.2358V72.1742C35 72.7304 34.5447 73.1814 34.0045 73.1814H10.9955C10.4457 73.1814 10 72.731 10 72.1742V66.2358V66.2358Z" stroke="#1BB4BF" stroke-width="4" stroke-linecap="round" stroke-linejoin="round"/>
<path id="Path_4" fill-rule="evenodd" clip-rule="evenodd" d="M85 103.055C85 102.498 85.4553 102.047 85.9955 102.047H109.005C109.554 102.047 110 102.498 110 103.055V108.993C110 109.549 109.545 110 109.005 110H85.9955C85.4457 110 85 109.55 85 108.993V103.055V103.055Z" stroke="#1BB4BF" stroke-width="4" stroke-linecap="round" stroke-linejoin="round"/>
<path id="Path_5" fill-rule="evenodd" clip-rule="evenodd" d="M85 47.8261C85 47.2698 85.4553 46.8188 85.9955 46.8188H109.005C109.554 46.8188 110 47.2692 110 47.8261V53.7645C110 54.3208 109.545 54.7717 109.005 54.7717H85.9955C85.4457 54.7717 85 54.3214 85 53.7645V47.8261V47.8261Z" stroke="#1BB4BF" stroke-width="4" stroke-linecap="round" stroke-linejoin="round"/>
<path id="Path_6" fill-rule="evenodd" clip-rule="evenodd" d="M85 84.6449C85 84.0887 85.4553 83.6377 85.9955 83.6377H109.005C109.554 83.6377 110 84.0881 110 84.6449V90.5833C110 91.1396 109.545 91.5906 109.005 91.5906H85.9955C85.4457 91.5906 85 91.1402 85 90.5833V84.6449V84.6449Z" stroke="#1BB4BF" stroke-width="4" stroke-linecap="round" stroke-linejoin="round"/>
<path id="Path_7" fill-rule="evenodd" clip-rule="evenodd" d="M85 66.2358C85 65.6795 85.4553 65.2285 85.9955 65.2285H109.005C109.554 65.2285 110 65.6789 110 66.2358V72.1742C110 72.7304 109.545 73.1814 109.005 73.1814H85.9955C85.4457 73.1814 85 72.731 85 72.1742V66.2358V66.2358Z" stroke="#1BB4BF" stroke-width="4" stroke-linecap="round" stroke-linejoin="round"/>
<path id="Path_8" fill-rule="evenodd" clip-rule="evenodd" d="M47.5 103.055C47.5 102.498 47.9553 102.047 48.4955 102.047H71.5045C72.0543 102.047 72.5 102.498 72.5 103.055V108.993C72.5 109.549 72.0447 110 71.5045 110H48.4955C47.9457 110 47.5 109.55 47.5 108.993V103.055V103.055Z" stroke="#1BB4BF" stroke-width="4" stroke-linecap="round" stroke-linejoin="round"/>
<path id="Path_9" fill-rule="evenodd" clip-rule="evenodd" d="M47.5 47.8261C47.5 47.2698 47.9553 46.8188 48.4955 46.8188H71.5045C72.0543 46.8188 72.5 47.2692 72.5 47.8261V53.7645C72.5 54.3208 72.0447 54.7717 71.5045 54.7717H48.4955C47.9457 54.7717 47.5 54.3214 47.5 53.7645V47.8261V47.8261Z" stroke="#1BB4BF" stroke-width="4" stroke-linecap="round" stroke-linejoin="round"/>
<path id="Path_10" fill-rule="evenodd" clip-rule="evenodd" d="M47.5 84.6449C47.5 84.0887 47.9553 83.6377 48.4955 83.6377H71.5045C72.0543 83.6377 72.5 84.0881 72.5 84.6449V90.5833C72.5 91.1396 72.0447 91.5906 71.5045 91.5906H48.4955C47.9457 91.5906 47.5 91.1402 47.5 90.5833V84.6449V84.6449Z" stroke="#1BB4BF" stroke-width="4" stroke-linecap="round" stroke-linejoin="round"/>
<path id="Path_11" fill-rule="evenodd" clip-rule="evenodd" d="M47.5 29.4169C47.5 28.8606 47.9553 28.4097 48.4955 28.4097H71.5045C72.0543 28.4097 72.5 28.86 72.5 29.4169V35.3553C72.5 35.9116 72.0447 36.3625 71.5045 36.3625H48.4955C47.9457 36.3625 47.5 35.9122 47.5 35.3553V29.4169V29.4169Z" stroke="#1BB4BF" stroke-width="4" stroke-linecap="round" stroke-linejoin="round"/>
<path id="Path_12" fill-rule="evenodd" clip-rule="evenodd" d="M47.5 66.2358C47.5 65.6795 47.9553 65.2285 48.4955 65.2285H71.5045C72.0543 65.2285 72.5 65.6789 72.5 66.2358V72.1742C72.5 72.7304 72.0447 73.1814 71.5045 73.1814H48.4955C47.9457 73.1814 47.5 72.731 47.5 72.1742V66.2358V66.2358Z" stroke="#1BB4BF" stroke-width="4" stroke-linecap="round" stroke-linejoin="round"/>
<path id="Path_13" fill-rule="evenodd" clip-rule="evenodd" d="M47.5 11.0072C47.5 10.451 47.9553 10 48.4955 10H71.5045C72.0543 10 72.5 10.4504 72.5 11.0072V16.9456C72.5 17.5019 72.0447 17.9529 71.5045 17.9529H48.4955C47.9457 17.9529 47.5 17.5025 47.5 16.9456V11.0072V11.0072Z" stroke="#1BB4BF" stroke-width="4" stroke-linecap="round" stroke-linejoin="round"/>
</g>
</g>
</svg>
