<svg width="120" height="120" viewBox="0 0 120 120" fill="none" xmlns="http://www.w3.org/2000/svg">
<g id="watch-1">
<g id="watch-1_2">
<rect id="Layer 1" x="28" y="28" width="60" height="64" rx="8" stroke="#1BB4BF" stroke-width="4" stroke-linecap="round" stroke-linejoin="round"/>
<path id="Path" d="M81 28C81 28 74.6717 26.5059 73.9914 22.3242C73.5183 19.4161 72.9213 14.6663 72.7033 12.554C72.4854 10.4417 70.6793 10 69.7939 10H58H46.2061C45.3207 10 43.5146 10.4417 43.2967 12.554C43.0787 14.6663 42.4817 19.4161 42.0086 22.3242C41.3283 26.5059 35 28 35 28" stroke="#1BB4BF" stroke-width="4" stroke-linecap="round" stroke-linejoin="round"/>
<path id="Path_2" d="M81 92C81 92 74.6717 93.4941 73.9914 97.6758C73.5183 100.584 72.9213 105.334 72.7033 107.446C72.4854 109.558 70.6793 110 69.7939 110H58H46.2061C45.3207 110 43.5146 109.558 43.2967 107.446C43.0787 105.334 42.4817 100.584 42.0086 97.6758C41.3283 93.4941 35 92 35 92" stroke="#1BB4BF" stroke-width="4" stroke-linecap="round" stroke-linejoin="round"/>
<rect id="Layer 4" x="88" y="40" width="5" height="12" stroke="#1BB4BF" stroke-width="4" stroke-linecap="round" stroke-linejoin="round"/>
<path id="Layer 5" fill-rule="evenodd" clip-rule="evenodd" d="M58 65C60.7614 65 63 62.7614 63 60C63 57.2386 60.7614 55 58 55C55.2386 55 53 57.2386 53 60C53 62.7614 55.2386 65 58 65Z" stroke="#1BB4BF" stroke-width="4" stroke-linecap="round" stroke-linejoin="round"/>
<path id="Layer 6" fill-rule="evenodd" clip-rule="evenodd" d="M75 65C77.7614 65 80 62.7614 80 60C80 57.2386 77.7614 55 75 55C72.2386 55 70 57.2386 70 60C70 62.7614 72.2386 65 75 65Z" stroke="#1BB4BF" stroke-width="4" stroke-linecap="round" stroke-linejoin="round"/>
<path id="Layer 7" fill-rule="evenodd" clip-rule="evenodd" d="M41 65C43.7614 65 46 62.7614 46 60C46 57.2386 43.7614 55 41 55C38.2386 55 36 57.2386 36 60C36 62.7614 38.2386 65 41 65Z" stroke="#1BB4BF" stroke-width="4" stroke-linecap="round" stroke-linejoin="round"/>
<path id="Layer 8" fill-rule="evenodd" clip-rule="evenodd" d="M67 50C69.7614 50 72 47.7614 72 45C72 42.2386 69.7614 40 67 40C64.2386 40 62 42.2386 62 45C62 47.7614 64.2386 50 67 50Z" stroke="#1BB4BF" stroke-width="4" stroke-linecap="round" stroke-linejoin="round"/>
<path id="Layer 9" fill-rule="evenodd" clip-rule="evenodd" d="M49 50C51.7614 50 54 47.7614 54 45C54 42.2386 51.7614 40 49 40C46.2386 40 44 42.2386 44 45C44 47.7614 46.2386 50 49 50Z" stroke="#1BB4BF" stroke-width="4" stroke-linecap="round" stroke-linejoin="round"/>
<path id="Layer 10" fill-rule="evenodd" clip-rule="evenodd" d="M67 80C69.7614 80 72 77.7614 72 75C72 72.2386 69.7614 70 67 70C64.2386 70 62 72.2386 62 75C62 77.7614 64.2386 80 67 80Z" stroke="#1BB4BF" stroke-width="4" stroke-linecap="round" stroke-linejoin="round"/>
<path id="Layer 11" fill-rule="evenodd" clip-rule="evenodd" d="M49 80C51.7614 80 54 77.7614 54 75C54 72.2386 51.7614 70 49 70C46.2386 70 44 72.2386 44 75C44 77.7614 46.2386 80 49 80Z" stroke="#1BB4BF" stroke-width="4" stroke-linecap="round" stroke-linejoin="round"/>
</g>
</g>
</svg>
