<?xml version="1.0" encoding="UTF-8"?>
<svg width="186px" height="200px" viewBox="0 0 186 200" version="1.1" xmlns="http://www.w3.org/2000/svg" xmlns:xlink="http://www.w3.org/1999/xlink">
    <!-- Generator: Sketch 53.2 (72643) - https://sketchapp.com -->
    <title>airbnb</title>
    <desc>Created with Sketch.</desc>
    <g id="Page-1" stroke="none" stroke-width="1" fill="none" fill-rule="evenodd">
        <g id="airbnb" fill="#FFFFFF" fill-rule="nonzero">
            <path d="M172.493145,161.683204 C171.093558,172.077281 164.099618,181.071771 154.306504,185.068879 C149.508778,187.065436 144.313736,187.6664 139.116697,187.065436 C134.121311,186.466469 129.123928,184.867227 123.928886,181.872391 C116.733293,177.87129 109.537701,171.67797 101.144175,162.483823 C114.335428,146.295737 122.327647,131.505241 125.326476,118.31798 C126.726062,112.120666 126.925718,106.524316 126.326751,101.327278 C125.528128,96.3318913 123.72923,91.7338203 120.930057,87.7367123 C114.73474,78.7442181 104.342659,73.5471797 92.7506478,73.5471797 C81.1586362,73.5471797 70.7665556,78.9438739 64.5712384,87.7367123 C61.7720651,91.7338203 59.9751636,96.3318913 59.1745441,101.327278 C58.3759212,106.524316 58.575577,112.320322 60.1748193,118.31798 C63.1716517,131.505241 71.3655228,146.495393 84.357121,162.681483 C76.16325,171.877625 68.7680018,178.072942 61.5724094,182.07005 C56.3773674,185.068879 51.3799846,186.668121 46.3845983,187.265092 C40.9879041,187.866056 35.7908654,187.065436 31.1947907,185.268535 C21.4016772,181.271427 14.4077372,172.27494 13.0081505,161.882859 C12.4091833,156.887473 12.8084948,151.892087 14.8070486,146.295737 C15.4060158,144.295186 16.406291,142.300626 17.4045696,139.900764 C18.8041563,136.704276 20.4033986,133.304139 22.0006444,129.905999 L22.2022967,129.508683 C35.9905212,99.7280355 50.7810174,69.3504165 66.1704808,39.7734172 L66.769448,38.5714898 C68.3686904,35.5766538 69.9659362,32.3801657 71.5671751,29.3813367 C73.164421,26.182852 74.9633188,23.184023 77.1615283,20.5845054 C81.358292,15.7867783 86.954642,13.1892572 93.1499594,13.1892572 C99.3452761,13.1892572 104.941626,15.7867783 109.13839,20.5845054 C111.336599,23.184023 113.135497,26.182852 114.73474,29.3813367 C116.333982,32.3801657 117.931228,35.5766538 119.53047,38.5714898 L120.131434,39.7734172 C135.319245,69.5500722 150.109741,99.9276913 163.899962,129.708339 L163.899962,129.905999 C165.499204,133.104483 166.896795,136.704276 168.496037,139.900764 C169.496312,142.300626 170.494591,144.295186 171.093558,146.295737 C172.692801,151.490779 173.291767,156.490158 172.493145,161.683204 L172.493145,161.683204 Z M92.7506478,152.289401 C81.9592558,138.700833 74.9633188,125.908891 72.5654536,115.119495 C71.5671751,110.521424 71.3655228,106.524316 71.9664865,102.92652 C72.365798,99.7280355 73.565729,96.9288623 75.1629746,94.529 C78.9604268,89.1382957 85.3553993,85.7341652 92.7506478,85.7341652 C100.145896,85.7341652 106.740525,88.9346464 110.33832,94.529 C111.935567,96.9288623 113.135497,99.7280355 113.534809,102.92652 C114.133776,106.524316 113.93412,110.72108 112.935841,115.119495 C110.537976,125.711231 103.54204,138.501178 92.7506478,152.289401 L92.7506478,152.289401 Z M182.885225,141.897321 C181.886946,139.499456 180.886672,136.901935 179.888393,134.703725 C178.289151,131.107926 176.689908,127.707789 175.290322,124.509304 L175.090666,124.311645 C161.302441,94.3313413 146.511945,63.9537222 130.922826,33.979408 L130.323859,32.7774806 C128.724617,29.7786516 127.125374,26.5801668 125.528128,23.3836787 C123.527578,19.7838859 121.529024,15.9904271 118.332536,12.3906343 C111.935567,4.39641909 102.743417,0 92.9503036,0 C82.9575341,0 73.9650406,4.39641909 67.3684151,11.9933195 C64.3715827,15.5891191 62.1733731,19.386571 60.1748193,22.9863638 C58.575577,26.182852 56.9763346,29.3813367 55.3770922,32.3801657 L54.7781251,33.5761035 C39.3906582,63.5544108 24.4005063,93.9340261 10.6102853,123.912333 L10.4106296,124.311645 C9.0110429,127.508133 7.41180051,130.904277 5.81255817,134.50407 C4.81427954,136.704276 3.81400435,139.102141 2.81572571,141.699662 C0.216208156,149.092914 -0.582414749,156.08885 0.415863883,163.282446 C2.61606999,178.272598 12.6088391,190.864885 26.3990601,196.459238 C31.5941021,198.659444 36.9907964,199.657723 42.5871464,199.657723 C44.1863888,199.657723 46.1849426,199.458067 47.7841849,199.256414 C54.3788136,198.455796 61.173098,196.261579 67.7677266,192.46213 C75.9635942,187.866056 83.7581536,181.271427 92.550992,171.67797 C101.34383,181.271427 109.338046,187.866056 117.332261,192.46213 C123.928886,196.261579 130.72317,198.455796 137.317799,199.256414 C138.917041,199.458067 140.915595,199.657723 142.514838,199.657723 C148.111188,199.657723 153.705541,198.659444 158.702924,196.459238 C172.692801,190.864885 182.485914,178.072942 184.684123,163.282446 C186.283366,156.286509 185.482746,149.294566 182.885225,141.897321 L182.885225,141.897321 Z" id="Shape"></path>
        </g>
    </g>
</svg>