<?xml version="1.0" encoding="UTF-8"?>
<svg width="806px" height="200px" viewBox="0 0 806 200" version="1.1" xmlns="http://www.w3.org/2000/svg" xmlns:xlink="http://www.w3.org/1999/xlink">
    <!-- Generator: Sketch 53.2 (72643) - https://sketchapp.com -->
    <title>algolia</title>
    <desc>Created with Sketch.</desc>
    <g id="Page-1" stroke="none" stroke-width="1" fill="none" fill-rule="evenodd">
        <g id="algolia" transform="translate(0.000000, 0.000000)" fill="#FFFFFF" fill-rule="nonzero">
            <path d="M26.2130197,0.0825896693 L172.873206,0.0825896693 C187.306957,0.0825896693 199.086225,11.8037912 199.086225,26.2956093 L199.086225,172.964091 C199.086225,187.397843 187.365024,199.168816 172.873206,199.168816 L26.2130197,199.168816 C11.7792683,199.168816 1.42108547e-14,187.455909 1.42108547e-14,172.964091 L1.42108547e-14,26.2292472 C1.42108547e-14,11.8037912 11.7129063,0.0825896693 26.2130197,0.0825896693 Z M120.289556,44.5269304 L120.289556,37.699932 C120.285893,32.9290304 116.416799,29.0636496 111.645896,29.0645669 L91.496711,29.0645669 C86.7258082,29.0636496 82.8567143,32.9290304 82.8530507,37.699932 L82.8530507,44.7094261 C82.8530507,45.4891805 83.5747383,46.0366677 84.362788,45.854172 C90.0625965,44.2084435 95.9663274,43.3762241 101.898966,43.3821846 C107.647581,43.3821846 113.338129,44.1619391 118.837886,45.6716762 C119.567869,45.854172 120.289556,45.31498 120.289556,44.5269304 Z M65.0680146,53.4609247 L61.625482,50.0183921 C60.0055504,48.397314 57.8077635,47.4865054 55.5160235,47.4865054 C53.2242835,47.4865054 51.0264964,48.397314 49.4065649,50.0183921 L45.2921162,54.1245455 C43.667546,55.7392483 42.7540378,57.9351861 42.7540378,60.2257088 C42.7540378,62.5162315 43.667546,64.7121693 45.2921162,66.3268721 L48.676582,69.711338 C49.2240693,70.2505298 50.0121189,70.1261009 50.4932439,69.586909 C52.4900225,66.8445824 54.6947685,64.2598991 57.0879751,61.8557272 C59.5013183,59.4341581 62.1092454,57.2146458 64.8855189,55.2195198 C65.4894139,54.8545283 65.5491397,54.008412 65.0680146,53.4609247 Z M101.83924,75.1364376 L101.83924,104.667561 C101.83924,105.513677 102.751719,106.119231 103.531473,105.696173 L129.785969,92.1085383 C130.383228,91.809909 130.565724,91.0799261 130.267094,90.4826674 C124.825404,80.9348239 114.721778,74.4147501 103.050348,73.9916918 C102.444794,73.9916918 101.83924,74.4728169 101.83924,75.1364376 Z M101.83924,146.276582 C79.9480509,146.276582 62.1630148,128.516432 62.1630148,106.658423 C62.1630148,84.8004148 79.9480509,67.0485597 101.83924,67.0485597 C123.738725,67.0485597 141.517125,84.8004148 141.517125,106.658423 C141.517125,128.516432 123.798451,146.276582 101.83924,146.276582 Z M101.83924,50.3833836 C70.7486083,50.3833836 45.5310197,75.567791 45.5310197,106.658423 C45.5310197,137.757351 70.7486083,162.883691 101.83924,162.883691 C132.929873,162.883691 158.147461,137.699284 158.147461,106.600356 C158.147461,75.501429 132.98794,50.3833836 101.83924,50.3833836 Z" id="Combined-Shape"></path>
            <path d="M396.868436,157.990182 C358.104688,158.170324 358.104688,126.706406 358.104688,121.696069 L358.038326,3.82872882 L381.686452,0.0792715748 L381.686452,117.224925 C381.686452,120.070199 381.686452,138.062616 396.866776,138.120683 L396.866776,157.98783 L396.868436,157.990182 Z M301.008419,138.726237 C308.265112,138.726237 313.650394,138.303179 317.39985,137.581491 L317.39985,113.550125 C315.527765,113.052334 313.627502,112.667296 311.709302,112.397084 C308.987159,111.993407 306.238954,111.791007 303.487043,111.79153 C300.882331,111.79153 298.219553,111.974026 295.565069,112.397084 C292.902291,112.762075 290.480076,113.483763 288.364784,114.512375 C286.249493,115.540987 284.490898,116.992657 283.221723,118.859091 C281.894482,120.733819 281.288928,121.820498 281.288928,124.657477 C281.288928,130.207006 283.221723,133.417271 286.730617,135.524267 C290.239513,137.639558 295.017583,138.726237 301.008419,138.726237 Z M298.951194,52.9781406 C306.748739,52.9781406 313.341809,53.948686 318.667367,55.8814814 C323.986287,57.8142769 328.283231,60.5268268 331.425476,63.9693594 C334.63574,67.4699589 336.809099,72.1235994 338.138,77.0758693 C339.531603,82.0281391 340.195224,87.461534 340.195224,93.4341208 L340.195224,154.1886 C336.570195,154.968355 331.060483,155.872538 323.687658,156.959217 C316.311513,158.045896 308.026208,158.593383 298.825106,158.593383 C292.719795,158.593383 287.095609,157.98783 282.076978,156.843083 C276.991983,155.698338 272.703334,153.823609 269.070011,151.227193 C265.503049,148.630777 262.724137,145.304378 260.666913,141.20652 C258.667756,137.092071 257.639143,131.30198 257.639143,125.263031 C257.639143,119.464645 258.78389,115.78155 261.031904,111.79153 C263.321395,107.809805 266.407233,104.549768 270.281118,102.011419 C274.213071,99.4730696 278.684216,97.664703 283.827277,96.5780241 C288.970339,95.491345 294.353961,94.943858 299.911786,94.943858 C302.516496,94.943858 305.237342,95.1263537 308.140682,95.424983 C310.985956,95.7319076 314.071792,96.2793946 317.340124,97.0591491 L317.340124,93.1935583 C317.340124,90.4810083 317.0332,87.8845921 316.36958,85.4706717 C315.731726,83.0917754 314.572833,80.8844962 312.976819,79.0086647 C311.342652,77.1339361 309.235657,75.6822657 306.572879,74.6619487 C303.910101,73.6333365 300.517339,72.8452869 296.469252,72.8452869 C291.027562,72.8452869 286.066997,73.5089077 281.52949,74.2969573 C276.991983,75.0767117 273.242526,75.9891902 270.397252,77.0095071 L267.560274,57.6317813 C270.52168,56.603169 274.934759,55.5745569 280.625307,54.55424 C286.307559,53.4592657 292.421165,52.9781406 298.949535,52.9781406 L298.951194,52.9781406 Z M765.990888,138.062616 C773.249239,138.062616 778.624569,137.639558 782.374025,136.909575 L782.374025,112.886504 C781.046784,112.521513 779.172055,112.098454 776.691773,111.733463 C773.967391,111.329886 771.216987,111.127488 768.462876,111.127909 C765.86646,111.127909 763.20368,111.310405 760.540902,111.733463 C757.88642,112.098454 755.464205,112.820142 753.348913,113.848754 C751.225326,114.877366 749.475027,116.329037 748.205852,118.19547 C746.870315,120.070199 746.273057,121.156878 746.273057,123.993856 C746.273057,129.543385 748.205852,132.75365 751.714746,134.860646 C755.281709,137.034004 760.00171,138.062616 765.990888,138.062616 Z M763.991731,52.380882 C771.789274,52.380882 778.382346,53.3431321 783.707904,55.2759276 C789.025164,57.208723 793.322109,59.9212728 796.466013,63.3638055 C799.609915,66.8063381 801.849636,71.5180454 803.176877,76.4703153 C804.57048,81.4225852 805.234101,86.85598 805.234101,92.836862 L805.234101,153.583047 C801.609072,154.362801 796.10102,155.266984 788.726535,156.361959 C781.352049,157.448638 773.065085,157.98783 763.865643,157.98783 C757.760332,157.98783 752.136146,157.382276 747.119173,156.237529 C742.03418,155.092784 737.745531,153.218055 734.112206,150.621639 C730.545244,148.025223 727.766332,144.698824 725.709109,140.600966 C723.709951,136.494812 722.681339,130.696426 722.681339,124.657477 C722.681339,118.859091 723.83438,115.175996 726.074099,111.185976 C728.363592,107.204251 731.449428,103.944214 735.323315,101.405865 C739.255268,98.8758109 743.726413,97.0591491 748.869472,95.9724701 C754.012534,94.8857912 759.396157,94.3465992 764.962276,94.3465992 C767.558693,94.3465992 770.279537,94.529095 773.182879,94.8277243 C776.086219,95.1263537 779.113989,95.6738408 782.374025,96.4618904 L782.374025,92.5962995 C782.374025,89.8754545 782.075397,87.2790383 781.411775,84.8651178 C780.775745,82.485509 779.61665,80.2778457 778.019014,78.4031107 C776.384849,76.528382 774.277852,75.0767117 771.615074,74.0563948 C768.950636,73.0277827 765.559535,72.2480282 761.511449,72.2480282 C756.069757,72.2480282 751.109192,72.911649 746.571687,73.6914035 C742.03418,74.4794531 738.284721,75.3836364 735.439447,76.4122485 L732.602469,57.0262272 C735.563877,55.9976151 739.976954,54.9772983 745.667502,53.948686 C751.349756,52.9200739 757.455066,52.380882 763.991731,52.380882 Z M692.98431,41.1491008 C700.904624,41.1491008 707.38488,34.7451606 707.38488,26.8314831 C707.38488,18.9261009 700.970986,12.5221607 692.98431,12.5221607 C685.004271,12.5221607 678.592035,18.9261009 678.592035,26.8314831 C678.592035,34.7451606 685.062337,41.1491008 692.98431,41.1491008 Z M704.896302,157.98783 L681.128726,157.98783 L681.128726,56.0556819 L704.894644,52.31452 L704.894644,157.98783 L704.896302,157.98783 Z M663.227556,157.990182 C624.463809,158.170324 624.463809,126.706406 624.463809,121.696069 L624.397447,3.82872882 L648.047231,0.0792715748 L648.047231,117.224925 C648.047231,120.070199 648.047231,138.062616 663.227556,138.120683 L663.227556,157.990182 Z M586.355387,105.818943 C586.355387,95.6074787 584.115668,87.0965425 579.762315,81.1820227 C575.407304,75.2011406 569.301992,72.2480282 561.496154,72.2480282 C553.698609,72.2480282 547.583345,75.2011406 543.236628,81.1820227 C538.881617,87.1546094 536.75969,95.6074787 536.75969,105.818943 C536.75969,116.146541 538.941343,123.081378 543.296354,129.06226 C547.651365,135.101209 553.756677,138.062616 561.562517,138.062616 C569.36006,138.062616 575.473666,135.043142 579.828677,129.06226 C584.182028,123.023311 586.355387,116.146541 586.355387,105.818943 Z M610.544364,105.760876 C610.544364,113.73262 609.399617,119.763274 607.037128,126.34971 C604.681274,132.927851 601.354876,138.543741 597.066225,143.197382 C592.769282,147.842727 587.62622,151.467755 581.577318,154.006105 C575.531732,156.536159 566.214498,157.98783 561.560857,157.98783 C556.898921,157.929762 547.649707,156.602521 541.660529,154.006105 C535.671353,151.409689 530.528291,147.842727 526.239643,143.197382 C521.942698,138.543741 518.617957,132.927851 516.195742,126.34971 C513.780162,119.763274 512.570713,113.73262 512.570713,105.760876 C512.570713,97.789132 513.655734,90.116017 516.07795,83.5959431 C518.500165,77.0758693 521.884631,71.5180454 526.239643,66.8727002 C530.594654,62.2190597 535.795781,58.6520981 541.718597,56.1220439 C547.707773,53.5836946 554.302506,52.380882 561.436428,52.380882 C568.578646,52.380882 575.165082,53.6417614 581.212326,56.1220439 C587.267866,58.6520981 592.470652,62.2190597 596.701235,66.8727002 C600.988225,71.5180454 604.316283,77.0758693 606.738499,83.5959431 C609.276847,90.116017 610.546022,97.789132 610.546022,105.760876 L610.544364,105.760876 Z M432.554643,105.760876 C432.554643,115.657121 434.728,126.648339 439.083011,131.235618 C443.438022,135.831191 449.06055,138.120683 455.963863,138.120683 C459.713321,138.120683 463.280282,137.581491 466.605022,136.552879 C469.931422,135.524267 472.587564,134.313159 474.71115,132.869784 L474.71115,74.2388906 C473.018917,73.8738991 465.941402,72.4222287 459.099472,72.2480282 C450.513879,71.9991706 443.985509,75.5080652 439.389935,81.1156605 C434.85077,86.7398465 432.554643,96.5780241 432.554643,105.760876 Z M498.294572,152.371939 C498.294572,168.497923 494.180124,180.268896 485.891501,187.759515 C477.612831,195.241839 464.970857,198.991296 447.915803,198.991296 C441.686063,198.991296 428.745458,197.780189 418.401271,195.490698 L422.208794,176.768296 C430.86075,178.576663 442.291617,179.066083 448.280795,179.066083 C457.770572,179.066083 464.547798,177.133288 468.595885,173.267698 C472.652266,169.402106 474.643129,163.670082 474.643129,156.055035 L474.643129,152.189443 C472.287276,153.334189 469.201439,154.48723 465.393915,155.698338 C461.586391,156.843083 457.173312,157.448638 452.204452,157.448638 C445.676083,157.448638 439.744973,156.420025 434.369644,154.362801 C428.98602,152.313872 424.324085,149.294397 420.516561,145.304378 C416.709038,141.322653 413.681268,136.312317 411.565976,130.331434 C409.450685,124.350552 408.355712,113.666258 408.355712,105.818943 C408.355712,98.4527526 409.508753,89.2118337 411.750131,83.0484559 C414.046258,76.8933735 417.307954,71.5761123 421.727669,67.1713294 C426.08434,62.7665468 431.408236,59.3820809 437.637976,56.9017984 C443.867717,54.429811 451.175839,52.8620071 459.097813,52.8620071 C466.787518,52.8620071 473.863375,53.8242572 480.756735,54.9772983 C487.650096,56.1220439 493.514844,57.3248567 498.292913,58.6520981 L498.292913,152.371939 L498.294572,152.371939 Z" id="Shape"></path>
        </g>
    </g>
</svg>