<?xml version="1.0" encoding="UTF-8"?>
<svg width="200px" height="200px" viewBox="0 0 200 200" version="1.1" xmlns="http://www.w3.org/2000/svg" xmlns:xlink="http://www.w3.org/1999/xlink">
    <!-- Generator: Sketch 53.2 (72643) - https://sketchapp.com -->
    <title>invision</title>
    <desc>Created with Sketch.</desc>
    <g id="Page-1" stroke="none" stroke-width="1" fill="none" fill-rule="evenodd">
        <g id="invision" fill="#FFFFFF" fill-rule="nonzero">
            <path d="M181.869697,0 C191.882576,0 200,8.11742422 200,18.130303 L200,181.869697 C200,191.882576 191.882576,200 181.869697,200 L18.130303,200 C8.11742422,200 0,191.882576 0,181.869697 L0,18.130303 C0,8.11742422 8.11742422,0 18.130303,0 L181.869697,0 Z M66.8401515,62.9257576 C73.4886363,62.9257576 79.0575758,57.7143939 79.0575758,50.8848485 C79.0575758,44.0598485 73.4886363,38.85 66.8401515,38.85 C60.1916666,38.85 54.6234848,44.0598485 54.6234848,50.8848485 C54.6234848,57.7143939 60.1916666,62.9257576 66.8401515,62.9257576 Z M41.5068182,127.394697 C40.7893939,130.449242 40.4287879,133.747727 40.4287879,136.438637 C40.4287879,147.040909 46.1780303,154.079545 58.3962121,154.079545 C68.5295455,154.079545 76.7439394,148.061363 82.6583336,138.345455 L79.0469695,152.840152 L99.168182,152.840152 L110.668182,106.715909 C113.542424,95.0371211 119.112121,88.9757578 127.557576,88.9757578 C134.205303,88.9757578 138.337879,93.1098484 138.337879,99.9348484 C138.337879,101.912879 138.157576,104.066666 137.439394,106.40303 L131.509091,127.603788 C130.610606,130.658334 130.25303,133.715152 130.25303,136.587121 C130.25303,146.652273 136.180303,154.014394 148.57803,154.014394 C159.178787,154.014394 167.622727,147.190152 172.294697,130.839394 L164.390152,127.787121 C160.436363,138.741666 157.022727,140.72197 154.32803,140.72197 C151.632576,140.72197 150.194697,138.926515 150.194697,135.334848 C150.194697,133.718182 150.555303,131.923485 151.093182,129.762879 L156.843939,109.107576 C158.280303,104.257576 158.820455,99.956818 158.820455,96.0053031 C158.820455,80.5537875 149.476515,72.4901515 138.157576,72.4901515 C127.557576,72.4901515 116.776515,82.0515148 111.387879,92.1143938 L115.339394,74.0522727 L84.6166664,74.0522727 L80.3037875,89.9613633 L94.6780305,89.9613633 L85.8272727,125.399242 C78.8757578,140.850758 66.1075758,141.101515 64.505303,140.742424 C61.8742424,140.149242 60.1916666,139.15 60.1916666,135.731061 C60.1916666,133.758334 60.5507576,130.925 61.4492424,127.508334 L74.9257576,74.0522727 L40.7893939,74.0522727 L36.4765152,89.9613633 L50.669697,89.9613633 L41.5068182,127.394697 Z" id="Combined-Shape"></path>
        </g>
    </g>
</svg>