<?xml version="1.0" encoding="UTF-8"?>
<svg width="192px" height="200px" viewBox="0 0 192 200" version="1.1" xmlns="http://www.w3.org/2000/svg" xmlns:xlink="http://www.w3.org/1999/xlink">
    <!-- Generator: Sketch 53.2 (72643) - https://sketchapp.com -->
    <title>twitch</title>
    <desc>Created with Sketch.</desc>
    <g id="Page-1" stroke="none" stroke-width="1" fill="none" fill-rule="evenodd">
        <g id="twitch" fill="#FFFFFF" fill-rule="nonzero">
            <path d="M13.0282925,0 L0,34.743223 L0,173.699468 L47.748209,173.699468 L47.748209,199.76937 L73.8167801,199.76937 L99.8593813,173.699468 L138.93427,173.699468 L191.044776,121.607607 L191.044776,0 L13.0282925,0 Z M30.3855872,17.3606242 L173.680157,17.3606242 L173.680157,112.904321 L143.277922,143.308553 L95.5223881,143.308553 L69.4871119,169.342498 L69.4871119,143.308553 L30.3855872,143.308553 L30.3855872,17.3606242 Z M78.1529739,104.230135 L95.5222552,104.230135 L95.5222552,52.1222925 L78.1529739,52.1222925 L78.1529739,104.230135 Z M125.911837,104.230135 L143.277789,104.230135 L143.277789,52.1222925 L125.911837,52.1222925 L125.911837,104.230135 Z" id="Shape"></path>
        </g>
    </g>
</svg>