<?xml version="1.0" encoding="UTF-8"?>
<svg width="861px" height="200px" viewBox="0 0 861 200" version="1.1" xmlns="http://www.w3.org/2000/svg" xmlns:xlink="http://www.w3.org/1999/xlink">
    <!-- Generator: Sketch 53.2 (72643) - https://sketchapp.com -->
    <title>yahoo</title>
    <desc>Created with Sketch.</desc>
    <g id="Page-1" stroke="none" stroke-width="1" fill="none" fill-rule="evenodd">
        <g id="yahoo" fill="#FFFFFF" fill-rule="nonzero">
            <path d="M849.077084,2.72603429 C855.669933,3.82834877 860.07395,7.86396719 860.07395,14.8120395 C860.07395,17.1115563 859.126551,20.349384 858.492919,23.0860455 C854.075366,42.5592126 836.82341,111.36364 829.560255,157.288233 L822.876934,150.604912 L844.148074,9.34050635 L849.077084,2.72603429 Z" id="Path"></path>
            <path d="M419.165795,21.4217358 C410.262571,23.5537382 401.520425,23.4951723 392.926432,21.4217358 L406.570904,35.5909872 L419.165795,21.4217358 Z" id="Path"></path>
            <path d="M282.765751,21.4217358 C291.668975,23.5537382 300.411121,23.4951723 309.005114,21.4217358 L295.36065,35.5909872 L282.765751,21.4217358 Z" id="Path"></path>
            <path d="M205.751202,21.3663709 C225.872363,72.289039 257.537661,149.366044 273.315487,178.825079 L249.957978,171.687652 L192.162205,27.1517817 L205.751202,21.3663709 Z" id="Path"></path>
            <path d="M187.455418,21.362275 C193.881492,23.5151103 199.211455,23.6470943 205.753008,21.362275 L192.74838,29.350955 L187.455418,21.362275 Z" id="Path"></path>
            <path d="M196.696546,26.9198758 L255.588257,171.355257 C252.103869,175.128894 250.550022,177.108966 247.162225,178.874247 C230.092869,134.909943 211.762081,90.9346161 196.232476,47.5380297 L188.566503,34.5414131 L196.696546,26.9198758 Z" id="Path"></path>
            <path d="M146.046666,178.819408 L128.661039,172.661768 L189.878427,29.0311486 L196.700676,26.9218721 L196.700676,48.1858775 C187.181692,75.6525005 163.024586,135.915804 146.046666,178.819408 L146.046666,178.819408 Z" id="Path"></path>
            <path d="M131.627111,0.430252101 L137.399718,13.5499294 L152.093773,6.72769721 L158.069373,0.430252101 C148.61682,2.57447368 140.091203,2.64574064 131.627111,0.430252101 L131.627111,0.430252101 Z" id="Path"></path>
            <path d="M90.1688793,114.833847 L80.1978729,118.507356 L73.900445,107.486828 L136.350161,7.77727139 L140.814973,6.24799193 C146.977732,4.85530891 153.699302,3.36181782 158.077289,0.430252101 C148.159634,13.8278034 112.04651,76.4502309 90.1688793,114.833847 L90.1688793,114.833847 Z" id="Path"></path>
            <path d="M76.5243805,113.259486 L79.148316,110.63555 L140.927957,6.22552417 L131.627111,0.430252101 C124.168089,14.3235657 96.6577694,59.2817178 79.148316,88.0697052 L70.7516881,103.813318 L76.5243805,113.259486 Z" id="Path"></path>
            <path d="M26.6696067,0.430252101 C40.3654776,24.7023392 61.3900047,58.6579039 79.148316,88.0697052 L79.148316,110.63555 L74.950002,114.833847 L13.5499294,5.67812303 L26.6696067,0.430252101 Z" id="Path"></path>
            <path d="M16.549561,7.031808 L26.6696067,0.430252101 C15.8101297,2.74623892 11.267442,2.8936519 0.430252101,0.430252101 L4.62856605,5.15333593 L16.549561,7.031808 Z" id="Path"></path>
            <path d="M79.148316,110.63555 L74.4252666,117.457782 L68.1277526,114.833847 C56.4032108,94.5694032 21.9380383,32.8391121 0.430252101,0.430252101 C4.78999664,3.58947281 10.6800618,5.32305318 17.4828639,6.42788894 L79.148316,110.63555 Z" id="Path"></path>
            <polygon id="Path" points="91.7431718 199.324568 73.900445 190.927975 75.4748235 116.408208 79.148316 110.63555 90.1688793 114.833847"></polygon>
            <polygon id="Path" points="79.148316 193.551911 66.5534602 199.324568 68.1277526 114.833847 79.148316 110.63555"></polygon>
            <path d="M120.081726,178.857872 C141.975965,134.228295 166.322641,74.3798405 187.454128,21.3536699 L196.700676,26.9247032 L136.928247,173.142627 L124.804862,177.283511 L120.081726,178.857872 Z" id="Path"></path>
            <path d="M254.962422,171.092862 L273.336054,178.830956 C266.287835,177.054126 256.747185,176.372797 247.15924,178.876045 L250.746528,170.040992 L254.962422,171.092862 Z" id="Path"></path>
            <path d="M155.773117,127.227586 L168.691351,121.68457 C187.299496,122.338665 205.90764,122.329277 224.51577,121.68457 L237.619553,127.389903 L225.420279,130.057078 L165.026893,130.057078 L155.773117,127.227586 Z" id="Path"></path>
            <path d="M164.377557,132.677813 L155.703503,127.227586 C182.958338,126.810749 210.254134,126.844704 237.596353,127.389903 L228.922351,132.677813 C207.407413,131.980632 185.892486,132.064127 164.377557,132.677813 L164.377557,132.677813 Z" id="Path"></path>
            <path d="M309.005114,178.857872 L290.637566,172.560427 L290.637566,31.3926906 L295.885437,28.7687551 L309.005114,21.4217358 C306.282755,73.8075622 306.223104,126.286487 309.005114,178.857872 L309.005114,178.857872 Z" id="Path"></path>
            <path d="M295.885437,171.510852 L295.885437,175.184363 L282.765751,178.857872 C284.851958,126.462606 285.050906,73.991865 282.765751,21.4217358 L295.885437,28.7687551 L295.885437,171.510852 Z" id="Path"></path>
            <path d="M392.926432,178.857872 L411.293988,172.560427 L411.293988,31.3926906 L406.046118,28.7687551 L392.926432,21.4217358 C395.648792,73.8075622 395.708442,126.286487 392.926432,178.857872 L392.926432,178.857872 Z" id="Path"></path>
            <path d="M295.937178,99.8140213 L306.965229,94.8971778 C336.271671,95.6358175 365.612625,95.5806161 394.980894,94.8971778 L406.043734,99.8140213 L392.360134,103.084127 L306.872457,103.084127 L295.937178,99.8140213 Z" id="Path"></path>
            <path d="M511.786139,21.3628514 C460.245879,21.3628514 434.527637,53.5865654 434.527637,100.441716 C434.527637,159.125771 473.454393,179.454976 511.113758,179.454976 C555.845667,179.454976 587.913096,154.286347 587.913096,100.589336 C587.913096,48.9104565 557.559197,21.3628514 511.786139,21.3628514 L511.786139,21.3628514 Z M510.24458,28.8410719 C510.728992,28.8310901 511.217983,28.8410719 511.704141,28.8410719 C545.743726,28.8410719 570.742689,52.026325 570.742689,100.47451 C570.742689,148.861513 545.776519,172.04236 511.769738,172.04236 C474.665089,172.04236 452.862382,145.453598 452.862382,100.605711 C452.862382,49.8841429 479.726523,29.4663055 510.24458,28.8410719 L510.24458,28.8410719 Z" id="Shape"></path>
            <path d="M511.605743,19.2965055 C455.941129,19.2965055 426.737827,54.5909545 426.737827,100.343317 C426.737827,150.421341 458.619869,180.963741 511.523745,180.963741 C568.71985,180.963741 596.654054,146.542902 596.654054,100.868105 C596.654054,49.9432852 563.293709,19.2965055 511.605743,19.2965055 L511.605743,19.2965055 Z M511.769738,24.5115741 C555.720239,24.5115741 584.862771,50.9517704 584.862771,100.572909 C584.862771,152.131834 554.064534,176.306254 511.113758,176.306254 C474.953901,176.306254 437.57796,156.789106 437.57796,100.441716 C437.57796,55.4522417 462.281686,24.5115741 511.769738,24.5115741 L511.769738,24.5115741 Z" id="Shape"></path>
            <path d="M704.120652,13.3106232 C651.811703,13.3106232 615.972787,42.8832183 615.972787,100.523739 C615.972787,157.067772 649.314346,188.655126 704.333815,188.655126 C746.004746,188.655126 791.661706,167.25257 791.661706,101.327295 C791.661706,30.1770218 741.791442,13.3106232 704.120652,13.3106232 L704.120652,13.3106232 Z M703.84183,19.6080682 C745.469521,19.6080682 776.131257,44.8967207 776.131257,100.671307 C776.131257,161.30128 739.041143,180.963741 703.907427,180.963741 C666.370452,180.963741 632.17559,158.935014 632.17559,99.4741652 C632.17559,37.8438476 670.077341,19.6080682 703.84183,19.6080682 L703.84183,19.6080682 Z" id="Shape"></path>
            <path d="M703.776235,9.81753546 C648.342339,9.81753546 605.969029,41.294323 605.969029,99.8185304 C605.969029,148.036969 634.154509,190.475504 704.235417,190.475504 C763.566545,190.475504 802.305015,157.856054 802.305015,100.671307 C802.305015,46.7462798 766.167487,9.81753546 703.776235,9.81753546 L703.776235,9.81753546 Z M704.120652,15.6885921 C740.767108,15.6885921 789.283736,32.1117536 789.283736,101.327295 C789.283736,165.459951 744.8552,186.277208 704.31744,186.277208 C650.794035,186.277208 618.367123,155.546624 618.367123,100.540115 C618.367123,44.4669763 653.234091,15.6885921 704.120652,15.6885921 L704.120652,15.6885921 Z" id="Shape"></path>
            <path d="M806.584965,187.86464 C806.584965,181.093573 810.702555,174.797076 818.956933,174.797076 C826.857808,174.797076 832.76985,179.522259 832.76985,187.069689 C832.76985,196.473039 826.546924,199.938521 820.845061,199.938521 C812.961397,199.938521 806.584965,195.847753 806.584965,187.86464 L806.584965,187.86464 Z" id="Path"></path>
            <path d="M819.766728,155.786292 C826.165042,110.560609 830.056965,63.0304269 833.793867,15.6376933 C833.793867,6.19199032 840.037161,2.49764787 846.336645,2.49764787 C847.440697,2.49764787 849.069005,2.72766064 849.069005,2.72766064 L847.355526,14.0566631 L824.913842,154.530265 L819.766728,155.786292 Z" id="Path"></path>
            <path d="M66.5534602,199.324568 L79.1718077,190.079923 L91.7431718,199.324568 C91.7431718,199.324568 84.7742064,198.056427 79.1715496,198.056427 C74.1162595,198.056427 66.5534602,199.324568 66.5534602,199.324568 L66.5534602,199.324568 Z" id="Path"></path>
            <path d="M120.079747,178.877345 L137.681791,171.267356 C140.367511,174.487346 142.756787,177.216022 146.055443,178.830956 C139.718776,177.116264 130.125704,176.346929 120.081726,178.857718 L120.079747,178.877345 Z" id="Path"></path>
            <path d="M282.765751,178.857872 C291.287366,176.804331 300.013422,176.713487 308.972311,178.857872 L295.885437,171.510852 L282.765751,178.857872 Z" id="Path"></path>
            <path d="M306.965229,105.635324 L295.91398,99.8140213 C332.623166,100.196799 369.332345,100.261139 406.041531,99.8140213 L395.004602,105.600895 C365.658146,105.206681 336.311684,105.225517 306.965229,105.635487 L306.965229,105.635324 Z" id="Path"></path>
            <path d="M406.046118,171.510852 L406.046118,175.184363 L419.165795,178.857872 C417.079588,126.462606 416.88064,73.991865 419.165795,21.4217358 L406.046118,28.7687551 L406.046118,171.510852 Z" id="Path"></path>
            <path d="M419.165795,178.857872 C410.644178,176.804331 401.918124,176.713487 392.959234,178.857872 L406.046118,171.510852 L419.165795,178.857872 Z" id="Path"></path>
            <path d="M825.55503,150.481111 L819.740388,155.786292 C823.636459,155.100083 826.649471,156.116958 829.577835,157.297044 L825.55503,150.481111 Z" id="Path"></path>
            <path d="M859.757659,13.9512946 C859.757659,20.1217417 854.031987,25.1238553 846.968985,25.1238553 C839.905985,25.1238553 834.180313,20.1217417 834.180313,13.9512946 C834.180313,7.7808999 839.905985,2.77878635 846.968985,2.77878635 C854.031987,2.77878635 859.757659,7.7808999 859.757659,13.9512946 L859.757659,13.9512946 Z" id="Path"></path>
        </g>
    </g>
</svg>