<?xml version="1.0" encoding="UTF-8"?>
<svg width="29px" height="29px" viewBox="0 0 29 29" version="1.1" xmlns="http://www.w3.org/2000/svg" xmlns:xlink="http://www.w3.org/1999/xlink">
    <!-- Generator: Sketch 52.5 (67469) - http://www.bohemiancoding.com/sketch -->
    <title>logo-black</title>
    <desc>Created with Sketch.</desc>
    <g id="Page-1" stroke="none" stroke-width="1" fill="none" fill-rule="evenodd">
        <g id="logo-black" fill="#FFFFFF" fill-rule="nonzero">
            <path d="M7.12110314,10.6078368 L18.1125344,3.19647631 C18.1125344,3.19647631 17.9292693,4.46892302 17.6410887,6.30046812 L28.208984,0 L22.4039461,10.2496473 C24.3710997,9.98498012 25.7623907,9.81901261 25.7623907,9.81901261 L16.9602741,22.1857861 C15.9741982,23.8412855 15.1193458,25.1067508 14.5059378,25.7201588 C14.4409342,25.7851625 14.3751394,25.8488927 14.3085845,25.9113497 L14.2917553,25.9349943 C14.2917553,25.9349943 14.2901576,25.9338291 14.2870105,25.9315259 C10.9549442,29.0370299 5.73524047,28.9665742 2.48882512,25.7201588 C-0.829608907,22.4017248 -0.829608907,17.0214802 2.48882512,13.7030462 C3.23170085,12.9601705 4.93093181,11.8631746 7.12110314,10.6078368 Z M8.52397125,25.1059961 C11.5178977,25.1059961 13.9449546,22.6789391 13.9449546,19.6850127 C13.9449546,16.6910863 11.5178977,14.2640294 8.52397125,14.2640294 C5.5300448,14.2640294 3.10298788,16.6910863 3.10298788,19.6850127 C3.10298788,22.6789391 5.5300448,25.1059961 8.52397125,25.1059961 Z" id="Combined-Shape" transform="translate(14.104492, 14.104492) scale(-1, 1) translate(-14.104492, -14.104492) "></path>
        </g>
    </g>
</svg>