<svg width="120" height="120" viewBox="0 0 120 120" fill="none" xmlns="http://www.w3.org/2000/svg">
<g id="aperture">
<g id="aperture_2">
<path id="Layer 1" d="M45.5153 107.838C28.7956 102.897 15.7352 89.4283 11.3702 72.4692H67.1991" stroke="white" stroke-width="4" stroke-linecap="round" stroke-linejoin="round"/>
<path id="Layer 2" d="M94.9513 95.5991V95.5991C95.0604 95.4921 95.1689 95.3847 95.2769 95.2769V95.2769V95.2769C82.6108 107.959 63.9329 112.884 46.6459 108.068L74.3981 60" stroke="white" stroke-width="4" stroke-linecap="round" stroke-linejoin="round"/>
<path id="Layer 3" d="M108.305 47.5308V47.5308C108.267 47.3829 108.229 47.2352 108.189 47.0878V47.0878V47.0878C112.839 64.3979 107.765 83.0359 94.9513 95.5991V95.5991L67.1991 47.5308" stroke="white" stroke-width="4" stroke-linecap="round" stroke-linejoin="round"/>
<path id="Layer 4" d="M73.354 11.9318C73.2069 11.8908 73.0596 11.8505 72.9122 11.8109V11.8109V11.8109C90.2282 16.439 103.832 30.1521 108.305 47.5309V47.5309H52.8009" stroke="white" stroke-width="4" stroke-linecap="round" stroke-linejoin="round"/>
<path id="Layer 5" d="M25.0487 24.4009C24.9396 24.5079 24.8311 24.6153 24.7231 24.7231H24.7231V24.7231V24.7231C37.3891 12.0411 56.067 7.11608 73.354 11.9318L45.6018 60" stroke="white" stroke-width="4" stroke-linecap="round" stroke-linejoin="round"/>
<path id="Layer 6" d="M11.6941 72.4691V72.4691V72.4691C7.248 55.2847 12.344 36.8569 25.0487 24.4009L52.8009 72.4691" stroke="white" stroke-width="4" stroke-linecap="round" stroke-linejoin="round"/>
</g>
</g>
</svg>
