<svg width="120" height="120" viewBox="0 0 120 120" fill="none" xmlns="http://www.w3.org/2000/svg">
<g id="apple-2">
<g id="apple-2_2">
<path id="Layer 1" fill-rule="evenodd" clip-rule="evenodd" d="M91.7181 95.7203C84.1659 105.818 75.6475 111 71.7839 111C68.0712 111 63.9372 107.71 60.22 107.675C56.5029 107.71 52.3689 111 48.6562 111C42.0455 111 21.8078 95.8304 16.0984 66.82C11.3455 42.6699 23.0753 35.966 31.059 32.4579C39.0274 28.9564 58.1315 32.8622 60.22 32.8622C62.3085 32.8622 81.4127 28.9564 89.3811 32.4579C96.3575 35.5234 106.195 41.0292 105.394 58.4842C103.98 58.1673 102.51 58 101 58C89.9543 58 81 66.9543 81 78C81 85.6955 85.3463 92.3759 91.7181 95.7203V95.7203Z" stroke="white" stroke-width="4" stroke-linecap="round" stroke-linejoin="round"/>
<path id="Path" d="M23.0018 57.7451C22.9824 59.499 23.1166 61.4295 23.434 63.5575C23.5422 64.2832 23.6718 65.0318 23.8238 65.8043" stroke="white" stroke-width="3.5" stroke-linecap="round" stroke-linejoin="round"/>
<path id="Path_2" d="M40.2182 39C38.2241 39.1203 36.4146 39.4303 35.0442 40.0325C31.9035 41.4126 27.9897 43.4521 25.4924 47.6935C25.083 48.3888 24.7117 49.1432 24.3881 49.9637" stroke="white" stroke-width="3.5" stroke-linecap="round" stroke-linejoin="round"/>
<path id="Layer 3" d="M60.4307 31C60.4307 31 61.6348 23.2324 58.543 17.1162C55.4512 11 48 11 48 11" stroke="white" stroke-width="4" stroke-linecap="round" stroke-linejoin="round"/>
<path id="Layer 4" fill-rule="evenodd" clip-rule="evenodd" d="M75.0564 23.6105C67.9915 25.5035 60.6322 20.9467 60.6322 20.9467C60.6322 20.9467 64.7272 13.3207 71.792 11.4276C78.8568 9.53464 86.2162 14.0915 86.2162 14.0915C86.2162 14.0915 82.1212 21.7175 75.0564 23.6105V23.6105Z" stroke="white" stroke-width="4" stroke-linecap="round" stroke-linejoin="round"/>
</g>
</g>
</svg>
