<svg width="120" height="120" viewBox="0 0 120 120" fill="none" xmlns="http://www.w3.org/2000/svg">
<g id="basketball">
<g id="basketball_2">
<path id="Layer 1" fill-rule="evenodd" clip-rule="evenodd" d="M59.7509 109.502C87.2275 109.502 109.502 87.2275 109.502 59.7509C109.502 32.2742 87.2275 10 59.7509 10C32.2742 10 10 32.2742 10 59.7509C10 87.2275 32.2742 109.502 59.7509 109.502Z" stroke="white" stroke-width="4" stroke-linecap="round" stroke-linejoin="round"/>
<path id="Layer 2" d="M108.02 59.7508H10.9901" stroke="white" stroke-width="4" stroke-linecap="round" stroke-linejoin="round"/>
<path id="Layer 3" d="M59.4267 11.6553V108.685" stroke="white" stroke-width="4" stroke-linecap="round" stroke-linejoin="round"/>
<path id="Layer 4" d="M93.4846 23.5366C93.4846 23.5366 77.0193 34.2698 77.0193 59.6752C77.0193 85.0807 93.4846 95.8139 93.4846 95.8139" stroke="white" stroke-width="4" stroke-linecap="round" stroke-linejoin="round"/>
<path id="Layer 5" d="M25.3736 23.5366C25.3736 23.5366 41.8389 34.2698 41.8389 59.6752C41.8389 85.0807 25.3736 95.8139 25.3736 95.8139" stroke="white" stroke-width="4" stroke-linecap="round" stroke-linejoin="round"/>
</g>
</g>
</svg>
