<svg width="120" height="120" viewBox="0 0 120 120" fill="none" xmlns="http://www.w3.org/2000/svg">
<g id="birthday">
<g id="holidays">
<path id="Layer 1" d="M49.167 74.2141L72.6356 51.2057C80.4209 43.5731 80.4209 31.1982 72.6356 23.5655C64.8503 15.9329 52.2279 15.9329 44.4426 23.5655C37.093 30.7711 36.8894 40.2739 42.933 46.1191C47.8595 50.8838 54.8335 48.801 56.2154 41.8294C56.6155 39.8111 64.0705 41.2314 63.6704 43.2497C61.1287 56.073 46.8271 60.3442 37.5995 51.4196C28.4949 42.6139 28.8 28.3718 39.0725 18.3007C49.8236 7.76043 67.2546 7.76043 78.0057 18.3007C88.7568 28.841 88.7568 45.9302 78.0057 56.4705L54.5371 79.479" stroke="white" stroke-width="4" stroke-linecap="round" stroke-linejoin="round"/>
<path id="Layer 2" fill-rule="evenodd" clip-rule="evenodd" d="M38.4012 90.0335L37.3432 88.9962C34.2217 85.9359 34.2203 80.9705 37.3432 77.9088L45.1139 70.2905L58.5391 83.4525L46.792 94.9693L31.6886 109.777L24.976 103.196L38.4012 90.0335V90.0335Z" stroke="white" stroke-width="4" stroke-linecap="round" stroke-linejoin="round"/>
<path id="Layer 3" fill-rule="evenodd" clip-rule="evenodd" d="M110 17.3529C105.858 17.3529 102.5 14.0609 102.5 10C102.5 14.0609 99.1421 17.3529 95 17.3529C99.1421 17.3529 102.5 20.645 102.5 24.7059C102.5 20.645 105.858 17.3529 110 17.3529V17.3529Z" stroke="white" stroke-width="4" stroke-linecap="round" stroke-linejoin="round"/>
<path id="Layer 4" fill-rule="evenodd" clip-rule="evenodd" d="M99 88.4314C93.4772 88.4314 89 84.042 89 78.6274C89 84.042 84.5228 88.4314 79 88.4314C84.5228 88.4314 89 92.8207 89 98.2353C89 92.8207 93.4772 88.4314 99 88.4314V88.4314Z" stroke="white" stroke-width="4" stroke-linecap="round" stroke-linejoin="round"/>
<path id="Layer 5" fill-rule="evenodd" clip-rule="evenodd" d="M25 59.5097C20.8579 59.5097 17.5 56.2177 17.5 52.1567C17.5 56.2177 14.1421 59.5097 10 59.5097C14.1421 59.5097 17.5 62.8017 17.5 66.8626C17.5 62.8017 20.8579 59.5097 25 59.5097V59.5097Z" stroke="white" stroke-width="4" stroke-linecap="round" stroke-linejoin="round"/>
<path id="Layer 6" fill-rule="evenodd" clip-rule="evenodd" d="M105 63.9216C107.761 63.9216 110 61.7269 110 59.0196C110 56.3124 107.761 54.1177 105 54.1177C102.239 54.1177 100 56.3124 100 59.0196C100 61.7269 102.239 63.9216 105 63.9216Z" stroke="white" stroke-width="4" stroke-linecap="round" stroke-linejoin="round"/>
<path id="Layer 7" fill-rule="evenodd" clip-rule="evenodd" d="M15 19.8039C17.7614 19.8039 20 17.6092 20 14.902C20 12.1947 17.7614 10 15 10C12.2386 10 10 12.1947 10 14.902C10 17.6092 12.2386 19.8039 15 19.8039Z" stroke="white" stroke-width="4" stroke-linecap="round" stroke-linejoin="round"/>
</g>
</g>
</svg>
