<svg width="120" height="120" viewBox="0 0 120 120" fill="none" xmlns="http://www.w3.org/2000/svg">
<g id="bitcoin">
<g id="bitcoin_2">
<path id="Layer 1" fill-rule="evenodd" clip-rule="evenodd" d="M60.1139 110C87.7281 110 110.114 87.6142 110.114 60C110.114 32.3858 87.7281 10 60.1139 10C32.4997 10 10.1139 32.3858 10.1139 60C10.1139 87.6142 32.4997 110 60.1139 110Z" stroke="white" stroke-width="4" stroke-linecap="round" stroke-linejoin="round"/>
<path id="Layer 2" fill-rule="evenodd" clip-rule="evenodd" d="M63.8095 36.9894C61.4907 36.8569 60.4307 36.8569 58.6418 36.8569H47.1139V40.2957V82.5712H59.8344C61.4245 82.5712 62.6833 82.5712 64.3396 82.4387C71.1636 82.0412 77.0601 77.7348 77.0601 70.447C77.0601 64.2193 73.6149 59.5153 66.4596 58.4553C71.9586 57.594 75.3375 53.5526 75.3375 47.7886C75.3375 41.4284 70.6998 37.4532 63.8095 36.9894Z" stroke="white" stroke-width="4" stroke-linecap="round" stroke-linejoin="round"/>
<path id="Layer 3" d="M66.8282 58.6478H47.5493" stroke="white" stroke-width="4" stroke-linecap="round" stroke-linejoin="round"/>
<path id="Layer 4" d="M52.1429 28.0857V36.4395" stroke="white" stroke-width="4" stroke-linecap="round" stroke-linejoin="round"/>
<path id="Layer 4 Copy" d="M40 36.4286H50" stroke="white" stroke-width="4" stroke-linecap="round" stroke-linejoin="round"/>
<path id="Layer 4 Copy 2" d="M40 82.4286H50" stroke="white" stroke-width="4" stroke-linecap="round" stroke-linejoin="round"/>
<path id="Layer 5" d="M60.8282 28.0857V36.4395" stroke="white" stroke-width="4" stroke-linecap="round" stroke-linejoin="round"/>
<path id="Layer 6" d="M51.2567 83.5228V91.1171" stroke="white" stroke-width="4" stroke-linecap="round" stroke-linejoin="round"/>
<path id="Layer 7" d="M60.2567 83.5228V91.1171" stroke="white" stroke-width="4" stroke-linecap="round" stroke-linejoin="round"/>
</g>
</g>
</svg>
