<svg width="120" height="120" viewBox="0 0 120 120" fill="none" xmlns="http://www.w3.org/2000/svg">
<g id="boy-sad">
<g id="boy-sad_2">
<path id="Layer 1" fill-rule="evenodd" clip-rule="evenodd" d="M100.407 53.8836C97.1703 35.0186 80.6471 20.6582 60.7504 20.6582C40.7784 20.6582 24.2055 35.1275 21.0574 54.0978C20.1241 53.6866 19.0911 53.4582 18.0045 53.4582C13.8384 53.4582 10.4611 56.8161 10.4611 60.9582C10.4611 65.1003 13.8384 68.4582 18.0045 68.4582C19.1287 68.4582 20.1954 68.2137 21.1539 67.7753C24.5308 86.4713 40.9743 100.658 60.7504 100.658C80.4484 100.658 96.84 86.5831 100.306 67.9966C101.12 68.2952 102 68.4582 102.918 68.4582C107.084 68.4582 110.461 65.1003 110.461 60.9582C110.461 56.8161 107.084 53.4582 102.918 53.4582C102.038 53.4582 101.193 53.6081 100.407 53.8836V53.8836Z" stroke="white" stroke-width="4" stroke-linecap="round" stroke-linejoin="round"/>
<path id="Layer 2" d="M49.9836 54.8993C49.9836 51.8208 47.5063 49.3252 44.4504 49.3252C41.3946 49.3252 38.9173 51.8208 38.9173 54.8993" stroke="white" stroke-width="4" stroke-linecap="round" stroke-linejoin="round"/>
<path id="Layer 3" d="M81.6016 54.8993C81.6016 51.8208 79.1243 49.3252 76.0684 49.3252C73.0126 49.3252 70.5353 51.8208 70.5353 54.8993" stroke="white" stroke-width="4" stroke-linecap="round" stroke-linejoin="round"/>
<path id="Layer 4" d="M71.3257 79.5848C71.3257 73.4278 66.3711 68.4365 60.2594 68.4365C54.1477 68.4365 49.1931 73.4278 49.1931 79.5848" stroke="white" stroke-width="4" stroke-linecap="round" stroke-linejoin="round"/>
<path id="Layer 5" d="M61.5069 34.4113C67.102 31.8872 64.2949 26.4978 60.7146 26.4978C57.4074 26.4978 54.7263 29.1986 54.7263 32.5303C54.7263 36.5285 57.9436 39.7695 61.9122 39.7695C66.6746 39.7695 70.5352 35.8802 70.5352 31.0825C70.5352 25.3253 65.9025 20.6582 60.1876 20.6582" stroke="white" stroke-width="4" stroke-linecap="round" stroke-linejoin="round"/>
</g>
</g>
</svg>
