<svg width="120" height="120" viewBox="0 0 120 120" fill="none" xmlns="http://www.w3.org/2000/svg">
<g id="brush">
<g id="brush_2">
<path id="Layer 1" d="M76.6376 73.406L80.5232 69.5204C86.1244 63.9192 76.1255 57.6626 82.4292 50.585L107.019 30.3647C111.745 26.0851 111.355 18.1898 106.786 13.6204C102.216 9.05103 94.2941 8.63424 90.0145 13.3606L69.9128 38.0686C62.8352 44.3724 56.4868 34.2816 50.8856 39.8827L47 43.7683" stroke="white" stroke-width="4" stroke-linecap="round" stroke-linejoin="round"/>
<path id="Layer 2" fill-rule="evenodd" clip-rule="evenodd" d="M95.2276 25.1552C96.8645 26.792 99.5183 26.792 101.155 25.1552C102.792 23.5183 102.792 20.8645 101.155 19.2276C99.5183 17.5908 96.8645 17.5908 95.2276 19.2276C93.5908 20.8645 93.5908 23.5183 95.2276 25.1552V25.1552Z" stroke="white" stroke-width="4" stroke-linecap="round" stroke-linejoin="round"/>
<path id="Layer 3" fill-rule="evenodd" clip-rule="evenodd" d="M79.9383 76.5652L71.6865 84.817C70.5149 85.9886 68.6154 85.9886 67.4438 84.817L36.1213 53.4945C34.9497 52.3229 34.9497 50.4234 36.1213 49.2519L44.3732 41L79.9383 76.5652Z" stroke="white" stroke-width="4" stroke-linecap="round" stroke-linejoin="round"/>
<path id="Layer 4" d="M66.3115 83.6376L39.6376 110.312L10 80.6739L36.6739 54V54V54" stroke="white" stroke-width="4" stroke-linecap="round" stroke-linejoin="round"/>
<path id="Layer 5" d="M18 87.7124L31.7124 74" stroke="white" stroke-width="4" stroke-linecap="round" stroke-linejoin="round"/>
<path id="Layer 6" d="M26 95.1388L37.1388 84" stroke="white" stroke-width="4" stroke-linecap="round" stroke-linejoin="round"/>
<path id="Layer 7" d="M33 102.671L49.6712 86" stroke="white" stroke-width="4" stroke-linecap="round" stroke-linejoin="round"/>
</g>
</g>
</svg>
