<svg width="120" height="120" viewBox="0 0 120 120" fill="none" xmlns="http://www.w3.org/2000/svg">
<g id="call">
<g id="call_2">
<path id="Layer 1" fill-rule="evenodd" clip-rule="evenodd" d="M42.54 51.1558C39.6674 48.2831 45.0181 38.619 45.0181 38.619C46.6587 34.9052 45.8524 29.4011 43.199 26.3041L31.317 12.4356C28.6718 9.34815 24.1975 9.17515 21.3368 12.0358L13.1516 20.2211C8.11627 25.2564 10.0178 34.8958 12.6284 41.4574C12.6284 41.4574 15.9367 52.4601 41.7374 78.2608C67.5381 104.061 78.5407 107.37 78.5407 107.37C85.1024 109.98 94.7418 111.882 99.7771 106.847L107.962 98.6614C110.823 95.8007 110.65 91.3264 107.563 88.6812L93.694 76.7991C90.5971 74.1458 85.093 73.3395 81.3792 74.9801C81.3792 74.9801 71.2925 79.9082 68.4198 77.0356L55.6912 64.307L42.54 51.1558V51.1558Z" stroke="white" stroke-width="4" stroke-linecap="round" stroke-linejoin="round"/>
</g>
</g>
</svg>
