<svg width="120" height="120" viewBox="0 0 120 120" fill="none" xmlns="http://www.w3.org/2000/svg">
<g id="call-love">
<g id="call-love_2">
<path id="Layer 1" fill-rule="evenodd" clip-rule="evenodd" d="M38.015 52.8956C39.3275 49.9245 38.6824 45.5212 36.5597 43.0435L27.0539 31.9485C24.9377 29.4785 21.3582 29.3401 19.0696 31.6287L12.5213 38.177C8.49299 42.2053 10.0142 49.917 12.1027 55.1664C12.1027 55.1664 14.7494 63.9687 35.3904 84.6096C56.0313 105.251 64.8336 107.897 64.8336 107.897C70.083 109.986 77.7947 111.507 81.823 107.479L88.3713 100.93C90.6599 98.6418 90.5215 95.0623 88.0515 92.9461L76.9565 83.4403C74.4788 81.3176 70.0755 80.6725 67.1044 81.985C67.1044 81.985 59.0349 85.9276 56.7367 83.6294L46.5536 73.4464L36.0325 62.9252C33.7343 60.6271 38.015 52.8956 38.015 52.8956Z" stroke="white" stroke-width="4" stroke-linecap="round" stroke-linejoin="round"/>
<path id="Layer 2" fill-rule="evenodd" clip-rule="evenodd" d="M60.0271 24.6196C60.0091 24.7415 60 24.8682 60 25C60 47.5 85 57.5 85 57.5C85 57.5 110 47.5 110 25C110 24.8679 109.991 24.741 109.973 24.6189C109.991 24.3316 110 24.0418 110 23.75C110 16.1561 103.844 10 96.25 10C91.5996 10 87.4884 12.3086 85 15.8423C82.5116 12.3086 78.4004 10 73.75 10C66.1561 10 60 16.1561 60 23.75C60 24.0421 60.0091 24.332 60.0271 24.6196V24.6196Z" stroke="white" stroke-width="4" stroke-linecap="round" stroke-linejoin="round"/>
</g>
</g>
</svg>
