<svg width="120" height="120" viewBox="0 0 120 120" fill="none" xmlns="http://www.w3.org/2000/svg">
<g id="call-plus">
<g id="call-plus_2">
<path id="Layer 1" fill-rule="evenodd" clip-rule="evenodd" d="M38.015 52.8956C39.3275 49.9245 38.6824 45.5212 36.5597 43.0435L27.0539 31.9485C24.9377 29.4785 21.3582 29.3401 19.0696 31.6287L12.5213 38.177C8.49299 42.2053 10.0142 49.917 12.1027 55.1664C12.1027 55.1664 14.7494 63.9687 35.3904 84.6096C56.0313 105.251 64.8336 107.897 64.8336 107.897C70.083 109.986 77.7947 111.507 81.823 107.479L88.3713 100.93C90.6599 98.6418 90.5215 95.0623 88.0515 92.9461L76.9565 83.4403C74.4788 81.3176 70.0755 80.6725 67.1044 81.985C67.1044 81.985 59.0349 85.9276 56.7367 83.6294L46.5536 73.4464L36.0325 62.9252C33.7343 60.6271 38.015 52.8956 38.015 52.8956Z" stroke="white" stroke-width="4" stroke-linecap="round" stroke-linejoin="round"/>
<path id="Layer 2" fill-rule="evenodd" clip-rule="evenodd" d="M85 60C98.8071 60 110 48.8071 110 35C110 21.1929 98.8071 10 85 10C71.1929 10 60 21.1929 60 35C60 48.8071 71.1929 60 85 60Z" stroke="white" stroke-width="4" stroke-linecap="round" stroke-linejoin="round"/>
<path id="Layer 3" d="M85.5 21.5V48.5" stroke="white" stroke-width="4" stroke-linecap="round" stroke-linejoin="round"/>
<path id="Layer 4" d="M99 35H72" stroke="white" stroke-width="4" stroke-linecap="round" stroke-linejoin="round"/>
</g>
</g>
</svg>
