<svg width="120" height="120" viewBox="0 0 120 120" fill="none" xmlns="http://www.w3.org/2000/svg">
<g id="camera-3">
<g id="camera-3_2">
<path id="Layer 1" fill-rule="evenodd" clip-rule="evenodd" d="M108.566 89.4705C109.363 89.9092 110 89.4832 110 88.5253V66.7592C110 65.8075 109.358 65.378 108.566 65.8139L94 73.0743V81.1023L108.566 89.4705Z" stroke="white" stroke-width="4" stroke-linecap="round" stroke-linejoin="round"/>
<path id="Layer 2" fill-rule="evenodd" clip-rule="evenodd" d="M21.5098 90.3506L16 85.4111V65C16 62.2386 18.2386 60 21 60H89C91.7614 60 94 62.2386 94 65V105C94 107.761 91.7614 110 89 110H26.5098C23.7483 110 21.5098 107.761 21.5098 105V90.3506Z" stroke="white" stroke-width="4" stroke-linecap="round" stroke-linejoin="round"/>
<path id="Layer 3" fill-rule="evenodd" clip-rule="evenodd" d="M26 73C27.6569 73 29 71.6569 29 70C29 68.3431 27.6569 67 26 67C24.3431 67 23 68.3431 23 70C23 71.6569 24.3431 73 26 73Z" fill="white" stroke="white" stroke-width="4" stroke-linecap="round" stroke-linejoin="round"/>
<path id="Layer 4" fill-rule="evenodd" clip-rule="evenodd" d="M34 73C35.6569 73 37 71.6569 37 70C37 68.3431 35.6569 67 34 67C32.3431 67 31 68.3431 31 70C31 71.6569 32.3431 73 34 73Z" fill="white" stroke="white" stroke-width="4" stroke-linecap="round" stroke-linejoin="round"/>
<rect id="Layer 5" x="55" y="70" width="30" height="20" stroke="white" stroke-width="4" stroke-linecap="round" stroke-linejoin="round"/>
<path id="Layer 6" d="M10 69C10 67.3431 11.3431 66 13 66H16V80H13C11.3431 80 10 78.6569 10 77V69Z" fill="white" stroke="white" stroke-width="4" stroke-linecap="round" stroke-linejoin="round"/>
<path id="Layer 7" fill-rule="evenodd" clip-rule="evenodd" d="M30 60V50H80V60H30Z" stroke="white" stroke-width="4" stroke-linecap="round" stroke-linejoin="round"/>
<path id="Layer 8" fill-rule="evenodd" clip-rule="evenodd" d="M80 50C91.0457 50 100 41.0457 100 30C100 18.9543 91.0457 10 80 10C68.9543 10 60 18.9543 60 30C60 41.0457 68.9543 50 80 50Z" stroke="white" stroke-width="4" stroke-linecap="round" stroke-linejoin="round"/>
<path id="Layer 9" fill-rule="evenodd" clip-rule="evenodd" d="M30 35C32.7614 35 35 32.7614 35 30C35 27.2386 32.7614 25 30 25C27.2386 25 25 27.2386 25 30C25 32.7614 27.2386 35 30 35Z" stroke="white" stroke-width="4" stroke-linecap="round" stroke-linejoin="round"/>
<path id="Layer 10" fill-rule="evenodd" clip-rule="evenodd" d="M30 50C41.0457 50 50 41.0457 50 30C50 18.9543 41.0457 10 30 10C18.9543 10 10 18.9543 10 30C10 41.0457 18.9543 50 30 50Z" stroke="white" stroke-width="4" stroke-linecap="round" stroke-linejoin="round"/>
<path id="Layer 11" fill-rule="evenodd" clip-rule="evenodd" d="M30 35C32.7614 35 35 32.7614 35 30C35 27.2386 32.7614 25 30 25C27.2386 25 25 27.2386 25 30C25 32.7614 27.2386 35 30 35Z" stroke="white" stroke-width="4" stroke-linecap="round" stroke-linejoin="round"/>
<path id="Layer 12" fill-rule="evenodd" clip-rule="evenodd" d="M80 35C82.7614 35 85 32.7614 85 30C85 27.2386 82.7614 25 80 25C77.2386 25 75 27.2386 75 30C75 32.7614 77.2386 35 80 35Z" stroke="white" stroke-width="4" stroke-linecap="round" stroke-linejoin="round"/>
<path id="Layer 13" d="M47.4917 20H62.51" stroke="white" stroke-width="4" stroke-linecap="round" stroke-linejoin="round"/>
</g>
</g>
</svg>
