<svg width="120" height="120" viewBox="0 0 120 120" fill="none" xmlns="http://www.w3.org/2000/svg">
<g id="cash-outcome">
<g id="cash-outcome_2">
<path id="Layer 1" fill-rule="evenodd" clip-rule="evenodd" d="M10 110H110V50H10V110V110Z" stroke="white" stroke-width="4" stroke-linecap="round" stroke-linejoin="round"/>
<path id="Layer 2" fill-rule="evenodd" clip-rule="evenodd" d="M30 60H90C90 65.5228 94.4772 70 100 70V90C94.4772 90 90 94.4772 90 100H30C30 94.4772 25.5228 90 20 90V70C25.5228 70 30 65.5228 30 60V60V60Z" stroke="white" stroke-width="4" stroke-linecap="round" stroke-linejoin="round"/>
<path id="Layer 3" fill-rule="evenodd" clip-rule="evenodd" d="M60 60C68.2843 60 75 68.9543 75 80C75 91.0457 68.2843 100 60 100C51.7157 100 45 91.0457 45 80C45 68.9543 51.7157 60 60 60V60Z" stroke="white" stroke-width="4" stroke-linecap="round" stroke-linejoin="round"/>
<path id="Layer 4" fill-rule="evenodd" clip-rule="evenodd" d="M54.1697 24.582H46L60 10L74 24.582H65.854V42H54.1697V24.582V24.582V24.582Z" stroke="white" stroke-width="4" stroke-linecap="round" stroke-linejoin="round"/>
<path id="Layer 5" fill-rule="evenodd" clip-rule="evenodd" d="M35 77C36.6569 77 38 78.3431 38 80C38 81.6569 36.6569 83 35 83C33.3431 83 32 81.6569 32 80C32 78.3431 33.3431 77 35 77V77Z" stroke="white" stroke-width="4" stroke-linecap="round" stroke-linejoin="round"/>
<path id="Layer 6" fill-rule="evenodd" clip-rule="evenodd" d="M85 77C86.6569 77 88 78.3431 88 80C88 81.6569 86.6569 83 85 83C83.3431 83 82 81.6569 82 80C82 78.3431 83.3431 77 85 77V77Z" stroke="white" stroke-width="4" stroke-linecap="round" stroke-linejoin="round"/>
</g>
</g>
</svg>
