<svg width="120" height="120" viewBox="0 0 120 120" fill="none" xmlns="http://www.w3.org/2000/svg">
<g id="cash-2">
<g id="cash-2_2">
<rect id="Layer 1" x="10" y="20" width="100" height="60" stroke="white" stroke-width="4" stroke-linecap="round" stroke-linejoin="round"/>
<path id="Layer 2" fill-rule="evenodd" clip-rule="evenodd" d="M30 70H90C90 64.4772 94.4772 60 100 60V40C94.4772 40 90 35.5228 90 30H30C30 35.5228 25.5228 40 20 40V60C25.5228 60 30 64.4772 30 70V70Z" stroke="white" stroke-width="4" stroke-linecap="round" stroke-linejoin="round"/>
<path id="Layer 6" fill-rule="evenodd" clip-rule="evenodd" d="M30 70H90C90 64.4772 94.4772 60 100 60V40C94.4772 40 90 35.5228 90 30H30C30 35.5228 25.5228 40 20 40V60C25.5228 60 30 64.4772 30 70V70Z" stroke="white" stroke-width="4" stroke-linecap="round" stroke-linejoin="round"/>
<path id="Layer 3" fill-rule="evenodd" clip-rule="evenodd" d="M60 70C68.2843 70 75 61.0457 75 50C75 38.9543 68.2843 30 60 30C51.7157 30 45 38.9543 45 50C45 61.0457 51.7157 70 60 70Z" stroke="white" stroke-width="4" stroke-linecap="round" stroke-linejoin="round"/>
<rect id="Layer 4" x="10" y="80" width="100" height="10" stroke="white" stroke-width="4" stroke-linecap="round" stroke-linejoin="round"/>
<rect id="Layer 5" x="10" y="90" width="100" height="10" stroke="white" stroke-width="4" stroke-linecap="round" stroke-linejoin="round"/>
<path id="Layer 7" fill-rule="evenodd" clip-rule="evenodd" d="M35 53C36.6569 53 38 51.6569 38 50C38 48.3431 36.6569 47 35 47C33.3431 47 32 48.3431 32 50C32 51.6569 33.3431 53 35 53Z" stroke="white" stroke-width="4" stroke-linecap="round" stroke-linejoin="round"/>
<path id="Layer 8" fill-rule="evenodd" clip-rule="evenodd" d="M85 53C86.6569 53 88 51.6569 88 50C88 48.3431 86.6569 47 85 47C83.3431 47 82 48.3431 82 50C82 51.6569 83.3431 53 85 53Z" stroke="white" stroke-width="4" stroke-linecap="round" stroke-linejoin="round"/>
</g>
</g>
</svg>
