<svg width="120" height="120" viewBox="0 0 120 120" fill="none" xmlns="http://www.w3.org/2000/svg">
<g id="cash">
<g id="cash_2">
<path id="Layer 1" d="M90 30V65V65V65H107.007C108.662 65 110 63.6586 110 62.0039V12.9961C110 11.3459 108.66 10 107.007 10L12.9928 10C11.338 10 10 11.3414 10 12.9961V62.0039C10 63.6541 11.3399 65 12.9928 65H30V30" stroke="white" stroke-width="4" stroke-linecap="round" stroke-linejoin="round"/>
<path id="Path" d="M30 30H90" stroke="white" stroke-width="4" stroke-linecap="round" stroke-linejoin="round"/>
<path id="Path_2" d="M92.5098 45C96.639 45 100 41.6421 100 37.5C100 33.3663 96.6465 30 92.5098 30H27.4903C23.361 30 20 33.3579 20 37.5C20 41.6337 23.3535 45 27.4903 45" stroke="white" stroke-width="4" stroke-linecap="round" stroke-linejoin="round"/>
<path id="Layer 3" d="M20 20H35" stroke="white" stroke-width="4" stroke-linecap="round" stroke-linejoin="round"/>
<path id="Layer 4" d="M95 20H100" stroke="white" stroke-width="4" stroke-linecap="round" stroke-linejoin="round"/>
<path id="Layer 5" d="M90 30V110H30L30 30" stroke="white" stroke-width="4" stroke-linecap="round" stroke-linejoin="round"/>
<path id="Layer 6" d="M80 30.1729V90C74.4772 90 70 94.4772 70 100H50C50 94.4772 45.5228 90 40 90V90V90V90L40 30.1729" stroke="white" stroke-width="4" stroke-linecap="round" stroke-linejoin="round"/>
<path id="Layer 7" fill-rule="evenodd" clip-rule="evenodd" d="M40 60C40 68.2843 48.9543 75 60 75C71.0457 75 80 68.2843 80 60C80 51.7157 71.0457 45 60 45C48.9543 45 40 51.7157 40 60V60Z" stroke="white" stroke-width="4" stroke-linecap="round" stroke-linejoin="round"/>
<path id="Layer 8" fill-rule="evenodd" clip-rule="evenodd" d="M57 35C57 36.6569 58.3431 38 60 38C61.6569 38 63 36.6569 63 35C63 33.3431 61.6569 32 60 32C58.3431 32 57 33.3431 57 35V35Z" fill="white" stroke="white" stroke-width="4" stroke-linecap="round" stroke-linejoin="round"/>
<path id="Layer 9" fill-rule="evenodd" clip-rule="evenodd" d="M57 85C57 86.6569 58.3431 88 60 88C61.6569 88 63 86.6569 63 85C63 83.3431 61.6569 82 60 82C58.3431 82 57 83.3431 57 85V85Z" fill="white" stroke="white" stroke-width="4" stroke-linecap="round" stroke-linejoin="round"/>
</g>
</g>
</svg>
