<svg width="120" height="120" viewBox="0 0 120 120" fill="none" xmlns="http://www.w3.org/2000/svg">
<g id="cocktail">
<g id="cocktail_2">
<path id="Layer 1" fill-rule="evenodd" clip-rule="evenodd" d="M66.0728 64C64.0696 66.287 63.0968 69.4313 63.0968 72.9806V91.8612C63.0968 99.0036 68.8737 104.781 76 104.781L60 104.781L44 104.781C51.1263 104.781 56.9032 99.0036 56.9032 91.8612V72.9806C56.9032 69.6481 56.0456 66.6726 54.2828 64.4285C56.2595 65.1309 58.215 65.4665 60.0693 65.3801C61.9733 65.2915 64.0058 64.8163 66.0728 64V64Z" stroke="white" stroke-width="4" stroke-linecap="round" stroke-linejoin="round"/>
<path id="Layer 2" fill-rule="evenodd" clip-rule="evenodd" d="M100 15C100 15 67.3546 63.6465 65.416 64.2123C63.7757 64.6909 61.5229 64.8919 60 64.9536C58.2218 65.0257 55.9557 64.7835 54.0612 64.2123C52.6944 63.8002 20 15 20 15H80.7883H100Z" stroke="white" stroke-width="4" stroke-linecap="round" stroke-linejoin="round"/>
<path id="Layer 3" fill-rule="evenodd" clip-rule="evenodd" d="M86.446 35C77.2245 48.4896 66.5021 63.8953 65.416 64.2123C63.7757 64.6909 61.5229 64.8919 60 64.9536C58.2218 65.0257 55.9558 64.7835 54.0612 64.2123C53.2946 63.9811 42.6725 48.5273 33.4917 35L86.446 35V35Z" stroke="white" stroke-width="4" stroke-linecap="round" stroke-linejoin="round"/>
</g>
</g>
</svg>
