<svg width="120" height="120" viewBox="0 0 120 120" fill="none" xmlns="http://www.w3.org/2000/svg">
<g id="coffin">
<g id="coffin_2">
<path id="Layer 1" fill-rule="evenodd" clip-rule="evenodd" d="M59.892 108.805C60.6523 109.549 61.6957 110 62.8292 110H92.9547C94.9449 110 96.6583 108.61 97.0479 106.68L109.919 42.9039C110.091 42.0546 109.988 41.1735 109.625 40.3853L96.7536 12.418C96.0758 10.9453 94.5907 10 92.9547 10H62.8292C61.7089 10 60.6597 10.4433 59.892 11.1951C60.2457 11.5415 60.5398 11.9535 60.7536 12.418L73.6249 40.3853C73.9877 41.1735 74.0906 42.0546 73.9192 42.9039L61.0479 106.68C60.8801 107.511 60.467 108.242 59.892 108.805H59.892Z" stroke="white" stroke-width="4" stroke-linecap="round" stroke-linejoin="round"/>
<path id="Path" fill-rule="evenodd" clip-rule="evenodd" d="M29.5992 18.2567L54.2611 18.2407L65.4689 42.6018L53.5899 101.741L30.2586 101.727L18.4887 42.5847L29.5992 18.2567V18.2567V18.2567Z" stroke="white" stroke-width="3.5" stroke-linecap="round" stroke-linejoin="round"/>
<path id="Path_2" fill-rule="evenodd" clip-rule="evenodd" d="M10.3642 40.4092C10.0121 41.1874 9.91214 42.0543 10.0781 42.8909L22.7334 106.667C23.1177 108.603 24.834 110 26.8292 110H56.9547C58.9449 110 60.6583 108.61 61.0479 106.68L73.9192 42.9039C74.0906 42.0546 73.9877 41.1735 73.6249 40.3853L60.7536 12.418C60.0758 10.9453 58.5907 10 56.9547 10H26.8292C25.1837 10 23.6917 10.9563 23.0195 12.4419L10.3642 40.4092V40.4092V40.4092V40.4092Z" stroke="white" stroke-width="3.5" stroke-linecap="round" stroke-linejoin="round"/>
<path id="Layer 3" d="M42 34.5V64.5" stroke="white" stroke-width="4" stroke-linecap="round" stroke-linejoin="round"/>
<path id="Layer 4" d="M35 44.5H49" stroke="white" stroke-width="4" stroke-linecap="round" stroke-linejoin="round"/>
</g>
</g>
</svg>
