<svg width="120" height="120" viewBox="0 0 120 120" fill="none" xmlns="http://www.w3.org/2000/svg">
<g id="colors">
<g id="colors_2">
<path id="Layer 1" fill-rule="evenodd" clip-rule="evenodd" d="M80 72C96.5685 72 110 58.5685 110 42C110 25.4315 96.5685 12 80 12C63.4315 12 50 25.4315 50 42C50 58.5685 63.4315 72 80 72Z" stroke="white" stroke-width="4" stroke-linecap="round" stroke-linejoin="round"/>
<path id="Layer 2" fill-rule="evenodd" clip-rule="evenodd" d="M40 72C56.5685 72 70 58.5685 70 42C70 25.4315 56.5685 12 40 12C23.4315 12 10 25.4315 10 42C10 58.5685 23.4315 72 40 72Z" stroke="white" stroke-width="4" stroke-linecap="round" stroke-linejoin="round"/>
<path id="Layer 3" fill-rule="evenodd" clip-rule="evenodd" d="M60 108C76.5685 108 90 94.5685 90 78C90 61.4315 76.5685 48 60 48C43.4315 48 30 61.4315 30 78C30 94.5685 43.4315 108 60 108Z" stroke="white" stroke-width="4" stroke-linecap="round" stroke-linejoin="round"/>
</g>
</g>
</svg>
