<svg width="120" height="120" viewBox="0 0 120 120" fill="none" xmlns="http://www.w3.org/2000/svg">
<g id="comet">
<g id="comet-1">
<path id="Layer 1" fill-rule="evenodd" clip-rule="evenodd" d="M35.2441 47.6045C27.48 52.0546 21.4563 55.9434 18.8228 58.5769C7.05906 70.3406 7.05906 89.4134 18.8228 101.177C30.3313 112.686 48.8349 112.935 60.647 101.926C60.6582 101.935 60.6638 101.939 60.6638 101.939L60.7235 101.855C60.9594 101.634 61.1927 101.408 61.4231 101.177C63.5976 99.0027 66.6281 94.5166 70.1237 88.6479L101.327 44.8081C101.327 44.8081 96.3948 45.3965 89.4213 46.3347L110 10L72.5371 32.335C73.5587 25.8422 74.2084 21.3314 74.2084 21.3314L35.2441 47.6045V47.6045Z" stroke="white" stroke-width="4" stroke-linecap="round" stroke-linejoin="round"/>
<path id="Layer 2" fill-rule="evenodd" clip-rule="evenodd" d="M40.2172 99.0001C50.8306 99.0001 59.4344 90.3963 59.4344 79.7829C59.4344 69.1695 50.8306 60.5657 40.2172 60.5657C29.6038 60.5657 21 69.1695 21 79.7829C21 90.3963 29.6038 99.0001 40.2172 99.0001Z" stroke="white" stroke-width="4" stroke-linecap="round" stroke-linejoin="round"/>
</g>
</g>
</svg>
