<svg width="120" height="120" viewBox="0 0 120 120" fill="none" xmlns="http://www.w3.org/2000/svg">
<g id="cookie">
<g id="cookie_2">
<path id="Layer 1" fill-rule="evenodd" clip-rule="evenodd" d="M87.8846 27.8966C81.7441 27.1043 77 21.8562 77 15.5C77 14.662 77.0825 13.8434 77.2397 13.0516C71.8656 11.0776 66.0587 10 60 10C32.3858 10 10 32.3858 10 60C10 87.6142 32.3858 110 60 110C87.6142 110 110 87.6142 110 60C110 57.4953 109.816 55.0337 109.46 52.6278C106.087 51.7851 103.257 49.5718 101.595 46.6139C100.605 46.866 99.5682 47 98.5 47C91.5964 47 86 41.4036 86 34.5C86 32.0758 86.6901 29.8127 87.8846 27.8966V27.8966Z" stroke="white" stroke-width="4" stroke-linecap="round" stroke-linejoin="round"/>
<path id="Layer 2" fill-rule="evenodd" clip-rule="evenodd" d="M29.4919 20C25.0083 23.4056 21.117 27.5508 18 32.2537C19.0794 36.6111 23.016 39.8412 27.707 39.8412C33.2299 39.8412 37.707 35.364 37.707 29.8412C37.707 24.9275 34.1632 20.8416 29.4919 20V20Z" stroke="white" stroke-width="4" stroke-linecap="round" stroke-linejoin="round"/>
<path id="Layer 3" fill-rule="evenodd" clip-rule="evenodd" d="M49.5 69C56.4036 69 62 63.4036 62 56.5C62 49.5964 56.4036 44 49.5 44C42.5964 44 37 49.5964 37 56.5C37 63.4036 42.5964 69 49.5 69Z" stroke="white" stroke-width="4" stroke-linecap="round" stroke-linejoin="round"/>
<path id="Layer 4" fill-rule="evenodd" clip-rule="evenodd" d="M78.5 88C83.7467 88 88 83.7467 88 78.5C88 73.2533 83.7467 69 78.5 69C73.2533 69 69 73.2533 69 78.5C69 83.7467 73.2533 88 78.5 88Z" stroke="white" stroke-width="4" stroke-linecap="round" stroke-linejoin="round"/>
<path id="Layer 5" fill-rule="evenodd" clip-rule="evenodd" d="M54 97C57.3137 97 60 94.3137 60 91C60 87.6863 57.3137 85 54 85C50.6863 85 48 87.6863 48 91C48 94.3137 50.6863 97 54 97Z" stroke="white" stroke-width="4" stroke-linecap="round" stroke-linejoin="round"/>
<path id="Layer 6" fill-rule="evenodd" clip-rule="evenodd" d="M81 55C82.6569 55 84 53.6569 84 52C84 50.3431 82.6569 49 81 49C79.3431 49 78 50.3431 78 52C78 53.6569 79.3431 55 81 55Z" stroke="white" stroke-width="4" stroke-linecap="round" stroke-linejoin="round"/>
<path id="Layer 7" fill-rule="evenodd" clip-rule="evenodd" d="M62 30C63.6569 30 65 28.6569 65 27C65 25.3431 63.6569 24 62 24C60.3431 24 59 25.3431 59 27C59 28.6569 60.3431 30 62 30Z" stroke="white" stroke-width="4" stroke-linecap="round" stroke-linejoin="round"/>
<path id="Layer 8" fill-rule="evenodd" clip-rule="evenodd" d="M31 82C32.6569 82 34 80.6569 34 79C34 77.3431 32.6569 76 31 76C29.3431 76 28 77.3431 28 79C28 80.6569 29.3431 82 31 82Z" stroke="white" stroke-width="4" stroke-linecap="round" stroke-linejoin="round"/>
</g>
</g>
</svg>
