<svg width="120" height="120" viewBox="0 0 120 120" fill="none" xmlns="http://www.w3.org/2000/svg">
<g id="croissant">
<g id="croissant_2">
<path id="Layer 1" fill-rule="evenodd" clip-rule="evenodd" d="M33.2969 103.927C32.0591 104.257 30.7587 104.432 29.4172 104.432H25.3172C17.0035 104.432 10.2639 97.6947 10.2639 89.3798C10.2639 81.0667 17.0016 74.3276 25.3172 74.3276H29.4172C30.4402 74.3276 31.4393 74.4296 32.405 74.6241L33.2969 103.927V103.927Z" stroke="white" stroke-width="4" stroke-linecap="round" stroke-linejoin="round"/>
<path id="Layer 2" fill-rule="evenodd" clip-rule="evenodd" d="M64.654 100.343C60.2761 102.494 55.3454 104.49 50.753 105.384C38.4405 107.782 33.3243 104.829 33.3243 104.829L32.3694 73.4543L53.7701 67.7187L64.654 100.343V100.343Z" stroke="white" stroke-width="4" stroke-linecap="round" stroke-linejoin="round"/>
<path id="Layer 3" fill-rule="evenodd" clip-rule="evenodd" d="M103.873 33.3513C104.202 32.1136 104.377 30.8131 104.377 29.4716V25.3716C104.377 17.0579 97.64 10.3184 89.3251 10.3184C81.012 10.3184 74.2729 17.056 74.2729 25.3716V29.4716C74.2729 30.4946 74.375 31.4938 74.5694 32.4595L103.873 33.3513V33.3513Z" stroke="white" stroke-width="4" stroke-linecap="round" stroke-linejoin="round"/>
<path id="Layer 4" fill-rule="evenodd" clip-rule="evenodd" d="M100.249 64.788C102.415 60.3904 104.429 55.4277 105.329 50.8075C107.727 38.4949 104.774 33.3787 104.774 33.3787L73.3996 32.4238L67.6412 53.9097L100.249 64.788V64.788Z" stroke="white" stroke-width="4" stroke-linecap="round" stroke-linejoin="round"/>
<path id="Layer 5" fill-rule="evenodd" clip-rule="evenodd" d="M65.7136 103.519C74.9237 102.225 83.8052 98.0364 90.8883 90.9534C97.9522 83.8895 102.137 75.0369 103.443 65.8536L65.8031 53.2963L53.1725 65.9269L65.7136 103.519V103.519Z" stroke="white" stroke-width="4" stroke-linecap="round" stroke-linejoin="round"/>
</g>
</g>
</svg>
