<svg width="120" height="120" viewBox="0 0 120 120" fill="none" xmlns="http://www.w3.org/2000/svg">
<g id="cup">
<g id="cup_2">
<path id="Layer 1" d="M86 28C84.8954 28 84 28.8954 84 30C84 31.1046 84.8954 32 86 32V28ZM86 90V88C84.8954 88 84 88.8954 84 90H86ZM86 38C84.8954 38 84 38.8954 84 40C84 41.1046 84.8954 42 86 42V38ZM86 80H84C84 81.1046 84.8954 82 86 82V80ZM86 32H98.9904V28H86V32ZM98.9904 32C103.968 32 108 36.0287 108 41.0049H112C112 33.8169 106.174 28 98.9904 28V32ZM108 41.0049V78.9951H112V41.0049H108ZM108 78.9951C108 83.9681 103.971 88 98.9904 88V92C106.179 92 112 86.1778 112 78.9951H108ZM98.9904 88H86V92H98.9904V88ZM84 90V100.994H88V90H84ZM84 100.994C84 104.864 80.8618 108 77.0021 108V112C83.0734 112 88 107.071 88 100.994H84ZM77.0021 108H18.9979V112H77.0021V108ZM18.9979 108C15.1343 108 12 104.868 12 100.994H8C8 107.075 12.9227 112 18.9979 112V108ZM12 100.994V12.9928H8V100.994H12ZM12 12.9928C12 12.4538 12.4467 12 13.0027 12V8C10.2561 8 8 10.2261 8 12.9928H12ZM13.0027 12H82.9973V8H13.0027V12ZM82.9973 12C83.5581 12 84 12.4496 84 12.9928H88C88 10.2264 85.7531 8 82.9973 8V12ZM84 12.9928V30H88V12.9928H84ZM86 42H97V38H86V42ZM97 42C97.5498 42 98 42.4444 98 43.0065H102C102 40.2402 99.7639 38 97 38V42ZM98 43.0065V76.9935H102V43.0065H98ZM98 76.9935C98 77.5516 97.5459 78 97 78V82C99.7595 82 102 79.7563 102 76.9935H98ZM97 78H86V82H97V78ZM88 80V40H84V80H88Z" fill="white"/>
<path id="Path" d="M10 45L22.679 55L35.3612 45L48 55L60.987 45L73.415 55L86 45" stroke="white" stroke-width="3.5" stroke-linecap="round" stroke-linejoin="round"/>
<path id="Path_2" d="M86 65L73.415 74.876L60.987 65L48 74.876L35.3612 65L22.679 74.876L10 65" stroke="white" stroke-width="3.5" stroke-linecap="round" stroke-linejoin="round"/>
</g>
</g>
</svg>
