<svg width="120" height="120" viewBox="0 0 120 120" fill="none" xmlns="http://www.w3.org/2000/svg">
<g id="disabled">
<g id="disabled_2">
<path id="Shape" fill-rule="evenodd" clip-rule="evenodd" d="M51.7438 29.3311L50.2125 29.4264C46.1328 29.6904 43.0406 33.2154 43.3031 37.2936L45.0063 63.2639C45.2656 67.1779 48.5219 70.1732 52.386 70.1732C52.4766 70.1732 52.5672 70.1717 52.6578 70.1686H52.8735C53.0188 70.192 53.1625 70.192 53.3047 70.192H77.5772L90.6675 88.0818C91.7722 90.0959 94.4492 91.9534 97.0518 90.6058C99.6543 89.2581 99.975 86.2201 98.4422 83.3873L86.0219 60.6764C85.0844 58.9732 83.5235 57.8936 81.8719 57.6061C81.225 57.3904 80.55 57.2717 79.8328 57.2717H60.9781V49.4393L76.2613 47.3038C78.0955 46.8313 78.7925 46.0799 78.7925 44.3704C78.7925 42.6609 77.8406 41.4451 75.8266 41.4451H60.2295L59.6125 36.2139C59.3563 32.3014 56.1016 29.3154 52.2328 29.3154C52.0703 29.3154 51.9078 29.3201 51.7438 29.3311Z" stroke="white" stroke-width="3.5" stroke-linecap="round" stroke-linejoin="round"/>
<path id="Shape_2" fill-rule="evenodd" clip-rule="evenodd" d="M51.0812 10.1172C46.3359 10.1172 42.4875 13.9656 42.4875 18.7109C42.4875 23.4578 46.3344 27.3047 51.0812 27.3047C55.8281 27.3047 59.6765 23.4563 59.6765 18.7109C59.6765 13.9656 55.8281 10.1172 51.0812 10.1172V10.1172V10.1172Z" stroke="white" stroke-width="3.5" stroke-linecap="round" stroke-linejoin="round"/>
<path id="Layer 2" d="M36.5796 46.7959C26.6493 52.7321 20 63.5896 20 76.0001C20 94.7778 35.2223 110 54 110V110C67.9088 110 79.867 101.648 85.1332 89.6861" stroke="white" stroke-width="4" stroke-linecap="round" stroke-linejoin="round"/>
</g>
</g>
</svg>
