<svg width="120" height="120" viewBox="0 0 120 120" fill="none" xmlns="http://www.w3.org/2000/svg">
<g id="divider">
<g id="divider_2">
<path id="Layer 1" fill-rule="evenodd" clip-rule="evenodd" d="M49.6667 42.967C58.8714 42.967 66.3333 35.5871 66.3333 26.4835C66.3333 17.3799 58.8714 10 49.6667 10C40.4619 10 33 17.3799 33 26.4835C33 35.5871 40.4619 42.967 49.6667 42.967Z" stroke="white" stroke-width="4" stroke-linecap="round" stroke-linejoin="round"/>
<path id="Layer 2" fill-rule="evenodd" clip-rule="evenodd" d="M49.3333 29.5934C51.1743 29.5934 52.6667 28.1174 52.6667 26.2967C52.6667 24.476 51.1743 23 49.3333 23C47.4924 23 46 24.476 46 26.2967C46 28.1174 47.4924 29.5934 49.3333 29.5934Z" fill="white" stroke="white" stroke-width="4" stroke-linecap="round" stroke-linejoin="round"/>
<path id="Layer 3" d="M45.1384 42.502V42.502V42.502L24.3528 99.6099L16.0089 109.54L16 96.5697L37.3176 38" stroke="white" stroke-width="4" stroke-linecap="round" stroke-linejoin="round"/>
<path id="Layer 4" d="M54 42.8011H54V42.8011L74.8375 100.051L83.1814 109.982L83.1903 97.0113L61.7119 38" stroke="white" stroke-width="4" stroke-linecap="round" stroke-linejoin="round"/>
<path id="Layer 5" d="M33.3333 75.9339H103.333" stroke="white" stroke-width="4" stroke-linecap="round" stroke-linejoin="round"/>
<path id="Layer 6" d="M94.4445 71.5386V80.3298" stroke="white" stroke-width="4" stroke-linecap="round" stroke-linejoin="round"/>
</g>
</g>
</svg>
