<svg width="120" height="120" viewBox="0 0 120 120" fill="none" xmlns="http://www.w3.org/2000/svg">
<g id="dna">
<g id="dna_2">
<path id="Layer 1" d="M72.2897 10.7896C72.2897 10.7896 50.805 39.8319 59.9797 60.3356C69.1544 80.8393 47.7096 109.721 47.7096 109.721" stroke="white" stroke-width="4" stroke-linecap="round" stroke-linejoin="round"/>
<path id="Layer 2" d="M16.833 69.1284L50.8961 103.192" stroke="white" stroke-width="4" stroke-linecap="round" stroke-linejoin="round"/>
<path id="Layer 3" d="M24.394 64.1538L55.2848 95.0446" stroke="white" stroke-width="4" stroke-linecap="round" stroke-linejoin="round"/>
<path id="Layer 4" d="M33.5477 60.7686L58.7556 85.9764" stroke="white" stroke-width="4" stroke-linecap="round" stroke-linejoin="round"/>
<path id="Layer 5" d="M43.9258 58.6045L61.5739 76.2525" stroke="white" stroke-width="4" stroke-linecap="round" stroke-linejoin="round"/>
<path id="Layer 6" d="M69.7646 16.73L103.828 50.7931" stroke="white" stroke-width="4" stroke-linecap="round" stroke-linejoin="round"/>
<path id="Layer 7" d="M64.7237 24.231L95.6145 55.1217" stroke="white" stroke-width="4" stroke-linecap="round" stroke-linejoin="round"/>
<path id="Layer 8" d="M61.2755 33.3184L86.4833 58.5262" stroke="white" stroke-width="4" stroke-linecap="round" stroke-linejoin="round"/>
<path id="Layer 9" d="M59.0517 43.6338L76.6997 61.2818" stroke="white" stroke-width="4" stroke-linecap="round" stroke-linejoin="round"/>
<path id="Layer 10" d="M109.465 47.9653C109.465 47.9653 80.4229 69.45 59.9193 60.2753C39.4156 51.1006 10.534 72.5454 10.534 72.5454" stroke="white" stroke-width="4" stroke-linecap="round" stroke-linejoin="round"/>
</g>
</g>
</svg>
