<svg width="120" height="120" viewBox="0 0 120 120" fill="none" xmlns="http://www.w3.org/2000/svg">
<g id="drugs">
<g id="drugs_2">
<path id="Layer 1" fill-rule="evenodd" clip-rule="evenodd" d="M56.0919 56.0919C45.5477 66.636 28.4523 66.636 17.9081 56.0919C7.36396 45.5477 7.36396 28.4523 17.9081 17.9081C28.4523 7.36396 45.5477 7.36396 56.0919 17.9081C66.636 28.4523 66.636 45.5477 56.0919 56.0919V56.0919Z" stroke="white" stroke-width="4" stroke-linecap="round" stroke-linejoin="round"/>
<path id="Layer 2" d="M55.6389 17.5601L17.5601 55.4757" stroke="white" stroke-width="4" stroke-linecap="round" stroke-linejoin="round"/>
<path id="Layer 3" fill-rule="evenodd" clip-rule="evenodd" d="M109.59 87.6886C107 102.374 92.9966 112.179 78.3115 109.59C63.6264 107.001 53.8208 92.9968 56.4102 78.3116C58.9996 63.6265 73.0034 53.8209 87.6885 56.4103C102.374 58.9997 112.179 73.0035 109.59 87.6886V87.6886V87.6886Z" stroke="white" stroke-width="4" stroke-linecap="round" stroke-linejoin="round"/>
<path id="Layer 4" d="M87.1177 56.3848L77.6729 109.285" stroke="white" stroke-width="4" stroke-linecap="round" stroke-linejoin="round"/>
</g>
</g>
</svg>
