<svg width="120" height="120" viewBox="0 0 120 120" fill="none" xmlns="http://www.w3.org/2000/svg">
<g id="elixir">
<g id="elixir_2">
<path id="Layer 1" fill-rule="evenodd" clip-rule="evenodd" d="M47.5203 24.9175C47.5203 33.0527 44.2519 36.7422 42.0214 40.2432C33.7783 53.1816 15.9602 72.7266 15.9602 72.7266C3.15326 88.7461 11.9701 110 33.006 110H57.619H86.5182C107.554 110 116.371 88.7461 103.564 72.7266C103.564 72.7266 85.7458 53.1816 77.5028 40.2432C75.2723 36.7422 72.0038 33.0527 72.0038 24.9175C72.0038 23.4918 72.0038 22.1683 72.0038 20.9472L72.0846 20.9427C75.1412 20.7513 77.619 17.9839 77.619 14.7685V15.8219C77.619 12.6179 75.1405 10 72.0831 10H46.9645C43.9161 10 41.4286 12.6065 41.4286 15.8219V14.7685C41.4286 17.9726 43.8926 20.8124 46.932 21.0863L47.5203 21.1296C47.5203 22.2998 47.5203 23.5625 47.5203 24.9175Z" stroke="white" stroke-width="4" stroke-linecap="round" stroke-linejoin="round"/>
<path id="Path" d="M98.9613 69C95.3807 69 91.2877 75 85.5502 75C81.2863 75 77.5984 69 72.53 69C67.4615 69 64.0376 75 59.7869 75C55.5362 75 50.5619 69 46.3832 69C42.2045 69 37.1039 75 33.2708 75C29.7586 75 25.177 69 20.5 69" stroke="white" stroke-width="4" stroke-linecap="round" stroke-linejoin="round"/>
</g>
</g>
</svg>
