<svg width="120" height="120" viewBox="0 0 120 120" fill="none" xmlns="http://www.w3.org/2000/svg">
<g id="eye-4">
<g id="eye-4_2">
<path id="Layer 1" fill-rule="evenodd" clip-rule="evenodd" d="M109.291 59.6093C103.218 36.7595 83.2914 20 59.6456 20C35.9998 20 16.0727 36.7595 10 59.6093C16.0727 82.4592 35.9998 99.2187 59.6456 99.2187C83.2914 99.2187 103.218 82.4592 109.291 59.6093V59.6093Z" stroke="white" stroke-width="4" stroke-linecap="round" stroke-linejoin="round"/>
<path id="Layer 2" fill-rule="evenodd" clip-rule="evenodd" d="M12.8038 51.5808C11.6774 54.1546 10.7367 56.837 10 59.6091C10.8477 62.7988 11.9654 65.8698 13.3255 68.7931C13.5881 68.8196 13.8544 68.8332 14.1237 68.8332C18.6786 68.8332 22.3711 64.9464 22.3711 60.1517C22.3711 55.3571 18.6786 51.4702 14.1237 51.4702C13.6745 51.4702 13.2336 51.508 12.8038 51.5808V51.5808Z" stroke="white" stroke-width="4" stroke-linecap="round" stroke-linejoin="round"/>
<path id="Layer 3" fill-rule="evenodd" clip-rule="evenodd" d="M59.4846 86.1964C73.1494 86.1964 84.2268 74.5359 84.2268 60.1519C84.2268 45.7679 73.1494 34.1074 59.4846 34.1074C45.8198 34.1074 34.7423 45.7679 34.7423 60.1519C34.7423 74.5359 45.8198 86.1964 59.4846 86.1964Z" stroke="white" stroke-width="4" stroke-linecap="round" stroke-linejoin="round"/>
<path id="Layer 4" fill-rule="evenodd" clip-rule="evenodd" d="M59.4845 68.8332C64.0394 68.8332 67.7319 64.9464 67.7319 60.1517C67.7319 55.3571 64.0394 51.4702 59.4845 51.4702C54.9296 51.4702 51.2371 55.3571 51.2371 60.1517C51.2371 64.9464 54.9296 68.8332 59.4845 68.8332Z" stroke="white" stroke-width="4" stroke-linecap="round" stroke-linejoin="round"/>
</g>
</g>
</svg>
