<svg width="120" height="120" viewBox="0 0 120 120" fill="none" xmlns="http://www.w3.org/2000/svg">
<g id="flag-2">
<g id="flag-2_2">
<path id="Layer 1" d="M25.5031 22.7415V109.741" stroke="white" stroke-width="4" stroke-linecap="round" stroke-linejoin="round"/>
<path id="Layer 2" d="M25.5031 29.6859C25.5031 29.6859 45.1466 39.6859 65.5031 29.6859C85.8595 19.6859 105.503 29.6859 105.503 29.6859V79.6859C105.503 79.6859 86.1876 69.6859 66.0197 79.6859C45.8517 89.6859 25.5031 79.6859 25.5031 79.6859" stroke="white" stroke-width="4" stroke-linecap="round" stroke-linejoin="round"/>
<path id="Layer 3" fill-rule="evenodd" clip-rule="evenodd" d="M25.5031 22.2415C29.369 22.2415 32.5031 19.1074 32.5031 15.2415C32.5031 11.3755 29.369 8.24146 25.5031 8.24146C21.6371 8.24146 18.5031 11.3755 18.5031 15.2415C18.5031 19.1074 21.6371 22.2415 25.5031 22.2415Z" stroke="white" stroke-width="4" stroke-linecap="round" stroke-linejoin="round"/>
<path id="Layer 4" d="M15.5031 110.241H35.5031" stroke="white" stroke-width="4" stroke-linecap="round" stroke-linejoin="round"/>
</g>
</g>
</svg>
