<svg width="120" height="120" viewBox="0 0 120 120" fill="none" xmlns="http://www.w3.org/2000/svg">
<g id="flower-2">
<g id="flower-2_2">
<path id="Path" fill-rule="evenodd" clip-rule="evenodd" d="M49.6936 21.2958C49.6915 21.2078 49.6905 21.1195 49.6905 21.031C49.6905 14.9387 54.6292 10 60.7214 10C66.8137 10 71.7524 14.9387 71.7524 21.031C71.7524 21.1195 71.7514 21.2078 71.7493 21.2958C71.8324 21.2666 71.916 21.2383 72.0002 21.211C77.7942 19.3284 84.0174 22.4992 85.9 28.2933C87.7826 34.0874 84.6118 40.3105 78.8177 42.1931C78.7335 42.2205 78.6492 42.2468 78.5649 42.272C78.6183 42.342 78.671 42.4128 78.7231 42.4844C82.304 47.4131 81.2114 54.3116 76.2827 57.8925C71.3539 61.4734 64.4555 60.3808 60.8746 55.4521C60.8225 55.3805 60.7715 55.3084 60.7214 55.236C60.6714 55.3084 60.6203 55.3805 60.5683 55.4521C56.9874 60.3808 50.089 61.4734 45.1602 57.8925C40.2315 54.3116 39.1389 47.4131 42.7198 42.4844C42.7719 42.4128 42.8246 42.342 42.878 42.272C42.7937 42.2468 42.7094 42.2205 42.6252 42.1931C36.8311 40.3105 33.6603 34.0874 35.5429 28.2933C37.4255 22.4992 43.6486 19.3284 49.4427 21.211C49.5269 21.2383 49.6105 21.2666 49.6936 21.2958V21.2958V21.2958V21.2958Z" stroke="white" stroke-width="3.5" stroke-linecap="round" stroke-linejoin="round"/>
<path id="Path_2" fill-rule="evenodd" clip-rule="evenodd" d="M60.739 45.299C65.6127 45.299 69.5637 41.348 69.5637 36.4742C69.5637 31.6004 65.6127 27.6494 60.739 27.6494C55.8652 27.6494 51.9142 31.6004 51.9142 36.4742C51.9142 41.348 55.8652 45.299 60.739 45.299V45.299V45.299Z" stroke="white" stroke-width="3.5" stroke-linecap="round" stroke-linejoin="round"/>
<rect id="Layer 2" x="30" y="74" width="60" height="6" stroke="white" stroke-width="4" stroke-linecap="round" stroke-linejoin="round"/>
<path id="Layer 3" d="M86 80L79.4238 110H40.5762L34 80" stroke="white" stroke-width="4" stroke-linecap="round" stroke-linejoin="round"/>
<path id="Layer 4" d="M60 56C60 56 62.1914 63.397 62.1914 65.5708C62.1914 67.7446 60 74 60 74" stroke="white" stroke-width="4" stroke-linecap="round" stroke-linejoin="round"/>
</g>
</g>
</svg>
