<svg width="120" height="120" viewBox="0 0 120 120" fill="none" xmlns="http://www.w3.org/2000/svg">
<g id="giftcard">
<g id="giftcard_2">
<path id="Layer 1" d="M17.4074 62.8616L17.4074 91.5216C17.4074 94.5883 19.8918 97.0741 22.9565 97.0741H104.451C107.511 97.0741 110 94.5882 110 91.5216V28.5524C110 25.4858 107.516 23 104.451 23H22.9565C19.896 23 17.4074 25.4859 17.4074 28.5524V37.7681" stroke="white" stroke-width="4" stroke-linecap="round" stroke-linejoin="round"/>
<path id="Layer 2" d="M72.963 85.9629H85" stroke="white" stroke-width="4" stroke-linecap="round" stroke-linejoin="round"/>
<path id="Layer 3" d="M72.963 76.7038H100.741" stroke="white" stroke-width="4" stroke-linecap="round" stroke-linejoin="round"/>
<path id="Layer 4" d="M62.3126 50.7777H109.542" stroke="white" stroke-width="4" stroke-linecap="round" stroke-linejoin="round"/>
<path id="Layer 5" d="M35.9259 42.1221V23" stroke="white" stroke-width="4" stroke-linecap="round" stroke-linejoin="round"/>
<path id="Layer 6" d="M35.9259 96.6374V60.037" stroke="white" stroke-width="4" stroke-linecap="round" stroke-linejoin="round"/>
<path id="Layer 7" d="M29.7501 44.6729C22.1446 38.2191 10 30.9561 10 50.3888C10 69.4389 21.6712 62.834 29.2958 56.4865" stroke="white" stroke-width="4" stroke-linecap="round" stroke-linejoin="round"/>
<path id="Layer 8" d="M42.4074 44.5517C50.0211 38.1293 62.0143 31.0776 62.0143 50.3888C62.0143 69.3787 50.4167 62.8755 42.7909 56.5467" stroke="white" stroke-width="4" stroke-linecap="round" stroke-linejoin="round"/>
<path id="Layer 9" fill-rule="evenodd" clip-rule="evenodd" d="M35.982 59.4098C40.7859 59.4098 44.6801 55.5318 44.6801 50.7479C44.6801 45.9641 40.7859 42.0861 35.982 42.0861C31.1782 42.0861 27.2839 45.9641 27.2839 50.7479C27.2839 55.5318 31.1782 59.4098 35.982 59.4098Z" stroke="white" stroke-width="4" stroke-linecap="round" stroke-linejoin="round"/>
</g>
</g>
</svg>
