<svg width="120" height="120" viewBox="0 0 120 120" fill="none" xmlns="http://www.w3.org/2000/svg">
<g id="glasses">
<g id="glasses_2">
<path id="Layer 1" d="M10 77.9261L23.298 28.2974C24.7626 22.8314 30.3758 19.5863 35.8382 21.0499C41.2993 22.5132 44.5381 28.1346 43.0746 33.5965" stroke="white" stroke-width="4" stroke-linecap="round" stroke-linejoin="round"/>
<path id="Layer 2" d="M109.726 77.9261L96.4285 28.2974C94.9639 22.8314 89.3506 19.5863 83.8883 21.0499C78.4271 22.5132 75.1884 28.1346 76.6519 33.5965" stroke="white" stroke-width="4" stroke-linecap="round" stroke-linejoin="round"/>
<path id="Layer 3" d="M51 80.4004H68" stroke="white" stroke-width="4" stroke-linecap="round" stroke-linejoin="round"/>
<path id="Layer 4" fill-rule="evenodd" clip-rule="evenodd" d="M30 100.4C41.0457 100.4 50 91.4461 50 80.4004C50 69.3547 41.0457 60.4004 30 60.4004C18.9543 60.4004 10 69.3547 10 80.4004C10 91.4461 18.9543 100.4 30 100.4Z" stroke="white" stroke-width="4" stroke-linecap="round" stroke-linejoin="round"/>
<path id="Layer 5" fill-rule="evenodd" clip-rule="evenodd" d="M90 100.4C101.046 100.4 110 91.4461 110 80.4004C110 69.3547 101.046 60.4004 90 60.4004C78.9543 60.4004 70 69.3547 70 80.4004C70 91.4461 78.9543 100.4 90 100.4Z" stroke="white" stroke-width="4" stroke-linecap="round" stroke-linejoin="round"/>
</g>
</g>
</svg>
