<svg width="120" height="120" viewBox="0 0 120 120" fill="none" xmlns="http://www.w3.org/2000/svg">
<g id="glasses-love">
<g id="glasses-love_2">
<path id="Layer 1" fill-rule="evenodd" clip-rule="evenodd" d="M68.0228 73.3113C68.0077 73.4139 68 73.5206 68 73.6316C68 92.5789 89.0526 101 89.0526 101C89.0526 101 110.105 92.5789 110.105 73.6316C110.105 73.5204 110.098 73.4134 110.083 73.3106C110.098 73.0687 110.105 72.8247 110.105 72.5789C110.105 66.1841 104.921 61 98.5263 61C94.6102 61 91.1481 62.9441 89.0526 65.9198C86.9571 62.9441 83.4951 61 79.5789 61C73.1841 61 68 66.1841 68 72.5789C68 72.8249 68.0077 73.0691 68.0228 73.3113V73.3113Z" stroke="white" stroke-width="4" stroke-linecap="round" stroke-linejoin="round"/>
<path id="Layer 2" d="M13.7549 63.9126L23.298 28.2974C24.7626 22.8314 30.3758 19.5863 35.8382 21.0499C41.2993 22.5132 44.5381 28.1346 43.0746 33.5965" stroke="white" stroke-width="4" stroke-linecap="round" stroke-linejoin="round"/>
<path id="Layer 3" d="M105.879 63.5657L96.4285 28.2974C94.9639 22.8314 89.3507 19.5863 83.8883 21.0499C78.4271 22.5132 75.1884 28.1346 76.6519 33.5965" stroke="white" stroke-width="4" stroke-linecap="round" stroke-linejoin="round"/>
<path id="Layer 4" d="M51 80.4004H68" stroke="white" stroke-width="4" stroke-linecap="round" stroke-linejoin="round"/>
<path id="Layer 5" fill-rule="evenodd" clip-rule="evenodd" d="M10.0228 73.3113C10.0077 73.4139 10 73.5206 10 73.6316C10 92.5789 31.0526 101 31.0526 101C31.0526 101 52.1053 92.5789 52.1053 73.6316C52.1053 73.5204 52.0976 73.4134 52.0825 73.3106C52.0976 73.0687 52.1053 72.8247 52.1053 72.5789C52.1053 66.1841 46.9212 61 40.5263 61C36.6102 61 33.1481 62.9441 31.0526 65.9198C28.9571 62.9441 25.4951 61 21.5789 61C15.1841 61 10 66.1841 10 72.5789C10 72.8249 10.0077 73.0691 10.0228 73.3113V73.3113Z" stroke="white" stroke-width="4" stroke-linecap="round" stroke-linejoin="round"/>
</g>
</g>
</svg>
