<svg width="120" height="120" viewBox="0 0 120 120" fill="none" xmlns="http://www.w3.org/2000/svg">
<g id="gopro">
<g id="gopro_2">
<path id="Layer 1" fill-rule="evenodd" clip-rule="evenodd" d="M62.3494 16.25H26.314C22.9919 16.25 20.3077 18.9354 20.3077 22.2481V83.1686C20.3077 86.4851 22.9969 89.1667 26.314 89.1667H97.8179C101.14 89.1667 103.824 86.4812 103.824 83.1686V57.634C103.248 57.8176 102.633 57.9167 101.995 57.9167H68.0711C64.7545 57.9167 62.066 55.2207 62.066 51.9248V18.0752C62.066 17.4388 62.1653 16.8255 62.3494 16.25V16.25Z" stroke="white" stroke-width="4" stroke-linecap="round" stroke-linejoin="round"/>
<rect id="Layer 2" x="28.6593" y="24.5833" width="25.0549" height="25" rx="1" stroke="white" stroke-width="4" stroke-linecap="round" stroke-linejoin="round"/>
<path id="Layer 3" fill-rule="evenodd" clip-rule="evenodd" d="M62.0659 18.0832C62.0659 14.7695 64.7522 12.0833 68.0659 12.0833H102C105.314 12.0833 108 14.7695 108 18.0833V51.9166C108 55.2303 105.314 57.9166 102 57.9166H68.0659C64.7522 57.9166 62.0659 55.2303 62.0659 51.9166V18.0832Z" stroke="white" stroke-width="4" stroke-linecap="round" stroke-linejoin="round"/>
<path id="Layer 4" fill-rule="evenodd" clip-rule="evenodd" d="M85.3297 50.3333C93.614 50.3333 100.33 43.6175 100.33 35.3333C100.33 27.049 93.614 20.3333 85.3297 20.3333C77.0454 20.3333 70.3297 27.049 70.3297 35.3333C70.3297 43.6175 77.0454 50.3333 85.3297 50.3333Z" stroke="white" stroke-width="4" stroke-linecap="round" stroke-linejoin="round"/>
<path id="Layer 5" fill-rule="evenodd" clip-rule="evenodd" d="M28.6593 13C28.6593 11.3431 30.0024 10 31.6593 10H36.0989C37.7557 10 39.0989 11.3431 39.0989 13V16.25H28.6593V13Z" fill="white" stroke="white" stroke-width="4" stroke-linecap="round" stroke-linejoin="round"/>
<path id="Layer 6" fill-rule="evenodd" clip-rule="evenodd" d="M41.2637 75.5C44.7231 75.5 47.5275 72.7018 47.5275 69.25C47.5275 65.7982 44.7231 63 41.2637 63C37.8044 63 35 65.7982 35 69.25C35 72.7018 37.8044 75.5 41.2637 75.5Z" stroke="white" stroke-width="4" stroke-linecap="round" stroke-linejoin="round"/>
<rect id="Layer 7" x="51.6263" y="89.1667" width="20.8791" height="10.4167" stroke="white" stroke-width="4" stroke-linecap="round" stroke-linejoin="round"/>
<rect id="Layer 8" x="46.4066" y="99.5833" width="31.3187" height="10.4167" stroke="white" stroke-width="4" stroke-linecap="round" stroke-linejoin="round"/>
<path id="Layer 9" d="M51.1044 99.5834H21.3517" stroke="white" stroke-width="4" stroke-linecap="round" stroke-linejoin="round"/>
<rect id="Layer 10" x="13" y="93.3333" width="7.30769" height="12.5" rx="3.65385" fill="white" stroke="white" stroke-width="4" stroke-linecap="round" stroke-linejoin="round"/>
<path id="Layer 11" d="M77 74H93" stroke="white" stroke-width="4" stroke-linecap="round" stroke-linejoin="round"/>
</g>
</g>
</svg>
