<svg width="120" height="120" viewBox="0 0 120 120" fill="none" xmlns="http://www.w3.org/2000/svg">
<g id="halloween">
<g id="halloween_2">
<path id="Layer 1" fill-rule="evenodd" clip-rule="evenodd" d="M74.2773 104.935C75.1355 107.869 79.6762 109.899 87.6553 109.014C97.3777 107.936 108.172 88.5625 109.904 64.9213C110.552 56.0754 108.177 37.3516 94.6097 35.4234C85.7805 34.4907 87.4362 36.3504 87.3828 36.5057C87.3093 33.3276 80.6662 30.4082 74.6202 30.4082C68.5741 30.4082 60.2272 32.9842 60.2272 36.1618C60.212 35.9735 59.788 35.9735 59.7728 36.1618C59.7728 32.9842 51.4259 30.4082 45.3798 30.4082C39.3338 30.4082 32.6907 33.3276 32.6172 36.5057C32.5638 36.3504 34.2195 34.4907 25.3903 35.4234C11.8226 37.3516 9.44779 56.0754 10.0959 64.9213C11.8279 88.5625 22.6223 107.936 32.3447 109.014C40.3238 109.899 44.8645 107.869 45.7227 104.935C47.6229 107.853 53.1602 109.978 59.8967 110C66.8398 109.978 72.3771 107.853 74.2773 104.935Z" stroke="white" stroke-width="4" stroke-linecap="round" stroke-linejoin="round"/>
<path id="Layer 2" fill-rule="evenodd" clip-rule="evenodd" d="M39.6513 53.9012C41.23 51.4849 44.77 51.4849 46.3487 53.9012L48.9573 57.894C50.6955 60.5545 48.7866 64.0818 45.6086 64.0818H40.3914C37.2134 64.0818 35.3045 60.5545 37.0427 57.894L39.6513 53.9012Z" stroke="white" stroke-width="4" stroke-linecap="round" stroke-linejoin="round"/>
<path id="Layer 3" fill-rule="evenodd" clip-rule="evenodd" d="M73.6513 53.9012C75.23 51.4849 78.77 51.4849 80.3487 53.9012L82.9573 57.894C84.6955 60.5545 82.7866 64.0818 79.6086 64.0818H74.3914C71.2134 64.0818 69.3045 60.5545 71.0427 57.894L73.6513 53.9012Z" stroke="white" stroke-width="4" stroke-linecap="round" stroke-linejoin="round"/>
<path id="Layer 4" d="M64 76.3267C64 74.0725 62.2091 72.2451 60 72.2451C57.7909 72.2451 56 74.0725 56 76.3267" stroke="white" stroke-width="4" stroke-linecap="round" stroke-linejoin="round"/>
<path id="Layer 5" d="M35 86.5308L43.2814 92.65L51.6861 86.5308L59.9628 92.65L68.3231 86.5308L76.654 92.65L85 86.5308" stroke="white" stroke-width="4" stroke-linecap="round" stroke-linejoin="round"/>
<path id="Layer 6" d="M60.1636 35.5327C60.1636 35.5327 57.332 24.8637 61.4951 18.0377C65.6582 11.2118 73.2544 10.291 73.2544 10.291" stroke="white" stroke-width="4" stroke-linecap="round" stroke-linejoin="round"/>
</g>
</g>
</svg>
