<svg width="120" height="120" viewBox="0 0 120 120" fill="none" xmlns="http://www.w3.org/2000/svg">
<g id="hotdog">
<g id="hotdog_2">
<path id="Layer 1" fill-rule="evenodd" clip-rule="evenodd" d="M13.2063 78.1448C9.22131 74.1599 9.22228 67.698 13.2042 63.7162L63.716 13.2044C67.6998 9.22057 74.1588 9.22063 78.1446 13.2064L85.36 20.4218L20.4216 85.3602L13.2063 78.1448V78.1448Z" stroke="white" stroke-width="4" stroke-linecap="round" stroke-linejoin="round"/>
<path id="Layer 2" fill-rule="evenodd" clip-rule="evenodd" d="M20.4216 99.7908C16.4367 95.8059 16.4407 89.341 20.4249 85.3568L85.3567 20.4249C89.3435 16.4382 95.8049 16.4359 99.7907 20.4217V20.4217C103.776 24.4066 103.772 30.8715 99.7875 34.8557L34.8556 99.7875C30.8689 103.774 24.4074 103.777 20.4216 99.7908V99.7908V99.7908Z" stroke="white" stroke-width="4" stroke-linecap="round" stroke-linejoin="round"/>
<path id="Layer 3" fill-rule="evenodd" clip-rule="evenodd" d="M42.0678 107.006C46.0527 110.991 52.5146 110.99 56.4965 107.008L107.008 56.4966C110.992 52.5128 110.992 46.0537 107.006 42.0679L99.7908 34.8525L34.8524 99.7909L42.0678 107.006V107.006Z" stroke="white" stroke-width="4" stroke-linecap="round" stroke-linejoin="round"/>
<path id="Layer 4" d="M33.2039 83.9339C35.384 81.7538 40.9495 82.0692 43.5858 79.5145C45.9337 77.2392 45.1886 71.9736 47.6878 69.45C50.1915 66.9218 55.5516 67.4724 58.1913 64.909C60.5783 62.591 59.9673 57.2247 62.2736 54.8642C64.6577 52.424 70.0909 52.9014 72.4364 50.6639C75.1025 48.1205 74.6471 42.6695 76.8593 40.2784C79.4381 37.4913 84.5861 38.0855 86.8576 36.2427" stroke="white" stroke-width="4" stroke-linecap="round" stroke-linejoin="round"/>
</g>
</g>
</svg>
