<svg width="120" height="120" viewBox="0 0 120 120" fill="none" xmlns="http://www.w3.org/2000/svg">
<g id="juice">
<g id="juice_2">
<path id="Layer 1" d="M21.1853 14.2335L20.2607 12.4601C19.7059 12.7493 19.3184 13.2816 19.2135 13.8985C19.1087 14.5154 19.2986 15.1458 19.7268 15.6021L21.1853 14.2335ZM56.2522 15.9337L57.485 14.3589C57.4553 14.3356 57.425 14.3132 57.394 14.2917L56.2522 15.9337ZM67.1058 17.1949L67.605 19.1316C67.7216 19.1015 67.8354 19.0609 67.9448 19.0104L67.1058 17.1949ZM84.0541 13.6149L84.2473 11.6242L84.0541 13.6149ZM101.485 34.9221L99.4892 34.7949L101.485 34.9221ZM84.1909 65.3028C85.1354 68.146 85.7224 71.3089 85.7224 74.8937H89.7224C89.7224 70.8577 89.0592 67.2696 87.9869 64.0417L84.1909 65.3028ZM85.7224 74.8937C85.7224 93.2147 71.354 108 53.1064 108V112C73.6362 112 89.7224 95.35 89.7224 74.8937H85.7224ZM53.1064 108C34.8222 108 20 93.1778 20 74.8937H16C16 95.3869 32.6131 112 53.1064 112V108ZM20 74.8937C20 65.8145 22.9963 60.3996 26.2742 55.7108C29.4972 51.1007 33.5648 46.6022 34.4377 40.0514L30.4727 39.5231C29.7654 44.8313 26.6055 48.2558 22.9959 53.4189C19.4413 58.5034 16 64.7122 16 74.8937H20ZM34.4377 40.0514C35.3237 33.4016 32.1809 26.5021 29.1167 21.5161C27.5544 18.9738 25.9452 16.822 24.7277 15.3062C24.1179 14.547 23.6036 13.9439 23.2388 13.5274C23.0563 13.319 22.911 13.1572 22.8097 13.0456C22.759 12.9898 22.7193 12.9465 22.6913 12.9162C22.6774 12.9011 22.6663 12.8893 22.6584 12.8807C22.6544 12.8764 22.6512 12.873 22.6487 12.8704C22.6475 12.869 22.6465 12.8679 22.6456 12.8671C22.6452 12.8666 22.6447 12.8661 22.6445 12.8659C22.6441 12.8654 22.6437 12.865 21.1853 14.2335C19.7268 15.6021 19.7265 15.6018 19.7263 15.6015C19.7263 15.6015 19.7261 15.6013 19.726 15.6013C19.726 15.6012 19.7261 15.6014 19.7265 15.6017C19.7271 15.6024 19.7286 15.604 19.7308 15.6063C19.7351 15.611 19.7425 15.619 19.7528 15.6301C19.7734 15.6524 19.8057 15.6875 19.8487 15.7349C19.9348 15.8297 20.064 15.9736 20.2298 16.1629C20.5616 16.5417 21.0389 17.1011 21.6091 17.811C22.7516 19.2336 24.2562 21.2467 25.7088 23.6104C28.6747 28.4366 31.1668 34.314 30.4727 39.5231L34.4377 40.0514ZM21.1853 14.2335C22.1098 16.007 22.1091 16.0074 22.1085 16.0077C22.1084 16.0077 22.1079 16.008 22.1077 16.0081C22.1073 16.0083 22.1072 16.0084 22.1073 16.0083C22.1076 16.0082 22.109 16.0074 22.1115 16.0061C22.1166 16.0036 22.126 15.9987 22.1398 15.9918C22.1673 15.9779 22.2122 15.9555 22.2738 15.9256C22.3969 15.8656 22.5868 15.7755 22.8381 15.6625C23.3412 15.4365 24.0892 15.1199 25.0418 14.7717C26.9505 14.0739 29.6613 13.2562 32.8559 12.7792C39.2489 11.8246 47.4489 12.2478 55.1103 17.5757L57.394 14.2917C48.6336 8.19951 39.3001 7.77263 32.2652 8.82302C28.7458 9.34851 25.769 10.2469 23.6685 11.0148C22.6165 11.3994 21.7796 11.7529 21.1988 12.0139C20.9083 12.1444 20.6815 12.2519 20.5235 12.3288C20.4446 12.3672 20.3827 12.398 20.3387 12.4202C20.3167 12.4313 20.2992 12.4403 20.2861 12.4469C20.2796 12.4503 20.2742 12.4531 20.27 12.4552C20.2679 12.4563 20.266 12.4573 20.2645 12.4581C20.2637 12.4585 20.2628 12.459 20.2624 12.4592C20.2615 12.4596 20.2607 12.4601 21.1853 14.2335ZM55.0193 17.5085C57.3438 19.3283 59.538 20.0529 61.7484 20.1049C63.8315 20.1538 65.8382 19.587 67.605 19.1316L66.6066 15.2582C64.6576 15.7605 63.2506 16.1391 61.8424 16.106C60.5615 16.0759 59.1868 15.6911 57.485 14.3589L55.0193 17.5085ZM67.9448 19.0104C73.6337 16.3814 79.9674 15.2276 83.8608 15.6055L84.2473 11.6242C79.4713 11.1606 72.419 12.5363 66.2668 15.3794L67.9448 19.0104ZM83.8608 15.6055C88.1508 16.022 92.2462 17.6991 95.1514 20.7478C98.0201 23.7582 99.9041 28.2881 99.4892 34.7949L103.481 35.0494C103.957 27.5835 101.786 21.9122 98.0471 17.9884C94.3445 14.1028 89.2789 12.1127 84.2473 11.6242L83.8608 15.6055ZM99.4892 34.7949C99.2332 38.8104 97.0552 43.7969 94.0262 49.0195C91.0283 54.1884 87.3845 59.2842 84.4441 63.5344L87.7336 65.8101C90.62 61.638 94.3866 56.3708 97.4864 51.0263C100.555 45.7354 103.162 40.058 103.481 35.0494L99.4892 34.7949ZM81.2979 55.3593C82.8285 56.6466 82.8287 56.6464 82.829 56.646C82.8292 56.6458 82.8295 56.6454 82.8298 56.645C82.8304 56.6443 82.8313 56.6433 82.8322 56.6421C82.8342 56.6398 82.8369 56.6365 82.8404 56.6325C82.8472 56.6243 82.8569 56.6127 82.8693 56.5978C82.8942 56.5679 82.9301 56.5246 82.9762 56.4686C83.0686 56.3564 83.2021 56.1931 83.3708 55.9832C83.7083 55.5636 84.1874 54.9573 84.7611 54.2024C85.9067 52.6947 87.4372 50.5836 88.9712 48.1748C90.5017 45.7715 92.0584 43.0366 93.2381 40.2844C94.4057 37.5607 95.2706 34.6689 95.2706 31.9935H91.2706C91.2706 33.8835 90.639 36.1951 89.5617 38.7085C88.4965 41.1934 87.06 43.7293 85.5973 46.0261C84.1382 48.3174 82.6754 50.3357 81.5762 51.7824C81.0273 52.5047 80.5711 53.0819 80.2538 53.4764C80.0952 53.6736 79.9715 53.825 79.8884 53.9258C79.8469 53.9763 79.8156 54.014 79.7951 54.0386C79.7849 54.0509 79.7774 54.0598 79.7727 54.0654C79.7704 54.0682 79.7688 54.0702 79.7679 54.0712C79.7674 54.0718 79.7671 54.0721 79.767 54.0722C79.767 54.0723 79.767 54.0722 79.767 54.0722C79.7671 54.0721 79.7673 54.0719 81.2979 55.3593ZM95.2706 31.9935C95.2706 27.9052 93.623 24.739 90.9273 22.6458C88.2963 20.6029 84.8308 19.7022 81.2979 19.7022L81.2979 23.7022C84.2087 23.7022 86.7295 24.4506 88.4741 25.8052C90.1537 27.1095 91.2706 29.0889 91.2706 31.9935H95.2706ZM81.2979 19.7022C77.2961 19.7022 74.1789 21.7654 72.1435 24.851C70.1442 27.8818 69.1608 31.907 69.1608 36.1511H73.1608C73.1608 32.4636 74.0241 29.2643 75.4824 27.0535C76.9046 24.8976 78.8559 23.7022 81.2979 23.7022L81.2979 19.7022ZM69.1608 36.1511C69.1608 38.5254 69.9097 41.008 70.9124 43.3001C71.925 45.615 73.2583 47.8738 74.564 49.8372C75.8734 51.8059 77.1789 53.5131 78.1558 54.7272C78.6451 55.3353 79.0541 55.8224 79.3429 56.1598C79.4873 56.3285 79.6018 56.46 79.6814 56.5506C79.7212 56.5959 79.7522 56.631 79.774 56.6554C79.7848 56.6676 79.7934 56.6772 79.7995 56.684C79.8025 56.6875 79.805 56.6902 79.8068 56.6923C79.8078 56.6933 79.8085 56.6941 79.8091 56.6948C79.8094 56.6952 79.8098 56.6956 79.8099 56.6957C79.8102 56.6961 79.8105 56.6964 81.2979 55.3593C82.7852 54.0222 82.7854 54.0224 82.7856 54.0226C82.7856 54.0226 82.7857 54.0227 82.7857 54.0227C82.7857 54.0227 82.7855 54.0225 82.7852 54.0222C82.7846 54.0215 82.7834 54.0202 82.7816 54.0181C82.778 54.0141 82.7719 54.0073 82.7636 53.998C82.747 53.9793 82.7211 53.9501 82.6867 53.9108C82.6177 53.8324 82.5145 53.7138 82.3817 53.5587C82.1161 53.2484 81.7332 52.7926 81.2722 52.2196C80.3484 51.0715 79.1196 49.4639 77.8947 47.6221C76.6662 45.7748 75.4652 43.7273 74.5771 41.6971C73.6791 39.6441 73.1608 37.7427 73.1608 36.1511H69.1608Z" fill="white"/>
<path id="Layer 2" fill-rule="evenodd" clip-rule="evenodd" d="M31.8298 42.3885C32.2008 41.3283 32.4795 40.2106 32.6394 39.0102C32.917 36.9271 32.7379 34.786 32.2577 32.6753L70.5399 32.6753C70.432 33.578 70.3772 34.511 70.3772 35.465C70.3772 37.6222 71.1463 40.0332 72.2554 42.3885H31.8298H31.8298Z" stroke="white" stroke-width="4" stroke-linecap="round" stroke-linejoin="round"/>
<path id="Layer 3" d="M27.5745 80.2129C29.9047 88.0405 34.9878 93.6183 41.7658 97.3407" stroke="white" stroke-width="4" stroke-linecap="round" stroke-linejoin="round"/>
<path id="Layer 4" d="M27.4114 67.668C26.9902 68.967 26.7258 70.3876 26.5994 71.8138" stroke="white" stroke-width="4" stroke-linecap="round" stroke-linejoin="round"/>
</g>
</g>
</svg>
