<svg width="120" height="120" viewBox="0 0 120 120" fill="none" xmlns="http://www.w3.org/2000/svg">
<g id="kayak">
<g id="kayak_2">
<path id="Layer 1" fill-rule="evenodd" clip-rule="evenodd" d="M101.407 10.9536C100.206 10.9536 99.0006 11.2284 97.9207 11.7479L77.7647 21.4226C65.5089 27.3043 54.4209 35.1619 44.8081 44.7746C35.1953 54.3874 27.3378 65.4755 21.4561 77.7312L11.7813 97.8859C11.2622 98.9668 10.9874 100.173 10.9874 101.373C10.9874 105.817 14.6009 109.431 19.0452 109.431C20.2461 109.431 21.4517 109.156 22.5316 108.636L42.6862 98.9617C54.942 93.08 66.0301 85.2225 75.6428 75.6097C85.2556 65.997 93.1131 54.9089 98.9948 42.6531L108.671 22.4985C109.19 21.4169 109.465 20.2113 109.465 19.0104C109.465 14.5671 105.851 10.9536 101.407 10.9536V10.9536Z" stroke="white" stroke-width="4" stroke-linecap="round" stroke-linejoin="round"/>
<path id="Layer 2" fill-rule="evenodd" clip-rule="evenodd" d="M74.8895 63.0007L63.0343 74.8563C61.2364 76.6542 58.798 77.6643 56.2553 77.6643C53.7123 77.6643 51.2743 76.6542 49.4763 74.8559L45.5627 70.9423C43.7647 69.1443 42.7546 66.706 42.7546 64.1633C42.7546 61.6206 43.7647 59.1822 45.5627 57.3843L57.4179 45.5287C59.2158 43.7308 61.6542 42.7207 64.1969 42.7207C66.7396 42.7207 69.1779 43.7308 70.9759 45.5287L74.8895 49.4424C76.6875 51.2403 77.6976 53.6787 77.6976 56.2214C77.6976 58.7641 76.6878 61.2028 74.8895 63.0007V63.0007Z" stroke="white" stroke-width="4" stroke-linecap="round" stroke-linejoin="round"/>
<path id="Layer 3" fill-rule="evenodd" clip-rule="evenodd" d="M14.1049 26.2117C12.1557 24.2625 12.1625 21.0955 14.1044 19.1537L19.4771 13.781C21.4259 11.8321 24.5843 11.8307 26.5351 13.7815L36.9168 24.1632C38.866 26.1124 38.8592 29.2795 36.9174 31.2213L31.5447 36.594C29.5958 38.5429 26.4375 38.5443 24.4866 36.5934L14.1049 26.2117V26.2117Z" stroke="white" stroke-width="4" stroke-linecap="round" stroke-linejoin="round"/>
<path id="Layer 4" fill-rule="evenodd" clip-rule="evenodd" d="M83.1617 95.973C81.2125 94.0238 81.2193 90.8567 83.1611 88.9149L88.5338 83.5422C90.4827 81.5933 93.6411 81.5919 95.5919 83.5428L105.974 93.9245C107.923 95.8737 107.916 99.0407 105.974 100.983L100.601 106.355C98.6526 108.304 95.4942 108.306 93.5434 106.355L83.1617 95.973V95.973Z" stroke="white" stroke-width="4" stroke-linecap="round" stroke-linejoin="round"/>
<path id="Layer 5" d="M28.6467 28.6758L91.432 91.461" stroke="white" stroke-width="4" stroke-linecap="round" stroke-linejoin="round"/>
</g>
</g>
</svg>
