<svg width="120" height="120" viewBox="0 0 120 120" fill="none" xmlns="http://www.w3.org/2000/svg">
<g id="kitchen">
<g id="kitchen_2">
<path id="Layer 1" fill-rule="evenodd" clip-rule="evenodd" d="M39.7882 110H41.597C44.3627 110 46.6047 107.762 46.6047 104.995V10.1074C46.6047 10.1074 36.0469 14.6 30.5716 33.4625C28.8065 39.5433 28.3394 50.5279 28.9485 56.2526C29.5576 61.9773 33.9065 62.8096 37.6497 67.4906C37.6497 69.177 34.0977 105.018 34.0977 105.018C33.8261 107.769 35.8494 110 38.6034 110H39.7882V110Z" stroke="white" stroke-width="4" stroke-linecap="round" stroke-linejoin="round"/>
<path id="Layer 2" fill-rule="evenodd" clip-rule="evenodd" d="M81.9329 51.1201H75.7371L73.3648 104.54C73.2309 107.555 75.5629 110 78.5774 110H79.0439C82.0567 110 84.3928 107.563 84.2611 104.54L81.9329 51.1201V51.1201Z" stroke="white" stroke-width="4" stroke-linecap="round" stroke-linejoin="round"/>
<path id="Layer 3" fill-rule="evenodd" clip-rule="evenodd" d="M66.6214 43.0552C66.6214 47.5092 70.5112 51.12 75.3194 51.12H82.302C87.1058 51.12 91 47.5094 91 43.0552L68.0979 43.0552H66.6214V43.0552Z" stroke="white" stroke-width="4" stroke-linecap="round" stroke-linejoin="round"/>
<path id="Layer 4" d="M82.8738 43.0544L82.8738 10.7915" stroke="white" stroke-width="4" stroke-linecap="round" stroke-linejoin="round"/>
<path id="Layer 5" d="M74.7476 43.0544V10.7915" stroke="white" stroke-width="4" stroke-linecap="round" stroke-linejoin="round"/>
<path id="Layer 6" d="M66.6214 10.7915L66.6214 42.8283" stroke="white" stroke-width="4" stroke-linecap="round" stroke-linejoin="round"/>
<path id="Layer 7" d="M91 42.8283V10.7915" stroke="white" stroke-width="4" stroke-linecap="round" stroke-linejoin="round"/>
</g>
</g>
</svg>
