<svg width="120" height="120" viewBox="0 0 120 120" fill="none" xmlns="http://www.w3.org/2000/svg">
<g id="list">
<g id="list_2">
<path id="Layer 1" fill-rule="evenodd" clip-rule="evenodd" d="M26.0841 20.7303L22.6942 10L19.2942 20.7623L10 21.3727L17.3623 26.8773L14.1644 37L22.6942 31L31.224 37L28.1174 27.1666L35.8668 21.3727L26.0841 20.7303V20.7303Z" stroke="white" stroke-width="4" stroke-linecap="round" stroke-linejoin="round"/>
<path id="Layer 2" fill-rule="evenodd" clip-rule="evenodd" d="M26.0841 93.7303L22.6942 83L19.2942 93.7623L10 94.3727L17.3623 99.8773L14.1644 110L22.6942 104L31.224 110L28.1174 100.167L35.8668 94.3727L26.0841 93.7303V93.7303Z" stroke="white" stroke-width="4" stroke-linecap="round" stroke-linejoin="round"/>
<path id="Layer 3" fill-rule="evenodd" clip-rule="evenodd" d="M26.0841 56.7303L22.6942 46L19.2942 56.7623L10 57.3727L17.3623 62.8773L14.1644 73L22.6942 67L31.224 73L28.1174 63.1666L35.8668 57.3727L26.0841 56.7303V56.7303Z" stroke="white" stroke-width="4" stroke-linecap="round" stroke-linejoin="round"/>
<path id="Layer 4" d="M50 60H110.033" stroke="white" stroke-width="4" stroke-linecap="round" stroke-linejoin="round"/>
<path id="Layer 5" d="M50 97H110.033" stroke="white" stroke-width="4" stroke-linecap="round" stroke-linejoin="round"/>
<path id="Layer 6" d="M50 24H110.033" stroke="white" stroke-width="4" stroke-linecap="round" stroke-linejoin="round"/>
</g>
</g>
</svg>
