<svg width="120" height="120" viewBox="0 0 120 120" fill="none" xmlns="http://www.w3.org/2000/svg">
<g id="lolipop">
<g id="lolipop_2">
<path id="Layer 1" fill-rule="evenodd" clip-rule="evenodd" d="M96.4045 65.806C84.5681 74.3487 68.014 73.2529 57.3881 62.5185C46.7621 51.7841 45.6774 35.0611 54.1337 23.104C54.2559 23.2604 54.3884 23.4113 54.5312 23.5556L95.9574 65.4045C96.1003 65.5488 96.2496 65.6826 96.4045 65.806V65.806V65.806Z" stroke="white" stroke-width="4" stroke-linecap="round" stroke-linejoin="round"/>
<path id="Layer 2" fill-rule="evenodd" clip-rule="evenodd" d="M103.497 58.6408C111.954 46.6837 110.869 29.9607 100.243 19.2264C89.6171 8.49199 73.063 7.39614 61.2267 15.9388C59.2466 14.3611 56.3604 14.4923 54.5311 16.3402C52.5628 18.3286 52.5588 21.5632 54.5313 23.5557L95.9574 65.4046C97.9267 67.394 101.128 67.3972 103.1 65.4048C104.926 63.5604 105.061 60.6439 103.497 58.6408V58.6408V58.6408Z" stroke="white" stroke-width="4" stroke-linecap="round" stroke-linejoin="round"/>
<path id="Layer 3" d="M92.3934 25.6842C93.1705 26.4692 94.4368 26.4757 95.2218 25.6986C96.0068 24.9215 96.0133 23.6552 95.2362 22.8702L92.3934 25.6842ZM79.5157 16.2998C78.4111 16.3005 77.5162 17.1965 77.5169 18.3011C77.5176 19.4057 78.4136 20.3005 79.5182 20.2998L79.5157 16.2998ZM72.8952 21.5607C73.9225 21.1548 74.4263 19.993 74.0205 18.9657C73.6146 17.9384 72.4528 17.4346 71.4255 17.8405L72.8952 21.5607ZM67.5791 19.8178C66.6512 20.417 66.3846 21.6549 66.9838 22.5829C67.583 23.5108 68.8209 23.7774 69.7489 23.1782L67.5791 19.8178ZM95.2362 22.8702C90.8993 18.489 85.2057 16.2962 79.5157 16.2998L79.5182 20.2998C84.177 20.2968 88.8344 22.0889 92.3934 25.6842L95.2362 22.8702ZM71.4255 17.8405C70.0964 18.3655 68.8074 19.0247 67.5791 19.8178L69.7489 23.1782C70.7541 22.5292 71.8084 21.9901 72.8952 21.5607L71.4255 17.8405Z" fill="white"/>
<path id="Layer 4" fill-rule="evenodd" clip-rule="evenodd" d="M54.5311 59.6323L60.2451 65.4046L17.3926 108.694C15.8134 110.29 13.2508 110.288 11.6761 108.697V108.697C10.0983 107.103 10.1015 104.515 11.6786 102.922L54.5311 59.6323V59.6323Z" stroke="white" stroke-width="4" stroke-linecap="round" stroke-linejoin="round"/>
</g>
</g>
</svg>
