<svg width="120" height="120" viewBox="0 0 120 120" fill="none" xmlns="http://www.w3.org/2000/svg">
<g id="magic-2">
<g id="magic-2_2">
<path id="Layer 1" fill-rule="evenodd" clip-rule="evenodd" d="M69.3969 63.7696L24.1421 109.024C22.58 110.587 18.781 109.32 15.6568 106.196C12.5326 103.072 11.2663 99.2728 12.8284 97.7107L58.0832 52.4559C56.5211 54.018 57.7875 57.817 60.9116 60.9412C64.0358 64.0653 67.8348 65.3317 69.3969 63.7696V63.7696Z" stroke="white" stroke-width="4" stroke-linecap="round" stroke-linejoin="round"/>
<path id="Layer 2" fill-rule="evenodd" clip-rule="evenodd" d="M92.0244 41.1421L69.397 63.7696C67.8349 65.3317 64.0359 64.0653 60.9117 60.9411C57.7875 57.8169 56.5212 54.0179 58.0833 52.4558L80.7107 29.8284C79.1486 31.3905 80.4149 35.1895 83.5391 38.3137C86.6633 41.4379 90.4623 42.7042 92.0244 41.1421V41.1421Z" stroke="white" stroke-width="4" stroke-linecap="round" stroke-linejoin="round"/>
<path id="Layer 3" fill-rule="evenodd" clip-rule="evenodd" d="M83.5391 38.3137C86.6633 41.4379 90.4623 42.7043 92.0244 41.1422C93.5865 39.5801 92.3202 35.7811 89.196 32.6569C86.0718 29.5327 82.2728 28.2664 80.7107 29.8284C79.1486 31.3905 80.4149 35.1895 83.5391 38.3137V38.3137Z" stroke="white" stroke-width="4" stroke-linecap="round" stroke-linejoin="round"/>
<path id="Layer 4" fill-rule="evenodd" clip-rule="evenodd" d="M110 83.5C101.992 83.5 95.5 77.0081 95.5 69C95.5 77.0081 89.0081 83.5 81 83.5C89.0081 83.5 95.5 89.9919 95.5 98C95.5 89.9919 101.992 83.5 110 83.5V83.5Z" stroke="white" stroke-width="4" stroke-linecap="round" stroke-linejoin="round"/>
<path id="Layer 5" fill-rule="evenodd" clip-rule="evenodd" d="M68 21C62.4772 21 58 16.5228 58 11C58 16.5228 53.5228 21 48 21C53.5228 21 58 25.4772 58 31C58 25.4772 62.4772 21 68 21V21Z" stroke="white" stroke-width="4" stroke-linecap="round" stroke-linejoin="round"/>
<path id="Layer 6" fill-rule="evenodd" clip-rule="evenodd" d="M35 44.5C28.0964 44.5 22.5 38.9036 22.5 32C22.5 38.9036 16.9036 44.5 10 44.5C16.9036 44.5 22.5 50.0964 22.5 57C22.5 50.0964 28.0964 44.5 35 44.5V44.5Z" stroke="white" stroke-width="4" stroke-linecap="round" stroke-linejoin="round"/>
</g>
</g>
</svg>
