<svg width="120" height="120" viewBox="0 0 120 120" fill="none" xmlns="http://www.w3.org/2000/svg">
<g id="magnet">
<g id="magnet_2">
<path id="Layer 1" fill-rule="evenodd" clip-rule="evenodd" d="M51.4817 10.0684L22.894 38.9391C6.8965 55.095 6.90287 81.2678 22.8914 97.4147C38.8835 113.565 64.8038 113.56 80.7938 97.4121L109.381 68.5414L94.9065 53.9231L66.2153 82.8985C58.2224 90.9705 45.264 90.9711 37.2679 82.8959C29.2736 74.8224 29.2692 61.7373 37.2654 53.6619L65.9566 24.6866L51.4817 10.0684V10.0684Z" stroke="white" stroke-width="4" stroke-linecap="round" stroke-linejoin="round"/>
<path id="Layer 2" fill-rule="evenodd" clip-rule="evenodd" d="M44.2892 17.3321L51.4817 10.0684L65.9566 24.6866L58.7641 31.9503L44.2892 17.3321V17.3321Z" stroke="white" stroke-width="4" stroke-linecap="round" stroke-linejoin="round"/>
<path id="Layer 3" fill-rule="evenodd" clip-rule="evenodd" d="M87.714 61.1868L94.9065 53.9231L109.381 68.5414L102.189 75.8051L87.714 61.1868V61.1868Z" stroke="white" stroke-width="4" stroke-linecap="round" stroke-linejoin="round"/>
</g>
</g>
</svg>
