<svg width="120" height="120" viewBox="0 0 120 120" fill="none" xmlns="http://www.w3.org/2000/svg">
<g id="maracas">
<g id="maracas_2">
<path id="Layer 1" d="M56.5453 56.1101L21.9452 90.3743C18.6651 90.6047 15.1068 92.1763 13.0544 94.2088C9.5898 97.6398 9.5898 103.203 13.0544 106.634C16.5191 110.065 22.1364 110.065 25.601 106.634C27.6534 104.601 29.2405 101.077 29.4731 97.8292L64.2157 63.4239" stroke="white" stroke-width="4" stroke-linecap="round" stroke-linejoin="round"/>
<path id="Layer 2" fill-rule="evenodd" clip-rule="evenodd" d="M59.6474 59.7216C71.1334 71.0961 89.7559 71.0961 101.242 59.7216C112.728 48.3471 112.728 29.9054 101.242 18.5309C89.7559 7.15638 71.1334 7.15638 59.6474 18.5309C48.1614 29.9054 48.1614 48.3471 59.6474 59.7216V59.7216Z" stroke="white" stroke-width="4" stroke-linecap="round" stroke-linejoin="round"/>
<path id="Layer 3" d="M58.5395 19.6887L71.3878 20.5462L72.1716 33.2415L85.2974 34.3207L86.1965 47.1303L99.1554 48.0442L100.073 60.8189" stroke="white" stroke-width="4" stroke-linecap="round" stroke-linejoin="round"/>
</g>
</g>
</svg>
