<svg width="120" height="120" viewBox="0 0 120 120" fill="none" xmlns="http://www.w3.org/2000/svg">
<g id="message-2">
<g id="message-2_2">
<path id="Layer 1" d="M39.7345 91.827L37.7685 91.4599C37.9453 90.5133 38.7716 89.827 39.7345 89.827V91.827ZM20.8956 110V112C20.2207 112 19.5913 111.66 19.2219 111.095C18.8524 110.53 18.7928 109.817 19.0633 109.198L20.8956 110ZM23.0141 91.827V89.827C24.0139 89.827 24.8601 90.5653 24.9956 91.5559L23.0141 91.827ZM108 16C108 13.7909 106.209 12 104 12V8C108.418 8 112 11.5817 112 16H108ZM108 85.827V16H112V85.827H108ZM104 89.827C106.209 89.827 108 88.0362 108 85.827H112C112 90.2453 108.418 93.827 104 93.827V89.827ZM39.7345 89.827H104V93.827H39.7345V89.827ZM20.8956 110C20.8956 108 20.8946 108 20.8935 108C20.8933 108 20.8923 108 20.8917 108C20.8907 108 20.8898 108 20.8892 108C20.888 108 20.8876 108 20.8882 108C20.8893 108 20.8941 108 20.9022 108C20.9186 107.999 20.9488 107.999 20.9921 107.997C21.0787 107.994 21.2172 107.987 21.401 107.971C21.7691 107.941 22.316 107.878 22.9902 107.751C24.3428 107.495 26.1793 106.982 28.1057 105.961C31.8835 103.959 36.1897 99.9138 37.7685 91.4599L41.7005 92.1942C39.8854 101.913 34.7722 106.955 29.9791 109.495C27.6199 110.746 25.3831 111.369 23.7337 111.681C22.9069 111.838 22.2206 111.917 21.7309 111.958C21.4857 111.978 21.2891 111.989 21.1477 111.994C21.0771 111.997 21.0202 111.998 20.9779 111.999C20.9567 111.999 20.9392 112 20.9255 112C20.9186 112 20.9127 112 20.9077 112C20.9052 112 20.903 112 20.901 112C20.9 112 20.8986 112 20.8981 112C20.8969 112 20.8956 112 20.8956 110ZM24.9956 91.5559C25.7299 96.9217 25.1692 101.706 24.4313 105.141C24.0616 106.862 23.6451 108.256 23.3171 109.228C23.153 109.714 23.0107 110.096 22.9071 110.362C22.8552 110.495 22.813 110.599 22.7825 110.673C22.7672 110.71 22.7548 110.739 22.7457 110.76C22.7411 110.771 22.7373 110.78 22.7344 110.787C22.7329 110.79 22.7316 110.793 22.7305 110.796C22.73 110.797 22.7295 110.798 22.7291 110.799C22.7289 110.8 22.7286 110.8 22.7285 110.8C22.7282 110.801 22.728 110.802 20.8956 110C19.0633 109.198 19.0631 109.199 19.0629 109.199C19.0628 109.2 19.0626 109.2 19.0625 109.2C19.0623 109.201 19.0621 109.201 19.062 109.201C19.0618 109.202 19.0618 109.202 19.062 109.201C19.0624 109.2 19.0636 109.198 19.0656 109.193C19.0697 109.183 19.0769 109.166 19.0869 109.142C19.1071 109.093 19.1389 109.015 19.1802 108.909C19.263 108.697 19.3839 108.373 19.527 107.949C19.8134 107.1 20.1869 105.854 20.5205 104.301C21.1892 101.189 21.6878 96.8867 21.0325 92.0982L24.9956 91.5559ZM16 89.827H23.0141V93.827H16V89.827ZM12 85.827C12 88.0362 13.7909 89.827 16 89.827V93.827C11.5817 93.827 8 90.2453 8 85.827H12ZM12 16V85.827H8V16H12ZM16 12C13.7909 12 12 13.7909 12 16H8C8 11.5817 11.5817 8 16 8V12ZM104 12H16V8H104V12Z" fill="white"/>
<path id="Layer 2" fill-rule="evenodd" clip-rule="evenodd" d="M60 55C62.7614 55 65 52.7614 65 50C65 47.2386 62.7614 45 60 45C57.2386 45 55 47.2386 55 50C55 52.7614 57.2386 55 60 55Z" stroke="white" stroke-width="4" stroke-linecap="round" stroke-linejoin="round"/>
<path id="Layer 3" fill-rule="evenodd" clip-rule="evenodd" d="M40 55C42.7614 55 45 52.7614 45 50C45 47.2386 42.7614 45 40 45C37.2386 45 35 47.2386 35 50C35 52.7614 37.2386 55 40 55Z" stroke="white" stroke-width="4" stroke-linecap="round" stroke-linejoin="round"/>
<path id="Layer 4" fill-rule="evenodd" clip-rule="evenodd" d="M80 55C82.7614 55 85 52.7614 85 50C85 47.2386 82.7614 45 80 45C77.2386 45 75 47.2386 75 50C75 52.7614 77.2386 55 80 55Z" stroke="white" stroke-width="4" stroke-linecap="round" stroke-linejoin="round"/>
</g>
</g>
</svg>
