<svg width="120" height="120" viewBox="0 0 120 120" fill="none" xmlns="http://www.w3.org/2000/svg">
<g id="message-smile">
<g id="message-smile_2">
<path id="Layer 1" fill-rule="evenodd" clip-rule="evenodd" d="M23.0141 91.827H15.9931C12.6877 91.827 10 89.1406 10 85.8267V16.0004C10 12.6876 12.6832 10 15.9931 10H104.007C107.312 10 110 12.6875 110 16.0027V30.8015V85.8366C110 89.1459 107.317 91.827 104.007 91.827H39.7345C36.3406 110 20.8956 110 20.8956 110C20.8956 110 24.4036 101.981 23.0141 91.827V91.827Z" stroke="white" stroke-width="4" stroke-linecap="round" stroke-linejoin="round"/>
<path id="Layer 2" fill-rule="evenodd" clip-rule="evenodd" d="M60 78C75.464 78 88 65.464 88 50C88 34.536 75.464 22 60 22C44.536 22 32 34.536 32 50C32 65.464 44.536 78 60 78Z" stroke="white" stroke-width="4" stroke-linecap="round" stroke-linejoin="round"/>
<path id="Layer 3" d="M75 55C75 63.2843 66.2843 67 60 67C53.7157 67 45 63.2843 45 55" stroke="white" stroke-width="4" stroke-linecap="round" stroke-linejoin="round"/>
<path id="Layer 4" d="M55 43C55 40.2386 52.7614 38 50 38C47.2386 38 45 40.2386 45 43" stroke="white" stroke-width="4" stroke-linecap="round" stroke-linejoin="round"/>
<path id="Layer 5" d="M75 43C75 40.2386 72.7614 38 70 38C67.2386 38 65 40.2386 65 43" stroke="white" stroke-width="4" stroke-linecap="round" stroke-linejoin="round"/>
</g>
</g>
</svg>
