<svg width="120" height="120" viewBox="0 0 120 120" fill="none" xmlns="http://www.w3.org/2000/svg">
<g id="messages">
<g id="messages_2">
<path id="Layer 1" d="M80 40V15.9946C80 12.6839 77.3201 10 74.0016 10H15.9984C12.6856 10 10 12.6859 10 15.9946V61.2843C10 64.595 12.6799 67.2789 15.9984 67.2789H19.1099V67.2789C20.0825 74.3869 17.627 80 17.627 80C17.627 80 28.4384 80 30.8142 67.2789H40" stroke="white" stroke-width="4" stroke-linecap="round" stroke-linejoin="round"/>
<path id="Layer 2" fill-rule="evenodd" clip-rule="evenodd" d="M104.002 97.2789C107.32 97.2789 110 94.595 110 91.2843V45.9946C110 42.6859 107.314 40 104.002 40H45.9984C42.6799 40 40 42.6839 40 45.9946V91.2843C40 94.5931 42.6856 97.2789 45.9984 97.2789H89.1858C91.5616 110 102.373 110 102.373 110C102.373 110 99.9175 104.387 100.89 97.2789H104.002Z" stroke="white" stroke-width="4" stroke-linecap="round" stroke-linejoin="round"/>
</g>
</g>
</svg>
