<svg width="120" height="120" viewBox="0 0 120 120" fill="none" xmlns="http://www.w3.org/2000/svg">
<g id="microphone-1">
<g id="microphone-1_2">
<path id="Path" d="M78.0595 58.5434L23.1095 109.158C23.1095 109.158 18.148 110.753 13.4174 105.975C8.68673 101.198 10.2657 96.1872 10.2657 96.1872L60.3843 40.6931" stroke="white" stroke-width="4" stroke-linecap="round" stroke-linejoin="round"/>
<path id="Layer 2" fill-rule="evenodd" clip-rule="evenodd" d="M55.7108 61.2636L51.9643 65.0472C51.39 65.6272 51.39 66.5675 51.9643 67.1475C52.5386 67.7275 53.4697 67.7275 54.044 67.1475L57.7905 63.3639C58.3648 62.7839 58.3648 61.8436 57.7905 61.2636C57.2162 60.6836 56.2851 60.6836 55.7108 61.2636V61.2636Z" stroke="white" stroke-width="4" stroke-linecap="round" stroke-linejoin="round"/>
<path id="Layer 3" fill-rule="evenodd" clip-rule="evenodd" d="M84.5097 59.505C98.0461 59.505 109.02 48.4229 109.02 34.7525C109.02 21.0821 98.0461 10.0001 84.5097 10.0001C70.9733 10.0001 59.9999 21.0821 59.9999 34.7525C59.9999 48.4229 70.9733 59.505 84.5097 59.505Z" stroke="white" stroke-width="4" stroke-linecap="round" stroke-linejoin="round"/>
<path id="Path_2" d="M70.8026 14.418C71.3665 14.659 71.895 15.0119 72.3553 15.4768L104.252 47.6897C104.483 47.9225 104.686 48.1727 104.86 48.4362" stroke="white" stroke-width="4" stroke-linecap="round" stroke-linejoin="round"/>
<path id="Path_3" d="M64.3364 20.8115C64.5749 21.4184 64.937 21.9871 65.4229 22.4779L97.32 54.6908C97.5264 54.8992 97.7464 55.085 97.9771 55.2484" stroke="white" stroke-width="4" stroke-linecap="round" stroke-linejoin="round"/>
</g>
</g>
</svg>
