<svg width="120" height="120" viewBox="0 0 120 120" fill="none" xmlns="http://www.w3.org/2000/svg">
<g id="music-2">
<g id="music-1">
<path id="Layer 1" fill-rule="evenodd" clip-rule="evenodd" d="M102 10.4075V36.1201L42 46.2744V20.605L102 10.4075Z" stroke="white" stroke-width="4" stroke-linecap="round" stroke-linejoin="round"/>
<path id="Layer 2" fill-rule="evenodd" clip-rule="evenodd" d="M89.5 100C96.4036 100 102 95.5228 102 90C102 84.4772 96.4036 80 89.5 80C82.5964 80 77 84.4772 77 90C77 95.5228 82.5964 100 89.5 100Z" stroke="white" stroke-width="4" stroke-linecap="round" stroke-linejoin="round"/>
<path id="Layer 3" fill-rule="evenodd" clip-rule="evenodd" d="M29.5 110C36.4036 110 42 105.523 42 100C42 94.4772 36.4036 90 29.5 90C22.5964 90 17 94.4772 17 100C17 105.523 22.5964 110 29.5 110Z" stroke="white" stroke-width="4" stroke-linecap="round" stroke-linejoin="round"/>
<path id="Layer 4" d="M42 46.4977V100" stroke="white" stroke-width="4" stroke-linecap="round" stroke-linejoin="round"/>
<path id="Layer 5" d="M102 37V90.0085" stroke="white" stroke-width="4" stroke-linecap="round" stroke-linejoin="round"/>
</g>
</g>
</svg>
