<svg width="120" height="120" viewBox="0 0 120 120" fill="none" xmlns="http://www.w3.org/2000/svg">
<g id="nose">
<g id="nose_2">
<path id="Layer 1" fill-rule="evenodd" clip-rule="evenodd" d="M84.9497 65.1006C81.2705 42.9362 71.4436 10 59.899 10C48.3544 10 38.5275 42.9362 34.8483 65.1006C34.3403 65.0342 33.8235 65 33.2997 65C25.9545 65 20 71.7157 20 80C20 88.2843 25.9545 95 33.2997 95C34.4517 95 35.5696 94.8348 36.6356 94.5242C41.1763 103.755 49.8924 110 59.899 110C69.9056 110 78.6216 103.755 83.1623 94.5242C84.2284 94.8348 85.3462 95 86.4983 95C93.8435 95 99.798 88.2843 99.798 80C99.798 71.7157 93.8435 65 86.4983 65C85.9745 65 85.4577 65.0342 84.9497 65.1006V65.1006Z" stroke="white" stroke-width="4" stroke-linecap="round" stroke-linejoin="round"/>
<path id="Layer 2" d="M33.2997 79.9355C33.2997 96.5398 45.2086 110 59.899 110V110C74.5894 110 86.4983 96.5398 86.4983 79.9355" stroke="white" stroke-width="4" stroke-linecap="round" stroke-linejoin="round"/>
</g>
</g>
</svg>
