<svg width="120" height="120" viewBox="0 0 120 120" fill="none" xmlns="http://www.w3.org/2000/svg">
<g id="number-3">
<g id="3-numbers-letters-alphabet">
<path id="Layer 1" fill-rule="evenodd" clip-rule="evenodd" d="M60 110C87.6142 110 110 87.6142 110 60C110 32.3858 87.6142 10 60 10C32.3858 10 10 32.3858 10 60C10 87.6142 32.3858 110 60 110Z" stroke="white" stroke-width="4" stroke-linecap="round" stroke-linejoin="round"/>
<path id="Layer 2" d="M42 69.8189L42.08 70.5153C43.2 79.9861 49.92 85 59.52 85C69.68 85 77.44 79.8468 77.44 71.2813C77.44 64.039 72.48 60.3112 64.64 59.2666C63.077 59.2666 57.7383 59.2666 57.7383 59.2666C57.7383 59.2666 64.4216 59.1978 64.64 59.1462C70.9915 57.6471 76.56 52.7718 76.56 47.0474C76.56 40.2228 71.28 35 61.36 35C52.48 35 45.52 39.9443 44.56 48.5794L44.48 49.2758" stroke="white" stroke-width="4" stroke-linecap="round" stroke-linejoin="round"/>
</g>
</g>
</svg>
