<svg width="120" height="120" viewBox="0 0 120 120" fill="none" xmlns="http://www.w3.org/2000/svg">
<g id="oil">
<g id="oil_2">
<rect id="Layer 1" x="20.1139" y="10" width="80" height="100" stroke="white" stroke-width="4" stroke-linecap="round" stroke-linejoin="round"/>
<path id="Layer 3" fill-rule="evenodd" clip-rule="evenodd" d="M59.8436 45C60.6266 45 61.2713 45.584 61.3548 46.3346C61.4321 46.7826 61.9973 49.8563 63.4218 52.7824C64.759 55.5294 67.0768 59.0162 67.6661 59.89C68.8639 61.4677 69.5734 63.4271 69.5734 65.55C69.5734 70.7691 65.2853 75 59.9956 75C59.9449 75 59.8942 74.9996 59.8436 74.9988C59.793 74.9996 59.7424 75 59.6916 75C54.402 75 50.1139 70.7691 50.1139 65.55C50.1139 63.4271 50.8234 61.4677 52.0211 59.89C52.6105 59.0162 54.9283 55.5294 56.2655 52.7824C57.6899 49.8563 58.2552 46.7826 58.3325 46.3346C58.4159 45.584 59.0607 45 59.8436 45V45Z" stroke="white" stroke-width="4" stroke-linecap="round" stroke-linejoin="round"/>
<path id="Layer 4" d="M15.1139 10H105.114" stroke="white" stroke-width="4" stroke-linecap="round" stroke-linejoin="round"/>
<path id="Layer 5" d="M15.1139 110H105.114" stroke="white" stroke-width="4" stroke-linecap="round" stroke-linejoin="round"/>
<path id="Layer 6" d="M15.1139 30H105.114" stroke="white" stroke-width="4" stroke-linecap="round" stroke-linejoin="round"/>
<path id="Layer 7" d="M15.1139 90H105.114" stroke="white" stroke-width="4" stroke-linecap="round" stroke-linejoin="round"/>
</g>
</g>
</svg>
