<svg width="120" height="120" viewBox="0 0 120 120" fill="none" xmlns="http://www.w3.org/2000/svg">
<g id="palette">
<g id="palette_2">
<path id="Layer 1" fill-rule="evenodd" clip-rule="evenodd" d="M88.7336 67.708C88.4719 68.9911 88.6358 70.27 88.7336 70.6737C89.8856 75.4295 98.3788 78.0769 97.5664 90.5938C97.5664 104.951 76.2189 110 61.5464 110C33.0781 110 10 87.6142 10 60C10 32.3858 33.0781 10 61.5464 10C82.0986 10 99.8415 21.6672 108.12 38.5459C110.66 42.9302 109.487 51.8547 105.025 55.8042C96.386 63.4502 93.1739 61.6827 90.7053 64.3052C90.2057 64.8359 88.9651 66.5728 88.7336 67.708Z" stroke="white" stroke-width="4" stroke-linecap="round" stroke-linejoin="round"/>
<path id="Path" fill-rule="evenodd" clip-rule="evenodd" d="M61.5464 38C66.6707 38 70.8248 33.9706 70.8248 29C70.8248 24.0294 66.6707 20 61.5464 20C56.4221 20 52.2681 24.0294 52.2681 29C52.2681 33.9706 56.4221 38 61.5464 38V38Z" stroke="white" stroke-width="4" stroke-linecap="round" stroke-linejoin="round"/>
<path id="Path_2" fill-rule="evenodd" clip-rule="evenodd" d="M79.5384 46.3357C82.7633 50.318 88.5089 51.0105 92.3718 47.8825C96.2347 44.7544 96.7519 38.9903 93.5271 35.0079C90.3022 31.0256 84.5565 30.3331 80.6937 33.4612C76.8308 36.5893 76.3136 42.3534 79.5384 46.3357V46.3357Z" stroke="white" stroke-width="4" stroke-linecap="round" stroke-linejoin="round"/>
<path id="Path_3" fill-rule="evenodd" clip-rule="evenodd" d="M71.4674 79.8409C66.8617 82.0872 64.8945 87.5299 67.0734 91.9974C69.2524 96.4649 74.7524 98.2655 79.3581 96.0192C83.9638 93.7728 85.931 88.3302 83.7521 83.8627C81.5731 79.3952 76.0731 77.5945 71.4674 79.8409V79.8409Z" stroke="white" stroke-width="4" stroke-linecap="round" stroke-linejoin="round"/>
<path id="Path_4" fill-rule="evenodd" clip-rule="evenodd" d="M51.6253 79.8409C47.0196 77.5945 41.5196 79.3952 39.3406 83.8627C37.1617 88.3302 39.1289 93.7728 43.7346 96.0192C48.3403 98.2655 53.8403 96.4649 56.0193 91.9974C58.1982 87.5299 56.231 82.0872 51.6253 79.8409V79.8409Z" stroke="white" stroke-width="4" stroke-linecap="round" stroke-linejoin="round"/>
<path id="Path_5" fill-rule="evenodd" clip-rule="evenodd" d="M38.1582 65.8736C37.0055 60.8807 32.1449 57.7395 27.3017 58.8576C22.4586 59.9758 19.4669 64.9298 20.6196 69.9227C21.7723 74.9157 26.6329 78.0569 31.4761 76.9387C36.3192 75.8206 39.3109 70.8666 38.1582 65.8736V65.8736Z" stroke="white" stroke-width="4" stroke-linecap="round" stroke-linejoin="round"/>
<path id="Path_6" fill-rule="evenodd" clip-rule="evenodd" d="M42.5543 45.3357C45.7791 41.3534 45.2619 35.5893 41.399 32.4612C37.5362 29.3331 31.7905 30.0256 28.5657 34.0079C25.3408 37.9903 25.8581 43.7544 29.7209 46.8825C33.5838 50.0105 39.3295 49.318 42.5543 45.3357V45.3357Z" stroke="white" stroke-width="4" stroke-linecap="round" stroke-linejoin="round"/>
</g>
</g>
</svg>
