<svg width="120" height="120" viewBox="0 0 120 120" fill="none" xmlns="http://www.w3.org/2000/svg">
<g id="pen-2">
<g id="pen-2_2">
<path id="Layer 1" fill-rule="evenodd" clip-rule="evenodd" d="M39.8866 66.5853L82.7837 23.6392L96.2576 37.1285L53.3605 80.0746L34.9758 84.991L39.8866 66.5853V66.5853Z" stroke="white" stroke-width="4" stroke-linecap="round" stroke-linejoin="round"/>
<path id="Layer 2" fill-rule="evenodd" clip-rule="evenodd" d="M53.9194 79.5151L34.9758 84.991L35.0129 84.9539L40.4826 65.9886L53.9194 79.5151V79.5151Z" stroke="white" stroke-width="4" stroke-linecap="round" stroke-linejoin="round"/>
<path id="Layer 3" d="M83.1715 23.2509L88.6673 17.7488V17.7488V17.7488L102.141 31.2382L96.6454 36.7402" stroke="white" stroke-width="4" stroke-linecap="round" stroke-linejoin="round"/>
<path id="Layer 4" d="M88.6674 17.7489L93.7711 12.6393V12.6393V12.6393C96.5898 9.81731 101.161 9.81795 103.978 12.639L107.245 15.9096C110.064 18.7315 110.058 23.3124 107.245 26.1286L102.141 31.2382" stroke="white" stroke-width="4" stroke-linecap="round" stroke-linejoin="round"/>
<path id="Layer 5" d="M110 48.6364V110H10V10V10H71.3636" stroke="white" stroke-width="4" stroke-linecap="round" stroke-linejoin="round"/>
</g>
</g>
</svg>
