<svg width="120" height="120" viewBox="0 0 120 120" fill="none" xmlns="http://www.w3.org/2000/svg">
<g id="pencil">
<g id="pencil_2">
<path id="Layer 1" fill-rule="evenodd" clip-rule="evenodd" d="M27.3264 56.4941L41.9639 63.3273L56.3025 77.6658L63.4033 92.571L12.1975 109.64C10.5906 110.175 9.72053 109.312 10.2578 107.7L27.3264 56.4941V56.4941Z" stroke="white" stroke-width="4" stroke-linecap="round" stroke-linejoin="round"/>
<path id="Layer 2" fill-rule="evenodd" clip-rule="evenodd" d="M31.4324 102.801L12.7671 109.023C11.1602 109.558 10.2901 108.695 10.8274 107.083L17.0492 88.4175C20.2114 89.6619 23.1752 91.5622 25.7314 94.1185C28.2877 96.6748 30.188 99.6385 31.4324 102.801V102.801V102.801Z" stroke="white" stroke-width="4" stroke-linecap="round" stroke-linejoin="round"/>
<path id="Layer 3" fill-rule="evenodd" clip-rule="evenodd" d="M73.2939 10.5269L89.4365 16.4024L103.481 30.4465L109.371 46.6037L63.9967 91.9778L56.0788 77.8482L42.0347 63.8042L27.9198 55.9009L73.2939 10.5269V10.5269Z" stroke="white" stroke-width="4" stroke-linecap="round" stroke-linejoin="round"/>
<path id="Layer 4" fill-rule="evenodd" clip-rule="evenodd" d="M89.2505 16.2163L103.903 30.8691L56.2818 78.4905L41.629 63.8378L89.2505 16.2163V16.2163Z" stroke="white" stroke-width="4" stroke-linecap="round" stroke-linejoin="round"/>
</g>
</g>
</svg>
