<svg width="120" height="120" viewBox="0 0 120 120" fill="none" xmlns="http://www.w3.org/2000/svg">
<g id="pie-chart-1">
<g id="pie-chart-1_2">
<path id="Layer 1" d="M60.1139 108C59.0093 108 58.1139 108.895 58.1139 110C58.1139 111.105 59.0093 112 60.1139 112V108ZM60.1139 78C59.0093 78 58.1139 78.8954 58.1139 80C58.1139 81.1046 59.0093 82 60.1139 82V78ZM60.1139 112C88.8327 112 112.114 88.7188 112.114 60H108.114C108.114 86.5097 86.6236 108 60.1139 108V112ZM112.114 60C112.114 31.2812 88.8327 8 60.1139 8V12C86.6236 12 108.114 33.4903 108.114 60H112.114ZM60.1139 8C31.3951 8 8.11389 31.2812 8.11389 60H12.1139C12.1139 33.4903 33.6042 12 60.1139 12V8ZM8.11389 60C8.11389 88.7188 31.3951 112 60.1139 112V108C33.6042 108 12.1139 86.5097 12.1139 60H8.11389ZM60.1139 82C72.2642 82 82.1139 72.1503 82.1139 60H78.1139C78.1139 69.9411 70.055 78 60.1139 78V82ZM82.1139 60C82.1139 47.8497 72.2642 38 60.1139 38V42C70.055 42 78.1139 50.0589 78.1139 60H82.1139ZM60.1139 38C47.9636 38 38.1139 47.8497 38.1139 60H42.1139C42.1139 50.0589 50.1728 42 60.1139 42V38ZM38.1139 60C38.1139 72.1503 47.9636 82 60.1139 82V78C50.1728 78 42.1139 69.9411 42.1139 60H38.1139Z" fill="white"/>
<path id="Layer 2" fill-rule="evenodd" clip-rule="evenodd" d="M95.4923 95.2516C104.48 86.2117 110.034 73.7544 110.034 59.9999C110.034 32.4138 87.6934 10.0455 60.1178 10L60.1139 40.0001C71.1227 40.0434 80.0336 48.981 80.0336 59.9999C80.0336 65.4701 77.8375 70.4274 74.2789 74.0381L95.4923 95.2516V95.2516Z" stroke="white" stroke-width="4" stroke-linecap="round" stroke-linejoin="round"/>
<path id="Layer 3" fill-rule="evenodd" clip-rule="evenodd" d="M24.6551 95.2516C15.6677 86.2117 10.1139 73.7544 10.1139 59.9999C10.1139 32.4138 32.4541 10.0455 60.0297 10L60.0336 40.0001C49.0248 40.0434 40.1139 48.981 40.1139 59.9999C40.1139 65.4701 42.31 70.4274 45.8686 74.0381L24.6551 95.2516V95.2516Z" stroke="white" stroke-width="4" stroke-linecap="round" stroke-linejoin="round"/>
</g>
</g>
</svg>
