<svg width="120" height="120" viewBox="0 0 120 120" fill="none" xmlns="http://www.w3.org/2000/svg">
<g id="pocket-1">
<g id="pocket-1_2">
<path id="Layer 1" d="M105 65V40.3258H25C16.7157 40.3258 10 33.9119 10 26V95.0067C10 103.286 16.716 110 25.0006 110H105V85" stroke="white" stroke-width="4" stroke-linecap="round" stroke-linejoin="round"/>
<path id="Layer 2" d="M100 40V15.0044C100 12.2304 97.7578 10 94.9918 10H25C16.7157 10 10 16.7157 10 25" stroke="white" stroke-width="4" stroke-linecap="round" stroke-linejoin="round"/>
<path id="Layer 3" d="M99.5 24.5H25.5" stroke="white" stroke-width="4" stroke-linecap="round" stroke-linejoin="round"/>
<path id="Layer 4" d="M25.5 109.5V41.5" stroke="white" stroke-width="4" stroke-linecap="round" stroke-linejoin="round"/>
<path id="Layer 5" d="M80 75C80 69.4772 84.4772 65 90 65H107C108.657 65 110 66.3431 110 68V82C110 83.6569 108.657 85 107 85H90C84.4772 85 80 80.5228 80 75V75Z" stroke="white" stroke-width="4" stroke-linecap="round" stroke-linejoin="round"/>
</g>
</g>
</svg>
