<svg width="120" height="120" viewBox="0 0 120 120" fill="none" xmlns="http://www.w3.org/2000/svg">
<g id="pocket-2">
<g id="pocket-2_2">
<path id="Layer 1" d="M103.423 51.4136C107.392 48.7149 110 44.1619 110 39C110 30.7139 103.285 24 95.0019 24H24.9981C16.7166 24 10 30.7157 10 39C10 44.5456 13.0077 49.3869 17.4802 51.9828" stroke="white" stroke-width="4" stroke-linecap="round" stroke-linejoin="round"/>
<path id="Layer 2" fill-rule="evenodd" clip-rule="evenodd" d="M19.6169 39.0239C20.0947 36.126 22.6 34 25.537 34H95.3842C98.3077 34 100.806 36.107 101.298 38.9886L108.131 78.9432C111.264 97.2667 97.1497 114 78.5602 114H42.6063C24.0892 114 9.99351 97.3899 13.0059 79.1195L19.6169 39.0239Z" stroke="white" stroke-width="4" stroke-linecap="round" stroke-linejoin="round"/>
<path id="Layer 3" fill-rule="evenodd" clip-rule="evenodd" d="M52.5 22C56.6421 22 60 18.6421 60 14.5C60 10.3579 56.6421 7 52.5 7C48.3579 7 45 10.3579 45 14.5C45 18.6421 48.3579 22 52.5 22Z" stroke="white" stroke-width="4" stroke-linecap="round" stroke-linejoin="round"/>
<path id="Layer 4" fill-rule="evenodd" clip-rule="evenodd" d="M67.5 22C71.6421 22 75 18.6421 75 14.5C75 10.3579 71.6421 7 67.5 7C63.3579 7 60 10.3579 60 14.5C60 18.6421 63.3579 22 67.5 22Z" stroke="white" stroke-width="4" stroke-linecap="round" stroke-linejoin="round"/>
</g>
</g>
</svg>
