<svg width="120" height="120" viewBox="0 0 120 120" fill="none" xmlns="http://www.w3.org/2000/svg">
<g id="recycling">
<g id="recycling_2">
<path id="Layer 1" fill-rule="evenodd" clip-rule="evenodd" d="M47.0118 48.5195L59.441 27.0266V27.0266C57.1423 23.0605 55.4188 20.0881 55.4188 20.0881C53.6625 17.0465 49.7496 14.1229 45.3932 14.084C42.4316 14.3949 38.6408 15.4236 36.6048 18.7798L26.3207 36.5594L47.0118 48.5195V48.5195Z" stroke="white" stroke-width="4" stroke-linecap="round" stroke-linejoin="round"/>
<path id="Layer 2" fill-rule="evenodd" clip-rule="evenodd" d="M82.2675 18.7799C79.9856 15.0183 75.4993 14.1805 72.4468 14C60.4411 14.0408 49.8001 14.1912 45.2622 14.0838C49.671 14.0644 53.6449 17.0162 55.4188 20.0882C55.4188 20.0882 65.0615 36.719 69.1521 43.7925C69.1665 43.8174 67.5758 44.7998 67.5758 44.7998L85.107 47.623L91.4225 31.0604L89.6707 32.0697C87.5517 28.3857 82.2675 18.7799 82.2675 18.7799Z" stroke="white" stroke-width="4" stroke-linecap="round" stroke-linejoin="round"/>
<path id="Layer 3" fill-rule="evenodd" clip-rule="evenodd" d="M77.316 58.4891L89.6929 80.0123V80.0123C94.273 80.0022 97.7059 79.9941 97.7059 79.9941C101.215 79.9921 105.7 78.0612 107.912 74.3035C109.124 71.5802 110.13 67.779 108.245 64.3356L98.0071 46.5291L77.316 58.4891V58.4891Z" stroke="white" stroke-width="4" stroke-linecap="round" stroke-linejoin="round"/>
<path id="Layer 4" fill-rule="evenodd" clip-rule="evenodd" d="M85.4132 103.927C89.8079 103.829 92.7758 100.359 94.4582 97.8021C100.426 87.3722 105.616 78.0708 107.978 74.1899C105.79 78.0222 101.25 79.9919 97.7059 79.9939C97.7059 79.9939 78.478 80.4981 70.3141 80.5081C70.2853 80.5081 70.2516 78.1788 70.2516 78.1788L59.0439 91.9675L70.2129 105.725L70.2909 103.945C74.5371 103.95 85.4132 103.927 85.4132 103.927V103.927Z" stroke="white" stroke-width="4" stroke-linecap="round" stroke-linejoin="round"/>
<path id="Layer 5" fill-rule="evenodd" clip-rule="evenodd" d="M54.8658 80.0554L30.0597 80.0251V80.0251C27.7784 84.0013 26.0689 86.9819 26.0689 86.9819C24.3161 90.0254 23.7436 94.8799 25.8881 98.6765C27.6379 101.089 30.4231 103.861 34.3443 103.949L54.8658 103.976V80.0554V80.0554Z" stroke="white" stroke-width="4" stroke-linecap="round" stroke-linejoin="round"/>
<path id="Layer 6" fill-rule="evenodd" clip-rule="evenodd" d="M11.5129 64.3569C9.4 68.2162 10.9184 72.5249 12.2886 75.2618C18.3268 85.6509 23.7773 94.8019 25.9534 98.7902C23.7323 94.9772 24.2985 90.0558 26.0689 86.9818C26.0689 86.9818 35.2467 70.0582 39.3201 62.9748C39.3344 62.9498 41.3661 64.0853 41.3661 64.0853L35.0427 47.4734L17.5581 50.2788L19.0586 51.2363C16.9315 54.9156 11.5129 64.3569 11.5129 64.3569V64.3569Z" stroke="white" stroke-width="4" stroke-linecap="round" stroke-linejoin="round"/>
</g>
</g>
</svg>
