<svg width="120" height="120" viewBox="0 0 120 120" fill="none" xmlns="http://www.w3.org/2000/svg">
<g id="ring-bell">
<g id="ring-bell_2">
<path id="Path" fill-rule="evenodd" clip-rule="evenodd" d="M62.0717 103.015C61.4483 94.9548 64.1735 86.7441 70.2695 80.6481L77.8763 73.0413C86.2785 64.6391 86.1422 50.8801 77.572 42.3099C69.0017 33.7396 55.2428 33.6034 46.8406 42.0056L39.2338 49.6124C33.1378 55.7084 24.927 58.4335 16.8669 57.8102C22.8403 60.6763 32.3565 68.0911 42.0737 77.8082C51.7908 87.5253 59.2055 97.0416 62.0717 103.015V103.015V103.015Z" stroke="white" stroke-width="3.5" stroke-linecap="round" stroke-linejoin="round"/>
<path id="Path_2" fill-rule="evenodd" clip-rule="evenodd" d="M63.0361 108.537C63.0386 108.546 63.0412 108.555 63.0437 108.564L63.028 108.548C63.0307 108.544 63.0334 108.541 63.0361 108.537V108.537V108.537Z" stroke="white" stroke-width="3.5" stroke-linecap="round" stroke-linejoin="round"/>
<path id="Path_3" fill-rule="evenodd" clip-rule="evenodd" d="M11.3332 56.8536L11.3176 56.8379C11.3267 56.8404 11.3358 56.8429 11.3449 56.8454C11.341 56.8481 11.3371 56.8508 11.3332 56.8536V56.8536V56.8536Z" stroke="white" stroke-width="3.5" stroke-linecap="round" stroke-linejoin="round"/>
<path id="Layer 2" fill-rule="evenodd" clip-rule="evenodd" d="M33.4092 89.412C32.9174 88.9309 32.4246 88.4436 31.9313 87.9503C17.6475 73.6665 8.33869 59.8168 11.1394 57.016C13.9402 54.2153 27.7899 63.5241 42.0737 77.8079C56.3575 92.0917 65.6663 105.941 62.8655 108.742C61.0883 110.519 54.8617 107.42 46.8983 101.268C47.7802 100.829 48.6056 100.244 49.3387 99.5105C53.0454 95.8037 52.9853 89.7338 49.2044 85.9529C45.4235 82.172 39.3536 82.1119 35.6468 85.8186C34.602 86.8634 33.8565 88.0959 33.4092 89.412V89.412Z" stroke="white" stroke-width="4" stroke-linecap="round" stroke-linejoin="round"/>
<path id="Layer 3" fill-rule="evenodd" clip-rule="evenodd" d="M35.781 99.3765C39.5619 103.157 45.6319 103.217 49.3387 99.5107C53.0454 95.804 52.9853 89.734 49.2044 85.9531C45.4235 82.1722 39.3536 82.1121 35.6468 85.8189C31.94 89.5256 32.0001 95.5956 35.781 99.3765V99.3765Z" stroke="white" stroke-width="4" stroke-linecap="round" stroke-linejoin="round"/>
<path id="Layer 4" fill-rule="evenodd" clip-rule="evenodd" d="M73.9636 38.7012L100.583 12.0816C102.686 9.97877 106.098 9.98123 108.194 12.0775C110.295 14.1781 110.296 17.582 108.19 19.6883L81.5703 46.308L73.9636 38.7012Z" stroke="white" stroke-width="4" stroke-linecap="round" stroke-linejoin="round"/>
</g>
</g>
</svg>
