<svg width="120" height="120" viewBox="0 0 120 120" fill="none" xmlns="http://www.w3.org/2000/svg">
<g id="rocket">
<g id="rocket_2">
<path id="Layer 1" fill-rule="evenodd" clip-rule="evenodd" d="M43.8778 90.6073L35.5422 95.3445L24.5122 84.427L29.2982 76.1765L43.8778 90.6073V90.6073Z" stroke="white" stroke-width="4" stroke-linecap="round" stroke-linejoin="round"/>
<path id="Layer 2" fill-rule="evenodd" clip-rule="evenodd" d="M32.5642 94.0874C31.4454 98.1203 28.7548 102.69 26.9863 104.44C24.0743 107.323 10.2198 109.491 10.2198 109.491C10.2198 109.491 12.557 95.6331 15.3227 92.8957C17.0111 91.2244 21.6866 88.5231 25.8055 87.3977L32.5642 94.0874Z" stroke="white" stroke-width="4" stroke-linecap="round" stroke-linejoin="round"/>
<path id="Layer 3" fill-rule="evenodd" clip-rule="evenodd" d="M67.1441 80.4373L69.7562 90.105C70.1977 91.7387 69.5694 94.0392 68.3709 95.2254L62.2582 101.276C61.0517 102.47 59.2572 102.336 58.2403 100.963L51.7793 92.2426C54.0466 90.6953 59.4952 86.8287 67.1441 80.4373V80.4373Z" stroke="white" stroke-width="4" stroke-linecap="round" stroke-linejoin="round"/>
<path id="Layer 4" fill-rule="evenodd" clip-rule="evenodd" d="M39.4937 53.1265L29.8057 50.562C28.1551 50.1251 25.8309 50.747 24.6324 51.9332L18.5197 57.9835C17.3132 59.1777 17.4484 60.9539 18.8353 61.9605L27.5943 68.3181C29.1174 66.0976 32.9293 60.7855 39.4937 53.1265V53.1265Z" stroke="white" stroke-width="4" stroke-linecap="round" stroke-linejoin="round"/>
<path id="Layer 5" fill-rule="evenodd" clip-rule="evenodd" d="M58.0445 33.2929C80.2192 11.3445 107.768 9.53774 109.486 11.2381C111.204 12.9384 109.314 40.2697 87.6164 61.7457C65.919 83.2216 50.6086 93.0247 50.6086 93.0247C49.2039 93.9785 47.081 93.7776 45.8714 92.5804L33.4115 80.2477L27.2772 74.1759C26.0698 72.9809 25.8534 70.8712 26.8162 69.4816C26.8162 69.4816 35.8698 55.2413 58.0445 33.2929V33.2929Z" stroke="white" stroke-width="4" stroke-linecap="round" stroke-linejoin="round"/>
<path id="Layer 6" fill-rule="evenodd" clip-rule="evenodd" d="M73.9965 46.3998C77.1932 49.5718 82.376 49.5718 85.5726 46.3998C88.7693 43.2278 88.7693 38.085 85.5726 34.9129C82.376 31.7409 77.1932 31.7409 73.9965 34.9129C70.7998 38.085 70.7998 43.2278 73.9965 46.3998V46.3998Z" stroke="white" stroke-width="4" stroke-linecap="round" stroke-linejoin="round"/>
</g>
</g>
</svg>
