<svg width="120" height="120" viewBox="0 0 120 120" fill="none" xmlns="http://www.w3.org/2000/svg">
<g id="ruller">
<g id="ruller_2">
<path id="Layer 1" d="M81.2462 10.5353L82.6604 9.12112L81.2462 10.5353ZM109.53 38.8196L108.116 40.2338L109.53 38.8196ZM38.8198 109.53L37.4055 110.944L38.8198 109.53ZM10.5355 81.246L11.9497 79.8318L10.5355 81.246ZM10.5307 74.1797L9.11651 72.7655L10.5307 74.1797ZM75.5941 11.9447C76.76 10.7789 78.6622 10.7798 79.832 11.9496L82.6604 9.12112C79.9347 6.39544 75.4998 6.3822 72.7657 9.11631L75.5941 11.9447ZM79.832 11.9495L108.116 40.2338L110.945 37.4053L82.6604 9.12112L79.832 11.9495ZM108.116 40.2338C109.291 41.4084 109.292 43.301 108.121 44.4717L110.949 47.3001C113.688 44.5613 113.675 40.136 110.945 37.4053L108.116 40.2338ZM108.121 44.4717L44.4718 108.121L47.3003 110.949L110.949 47.3001L108.121 44.4717ZM44.4718 108.121C43.306 109.287 41.4037 109.286 40.234 108.116L37.4055 110.944C40.1312 113.67 44.5662 113.683 47.3003 110.949L44.4718 108.121ZM40.234 108.116L11.9497 79.8318L9.12132 82.6602L37.4055 110.944L40.234 108.116ZM11.9497 79.8318C10.7751 78.6572 10.7743 76.7645 11.9449 75.5939L9.11651 72.7655C6.3777 75.5043 6.39069 79.9296 9.12132 82.6602L11.9497 79.8318ZM11.9449 75.5939L75.5941 11.9447L72.7657 9.11631L9.11651 72.7655L11.9449 75.5939ZM79.832 40.2338C82.5656 42.9675 86.9978 42.9675 89.7315 40.2338L86.903 37.4054C85.7315 38.5769 83.832 38.5769 82.6604 37.4054L79.832 40.2338ZM89.7315 40.2338C92.4651 37.5001 92.4651 33.068 89.7315 30.3343L86.903 33.1627C88.0746 34.3343 88.0746 36.2338 86.903 37.4054L89.7315 40.2338ZM89.7315 30.3343C86.9978 27.6006 82.5656 27.6006 79.832 30.3343L82.6604 33.1627C83.832 31.9912 85.7315 31.9912 86.903 33.1627L89.7315 30.3343ZM79.832 30.3343C77.0983 33.068 77.0983 37.5001 79.832 40.2338L82.6604 37.4054C81.4888 36.2338 81.4888 34.3343 82.6604 33.1627L79.832 30.3343Z" fill="white"/>
<path id="Layer 2" d="M49.2961 35.8608L57.3348 43.8995" stroke="white" stroke-width="4" stroke-linecap="round" stroke-linejoin="round"/>
<path id="Layer 3" d="M35.1541 50.0029L43.1927 58.0416" stroke="white" stroke-width="4" stroke-linecap="round" stroke-linejoin="round"/>
<path id="Layer 4" d="M21.0118 64.145L29.0505 72.1837" stroke="white" stroke-width="4" stroke-linecap="round" stroke-linejoin="round"/>
</g>
</g>
</svg>
