<svg width="120" height="120" viewBox="0 0 120 120" fill="none" xmlns="http://www.w3.org/2000/svg">
<g id="satellite">
<g id="satellite_2">
<path id="Layer 1" fill-rule="evenodd" clip-rule="evenodd" d="M78.6812 31.4055L88.5807 41.305L75.8528 54.0329L65.9533 44.1334L78.6812 31.4055V31.4055Z" stroke="white" stroke-width="4" stroke-linecap="round" stroke-linejoin="round"/>
<path id="Layer 2" fill-rule="evenodd" clip-rule="evenodd" d="M63.832 42.0122L77.9741 56.1543L55.3467 78.7818L41.2046 64.6396L63.832 42.0122V42.0122Z" stroke="white" stroke-width="4" stroke-linecap="round" stroke-linejoin="round"/>
<path id="Layer 3" fill-rule="evenodd" clip-rule="evenodd" d="M87.8736 60.397L98.4802 71.0036L84.3381 85.1457L73.7315 74.5391L87.8736 60.397V60.397Z" stroke="white" stroke-width="4" stroke-linecap="round" stroke-linejoin="round"/>
<path id="Layer 4" fill-rule="evenodd" clip-rule="evenodd" d="M98.4802 71.0034L109.087 81.61L94.9447 95.7522L84.3381 85.1456L98.4802 71.0034V71.0034Z" stroke="white" stroke-width="4" stroke-linecap="round" stroke-linejoin="round"/>
<path id="Layer 5" fill-rule="evenodd" clip-rule="evenodd" d="M84.3381 85.1455L94.9447 95.7521L80.8026 109.894L70.196 99.2876L84.3381 85.1455V85.1455Z" stroke="white" stroke-width="4" stroke-linecap="round" stroke-linejoin="round"/>
<path id="Layer 6" fill-rule="evenodd" clip-rule="evenodd" d="M73.7315 74.5391L84.3381 85.1457L70.196 99.2878L59.5894 88.6812L73.7315 74.5391V74.5391Z" stroke="white" stroke-width="4" stroke-linecap="round" stroke-linejoin="round"/>
<path id="Layer 7" fill-rule="evenodd" clip-rule="evenodd" d="M38.3762 10.8994L48.9828 21.506L34.8406 35.6482L24.234 25.0415L38.3762 10.8994V10.8994Z" stroke="white" stroke-width="4" stroke-linecap="round" stroke-linejoin="round"/>
<path id="Layer 8" fill-rule="evenodd" clip-rule="evenodd" d="M48.9828 21.5061L59.5894 32.1127L45.4472 46.2548L34.8406 35.6482L48.9828 21.5061V21.5061Z" stroke="white" stroke-width="4" stroke-linecap="round" stroke-linejoin="round"/>
<path id="Layer 9" fill-rule="evenodd" clip-rule="evenodd" d="M34.8406 35.6482L45.4472 46.2548L31.3051 60.3969L20.6985 49.7903L34.8406 35.6482V35.6482Z" stroke="white" stroke-width="4" stroke-linecap="round" stroke-linejoin="round"/>
<path id="Layer 10" fill-rule="evenodd" clip-rule="evenodd" d="M24.234 25.0415L34.8406 35.6481L20.6985 49.7902L10.0919 39.1836L24.234 25.0415V25.0415Z" stroke="white" stroke-width="4" stroke-linecap="round" stroke-linejoin="round"/>
<path id="Layer 11" d="M45.4472 46.2546L52.5183 53.3257" stroke="white" stroke-width="4" stroke-linecap="round" stroke-linejoin="round"/>
<path id="Layer 12" d="M66.6604 67.468L73.7315 74.5391" stroke="white" stroke-width="4" stroke-linecap="round" stroke-linejoin="round"/>
<path id="Layer 13" d="M28.4767 70.2964L49.6899 91.5096" stroke="white" stroke-width="4" stroke-linecap="round" stroke-linejoin="round"/>
<path id="Layer 14" d="M26.3553 93.631L48.2757 71.7107" stroke="white" stroke-width="4" stroke-linecap="round" stroke-linejoin="round"/>
</g>
</g>
</svg>
