<svg width="120" height="120" viewBox="0 0 120 120" fill="none" xmlns="http://www.w3.org/2000/svg">
<g id="school-bell">
<g id="school-bell_2">
<path id="Layer 1" fill-rule="evenodd" clip-rule="evenodd" d="M78.1319 72.9998V107.009C78.1319 108.661 76.781 110 75.1281 110H21.795C20.136 110 18.7912 108.657 18.7912 107.009V72.9998C25.8457 81.5504 36.5178 86.9999 48.4615 86.9999C60.4052 86.9999 71.0774 81.5504 78.1319 72.9998V72.9998Z" stroke="white" stroke-width="4" stroke-linecap="round" stroke-linejoin="round"/>
<path id="Layer 2" fill-rule="evenodd" clip-rule="evenodd" d="M48.4615 87C69.7033 87 86.9231 69.763 86.9231 48.5C86.9231 27.237 69.7033 10 48.4615 10C27.2198 10 10 27.237 10 48.5C10 69.763 27.2198 87 48.4615 87Z" stroke="white" stroke-width="4" stroke-linecap="round" stroke-linejoin="round"/>
<path id="Layer 3" d="M21.8701 41.7579C22.1699 40.6948 21.5511 39.5899 20.488 39.2901C19.4249 38.9903 18.3201 39.6091 18.0203 40.6722L21.8701 41.7579ZM17.1155 44.9689C16.961 46.0626 17.7224 47.0745 18.8161 47.229C19.9098 47.3835 20.9217 46.6221 21.0762 45.5284L17.1155 44.9689ZM40.9765 22.1033C42.0308 21.7738 42.6183 20.6521 42.2889 19.5978C41.9594 18.5435 40.8377 17.9559 39.7834 18.2854L40.9765 22.1033ZM21.4782 32.687C20.9083 33.6332 21.2133 34.8622 22.1595 35.4322C23.1057 36.0021 24.3347 35.6971 24.9046 34.7509L21.4782 32.687ZM18.0203 40.6722C17.6263 42.0691 17.3225 43.5036 17.1155 44.9689L21.0762 45.5284C21.258 44.242 21.5246 42.9832 21.8701 41.7579L18.0203 40.6722ZM39.7834 18.2854C32.0617 20.6984 25.5725 25.8898 21.4782 32.687L24.9046 34.7509C28.5029 28.7773 34.2049 24.2194 40.9765 22.1033L39.7834 18.2854Z" fill="white"/>
<path id="Layer 4" fill-rule="evenodd" clip-rule="evenodd" d="M48.4616 57.3C53.3168 57.3 57.2528 53.3601 57.2528 48.5C57.2528 43.6398 53.3168 39.7 48.4616 39.7C43.6063 39.7 39.6703 43.6398 39.6703 48.5C39.6703 53.3601 43.6063 57.3 48.4616 57.3Z" stroke="white" stroke-width="4" stroke-linecap="round" stroke-linejoin="round"/>
<path id="Layer 5" d="M37.4725 97.9999H59.4506" stroke="white" stroke-width="4" stroke-linecap="round" stroke-linejoin="round"/>
<path id="Layer 7" d="M103.407 43.2168C103.407 49.8676 103.407 62.9999 103.407 62.9999C103.407 77.4144 92.3305 89.2386 78.2287 90.4054" stroke="white" stroke-width="4" stroke-linecap="round" stroke-linejoin="round"/>
<path id="Layer 8" fill-rule="evenodd" clip-rule="evenodd" d="M103.407 43.2C107.048 43.2 110 40.2451 110 36.6C110 32.9549 107.048 30 103.407 30C99.7651 30 96.8132 32.9549 96.8132 36.6C96.8132 40.2451 99.7651 43.2 103.407 43.2Z" stroke="white" stroke-width="4" stroke-linecap="round" stroke-linejoin="round"/>
</g>
</g>
</svg>
