<svg width="120" height="120" viewBox="0 0 120 120" fill="none" xmlns="http://www.w3.org/2000/svg">
<g id="settings-2">
<g id="settings-2_2">
<path id="Layer 1" fill-rule="evenodd" clip-rule="evenodd" d="M21.0768 70.9705C21.9636 74.0118 23.1944 76.9444 24.751 79.6961L20.3166 85.2898C18.8686 87.1182 19.0315 89.725 20.6605 91.3724L28.2985 99.0118C29.9456 100.659 32.5519 100.804 34.38 99.3555L39.9365 94.9566C42.7963 96.6041 45.837 97.8892 49.0044 98.7943L49.837 105.945C50.1085 108.262 52.0632 110 54.38 110H65.1854C67.5022 110 69.4569 108.262 69.7284 105.945L70.5248 99.0478C73.9275 98.1608 77.1855 96.8392 80.2443 95.1195L85.6199 99.3736C87.4479 100.822 90.0543 100.659 91.7013 99.0297L99.3393 91.3903C100.986 89.7429 101.131 87.1361 99.6832 85.3077L95.5022 80.0036C97.2398 76.9984 98.5973 73.7944 99.5022 70.4453L105.946 69.7031C108.263 69.4316 110 67.4765 110 65.1593V54.3519C110 52.0348 108.262 50.0797 105.946 49.8081L99.5927 49.0659C98.7238 45.7531 97.4208 42.5851 95.7558 39.6162L99.6653 34.6741C101.113 32.8458 100.95 30.239 99.3214 28.5916L91.7015 20.9703C90.0544 19.323 87.4481 19.1781 85.62 20.6264L80.8237 24.428C77.7105 22.5996 74.38 21.2056 70.887 20.2643L70.163 14.055C69.8915 11.7379 67.9368 10 65.62 10H54.8146C52.4978 10 50.5431 11.7379 50.2716 14.055L49.5476 20.2643C45.9639 21.2238 42.543 22.672 39.3575 24.5728L34.3801 20.6264C32.5521 19.1781 29.9457 19.3411 28.2987 20.9703L20.6607 28.6097C19.0136 30.2571 18.8688 32.8639 20.3168 34.6923L24.4797 39.9602C22.8145 42.9652 21.5475 46.1694 20.715 49.5004L14.0543 50.2607C11.7376 50.5322 10 52.4873 10 54.8045V65.6119C10 67.929 11.7376 69.8841 14.0543 70.1557L21.0768 70.9705V70.9705Z" stroke="white" stroke-width="4" stroke-linecap="round" stroke-linejoin="round"/>
<path id="Layer 2" fill-rule="evenodd" clip-rule="evenodd" d="M60 73.1579C67.2669 73.1579 73.1579 67.2669 73.1579 60C73.1579 52.7331 67.2669 46.8421 60 46.8421C52.7331 46.8421 46.8421 52.7331 46.8421 60C46.8421 67.2669 52.7331 73.1579 60 73.1579Z" stroke="white" stroke-width="4" stroke-linecap="round" stroke-linejoin="round"/>
</g>
</g>
</svg>
