<svg width="120" height="120" viewBox="0 0 120 120" fill="none" xmlns="http://www.w3.org/2000/svg">
<g id="settings-5">
<g id="settings-5_2">
<path id="Layer 1" fill-rule="evenodd" clip-rule="evenodd" d="M106.159 87.3988L93.8641 75.1041L87.3308 74.7274L86.9326 68.1727L82.4967 63.7368C81.304 62.5441 79.3683 62.5461 78.1708 63.7436L64.2435 77.6709C63.047 78.8673 63.0503 80.8104 64.2367 81.9969L68.6726 86.4327L75.3035 86.945L75.604 93.3642L87.8987 105.659C92.9521 110.712 101.121 110.706 106.163 105.663C111.206 100.621 111.212 92.4522 106.159 87.3988V87.3988Z" stroke="white" stroke-width="4" stroke-linecap="round" stroke-linejoin="round"/>
<path id="Layer 2" d="M70.4039 70.6648L24.7539 25.0148" stroke="white" stroke-width="4" stroke-linecap="round" stroke-linejoin="round"/>
<path id="Layer 3" fill-rule="evenodd" clip-rule="evenodd" d="M24.3735 24.6344C26.6846 22.3233 26.686 18.5778 24.3778 16.2695L18.6672 10.559L10.298 18.9281L16.0086 24.6387C18.3173 26.9474 22.0671 26.9408 24.3735 24.6344V24.6344V24.6344Z" stroke="white" stroke-width="4" stroke-linecap="round" stroke-linejoin="round"/>
</g>
</g>
</svg>
