<svg width="120" height="120" viewBox="0 0 120 120" fill="none" xmlns="http://www.w3.org/2000/svg">
<g id="settings-3">
<g id="settings-3_2">
<path id="Layer 1" fill-rule="evenodd" clip-rule="evenodd" d="M106.274 98.1588C110.29 90.5429 109.067 80.9246 102.605 74.5283C96.4122 68.3979 87.2293 67.0311 79.7031 70.4279L49.0244 40.0592C52.4559 32.609 51.0752 23.5188 44.8822 17.3883C38.4206 10.992 28.7042 9.78153 21.0106 13.7568L33.3376 25.9593L24.6792 34.5303L12.3521 22.3278C8.33628 29.9437 9.55914 39.562 16.0207 45.9583C22.2137 52.0888 31.3967 53.4555 38.9229 50.0587L69.6015 80.4274C66.17 87.8776 67.5507 96.9678 73.7437 103.098C80.2053 109.495 89.9218 110.705 97.6154 106.73L85.2883 94.5273L93.9468 85.9563L106.274 98.1588V98.1588Z" stroke="white" stroke-width="4" stroke-linecap="round" stroke-linejoin="round"/>
<path id="Layer 2" fill-rule="evenodd" clip-rule="evenodd" d="M13.9235 86.9781L26.2181 74.8077L32.7513 74.4348L33.1496 67.9462L37.5854 63.5552C38.7781 62.3745 40.7139 62.3765 41.9114 63.5619L55.8387 77.3485C57.0351 78.5329 57.0319 80.4564 55.8455 81.6308L51.4096 86.0218L44.7787 86.529L44.4781 92.8833L32.1835 105.054C27.1301 110.056 18.9614 110.05 13.919 105.058C8.87664 100.067 8.87008 91.9805 13.9235 86.9781V86.9781Z" stroke="white" stroke-width="4" stroke-linecap="round" stroke-linejoin="round"/>
<path id="Layer 5" d="M49.6782 70.4133L95.3283 25.2244" stroke="white" stroke-width="4" stroke-linecap="round" stroke-linejoin="round"/>
<path id="Layer 6" fill-rule="evenodd" clip-rule="evenodd" d="M95.7087 24.8478C93.3976 22.5601 93.3961 18.8524 95.7044 16.5674L101.415 10.9146L109.784 19.1992L104.074 24.8521C101.765 27.1375 98.0151 27.1309 95.7087 24.8478V24.8478V24.8478Z" stroke="white" stroke-width="4" stroke-linecap="round" stroke-linejoin="round"/>
</g>
</g>
</svg>
