<svg width="120" height="120" viewBox="0 0 120 120" fill="none" xmlns="http://www.w3.org/2000/svg">
<g id="spaceship">
<g id="spaceship_2">
<path id="Layer 1" d="M75.157 42.9298C74.3855 42.1392 73.1193 42.1237 72.3287 42.8951C71.5382 43.6665 71.5226 44.9327 72.294 45.7233L75.157 42.9298ZM105.53 76.9215L106.962 75.5247L106.962 75.5247L105.53 76.9215ZM73.7255 88.3943C72.6209 88.3943 71.7255 89.2898 71.7255 90.3943C71.7255 91.4989 72.6209 92.3943 73.7255 92.3943V88.3943ZM46.2745 92.3943C47.3791 92.3943 48.2745 91.4989 48.2745 90.3943C48.2745 89.2898 47.3791 88.3943 46.2745 88.3943V92.3943ZM14.1755 76.9215L15.607 78.3182L14.1755 76.9215ZM47.706 45.4217C48.4774 44.6311 48.4618 43.3648 47.6713 42.5934C46.8807 41.822 45.6145 41.8376 44.843 42.6281L47.706 45.4217ZM72.294 45.7233L104.099 78.3182L106.962 75.5247L75.157 42.9298L72.294 45.7233ZM104.099 78.3182C107.625 81.9318 108.024 84.4473 107.517 85.6945C107.02 86.9158 105.035 88.3943 100.051 88.3943V92.3943C105.35 92.3943 109.735 90.8569 111.222 87.202C112.698 83.573 110.696 79.3519 106.962 75.5247L104.099 78.3182ZM100.051 88.3943H73.7255V92.3943H100.051V88.3943ZM46.2745 88.3943H19.6546V92.3943H46.2745V88.3943ZM19.6546 88.3943C14.6679 88.3943 12.6828 86.9161 12.1862 85.6957C11.6791 84.4495 12.0786 81.9343 15.607 78.3182L12.7441 75.5247C9.00861 79.353 7.00445 83.5742 8.4812 87.2033C9.96846 90.8583 14.3548 92.3943 19.6546 92.3943V88.3943ZM15.607 78.3182L47.706 45.4217L44.843 42.6281L12.7441 75.5247L15.607 78.3182Z" fill="white"/>
<path id="Layer 2" fill-rule="evenodd" clip-rule="evenodd" d="M46.2745 29.9634C46.2745 19.5751 56.4863 10.0655 60 10.0001C63.5137 9.93468 73.7255 19.7615 73.7255 29.7014C73.7255 56.4542 73.7255 97.672 73.7255 97.672H46.2745C46.2745 97.672 46.2745 56.6288 46.2745 29.9634Z" stroke="white" stroke-width="4" stroke-linecap="round" stroke-linejoin="round"/>
<path id="Layer 3" fill-rule="evenodd" clip-rule="evenodd" d="M60 23C56.275 23 52 27.4395 52 33.9576H68C68 27.5762 63.725 23 60 23Z" stroke="white" stroke-width="4" stroke-linecap="round" stroke-linejoin="round"/>
<path id="Layer 4" d="M60 70V100" stroke="white" stroke-width="4" stroke-linecap="round" stroke-linejoin="round"/>
<path id="Layer 5" fill-rule="evenodd" clip-rule="evenodd" d="M52.1569 110C52.1569 110 56.0785 107.761 56.0785 105C56.0785 102.239 54.3227 100 52.1569 100C49.9911 100 48.2354 102.239 48.2354 105C48.2354 107.761 52.1569 110 52.1569 110Z" fill="white" stroke="white" stroke-width="4" stroke-linecap="round" stroke-linejoin="round"/>
<path id="Layer 6" fill-rule="evenodd" clip-rule="evenodd" d="M67.8432 110C67.8432 110 71.7648 107.761 71.7648 105C71.7648 102.239 70.009 100 67.8432 100C65.6774 100 63.9216 102.239 63.9216 105C63.9216 107.761 67.8432 110 67.8432 110Z" fill="white" stroke="white" stroke-width="4" stroke-linecap="round" stroke-linejoin="round"/>
</g>
</g>
</svg>
