<svg width="120" height="120" viewBox="0 0 120 120" fill="none" xmlns="http://www.w3.org/2000/svg">
<g id="stomach">
<g id="stomach_2">
<path id="Layer 1" fill-rule="evenodd" clip-rule="evenodd" d="M20.6761 21.9702C21.0983 23.372 23.2413 29.0991 31.7057 36.4522C37.6188 41.589 44.0052 43.2725 48.1273 43.8011C48.3216 50.7461 49.5586 54.7438 57.4394 62.1229C58.4805 75.8549 53.77 88.1888 40.0981 83.1363C33.758 80.7932 24.7509 76.8987 15.5302 83.1363C6.30949 89.3739 11.4037 108.516 11.4037 108.516H17.9094C17.9094 108.516 18.6602 94.174 24.2239 94.174C40.0981 94.174 51.7528 109.48 68.6215 108.516C90.5179 108.213 109.183 87.132 109.183 60.8651C109.183 34.3338 94.5216 15.3414 72.3781 15.3414C61.7687 15.3414 54.1675 19.1636 50.523 26.9881C48.0589 26.8542 45.2138 26.088 42.6303 23.8826C37.9617 19.8973 35.7813 15.9333 34.9567 14.1221C34.9822 16.1708 32.8381 18.9192 29.5203 20.8347C25.9933 22.871 22.3143 23.288 20.6761 21.9702V21.9702Z" stroke="white" stroke-width="4" stroke-linecap="round" stroke-linejoin="round"/>
<path id="Layer 2" fill-rule="evenodd" clip-rule="evenodd" d="M29.5204 20.8349C33.5313 18.5192 35.8269 14.9862 34.6477 12.9438C33.4685 10.9014 29.261 11.1229 25.2501 13.4386C21.2392 15.7544 18.9436 19.2873 20.1228 21.3297C21.302 23.3722 25.5094 23.1506 29.5204 20.8349V20.8349Z" stroke="white" stroke-width="4" stroke-linecap="round" stroke-linejoin="round"/>
</g>
</g>
</svg>
