<svg width="120" height="120" viewBox="0 0 120 120" fill="none" xmlns="http://www.w3.org/2000/svg">
<g id="sun-2">
<g id="sun-2_2">
<path id="Layer 1" fill-rule="evenodd" clip-rule="evenodd" d="M30.5727 19.5492C35.3104 23.1529 41.6787 24.4516 47.7686 22.4729C53.8586 20.4941 58.2472 15.7002 59.9619 10C61.6766 15.7002 66.0653 20.4941 72.1552 22.4729C78.2452 24.4516 84.6135 23.1529 89.3512 19.5492C87.3879 25.1686 88.1206 31.6265 91.8844 36.807C95.6482 41.9874 101.564 44.6798 107.515 44.5491C102.623 47.9414 99.4203 53.5966 99.4203 60C99.4203 66.4034 102.623 72.0586 107.515 75.4509C101.564 75.3202 95.6482 78.0126 91.8844 83.193C88.1206 88.3735 87.3879 94.8314 89.3512 100.451C84.6135 96.8471 78.2452 95.5483 72.1552 97.5271C66.0653 99.5059 61.6766 104.3 59.9619 110C58.2472 104.3 53.8586 99.5059 47.7686 97.5271C41.6787 95.5483 35.3104 96.8471 30.5727 100.451C32.536 94.8314 31.8033 88.3735 28.0395 83.193C24.2757 78.0126 18.3602 75.3202 12.4091 75.4509C17.3005 72.0586 20.5036 66.4034 20.5036 60C20.5036 53.5966 17.3005 47.9414 12.4091 44.5491C18.3602 44.6798 24.2757 41.9874 28.0395 36.807C31.8033 31.6265 32.536 25.1686 30.5727 19.5492V19.5492V19.5492Z" stroke="white" stroke-width="4" stroke-linecap="round" stroke-linejoin="round"/>
<path id="Layer 2" fill-rule="evenodd" clip-rule="evenodd" d="M60 80C71.0457 80 80 71.0457 80 60C80 48.9543 71.0457 40 60 40C48.9543 40 40 48.9543 40 60C40 71.0457 48.9543 80 60 80Z" stroke="white" stroke-width="4" stroke-linecap="round" stroke-linejoin="round"/>
<path id="Layer 3" d="M61 47C53.268 47 47 53.268 47 61" stroke="white" stroke-width="4" stroke-linecap="round" stroke-linejoin="round"/>
</g>
</g>
</svg>
