<svg width="120" height="120" viewBox="0 0 120 120" fill="none" xmlns="http://www.w3.org/2000/svg">
<g id="sushi">
<g id="sushi_2">
<path id="Layer 1" fill-rule="evenodd" clip-rule="evenodd" d="M85 48.9999V32.2222H84.9254C84.3639 35.417 80.6898 37.7777 75.7905 37.7777H44.2093C39.3069 37.7777 35.6372 35.4134 35.075 32.2222V32.2222H35V48.9999H47.6193C52.2641 48.9999 56.6617 52.323 57.4387 56.4074L59.9049 69.3703C60.019 69.9698 60.0286 70.5528 59.9436 71.1111H60.0567C59.9714 70.5526 59.9809 69.9696 60.0949 69.3703L62.5611 56.4074C63.3394 52.3164 67.7398 48.9999 72.3806 48.9999H85V48.9999Z" stroke="white" stroke-width="4" stroke-linecap="round" stroke-linejoin="round"/>
<path id="Layer 2" fill-rule="evenodd" clip-rule="evenodd" d="M47.3806 10H72.6193C77.2641 10 81.6617 13.3231 82.4387 17.4074L84.9049 30.3703C85.6832 34.4614 81.5974 37.7778 75.7905 37.7778H44.2093C38.3973 37.7778 34.3179 34.4547 35.0949 30.3703L37.5611 17.4074C38.3394 13.3164 42.7398 10 47.3806 10Z" stroke="white" stroke-width="4" stroke-linecap="round" stroke-linejoin="round"/>
<path id="Layer 3" fill-rule="evenodd" clip-rule="evenodd" d="M60.5556 29.0474C65.4648 29.0474 69.4445 26.7733 69.4445 23.968C69.4445 21.1628 65.4648 18.8887 60.5556 18.8887C55.6464 18.8887 51.6667 21.1628 51.6667 23.968C51.6667 26.7733 55.6464 29.0474 60.5556 29.0474Z" stroke="white" stroke-width="4" stroke-linecap="round" stroke-linejoin="round"/>
<path id="Layer 4" d="M43.8889 47.7779V45.521" stroke="white" stroke-width="4" stroke-linecap="round" stroke-linejoin="round"/>
<path id="Layer 5" fill-rule="evenodd" clip-rule="evenodd" d="M10.075 71.2222H10V102.112C10 106.522 13.5842 110.111 18.0056 110.111H51.9944C56.4242 110.111 60 106.53 60 102.112V71.2222H59.9254C59.3639 74.417 55.6898 76.7777 50.7905 76.7777H19.2093C14.3069 76.7777 10.6372 74.4134 10.075 71.2222V71.2222Z" stroke="white" stroke-width="4" stroke-linecap="round" stroke-linejoin="round"/>
<path id="Layer 6" fill-rule="evenodd" clip-rule="evenodd" d="M22.3806 49H47.6193C52.2641 49 56.6617 52.3231 57.4387 56.4074L59.9049 69.3703C60.6832 73.4614 56.5974 76.7778 50.7905 76.7778H19.2093C13.3973 76.7778 9.31786 73.4547 10.0949 69.3703L12.5611 56.4074C13.3394 52.3164 17.7398 49 22.3806 49Z" stroke="white" stroke-width="4" stroke-linecap="round" stroke-linejoin="round"/>
<path id="Layer 7" fill-rule="evenodd" clip-rule="evenodd" d="M35.5556 68.0474C40.4648 68.0474 44.4445 65.7733 44.4445 62.968C44.4445 60.1628 40.4648 57.8887 35.5556 57.8887C30.6464 57.8887 26.6667 60.1628 26.6667 62.968C26.6667 65.7733 30.6464 68.0474 35.5556 68.0474Z" stroke="white" stroke-width="4" stroke-linecap="round" stroke-linejoin="round"/>
<path id="Layer 8" d="M18.8889 86.7779V84.521" stroke="white" stroke-width="4" stroke-linecap="round" stroke-linejoin="round"/>
<path id="Layer 9" d="M18.8889 101.222V93.4443" stroke="white" stroke-width="4" stroke-linecap="round" stroke-linejoin="round"/>
<path id="Layer 10" fill-rule="evenodd" clip-rule="evenodd" d="M60.075 71.2222H60V102.112C60 106.522 63.5842 110.111 68.0056 110.111H101.994C106.424 110.111 110 106.53 110 102.112V71.2222H109.925C109.364 74.417 105.69 76.7777 100.791 76.7777H69.2093C64.3069 76.7777 60.6372 74.4134 60.075 71.2222V71.2222Z" stroke="white" stroke-width="4" stroke-linecap="round" stroke-linejoin="round"/>
<path id="Layer 11" fill-rule="evenodd" clip-rule="evenodd" d="M72.3806 49H97.6193C102.264 49 106.662 52.3231 107.439 56.4074L109.905 69.3703C110.683 73.4614 106.597 76.7778 100.791 76.7778H69.2093C63.3973 76.7778 59.3179 73.4547 60.0949 69.3703L62.5611 56.4074C63.3394 52.3164 67.7398 49 72.3806 49Z" stroke="white" stroke-width="4" stroke-linecap="round" stroke-linejoin="round"/>
<path id="Layer 12" fill-rule="evenodd" clip-rule="evenodd" d="M85.5556 68.0474C90.4648 68.0474 94.4445 65.7733 94.4445 62.968C94.4445 60.1628 90.4648 57.8887 85.5556 57.8887C80.6464 57.8887 76.6667 60.1628 76.6667 62.968C76.6667 65.7733 80.6464 68.0474 85.5556 68.0474Z" stroke="white" stroke-width="4" stroke-linecap="round" stroke-linejoin="round"/>
<path id="Layer 13" d="M68.8889 86.7779V84.521" stroke="white" stroke-width="4" stroke-linecap="round" stroke-linejoin="round"/>
<path id="Layer 14" d="M68.8889 101.222V93.4443" stroke="white" stroke-width="4" stroke-linecap="round" stroke-linejoin="round"/>
</g>
</g>
</svg>
