<svg width="120" height="120" viewBox="0 0 120 120" fill="none" xmlns="http://www.w3.org/2000/svg">
<g id="telephone-2">
<g id="telephone-2_2">
<path id="Layer 1" fill-rule="evenodd" clip-rule="evenodd" d="M75.1816 31.1082C78.4978 31.1082 80.9875 39.7747 80.9875 39.7747C82.1842 42.8653 85.8265 45.5769 89.1456 45.8329L104.009 46.9795C107.318 47.2348 110 44.7521 110 41.4497V32.0007C110 26.188 103.339 21.7217 98.0444 19.4412C98.0444 19.4412 89.7842 15 60 15C30.2158 15 21.9556 19.4412 21.9556 19.4412C16.6614 21.7217 10 26.188 10 32.0007V41.4497C10 44.7521 12.6824 47.2348 15.9913 46.9795L30.8544 45.8329C34.1735 45.5769 37.8158 42.8653 39.0125 39.7747C39.0125 39.7747 41.99 31.1082 45.3062 31.1082H60H75.1816V31.1082V31.1082Z" stroke="white" stroke-width="4" stroke-linecap="round" stroke-linejoin="round"/>
<rect id="Layer 2" x="54" y="97" width="12" height="8" stroke="white" stroke-width="4" stroke-linecap="round" stroke-linejoin="round"/>
<rect id="Layer 3" x="33" y="97" width="12" height="8" stroke="white" stroke-width="4" stroke-linecap="round" stroke-linejoin="round"/>
<rect id="Layer 4" x="75" y="97" width="12" height="8" stroke="white" stroke-width="4" stroke-linecap="round" stroke-linejoin="round"/>
<rect id="Layer 5" x="54" y="81" width="12" height="8" stroke="white" stroke-width="4" stroke-linecap="round" stroke-linejoin="round"/>
<rect id="Layer 6" x="33" y="81" width="12" height="8" stroke="white" stroke-width="4" stroke-linecap="round" stroke-linejoin="round"/>
<rect id="Layer 7" x="75" y="81" width="12" height="8" stroke="white" stroke-width="4" stroke-linecap="round" stroke-linejoin="round"/>
<rect id="Layer 8" x="54" y="65" width="12" height="8" stroke="white" stroke-width="4" stroke-linecap="round" stroke-linejoin="round"/>
<rect id="Layer 9" x="33" y="65" width="12" height="8" stroke="white" stroke-width="4" stroke-linecap="round" stroke-linejoin="round"/>
<rect id="Layer 10" x="75" y="65" width="12" height="8" stroke="white" stroke-width="4" stroke-linecap="round" stroke-linejoin="round"/>
</g>
</g>
</svg>
