<svg width="120" height="120" viewBox="0 0 120 120" fill="none" xmlns="http://www.w3.org/2000/svg">
<g id="telephone">
<g id="telephone_2">
<path id="Layer 1" fill-rule="evenodd" clip-rule="evenodd" d="M49.5244 54.6939C47.8008 52.9703 51.0112 47.1717 51.0112 47.1717C51.9956 44.9434 51.5118 41.6409 49.9198 39.7827L42.7904 31.4614C41.2033 29.6089 38.5187 29.5051 36.8022 31.2215L31.891 36.1328C28.8697 39.154 30.0107 44.9378 31.577 48.8748C31.577 48.8748 33.5621 55.4765 49.0428 70.9572C64.5235 86.4379 71.1252 88.423 71.1252 88.423C75.0622 89.9893 80.846 91.1303 83.8672 88.109L88.7785 83.1978C90.4949 81.4813 90.3911 78.7967 88.5386 77.2096L80.2173 70.0802C78.3591 68.4882 75.0566 68.0044 72.8283 68.9888C72.8283 68.9888 66.7762 71.9457 65.0525 70.2221L57.4152 62.5848L49.5244 54.6939V54.6939Z" stroke="white" stroke-width="4" stroke-linecap="round" stroke-linejoin="round"/>
<path id="Layer 2" d="M85.2261 87.2861C95.8535 95.3154 102.264 86.772 103.052 85.4426C107.466 77.9891 110 69.2905 110 60C110 32.3858 87.6142 10 60 10C32.3858 10 10 32.3858 10 60C10 87.6142 32.3858 110 60 110C68.1627 110 75.8685 108.044 82.6743 104.575" stroke="white" stroke-width="4" stroke-linecap="round" stroke-linejoin="round"/>
</g>
</g>
</svg>
