<svg width="120" height="120" viewBox="0 0 120 120" fill="none" xmlns="http://www.w3.org/2000/svg">
<g id="telescope">
<g id="telescope_2">
<path id="Layer 1" fill-rule="evenodd" clip-rule="evenodd" d="M57.0181 56.3849C56.0553 57.2952 55.4545 58.5783 55.4545 59.9999C55.4545 62.7557 57.7157 64.9999 60.505 64.9999C63.2887 64.9999 65.5555 62.7613 65.5555 59.9999C65.5555 59.6963 65.5281 59.399 65.4756 59.1102C63.8722 59.5145 62.2319 58.5599 61.8038 56.9782L61.3089 55.1497L61.3334 55.2402L57.0181 56.3849V56.3849Z" fill="white" stroke="white" stroke-width="4" stroke-linecap="round" stroke-linejoin="round"/>
<path id="Layer 2" fill-rule="evenodd" clip-rule="evenodd" d="M97.7102 15.7759C99.3257 15.3473 100.987 16.2983 101.419 17.8949L109.89 49.195C110.323 50.7939 109.372 52.4354 107.749 52.8659L104.233 53.7986C102.617 54.2271 100.956 53.2762 100.524 51.6796L92.0526 20.3795C91.6199 18.7806 92.5714 17.1391 94.1941 16.7086L97.7102 15.7759V15.7759V15.7759Z" stroke="white" stroke-width="4" stroke-linecap="round" stroke-linejoin="round"/>
<path id="Layer 3" d="M100.053 49.9383L65.5124 59.1009C63.8974 59.5293 62.2352 58.5722 61.8038 56.9783L55.8437 34.9573C55.4104 33.3567 56.3707 31.7112 57.9834 31.2834L92.5239 22.1208V22.1208V22.1208V22.1208" stroke="white" stroke-width="4" stroke-linecap="round" stroke-linejoin="round"/>
<path id="Layer 4" d="M61.3334 55.2403L23.8687 65.1785L18.8494 46.6335L56.3141 36.6953V36.6953V36.6953V36.6953" stroke="white" stroke-width="4" stroke-linecap="round" stroke-linejoin="round"/>
<path id="Layer 5" d="M22.6139 60.5423L13.2478 63.0268L10.7381 53.7543L20.1043 51.2698V51.2698V51.2698V51.2698" stroke="white" stroke-width="4" stroke-linecap="round" stroke-linejoin="round"/>
<path id="Layer 6" d="M60.505 65V105" stroke="white" stroke-width="4" stroke-linecap="round" stroke-linejoin="round"/>
<path id="Layer 7" d="M60.5051 65L80.202 104.5" stroke="white" stroke-width="4" stroke-linecap="round" stroke-linejoin="round"/>
<path id="Layer 8" d="M60.505 65L40.808 104.5" stroke="white" stroke-width="4" stroke-linecap="round" stroke-linejoin="round"/>
</g>
</g>
</svg>
