<svg width="120" height="120" viewBox="0 0 120 120" fill="none" xmlns="http://www.w3.org/2000/svg">
<g id="time">
<g id="time_2">
<path id="Layer 1" fill-rule="evenodd" clip-rule="evenodd" d="M104.94 65.0964C104.94 40.4897 85.0142 20.542 60.4344 20.542C35.8547 20.542 15.929 40.4897 15.929 65.0964C15.929 89.7032 35.8547 109.651 60.4344 109.651C85.0142 109.651 104.94 89.7032 104.94 65.0964Z" stroke="white" stroke-width="4" stroke-linecap="round" stroke-linejoin="round"/>
<path id="Layer 2" fill-rule="evenodd" clip-rule="evenodd" d="M60.7559 101.613C80.9659 101.613 97.3493 85.2111 97.3493 64.9789C97.3493 44.7467 80.9659 28.3452 60.7559 28.3452C40.5459 28.3452 24.1625 44.7467 24.1625 64.9789C24.1625 85.2111 40.5459 101.613 60.7559 101.613Z" stroke="white" stroke-width="4" stroke-linecap="round" stroke-linejoin="round"/>
<path id="Layer 3" fill-rule="evenodd" clip-rule="evenodd" d="M60.4945 69.901C63.2256 69.901 65.4395 67.6846 65.4395 64.9505C65.4395 62.2164 63.2256 60 60.4945 60C57.7634 60 55.5494 62.2164 55.5494 64.9505C55.5494 67.6846 57.7634 69.901 60.4945 69.901V69.901Z" stroke="white" stroke-width="4" stroke-linecap="round" stroke-linejoin="round"/>
<path id="Layer 4" d="M60.4945 40.2373V60.0393" stroke="white" stroke-width="4" stroke-linecap="round" stroke-linejoin="round"/>
<path id="Layer 5" d="M60.4945 69.9404V77.8612" stroke="white" stroke-width="4" stroke-linecap="round" stroke-linejoin="round"/>
<path id="Layer 6" d="M60.6088 10.9902V19.9011" stroke="white" stroke-width="4" stroke-linecap="round" stroke-linejoin="round"/>
<path id="Layer 7" d="M65.0593 10H56.1582" stroke="white" stroke-width="4" stroke-linecap="round" stroke-linejoin="round"/>
<path id="Layer 8" d="M98.9216 27.6694L92.6276 33.9704" stroke="white" stroke-width="4" stroke-linecap="round" stroke-linejoin="round"/>
<path id="Layer 9" d="M102.768 30.1198L96.474 23.8188" stroke="white" stroke-width="4" stroke-linecap="round" stroke-linejoin="round"/>
</g>
</g>
</svg>
