<svg width="120" height="120" viewBox="0 0 120 120" fill="none" xmlns="http://www.w3.org/2000/svg">
<g id="trumpet">
<g id="trumpet_2">
<path id="Layer 1" fill-rule="evenodd" clip-rule="evenodd" d="M17.0888 97.1821L68.3945 45.8764C68.3945 45.8764 72.87 40.3925 74.92 31.308C76.97 22.2234 75.342 10.6362 75.342 10.6362L92.2171 27.5113L109.092 44.3863C109.092 44.3863 97.505 42.7583 88.4203 44.8084C79.3359 46.8583 74.1433 51.0916 74.1433 51.0916L22.5652 102.67L23.2257 103.733C24.0492 105.129 23.7806 107.198 22.6322 108.346L22.5828 108.396C21.4314 109.547 19.5679 109.55 18.4216 108.404L11.3246 101.307C10.1778 100.16 10.1844 98.294 11.3327 97.1456L11.3822 97.0962C12.5335 95.9448 14.6001 95.6705 15.9953 96.5025L17.0888 97.1821V97.1821Z" stroke="white" stroke-width="4" stroke-linecap="round" stroke-linejoin="round"/>
<path id="Layer 2" fill-rule="evenodd" clip-rule="evenodd" d="M38.7794 100.636C34.8962 96.7532 34.899 90.4543 38.7781 86.5752L59.8746 65.4787C63.7571 61.5962 70.0517 61.5959 73.9358 65.4801V65.4801C77.819 69.3633 77.8162 75.6622 73.9371 79.5413L52.8406 100.638C48.9581 104.52 42.6635 104.521 38.7794 100.636V100.636V100.636Z" stroke="white" stroke-width="4" stroke-linecap="round" stroke-linejoin="round"/>
<path id="Layer 3" d="M47.9201 74.6209L39.4825 66.1833" stroke="white" stroke-width="4" stroke-linecap="round" stroke-linejoin="round"/>
<path id="Layer 4" d="M40.3563 83.9321L31.045 74.6208" stroke="white" stroke-width="4" stroke-linecap="round" stroke-linejoin="round"/>
<path id="Layer 5" d="M57.2313 67.0571L47.9201 57.7458" stroke="white" stroke-width="4" stroke-linecap="round" stroke-linejoin="round"/>
<path id="Layer 6" fill-rule="evenodd" clip-rule="evenodd" d="M31.045 74.6208C32.21 73.4558 32.21 71.567 31.045 70.4021C29.88 69.2371 27.9912 69.2371 26.8262 70.4021C25.6613 71.567 25.6613 73.4558 26.8262 74.6208C27.9912 75.7858 29.88 75.7858 31.045 74.6208V74.6208Z" fill="white" stroke="white" stroke-width="4" stroke-linecap="round" stroke-linejoin="round"/>
<path id="Layer 7" fill-rule="evenodd" clip-rule="evenodd" d="M39.4825 66.1833C40.6475 65.0183 40.6475 63.1295 39.4825 61.9646C38.3176 60.7996 36.4288 60.7996 35.2638 61.9646C34.0988 63.1295 34.0988 65.0183 35.2638 66.1833C36.4288 67.3483 38.3176 67.3483 39.4825 66.1833V66.1833Z" fill="white" stroke="white" stroke-width="4" stroke-linecap="round" stroke-linejoin="round"/>
<path id="Layer 8" fill-rule="evenodd" clip-rule="evenodd" d="M47.9201 57.7458C49.0851 56.5808 49.0851 54.692 47.9201 53.5271C46.7551 52.3621 44.8663 52.3621 43.7013 53.5271C42.5363 54.692 42.5363 56.5808 43.7013 57.7458C44.8663 58.9108 46.7551 58.9108 47.9201 57.7458V57.7458Z" fill="white" stroke="white" stroke-width="4" stroke-linecap="round" stroke-linejoin="round"/>
</g>
</g>
</svg>
