<svg width="120" height="120" viewBox="0 0 120 120" fill="none" xmlns="http://www.w3.org/2000/svg">
<g id=" ">
<g id=" _2">
<path id="Layer 1" fill-rule="evenodd" clip-rule="evenodd" d="M21.0784 82.2379C20.7285 82.4564 20.0693 83.828 20.3675 85.0315C20.811 86.8212 22.3886 87.5198 22.3886 87.5198C22.3886 87.5198 24.8566 90.8247 24.8566 92.7467C24.8566 94.6687 24.8566 95.4155 24.1952 97.0189C23.5338 98.6224 10.5512 100.544 10 109.997H28.8963L48 109.999C47.4488 100.547 34.4662 98.6244 33.8048 97.021C33.1434 95.4175 33.1434 94.6708 33.1434 92.7488C33.1434 90.8268 35.6114 87.5218 35.6114 87.5218C35.6114 87.5218 37.189 86.8233 37.6325 85.0335C37.9307 83.8301 37.2715 82.4585 36.9216 82.2399C37.8569 79.3455 39.7249 69.3669 29.1037 69.0072C29.0565 69.0004 29.0096 69.0016 28.9628 69.003C18.2751 69.3648 20.1431 79.3434 21.0784 82.2379Z" stroke="white" stroke-width="4" stroke-linecap="round" stroke-linejoin="round"/>
<path id="Layer 2" fill-rule="evenodd" clip-rule="evenodd" d="M21.0784 82.2379C20.7285 82.4564 20.0693 83.828 20.3675 85.0315C20.811 86.8212 22.3886 87.5198 22.3886 87.5198C22.3886 87.5198 24.8566 90.8247 24.8566 92.7467C24.8566 94.6687 24.8566 95.4155 24.1952 97.0189C23.5338 98.6224 10.5512 100.544 10 109.997H28.8963L48 109.999C47.4488 100.547 34.4662 98.6244 33.8048 97.021C33.1434 95.4175 33.1434 94.6708 33.1434 92.7488C33.1434 90.8268 35.6114 87.5218 35.6114 87.5218C35.6114 87.5218 37.189 86.8233 37.6325 85.0335C37.9307 83.8301 37.2715 82.4585 36.9216 82.2399C37.8569 79.3455 39.7249 69.3669 29.1037 69.0072C29.0565 69.0004 29.0096 69.0016 28.9628 69.003C18.2751 69.3648 20.1431 79.3434 21.0784 82.2379Z" stroke="white" stroke-width="4" stroke-linecap="round" stroke-linejoin="round"/>
<path id="Layer 3" fill-rule="evenodd" clip-rule="evenodd" d="M83.0784 82.2379C82.7285 82.4564 82.0693 83.828 82.3675 85.0315C82.811 86.8212 84.3886 87.5198 84.3886 87.5198C84.3886 87.5198 86.8566 90.8247 86.8566 92.7467C86.8566 94.6687 86.8566 95.4155 86.1952 97.0189C85.5338 98.6224 72.5512 100.544 72 109.997H90.8963L110 109.999C109.449 100.547 96.4662 98.6244 95.8048 97.021C95.1434 95.4175 95.1434 94.6708 95.1434 92.7488C95.1434 90.8268 97.6114 87.5218 97.6114 87.5218C97.6114 87.5218 99.189 86.8233 99.6325 85.0335C99.9307 83.8301 99.2715 82.4585 98.9216 82.2399C99.8569 79.3455 101.725 69.3669 91.1037 69.0072C91.0565 69.0004 91.0096 69.0016 90.9628 69.003C80.2751 69.3648 82.1431 79.3434 83.0784 82.2379Z" stroke="white" stroke-width="4" stroke-linecap="round" stroke-linejoin="round"/>
<path id="Layer 4" fill-rule="evenodd" clip-rule="evenodd" d="M83.0784 82.2379C82.7285 82.4564 82.0693 83.828 82.3675 85.0315C82.811 86.8212 84.3886 87.5198 84.3886 87.5198C84.3886 87.5198 86.8566 90.8247 86.8566 92.7467C86.8566 94.6687 86.8566 95.4155 86.1952 97.0189C85.5338 98.6224 72.5512 100.544 72 109.997H90.8963L110 109.999C109.449 100.547 96.4662 98.6244 95.8048 97.021C95.1434 95.4175 95.1434 94.6708 95.1434 92.7488C95.1434 90.8268 97.6114 87.5218 97.6114 87.5218C97.6114 87.5218 99.189 86.8233 99.6325 85.0335C99.9307 83.8301 99.2715 82.4585 98.9216 82.2399C99.8569 79.3455 101.725 69.3669 91.1037 69.0072C91.0565 69.0004 91.0096 69.0016 90.9628 69.003C80.2751 69.3648 82.1431 79.3434 83.0784 82.2379Z" stroke="white" stroke-width="4" stroke-linecap="round" stroke-linejoin="round"/>
<path id="Layer 5" fill-rule="evenodd" clip-rule="evenodd" d="M52.0784 23.2384C51.7285 23.4569 51.0693 24.8285 51.3675 26.032C51.811 27.8217 53.3886 28.5202 53.3886 28.5202C53.3886 28.5202 55.8566 31.8252 55.8566 33.7472C55.8566 35.6692 55.8566 36.4159 55.1952 38.0194C54.5338 39.6229 41.5512 41.545 41 50.9978H59.8963L79 50.9999C78.4488 41.547 65.4662 39.6249 64.8048 38.0215C64.1434 36.418 64.1434 35.6713 64.1434 33.7493C64.1434 31.8273 66.6114 28.5223 66.6114 28.5223C66.6114 28.5223 68.189 27.8238 68.6325 26.034C68.9307 24.8306 68.2715 23.459 67.9216 23.2404C68.8569 20.346 70.7249 10.3674 60.1037 10.0077C60.0565 10.0009 60.0096 10.0021 59.9628 10.0035C49.2751 10.3653 51.1431 20.3439 52.0784 23.2384Z" stroke="white" stroke-width="4" stroke-linecap="round" stroke-linejoin="round"/>
<path id="Layer 6" fill-rule="evenodd" clip-rule="evenodd" d="M52.0784 23.2384C51.7285 23.4569 51.0693 24.8285 51.3675 26.032C51.811 27.8217 53.3886 28.5202 53.3886 28.5202C53.3886 28.5202 55.8566 31.8252 55.8566 33.7472C55.8566 35.6692 55.8566 36.4159 55.1952 38.0194C54.5338 39.6229 41.5512 41.545 41 50.9978H59.8963L79 50.9999C78.4488 41.547 65.4662 39.6249 64.8048 38.0215C64.1434 36.418 64.1434 35.6713 64.1434 33.7493C64.1434 31.8273 66.6114 28.5223 66.6114 28.5223C66.6114 28.5223 68.189 27.8238 68.6325 26.034C68.9307 24.8306 68.2715 23.459 67.9216 23.2404C68.8569 20.346 70.7249 10.3674 60.1037 10.0077C60.0565 10.0009 60.0096 10.0021 59.9628 10.0035C49.2751 10.3653 51.1431 20.3439 52.0784 23.2384Z" stroke="white" stroke-width="4" stroke-linecap="round" stroke-linejoin="round"/>
<path id="Layer 7" d="M60 75L73 83" stroke="white" stroke-width="4" stroke-linecap="round" stroke-linejoin="round"/>
<path id="Layer 8" d="M60 62V75L47 83" stroke="white" stroke-width="4" stroke-linecap="round" stroke-linejoin="round"/>
</g>
</g>
</svg>
