<svg width="120" height="120" viewBox="0 0 120 120" fill="none" xmlns="http://www.w3.org/2000/svg">
<g id="usa-flag">
<g id="usa-flag_2">
<path id="Layer 1" fill-rule="evenodd" clip-rule="evenodd" d="M60.4951 12.2089C43.6233 9.43528 28.6728 9.47091 16.293 11.2234C14.4137 11.4894 12.7554 11.7767 11.3286 12.0674C11.2114 12.0912 11.0986 12.1145 10.9901 12.1372V20.3506V51.2426V59.3987L12.5686 58.9868C12.7328 58.944 13.1561 58.8454 13.8274 58.7087C15.0116 58.4675 16.4226 58.223 18.0498 57.9926C29.4577 56.3777 43.4786 56.3777 59.4421 59.1C59.7939 59.16 60.1449 59.2187 60.4951 59.2763V12.2088V12.2089Z" stroke="white" stroke-width="4" stroke-linecap="round" stroke-linejoin="round"/>
<path id="Layer 2" fill-rule="evenodd" clip-rule="evenodd" d="M60.495 23.6327C77.3667 26.4063 92.3173 26.3707 104.697 24.6182C106.576 24.3522 108.235 24.0649 109.661 23.7742C109.779 23.7504 109.891 23.7271 110 23.7044V12.0864L108.422 12.4983C108.257 12.5412 107.834 12.6398 107.163 12.7765C105.978 13.0177 104.567 13.2622 102.94 13.4926C91.5324 15.1074 77.5115 15.1074 61.548 12.3852C61.1962 12.3252 60.8452 12.2664 60.495 12.2089L60.495 23.6327V23.6327Z" stroke="white" stroke-width="4" stroke-linecap="round" stroke-linejoin="round"/>
<path id="Layer 3" fill-rule="evenodd" clip-rule="evenodd" d="M60.495 35.5141C77.3667 38.2877 92.3173 38.252 104.697 36.4996C106.576 36.2335 108.235 35.9462 109.661 35.6556C109.779 35.6317 109.891 35.6084 110 35.5857V23.9678L108.422 24.3797C108.257 24.4225 107.834 24.5211 107.163 24.6579C105.978 24.8991 104.567 25.1436 102.94 25.3739C91.5324 26.9888 77.5115 26.9888 61.548 24.2666C61.1962 24.2066 60.8452 24.1478 60.495 24.0902L60.495 35.5141L60.495 35.5141Z" stroke="white" stroke-width="4" stroke-linecap="round" stroke-linejoin="round"/>
<path id="Layer 4" fill-rule="evenodd" clip-rule="evenodd" d="M60.495 47.395C77.3667 50.1685 92.3173 50.1329 104.697 48.3804C106.576 48.1144 108.235 47.8271 109.661 47.5364C109.779 47.5126 109.891 47.4893 110 47.4666V35.8486L108.422 36.2605C108.257 36.3034 107.834 36.402 107.163 36.5387C105.978 36.7799 104.567 37.0244 102.94 37.2548C91.5324 38.8696 77.5115 38.8696 61.548 36.1474C61.1962 36.0874 60.8452 36.0286 60.495 35.9711L60.495 47.395L60.495 47.395Z" stroke="white" stroke-width="4" stroke-linecap="round" stroke-linejoin="round"/>
<path id="Layer 5" fill-rule="evenodd" clip-rule="evenodd" d="M60.495 59.2763C77.3667 62.0499 92.3173 62.0142 104.697 60.2618C106.576 59.9957 108.235 59.7084 109.661 59.4178C109.779 59.3939 109.891 59.3706 110 59.3479V47.73L108.422 48.1419C108.257 48.1848 107.834 48.2833 107.163 48.4201C105.978 48.6613 104.567 48.9058 102.94 49.1361C91.5324 50.751 77.5115 50.751 61.548 48.0288C61.1962 47.9688 60.8452 47.91 60.495 47.8524L60.495 59.2763L60.495 59.2763Z" stroke="white" stroke-width="4" stroke-linecap="round" stroke-linejoin="round"/>
<path id="Layer 6" fill-rule="evenodd" clip-rule="evenodd" d="M10.9901 70.2898L12.5686 69.8779C12.7328 69.8351 13.1561 69.7365 13.8274 69.5998C15.0116 69.3586 16.4226 69.1141 18.0498 68.8837C29.4577 67.2688 43.4786 67.2688 59.4421 69.9911C76.7451 72.9417 92.0604 72.9417 104.697 71.1529C106.576 70.8868 108.235 70.5995 109.662 70.3089C109.779 70.285 109.892 70.2617 110 70.239V58.6211L108.422 59.033C108.257 59.0758 107.834 59.1744 107.163 59.3112C105.979 59.5524 104.567 59.7969 102.94 60.0272C91.5325 61.6421 77.5115 61.6421 61.5481 58.9199C44.245 55.9692 28.9297 55.9692 16.293 57.758C14.4137 58.0241 12.7554 58.3114 11.3286 58.602C11.2114 58.6259 11.0986 58.6492 10.9901 58.6719V70.2898V70.2898Z" stroke="white" stroke-width="4" stroke-linecap="round" stroke-linejoin="round"/>
<path id="Layer 7" fill-rule="evenodd" clip-rule="evenodd" d="M10.9901 82.1712L12.5686 81.7593C12.7328 81.7164 13.1561 81.6179 13.8274 81.4811C15.0116 81.2399 16.4226 80.9954 18.0498 80.7651C29.4577 79.1502 43.4786 79.1502 59.4421 81.8724C76.7451 84.8231 92.0604 84.8231 104.697 83.0342C106.576 82.7682 108.235 82.4809 109.662 82.1902C109.779 82.1664 109.892 82.1431 110 82.1204V70.5024L108.422 70.9143C108.257 70.9572 107.834 71.0558 107.163 71.1925C105.979 71.4337 104.567 71.6782 102.94 71.9085C91.5325 73.5234 77.5115 73.5234 61.5481 70.8012C44.245 67.8506 28.9297 67.8506 16.293 69.6394C14.4137 69.9054 12.7554 70.1928 11.3286 70.4834C11.2114 70.5073 11.0986 70.5306 10.9901 70.5533V82.1712V82.1712Z" stroke="white" stroke-width="4" stroke-linecap="round" stroke-linejoin="round"/>
<path id="Layer 8" fill-rule="evenodd" clip-rule="evenodd" d="M10.9901 93.0623L12.5686 92.6504C12.7328 92.6075 13.1561 92.509 13.8274 92.3722C15.0116 92.131 16.4226 91.8865 18.0498 91.6562C29.4577 90.0413 43.4786 90.0413 59.4421 92.7635C76.7451 95.7142 92.0604 95.7142 104.697 93.9253C106.576 93.6593 108.235 93.372 109.662 93.0813C109.779 93.0575 109.892 93.0342 110 93.0115V81.3935L108.422 81.8054C108.257 81.8483 107.834 81.9469 107.163 82.0836C105.979 82.3248 104.567 82.5693 102.94 82.7997C91.5325 84.4145 77.5115 84.4145 61.5481 81.6923C44.245 78.7417 28.9297 78.7417 16.293 80.5305C14.4137 80.7965 12.7554 81.0839 11.3286 81.3745C11.2114 81.3984 11.0986 81.4217 10.9901 81.4444V93.0623V93.0623Z" stroke="white" stroke-width="4" stroke-linecap="round" stroke-linejoin="round"/>
<path id="Layer 9" d="M10.9901 93.6555V109.025" stroke="white" stroke-width="4" stroke-linecap="round" stroke-linejoin="round"/>
</g>
</g>
</svg>
