<svg width="120" height="120" viewBox="0 0 120 120" fill="none" xmlns="http://www.w3.org/2000/svg">
<g id="user-love">
<g id="user-love_2">
<path id="Layer 1" fill-rule="evenodd" clip-rule="evenodd" d="M24.108 74.11C23.6624 74.3925 22.8229 76.1656 23.2027 77.7213C23.7675 80.0349 25.7764 80.9378 25.7764 80.9378C25.7764 80.9378 28.9194 85.2101 28.9194 87.6947C28.9194 90.1793 28.9194 91.1446 28.0771 93.2173C27.2348 95.2901 10.7019 97.7748 10 109.994H34.0638L58.3917 109.997C57.6898 97.7775 41.1569 95.2928 40.3146 93.22C39.4723 91.1472 39.4723 90.182 39.4723 87.6974C39.4723 85.2128 42.6153 80.9405 42.6153 80.9405C42.6153 80.9405 44.6242 80.0375 45.189 77.7239C45.5688 76.1682 44.7293 74.3951 44.2837 74.1127C45.4748 70.371 47.8537 57.4717 34.328 57.0068C34.2678 56.998 34.208 56.9996 34.1485 57.0014C20.538 57.4691 22.9169 70.3683 24.108 74.11Z" stroke="white" stroke-width="4" stroke-linecap="round" stroke-linejoin="round"/>
<path id="Layer 2" fill-rule="evenodd" clip-rule="evenodd" d="M59.5482 57.4597H58.0021C54.6811 57.4597 52 54.7739 52 51.4609V15.9988C52 12.6876 54.6872 10 58.0021 10H103.998C107.319 10 110 12.685 110 15.9971V22.0649V51.4554C110 54.7703 107.313 57.4597 103.998 57.4597H69.246C67.2775 68 58.3195 68 58.3195 68C58.3195 68 60.3541 63.3491 59.5482 57.4597V57.4597Z" stroke="white" stroke-width="4" stroke-linecap="round" stroke-linejoin="round"/>
<path id="Layer 3" fill-rule="evenodd" clip-rule="evenodd" d="M68 30.4211C68 41.5526 80.3684 46.5 80.3684 46.5C80.3684 46.5 92.7368 41.5526 92.7368 30.4211C92.7368 30.3557 92.7323 30.2929 92.7235 30.2325C92.7323 30.0904 92.7368 29.947 92.7368 29.8026C92.7368 26.0456 89.6912 23 85.9342 23C83.6335 23 81.5995 24.1422 80.3684 25.8904C79.1373 24.1422 77.1034 23 74.8026 23C71.0456 23 68 26.0456 68 29.8026C68 29.9471 68.0045 30.0906 68.0134 30.2329C68.0045 30.2932 68 30.3559 68 30.4211Z" stroke="white" stroke-width="4" stroke-linecap="round" stroke-linejoin="round"/>
</g>
</g>
</svg>
