<svg width="120" height="120" viewBox="0 0 120 120" fill="none" xmlns="http://www.w3.org/2000/svg">
<g id="vinyl">
<g id="vinyl_2">
<rect id="Layer 1" x="10" y="15" width="100" height="90" rx="3" stroke="white" stroke-width="4" stroke-linecap="round" stroke-linejoin="round"/>
<path id="Layer 2" fill-rule="evenodd" clip-rule="evenodd" d="M52 94C70.7777 94 86 78.7777 86 60C86 41.2223 70.7777 26 52 26C33.2223 26 18 41.2223 18 60C18 78.7777 33.2223 94 52 94Z" stroke="white" stroke-width="4" stroke-linecap="round" stroke-linejoin="round"/>
<rect id="Layer 3" x="93" y="25" width="10" height="10" rx="5" fill="white" stroke="white" stroke-width="4" stroke-linecap="round" stroke-linejoin="round"/>
<path id="Layer 4" fill-rule="evenodd" clip-rule="evenodd" d="M87.7758 84.1237C88.9487 82.9509 90.8463 82.9469 92.022 84.1225L93.4339 85.5344C94.6061 86.7066 94.6072 88.6061 93.4327 89.7806L87.7806 95.4327C86.6077 96.6056 84.71 96.6096 83.5344 95.4339L82.1225 94.022C80.9503 92.8498 80.9492 90.9503 82.1237 89.7758L87.7758 84.1237V84.1237Z" stroke="white" stroke-width="4" stroke-linecap="round" stroke-linejoin="round"/>
<path id="Layer 5" d="M98 37V79.5632L92.84 84.7185" stroke="white" stroke-width="4" stroke-linecap="round" stroke-linejoin="round"/>
<path id="Layer 6" fill-rule="evenodd" clip-rule="evenodd" d="M52 70C57.5228 70 62 65.5228 62 60C62 54.4772 57.5228 50 52 50C46.4772 50 42 54.4772 42 60C42 65.5228 46.4772 70 52 70Z" stroke="white" stroke-width="4" stroke-linecap="round" stroke-linejoin="round"/>
<path id="Layer 7" fill-rule="evenodd" clip-rule="evenodd" d="M52 63C53.6569 63 55 61.6569 55 60C55 58.3431 53.6569 57 52 57C50.3431 57 49 58.3431 49 60C49 61.6569 50.3431 63 52 63Z" fill="white" stroke="white" stroke-width="4" stroke-linecap="round" stroke-linejoin="round"/>
</g>
</g>
</svg>
