<svg width="120" height="120" viewBox="0 0 120 120" fill="none" xmlns="http://www.w3.org/2000/svg">
<g id="violin">
<g id="violin_2">
<path id="Path" d="M42.1216 50.5982L13.781 22.2576L19.2118 16.8268L48.6021 46.2171" stroke="white" stroke-width="4" stroke-linecap="round" stroke-linejoin="round"/>
<path id="Path_2" d="M69.2609 77.7374L88.4541 96.9306L93.8848 91.4998L73.6154 71.2305" stroke="white" stroke-width="4" stroke-linecap="round" stroke-linejoin="round"/>
<path id="Layer 2" d="M84.381 92.8575L100.673 109.15" stroke="white" stroke-width="4" stroke-linecap="round" stroke-linejoin="round"/>
<path id="Layer 3" d="M64.6667 50.1825C54.1664 41.1746 47.7502 45.5117 40.1897 52.2884C39.4603 55.3318 37.908 58.2183 35.5329 60.5934C31.3415 64.7847 25.5581 66.4136 20.1293 65.48L18.819 66.2203C7.84794 75.8143 7.28723 91.9311 17.5707 102.215C27.8563 112.5 43.9692 111.939 53.5649 100.966L54.2614 99.7518C53.264 94.2741 54.8829 88.4135 59.1179 84.1785C61.5875 81.7089 64.6099 80.1289 67.7868 79.4385C74.4308 71.9497 78.5369 65.4982 69.5633 55.0727" stroke="white" stroke-width="4" stroke-linecap="round" stroke-linejoin="round"/>
<path id="Layer 4" d="M97.7267 17.0192L95.8647 15.1572" stroke="white" stroke-width="4" stroke-linecap="round" stroke-linejoin="round"/>
<path id="Layer 5" d="M104.554 23.8465L102.692 21.9845" stroke="white" stroke-width="4" stroke-linecap="round" stroke-linejoin="round"/>
<path id="Layer 6" d="M94.0572 20.6889L92.1952 18.8269" stroke="white" stroke-width="4" stroke-linecap="round" stroke-linejoin="round"/>
<path id="Layer 7" d="M100.884 27.5162L99.0225 25.6542" stroke="white" stroke-width="4" stroke-linecap="round" stroke-linejoin="round"/>
<path id="Layer 8" fill-rule="evenodd" clip-rule="evenodd" d="M104.367 18.321L51.5336 74.1115C51.5336 74.1115 49.9868 74.1394 47.7793 71.9319C45.5719 69.7245 45.5997 68.1777 45.5997 68.1777L101.565 15.3581V10.6207H109.265V18.321H104.367V18.321V18.321Z" stroke="white" stroke-width="4" stroke-linecap="round" stroke-linejoin="round"/>
<path id="Layer 9" d="M23.6084 84.283L31.8802 76.0112V76.0112C33.0238 74.8676 34.8537 74.8433 35.9623 75.9519V75.9519" stroke="white" stroke-width="4" stroke-linecap="round" stroke-linejoin="round"/>
<path id="Layer 10" d="M31.8802 76.0112L23.6085 84.283V84.283C22.4648 85.4266 20.635 85.4509 19.5264 84.3423V84.3423" stroke="white" stroke-width="4" stroke-linecap="round" stroke-linejoin="round"/>
<path id="Layer 11" d="M35.7228 96.3975L43.9946 88.1257V88.1257C45.1382 86.9821 45.1625 85.1522 44.0539 84.0436V84.0436" stroke="white" stroke-width="4" stroke-linecap="round" stroke-linejoin="round"/>
<path id="Layer 12" d="M43.9946 88.1256L35.7228 96.3974V96.3974C34.5792 97.541 34.5549 99.3709 35.6635 100.479V100.479" stroke="white" stroke-width="4" stroke-linecap="round" stroke-linejoin="round"/>
</g>
</g>
</svg>
