<svg width="120" height="120" viewBox="0 0 120 120" fill="none" xmlns="http://www.w3.org/2000/svg">
<g id="watch-2">
<g id="watch-2_2">
<rect id="Layer 1" x="28" y="28" width="60" height="64" rx="8" stroke="white" stroke-width="4" stroke-linecap="round" stroke-linejoin="round"/>
<path id="Path" d="M81 28C81 28 74.6717 26.5059 73.9914 22.3242C73.5183 19.4161 72.9213 14.6663 72.7033 12.554C72.4854 10.4417 70.6793 10 69.7939 10H58H46.2061C45.3207 10 43.5146 10.4417 43.2967 12.554C43.0787 14.6663 42.4817 19.4161 42.0086 22.3242C41.3283 26.5059 35 28 35 28" stroke="white" stroke-width="4" stroke-linecap="round" stroke-linejoin="round"/>
<path id="Path_2" d="M81 92C81 92 74.6717 93.4941 73.9914 97.6758C73.5183 100.584 72.9213 105.334 72.7033 107.446C72.4854 109.558 70.6793 110 69.7939 110H58H46.2061C45.3207 110 43.5146 109.558 43.2967 107.446C43.0787 105.334 42.4817 100.584 42.0086 97.6758C41.3283 93.4941 35 92 35 92" stroke="white" stroke-width="4" stroke-linecap="round" stroke-linejoin="round"/>
<rect id="Layer 4" x="88" y="40" width="5" height="12" stroke="white" stroke-width="4" stroke-linecap="round" stroke-linejoin="round"/>
</g>
</g>
</svg>
