<svg width="120" height="120" viewBox="0 0 120 120" fill="none" xmlns="http://www.w3.org/2000/svg">
<g id="watermelon">
<g id="watermelon_2">
<path id="Layer 1" fill-rule="evenodd" clip-rule="evenodd" d="M92.7643 94.0285C112.355 74.4381 113.628 43.949 95.6086 25.9294C77.589 7.90983 47.1 9.18327 27.5095 28.7738C7.91905 48.3642 6.64561 78.8532 24.6652 96.8728C42.6848 114.892 73.1738 113.619 92.7643 94.0285Z" stroke="white" stroke-width="4" stroke-linecap="round" stroke-linejoin="round"/>
<path id="Layer 2" fill-rule="evenodd" clip-rule="evenodd" d="M24.6652 96.873C36.6783 108.886 62.298 102.743 81.8885 83.1529C101.479 63.5624 107.622 37.9427 95.6086 25.9296C83.5956 13.9166 57.9758 20.0593 38.3853 39.6497C18.7948 59.2402 12.6521 84.86 24.6652 96.873V96.873Z" stroke="white" stroke-width="4" stroke-linecap="round" stroke-linejoin="round"/>
<path id="Layer 3" fill-rule="evenodd" clip-rule="evenodd" d="M24.6652 96.8729C28.6696 100.877 47.797 88.2423 67.3875 68.6518C86.9779 49.0613 99.613 29.9339 95.6086 25.9295C91.6043 21.9252 72.4769 34.5602 52.8864 54.1507C33.2959 73.7412 20.6609 92.8686 24.6652 96.8729V96.8729Z" stroke="white" stroke-width="4" stroke-linecap="round" stroke-linejoin="round"/>
<path id="Layer 4" d="M96.0095 25.939C97.3452 24.7723 99.8992 22.2264 100.965 19.0247C102.44 14.5929 98.8778 11.0303 98.8778 11.0303" stroke="white" stroke-width="4" stroke-linecap="round" stroke-linejoin="round"/>
</g>
</g>
</svg>
