<svg width="300" height="300" viewBox="0 0 300 300" fill="none" xmlns="http://www.w3.org/2000/svg">
<path d="M236.621 132.224C237.987 130.857 240.204 130.857 241.57 132.224C242.937 133.59 242.937 135.807 241.57 137.173C240.204 138.54 237.987 138.54 236.621 137.173C235.254 135.807 235.254 133.59 236.621 132.224ZM236.621 161.922C237.987 160.555 240.204 160.555 241.57 161.922C242.937 163.289 242.937 165.505 241.57 166.872C240.204 168.239 237.987 168.239 236.621 166.872C235.254 165.505 235.254 163.289 236.621 161.922ZM221.771 117.374C223.138 116.008 225.354 116.008 226.721 117.374C228.088 118.741 228.088 120.957 226.721 122.324C225.354 123.691 223.138 123.691 221.771 122.324C220.404 120.957 220.404 118.741 221.771 117.374ZM221.771 147.073C223.138 145.706 225.354 145.706 226.721 147.073C228.088 148.44 228.088 150.656 226.721 152.023C225.354 153.389 223.138 153.389 221.771 152.023C220.404 150.656 220.404 148.44 221.771 147.073ZM221.771 176.771C223.138 175.405 225.354 175.405 226.721 176.771C228.088 178.138 228.088 180.354 226.721 181.721C225.354 183.088 223.138 183.088 221.771 181.721C220.404 180.354 220.404 178.138 221.771 176.771ZM206.922 102.525C208.289 101.158 210.505 101.158 211.872 102.525C213.239 103.892 213.239 106.108 211.872 107.475C210.505 108.842 208.289 108.842 206.922 107.475C205.555 106.108 205.555 103.892 206.922 102.525ZM206.922 132.224C208.289 130.857 210.505 130.857 211.872 132.224C213.239 133.59 213.239 135.807 211.872 137.173C210.505 138.54 208.289 138.54 206.922 137.173C205.555 135.807 205.555 133.59 206.922 132.224ZM206.922 161.922C208.289 160.555 210.505 160.555 211.872 161.922C213.239 163.289 213.239 165.505 211.872 166.872C210.505 168.239 208.289 168.239 206.922 166.872C205.555 165.505 205.555 163.289 206.922 161.922ZM206.922 191.621C208.289 190.254 210.505 190.254 211.872 191.621C213.239 192.987 213.239 195.203 211.872 196.57C210.505 197.937 208.289 197.937 206.922 196.57C205.555 195.203 205.555 192.987 206.922 191.621ZM192.073 117.374C193.44 116.008 195.656 116.008 197.023 117.374C198.389 118.741 198.389 120.957 197.023 122.324C195.656 123.691 193.44 123.691 192.073 122.324C190.706 120.957 190.706 118.741 192.073 117.374ZM192.073 147.073C193.44 145.706 195.656 145.706 197.023 147.073C198.389 148.44 198.389 150.656 197.023 152.023C195.656 153.389 193.44 153.389 192.073 152.023C190.706 150.656 190.706 148.44 192.073 147.073ZM192.073 176.771C193.44 175.405 195.656 175.405 197.023 176.771C198.389 178.138 198.389 180.354 197.023 181.721C195.656 183.088 193.44 183.088 192.073 181.721C190.706 180.354 190.706 178.138 192.073 176.771ZM177.224 102.525C178.59 101.158 180.807 101.158 182.173 102.525C183.54 103.892 183.54 106.108 182.173 107.475C180.807 108.842 178.59 108.842 177.224 107.475C175.857 106.108 175.857 103.892 177.224 102.525ZM177.224 132.224C178.59 130.857 180.807 130.857 182.173 132.224C183.54 133.59 183.54 135.807 182.173 137.173C180.807 138.54 178.59 138.54 177.224 137.173C175.857 135.807 175.857 133.59 177.224 132.224ZM177.224 161.922C178.59 160.555 180.807 160.555 182.173 161.922C183.54 163.289 183.54 165.505 182.173 166.872C180.807 168.239 178.59 168.239 177.224 166.872C175.857 165.505 175.857 163.289 177.224 161.922ZM177.224 191.621C178.59 190.254 180.807 190.254 182.173 191.621C183.54 192.987 183.54 195.203 182.173 196.57C180.807 197.937 178.59 197.937 177.224 196.57C175.857 195.203 175.857 192.987 177.224 191.621ZM162.374 117.374C163.741 116.008 165.957 116.008 167.324 117.374C168.691 118.741 168.691 120.957 167.324 122.324C165.957 123.691 163.741 123.691 162.374 122.324C161.008 120.957 161.008 118.741 162.374 117.374ZM162.374 147.073C163.741 145.706 165.957 145.706 167.324 147.073C168.691 148.44 168.691 150.656 167.324 152.023C165.957 153.389 163.741 153.389 162.374 152.023C161.008 150.656 161.008 148.44 162.374 147.073ZM162.374 176.771C163.741 175.405 165.957 175.405 167.324 176.771C168.691 178.138 168.691 180.354 167.324 181.721C165.957 183.088 163.741 183.088 162.374 181.721C161.008 180.354 161.008 178.138 162.374 176.771ZM147.621 161.922C148.987 160.555 151.204 160.555 152.57 161.922C153.937 163.289 153.937 165.505 152.57 166.872C151.204 168.239 148.987 168.239 147.621 166.872C146.254 165.505 146.254 163.289 147.621 161.922ZM147.621 132.224C148.987 130.857 151.204 130.857 152.57 132.224C153.937 133.59 153.937 135.807 152.57 137.173C151.204 138.54 148.987 138.54 147.621 137.173C146.254 135.807 146.254 133.59 147.621 132.224ZM132.771 117.374C134.138 116.008 136.354 116.008 137.721 117.374C139.088 118.741 139.088 120.957 137.721 122.324C136.354 123.691 134.138 123.691 132.771 122.324C131.404 120.957 131.404 118.741 132.771 117.374ZM132.771 147.073C134.138 145.706 136.354 145.706 137.721 147.073C139.088 148.44 139.088 150.656 137.721 152.023C136.354 153.389 134.138 153.389 132.771 152.023C131.404 150.656 131.404 148.44 132.771 147.073ZM132.771 176.771C134.138 175.405 136.354 175.405 137.721 176.771C139.088 178.138 139.088 180.354 137.721 181.721C136.354 183.088 134.138 183.088 132.771 181.721C131.404 180.354 131.404 178.138 132.771 176.771ZM117.922 102.525C119.289 101.158 121.505 101.158 122.872 102.525C124.239 103.892 124.239 106.108 122.872 107.475C121.505 108.842 119.289 108.842 117.922 107.475C116.555 106.108 116.555 103.892 117.922 102.525ZM117.922 132.224C119.289 130.857 121.505 130.857 122.872 132.224C124.239 133.59 124.239 135.807 122.872 137.173C121.505 138.54 119.289 138.54 117.922 137.173C116.555 135.807 116.555 133.59 117.922 132.224ZM117.922 161.922C119.289 160.555 121.505 160.555 122.872 161.922C124.239 163.289 124.239 165.505 122.872 166.872C121.505 168.239 119.289 168.239 117.922 166.872C116.555 165.505 116.555 163.289 117.922 161.922ZM117.922 191.621C119.289 190.254 121.505 190.254 122.872 191.621C124.239 192.987 124.239 195.203 122.872 196.57C121.505 197.937 119.289 197.937 117.922 196.57C116.555 195.203 116.555 192.987 117.922 191.621ZM103.073 117.374C104.44 116.008 106.656 116.008 108.023 117.374C109.389 118.741 109.389 120.957 108.023 122.324C106.656 123.691 104.44 123.691 103.073 122.324C101.706 120.957 101.706 118.741 103.073 117.374ZM103.073 147.073C104.44 145.706 106.656 145.706 108.023 147.073C109.389 148.44 109.389 150.656 108.023 152.023C106.656 153.389 104.44 153.389 103.073 152.023C101.706 150.656 101.706 148.44 103.073 147.073ZM103.073 176.771C104.44 175.405 106.656 175.405 108.023 176.771C109.389 178.138 109.389 180.354 108.023 181.721C106.656 183.088 104.44 183.088 103.073 181.721C101.706 180.354 101.706 178.138 103.073 176.771ZM88.2236 102.525C89.5904 101.158 91.8065 101.158 93.1734 102.525C94.5402 103.892 94.5402 106.108 93.1734 107.475C91.8065 108.842 89.5904 108.842 88.2236 107.475C86.8568 106.108 86.8568 103.892 88.2236 102.525ZM88.2236 132.224C89.5904 130.857 91.8065 130.857 93.1734 132.224C94.5402 133.59 94.5402 135.807 93.1734 137.173C91.8065 138.54 89.5904 138.54 88.2236 137.173C86.8568 135.807 86.8568 133.59 88.2236 132.224ZM88.2236 161.922C89.5904 160.555 91.8065 160.555 93.1734 161.922C94.5402 163.289 94.5402 165.505 93.1734 166.872C91.8065 168.239 89.5904 168.239 88.2236 166.872C86.8568 165.505 86.8568 163.289 88.2236 161.922ZM88.2236 191.621C89.5904 190.254 91.8065 190.254 93.1734 191.621C94.5402 192.987 94.5402 195.203 93.1734 196.57C91.8065 197.937 89.5904 197.937 88.2236 196.57C86.8568 195.203 86.8568 192.987 88.2236 191.621ZM73.3744 117.374C74.7412 116.008 76.9573 116.008 78.3241 117.374C79.6909 118.741 79.6909 120.957 78.3241 122.324C76.9573 123.691 74.7412 123.691 73.3744 122.324C72.0075 120.957 72.0075 118.741 73.3744 117.374ZM73.3744 147.073C74.7412 145.706 76.9573 145.706 78.3241 147.073C79.6909 148.44 79.6909 150.656 78.3241 152.023C76.9573 153.389 74.7412 153.389 73.3744 152.023C72.0075 150.656 72.0075 148.44 73.3744 147.073ZM73.3744 176.771C74.7412 175.405 76.9573 175.405 78.3241 176.771C79.6909 178.138 79.6909 180.354 78.3241 181.721C76.9573 183.088 74.7412 183.088 73.3744 181.721C72.0075 180.354 72.0075 178.138 73.3744 176.771ZM58.5251 161.922C59.892 160.555 62.108 160.555 63.4749 161.922C64.8417 163.289 64.8417 165.505 63.4749 166.872C62.108 168.239 59.892 168.239 58.5251 166.872C57.1583 165.505 57.1583 163.289 58.5251 161.922ZM58.5251 132.224C59.892 130.857 62.108 130.857 63.4749 132.224C64.8417 133.59 64.8417 135.807 63.4749 137.173C62.108 138.54 59.892 138.54 58.5251 137.173C57.1583 135.807 57.1583 133.59 58.5251 132.224Z" fill="#D6E1EF"/>
</svg>
